<?xml version="1.0" encoding="UTF-8" standalone="no"?>
<svg width="30px" height="30px" viewBox="0 0 30 30" version="1.1" xmlns="http://www.w3.org/2000/svg" xmlns:xlink="http://www.w3.org/1999/xlink">
    <!-- Generator: Sketch 42 (36781) - http://www.bohemiancoding.com/sketch -->
    <title>icon-demographics</title>
    <desc>Created with Sketch.</desc>
    <defs>
        <path d="M0.815,15.294 C0.815,23.311 7.313,29.809 15.33,29.809 C23.346,29.809 29.845,23.311 29.845,15.294 C29.845,7.276 23.346,0.778 15.33,0.778 C7.313,0.778 0.815,7.276 0.815,15.294 Z" id="path-1"></path>
        <path d="M0.814,15.294 C0.814,23.311 7.312,29.81 15.329,29.81 C23.346,29.81 29.844,23.311 29.844,15.294 C29.844,7.277 23.346,0.778 15.329,0.778 C7.312,0.778 0.814,7.277 0.814,15.294 Z" id="path-3"></path>
    </defs>
    <g id="National-profile-economy" stroke="none" stroke-width="1" fill="none" fill-rule="evenodd">
        <g id="Profile-section-economy" transform="translate(-831.000000, -752.000000)">
            <g id="Topicos" transform="translate(4.000000, 694.000000)">
                <g id="icon-demographics" transform="translate(827.000000, 58.000000)">
                    <g>
                        <mask id="mask-2" fill="white">
                            <use xlink:href="#path-1"></use>
                        </mask>
                        <g id="Clip-53"></g>
                        <polygon id="Fill-52" fill="#CCCCCC" fill-rule="evenodd" mask="url(#mask-2)" points="0 31.64 31 31.64 31 -0.36 0 -0.36"></polygon>
                        <mask id="mask-4" fill="white">
                            <use xlink:href="#path-3"></use>
                        </mask>
                        <g id="Clip-56"></g>
                        <polygon id="Fill-55" fill="#CCCCCC" fill-rule="evenodd" mask="url(#mask-4)" points="-6 35.64 37 35.64 37 -7.36 -6 -7.36"></polygon>
                    </g>
                    <path d="M17.4366,25.1807 C21.2716,25.1807 24.3816,21.8837 24.3816,17.8177 C24.3816,13.7497 21.2716,10.4537 17.4366,10.4537 C13.6016,10.4537 10.4916,13.7497 10.4916,17.8177 C10.4916,21.8837 13.6016,25.1807 17.4366,25.1807 Z" id="Stroke-58" stroke="#666666" stroke-width="1.732" stroke-linecap="round" stroke-linejoin="round"></path>
                    <path d="M22.6451,23.3398 L27.2821,28.2568" id="Stroke-60" stroke="#666666" stroke-width="1.732" stroke-linecap="round" stroke-linejoin="round"></path>
                </g>
            </g>
        </g>
    </g>
</svg>