<?xml version="1.0" encoding="UTF-8" standalone="no"?>
<svg width="38px" height="26px" viewBox="0 0 38 26" version="1.1" xmlns="http://www.w3.org/2000/svg" xmlns:xlink="http://www.w3.org/1999/xlink">
    <!-- Generator: Sketch 42 (36781) - http://www.bohemiancoding.com/sketch -->
    <title>icon-educacion</title>
    <desc>Created with Sketch.</desc>
    <defs></defs>
    <g id="Menu-topics" stroke="none" stroke-width="1" fill="none" fill-rule="evenodd">
        <g id="menu-topics" transform="translate(-248.000000, -107.000000)" fill="#FFFFFF">
            <g id="Set-iconos">
                <g id="icon-educacion" transform="translate(248.000000, 107.000000)">
                    <path d="M19.4102,16.3623 L2.9512,8.8623 L19.4102,1.3633 L35.8712,8.8623 L19.4102,16.3623 Z M29.0002,21.1073 C29.0002,21.1373 28.4122,24.1893 19.5002,24.1893 C10.5882,24.1893 10.0002,21.1373 10.0002,21.1233 L10.0002,13.5213 L19.0492,17.5953 C19.1292,17.6333 19.2702,17.6503 19.3562,17.6503 C19.4442,17.6503 19.7542,17.6333 19.8342,17.5953 L29.0002,13.5233 L29.0002,21.1073 Z M37.6032,8.3063 L19.6632,0.1333 C19.5012,0.0603 19.3172,0.0603 19.1552,0.1333 L1.2172,8.3063 C0.9982,8.4043 0.8582,8.6243 0.8582,8.8623 C0.8582,9.1033 0.9982,9.3203 1.2172,9.4213 L9.0232,12.9753 C9.0052,13.0323 9.0002,13.0923 9.0002,13.1543 L9.0002,21.1233 C9.0002,21.5633 9.3702,25.4153 19.5002,25.4153 C29.6292,25.4153 30.0002,21.5633 30.0002,21.1233 L30.0002,13.1543 C30.0002,13.0923 30.1482,13.0323 30.1312,12.9753 L34.0002,11.2863 L34.0002,20.1013 C33.0002,20.1013 33.1422,20.7113 33.1422,21.0503 C33.1422,21.3903 33.1712,22.0003 33.5102,22.0003 L34.7362,22.0003 C35.0762,22.0003 35.4812,21.3903 35.4812,21.0503 C35.4812,20.7113 35.0002,20.1013 35.0002,20.1013 L35.0002,10.7273 L37.7372,9.4213 C37.9552,9.3203 38.0302,9.1033 38.0302,8.8623 C38.0282,8.6243 37.8222,8.4043 37.6032,8.3063 L37.6032,8.3063 Z" id="Fill-3"></path>
                </g>
            </g>
        </g>
    </g>
</svg>