<?xml version="1.0" encoding="UTF-8" standalone="no"?>
<svg width="32px" height="18px" viewBox="0 0 32 18" version="1.1" xmlns="http://www.w3.org/2000/svg" xmlns:xlink="http://www.w3.org/1999/xlink">
    <!-- Generator: Sketch 46.2 (44496) - http://www.bohemiancoding.com/sketch -->
    <title>ico-nav-down</title>
    <desc>Created with Sketch.</desc>
    <defs></defs>
    <g id="menu-nav-topicos" stroke="none" stroke-width="1" fill="none" fill-rule="evenodd">
        <g transform="translate(-394.000000, -238.000000)" id="topicos" fill="#FFFFFF">
            <g transform="translate(53.000000, 80.000000)">
                <g id="ico-nav-down" transform="translate(341.000000, 158.000000)">
                    <path d="M31.2891,1.8573 C31.2891,2.1853 31.1641,2.5123 30.9141,2.7623 L16.9051,16.7713 C16.6651,17.0113 16.3401,17.1463 16.0001,17.1463 C15.6601,17.1463 15.3351,17.0113 15.0951,16.7713 L1.0861,2.7613 C0.5861,2.2613 0.5861,1.4513 1.0861,0.9513 C1.5861,0.4523 2.3971,0.4513 2.8961,0.9513 L16.0001,14.0563 L29.1041,0.9523 C29.6041,0.4523 30.4141,0.4523 30.9141,0.9523 C31.1641,1.2023 31.2891,1.5303 31.2891,1.8573" id="Fill-192"></path>
                </g>
            </g>
        </g>
    </g>
</svg>