<?xml version="1.0" encoding="UTF-8" standalone="no"?>
<svg width="27px" height="25px" viewBox="0 0 27 25" version="1.1" xmlns="http://www.w3.org/2000/svg" xmlns:xlink="http://www.w3.org/1999/xlink">
    <!-- Generator: Sketch 42 (36781) - http://www.bohemiancoding.com/sketch -->
    <title>icon-health</title>
    <desc>Created with Sketch.</desc>
    <defs>
        <path d="M5.76032768,23.64 C5.09087813,23.3953423 4.47521337,23.1271247 3.923,22.845 C2.023,21.871 0.2,20.369 0.2,19.501 C0.2,19.501 1.255,18.202 1.938,17.631 C1.784,16.757 1.704,15.855 1.704,14.933 C1.704,10.238 3.786,6.105 6.94,3.685 L6.615,3.035 C6.615,3.035 7.296,2.52 8.056,2.075 C8.82,1.631 9.618,1.533 9.618,1.533 L9.923,2.283 C10.297,2.139 11,1.849 11,1.748 L11,0.781 C11,0.781 12.301,0.445 13.499,0.445 C14.881,0.445 15.999,0.781 15.999,0.781 L15.999,1.792 C15.999,1.899 16.644,2.229 17.012,2.378 L17.447,1.533 C17.447,1.533 18.274,1.675 18.975,2.083 C19.746,2.529 20.425,3.035 20.425,3.035 L20.073,3.797 C23.144,6.232 25.161,10.312 25.161,14.933 C25.161,15.855 25.08,16.757 24.926,17.631 C25.607,18.202 26.831,19.501 26.831,19.501 C26.362,20.589 24.843,21.854 22.952,22.823 C22.3850837,23.1133239 21.7510668,23.3890973 21.0606971,23.64 L5.76032768,23.64 L5.76032768,23.64 Z" id="path-1"></path>
        <path d="M11,0.781 L11,1.749 C11,1.849 10.297,2.139 9.924,2.283 L9.617,1.533 C9.617,1.533 8.82,1.632 8.056,2.076 C7.297,2.52 6.615,3.035 6.615,3.035 L6.939,3.685 C3.786,6.105 1.703,10.238 1.703,14.935 C1.703,15.855 1.784,16.756 1.937,17.633 C1.255,18.202 0.201,19.502 0.201,19.502 C0.201,20.369 2.023,21.871 3.923,22.844 C4.475,23.126 5.09,23.395 5.758,23.64 L21.063,23.64 C21.752,23.389 22.385,23.113 22.951,22.824 C24.843,21.854 26.363,20.59 26.831,19.502 C26.831,19.502 25.608,18.202 24.926,17.633 C25.079,16.756 25.16,15.855 25.16,14.935 C25.16,10.312 23.144,6.233 20.075,3.797 L20.426,3.035 C20.426,3.035 19.746,2.528 18.975,2.083 C18.275,1.675 17.446,1.533 17.446,1.533 L17.011,2.378 C16.644,2.229 16,1.9 16,1.792 L16,0.781 C16,0.781 14.881,0.445 13.5,0.445 C12.3,0.445 11,0.781 11,0.781 Z" id="path-3"></path>
    </defs>
    <g id="National-profile-economy" stroke="none" stroke-width="1" fill="none" fill-rule="evenodd">
        <g id="Profile-section-economy" transform="translate(-963.000000, -753.000000)">
            <g id="Topicos" transform="translate(4.000000, 694.000000)">
                <g id="icon-health" transform="translate(959.000000, 59.000000)">
                    <g>
                        <path d="M24.9259,17.6289 C25.0789,16.7569 25.1599,15.8559 25.1599,14.9319 C25.1599,10.3109 23.1449,6.2329 20.0729,3.7969 L20.4249,3.0329 C20.4249,3.0329 19.7479,2.5299 18.9749,2.0819 C18.2729,1.6759 17.4469,1.5319 17.4469,1.5319 L17.0119,2.3779 C16.6439,2.2299 15.9999,1.8999 15.9999,1.7929 L15.9999,0.7809 C15.9999,0.7809 14.8809,0.4439 13.4999,0.4439 C12.3009,0.4439 10.9999,0.7809 10.9999,0.7809 L10.9999,1.7479 C10.9999,1.8489 10.2959,2.1399 9.9239,2.2819 L9.6179,1.5319 C9.6179,1.5319 8.8189,1.6299 8.0559,2.0759 C7.2959,2.5199 6.6139,3.0329 6.6139,3.0329 L6.9389,3.6829 C3.7849,6.1049 1.7039,10.2379 1.7039,14.9319 C1.7039,15.8559 1.7839,16.7569 1.9369,17.6289 C1.2549,18.2009 0.2009,19.5009 0.2009,19.5009 C0.2009,20.3699 2.0229,21.8709 3.9239,22.8439 C6.2169,24.0169 9.6059,24.9489 13.3969,24.9489 C17.2129,24.9489 20.6399,24.0059 22.9519,22.8209 C24.8429,21.8529 26.3609,20.5899 26.8309,19.5009 C26.8309,19.5009 25.6079,18.2009 24.9259,17.6289" id="Fill-99" fill="#CCCCCC" fill-rule="evenodd"></path>
                        <mask id="mask-2" fill="white">
                            <use xlink:href="#path-1"></use>
                        </mask>
                        <g id="Clip-102"></g>
                        <polygon id="Fill-101" fill="#CCCCCC" fill-rule="evenodd" mask="url(#mask-2)" points="0 23.64 27 23.64 27 -0.36 0 -0.36"></polygon>
                        <mask id="mask-4" fill="white">
                            <use xlink:href="#path-3"></use>
                        </mask>
                        <g id="Clip-105"></g>
                        <polygon id="Fill-104" fill="#CCCCCC" fill-rule="evenodd" mask="url(#mask-4)" points="-7 30.64 34 30.64 34 -7.36 -7 -7.36"></polygon>
                        <path d="M2.0371,17.7334 C2.0371,17.7334 6.8221,21.2554 13.6031,21.2554 C20.1571,21.2554 24.9931,17.4904 24.9931,17.4904" id="Stroke-107" stroke="#F2F2F2" stroke-width="1" mask="url(#mask-4)"></path>
                        <path d="M7.8542,5.5215 L8.8062,7.7445" id="Stroke-109" stroke="#F2F2F2" stroke-width="1" mask="url(#mask-4)"></path>
                        <path d="M19.1851,5.5215 L18.2331,7.7445" id="Stroke-111" stroke="#F2F2F2" stroke-width="1" mask="url(#mask-4)"></path>
                        <path d="M17.0972,2.3779 L15.7732,7.0699" id="Stroke-113" stroke="#F2F2F2" stroke-width="1" mask="url(#mask-4)"></path>
                        <path d="M9.934,2.4492 L11.227,7.1412" id="Stroke-115" stroke="#F2F2F2" stroke-width="1" mask="url(#mask-4)"></path>
                    </g>
                    <path d="M14,9.6396 C14,9.3006 13.838,9.0266 13.5,9.0276 C13.162,9.0276 13,9.3006 13,9.6396 L13,11.6396 L10.034,11.6396 C9.696,11.6396 9.422,12.3016 9.422,12.6396 C9.422,12.9786 9.696,13.6396 10.034,13.6396 L13,13.6396 L13,16.4686 C13,16.8076 13.162,17.0816 13.5,17.0816 C13.838,17.0816 14,16.8076 14,16.4686 L14,13.6396 L16.864,13.6396 C17.202,13.6396 17.477,12.9786 17.476,12.6396 C17.476,12.3016 17.202,11.6396 16.864,11.6396 L14,11.6396 L14,9.6396 Z" id="Fill-174" fill="#666666" fill-rule="evenodd"></path>
                </g>
            </g>
        </g>
    </g>
</svg>