<?xml version="1.0" encoding="UTF-8" standalone="no"?>
<svg width="70px" height="38px" viewBox="0 0 70 38" version="1.1" xmlns="http://www.w3.org/2000/svg" xmlns:xlink="http://www.w3.org/1999/xlink">
    <!-- Generator: Sketch 46.2 (44496) - http://www.bohemiancoding.com/sketch -->
    <title>ico-educacion-topic</title>
    <desc>Created with Sketch.</desc>
    <defs></defs>
    <g id="menu-nav-topicos" stroke="none" stroke-width="1" fill="none" fill-rule="evenodd">
        <g transform="translate(-181.000000, -87.000000)" id="topicos" fill="#FFFFFF">
            <g transform="translate(53.000000, 80.000000)">
                <g id="ico-educacion-topic" transform="translate(128.000000, 7.000000)">
                    <path d="M63.4829,23.4509 C63.8889,23.4509 64.1219,23.7409 64.1219,24.0899 C64.1219,24.4959 63.8879,24.7869 63.4829,24.7869 C63.1349,24.7869 62.8439,24.4959 62.8439,24.0899 C62.8439,23.7409 63.1349,23.4509 63.4829,23.4509 L63.4829,23.4509 Z M52.3899,19.8239 L52.3899,31.5929 C50.3809,30.2149 47.9709,29.4109 45.3859,29.4109 C40.9659,29.4109 37.1769,31.7639 34.9369,35.2679 C32.6979,31.7649 28.9099,29.4109 24.4879,29.4109 C21.9049,29.4109 19.4939,30.2159 17.5419,31.5929 L17.5419,19.8239 L32.1239,24.8179 C33.7899,25.3939 36.0859,25.3939 37.7499,24.8179 L52.3899,19.8239 Z M34.9649,1.9039 C35.8369,1.9039 36.7089,2.0199 37.2889,2.1949 L67.7229,12.5909 C67.8969,12.6479 67.9559,12.7059 68.0129,12.7649 C67.9559,12.8219 67.8969,12.8809 67.7229,12.9389 L53.3199,17.8759 C53.2029,17.8759 53.0289,17.8759 52.9709,17.9929 L37.2899,23.3359 C36.1279,23.7419 33.8049,23.7419 32.6439,23.3359 L16.9629,17.9349 C16.8459,17.9349 16.7889,17.8769 16.7289,17.8769 L2.2089,12.9389 C2.0349,12.8809 1.9769,12.8219 1.9189,12.7649 C1.9769,12.7059 2.0349,12.6479 2.2089,12.5909 L32.6429,2.1939 C33.2239,2.0189 34.0949,1.9039 34.9649,1.9039 L34.9649,1.9039 Z M34.7369,0.4479 C33.7609,0.4479 32.7859,0.5629 31.9239,0.8499 L1.8549,11.1219 C1.4539,11.2939 1.1089,11.4659 0.8219,11.6959 C0.5349,11.9259 0.3049,12.2699 0.3049,12.7289 C0.3049,13.1879 0.5349,13.5329 0.8219,13.7619 C1.1089,13.9919 1.4539,14.1639 1.8549,14.3359 L15.7999,19.0989 L15.7999,33.1509 C15.7999,33.8479 16.6129,34.1959 17.0779,33.7319 C19.0529,31.9899 21.5499,31.0019 24.3949,31.0019 C28.6929,31.0019 32.4109,33.4409 34.2689,37.0989 C34.5579,37.6229 35.3729,37.6229 35.6629,37.0989 C37.5219,33.4409 41.2379,31.0019 45.5359,31.0019 C48.3819,31.0019 50.8789,32.0469 52.8539,33.7319 C53.3769,34.1959 54.1319,33.8479 54.1319,33.1509 L54.1319,19.2319 L62.8439,16.2299 L62.8439,22.0569 L61.1019,23.9169 L61.1019,24.0909 L61.1019,27.5749 C61.2749,28.6209 62.9009,28.6209 62.8439,27.5749 L62.8439,26.1809 C63.0759,26.2389 63.2499,26.2979 63.4829,26.2979 C63.7139,26.2979 63.7159,26.1809 63.7159,26.1809 L63.7159,27.5749 L65.4579,27.5749 L65.4579,24.0909 L65.4579,23.9169 C65.6299,23.1019 63.7159,22.0569 63.7159,22.0569 L63.7159,15.6559 L67.6179,14.3359 C68.0199,14.1639 68.3639,13.9919 68.6509,13.7619 C68.9379,13.5329 69.1679,13.1879 69.1679,12.7289 C69.1679,12.2689 68.9379,11.9249 68.6509,11.6959 C68.3639,11.4669 68.0199,11.2939 67.6179,11.1219 L37.5489,0.8499 C36.6889,0.5629 35.7129,0.4479 34.7369,0.4479 L34.7369,0.4479 Z" id="Fill-244"></path>
                </g>
            </g>
        </g>
    </g>
</svg>