<?xml version="1.0" encoding="UTF-8" standalone="no"?>
<svg width="24px" height="34px" viewBox="0 0 24 34" version="1.1" xmlns="http://www.w3.org/2000/svg" xmlns:xlink="http://www.w3.org/1999/xlink">
    <!-- Generator: Sketch 42 (36781) - http://www.bohemiancoding.com/sketch -->
    <title>icon-innovacion</title>
    <desc>Created with Sketch.</desc>
    <defs></defs>
    <g id="Menu-topics" stroke="none" stroke-width="1" fill="none" fill-rule="evenodd">
        <g id="menu-topics" transform="translate(-156.000000, -104.000000)" fill="#FFFFFF">
            <g id="Set-iconos">
                <g id="icon-innovacion" transform="translate(156.000000, 104.000000)">
                    <path d="M9.896,31.8271 C9.522,31.8211 9.214,32.1201 9.209,32.4951 C9.204,32.8691 9.502,33.1771 9.877,33.1811 L9.896,33.1811 L13.962,33.1811 C14.336,33.1871 14.644,32.8881 14.649,32.5141 C14.654,32.1391 14.355,31.8321 13.981,31.8271 C13.975,31.8261 13.968,31.8261 13.962,31.8271 L9.896,31.8271 Z M7.863,29.1161 C7.489,29.1111 7.181,29.4101 7.176,29.7841 C7.171,30.1581 7.47,30.4661 7.844,30.4721 L7.857,30.4721 L15.995,30.4721 C16.369,30.4761 16.676,30.1781 16.682,29.8041 C16.687,29.4301 16.388,29.1221 16.014,29.1161 L15.995,29.1161 L7.863,29.1161 Z M7.863,26.4061 C7.489,26.4001 7.181,26.7001 7.176,27.0741 C7.171,27.4481 7.47,27.7561 7.844,27.7611 L7.857,27.7611 L15.995,27.7611 C16.369,27.7661 16.676,27.4681 16.682,27.0931 C16.687,26.7191 16.388,26.4111 16.014,26.4061 L15.995,26.4061 L7.863,26.4061 Z M14.633,12.8451 C14.454,12.8481 14.284,12.9241 14.16,13.0531 L11.929,15.2841 L9.698,13.0531 C9.57,12.9211 9.395,12.8481 9.212,12.8481 C8.837,12.8481 8.534,13.1511 8.534,13.5251 C8.534,13.7081 8.608,13.8831 8.739,14.0111 L11.251,16.5221 L11.251,23.0171 C11.246,23.3921 11.545,23.7001 11.919,23.7051 C12.293,23.7101 12.601,23.4111 12.606,23.0371 L12.606,23.0171 L12.606,16.5221 L15.118,14.0111 C15.388,13.7511 15.396,13.3221 15.137,13.0531 C15.005,12.9161 14.822,12.8401 14.633,12.8451 L14.633,12.8451 Z M11.929,4.0421 C11.555,4.0371 11.247,4.3361 11.242,4.7111 C11.236,5.0851 11.536,5.3921 11.91,5.3971 L11.929,5.3971 C15.679,5.3971 18.705,8.4241 18.705,12.1741 C18.7,12.5481 18.999,12.8551 19.373,12.8611 C19.747,12.8661 20.055,12.5671 20.06,12.1921 L20.06,12.1741 C20.06,7.6911 16.412,4.0421 11.929,4.0421 L11.929,4.0421 Z M11.929,0.6571 C6.72,0.6571 2.153,4.1601 0.805,9.1921 C-0.543,14.2231 1.66,19.5411 6.17,22.1451 C6.554,22.3671 6.819,22.5361 6.959,22.7001 C7.1,22.8641 7.186,23.0291 7.186,23.4861 L7.186,24.3731 C7.18,24.7471 7.479,25.0551 7.854,25.0601 C8.228,25.0651 8.536,24.7661 8.541,24.3921 L8.541,24.3731 L8.541,23.4861 C8.541,22.7981 8.333,22.2211 7.988,21.8171 C7.643,21.4151 7.231,21.1941 6.848,20.9731 C2.863,18.6721 0.923,13.9891 2.114,9.5441 C3.305,5.0981 7.327,2.0131 11.929,2.0131 C16.531,2.0131 20.552,5.0981 21.744,9.5441 C22.935,13.9891 20.995,18.6721 17.01,20.9731 C16.627,21.1941 16.215,21.4151 15.87,21.8171 C15.525,22.2211 15.317,22.7981 15.317,23.4861 L15.317,24.3731 C15.312,24.7471 15.611,25.0551 15.985,25.0601 C16.359,25.0651 16.667,24.7661 16.672,24.3921 L16.672,24.3731 L16.672,23.4861 C16.672,23.0291 16.758,22.8641 16.898,22.7001 C17.039,22.5361 17.304,22.3671 17.687,22.1451 C22.198,19.5411 24.4,14.2231 23.052,9.1921 C21.704,4.1601 17.138,0.6571 11.929,0.6571 L11.929,0.6571 Z"></path>
                </g>
            </g>
        </g>
    </g>
</svg>