<?xml version="1.0" encoding="UTF-8" standalone="no"?>
<svg width="30px" height="36px" viewBox="0 0 30 36" version="1.1" xmlns="http://www.w3.org/2000/svg" xmlns:xlink="http://www.w3.org/1999/xlink">
    <!-- Generator: Sketch 42 (36781) - http://www.bohemiancoding.com/sketch -->
    <title>icon-demografia</title>
    <desc>Created with Sketch.</desc>
    <defs></defs>
    <g id="Menu-topics" stroke="none" stroke-width="1" fill="none" fill-rule="evenodd">
        <g id="menu-topics" transform="translate(-472.000000, -102.000000)" fill="#FFFFFF" stroke="#FFFFFF">
            <g id="Set-iconos">
                <g id="icon-demografia" transform="translate(473.000000, 102.000000)">
                    <g>
                        <path d="M27.1118,16.6279 C26.5898,16.1549 26.0378,15.9999 25.3518,15.9999 L21.7098,15.9999 C20.4538,15.9999 19.9998,16.5779 18.9998,17.3119 L18.9998,11.4669 C18.9998,10.7419 18.9218,10.2559 18.4198,9.7299 C18.0008,9.2919 17.4378,8.9999 16.1318,8.9999 L14.1448,8.9999 C12.8998,8.9999 12.0308,9.4109 11.5648,10.2019 C10.9048,9.3849 9.7738,8.9999 8.6948,8.9999 L2.7788,8.9999 C1.8598,8.9999 1.1408,9.1369 0.6158,9.8319 C0.1958,10.3879 -0.0002,10.9189 -0.0002,11.6889 L-0.0002,20.5779 C-0.0002,20.9409 -0.0062,21.3999 0.2938,21.6999 C0.5908,21.9969 0.9388,21.9999 1.2828,21.9999 L1.9998,21.9999 L1.9998,34.9999 L2.9998,34.9999 L2.9998,20.9999 L1.2818,20.9999 C1.1598,20.9999 1.0568,21.0099 0.9928,20.9919 C0.9778,20.9589 0.9998,20.8599 0.9998,20.5779 L0.9998,11.6889 C0.9998,10.8799 1.2818,9.9999 2.7788,9.9999 L8.6948,9.9999 C8.9468,9.9999 10.9998,9.5669 10.9998,11.4409 L10.9998,17.8229 L8.5178,25.9999 L11.9998,25.9999 L11.9998,34.9999 L12.9998,34.9999 L12.9998,24.9999 L9.8568,24.9999 L11.9998,17.9769 L11.9998,11.4409 C11.9998,10.0709 12.7188,9.9999 14.1438,9.9999 L16.1318,9.9999 C17.2468,9.9999 17.9998,10.1239 17.9998,11.4669 L17.9998,18.0659 L20.7798,24.9999 L16.9998,24.9999 L16.9998,34.9999 L17.9998,34.9999 L17.9998,25.9999 L22.1298,25.9999 L19.9998,20.3389 L19.9998,18.0379 C19.9998,17.7529 20.5838,16.9999 21.7098,16.9999 L25.3518,16.9999 C26.0788,16.9999 26.9998,17.2449 26.9998,19.1329 L26.9998,24.9999 L24.9998,24.9999 L24.9998,34.9999 L25.9998,34.9999 L25.9998,25.9999 L27.9998,25.9999 L27.9998,19.1329 C27.9998,17.7349 27.5818,17.0519 27.1118,16.6279" id="Fill-5" stroke-width="0.3"></path>
                        <path d="M5.561,1.918 C6.698,1.918 7.623,2.842 7.623,3.979 C7.623,5.114 6.698,6.039 5.561,6.039 C4.425,6.039 3.5,5.114 3.5,3.979 C3.5,2.842 4.425,1.918 5.561,1.918 M5.561,7.012 C7.234,7.012 8.595,5.651 8.595,3.979 C8.595,2.306 7.234,0.945 5.561,0.945 C3.889,0.945 2.528,2.306 2.528,3.979 C2.528,5.651 3.889,7.012 5.561,7.012" id="Fill-7" stroke-width="0.3"></path>
                        <path d="M15.189,1.918 C16.326,1.918 17.25,2.842 17.25,3.979 C17.25,5.114 16.326,6.039 15.189,6.039 C14.053,6.039 13.128,5.114 13.128,3.979 C13.128,2.842 14.053,1.918 15.189,1.918 M15.189,7.012 C16.862,7.012 18.223,5.651 18.223,3.979 C18.223,2.306 16.862,0.945 15.189,0.945 C13.517,0.945 12.156,2.306 12.156,3.979 C12.156,5.651 13.517,7.012 15.189,7.012" id="Fill-9" stroke-width="0.3"></path>
                        <path d="M23.9512,8.8975 C25.0882,8.8975 26.0122,9.8215 26.0122,10.9565 C26.0122,12.0935 25.0872,13.0185 23.9512,13.0185 C22.8152,13.0185 21.8902,12.0935 21.8902,10.9565 C21.8902,9.8215 22.8152,8.8975 23.9512,8.8975 M23.9512,13.9915 C25.6242,13.9915 26.9852,12.6295 26.9852,10.9565 C26.9852,9.2845 25.6242,7.9245 23.9512,7.9245 C22.2782,7.9245 20.9172,9.2845 20.9172,10.9565 C20.9172,12.6295 22.2782,13.9915 23.9512,13.9915" id="Fill-11" stroke-width="0.3"></path>
                    </g>
                </g>
            </g>
        </g>
    </g>
</svg>