<?xml version="1.0" encoding="UTF-8" standalone="no"?>
<svg width="26px" height="30px" viewBox="0 0 26 30" version="1.1" xmlns="http://www.w3.org/2000/svg" xmlns:xlink="http://www.w3.org/1999/xlink">
    <!-- Generator: Sketch 42 (36781) - http://www.bohemiancoding.com/sketch -->
    <title>icon-politics</title>
    <desc>Created with Sketch.</desc>
    <defs></defs>
    <g id="National-profile-economy" stroke="none" stroke-width="1" fill="none" fill-rule="evenodd">
        <g id="Profile-section-economy" transform="translate(-1072.000000, -754.000000)">
            <g id="Topicos" transform="translate(4.000000, 694.000000)">
                <g id="icon-politics" transform="translate(1068.000000, 60.000000)">
                    <g transform="translate(1.000000, 1.000000)">
                        <polyline id="Fill-38" fill="#CAD3E4" points="16.0394 22.749 18.6194 20.169 22.5844 21.316 17.2334 26.523"></polyline>
                        <path d="M23,19.6523 C23,20.7503 22.11,21.6393 21.013,21.6393 L1.987,21.6393 C0.89,21.6393 0,20.7503 0,19.6523 L0,2.6273 C0,1.5293 0.89,0.6393 1.987,0.6393 L21.013,0.6393 C22.11,0.6393 23,1.5293 23,2.6273 L23,19.6523 Z" id="Fill-39" fill="#CCCCCC"></path>
                        <polygon id="Fill-40" fill="#CCCCCC" points="0 26.64 18 26.64 18 0.64 0 0.64"></polygon>
                    </g>
                    <path d="M18.2339,27.5234 L18.2339,23.7014 C18.2339,22.6984 18.6639,22.3164 19.6669,22.3164 L23.5849,22.3164 C21.7689,24.0364 20.0019,25.8034 18.2339,27.5234 L18.2339,27.5234 Z M3.9489,28.1924 C2.5159,28.1924 1.4649,27.1894 1.4649,25.7084 L1.4649,18.8284 L1.4649,4.4004 C1.4649,3.6354 1.7039,2.9664 2.1809,2.5374 C2.6589,2.0594 3.2799,1.8204 3.9969,1.8204 L9.1569,1.8204 L21.3389,1.8204 C22.8679,1.8204 23.8709,2.8234 23.8709,4.3524 L23.8709,8.3174 L23.8709,21.1694 L19.6189,21.1694 C17.9949,21.1694 17.0399,22.1254 17.0399,23.7494 L17.0399,28.1924 L16.8489,28.1924 L3.9489,28.1924 Z M25.0179,8.3174 L25.0179,4.4004 C25.0179,2.2504 23.4889,0.7214 21.3389,0.7214 L3.9969,0.6734 C2.9459,0.6734 2.0379,1.0554 1.3689,1.7244 C0.6999,2.3934 0.3179,3.3484 0.3179,4.3524 L0.3179,18.7804 L0.3179,25.6604 C0.3179,27.7144 1.8469,29.2914 3.9009,29.2914 L16.8489,29.2914 C17.6129,29.2914 18.3299,29.0044 18.8549,28.4794 C20.6709,26.7114 22.4859,24.8954 24.3019,23.1274 C24.7789,22.6504 25.0179,22.1254 25.0179,21.4564 L25.0179,8.3174 Z" id="Fill-146" fill="#E6E6E6"></path>
                    <path d="M17.0634,17.3652 L15.9164,17.9392 L15.3434,16.7922 C15.2484,16.6012 15.1524,16.5062 15.0094,16.4582 C14.7704,16.3622 14.4834,16.4582 14.3404,16.6972 C14.2444,16.8402 14.2444,17.0792 14.3404,17.2702 L14.4834,17.5562 C14.5314,17.7002 14.6264,17.8442 14.7224,17.9862 L14.9134,18.4172 C14.8654,18.4172 14.8184,18.4652 14.8184,18.4652 L14.3404,18.7032 C14.1494,18.7992 13.9584,18.8942 13.7664,18.9902 C13.6234,19.0862 13.4324,19.1812 13.4324,19.4682 C13.4324,19.6592 13.4804,19.8022 13.5754,19.8972 C13.7194,20.0892 13.9584,20.1362 14.2444,19.9932 C14.3884,19.9452 14.5314,19.8492 14.6744,19.8022 L15.4394,19.4202 L16.0124,20.5662 C16.1074,20.7582 16.2994,20.9012 16.5374,20.9012 C16.6334,20.9012 16.6814,20.9012 16.7764,20.8532 C16.9204,20.8052 17.0154,20.7102 17.0634,20.5662 C17.1114,20.4232 17.1114,20.2322 17.0154,20.0892 C16.9674,19.9932 16.9204,19.8972 16.8724,19.7552 L16.4424,18.8942 L16.7764,18.7512 C17.0634,18.6072 17.3504,18.5122 17.5894,18.3212 C17.7804,18.2252 17.8754,18.0342 17.9234,17.8442 C17.9234,17.6522 17.8274,17.5092 17.6844,17.3652 C17.4934,17.2222 17.2544,17.2702 17.0634,17.3652" id="Fill-148" fill="#808080"></path>
                    <path d="M11.9513,8.4795 C12.0943,8.4315 12.2383,8.3355 12.3813,8.2885 L13.1453,7.9065 L13.7193,9.0525 C13.8143,9.2445 14.0053,9.3865 14.2443,9.3865 C14.3403,9.3865 14.3883,9.3865 14.4833,9.3385 C14.6273,9.2915 14.7223,9.1965 14.7703,9.0525 C14.8183,8.9095 14.8183,8.7185 14.7223,8.5755 C14.6743,8.4795 14.6273,8.3355 14.5793,8.2405 L14.1493,7.3805 L14.4833,7.2375 C14.7703,7.0935 15.0563,6.9985 15.3433,6.8075 C15.5343,6.7115 15.6303,6.5205 15.6783,6.3295 C15.6783,6.1385 15.5823,5.9955 15.4393,5.8515 C15.2953,5.8515 15.2003,5.7555 15.0563,5.7555 C14.9613,5.7555 14.8653,5.8035 14.7703,5.8515 L13.6233,6.4245 L13.0503,5.2785 C12.9543,5.0865 12.8593,4.9925 12.7163,4.9445 C12.4773,4.8485 12.1903,4.9445 12.0473,5.1825 C11.9513,5.3745 11.9513,5.5655 12.0473,5.7555 L12.1903,5.9955 C12.2383,6.1385 12.3333,6.2815 12.3813,6.4725 L12.6203,6.9025 C12.5723,6.9025 12.5243,6.9505 12.5243,6.9505 L12.0943,7.1415 C11.9033,7.2375 11.7123,7.3335 11.5213,7.4285 C11.3783,7.5235 11.1873,7.6195 11.1873,7.8585 C11.1873,8.0495 11.2343,8.1925 11.3303,8.2885 C11.4253,8.5275 11.6643,8.5755 11.9513,8.4795" id="Fill-150" fill="#808080"></path>
                    <path d="M20.8854,11.9668 C20.8854,12.1578 20.8374,12.3498 20.6944,12.4918 C20.5514,12.6358 20.4074,12.7318 20.2164,12.7318 C20.0254,12.7318 19.8344,12.6358 19.6914,12.5398 C19.5474,12.3978 19.5004,12.2538 19.5004,12.0628 C19.5004,11.8708 19.5954,11.6808 19.7384,11.5368 C19.8824,11.4418 20.0254,11.3458 20.2164,11.3458 C20.5984,11.2978 20.8854,11.5848 20.8854,11.9668 M21.3154,10.8678 C21.0284,10.5808 20.5984,10.5618 20.1684,10.5618 C19.5474,10.5618 19.0224,10.6398 18.7834,11.6398 L18.6404,11.6398 L18.4014,11.6398 C17.7324,11.6398 17.0634,11.3258 16.3464,11.3258 C14.7224,11.3258 13.5284,11.6218 12.5724,12.4348 C11.5214,13.3428 10.9954,14.5418 10.5184,15.7368 C10.2794,16.3578 9.9924,16.9568 9.7064,17.4828 C8.8934,18.8678 7.7474,19.8608 6.4574,20.3858 L6.8874,18.8048 C6.9824,18.4698 6.7914,18.1808 6.4574,18.0848 C6.1224,18.0368 5.8364,18.2268 5.7404,18.5138 L5.0714,21.0448 C4.9764,21.3318 5.0244,21.6178 5.1674,21.8568 C5.3104,22.0958 5.5494,22.2868 5.8364,22.3818 L8.4164,23.0988 C8.4634,23.0988 8.5114,23.1468 8.6074,23.1468 C8.8464,23.1468 9.0844,22.9548 9.1804,22.7168 C9.2284,22.5728 9.1804,22.3818 9.1324,22.2388 C9.0374,22.0958 8.9414,21.9998 8.7984,21.9518 L7.0784,21.4748 C8.6074,20.8538 10.4934,19.6588 11.4484,18.1298 C11.7834,17.5568 11.0004,16.8878 13.0004,16.2668 L13.0004,16.2188 C13.0004,15.0718 13.2644,14.0218 14.0764,13.3048 C14.7924,12.6838 15.4264,12.3978 16.7644,12.3978 C17.3854,12.3978 17.8934,12.4448 18.5624,12.5398 C18.7054,12.5398 18.7684,12.5878 18.9114,12.5878 C19.0074,12.9228 19.2054,13.1608 19.4444,13.3528 C19.7314,13.5438 20.0454,13.6398 20.3804,13.6398 C20.8104,13.6398 21.1824,13.4478 21.4684,13.1608 C21.7554,12.8748 21.8934,12.4448 21.8934,12.0148 C21.7984,11.5368 21.6024,11.1548 21.3154,10.8678" id="Fill-152" fill="#808080"></path>
                    <path d="M5.8361,11.9668 C6.5051,11.9668 7.0781,12.4918 7.0781,13.2088 C7.0781,13.8778 6.5531,14.4508 5.8361,14.4508 C5.1671,14.4508 4.5941,13.9258 4.5941,13.2088 C4.5941,12.5398 5.1671,11.9668 5.8361,11.9668 M8.2251,13.2088 C8.2251,11.9188 7.1741,10.8208 5.8361,10.8208 C4.5461,10.8208 3.4471,11.8708 3.4471,13.2088 C3.4471,14.4988 4.4981,15.5978 5.8361,15.5978 C7.1261,15.5498 8.2251,14.4988 8.2251,13.2088" id="Fill-154" fill="#808080"></path>
                </g>
            </g>
        </g>
    </g>
</svg>