<?xml version="1.0" encoding="UTF-8" standalone="no"?>
<svg width="47px" height="49px" viewBox="0 0 47 49" version="1.1" xmlns="http://www.w3.org/2000/svg" xmlns:xlink="http://www.w3.org/1999/xlink">
    <!-- Generator: Sketch 46.2 (44496) - http://www.bohemiancoding.com/sketch -->
    <title>ico-entorno-topic</title>
    <desc>Created with Sketch.</desc>
    <defs></defs>
    <g id="menu-nav-topicos" stroke="none" stroke-width="1" fill="none" fill-rule="evenodd">
        <g transform="translate(-349.000000, -80.000000)" id="topicos" fill="#FFFFFF">
            <g transform="translate(53.000000, 80.000000)">
                <g id="ico-entorno-topic" transform="translate(296.000000, 0.000000)">
                    <path d="M41.3311,46.7123 L28.6931,46.7123 L28.6931,28.9753 C28.6931,28.5673 28.3621,28.2363 27.9541,28.2363 L19.0861,28.2363 C18.6781,28.2363 18.3471,28.5673 18.3471,28.9753 L18.3471,46.7123 L5.0441,46.7123 L5.0441,15.0083 L23.1501,1.8533 L41.2571,15.0083 L41.2571,46.7123 L41.3311,46.7123 Z M19.8241,46.7123 L27.2151,46.7123 L27.2151,29.7143 L19.8241,29.7143 L19.8241,46.7123 Z M34.6051,3.8483 L36.8231,3.8483 L36.8231,9.9083 L34.6051,8.2083 L34.6051,3.8483 Z M45.7591,16.4633 L37.5611,10.9293 L37.5611,10.7813 L37.5611,3.1093 C37.5611,2.7013 37.2311,2.3703 36.8231,2.3703 L33.1271,2.3703 C32.7191,2.3703 32.3881,2.7013 32.3881,3.1093 L32.3881,7.1663 L23.2481,0.5253 C22.9531,0.3043 22.6581,0.3043 22.3631,0.5253 L0.6181,16.4633 C0.3231,16.6843 0.2491,17.2013 0.4701,17.4963 C0.6911,17.7913 1.2071,17.8653 1.5021,17.6433 L3.5661,16.1683 L3.5661,47.4513 C3.5661,47.8593 3.8971,48.1903 4.3051,48.1903 L41.9961,48.1903 C42.4041,48.1903 42.7351,47.8593 42.7351,47.4513 L42.7351,16.1683 L44.9631,17.6433 C45.1231,17.7173 45.2821,17.7913 45.4411,17.7913 C45.6801,17.7913 45.9181,17.7173 46.0781,17.4963 C46.2371,17.1273 46.1571,16.6843 45.7591,16.4633 L45.7591,16.4633 Z" id="Fill-212"></path>
                    <path d="M33.1274,33.114 L33.1274,33.114 C33.1274,32.449 33.7994,31.932 34.6054,31.932 C35.4114,31.932 36.0834,32.449 36.0834,33.04 L36.0834,33.114 L36.0834,40.061 L33.1274,40.061 L33.1274,33.114 Z M32.4624,41.539 L36.8224,41.539 C37.2314,41.539 37.5614,41.208 37.5614,40.8 L37.5614,32.966 L37.5614,32.892 C37.4914,31.488 36.2244,30.454 34.6054,30.454 C32.9864,30.454 31.7194,31.562 31.6494,32.892 L31.6494,32.966 L31.6494,40.726 C31.6494,41.173 32.0154,41.539 32.4624,41.539 L32.4624,41.539 Z" id="Fill-214"></path>
                    <path d="M13.1733,40.0609 L10.2173,40.0609 L10.2173,33.1139 L10.2173,33.0399 C10.2173,32.4489 10.8893,31.9319 11.6953,31.9319 C12.5023,31.9319 13.1733,32.4489 13.1733,33.0399 L13.1733,33.1139 L13.1733,40.0609 Z M11.6953,30.4539 C10.0763,30.4539 8.8093,31.5619 8.7393,32.9659 L8.7393,33.0399 L8.7393,40.7999 C8.7393,41.2079 9.0703,41.5389 9.4783,41.5389 L13.9123,41.5389 C14.3203,41.5389 14.6523,41.2079 14.6523,40.7999 L14.6523,33.0399 L14.6523,32.9659 C14.5813,31.5619 13.3143,30.4539 11.6953,30.4539 L11.6953,30.4539 Z" id="Fill-216"></path>
                    <path d="M27.2153,17.3727 L27.2153,17.4467 L27.2153,19.3677 L24.2583,19.3677 L24.2583,14.7857 C25.9593,15.0077 27.2153,16.1167 27.2153,17.3727 L27.2153,17.3727 Z M19.8243,17.4467 L19.8243,17.3727 C19.8243,16.1167 21.0813,15.0077 22.7803,14.7857 L22.7803,19.3677 L19.8243,19.3677 L19.8243,17.4467 Z M18.3463,17.2247 L18.3463,17.3727 L18.3463,20.1067 C18.3463,20.5157 18.6773,20.8467 19.0863,20.8467 L27.9543,20.8467 C28.3623,20.8467 28.6933,20.5157 28.6933,20.1067 L28.6933,17.3727 L28.6933,17.2247 C28.6193,14.9337 26.3283,13.2337 23.5203,13.2337 C20.7123,13.1607 18.4943,14.9337 18.3463,17.2247 L18.3463,17.2247 Z" id="Fill-218"></path>
                </g>
            </g>
        </g>
    </g>
</svg>