<svg width="25px" height="33px" viewBox="0 0 25 33" version="1.1" xmlns="http://www.w3.org/2000/svg" xmlns:xlink="http://www.w3.org/1999/xlink">
    <g id="Menu-topics" stroke="none" stroke-width="1" fill="none" fill-rule="evenodd">
        <g id="menu-topics" transform="translate(-656.000000, -103.000000)" class="fill-color">
            <g id="Set-iconos">
                <g id="icon-politica" transform="translate(656.000000, 103.000000)">
                    <path d="M20.688,11.4092 C21.167,11.4092 21.486,11.0902 21.486,10.6102 C21.486,10.1322 21.167,9.8122 20.688,9.8122 L14.938,9.8122 C14.459,9.8122 14.14,10.1322 14.14,10.6102 C14.14,11.0902 14.459,11.4092 14.938,11.4092 L20.688,11.4092 Z" id="Fill-23"></path>
                    <path d="M4.7158,19.3955 C4.7158,19.8745 5.0348,20.1935 5.5148,20.1935 L19.8098,20.1935 C20.2888,20.1935 20.6078,19.8745 20.6078,19.3955 C20.6078,18.9165 20.2888,18.5965 19.8098,18.5965 L5.5148,18.5965 C5.1148,18.5965 4.7158,18.9165 4.7158,19.3955" id="Fill-25"></path>
                    <path d="M5.5146,24.1865 L19.8096,24.1865 C20.2886,24.1865 20.6076,23.8675 20.6076,23.3885 C20.6076,22.9095 20.2886,22.5895 19.8096,22.5895 L5.5146,22.5895 C5.0356,22.5895 4.7156,22.9095 4.7156,23.3885 C4.7156,23.8675 5.1156,24.1865 5.5146,24.1865" id="Fill-27"></path>
                    <path d="M5.5146,28.1797 L19.8096,28.1797 C20.2886,28.1797 20.6076,27.8607 20.6076,27.3807 C20.6076,26.9027 20.2886,26.5827 19.8096,26.5827 L5.5146,26.5827 C5.0356,26.5827 4.7156,26.9027 4.7156,27.3807 C4.7156,27.8607 5.1156,28.1797 5.5146,28.1797" id="Fill-29"></path>
                    <path d="M6.7124,15.4023 C6.7124,15.8813 7.0314,16.2013 7.5114,16.2013 L17.8934,16.2013 C18.3724,16.2013 18.6914,15.8813 18.6914,15.4023 C18.6914,14.9233 18.3724,14.6033 17.8934,14.6033 L7.5114,14.6033 C7.0314,14.6033 6.7124,14.9233 6.7124,15.4023" id="Fill-31"></path>
                    <path d="M16.4556,4.9404 C16.2156,5.4194 15.6566,5.7394 15.0186,5.7394 L10.2266,5.7394 C9.6676,5.7394 9.1086,5.4194 8.8686,4.9404 C8.7086,4.7014 8.6286,4.4614 8.6286,4.1414 C8.6286,3.8224 8.7086,3.5834 8.8686,3.3434 C9.1086,2.8644 9.6676,2.5444 10.2266,2.5444 L15.0186,2.5444 C15.5766,2.5444 16.1356,2.8644 16.3756,3.3434 C16.5356,3.5834 16.6156,3.8224 16.6156,4.1414 C16.6156,4.4614 16.6156,4.7014 16.4556,4.9404 M21.7266,3.3434 L18.1326,3.3434 C17.7326,1.9854 16.5356,0.9474 15.0186,0.9474 L10.2266,0.9474 C8.7086,0.9474 7.5116,1.9854 7.1116,3.3434 L3.4376,3.3434 C2.0006,3.3434 0.7236,4.6214 0.7236,6.1384 C0.7236,6.6174 1.1226,6.9374 1.5216,6.9374 C1.9206,6.9374 2.3206,6.6174 2.3206,6.1384 C2.3206,5.5004 2.8786,4.9404 3.5176,4.9404 L7.1916,4.9404 C7.5116,6.2974 8.7886,7.3364 10.3066,7.3364 L15.0976,7.3364 C16.6156,7.3364 17.8126,6.2974 18.2126,4.9404 L21.8066,4.9404 C22.4446,4.9404 23.0036,5.5004 23.0036,6.1384 L23.0036,30.1764 C23.0036,30.8154 22.4446,31.2944 21.8066,31.2944 L3.5176,31.2944 C2.8786,31.2944 2.3206,30.8154 2.3206,30.1764 L2.3206,12.1274 C2.3206,11.6484 1.9206,11.3294 1.5216,11.3294 C1.1226,11.3294 0.7236,11.6484 0.7236,12.1274 L0.7236,30.1764 C0.7236,31.6934 1.9206,32.8914 3.5176,32.8914 L21.7266,32.8914 C23.2436,32.8914 24.5206,31.6144 24.5206,30.1764 L24.5206,6.1384 C24.5206,4.6214 23.2436,3.3434 21.7266,3.3434" id="Fill-33"></path>
                </g>
            </g>
        </g>
    </g>
</svg>