<?xml version="1.0" encoding="UTF-8" standalone="no"?>
<svg width="20px" height="28px" viewBox="0 0 20 28" version="1.1" xmlns="http://www.w3.org/2000/svg" xmlns:xlink="http://www.w3.org/1999/xlink">
    <!-- Generator: Sketch 42 (36781) - http://www.bohemiancoding.com/sketch -->
    <title>icon-innovation</title>
    <desc>Created with Sketch.</desc>
    <defs>
        <path d="M0.001,7.695 C1.055,3.479 4.988,0.314 9.502,0.314 C14.79,0.314 19.276,4.639 19.276,9.919 C19.276,12.031 18.379,12.64 17.233,15.64 L17.24,15.64 C16.501,15.64 15.359,17.441 14.675,18.616 C13.182,21.184 12.999,23.472 12.999,24.078 L12.999,23.639 L5.016,23.639 C5.052,22.72 5.038,20.727 3.811,18.616 C3.127,17.441 2.496,15.64 1.755,15.64 L1.775,15.64 C1.008,13.643 0.353,12.714 0.001,11.695 L0.001,7.695 Z M5,23.639 L5.016,23.639 C5.009,23.839 5,23.987 5,24.078 L5,23.639 Z" id="path-1"></path>
        <path d="M12.719,10.64 L12.001,15.48 L13.847,10.64 L12.719,10.64 Z M5.156,10.64 L6.999,15.48 L6.999,22.641 L8,22.641 L8,15.48 L6.284,10.64 L5.156,10.64 Z M12.001,15.48 L12.001,22.641 L12.001,15.48 Z M8,22.641 L12.001,22.641 L8,22.641 Z" id="path-3"></path>
        <path d="M12.718,10.64 L12.002,15.481 L13.846,10.64 L12.718,10.64 Z M5.156,10.64 L7,15.481 L7,22.641 L8,22.641 L8,15.481 L6.284,10.64 L5.156,10.64 Z M12.002,15.481 L12.002,22.641 L12.002,15.481 Z M8,22.641 L12.002,22.641 L8,22.641 Z" id="path-5"></path>
        <polygon id="path-7" points="6 22.641 6 25.235 6 26.22 6 27.641 12.002 27.641 12.002 26.22 12.002 25.235 12.002 22.641"></polygon>
    </defs>
    <g id="National-profile-economy" stroke="none" stroke-width="1" fill="none" fill-rule="evenodd">
        <g id="Profile-section-economy" transform="translate(-433.000000, -754.000000)">
            <g id="Topicos" transform="translate(4.000000, 694.000000)">
                <g id="icon-innovation" transform="translate(429.000000, 60.000000)">
                    <g>
                        <mask id="mask-2" fill="white">
                            <use xlink:href="#path-1"></use>
                        </mask>
                        <g id="Clip-158"></g>
                        <polygon id="Fill-157" fill="#CAD3E4" fill-rule="evenodd" mask="url(#mask-2)" points="-7 30.64 26 30.64 26 -7.36 -7 -7.36"></polygon>
                        <polygon id="Fill-160" fill="#ED375D" fill-rule="evenodd" mask="url(#mask-2)" points="12 22.6396 12 15.4806 13.846 10.6396 12.719 10.6396 12 15.4806 12 22.6396 8 22.6396 8 15.4806 6.283 10.6396 5.156 10.6396 7 15.4806 7 22.6396"></polygon>
                        <mask id="mask-4" fill="white">
                            <use xlink:href="#path-3"></use>
                        </mask>
                        <g id="Clip-163"></g>
                        <polygon id="Fill-162" fill="#ED375D" fill-rule="evenodd" mask="url(#mask-4)" points="0 28.64 20 28.64 20 -0.36 0 -0.36"></polygon>
                        <mask id="mask-6" fill="white">
                            <use xlink:href="#path-5"></use>
                        </mask>
                        <g id="Clip-166"></g>
                        <polygon id="Fill-165" fill="#ED375D" fill-rule="evenodd" mask="url(#mask-6)" points="-1 29.64 20 29.64 20 3.64 -1 3.64"></polygon>
                        <mask id="mask-8" fill="white">
                            <use xlink:href="#path-7"></use>
                        </mask>
                        <g id="Clip-169"></g>
                        <polygon id="Fill-168" fill="#FFFFFF" fill-rule="evenodd" mask="url(#mask-8)" points="-4 34.64 22 34.64 22 15.64 -4 15.64"></polygon>
                    </g>
                    <polygon id="Fill-173" fill="#ED375D" fill-rule="evenodd" points="11 22.64 12 22.64 12 14.64 11 14.64"></polygon>
                </g>
            </g>
        </g>
    </g>
</svg>