<?xml version="1.0" encoding="UTF-8" standalone="no"?>
<svg width="35px" height="30px" viewBox="0 0 35 30" version="1.1" xmlns="http://www.w3.org/2000/svg" xmlns:xlink="http://www.w3.org/1999/xlink">
    <!-- Generator: Sketch 42 (36781) - http://www.bohemiancoding.com/sketch -->
    <title>icon-vivienda-y-vida</title>
    <desc>Created with Sketch.</desc>
    <defs>
        <polygon id="path-1" points="0 287 1031 287 1031 0 0 0"></polygon>
    </defs>
    <g id="Menu-topics" stroke="none" stroke-width="1" fill="none" fill-rule="evenodd">
        <g id="menu-topics" transform="translate(-360.000000, -105.000000)">
            <g id="Set-iconos">
                <g id="icon-vivienda-y-vida">
                    <path d="M386.3799,133.1299 L386.3799,133.2099 L388.6199,133.2099 L388.6199,114.3299 L377.4199,107.4499 L370.2199,111.8499 L368.3799,112.9699 L366.2999,114.2499 L366.2999,133.1299 L379.0199,133.1299 L379.0199,122.8899 L386.3799,122.8899 L386.3799,133.1299 Z M380.6199,133.1299 L384.7799,133.1299 L384.7799,124.4899 L380.6199,124.4899 L380.6199,133.1299 Z M367.7399,108.7309 L367.7399,111.4499 L368.6999,110.8899 L368.6999,108.7309 L367.7399,108.7309 Z M390.2999,115.2099 L390.2999,133.0499 L394.4599,133.0499 L394.4599,134.6509 L390.2999,134.6509 L386.2999,134.6509 L378.9399,134.6509 L364.6999,134.6509 L360.5399,134.6509 L360.5399,133.0499 L364.6999,133.0499 L364.6999,115.1299 L360.9399,117.4499 L360.1399,116.0899 L366.1399,112.4099 L366.1399,107.0499 L370.2999,107.0499 L370.2999,109.8499 L377.4999,105.4499 L394.8599,116.1699 L394.0599,117.5299 L390.2999,115.2099 Z" id="Fill-40" fill="#FFFFFF" fill-rule="evenodd"></path>
                    <mask id="mask-2" fill="white">
                        <use xlink:href="#path-1"></use>
                    </mask>
                    <g id="Clip-43"></g>
                    <path d="M370.3,117.691 L374.46,117.691 L374.46,115.93 L370.3,115.93 L370.3,117.691 Z M368.7,119.29 L376.06,119.29 L376.06,114.33 L368.7,114.33 L368.7,119.29 Z" id="Fill-42" fill="#FFFFFF" fill-rule="evenodd" mask="url(#mask-2)"></path>
                    <path d="M370.3,128.33 L371.58,128.33 L371.58,124.17 L370.3,124.17 L370.3,128.33 Z M373.18,128.33 L374.46,128.33 L374.46,124.17 L373.18,124.17 L373.18,128.33 Z M368.7,129.93 L376.06,129.93 L376.06,122.571 L368.7,122.571 L368.7,129.93 Z" id="Fill-44" fill="#FFFFFF" fill-rule="evenodd" mask="url(#mask-2)"></path>
                    <path d="M380.62,117.691 L384.78,117.691 L384.78,115.93 L380.62,115.93 L380.62,117.691 Z M379.02,119.29 L386.38,119.29 L386.38,114.33 L379.02,114.33 L379.02,119.29 Z" id="Fill-45" fill="#FFFFFF" fill-rule="evenodd" mask="url(#mask-2)"></path>
                </g>
            </g>
        </g>
    </g>
</svg>