<?xml version="1.0" encoding="UTF-8" standalone="no"?>
<svg width="38px" height="31px" viewBox="0 0 38 31" version="1.1" xmlns="http://www.w3.org/2000/svg" xmlns:xlink="http://www.w3.org/1999/xlink">
    <!-- Generator: Sketch 42 (36781) - http://www.bohemiancoding.com/sketch -->
    <title>icon-salud</title>
    <desc>Created with Sketch.</desc>
    <defs></defs>
    <g id="Menu-topics" stroke="none" stroke-width="1" fill="none" fill-rule="evenodd">
        <g id="menu-topics" transform="translate(-562.000000, -104.000000)" fill="#FFFFFF" stroke="#979797">
            <g id="Set-iconos">
                <g id="icon-salud" transform="translate(562.000000, 104.000000)">
                    <g id="Fill-14">
                        <path d="M17,9 L21,9 L21,12.864 C21,13.105 21.089,14 21.326,14 L25,14 L25,17 L21.326,17 C21.089,17 21,17.15 21,17.392 L21,22 L17,22 L17,17.392 C17,17.15 17.12,17 16.883,17 L13,17 L13,14 L16.883,14 C17.12,14 17,13.105 17,12.864 L17,9 Z M16.883,8 C16.646,8 16,8.096 16,8.337 L16,13 L12.439,13 C12.203,13 12,12.623 12,12.864 L12,17.392 C12,17.634 12.203,18 12.439,18 L16,18 L16,21.92 C16,22.161 16.646,23 16.883,23 L21.326,23 C21.563,23 22,22.161 22,21.92 L22,18 L25.77,18 C26.007,18 26,17.634 26,17.392 L26,12.864 C26,12.623 26.007,13 25.77,13 L22,13 L22,8.337 C22,8.096 21.563,8 21.326,8 L16.883,8 Z M11.492,1.123 C14.276,1.123 16.913,2.36 18.779,4.503 C18.868,4.594 18.986,4.654 19.104,4.654 C19.223,4.654 19.341,4.594 19.43,4.503 C21.267,2.36 23.933,1.123 26.717,1.123 C32.079,1.123 36.434,5.56 36.434,11.022 C36.434,14.132 35.042,17 32.612,18.901 L32.553,18.961 L19.104,29.736 L5.389,18.72 L5.36,18.689 C3.079,16.788 1.775,13.98 1.775,10.992 C1.775,5.56 6.13,1.123 11.492,1.123 L11.492,1.123 Z M11.492,0.217 C5.656,0.217 0.887,5.076 0.887,11.022 C0.887,14.252 2.309,17.271 4.767,19.354 L4.797,19.384 L18.838,30.673 C18.927,30.733 19.016,30.763 19.104,30.763 C19.193,30.763 19.312,30.733 19.372,30.673 L33.146,19.595 C33.175,19.564 33.205,19.565 33.205,19.535 C35.812,17.482 37.322,14.373 37.322,11.022 C37.322,5.076 32.553,0.217 26.717,0.217 C23.844,0.217 21.089,1.425 19.104,3.508 C17.12,1.395 14.365,0.217 11.492,0.217 L11.492,0.217 Z" stroke-width="0.3"></path>
                    </g>
                </g>
            </g>
        </g>
    </g>
</svg>