<?xml version="1.0" encoding="UTF-8" standalone="no"?>
<svg width="39px" height="38px" viewBox="0 0 39 38" version="1.1" xmlns="http://www.w3.org/2000/svg" xmlns:xlink="http://www.w3.org/1999/xlink">
    <!-- Generator: Sketch 46.2 (44496) - http://www.bohemiancoding.com/sketch -->
    <title>ico-topico-comercio</title>
    <desc>Created with Sketch.</desc>
    <defs></defs>
    <g id="splash-producto" stroke="none" stroke-width="1" fill="none" fill-rule="evenodd">
        <g id="splash-header-perfil-producto" transform="translate(-746.000000, -687.000000)" fill="#FFFFFF">
            <g id="topicos-perfil" transform="translate(650.000000, 687.000000)">
                <g id="ico-topico-comercio" transform="translate(96.000000, 0.000000)">
                    <path d="M10.0371,24.3262 L14.4431,24.2972 C15.7061,26.9832 17.5831,28.8002 18.5331,29.6032 C15.9771,29.4162 13.5841,28.3192 11.7341,26.4892 C11.0711,25.8332 10.5041,25.1052 10.0371,24.3262 L10.0371,24.3262 Z M17.6551,7.9442 C16.8981,8.6872 15.3781,10.3902 14.3171,12.9332 L10.1411,12.9612 C11.7741,10.3372 14.4861,8.4512 17.6551,7.9442 L17.6551,7.9442 Z M28.5471,12.8392 L24.3661,12.8662 C23.2691,10.3392 21.7251,8.6542 20.9521,7.9152 C23.2311,8.2412 25.3501,9.2992 27.0221,10.9532 C27.6061,11.5302 28.1141,12.1632 28.5471,12.8392 L28.5471,12.8392 Z M20.3921,29.5842 C21.3441,28.7532 23.1781,26.9152 24.3931,24.2302 L28.7851,24.2012 C27.0591,27.1692 23.9781,29.2512 20.3921,29.5842 L20.3921,29.5842 Z M18.9111,24.2662 L18.9411,28.8372 C18.0701,28.0662 16.5291,26.5022 15.4001,24.2902 L18.9111,24.2662 Z M14.0281,19.1772 L18.8771,19.1442 L18.9051,23.4272 L15.0091,23.4532 C14.4731,22.1992 14.0961,20.7662 14.0281,19.1772 L14.0281,19.1772 Z M18.8421,13.7432 L18.8721,18.3052 L14.0151,18.3372 C14.0561,16.6182 14.4081,15.0882 14.9051,13.7682 L18.8421,13.7432 Z M24.7411,18.2652 L19.7121,18.2992 L19.6811,13.7372 L23.7921,13.7102 C24.3071,15.0212 24.6791,16.5472 24.7411,18.2652 L24.7411,18.2652 Z M19.7451,23.4222 L19.7171,19.1392 L24.7451,19.1052 C24.6991,20.6952 24.3391,22.1332 23.8211,23.3942 L19.7451,23.4222 Z M19.7821,28.9952 L19.7511,24.2612 L23.4421,24.2362 C22.2651,26.6262 20.6021,28.2732 19.7821,28.9952 L19.7821,28.9952 Z M29.2291,23.3582 L24.7451,23.3892 C25.2241,22.1192 25.5451,20.6832 25.5861,19.0992 L30.2541,19.0692 C30.2061,20.5972 29.8451,22.0492 29.2291,23.3582 L29.2291,23.3582 Z M30.2491,18.2282 L25.5821,18.2602 C25.5221,16.5502 25.1821,15.0272 24.6991,13.7042 L29.0321,13.6752 C29.7601,15.0722 30.1781,16.6182 30.2491,18.2282 L30.2491,18.2282 Z M19.9521,8.1452 C19.9831,8.1702 22.0231,9.8472 23.4341,12.8732 L19.6761,12.8972 L19.6411,7.8112 C19.6951,7.8122 19.7491,7.8112 19.8031,7.8132 C19.8011,7.9372 19.8491,8.0612 19.9521,8.1452 L19.9521,8.1452 Z M18.6501,8.1672 C18.7561,8.0802 18.8001,7.9512 18.7931,7.8242 C18.7961,7.8242 18.8001,7.8242 18.8021,7.8232 L18.8361,12.9032 L15.2521,12.9272 C16.6171,9.8972 18.6201,8.1932 18.6501,8.1672 L18.6501,8.1672 Z M9.6681,13.8042 L13.9951,13.7752 C13.5311,15.1042 13.2111,16.6322 13.1751,18.3422 L8.5041,18.3732 C8.5551,16.7342 8.9691,15.1852 9.6681,13.8042 L9.6681,13.8042 Z M8.5091,19.2132 L13.1821,19.1812 C13.2431,20.7642 13.5851,22.1962 14.0801,23.4582 L9.5841,23.4882 C8.9421,22.1662 8.5751,20.7182 8.5091,19.2132 L8.5091,19.2132 Z M19.4561,30.4742 C25.9211,30.4312 31.1441,25.1242 31.1011,18.6432 C31.0811,15.5042 29.8421,12.5602 27.6131,10.3552 C25.3851,8.1502 22.4231,6.9392 19.3021,6.9682 C12.8381,7.0112 7.6131,12.3182 7.6561,18.7992 C7.6771,21.9382 8.9161,24.8822 11.1431,27.0872 C13.3541,29.2732 16.2741,30.4742 19.3771,30.4742 L19.4561,30.4742 Z" id="Fill-477"></path>
                    <path d="M1.0361,24.5078 L1.3521,23.9678 C3.5661,32.0388 10.8701,37.6358 19.2891,37.6358 C27.8731,37.6358 35.3011,31.8198 37.3521,23.4938 C37.4141,23.2438 37.2611,22.9908 37.0111,22.9298 C36.7611,22.8688 36.5081,23.0208 36.4461,23.2708 C34.4981,31.1798 27.4421,36.7028 19.2891,36.7028 C11.2721,36.7028 4.3201,31.3608 2.2371,23.6628 L2.8651,24.0308 C3.0881,24.1608 3.3731,24.0868 3.5041,23.8638 C3.6341,23.6418 3.5591,23.3568 3.3371,23.2258 L1.7811,22.3148 C1.5581,22.1838 1.2731,22.2578 1.1421,22.4808 L0.2311,24.0358 C0.1001,24.2588 0.1761,24.5438 0.3971,24.6748 C0.4721,24.7178 0.5531,24.7378 0.6341,24.7378 C0.7931,24.7378 0.9491,24.6558 1.0361,24.5078" id="Fill-479"></path>
                    <path d="M38.1475,13.2354 C37.9165,13.1244 37.6355,13.2214 37.5245,13.4534 L37.2225,14.0804 C35.0065,6.0134 27.7085,0.4224 19.2895,0.4224 C10.6965,0.4224 3.2665,6.2454 1.2215,14.5834 C1.1605,14.8334 1.3135,15.0864 1.5635,15.1464 C1.8115,15.2064 2.0665,15.0544 2.1265,14.8044 C4.0705,6.8864 11.1275,1.3554 19.2895,1.3554 C27.2975,1.3554 34.2395,6.6814 36.3325,14.3634 L35.7405,14.0784 C35.5085,13.9664 35.2295,14.0634 35.1185,14.2964 C35.0055,14.5284 35.1035,14.8064 35.3355,14.9194 L36.9605,15.7004 C37.0245,15.7314 37.0925,15.7474 37.1635,15.7474 C37.2145,15.7474 37.2665,15.7384 37.3175,15.7204 C37.4335,15.6794 37.5305,15.5934 37.5835,15.4824 L38.3655,13.8584 C38.4765,13.6264 38.3795,13.3464 38.1475,13.2354" id="Fill-481"></path>
                </g>
            </g>
        </g>
    </g>
</svg>