<?xml version="1.0" encoding="UTF-8" standalone="no"?>
<svg width="50px" height="43px" viewBox="0 0 50 43" version="1.1" xmlns="http://www.w3.org/2000/svg" xmlns:xlink="http://www.w3.org/1999/xlink">
    <!-- Generator: Sketch 46.2 (44496) - http://www.bohemiancoding.com/sketch -->
    <title>ico-economia-topic</title>
    <desc>Created with Sketch.</desc>
    <defs></defs>
    <g id="menu-nav-topicos" stroke="none" stroke-width="1" fill="none" fill-rule="evenodd">
        <g transform="translate(-59.000000, -83.000000)" id="topicos">
            <g transform="translate(53.000000, 80.000000)">
                <g id="ico-economia-topic" transform="translate(7.000000, 3.000000)">
                    <path d="M47.0088,13.4263 L47.0088,19.0713 L47.0088,29.8593 L47.0088,36.5653 C47.0088,38.4343 45.8448,40.1003 44.0418,40.6533 C43.4038,40.8493 42.7678,40.8303 42.1068,40.8303 L35.5548,40.8303 L25.1168,40.8303 L14.3838,40.8303 L6.9438,40.8303 L5.5808,40.8303 C3.5278,40.8303 1.8108,39.3583 1.4338,37.3483 C1.3158,36.7203 1.3798,35.9913 1.3798,35.3433 L1.3798,31.4933 L1.3798,20.7443 L1.3798,13.6153 C1.3798,13.1343 1.4218,12.6853 1.5558,12.2203 C1.8798,11.1013 2.6938,10.1963 3.7268,9.6713 C4.4838,9.2863 5.2878,9.2533 6.1198,9.2533 L12.3838,9.2533 L22.7118,9.2533 L33.5158,9.2533 L41.2068,9.2533 L42.7618,9.2533 C44.5328,9.2533 46.1588,10.3263 46.7628,12.0073 C46.9308,12.4733 47.0048,12.9373 47.0088,13.4263 C47.0148,14.1843 48.1908,14.1843 48.1848,13.4263 C48.1738,12.0763 47.6708,10.8053 46.7698,9.8033 C45.8768,8.8093 44.6178,8.2393 43.3038,8.1003 C42.8448,8.0523 42.3688,8.0773 41.9078,8.0773 L35.0498,8.0773 L24.5018,8.0773 L13.8558,8.0773 L6.7008,8.0773 L5.5548,8.0773 C2.9988,8.0773 0.7198,9.9723 0.2868,12.4983 C0.1628,13.2233 0.2038,13.9793 0.2038,14.7133 L0.2038,18.5433 L0.2038,29.2873 L0.2038,36.4573 C0.2038,36.9633 0.2458,37.4643 0.3628,37.9583 C0.6688,39.2413 1.4918,40.3443 2.5638,41.0923 C3.5668,41.7923 4.7438,42.0063 5.9398,42.0063 L11.8138,42.0063 L21.9878,42.0063 L32.8698,42.0063 L40.8718,42.0063 L42.6698,42.0063 C44.3478,42.0063 45.9488,41.3333 47.0058,40.0013 C47.7608,39.0493 48.1848,37.8723 48.1848,36.6533 L48.1848,36.1463 L48.1848,33.0593 L48.1848,22.6243 L48.1848,14.1963 L48.1848,13.4263 C48.1848,12.6683 47.0088,12.6683 47.0088,13.4263" id="Fill-195" fill="#FFFFFF" fill-rule="evenodd"></path>
                    <path d="M47.0088,13.4263 L47.0088,19.0713 L47.0088,29.8593 L47.0088,36.5653 C47.0088,38.4343 45.8448,40.1003 44.0418,40.6533 C43.4038,40.8493 42.7678,40.8303 42.1068,40.8303 L35.5548,40.8303 L25.1168,40.8303 L14.3838,40.8303 L6.9438,40.8303 L5.5808,40.8303 C3.5278,40.8303 1.8108,39.3583 1.4338,37.3483 C1.3158,36.7203 1.3798,35.9913 1.3798,35.3433 L1.3798,31.4933 L1.3798,20.7443 L1.3798,13.6153 C1.3798,13.1343 1.4218,12.6853 1.5558,12.2203 C1.8798,11.1013 2.6938,10.1963 3.7268,9.6713 C4.4838,9.2863 5.2878,9.2533 6.1198,9.2533 L12.3838,9.2533 L22.7118,9.2533 L33.5158,9.2533 L41.2068,9.2533 L42.7618,9.2533 C44.5328,9.2533 46.1588,10.3263 46.7628,12.0073 C46.9308,12.4733 47.0048,12.9373 47.0088,13.4263 C47.0148,14.1843 48.1908,14.1843 48.1848,13.4263 C48.1738,12.0763 47.6708,10.8053 46.7698,9.8033 C45.8768,8.8093 44.6178,8.2393 43.3038,8.1003 C42.8448,8.0523 42.3688,8.0773 41.9078,8.0773 L35.0498,8.0773 L24.5018,8.0773 L13.8558,8.0773 L6.7008,8.0773 L5.5548,8.0773 C2.9988,8.0773 0.7198,9.9723 0.2868,12.4983 C0.1628,13.2233 0.2038,13.9793 0.2038,14.7133 L0.2038,18.5433 L0.2038,29.2873 L0.2038,36.4573 C0.2038,36.9633 0.2458,37.4643 0.3628,37.9583 C0.6688,39.2413 1.4918,40.3443 2.5638,41.0923 C3.5668,41.7923 4.7438,42.0063 5.9398,42.0063 L11.8138,42.0063 L21.9878,42.0063 L32.8698,42.0063 L40.8718,42.0063 L42.6698,42.0063 C44.3478,42.0063 45.9488,41.3333 47.0058,40.0013 C47.7608,39.0493 48.1848,37.8723 48.1848,36.6533 L48.1848,36.1463 L48.1848,33.0593 L48.1848,22.6243 L48.1848,14.1963 L48.1848,13.4263 C48.1848,12.6683 47.0088,12.6683 47.0088,13.4263 Z" id="Stroke-197" stroke="#FFFFFF" stroke-width="0.5"></path>
                    <path d="M16.4961,5.2784 L16.4961,3.2304 C16.4961,2.8294 16.5601,2.5144 16.7901,2.1754 C17.0431,1.7994 17.5311,1.5834 17.9811,1.5834 L20.7471,1.5834 L30.1251,1.5834 L30.4641,1.5834 C31.1461,1.5834 31.7191,2.0464 31.9021,2.6964 C32.0371,3.1764 31.9081,3.8494 31.9631,4.2904 C31.9611,4.5824 31.9591,4.8704 31.9571,5.1624 C31.8311,6.0344 33.1241,6.0734 33.1241,5.2784 L33.1241,3.2304 C33.1241,1.9984 32.4661,0.9634 31.2891,0.5384 C30.8681,0.3864 30.4141,0.4074 29.9731,0.4074 L28.2441,0.4074 L18.5951,0.4074 L17.9961,0.4074 C17.0681,0.4074 16.2471,0.8824 15.7341,1.6424 C15.3151,2.2624 15.3201,2.9774 15.3201,3.6904 L15.3201,5.2784 C15.3201,6.0364 16.4961,6.0364 16.4961,5.2784" id="Fill-199" fill="#FFFFFF" fill-rule="evenodd"></path>
                    <path d="M16.4961,5.2784 L16.4961,3.2304 C16.4961,2.8294 16.5601,2.5144 16.7901,2.1754 C17.0431,1.7994 17.5311,1.5834 17.9811,1.5834 L20.7471,1.5834 L30.1251,1.5834 L30.4641,1.5834 C31.1461,1.5834 31.7191,2.0464 31.9021,2.6964 C32.0371,3.1764 31.9081,3.8494 31.9631,4.2904 C31.9611,4.5824 31.9591,4.8704 31.9571,5.1624 C31.8311,6.0344 33.1241,6.0734 33.1241,5.2784 L33.1241,3.2304 C33.1241,1.9984 32.4661,0.9634 31.2891,0.5384 C30.8681,0.3864 30.4141,0.4074 29.9731,0.4074 L28.2441,0.4074 L18.5951,0.4074 L17.9961,0.4074 C17.0681,0.4074 16.2471,0.8824 15.7341,1.6424 C15.3151,2.2624 15.3201,2.9774 15.3201,3.6904 L15.3201,5.2784 C15.3201,6.0364 16.4961,6.0364 16.4961,5.2784 Z" id="Stroke-201" stroke="#FFFFFF" stroke-width="0.5"></path>
                    <path d="M47.0088,13.3982 L47.0088,19.4152 L47.5968,18.8272 L44.4048,18.8272 L36.3478,18.8272 L25.7048,18.8272 L14.7538,18.8272 L5.7748,18.8272 L1.0448,18.8272 L0.7918,18.8272 C0.9878,19.0232 1.1838,19.2192 1.3798,19.4152 L1.3798,15.3672 L1.3798,13.4922 C1.3798,12.5362 1.6578,11.6702 2.2278,10.8932 C3.0568,9.7622 4.4218,9.2532 5.7908,9.2532 L7.6808,9.2532 L15.7978,9.2532 L26.7068,9.2532 L36.8168,9.2532 L42.5378,9.2532 C43.1138,9.2532 43.6528,9.2932 44.2098,9.4722 C45.8888,10.0122 46.9948,11.6542 47.0088,13.3982 C47.0148,14.1562 48.1908,14.1562 48.1848,13.3982 C48.1738,12.0542 47.6788,10.7872 46.7818,9.7872 C45.8938,8.7982 44.6388,8.2372 43.3318,8.1002 C42.8718,8.0522 42.3968,8.0782 41.9358,8.0782 L35.0768,8.0782 L24.5298,8.0782 L13.8838,8.0782 L6.7288,8.0782 L5.5828,8.0782 C3.0328,8.0782 0.7278,9.9412 0.2878,12.4702 C0.1988,12.9832 0.2038,13.4922 0.2038,14.0102 L0.2038,16.0732 L0.2038,19.4152 C0.2038,19.7382 0.4678,20.0032 0.7918,20.0032 L3.9818,20.0032 L12.0388,20.0032 L22.6818,20.0032 L33.6338,20.0032 L42.6138,20.0032 L47.3438,20.0032 L47.5968,20.0032 C47.9198,20.0032 48.1848,19.7382 48.1848,19.4152 L48.1848,13.3982 C48.1848,12.6402 47.0088,12.6402 47.0088,13.3982" id="Fill-203" fill="#FFFFFF" fill-rule="evenodd"></path>
                    <path d="M47.0088,13.3982 L47.0088,19.4152 L47.5968,18.8272 L44.4048,18.8272 L36.3478,18.8272 L25.7048,18.8272 L14.7538,18.8272 L5.7748,18.8272 L1.0448,18.8272 L0.7918,18.8272 C0.9878,19.0232 1.1838,19.2192 1.3798,19.4152 L1.3798,15.3672 L1.3798,13.4922 C1.3798,12.5362 1.6578,11.6702 2.2278,10.8932 C3.0568,9.7622 4.4218,9.2532 5.7908,9.2532 L7.6808,9.2532 L15.7978,9.2532 L26.7068,9.2532 L36.8168,9.2532 L42.5378,9.2532 C43.1138,9.2532 43.6528,9.2932 44.2098,9.4722 C45.8888,10.0122 46.9948,11.6542 47.0088,13.3982 C47.0148,14.1562 48.1908,14.1562 48.1848,13.3982 C48.1738,12.0542 47.6788,10.7872 46.7818,9.7872 C45.8938,8.7982 44.6388,8.2372 43.3318,8.1002 C42.8718,8.0522 42.3968,8.0782 41.9358,8.0782 L35.0768,8.0782 L24.5298,8.0782 L13.8838,8.0782 L6.7288,8.0782 L5.5828,8.0782 C3.0328,8.0782 0.7278,9.9412 0.2878,12.4702 C0.1988,12.9832 0.2038,13.4922 0.2038,14.0102 L0.2038,16.0732 L0.2038,19.4152 C0.2038,19.7382 0.4678,20.0032 0.7918,20.0032 L3.9818,20.0032 L12.0388,20.0032 L22.6818,20.0032 L33.6338,20.0032 L42.6138,20.0032 L47.3438,20.0032 L47.5968,20.0032 C47.9198,20.0032 48.1848,19.7382 48.1848,19.4152 L48.1848,13.3982 C48.1848,12.6402 47.0088,12.6402 47.0088,13.3982 Z" id="Stroke-205" stroke="#FFFFFF" stroke-width="0.5"></path>
                    <path d="M27.8613,19.4153 L27.8613,21.3183 L27.8613,22.5393 C27.8613,22.7723 27.8753,23.0293 27.8323,23.2403 C27.7293,23.7423 27.3623,24.1663 26.8903,24.3363 C26.6353,24.4283 26.3983,24.4263 26.1283,24.4263 L23.7213,24.4263 L22.0333,24.4263 C21.2053,24.4263 20.5273,23.7643 20.5273,22.9323 L20.5273,19.4153 L19.9393,20.0033 L28.0953,20.0033 L28.4493,20.0033 C29.2073,20.0033 29.2073,18.8273 28.4493,18.8273 L20.2923,18.8273 L19.9393,18.8273 C19.6153,18.8273 19.3513,19.0923 19.3513,19.4153 L19.3513,21.3183 C19.3513,22.0003 19.2813,22.7283 19.3943,23.4043 C19.6073,24.6753 20.7583,25.6023 22.0333,25.6023 L23.9983,25.6023 L26.2493,25.6023 C27.3993,25.6023 28.4173,24.9893 28.8533,23.9053 C29.1253,23.2273 29.0373,22.4173 29.0373,21.7013 L29.0373,19.4693 L29.0373,19.4153 C29.0373,18.6573 27.8613,18.6573 27.8613,19.4153" id="Fill-207" fill="#FFFFFF" fill-rule="evenodd"></path>
                    <path d="M27.8613,19.4153 L27.8613,21.3183 L27.8613,22.5393 C27.8613,22.7723 27.8753,23.0293 27.8323,23.2403 C27.7293,23.7423 27.3623,24.1663 26.8903,24.3363 C26.6353,24.4283 26.3983,24.4263 26.1283,24.4263 L23.7213,24.4263 L22.0333,24.4263 C21.2053,24.4263 20.5273,23.7643 20.5273,22.9323 L20.5273,19.4153 L19.9393,20.0033 L28.0953,20.0033 L28.4493,20.0033 C29.2073,20.0033 29.2073,18.8273 28.4493,18.8273 L20.2923,18.8273 L19.9393,18.8273 C19.6153,18.8273 19.3513,19.0923 19.3513,19.4153 L19.3513,21.3183 C19.3513,22.0003 19.2813,22.7283 19.3943,23.4043 C19.6073,24.6753 20.7583,25.6023 22.0333,25.6023 L23.9983,25.6023 L26.2493,25.6023 C27.3993,25.6023 28.4173,24.9893 28.8533,23.9053 C29.1253,23.2273 29.0373,22.4173 29.0373,21.7013 L29.0373,19.4693 L29.0373,19.4153 C29.0373,18.6573 27.8613,18.6573 27.8613,19.4153 Z" id="Stroke-209" stroke="#FFFFFF" stroke-width="0.5"></path>
                </g>
            </g>
        </g>
    </g>
</svg>