<?xml version="1.0" encoding="UTF-8" standalone="no"?>
<svg width="47px" height="40px" viewBox="0 0 47 40" version="1.1" xmlns="http://www.w3.org/2000/svg" xmlns:xlink="http://www.w3.org/1999/xlink">
    <!-- Generator: Sketch 46.2 (44496) - http://www.bohemiancoding.com/sketch -->
    <title>ico-salud-topic</title>
    <desc>Created with Sketch.</desc>
    <defs></defs>
    <g id="menu-nav-topicos" stroke="none" stroke-width="1" fill="none" fill-rule="evenodd">
        <g transform="translate(-623.000000, -89.000000)" id="topicos" fill="#FFFFFF">
            <g transform="translate(53.000000, 80.000000)">
                <g id="ico-salud-topic" transform="translate(570.000000, 9.000000)">
                    <path d="M20.8218,11.9332 L25.8608,11.9332 L25.8608,16.8012 C25.8608,17.1052 25.9728,18.2322 26.2718,18.2322 L30.8998,18.2322 L30.8998,22.0112 L26.2718,22.0112 C25.9728,22.0112 25.8608,22.2002 25.8608,22.5052 L25.8608,28.3092 L20.8218,28.3092 L20.8218,22.5052 C20.8218,22.2002 20.9728,22.0112 20.6748,22.0112 L15.7828,22.0112 L15.7828,18.2322 L20.6748,18.2322 C20.9728,18.2322 20.8218,17.1052 20.8218,16.8012 L20.8218,11.9332 Z M20.6748,10.6732 C20.3758,10.6732 19.5618,10.7932 19.5618,11.0982 L19.5618,16.9722 L15.0768,16.9722 C14.7788,16.9722 14.5238,16.4972 14.5238,16.8012 L14.5238,22.5052 C14.5238,22.8092 14.7788,23.2702 15.0768,23.2702 L19.5618,23.2702 L19.5618,28.2082 C19.5618,28.5122 20.3758,29.5692 20.6748,29.5692 L26.2718,29.5692 C26.5708,29.5692 27.1208,28.5122 27.1208,28.2082 L27.1208,23.2702 L31.8688,23.2702 C32.1678,23.2702 32.1588,22.8092 32.1588,22.5052 L32.1588,16.8012 C32.1588,16.4972 32.1678,16.9722 31.8688,16.9722 L27.1208,16.9722 L27.1208,11.0982 C27.1208,10.7932 26.5708,10.6732 26.2718,10.6732 L20.6748,10.6732 Z M13.8838,2.0102 C17.3908,2.0102 20.7118,3.5682 23.0628,6.2682 C23.1748,6.3822 23.3238,6.4582 23.4728,6.4582 C23.6228,6.4582 23.7718,6.3822 23.8838,6.2682 C26.1968,3.5682 29.5548,2.0102 33.0628,2.0102 C39.8178,2.0102 45.3028,7.5992 45.3028,14.4812 C45.3028,18.3972 43.5488,22.0102 40.4888,24.4062 L40.4148,24.4812 L23.4728,38.0552 L6.1958,24.1772 L6.1588,24.1392 C3.2848,21.7442 1.6438,18.2072 1.6438,14.4432 C1.6438,7.5992 7.1288,2.0102 13.8838,2.0102 L13.8838,2.0102 Z M13.8838,0.8692 C6.5318,0.8692 0.5238,6.9902 0.5238,14.4812 C0.5238,18.5492 2.3148,22.3522 5.4118,24.9762 L5.4488,25.0142 L23.1368,39.2352 C23.2488,39.3112 23.3618,39.3482 23.4728,39.3482 C23.5848,39.3482 23.7348,39.3112 23.8088,39.2352 L41.1608,25.2802 C41.1978,25.2422 41.2358,25.2422 41.2358,25.2042 C44.5188,22.6182 46.4228,18.7022 46.4228,14.4812 C46.4228,6.9902 40.4148,0.8692 33.0628,0.8692 C29.4438,0.8692 25.9728,2.3902 23.4728,5.0142 C20.9728,2.3522 17.5028,0.8692 13.8838,0.8692 L13.8838,0.8692 Z" id="Fill-230"></path>
                </g>
            </g>
        </g>
    </g>
</svg>