<?xml version="1.0" encoding="UTF-8" standalone="no"?>
<svg width="36px" height="43px" viewBox="0 0 36 43" version="1.1" xmlns="http://www.w3.org/2000/svg" xmlns:xlink="http://www.w3.org/1999/xlink">
    <!-- Generator: Sketch 46.2 (44496) - http://www.bohemiancoding.com/sketch -->
    <title>ico-demografia-topic</title>
    <desc>Created with Sketch.</desc>
    <defs></defs>
    <g id="menu-nav-topicos" stroke="none" stroke-width="1" fill="none" fill-rule="evenodd">
        <g transform="translate(-503.000000, -87.000000)" id="topicos" fill="#FFFFFF">
            <g transform="translate(53.000000, 80.000000)">
                <g id="ico-demografia-topic" transform="translate(450.000000, 7.000000)">
                    <path d="M34.1167,20.2012 C33.4727,19.6192 32.7927,19.4282 31.9477,19.4282 L27.4627,19.4282 C25.9157,19.4282 25.3567,20.1392 24.1247,21.0432 L24.1247,13.8442 C24.1247,12.9522 24.0287,12.3522 23.4097,11.7052 C22.8947,11.1662 22.2007,10.8062 20.5917,10.8062 L18.1437,10.8062 C16.6107,10.8062 15.5407,11.3132 14.9667,12.2862 C14.1547,11.2802 12.7607,10.8062 11.4307,10.8062 L4.1457,10.8062 C3.0127,10.8062 2.1277,10.9752 1.4807,11.8302 C0.9637,12.5162 0.7217,13.1692 0.7217,14.1172 L0.7217,25.0672 C0.7217,25.5142 0.7137,26.0802 1.0837,26.4492 C1.4497,26.8142 1.8777,26.8182 2.3027,26.8182 L3.1857,26.8182 L3.1857,42.8312 L4.4167,42.8312 L4.4167,25.5862 L2.3017,25.5862 C2.1507,25.5862 2.0237,25.5992 1.9457,25.5772 C1.9267,25.5362 1.9537,25.4142 1.9537,25.0672 L1.9537,14.1172 C1.9537,13.1222 2.3017,12.0382 4.1447,12.0382 L11.4307,12.0382 C11.7417,12.0382 14.2707,11.5042 14.2707,13.8132 L14.2707,21.6732 L11.2137,31.7452 L15.5027,31.7452 L15.5027,42.8312 L16.7347,42.8312 L16.7347,30.5132 L12.8627,30.5132 L15.5027,21.8622 L15.5027,13.8122 C15.5027,12.1252 16.3877,12.0382 18.1437,12.0382 L20.5917,12.0382 C21.9647,12.0382 22.8927,12.1912 22.8927,13.8442 L22.8927,21.9732 L26.3167,30.5132 L21.6607,30.5132 L21.6607,42.8312 L22.8927,42.8312 L22.8927,31.7452 L27.9797,31.7452 L25.3567,24.7722 L25.3567,21.9392 C25.3567,21.5862 26.0757,20.6602 27.4627,20.6602 L31.9477,20.6602 C32.8447,20.6602 33.9787,20.9622 33.9787,23.2872 L33.9787,30.5132 L31.5147,30.5132 L31.5147,42.8312 L32.7467,42.8312 L32.7467,31.7452 L35.2097,31.7452 L35.2097,23.2872 C35.2097,21.5662 34.6947,20.7232 34.1167,20.2012" id="Fill-221"></path>
                    <path d="M7.5718,2.0829 C8.9718,2.0829 10.1108,3.2219 10.1108,4.6209 C10.1108,6.0209 8.9718,7.1589 7.5718,7.1589 C6.1728,7.1589 5.0338,6.0209 5.0338,4.6209 C5.0338,3.2219 6.1728,2.0829 7.5718,2.0829 M7.5718,8.3569 C9.6328,8.3569 11.3088,6.6809 11.3088,4.6209 C11.3088,2.5609 9.6328,0.8849 7.5718,0.8849 C5.5118,0.8849 3.8358,2.5609 3.8358,4.6209 C3.8358,6.6809 5.5118,8.3569 7.5718,8.3569" id="Fill-223"></path>
                    <path d="M19.4307,2.0829 C20.8307,2.0829 21.9697,3.2219 21.9697,4.6209 C21.9697,6.0209 20.8307,7.1589 19.4307,7.1589 C18.0317,7.1589 16.8927,6.0209 16.8927,4.6209 C16.8927,3.2219 18.0317,2.0829 19.4307,2.0829 M19.4307,8.3569 C21.4917,8.3569 23.1677,6.6809 23.1677,4.6209 C23.1677,2.5609 21.4907,0.8849 19.4307,0.8849 C17.3707,0.8849 15.6947,2.5609 15.6947,4.6209 C15.6947,6.6809 17.3707,8.3569 19.4307,8.3569" id="Fill-225"></path>
                    <path d="M30.2231,10.6793 C31.6231,10.6793 32.7621,11.8173 32.7621,13.2163 C32.7621,14.6163 31.6231,15.7553 30.2231,15.7553 C28.8231,15.7553 27.6841,14.6163 27.6841,13.2163 C27.6841,11.8173 28.8231,10.6793 30.2231,10.6793 M30.2231,16.9543 C32.2841,16.9543 33.9601,15.2773 33.9601,13.2163 C33.9601,11.1563 32.2841,9.4813 30.2231,9.4813 C28.1621,9.4813 26.4861,11.1563 26.4861,13.2163 C26.4861,15.2773 28.1621,16.9543 30.2231,16.9543" id="Fill-227"></path>
                </g>
            </g>
        </g>
    </g>
</svg>