<?xml version="1.0" encoding="UTF-8" standalone="no"?>
<svg xmlns="http://www.w3.org/2000/svg" viewBox="0 0 32 40">
  <path fill="none" stroke="#f0f0f0" stroke-linecap="round" stroke-width="2" d="M3 17v20h26V17"/>
  <path fill="none" stroke="#f0f0f0" stroke-linecap="round" stroke-width="2" d="M1 18L16 5l15 13"/>
  <path fill="none" stroke="#f0f0f0" stroke-width="2" d="M13 37V25h6v12m3.1-27V4H26v10"/>
  <path fill="none" stroke="#f0f0f0" stroke-linecap="round" stroke-width="2" d="M10 27v4H6v-4a2 2 0 0 1 4 0zm16 0v4h-4v-4a2 2 0 1 1 4 0z"/>
  <path fill="none" stroke="#f0f0f0" stroke-width="1.9" d="M20 17v3h-8v-3c0-2.2 1.8-3 4-3s4 .8 4 3z"/>
  <path fill="none" stroke="#f0f0f0" stroke-width="2" d="M16 14.2v5.6"/>
</svg>