<?xml version="1.0" encoding="UTF-8" standalone="no"?>
<svg width="36px" height="31px" viewBox="0 0 36 31" version="1.1" xmlns="http://www.w3.org/2000/svg" xmlns:xlink="http://www.w3.org/1999/xlink">
    <!-- Generator: Sketch 46.2 (44496) - http://www.bohemiancoding.com/sketch -->
    <title>ico-topico-empleo</title>
    <desc>Created with Sketch.</desc>
    <defs></defs>
    <g id="splash-industria" stroke="none" stroke-width="1" fill="none" fill-rule="evenodd">
        <g id="splash-header-perfil-industria" transform="translate(-702.000000, -730.000000)">
            <g id="topicos-profile" transform="translate(612.000000, 730.000000)">
                <g id="ico-topico-empleo" transform="translate(90.000000, 0.000000)">
                    <g id="Group-55">
                        <path d="M33.9453,10.0635 L33.9453,14.0795 L33.9453,21.7525 L33.9453,26.5235 C33.9453,27.8535 33.1173,29.0395 31.8343,29.4325 C31.3813,29.5715 30.9273,29.5585 30.4583,29.5585 L25.7973,29.5585 L18.3723,29.5585 L10.7353,29.5585 L5.4433,29.5585 L4.4733,29.5585 C3.0123,29.5585 1.7923,28.5105 1.5233,27.0815 C1.4393,26.6345 1.4843,26.1155 1.4843,25.6545 L1.4843,22.9165 L1.4843,15.2685 L1.4843,10.1975 C1.4843,9.8555 1.5143,9.5365 1.6103,9.2065 C1.8413,8.4095 2.4203,7.7655 3.1543,7.3915 C3.6933,7.1185 4.2653,7.0945 4.8573,7.0945 L9.3123,7.0945 L16.6603,7.0945 L24.3463,7.0945 L29.8173,7.0945 L30.9243,7.0945 C32.1833,7.0945 33.3403,7.8575 33.7703,9.0535 C33.8893,9.3855 33.9423,9.7155 33.9453,10.0635 C33.9493,10.6025 34.7863,10.6025 34.7813,10.0635 C34.7733,9.1025 34.4163,8.1995 33.7743,7.4855 C33.1393,6.7795 32.2443,6.3735 31.3093,6.2745 C30.9823,6.2405 30.6443,6.2585 30.3163,6.2585 L25.4373,6.2585 L17.9333,6.2585 L10.3603,6.2585 L5.2703,6.2585 L4.4553,6.2585 C2.6363,6.2585 1.0153,7.6055 0.7083,9.4025 C0.6193,9.9185 0.6483,10.4565 0.6483,10.9785 L0.6483,13.7035 L0.6483,21.3465 L0.6483,26.4475 C0.6483,26.8065 0.6773,27.1645 0.7613,27.5145 C0.9793,28.4275 1.5643,29.2115 2.3273,29.7445 C3.0413,30.2435 3.8783,30.3945 4.7283,30.3945 L8.9073,30.3945 L16.1443,30.3945 L23.8863,30.3945 L29.5793,30.3945 L30.8583,30.3945 C32.0513,30.3945 33.1913,29.9165 33.9423,28.9685 C34.4803,28.2915 34.7813,27.4545 34.7813,26.5865 L34.7813,26.2255 L34.7813,24.0295 L34.7813,16.6065 L34.7813,10.6105 L34.7813,10.0635 C34.7813,9.5235 33.9453,9.5235 33.9453,10.0635" id="Fill-39" fill="#FFFFFF"></path>
                        <path d="M33.9453,10.0635 L33.9453,14.0795 L33.9453,21.7525 L33.9453,26.5235 C33.9453,27.8535 33.1173,29.0395 31.8343,29.4325 C31.3813,29.5715 30.9273,29.5585 30.4583,29.5585 L25.7973,29.5585 L18.3723,29.5585 L10.7353,29.5585 L5.4433,29.5585 L4.4733,29.5585 C3.0123,29.5585 1.7923,28.5105 1.5233,27.0815 C1.4393,26.6345 1.4843,26.1155 1.4843,25.6545 L1.4843,22.9165 L1.4843,15.2685 L1.4843,10.1975 C1.4843,9.8555 1.5143,9.5365 1.6103,9.2065 C1.8413,8.4095 2.4203,7.7655 3.1543,7.3915 C3.6933,7.1185 4.2653,7.0945 4.8573,7.0945 L9.3123,7.0945 L16.6603,7.0945 L24.3463,7.0945 L29.8173,7.0945 L30.9243,7.0945 C32.1833,7.0945 33.3403,7.8575 33.7703,9.0535 C33.8893,9.3855 33.9423,9.7155 33.9453,10.0635 C33.9493,10.6025 34.7863,10.6025 34.7813,10.0635 C34.7733,9.1025 34.4163,8.1995 33.7743,7.4855 C33.1393,6.7795 32.2443,6.3735 31.3093,6.2745 C30.9823,6.2405 30.6443,6.2585 30.3163,6.2585 L25.4373,6.2585 L17.9333,6.2585 L10.3603,6.2585 L5.2703,6.2585 L4.4553,6.2585 C2.6363,6.2585 1.0153,7.6055 0.7083,9.4025 C0.6193,9.9185 0.6483,10.4565 0.6483,10.9785 L0.6483,13.7035 L0.6483,21.3465 L0.6483,26.4475 C0.6483,26.8065 0.6773,27.1645 0.7613,27.5145 C0.9793,28.4275 1.5643,29.2115 2.3273,29.7445 C3.0413,30.2435 3.8783,30.3945 4.7283,30.3945 L8.9073,30.3945 L16.1443,30.3945 L23.8863,30.3945 L29.5793,30.3945 L30.8583,30.3945 C32.0513,30.3945 33.1913,29.9165 33.9423,28.9685 C34.4803,28.2915 34.7813,27.4545 34.7813,26.5865 L34.7813,26.2255 L34.7813,24.0295 L34.7813,16.6065 L34.7813,10.6105 L34.7813,10.0635 C34.7813,9.5235 33.9453,9.5235 33.9453,10.0635 Z" id="Stroke-41" stroke="#FFFFFF" stroke-width="0.5"></path>
                        <path d="M12.2383,4.2666 L12.2383,2.8106 C12.2383,2.5246 12.2843,2.3006 12.4473,2.0596 C12.6283,1.7916 12.9743,1.6386 13.2953,1.6386 L15.2623,1.6386 L21.9343,1.6386 L22.1763,1.6386 C22.6603,1.6386 23.0673,1.9676 23.1983,2.4296 C23.2943,2.7716 23.2023,3.2496 23.2413,3.5646 C23.2403,3.7726 23.2383,3.9766 23.2373,4.1846 C23.1483,4.8046 24.0673,4.8316 24.0673,4.2666 L24.0673,2.8106 C24.0673,1.9336 23.5993,1.1976 22.7623,0.8956 C22.4633,0.7876 22.1393,0.8016 21.8263,0.8016 L20.5953,0.8016 L13.7313,0.8016 L13.3053,0.8016 C12.6453,0.8016 12.0613,1.1396 11.6963,1.6806 C11.3983,2.1206 11.4023,2.6306 11.4023,3.1366 L11.4023,4.2666 C11.4023,4.8066 12.2383,4.8066 12.2383,4.2666" id="Fill-43" fill="#FFFFFF"></path>
                        <path d="M12.2383,4.2666 L12.2383,2.8106 C12.2383,2.5246 12.2843,2.3006 12.4473,2.0596 C12.6283,1.7916 12.9743,1.6386 13.2953,1.6386 L15.2623,1.6386 L21.9343,1.6386 L22.1763,1.6386 C22.6603,1.6386 23.0673,1.9676 23.1983,2.4296 C23.2943,2.7716 23.2023,3.2496 23.2413,3.5646 C23.2403,3.7726 23.2383,3.9766 23.2373,4.1846 C23.1483,4.8046 24.0673,4.8316 24.0673,4.2666 L24.0673,2.8106 C24.0673,1.9336 23.5993,1.1976 22.7623,0.8956 C22.4633,0.7876 22.1393,0.8016 21.8263,0.8016 L20.5953,0.8016 L13.7313,0.8016 L13.3053,0.8016 C12.6453,0.8016 12.0613,1.1396 11.6963,1.6806 C11.3983,2.1206 11.4023,2.6306 11.4023,3.1366 L11.4023,4.2666 C11.4023,4.8066 12.2383,4.8066 12.2383,4.2666 Z" id="Stroke-45" stroke="#FFFFFF" stroke-width="0.5"></path>
                        <path d="M33.9453,10.043 L33.9453,14.323 C34.0853,14.185 34.2233,14.045 34.3633,13.905 L32.0923,13.905 L26.3613,13.905 L18.7903,13.905 L10.9993,13.905 L4.6113,13.905 L1.2463,13.905 L1.0663,13.905 L1.4843,14.323 L1.4843,11.444 L1.4843,10.11 C1.4843,9.43 1.6833,8.814 2.0883,8.262 C2.6773,7.456 3.6483,7.095 4.6233,7.095 L5.9673,7.095 L11.7423,7.095 L19.5023,7.095 L26.6943,7.095 L30.7643,7.095 C31.1743,7.095 31.5563,7.123 31.9543,7.25 C33.1483,7.635 33.9353,8.803 33.9453,10.043 C33.9493,10.582 34.7863,10.583 34.7813,10.043 C34.7733,9.087 34.4223,8.186 33.7843,7.475 C33.1523,6.772 32.2583,6.371 31.3293,6.274 C31.0023,6.24 30.6643,6.259 30.3363,6.259 L25.4573,6.259 L17.9543,6.259 L10.3803,6.259 L5.2903,6.259 L4.4743,6.259 C2.6613,6.259 1.0203,7.584 0.7083,9.384 C0.6443,9.748 0.6483,10.11 0.6483,10.479 L0.6483,11.946 L0.6483,14.323 C0.6483,14.554 0.8373,14.742 1.0663,14.742 L3.3363,14.742 L9.0673,14.742 L16.6393,14.742 L24.4293,14.742 L30.8183,14.742 L34.1833,14.742 L34.3633,14.742 C34.5933,14.742 34.7813,14.554 34.7813,14.323 L34.7813,10.043 C34.7813,9.504 33.9453,9.504 33.9453,10.043" id="Fill-47" fill="#FFFFFF"></path>
                        <path d="M33.9453,10.043 L33.9453,14.323 C34.0853,14.185 34.2233,14.045 34.3633,13.905 L32.0923,13.905 L26.3613,13.905 L18.7903,13.905 L10.9993,13.905 L4.6113,13.905 L1.2463,13.905 L1.0663,13.905 L1.4843,14.323 L1.4843,11.444 L1.4843,10.11 C1.4843,9.43 1.6833,8.814 2.0883,8.262 C2.6773,7.456 3.6483,7.095 4.6233,7.095 L5.9673,7.095 L11.7423,7.095 L19.5023,7.095 L26.6943,7.095 L30.7643,7.095 C31.1743,7.095 31.5563,7.123 31.9543,7.25 C33.1483,7.635 33.9353,8.803 33.9453,10.043 C33.9493,10.582 34.7863,10.583 34.7813,10.043 C34.7733,9.087 34.4223,8.186 33.7843,7.475 C33.1523,6.772 32.2583,6.371 31.3293,6.274 C31.0023,6.24 30.6643,6.259 30.3363,6.259 L25.4573,6.259 L17.9543,6.259 L10.3803,6.259 L5.2903,6.259 L4.4743,6.259 C2.6613,6.259 1.0203,7.584 0.7083,9.384 C0.6443,9.748 0.6483,10.11 0.6483,10.479 L0.6483,11.946 L0.6483,14.323 C0.6483,14.554 0.8373,14.742 1.0663,14.742 L3.3363,14.742 L9.0673,14.742 L16.6393,14.742 L24.4293,14.742 L30.8183,14.742 L34.1833,14.742 L34.3633,14.742 C34.5933,14.742 34.7813,14.554 34.7813,14.323 L34.7813,10.043 C34.7813,9.504 33.9453,9.504 33.9453,10.043 Z" id="Stroke-49" stroke="#FFFFFF" stroke-width="0.5"></path>
                        <path d="M20.3232,14.3242 L20.3232,15.6782 L20.3232,16.5462 C20.3232,16.7122 20.3342,16.8942 20.3022,17.0452 C20.2292,17.4022 19.9692,17.7032 19.6332,17.8252 C19.4512,17.8902 19.2832,17.8882 19.0912,17.8882 L17.3792,17.8882 L16.1772,17.8882 C15.5892,17.8882 15.1062,17.4182 15.1062,16.8252 L15.1062,14.3232 L14.6872,14.7422 L20.4902,14.7422 L20.7422,14.7422 C21.2812,14.7422 21.2812,13.9052 20.7422,13.9052 L14.9392,13.9052 L14.6872,13.9052 C14.4582,13.9052 14.2692,14.0942 14.2692,14.3232 L14.2692,15.6782 C14.2692,16.1622 14.2202,16.6802 14.3012,17.1622 C14.4512,18.0652 15.2702,18.7242 16.1772,18.7242 L17.5752,18.7242 L19.1772,18.7242 C19.9952,18.7242 20.7192,18.2892 21.0292,17.5172 C21.2232,17.0352 21.1602,16.4592 21.1602,15.9492 L21.1602,14.3622 L21.1602,14.3232 C21.1602,13.7842 20.3232,13.7842 20.3232,14.3242" id="Fill-51" fill="#FFFFFF"></path>
                        <path d="M20.3232,14.3242 L20.3232,15.6782 L20.3232,16.5462 C20.3232,16.7122 20.3342,16.8942 20.3022,17.0452 C20.2292,17.4022 19.9692,17.7032 19.6332,17.8252 C19.4512,17.8902 19.2832,17.8882 19.0912,17.8882 L17.3792,17.8882 L16.1772,17.8882 C15.5892,17.8882 15.1062,17.4182 15.1062,16.8252 L15.1062,14.3232 L14.6872,14.7422 L20.4902,14.7422 L20.7422,14.7422 C21.2812,14.7422 21.2812,13.9052 20.7422,13.9052 L14.9392,13.9052 L14.6872,13.9052 C14.4582,13.9052 14.2692,14.0942 14.2692,14.3232 L14.2692,15.6782 C14.2692,16.1622 14.2202,16.6802 14.3012,17.1622 C14.4512,18.0652 15.2702,18.7242 16.1772,18.7242 L17.5752,18.7242 L19.1772,18.7242 C19.9952,18.7242 20.7192,18.2892 21.0292,17.5172 C21.2232,17.0352 21.1602,16.4592 21.1602,15.9492 L21.1602,14.3622 L21.1602,14.3232 C21.1602,13.7842 20.3232,13.7842 20.3232,14.3242 Z" id="Stroke-53" stroke="#FFFFFF" stroke-width="0.5"></path>
                    </g>
                </g>
            </g>
        </g>
    </g>
</svg>