<?xml version="1.0" encoding="UTF-8" standalone="no"?>
<svg width="36px" height="34px" viewBox="0 0 36 34" version="1.1" xmlns="http://www.w3.org/2000/svg" xmlns:xlink="http://www.w3.org/1999/xlink">
    <!-- Generator: Sketch 46.2 (44496) - http://www.bohemiancoding.com/sketch -->
    <title>ico-topico-oportunidades</title>
    <desc>Created with Sketch.</desc>
    <defs></defs>
    <g id="splash-producto" stroke="none" stroke-width="1" fill="none" fill-rule="evenodd">
        <g id="splash-header-perfil-producto" transform="translate(-838.000000, -689.000000)" fill="#FFFFFF">
            <g id="topicos-perfil" transform="translate(650.000000, 687.000000)">
                <g id="ico-topico-oportunidades" transform="translate(188.000000, 2.000000)">
                    <path d="M16.7246,27.709 C15.3946,27.709 14.3136,28.771 14.3136,30.094 C14.3136,31.417 15.3946,32.492 16.7246,32.492 C18.0546,32.492 19.1226,31.417 19.1226,30.094 C19.1226,28.771 18.0546,27.709 16.7246,27.709 Z M24.9276,23.358 C24.3726,23.358 23.9326,23.803 23.9326,24.354 C23.9326,24.903 24.3726,25.349 24.9276,25.349 C25.4826,25.349 25.9226,24.903 25.9226,24.354 C25.9226,23.803 25.4826,23.358 24.9276,23.358 Z M12.5016,14.109 C10.1536,14.109 8.2796,15.993 8.2796,18.332 C8.2796,20.67 10.1516,22.542 12.5016,22.542 C14.8526,22.542 16.7496,20.669 16.7496,18.332 C16.7496,15.995 14.8506,14.109 12.5016,14.109 Z M32.2766,10.983 C31.0106,10.983 29.9796,12.01 29.9796,13.267 C29.9796,13.458 30.0056,13.643 30.0436,13.815 C30.0526,13.832 30.0616,13.849 30.0696,13.866 C30.3286,14.833 31.2186,15.563 32.2766,15.563 C33.5406,15.563 34.5596,14.543 34.5596,13.267 C34.5596,12.01 33.5406,10.983 32.2766,10.983 Z M3.5336,8.419 C2.0876,8.419 0.9306,9.569 0.9306,11.022 C0.9306,12.456 2.0906,13.611 3.5336,13.611 C4.9766,13.611 6.1486,12.456 6.1486,11.022 C6.1486,9.569 4.9786,8.419 3.5336,8.419 Z M16.3926,1.301 C14.6426,1.301 13.2296,2.71 13.2296,4.452 C13.2296,5.895 14.1986,7.114 15.5256,7.488 C15.5426,7.491 15.5596,7.495 15.5766,7.501 C15.8366,7.569 16.1106,7.603 16.3926,7.603 C18.1436,7.603 19.5566,6.193 19.5566,4.451 C19.5566,2.71 18.1436,1.301 16.3926,1.301 Z M16.3926,0.484 C18.5836,0.484 20.3726,2.267 20.3726,4.452 C20.3726,6.637 18.5836,8.419 16.3926,8.419 C16.1606,8.419 15.9386,8.394 15.7166,8.355 L14.2626,13.611 C15.6706,14.135 16.7896,15.268 17.2866,16.687 L29.1886,13.637 C29.1756,13.52 29.1626,13.393 29.1626,13.268 C29.1626,11.563 30.5696,10.167 32.2766,10.167 C33.9836,10.167 35.3756,11.564 35.3756,13.268 C35.3756,14.984 33.9836,16.38 32.2766,16.38 C30.9716,16.38 29.8486,15.572 29.3926,14.428 L17.4906,17.478 C17.5386,17.758 17.5666,18.038 17.5666,18.332 C17.5666,18.959 17.4466,19.564 17.2356,20.118 L23.5756,23.154 C23.9086,22.784 24.3936,22.542 24.9276,22.542 C25.9236,22.542 26.7396,23.359 26.7396,24.354 C26.7396,25.348 25.9236,26.165 24.9276,26.165 C23.9316,26.165 23.1166,25.348 23.1166,24.354 C23.1166,24.188 23.1506,24.034 23.1926,23.882 L16.8776,20.857 C16.3606,21.738 15.5786,22.451 14.6456,22.887 L16.1506,26.943 C16.3356,26.909 16.5306,26.893 16.7246,26.893 C18.4956,26.893 19.9396,28.327 19.9396,30.095 C19.9396,31.861 18.4956,33.31 16.7246,33.31 C14.9536,33.31 13.4966,31.861 13.4966,30.095 C13.4966,28.81 14.2746,27.71 15.3716,27.198 L13.8796,23.167 C13.4416,23.29 12.9786,23.358 12.5016,23.358 C9.7146,23.358 7.4626,21.11 7.4626,18.332 C7.4626,17.268 7.7896,16.289 8.3556,15.475 L5.9066,13.471 C5.2886,14.064 4.4536,14.428 3.5336,14.428 C1.6486,14.428 0.1146,12.902 0.1146,11.022 C0.1146,9.128 1.6516,7.603 3.5336,7.603 C5.4156,7.603 6.9646,9.128 6.9646,11.022 C6.9646,11.694 6.7696,12.316 6.4296,12.846 L8.8666,14.836 C9.7836,13.885 11.0756,13.293 12.5016,13.293 C12.8316,13.293 13.1586,13.321 13.4716,13.382 L14.9256,8.126 C13.4596,7.541 12.4126,6.118 12.4126,4.451 C12.4126,2.267 14.2026,0.484 16.3926,0.484 Z" id="Fill-475"></path>
                </g>
            </g>
        </g>
    </g>
</svg>