<?xml version="1.0" encoding="UTF-8" standalone="no"?>
<svg width="28px" height="37px" viewBox="0 0 28 37" version="1.1" xmlns="http://www.w3.org/2000/svg" xmlns:xlink="http://www.w3.org/1999/xlink">
    <!-- Generator: Sketch 46.2 (44496) - http://www.bohemiancoding.com/sketch -->
    <title>ico-politica-topic</title>
    <desc>Created with Sketch.</desc>
    <defs></defs>
    <g id="menu-nav-topicos" stroke="none" stroke-width="1" fill="none" fill-rule="evenodd">
        <g transform="translate(-743.000000, -90.000000)" id="topicos" fill="#FFFFFF">
            <g transform="translate(53.000000, 80.000000)">
                <g id="ico-politica-topic" transform="translate(690.000000, 10.000000)">
                    <path d="M23.1016,12.3635 C23.6446,12.3635 24.0076,12.0015 24.0076,11.4575 C24.0076,10.9145 23.6446,10.5525 23.1016,10.5525 L16.5826,10.5525 C16.0396,10.5525 15.6776,10.9145 15.6776,11.4575 C15.6776,12.0015 16.0396,12.3635 16.5826,12.3635 L23.1016,12.3635 Z" id="Fill-232"></path>
                    <path d="M4.9937,21.4175 C4.9937,21.9605 5.3557,22.3225 5.8987,22.3225 L22.1057,22.3225 C22.6487,22.3225 23.0117,21.9605 23.0117,21.4175 C23.0117,20.8745 22.6487,20.5125 22.1057,20.5125 L5.8987,20.5125 C5.4467,20.5125 4.9937,20.8745 4.9937,21.4175" id="Fill-234"></path>
                    <path d="M5.8989,26.85 L22.1059,26.85 C22.6489,26.85 23.0109,26.488 23.0109,25.945 C23.0109,25.401 22.6489,25.039 22.1059,25.039 L5.8989,25.039 C5.3559,25.039 4.9939,25.401 4.9939,25.945 C4.9939,26.488 5.4459,26.85 5.8989,26.85" id="Fill-236"></path>
                    <path d="M5.8989,31.377 L22.1059,31.377 C22.6489,31.377 23.0109,31.015 23.0109,30.472 C23.0109,29.928 22.6489,29.566 22.1059,29.566 L5.8989,29.566 C5.3559,29.566 4.9939,29.928 4.9939,30.472 C4.9939,31.015 5.4459,31.377 5.8989,31.377" id="Fill-238"></path>
                    <path d="M7.2573,16.8905 C7.2573,17.4335 7.6193,17.7955 8.1623,17.7955 L19.9323,17.7955 C20.4763,17.7955 20.8383,17.4335 20.8383,16.8905 C20.8383,16.3475 20.4763,15.9855 19.9323,15.9855 L8.1623,15.9855 C7.6193,15.9855 7.2573,16.3475 7.2573,16.8905" id="Fill-240"></path>
                    <path d="M18.3032,5.0297 C18.0312,5.5727 17.3972,5.9347 16.6732,5.9347 L11.2412,5.9347 C10.6072,5.9347 9.9732,5.5727 9.7012,5.0297 C9.5202,4.7577 9.4302,4.4867 9.4302,4.1247 C9.4302,3.7617 9.5202,3.4907 9.7012,3.2187 C9.9732,2.6757 10.6072,2.3137 11.2412,2.3137 L16.6732,2.3137 C17.3072,2.3137 17.9412,2.6757 18.2122,3.2187 C18.3932,3.4907 18.4842,3.7617 18.4842,4.1247 C18.4842,4.4867 18.4842,4.7577 18.3032,5.0297 M24.2792,3.2187 L20.2042,3.2187 C19.7522,1.6797 18.3932,0.5027 16.6732,0.5027 L11.2412,0.5027 C9.5202,0.5027 8.1622,1.6797 7.7102,3.2187 L3.5452,3.2187 C1.9152,3.2187 0.4672,4.6677 0.4672,6.3877 C0.4672,6.9307 0.9192,7.2937 1.3722,7.2937 C1.8242,7.2937 2.2772,6.9307 2.2772,6.3877 C2.2772,5.6637 2.9112,5.0297 3.6362,5.0297 L7.8002,5.0297 C8.1622,6.5687 9.6112,7.7457 11.3312,7.7457 L16.7632,7.7457 C18.4842,7.7457 19.8422,6.5687 20.2952,5.0297 L24.3692,5.0297 C25.0942,5.0297 25.7272,5.6637 25.7272,6.3877 L25.7272,33.6407 C25.7272,34.3647 25.0942,34.9077 24.3692,34.9077 L3.6362,34.9077 C2.9112,34.9077 2.2772,34.3647 2.2772,33.6407 L2.2772,13.1787 C2.2772,12.6347 1.8242,12.2727 1.3722,12.2727 C0.9192,12.2727 0.4672,12.6347 0.4672,13.1787 L0.4672,33.6407 C0.4672,35.3607 1.8242,36.7187 3.6362,36.7187 L24.2792,36.7187 C25.9992,36.7187 27.4482,35.2707 27.4482,33.6407 L27.4482,6.3877 C27.4482,4.6677 25.9992,3.2187 24.2792,3.2187" id="Fill-242"></path>
                </g>
            </g>
        </g>
    </g>
</svg>