<svg width="34px" height="30px" viewBox="0 0 34 30" version="1.1" xmlns="http://www.w3.org/2000/svg" xmlns:xlink="http://www.w3.org/1999/xlink">
    <g id="Menu-topics" stroke="none" stroke-width="1" fill="none" fill-rule="evenodd">
        <g id="menu-topics" transform="translate(-57.000000, -105.000000)">
            <g id="Set-iconos">
                <g id="icon-economia" transform="translate(57.000000, 105.000000)" class="fill-color">
                    <path d="M9.855,4.2168 L9.855,2.7528 C9.855,1.5078 11.173,0.5558 12.857,0.5558 L20.766,0.5558 C22.45,0.5558 23.768,1.5078 23.768,2.7528 L23.768,4.2168 C23.768,4.6198 23.438,4.9488 23.036,4.9488 C22.633,4.9488 22.303,4.6198 22.303,4.2168 L22.303,2.7528 C22.303,2.4598 21.681,2.0208 20.766,2.0208 L12.821,2.0208 C11.905,2.0208 11.283,2.4598 11.283,2.7528 L11.283,4.2168 C11.283,4.6198 10.954,4.9488 10.551,4.9488 C10.148,4.9488 9.855,4.6198 9.855,4.2168 M22.669,21.4248 C22.669,21.8278 22.34,22.1568 21.937,22.1568 L11.686,22.1568 C11.283,22.1568 10.954,21.8278 10.954,21.4248 C10.954,21.0228 11.283,20.6928 11.686,20.6928 L21.937,20.6928 C22.34,20.6928 22.669,21.0228 22.669,21.4248 M29.626,28.3808 L3.997,28.3808 C2.789,28.3808 1.8,27.3928 1.8,26.1848 L1.8,13.4438 C7.329,17.7638 12.528,19.1178 16.921,19.1178 C19.411,19.1178 21.608,18.6788 23.475,18.0928 C27.393,16.8488 30.285,14.7978 31.823,13.5168 L31.823,26.1848 C31.823,27.3928 30.834,28.3808 29.626,28.3808 M3.997,7.8778 L29.626,7.8778 C30.834,7.8778 31.823,8.8668 31.823,10.0748 L31.823,11.5758 C31.054,12.3088 27.795,15.1638 23.036,16.7018 C15.786,19.0088 8.647,17.2878 1.8,11.5398 L1.8,10.0748 C1.8,8.8668 2.752,7.8778 3.997,7.8778 M29.626,6.4138 L3.997,6.4138 C1.983,6.4138 0.336,8.0618 0.336,10.0748 L0.336,26.1848 C0.336,28.1978 1.983,29.8458 3.997,29.8458 L29.626,29.8458 C31.64,29.8458 33.287,28.1978 33.287,26.1848 L33.287,10.0748 C33.287,8.0618 31.64,6.4138 29.626,6.4138" id="Fill-38"></path>
                </g>
            </g>
        </g>
    </g>
</svg>