<svg width="173" height="60" viewBox="0 0 173 60" xmlns="http://www.w3.org/2000/svg"><title>antiofagasta-logo-white</title><desc>Created with Sketch.</desc><g fill="none"><path d="M69.639 25.539h-1.515l-1.191-3.556h-4.397l-1.057 3.556h-1.244l3.85-12.163h1.681l3.874 12.163zm-3.021-4.697l-1.835-5.845-1.833 5.845h3.667zm14 4.697h-1.441l-6.127-10.604.016.802c.017.303.024.559.024.765v9.037h-1.196v-12.162h1.857l5.731 9.911-.018-.846c-.012-.334-.018-.627-.018-.883v-8.181h1.174l-.002 12.163zm7.247 0h-1.485v-10.827h-3.394v-1.336h8.279v1.336h-3.4v10.827zm9.317.247c-1.519 0-2.706-.607-3.558-1.82-.847-1.216-1.275-2.707-1.275-4.473 0-1.842.448-3.363 1.339-4.564.891-1.203 2.07-1.802 3.54-1.802 1.466 0 2.636.589 3.525 1.772.885 1.179 1.329 2.666 1.329 4.459 0 1.725-.432 3.228-1.292 4.509-.859 1.281-2.061 1.92-3.608 1.92zm.037-1.237c1.036 0 1.845-.485 2.431-1.454.584-.968.876-2.216.876-3.747 0-1.567-.302-2.789-.909-3.663-.604-.873-1.404-1.311-2.404-1.311-1.015 0-1.818.472-2.418 1.42-.594.944-.895 2.183-.895 3.71 0 1.491.302 2.706.906 3.641.601.935 1.405 1.405 2.412 1.405zm9.284.99h-1.481v-12.163h7.256v1.336h-5.774v3.839h4.785v1.228h-4.785v5.759zm15.418 0h-1.515l-1.189-3.556h-4.398l-1.058 3.556h-1.242l3.851-12.163h1.68l3.872 12.163zm-3.021-4.697l-1.837-5.845-1.833 5.845h3.669zm13.589-1.435v6.299h-.906l-.406-1.522c-.732 1.067-1.817 1.602-3.255 1.602-1.565 0-2.778-.602-3.65-1.809-.871-1.206-1.302-2.671-1.302-4.393 0-1.847.459-3.382 1.381-4.612.917-1.231 2.169-1.845 3.748-1.845 2.184 0 3.604 1.175 4.268 3.527l-1.401.348c-.206-.904-.588-1.563-1.141-1.969-.555-.411-1.162-.617-1.821-.617-1.171 0-2.034.485-2.59 1.456-.555.966-.829 2.182-.829 3.645 0 1.577.307 2.809.93 3.697.622.89 1.468 1.335 2.54 1.335.831 0 1.528-.285 2.086-.852.554-.568.837-1.355.837-2.355l-.013-.661h-2.938v-1.274h4.461zm11.5 6.132h-1.513l-1.194-3.556h-4.393l-1.061 3.556h-1.237l3.848-12.163h1.68l3.871 12.163zm-3.022-4.697l-1.837-5.845-1.83 5.845h3.666zm3.975 1.478l1.335-.311c.538 1.658 1.704 2.486 3.499 2.486.939 0 1.643-.203 2.12-.613.471-.408.711-.954.711-1.639 0-.519-.177-.938-.54-1.253-.364-.315-.778-.534-1.255-.65l-2.369-.603c-.614-.161-1.119-.355-1.506-.583-.391-.228-.722-.583-.994-1.059-.272-.475-.405-1.018-.405-1.633 0-1.015.368-1.826 1.117-2.431.748-.602 1.705-.904 2.875-.904 2.152 0 3.566.999 4.243 3.002l-1.347.41c-.155-.713-.519-1.253-1.098-1.618-.58-.368-1.196-.549-1.851-.549-.648 0-1.225.177-1.732.528-.505.352-.754.852-.754 1.494 0 .904.64 1.512 1.921 1.828l2.217.533c2.022.5 3.037 1.621 3.037 3.361 0 1.05-.38 1.926-1.142 2.624-.762.697-1.832 1.046-3.217 1.046-2.459-.001-4.079-1.154-4.864-3.466zm15.35 3.219h-1.479v-10.827h-3.397v-1.336h8.281v1.336h-3.405v10.827zm12.675 0h-1.515l-1.192-3.556h-4.392l-1.061 3.556h-1.242l3.852-12.163h1.679l3.872 12.163zm-3.02-4.697l-1.838-5.845-1.83 5.845h3.667zm-98.756 22.037h-1.317v-10.62l-3.514 10.62h-.919l-3.551-10.62v10.62h-1.148v-12.163h2.006l3.268 9.728 3.192-9.728h1.983v12.163zm5.034 0h-1.358v-12.163h1.358v12.163zm11.644 0h-1.313l-5.601-10.599.017.801.025.765v9.033h-1.096v-12.163h1.694l5.234 9.915-.015-.847c-.012-.332-.016-.627-.016-.883v-8.184h1.071v12.163zm10.678-1.337v1.337h-7.001v-12.163h6.852v1.338h-5.492v3.867h4.359v1.242h-4.359v4.382l5.642-.002zm10.657 1.337h-1.419l-1.999-5.264h-3.098v5.264h-1.269v-12.163h4.264c1.159 0 2.017.355 2.574 1.065.559.71.837 1.488.837 2.33 0 .648-.155 1.268-.467 1.863-.314.593-.829 1.019-1.547 1.273l2.125 5.632zm-6.517-6.502h2.833c.744 0 1.298-.223 1.667-.663.368-.446.549-.986.549-1.632 0-.636-.193-1.138-.583-1.493-.389-.358-.879-.535-1.472-.535h-2.995v4.323zm16.945 6.502h-1.384l-1.086-3.555h-4.018l-.969 3.555h-1.132l3.517-12.162h1.535l3.538 12.162zm-2.762-4.693l-1.679-5.845-1.674 5.845h3.353zm11.533 3.357v1.337h-6.387v-12.163h1.384v10.826h5.004v.001zm1.347-1.88l1.224-.31c.492 1.657 1.556 2.484 3.193 2.484.858 0 1.504-.204 1.935-.611.432-.408.65-.956.65-1.643 0-.519-.163-.934-.496-1.249-.328-.318-.713-.534-1.146-.654l-2.164-.599c-.561-.159-1.02-.354-1.376-.586-.358-.228-.662-.58-.909-1.055s-.372-1.02-.372-1.633c0-1.019.341-1.827 1.025-2.432.683-.604 1.555-.904 2.622-.904 1.97 0 3.262.999 3.877 2.998l-1.228.41c-.142-.712-.483-1.249-1.007-1.618-.527-.363-1.093-.545-1.692-.545-.59 0-1.117.177-1.578.526-.463.352-.692.85-.692 1.496 0 .9.587 1.508 1.758 1.828l2.023.534c1.847.498 2.772 1.618 2.772 3.357 0 1.052-.347 1.926-1.041 2.629-.696.696-1.678 1.045-2.94 1.045-2.242-.003-3.721-1.158-4.44-3.469zM24.635 19.689l-6.008 8.809-4.359-6.391 1.806-2.648 1.279-1.027c1.694-1.36 3.211-1.635 4.59-1.11.967.368 1.773 1.085 2.373 1.9l.213.315.104.153zm-17.988 13.592c2.253-2.172 6.241.639 7.228 2.065l.041.061-7.364 10.795c-1.128 1.659-3.356 2.073-4.979.922-1.62-1.149-2.026-3.427-.902-5.086l5.919-8.676.057-.081zm33.63-4.338l8.93 13.095c1.127 1.661.721 3.937-.902 5.086-1.625 1.152-3.853.738-4.978-.922l-7.412-10.869.105-.151 4.259-6.239zm-9.329-.886l-6.01-8.809-.225-.33c-.785-1.065-3.583-4.161-7.666-.883l4.936-7.237c.67-.992 1.74-1.535 2.839-1.569l.115-.004.12.004c1.097.034 2.163.578 2.84 1.569l7.413 10.868-4.362 6.391zm4.664-5.948l4.362 6.392-4.363 6.391-7.726 11.277c-.242.363-.551.689-.924.955-1.625 1.152-3.854.738-4.978-.922 0 0-1.793-2.72-3.889-5.798 0 0 4.213 1.013 6.844-2.65l6.312-9.254 4.362-6.391zm-28.338 10.148l6.691-9.707 4.256 6.24 6.131 8.989c-.697 1.16-1.862 1.791-3.035 2.118-1.096.305-3.281.127-3.47.069-1.413-2.071-3.117-4.258-3.565-4.91-.667-.963-2.2-2.127-3.672-2.689-1.231-.469-2.378-.531-3.335-.111z" fill="#fff" fill-rule="nonzero"/></g></svg>