<svg width="150" height="60" viewBox="0 0 150 60" xmlns="http://www.w3.org/2000/svg"><title>asech-logo-white</title><desc>Created with Sketch.</desc><g fill="#fff"><path d="M65.684 31.311l-5.368-11.808-5.368 11.808h10.737zm-15 6.105l8.684-18.877c.158-.482.474-.803.947-.803h.079c.553 0 .789.321 1.026.803l8.684 18.877v.402c0 .402-.237.803-.632.803s-.632-.321-.789-.643l-2.368-5.302h-12l-2.368 5.302c-.158.402-.395.562-.789.562-.333-.036-.596-.304-.632-.643l.079-.482h.079zm22.895-1.526c-.199-.152-.316-.39-.316-.643.028-.29.207-.542.469-.658.262-.117.566-.08.794.096 1.846 1.788 4.322 2.743 6.868 2.651 3 0 5.132-1.687 5.132-4.016v-.08c0-2.169-1.105-3.454-5.763-4.338-4.895-1.044-6.868-2.651-6.868-5.784s2.763-5.462 6.553-5.462c2.763 0 4.658.803 6.474 2.169.158.08.316.321.316.562-.028.29-.207.542-.469.658-.262.117-.566.08-.794-.096-1.568-1.273-3.521-1.954-5.526-1.928-3.079 0-5.053 1.767-5.053 3.936s1.105 3.534 5.921 4.498c4.737.964 6.711 2.651 6.711 5.623 0 3.374-2.842 5.623-6.711 5.623-3.079 0-5.447-.964-7.737-2.811zm19.421 1.767v-18.957c0-.402.316-.723.789-.723h13.105c.316 0 .711.321.711.723 0 .402-.395.643-.789.643h-12.316v8.033h11.053c.395 0 .711.402.711.803 0 .321-.316.643-.711.643h-11.053v8.193h12.553c.316 0 .632.321.632.723 0 .402-.316.723-.632.723h-13.342c-.436 0-.789-.36-.789-.803h.079zm18.553-9.398c0-5.864 4.263-10.603 10.184-10.603 3.316 0 5.526 1.125 7.421 2.811.158.161.316.402.316.643 0 .402-.395.803-.789.803-.208-.003-.407-.09-.553-.241-1.658-1.607-3.632-2.651-6.474-2.651-4.895 0-8.526 4.016-8.526 9.157 0 5.221 3.711 9.238 8.605 9.238 2.763 0 4.737-.964 6.553-2.811.158-.161.316-.241.553-.241.395 0 .789.321.789.723 0 .241-.158.402-.316.482-2.053 1.928-4.263 3.213-7.658 3.213-5.842 0-10.105-4.659-10.105-10.443v-.08zm22.342-9.639c0-.402.316-.803.789-.803.316 0 .711.402.711.803v8.836h12.947v-8.836c0-.402.316-.803.789-.803.316 0 .711.402.711.803v19.198c0 .402-.395.803-.789.803-.436 0-.789-.36-.789-.803v-8.997h-12.947v8.997c0 .402-.395.803-.789.803-.436 0-.789-.36-.789-.803v-19.198h.158z"/><path d="M27.122 32.258c.395 2.79 1.19 5.518 2.371 8.096.119.26.259.506.418.735-1.984-.668-4.064-1.012-6.164-1.015-2.872.004-5.708.647-8.311 1.882-4.812 2.383-8.223-5.06-3.337-7.28 3.681-1.747 7.656-2.624 11.624-2.633 1.139 0 2.273.072 3.398.214zm.73-7.753c2.72-.405 5.38-1.21 7.894-2.403.301-.139.583-.309.843-.505-1.657 4.894-1.398 10.283.775 15.023.596 1.301.465 2.826-.344 4.002-.809 1.176-2.173 1.823-3.578 1.698-1.405-.125-2.638-1.003-3.234-2.304-1.725-3.765-2.587-7.823-2.587-11.881 0-1.212.077-2.424.231-3.628zm-7.769-.745c-.386-2.847-1.189-5.631-2.394-8.259-.094-.209-.201-.41-.321-.601 4.795 1.664 10.068 1.395 14.709-.808 1.281-.621 2.79-.495 3.954.329 1.164.825 1.804 2.222 1.676 3.659-.128 1.438-1.004 2.695-2.295 3.293-3.7 1.755-7.688 2.633-11.677 2.633-1.225 0-2.445-.082-3.652-.246zm-8.317 10.189c-.459.208-.863.464-1.212.756 1.745-4.956 1.513-10.44-.695-15.255-.612-1.303-.489-2.84.321-4.026.811-1.186 2.185-1.837 3.598-1.706 1.414.131 2.65 1.024 3.237 2.339 1.725 3.765 2.587 7.823 2.587 11.881 0 1.221-.078 2.441-.234 3.654-2.62.418-5.18 1.208-7.603 2.358zm11.978 18.371c-2.834 0-5.132-2.338-5.132-5.221 0-2.884 2.297-5.221 5.132-5.221 2.834 0 5.132 2.338 5.132 5.221 0 2.884-2.297 5.221-5.132 5.221zm0-37.877c-2.834 0-5.132-2.338-5.132-5.221 0-2.884 2.297-5.221 5.132-5.221 2.834 0 5.132 2.338 5.132 5.221 0 2.884-2.297 5.221-5.132 5.221zm18.613 18.939c-2.834 0-5.132-2.338-5.132-5.221 0-2.884 2.297-5.221 5.132-5.221 2.834 0 5.132 2.338 5.132 5.221 0 2.884-2.297 5.221-5.132 5.221zm-37.226 0c-2.834 0-5.132-2.338-5.132-5.221 0-2.884 2.297-5.221 5.132-5.221 2.834 0 5.132 2.338 5.132 5.221 0 2.884-2.297 5.221-5.132 5.221z" fill-rule="nonzero"/></g></svg>