<svg width="130" height="60" viewBox="0 0 130 60" xmlns="http://www.w3.org/2000/svg"><title>corfo-logo-white</title><desc>Created with Sketch.</desc><path d="M109.547 41.568c-.26 0-.52-.259-.52-.605 0-.173.087-.345.173-.432 2.687-2.936 3.987-6.65 3.987-10.968s-1.387-8.032-4.073-11.055l-.087-.086c-.173-.259-.087-.605.087-.777.26-.259.607-.259.867 0 3.12 3.455 7.02 5.009 10.227 3.714 4.68-1.814 6.153-8.895 3.553-15.891v-.173c0-.345.26-.605.607-.605.173 0 .347.086.433.173 3.553 3.886 5.2 8.895 5.2 14.682 0 6.391-2.08 11.659-6.327 15.805-3.813 3.8-8.58 5.873-14.127 6.218zm-43.16-1.9l1.04 1.641h-4.073l-.953-1.555s-.087-.086-.173-.259l-.607-.95-.953-1.727-.953-1.814c-.693-1.036-1.3-1.727-1.82-2.332-.52-.518-1.04-.95-1.473-1.209-.433-.259-1.213-.345-2.253-.345h-.26v10.277h-3.467v-23.491h5.547c2.253 0 4.247.518 5.547 1.727 1.3 1.123 1.993 2.764 1.993 4.75 0 1.382-.347 2.505-.953 3.541-.607 1.036-1.733 1.727-2.947 2.245.693.432 1.387 1.123 2.08 1.986.693.864 1.647 2.332 2.86 4.491.693 1.382 1.387 2.332 1.82 3.023zm-8.147-12.264c.52-.345.953-.691 1.3-1.209.26-.518.433-1.123.433-1.814 0-.691-.173-1.295-.52-1.814-.26-.518-.78-.864-1.387-1.123-.693-.259-1.907-.345-3.293-.345h-.867v6.736h1.127c1.473 0 2.687-.173 3.207-.432zm12.133-9.586h11.787v3.282h-8.32v5.959h8.32v3.282h-8.32v10.968h-3.467v-23.491zm-27.04 3.109c2.253 2.332 3.467 5.182 3.38 8.636 0 3.455-1.127 6.391-3.467 8.636-2.253 2.245-5.2 3.368-8.667 3.368-3.293 0-6.067-1.123-8.32-3.368s-3.38-5.095-3.38-8.55c0-3.541 1.127-6.391 3.38-8.723 2.253-2.332 5.027-3.455 8.493-3.455 3.467 0 6.327 1.123 8.58 3.455zm-2.6 15.027c1.647-1.727 2.427-3.886 2.427-6.305 0-2.505-.867-4.577-2.427-6.305-1.647-1.727-3.553-2.591-5.893-2.591-2.427 0-4.42.777-5.98 2.505-1.56 1.727-2.34 3.886-2.34 6.477 0 2.505.78 4.577 2.34 6.305 1.56 1.641 3.553 2.505 5.893 2.505 2.427 0 4.42-.864 5.98-2.591zm65.087-15.027c2.34 2.332 3.467 5.182 3.38 8.636 0 3.455-1.127 6.391-3.467 8.636-2.253 2.245-5.2 3.368-8.667 3.368-3.293 0-6.067-1.123-8.32-3.368s-3.38-5.095-3.38-8.55c0-3.541 1.127-6.391 3.38-8.723 2.253-2.332 5.027-3.455 8.493-3.455 3.467 0 6.327 1.123 8.58 3.455zm-2.6 15.027c1.647-1.727 2.427-3.886 2.427-6.305 0-2.505-.867-4.577-2.427-6.305-1.647-1.727-3.553-2.591-5.893-2.591-2.427 0-4.42.777-5.98 2.505-1.56 1.727-2.34 3.886-2.34 6.477 0 2.505.78 4.577 2.34 6.305 1.56 1.641 3.553 2.505 5.893 2.505 2.427 0 4.42-.864 5.98-2.591zm-83.547 0c.087-.086.173-.173.26-.086v3.886c-2.34 1.295-5.027 1.986-8.06 1.986-2.513 0-4.593-.518-6.327-1.555-1.733-1.036-3.033-2.505-4.073-4.318-.953-1.814-1.473-3.8-1.473-5.959 0-3.455 1.127-6.305 3.467-8.636 2.253-2.332 5.113-3.541 8.493-3.541 2.34 0 4.94.605 7.8 1.9v3.8l-.087-.086c-1.82-1.727-4.073-2.591-6.673-2.591-2.773 0-5.027.777-6.847 2.505-1.82 1.727-2.687 3.886-2.687 6.477 0 2.505.867 4.577 2.687 6.305 1.82 1.641 4.073 2.505 6.76 2.505 2.687 0 4.94-.864 6.76-2.591zm101.4-23.405c.867.777 1.213 1.814 1.213 3.109 0 1.209-.433 2.245-1.213 3.023-.867.777-1.907 1.209-3.12 1.209-1.127 0-2.167-.432-2.947-1.209-.78-.777-1.213-1.814-1.213-3.023 0-1.295.433-2.332 1.213-3.109.78-.777 1.82-1.209 3.033-1.209 1.213 0 2.253.432 3.033 1.209z" fill-rule="nonzero" fill="#fff"/></svg>