<svg width="154" height="60" viewBox="0 0 154 60" xmlns="http://www.w3.org/2000/svg"><title>datawheel-logo-white</title><desc>Created with Sketch.</desc><g fill="#fff"><g><path d="M1.945 29.446c0 4.308 1.558 8.251 4.14 11.3l-1.38 1.379c-2.932-3.404-4.706-7.835-4.706-12.68s1.773-9.276 4.706-12.68l1.38 1.38c-2.582 3.049-4.14 6.993-4.14 11.301z"/><path d="M19.454 11.945c4.31 0 8.255 1.557 11.306 4.138l1.38-1.379c-3.407-2.931-7.839-4.703-12.686-4.703-4.847 0-9.279 1.772-12.686 4.703l1.381 1.379c3.05-2.581 6.995-4.138 11.305-4.138"/><path d="M36.963 29.446c0 4.308-1.558 8.251-4.14 11.3l1.38 1.379c2.932-3.404 4.706-7.835 4.706-12.68s-1.773-9.276-4.706-12.68l-1.38 1.38c2.582 3.049 4.14 6.993 4.14 11.301"/><path d="M19.454 46.947c-4.31 0-8.255-1.557-11.305-4.138l-1.381 1.379c3.407 2.932 7.839 4.704 12.686 4.704 4.847 0 9.279-1.772 12.686-4.704l-1.38-1.379c-3.051 2.581-6.996 4.138-11.306 4.138"/><path d="M27.975 17.611l-.977 1.691c3.096 2.304 5.101 5.99 5.101 10.144s-2.005 7.841-5.101 10.144l.977 1.691c3.676-2.648 6.07-6.961 6.07-11.836 0-4.874-2.394-9.187-6.07-11.835"/><path d="M19.454 42.086c-6.49 0-11.835-4.888-12.559-11.182h-1.959c.732 7.369 6.952 13.125 14.518 13.125 2.138 0 4.165-.463 5.995-1.288l-.977-1.693c-1.539.666-3.235 1.037-5.017 1.037"/><path d="M19.454 16.806c1.783 0 3.479.371 5.017 1.036l.977-1.692c-1.829-.826-3.857-1.289-5.995-1.289-7.565 0-13.786 5.756-14.518 13.126h1.959c.724-6.293 6.069-11.181 12.559-11.181"/><path d="M11.723 30.328c-.43-3.773 1.916-7.221 5.416-8.307l-.224-1.961c-4.57 1.229-7.678 5.646-7.125 10.489.552 4.842 4.575 8.446 9.304 8.615l-.224-1.961c-3.654-.271-6.718-3.102-7.148-6.874"/><path d="M20.038 21.69c3.655.27 6.718 3.101 7.148 6.875.43 3.772-1.916 7.22-5.416 8.307l.224 1.96c4.57-1.229 7.678-5.645 7.125-10.488-.553-4.843-4.575-8.446-9.305-8.615l.224 1.961z"/></g><g><path d="M151.882 37.656h1.895v-16.495h-1.895z"/><path d="M147.808 31.146c-.195-1.867-1.715-3.234-3.734-3.234-2.388 0-3.54 1.693-3.734 3.234h7.468zm1.715 4.318c-1.52 1.693-3.127 2.453-5.102 2.453-4.018 0-6.167-2.908-6.167-5.925 0-3.211 2.301-5.903 5.841-5.903 3.495 0 5.928 2.67 5.928 6.663h-9.684c.303 1.931 1.867 3.343 4.06 3.343 1.389 0 2.627-.651 3.626-1.823l1.497 1.194z"/><path d="M134.131 31.146c-.196-1.867-1.715-3.234-3.734-3.234-2.389 0-3.54 1.693-3.735 3.234h7.47zm1.715 4.318c-1.52 1.693-3.128 2.453-5.103 2.453-4.017 0-6.167-2.908-6.167-5.925 0-3.211 2.301-5.903 5.841-5.903 3.496 0 5.928 2.67 5.928 6.663h-9.684c.304 1.931 1.867 3.343 4.061 3.343 1.389 0 2.627-.651 3.625-1.823l1.498 1.194z"/><path d="M120.643 31.08c0-1.693-.695-3.169-2.628-3.169-1.823 0-2.931 1.237-2.931 3.386v6.36h-1.954v-16.495h1.954v6.512h.043c.587-1.021 1.846-1.585 3.105-1.585 2.193 0 4.365 1.194 4.365 4.254v7.314h-1.954v-6.577z"/><path d="M109.137 26.348h2.085l-4.169 11.308h-1.606l-3.04-8.833h-.043l-3.04 8.833h-1.606l-4.169-11.308h2.084l2.844 8.183h.044l2.823-8.183h2.084l2.823 8.183h.043z"/><path d="M82.247 31.873c0 2.19 1.286 4.262 3.668 4.262 2.454 0 3.74-1.977 3.74-4.238 0-2.238-1.406-4.048-3.763-4.048-2.216 0-3.645 1.93-3.645 4.025zm9.219 5.784h-1.905v-1.617h-.049c-.977 1.238-2.286 1.856-3.86 1.856-3.287 0-5.36-2.786-5.36-5.881 0-3.191 2.025-5.929 5.384-5.929 1.526 0 2.906.714 3.836 1.905h.049v-1.642h1.905v11.308z"/><path d="M76.716 37.656h-1.895v-9.556h-1.99v-1.752h1.99v-5.187h1.895v5.187h1.99v1.752h-1.99z"/><path d="M61.461 31.873c0 2.19 1.287 4.262 3.668 4.262 2.454 0 3.741-1.977 3.741-4.238 0-2.238-1.406-4.048-3.763-4.048-2.216 0-3.646 1.93-3.646 4.025zm9.22 5.784h-1.906v-1.617h-.048c-.977 1.238-2.287 1.856-3.86 1.856-3.288 0-5.36-2.786-5.36-5.881 0-3.191 2.025-5.929 5.384-5.929 1.526 0 2.906.714 3.836 1.905h.048v-1.642h1.906v11.308z"/><path d="M49.729 35.703c3.692 0 6.253-2.821 6.253-6.468 0-3.516-2.823-6.121-6.427-6.121h-2.627v12.588h2.801zm-4.886-14.542h5.429c4.038 0 7.926 3.451 7.926 8.183 0 4.71-3.757 8.313-8.447 8.313h-4.907v-16.495z"/></g></g></svg>