<svg width="150" height="60" viewBox="0 0 150 60" xmlns="http://www.w3.org/2000/svg"><title>explora-logo-white</title><desc>Created with Sketch.</desc><g fill-rule="nonzero" fill="#fff"><path d="M52.041 27.81c0-.93-.23-1.55-.689-2.015-.383-.465-.918-.62-1.531-.62-.765 0-1.224.155-1.684.62-.43.579-.647 1.292-.612 2.015h4.515zm-4.592 1.86c0 .852.306 1.55.765 2.015.459.465 1.071.775 1.837.775.923-.005 1.795-.432 2.372-1.163l1.531 1.395c-.937 1.168-2.341 1.85-3.827 1.86-.612 0-1.148-.077-1.684-.232l-.765-.387c-.276-.149-.533-.331-.765-.543-.459-.387-.765-1.008-1.071-1.782-.383-.698-.536-1.628-.536-2.79 0-1.085.153-2.015.459-2.79.23-.775.612-1.317.995-1.783.431-.428.955-.747 1.531-.93 1.596-.561 3.368-.172 4.592 1.008.895.928 1.367 2.192 1.301 3.488v1.86h-6.735zm8.265-6.51h2.602l2.143 3.643 2.143-3.643h2.602l-3.673 5.503 3.827 5.735h-2.602l-2.296-3.72-2.296 3.72h-2.602l3.673-5.735-3.52-5.503zm15.765 9.145c.459 0 .918-.078 1.148-.31.306-.233.536-.465.689-.775l.23-1.162c.029-.852.029-1.705 0-2.558 0-.465-.077-.775-.23-1.162-.134-.331-.378-.605-.689-.775-.349-.204-.745-.31-1.148-.31-.536 0-.918.155-1.148.31-.306.232-.536.543-.689.852-.153.31-.23.775-.23 1.085-.079.825-.079 1.655 0 2.48 0 .465.077.775.23 1.162.297.751 1.04 1.221 1.837 1.163zm-4.286-9.145h2.143v1.162c.765-.775 1.607-1.24 2.755-1.317 1.301 0 2.296.542 2.908 1.55.306.31.459.775.612 1.318l.153 2.945c0 1.318 0 2.325-.153 2.867-.086.509-.297.989-.612 1.395-.306.465-.765.775-1.148 1.085-.536.233-1.071.387-1.76.387-.536 0-1.071-.155-1.531-.387-.383-.232-.842-.543-1.224-.93v5.735h-2.143v-15.81zm11.25-4.572h2.143v12.943c0 .543.306.775.765.775h.765v2.093h-.918c-.714.035-1.418-.184-1.99-.62-.536-.387-.765-1.085-.765-2.093v-13.097zm11.709 10.23l-.077-1.782c-.077-.387-.23-.697-.459-.93-.161-.273-.402-.49-.689-.62-.333-.164-.701-.244-1.071-.232-.345.001-.685.08-.995.232l-.765.62-.383.93-.077 1.782.077 1.705c.077.31.23.697.459.93.153.232.383.465.765.62.929.505 2.081.278 2.755-.543l.383-1.008.077-1.705zm-6.735 0c0-1.24.153-2.17.306-2.79.23-.62.459-1.162.918-1.55.306-.387.689-.775 1.224-1.007.536-.31 1.224-.465 1.99-.465.715-.01 1.423.149 2.066.465.473.246.89.589 1.224 1.007.459.388.765.93.918 1.55.153.62.23 1.55.23 2.79 0 1.163 0 2.015-.23 2.713-.181.583-.496 1.114-.918 1.55l-.536.543c-.78.631-1.757.961-2.755.93-.765 0-1.531-.155-1.99-.465-1.035-.513-1.812-1.44-2.143-2.557-.153-.698-.306-1.55-.306-2.713zm11.48-5.657h2.143v1.162c1.298-1.545 3.579-1.752 5.128-.465l-1.607 2.015c-.397-.374-.912-.594-1.454-.62-.536 0-.995.232-1.378.62-.459.31-.765.93-.765 1.782v6.743h-2.066v-11.238zm13.622 6.51h-2.602c-1.224 0-1.837.465-1.837 1.317 0 .387.153.775.459 1.008.306.31.842.465 1.531.465.918 0 1.531-.155 1.99-.387.306-.233.459-.775.459-1.55v-.852zm0 3.72c-.23.387-.536.697-.918.852-.554.243-1.158.349-1.76.31-1.014.048-2.005-.315-2.755-1.007-.692-.6-1.085-1.48-1.071-2.403 0-1.007.306-1.782.918-2.325.612-.697 1.531-1.007 2.602-1.007h3.061v-1.24c0-1.008-.765-1.473-2.296-1.395-.414-.016-.827.037-1.224.155-.327.136-.597.382-.765.697l-1.76-1.395c.882-1.119 2.268-1.704 3.673-1.55 1.378-.077 2.449.155 3.214.775.765.543 1.224 1.55 1.224 2.867v7.75h-2.143v-1.085zm3.827 2.635h10.638v1.163h-10.714l.077-1.163zm12.245-17.438h2.143v12.943c0 .543.306.775.842.775h.765v2.093h-.995c-.688.017-1.363-.201-1.913-.62-.536-.387-.765-1.085-.765-2.093l-.077-13.097zm11.25 11.083h-2.679c-1.301 0-1.913.465-1.913 1.317 0 .387.153.775.536 1.008.306.31.765.465 1.531.465.66.04 1.319-.093 1.913-.387.306-.233.536-.775.536-1.55l.077-.852zm0 3.72c-.306.387-.612.697-.995.852-.554.243-1.158.349-1.76.31-1.014.048-2.005-.315-2.755-1.007-.664-.614-1.028-1.493-.995-2.403 0-1.007.23-1.782.842-2.325.612-.697 1.531-1.007 2.602-1.007h3.061v-1.24c0-1.008-.765-1.473-2.296-1.395-.414-.016-.827.037-1.224.155-.327.136-.597.382-.765.697l-1.684-1.395c.765-1.085 1.99-1.627 3.597-1.55 1.378-.077 2.449.155 3.291.775.765.543 1.224 1.55 1.224 2.867v7.75h-2.143v-1.085zm9.49-8.138c-.536 0-.918.155-1.148.31-.306.232-.536.543-.689.852-.153.31-.23.775-.23 1.085-.085.824-.085 1.656 0 2.48 0 .465.077.775.23 1.162.297.751 1.04 1.221 1.837 1.163.459 0 .918-.078 1.224-.31l.612-.775.23-1.162c.029-.852.029-1.705 0-2.558 0-.465-.077-.775-.23-1.162-.115-.319-.33-.592-.612-.775-.372-.217-.796-.325-1.224-.31zm-4.286-6.665h2.143v5.813c.383-.388.765-.697 1.301-.93.468-.262.996-.396 1.531-.388 1.224 0 2.219.543 2.832 1.55.306.31.536.775.612 1.317l.153 2.945c0 1.317 0 2.247-.153 2.79-.06.564-.272 1.1-.612 1.55-.306.387-.689.775-1.148 1.008-1.553.846-3.48.456-4.592-.93v1.163h-2.066v-15.888zM33.75 14.48c-.383-.31-1.148-.31-1.531.078l-2.602 2.48c-.193.146-.306.376-.306.62s.113.474.306.62c0 0 4.056 3.023 4.056 9.455-.026 3.656-1.55 7.137-4.209 9.61-.459.387-.459.93 0 1.317l2.526 2.402c.459.387 1.148.465 1.531.078 0 0 6.122-4.185 6.122-13.408 0-9.145-5.893-13.252-5.893-13.252" id="Shape"/><path d="M18.597 21.61c-.765-1.705-2.449-3.022-5.051-3.022-2.15-.106-4.149 1.121-5.051 3.1-.439.974-.673 2.03-.689 3.1h11.48c-.016-1.07-.25-2.126-.689-3.1v-.078zm-9.949 8.137s-.765 0-.765.543c0 3.488 2.526 5.968 6.582 5.968 2.985 0 4.286-.698 6.122-2.093.383-.31.765-.62 1.148-.232l3.444 3.255c.383.387.23.775-.153 1.163-.459.387-5.204 4.107-10.714 4.107-7.041 0-13.929-3.1-13.929-14.957 0-9.61 5.357-14.957 13.163-14.957 8.418 0 13.24 5.967 13.24 13.95v2.093c0 .775-.765 1.162-1.224 1.162h-16.913z"/></g></svg>