<svg xmlns="http://www.w3.org/2000/svg" viewBox="0 0 730 319" enable-background="new 0 0 730 319"><style type="text/css">.st0{fill:#FFFFFF;} .st1{fill:none;stroke:#FFFFFF;stroke-width:3;stroke-miterlimit:10;} .st2{fill:#FFFFFF;}</style><path class="st0" d="M245.3 64.9h4.5v4h-4.5v-4zm.1 23.4v-13.5l-1.9-.4v-2.8h6.3v16.6h-4.4zM306.4 305.6h-159.4v-292.2h159.4v292.2zm-162.4 0h-130.2v-292.2h130.2v292.2zm-133.3 3.1h298.7v-298.3h-298.7v298.3zM179.8 56.3c-3.1 1.5-5.5 2.3-8.8 2.3-6.8 0-10.2-5.3-10.2-12 0-6.4 3.4-11.6 10.6-11.6 3.5 0 5.7.9 7.5 2.1-.6 1.1-1.2 2.2-1.9 3.4-1.2-.9-3.1-1.5-5.5-1.5-4.1 0-6.1 3.1-6.1 7.6 0 5.1 2.1 8.4 6 8.4 2.3 0 3.8-.7 4.3-1v-4.1h-3.4v-3.2h7.4v9.6zM193.7 50c0-4-1.2-5.4-3.2-5.4-2.1 0-3.2 1.4-3.2 5.4 0 3.8 1 5.4 3.2 5.4 2.1 0 3.2-1.5 3.2-5.4m4.6 0c0 5.6-2.8 8.6-7.8 8.6s-7.7-3-7.7-8.6c0-4.9 2.7-8.6 7.7-8.6s7.8 3.7 7.8 8.6"/><path class="st0" d="M206 53.7c.7.9 1.8 1.7 3 1.7 1.9 0 3.3-1.4 3.3-5.4 0-3.9-1.2-5.3-3.3-5.3-1.1 0-2.3.6-3.1 1.3v7.7zm-.3-10.2c.7-1 2.5-2 4.4-2 3.9 0 6.7 2.8 6.7 8.6 0 5.7-3.4 8.6-7.2 8.6-2.4 0-3.7-.9-4.8-2.3l-.8 2h-2.4v-23.4h4.4v5.8l-.3 2.7zM221.3 35h4.4v4h-4.4v-4zm.1 23.3v-13.3l-1.9-.4v-2.9h6.3v16.5h-4.4zM236.7 44.7c-2.2 0-3.1 2-3.1 3.9h6c.1-2.1-.6-3.9-2.9-3.9m-3 6.5c0 2.6 1.5 4.1 4.2 4.1 1.7 0 3.4-.7 4.8-1.4l.8 3.1c-1.4.7-3.6 1.6-6.2 1.6-5.2 0-8.2-3.2-8.2-8.6 0-5.1 2.4-8.6 7.7-8.6 5 0 7 3.7 7 7.8v1.9h-10.1zM256.8 45.4c-.5-.2-1.3-.3-2.1-.3-1.2 0-2.2.5-3 1.1v12h-4.4v-16.4h3.1c.2.8.3 1.5.5 2.2h.1c.5-1.2 2-2.5 3.9-2.5.9 0 1.5.1 1.9.2.1 1.3.1 2.5 0 3.7"/><path class="st0" d="M269.7 58.3v-9.8c0-2.5-.9-3.7-3-3.7-1.1 0-2.1.5-2.9 1v12.5h-4.4v-16.5h3l.7 1.9c.9-1.1 2.8-2.2 5.2-2.2 4.2 0 5.8 2.5 5.8 6.6v10.2h-4.4zM288.1 50c0-4-1.2-5.4-3.2-5.4-2.1 0-3.2 1.4-3.2 5.4 0 3.8 1 5.4 3.2 5.4 2.1 0 3.2-1.5 3.2-5.4m4.6 0c0 5.6-2.8 8.6-7.8 8.6s-7.7-3-7.7-8.6c0-4.9 2.7-8.6 7.7-8.6s7.8 3.7 7.8 8.6M171.6 75.7c-.6-.5-1.7-1-3-1-2.1 0-3.4 1.4-3.4 5.3s1.2 5.4 3.3 5.4c1.1 0 2.2-.5 3.1-1.4v-8.3zm.4-2.7c0-.3-.4-1.6-.4-3v-5h4.4v23.3h-3.6l-.5-1.8c-.7 1-2.3 2.2-4.4 2.2-3.7 0-6.7-2.7-6.7-8.6 0-5.5 3.1-8.6 7.1-8.6 1.8-.1 3.2.5 4.1 1.5"/><path class="st0" d="M186.8 74.6c-2.2 0-3.1 2-3.1 3.9h6c.1-2.1-.6-3.9-2.9-3.9m-3.1 6.5c0 2.6 1.5 4.1 4.2 4.1 1.7 0 3.4-.7 4.8-1.4l.8 3.1c-1.4.7-3.6 1.7-6.2 1.7-5.2 0-8.2-3.2-8.2-8.6 0-5.1 2.4-8.6 7.7-8.6 5 0 7 3.7 7 7.9v1.9h-10.1zM214.6 88.6c-6.4 0-10.1-4.3-10.1-11.9 0-7 3.9-11.7 10.2-11.7 3.1 0 5.6.7 7.5 2l-1.6 3.5c-1.2-.9-3.3-1.6-5.6-1.6-3.9 0-5.8 2.8-5.8 7.8 0 5.3 2 8.1 5.7 8.1 2.5 0 4.5-.8 6-2l1.4 3.4c-2.2 1.5-4.6 2.4-7.7 2.4"/><path class="st0" d="M225.3 88.2v-23.2h4.4v6.1c0 1.1-.4 2.3-.4 2.6.9-1.1 2.3-2.3 4.7-2.3 4.8 0 6.1 2.5 6.1 6.6v10.2h-4.5v-9.8c0-.4-.1-.8-.2-1-.1-1.8-1.1-2.7-2.7-2.7-1.1 0-2.1.5-2.9 1v12.5h-4.5zM253.4 83.8v-18.8h4.3v16.5c0 1.1.2 2.1.6 2.8.2.8.8.8 2.1.9v3.1s-1.2.3-2.4.3c-3.3 0-4.6-1.8-4.6-4.8"/><path class="st0" d="M270.3 74.6c-2.2 0-3.1 2-3.1 3.9h6c.1-2.1-.6-3.9-2.9-3.9m-3 6.5c0 2.6 1.5 4.1 4.2 4.1 1.7 0 3.4-.7 4.8-1.4l.8 3.1c-1.4.7-3.6 1.7-6.2 1.7-5.2 0-8.2-3.2-8.2-8.6 0-5.1 2.4-8.6 7.7-8.6 5 0 7 3.7 7 7.9v1.9h-10.1zM90.4 68.5v4.7c.8-2 .4-3.7 0-4.7M100.2 41.1c-.2.4-.8.4-.9.9-.5-.4.4-1.4.9-.9m3.1-.2c.4-.3.8-1.2 1.5-.7.3.2.6.5 1 .8.4.3.8.5.9.8.2.4-.3 1.4-.9.5-.4-.6-1-1.8-1.9-1.3-.7.4-1.2.9-1.4.4 0-.3.6-.3.8-.5m.1.8c.3-.3.4 1.1 1.5.7-.8 1-1.9 0-1.5-.7m-3.9 1.5c.1 0-.1-.7.5-.7.5 0 1.4.4 1.5 1 .1.6-.4 2 1.5 2.2v.6c0 .3-.1.7-.3 1h.3c2.5.1 4-.1 4.7-.8 0 0 .4-.5.6-.9.6-1.3.7-2.5.4-3.5l-.1-.2c0-.1-.1-.2-.2-.3-.6-1-2-2.3-3.9-2.9h-.4.1.4c1.4.2 3.6 1.5 4.1 2.9.4-.3.8-1 .9-1.7 0-.1 0-.9.3-1.7.1-.2 0-.5-.2-.6-.2-.1-.4 0-.5.2-.3.7-1.1.3-.8-.4.1-.2 0-.5-.2-.6-.2-.1-.4 0-.5.2-.3.7-1.1.3-.8-.4.1-.2 0-.5-.2-.6-.2-.1-.4 0-.6.2-.3.7-1.1.3-.8-.4.1-.2 0-.5-.2-.6-.2-.1-.4 0-.5.2-.2.5-.4.8-.7 1.1 1.5.3 3.1 1.1 4.1 2.2l.5.6v.2c-.2-.2-.3-.4-.5-.5-1.7-1.4-3.2-2-4.4-2.2-.8.1-.6 1-.5 1.6-1.4-.3-2.4.7-2.5 1.7 0 .4.1.7.3 1.1v.1s-.3-.1-.4-.4l-.2-.7c-1.1.1-2.1.7-2.1 1.7.3.6 1 1.3 1.3 1.3M130.1 90.6c-.8-.9-2.8-.5-2.8-.5 1.1-3.3-1.9-4.2-1.9-4.2-1.1-.3-1.8-.1-2.3.2l-.2.2c-.3.3-.4.7-.4 1.1 0 .9.7 1.6 1.6 1.6.3 0 .6-.1.9-.3.3-.2.5-.6.6-.9.4.3.6.7.6.7.9 2.8-2.3 3.8-2.3 3.8-6.9 2.1-11.2-1.5-11.2-1.5l1.2-.7c.4-.2.8-.2 1.1-.2v.2c0 .8.6 1.4 1.4 1.4.8 0 1.4-.6 1.4-1.4 0-.3-.1-.5-.2-.7l-.1-.1c-.8-1.2-3.6-.4-3.6-.4.9-2.3.1-4 .1-4-.5-.8-.4-1.2-.4-1.2 0-.8-.2-.9-.2-.9-.4-.6-1.2-.3-1.2-.3-1.1.2-1.4-.2-1.4-.2-.9-.7-1.3-.3-1.3-.3-.4.3.2 1 .2 1-1 0-1.3 1.3-1.3 1.3-.4 2.1 1.3 2.3 1.3 2.3 1.3.1 1.3-1 1.3-1 .2-1-1.2-1-1.2-1 .2-.6.7-.6.7-.6 1.5-.4 2.1 1.3 2.1 1.3 1.2 1.8-.3 3.6-.3 3.6-.2.3-.5.1-.5.1-.8-.3-2-1.2-2-1.2l-.1-.1h-.5c-.5 0-1.1.2-1.5.3.6.6 2.4 2.1 2.4 2.1-1.4 1.1-2.2.3-2.2.3-.7-.7-.5-1.9-.4-2.4l-.1.1-1.9.8c.7 1.1 1.7 2.8 1.7 2.8-1.6.6-1.9-1.5-2-2.7-.3.1-.6.2-.9.4-.3.4-.3.6-.3.6.1 1.2 1.2 2.6 1.2 2.6-1.1-.2-1.8.5-1.8.5-.7.6-.7 1.4-.7 1.8 0 .4.4.8.8.8s.8-.4.8-.8-.3-.8-.8-.8c.4-.9 1.2-.2 1.2-.2 1.2 1.1-.7 2.3-.7 2.3-1.4.9-2.7-.8-2.7-.8 1.4-2.6 1.7-4.4 1.7-5.5l-1.5.5c.7 2.3-.9 3.6-.9 3.6-.5-.3-.5-1.6-.5-1.6-.1-.5-.3-1-.5-1.5l-1.3.3c.5 1.4.7 3.6.7 3.6-.3.3-1 .4-1 .4-1.1.1-.5-.5-.5-.5.6-.5.4-.8.4-.8-.3-.8-1.6-.1-1.6-.1-1.6.9-1.2 1.9-1.2 1.9.2.6 1.9 1.2 1.9 1.2-.9.7-2.6.4-2.8.4 0-.5-.4-.9-.9-1h-.1c-.6-.1-.9.2-1.1.4-.1.1-.1.2-.2.4l-1-.2c-.7-.1-1.1-2.1-1.3-3.9h-.9c.3 1.9.6 3.6.6 3.6-.4 0-1.8-1-1.8-1-1.9-1.1-3.1-.8-3.2-.8-.9.2-1.6 1-1.6 2 0 1.1.9 2 2 2s2-.9 2-1.9c.7.3 1.4.7 1.4.7 1.8 1.2 3.5 1.3 3.9 1.3.1.7.7 1.2 1.4 1.2.5 0 1-.3 1.3-.8 3.8-.1 5.2-1.8 5.2-1.8.4-.5.5-.2.5-.2 1.4 2 4.1.8 4.1.8.5-.3.6.1.6.1.5.9 1.4.4 1.4.4 1.1-.6.4-1.2.4-1.2-.3-.4.1-.4.1-.4 1.3.2 1.5-.5 1.5-.5.3-.6-.7-1.1-.7-1.1-.3-.3.2-.6.2-.6.8-.4.6-.9.6-.9.9 0 .9-.4.9-.4 0-.4-1.2-.4-1.2-.4-.9-.1-.7-.6-.7-.6 1.4-.1 3.5-.7 3.5-.7 3.1 2.5 7.7 3.1 7.7 3.1.1.5-.1 1.1-.1 1.2h-.1c-.4 0-.7.3-.7.7 0 .4.3.7.7.7h.2c1.5-.4 1.6-2.5 1.6-2.5 4.2.4 7-2.7 7-2.7.4-.4.6-.2.7-.1.2.3.5.4.9.4s.8-.2 1-.5c.1-.3.2-.5.2-.7.1-.5-.1-.8-.1-.8M79.8 96c.4-.2.5-.7.5-.7.1-1.1-.8-1.7-.8-1.7h-3s-.8.5-.8 1.7c0 0 .1.5.5.7 0 0-1.1.4-1.1 1.2 0 0-.1.5.8 1.3 0 0 .7.8.9 1.3 0 0 .1.8 1.2.8l1.2-.8c.2-.6.9-1.3.9-1.3.9-.8.8-1.3.8-1.3 0-.8-1.1-1.2-1.1-1.2"/><path class="st0" d="M87.6 91.3h.6l-.4-.7zM69.2 91.4h.5l-.2-.7zM67 89.9l-.2.8h.4l.2-.1c0-.1.1-.1.1-.3 0-.2 0-.3-.1-.3-.1-.1-.2-.1-.4-.1M75 90.5c-.2 0-.3.1-.4.2-.1.1-.2.4-.2.7 0 .4 0 .6.1.8.1.2.2.2.4.2s.3-.1.4-.2c.1-.1.2-.4.2-.7 0-.3 0-.6-.1-.7-.1-.2-.2-.3-.4-.3M81.9 90.5c-.2 0-.3.1-.4.2-.1.1-.1.4-.1.7 0 .3.1.6.2.7.1.1.2.2.4.2s.3-.1.4-.2c.1-.1.1-.4.1-.7 0-.3-.1-.6-.2-.7-.1-.1-.2-.2-.4-.2"/><path class="st0" d="M63 90.5l.5.1-.1-.7zM52.5 86.3l-.3.8h.1c.2.1.3.1.4 0 .1-.1.1-.1.2-.3v-.3l-.1-.2c-.1.1-.2 0-.3 0M55.1 87.2c-.2-.1-.3 0-.5.1-.1.1-.2.3-.3.6-.1.3-.1.6-.1.8 0 .2.2.3.3.3.2.1.3 0 .5-.1.1-.1.3-.3.4-.7.1-.3.1-.5.1-.7-.1-.1-.2-.2-.4-.3M57.7 88l-.3.8c.2.1.3.1.4.1l.2-.1.1-.2v-.3c-.1-.2-.2-.3-.4-.3M99 88h-.5l.2.8c.2 0 .3-.1.4-.1l.1-.2v-.3c0-.1-.1-.2-.2-.2"/><path class="st0" d="M103.6 87.7l.5-.1-.5-.6zM104.4 88.3l-.1-.2.2-.1v-.1l-.1-.1-.1-.1-.6.2v.30000000000000004l.1.1h.2l.1.2-.7.3-.1-.2c.1-.1.2-.2.2-.5v-1.9l.2-.1 1.3 1.4c.1.1.2.2.3.2h.2l.1.2-1.2.4zm-3.4 1.2v-.1l.6-2.2-.4.1c-.2.1-.4.1-.4.2-.1.1-.1.2-.1.4l-.2.1-.2-.6 1.8-.6v.1l-.6 2.2.5-.2.3-.1.1-.2v-.3l.2-.1.2.6-1.8.7zm-1.1.3l-.5-.5c-.1-.1-.2-.2-.3-.2l-.1-.1h-.2l.1.5.1.2h.2l.1.2-1.2.3v-.2l.2-.1v-.2l-.3-1.2-.1-.2h-.2v-.2l.9-.2.2-.1c.2 0 .3-.1.4-.1h.3l.3.1.1.2c.1.3 0 .5-.3.7.1 0 .3.2.5.4s.3.3.4.3h.2v.2l-.8.2zm-4.2 1v-.2l.2-.1v-.2l-.3-1.3-.1-.2h-.2v-.2l1.9-.4.2.6h-.2l-.2-.2-.2-.1h-.2l-.4.1.2.8h.2l.2-.1v-.3h.2l.2.7h-.2l-.1-.2s-.1-.1-.2 0h-.2l.1.5.1.2.1.1h.3l.3-.1.1-.2v-.3h.2l.1.7-2.1.4zm-1-1.5l.1.7v.4c0 .1 0 .2-.1.3-.1.1-.1.2-.3.3l-.4.2h-.5l-.4-.1-.2-.3-.1-.3-.2-.9-.1-.2h-.2v-.2l1.2-.2v.2l-.2.1v.2l.2.9c0 .2.1.3.1.4l.2.2c.1.1.2.1.3 0 .1 0 .2-.1.3-.2l.1-.3v-.4l-.1-.7c0-.2-.2-.3-.4-.3v-.2l.8-.2v.30000000000000004l-.1.1v.2zm-2.6.6l-.1-.3-.2-.1h-.2l-.4.1.1.8h.2l.2-.1v-.2h.2l.1.8h-.2c0-.1-.1-.2-.1-.2h-.4l.1.6.1.2h.2v.2l-1.2.2v-.2l.2-.1v-.2l-.2-1.3-.1-.2h-.2v-.2l1.9-.3.1.6-.1-.1zm-3.9 2.2v-.2l.2-.1v-.30000000000000004l-.1-.2-.7.1v.30000000000000004l.1.1h.2v.2l-.7.1v-.2c.1 0 .2-.1.3-.4l.5-1.8h.2l.9 1.7c.1.2.2.3.2.3h.2v.2l-1.3.2zm-3.4.3v-.2c.1 0 .2 0 .2-.1v-.2l-.1-1.3-.1-.2h-.2v-.2l1.2-.1v.2c-.1 0-.2 0-.2.1v.2l.1 1.3v.2l.1.1h.3c.2 0 .3-.1.4-.2.1-.1.1-.2.2-.4h.2l.1.7-2.2.1zm-1.9-.2c-.2.2-.5.4-.9.4-.3 0-.5 0-.7-.1-.2-.1-.4-.3-.5-.4l-.2-.6c0-.2 0-.4.1-.6.1-.2.3-.3.4-.4.2-.1.4-.2.6-.2.4 0 .7.1.9.3.2.2.4.5.4.8.2.3.1.6-.1.8m-3.8-1.6h-.2l-.1.1v1.9h-.2l-1.4-1.6v1c0 .2 0 .3.1.3l.2.1v.2h-.8v-.2h.2l.1-.1v-1.3c0-.2-.1-.3-.3-.3v-.2h.8l1.2 1.4v-.8c0-.2-.1-.4-.3-.4v-.2h.8v.1zm-3.3 1.7c-.2.2-.5.3-.9.3-.3 0-.5-.1-.7-.2-.2-.1-.3-.3-.4-.5-.1-.2-.1-.4-.1-.6 0-.2.1-.4.2-.6.1-.2.3-.3.5-.4.2-.1.4-.1.6-.1.4 0 .7.1.9.4.2.2.3.5.3.9 0 .3-.1.6-.4.8m-2.6-1.9l-1.4 1.8h.8l.2-.1.2-.3h.2l-.2.7-2-.1v-.1l1.4-1.8h-.9c-.1 0-.1.1-.2.3h-.2l.1-.6 1.9.1.1.1zm-2.5 1.9l-1.1-.1v-.2h.2v-.4l-.7-.1-.1.2v.2h.2v.2l-.7-.1v-.2c.1 0 .3-.1.4-.3l.9-1.7h.2l.5 1.8c0 .2.1.3.2.3l.2.1-.2.3zm-2.4-.2l-.7-.1c-.1-.1-.1-.3-.3-.6-.1-.2-.1-.3-.1-.3l-.2-.2s-.1 0-.2-.1l-.1.5v.2l.2.1v.2l-1.2-.2v-.2h.2l.1-.2.2-1.3v-.2l-.2-.1v-.2l.9.1h.2c.2 0 .3.1.4.1l.3.1.2.2v.3c0 .3-.2.4-.5.5.1.1.2.2.3.5l.2.4.2.1.1.4zm-3.8-.6l-1.1-.2v-.2h.2v-.4l-.7-.1-.1.1-.1.2v.1l.2.1v.2l-.7-.1v-.2c.1 0 .3-.1.4-.3l1-1.6h.2l.4 1.8c0 .2.1.3.1.3l.2.1v.2zm-2.5-.4l-2-.4v-.2h.2l.1-.2.3-1.3v-.2l-.2-.1v-.2l1.2.3v.2h-.2l-.1.2-.3 1.2v.2l.1.1s.1.1.2.1c.2 0 .3 0 .5-.1.1-.1.2-.2.3-.4h.2l-.3.8zm-3.7-1.5c.1.2.1.4.2.4l.2.1v.2l-.7-.2-.2-.7c0-.2-.1-.3-.1-.3l-.2-.1s-.1-.1-.2-.1l-.1.5v.2l.2.1v.2l-1.2-.3v-.2h.2l.1-.2.5-1.2v-.2l-.2-.1v-.2l.9.2h.2c.2.1.3.1.4.1l.2.2.2.3v.3c-.1.3-.3.4-.6.4 0 .1.1.3.2.6m-2.3-1.1c-.1.3-.3.5-.6.7-.3.1-.6.2-1 0-.3-.1-.5-.2-.6-.4-.2-.2-.3-.4-.3-.6v-.6c.1-.2.2-.4.3-.5l.6-.3c.2 0 .4 0 .6.1.4.1.6.3.8.6.3.4.3.7.2 1m-2.6-1.4c-.1.1-.1.2-.3.3-.1.1-.3.1-.4.1-.1 0-.3-.1-.5-.1l-.2-.1-.2.5v.2l.2.1-.1.2-1.1-.4.1-.2h.2l.1-.2.5-1.3v-.2h-.1l.1-.2.9.3c.2.1.4.1.5.2.1 0 .2.1.3.2l.1.3-.1.3zm21.5 2.5h.7l-.8.5h-.1l.2-.5zm30.8-4.7c-.2-.2-.5-.2-.8-.2-.3 0-.5.1-.5.1-1 .3-10.6 4.5-26.4 4.5-15.8 0-25.3-4.2-26.4-4.5 0 0-.2-.1-.5-.1s-.6.1-.8.2l-3.2 2.5c.9 0 2 .5 2 .5 8.4 3.7 18.1 5.2 28.8 5.3 10.8-.1 20.4-1.6 28.8-5.3 0 0 1.1-.5 2-.5l-3-2.5zM68 53.5c-.5-.3-1-.5-1.3-.8-.3.2-.7.5-1.2.8h2.5zM73.7 53c-.2.1-.7.3-1 .5l-.1.1h10.2l-.1-.1-1-.5h-.3c-.5-.2-.9-.3-1.3-.4h-5l-1.3.4h-.1zM89 52.8c-.2.2-.6.5-1.1.7h2.1l-1-.7zM65.4 73.1v-5.3c-.4 1.1-1.1 3.2 0 5.3"/><path class="st0" d="M77.6 64.3l-9.7-3.1h7.6zM77.6 54.2h-13c0 .1.1.3.1.3.1.1.3.3.5.7h12l.4-1zM77.1 56h-11.4l.6 1h10.5l.3-1zM76.5 57.7h-10l.4 1h9.3l.3-1zM76 59.4h-8.9l.2 1h8.4l.3-1zM70.3 62.9h-3.1c0 .3-.1.7-.2 1h4.7l-1.4-1zM69.4 62.2l-1.5-1h-.6v1.1h2.1zM77.7 54.2v-.1.1 1 .8 1 .7 1 .7 1 3.8l9.7-3.1h-7.6l-.2-.7h8.6c0-.4.1-.7.2-1h-9.1l-.3-.7h9.5c.1-.4.2-.7.4-1h-10.2l-.2-.7h10.7c.2-.4.4-.7.6-1h-11.6l-.2-.7h12.3c.3-.5.6-.8.7-.9l.1-.1h-13.4zM80 69.9v7.8c.3-.2.7-.4 1-.5v-6.5l-1-.8zM78.2 68.5v11.3c.2-.3.3-.5.4-.6l.1-.1c.2-.3.4-.6.6-.8v-9l-1.1-.8zM76.5 69v9c.3.3.6.6.8 1l.1.1.1.2v-11.1l-1 .8zM74.7 70.3v6.7c.4.1.7.3 1 .5v-8.1l-1 .9zM81.7 76.9c.4-.1.7-.2 1-.2v-4.7l-1-.8v5.7zM73 76.6c.3 0 .7.1 1 .2v-6l-1 .8v5zM72.3 65.7h.7v3.1l-.7 2v-5.1zm5.3-1.4l-3.6 1.3-1.3-1h-5.9c-.1.3-.2.7-.4 1-.1.3-.2.5-.4.8v7.7c.2.3.6.6 1 1v-9.5h.7v9.9l1 .5v-10.3h.7v10.6l1 .2v-10.8h.7v10.8h1v-4.4l-.6.5 6.1-8.3zM83.4 72.2l-.7-2v-4.5h.7v6.5zm5.5-6.5c-.2-.4-.3-.7-.4-1h-6l-1.3 1-2.6-1-1-.4 5.8 8.2v4.1h1v-10.9h.7v10.8c.4 0 .7-.1 1-.2v-10.6h.7v10.4c.4-.1.7-.3 1-.4v-10h.7v9.6c.4-.3.7-.5 1-.8l.1-.1v-7.1c-.2-.6-.5-1.1-.7-1.6"/><path class="st0" d="M83.5 64h4.8c-.1-.4-.2-.7-.2-1h-3.1l-1.5 1zM87.3 61.2l-1.5 1h2.2v-1h-.7zM92.6 36.5c-.1-.2 0-.4 0-.5 0-.4 0-.8-.1-1.3-.5-2.1-2.2-2.9-3.5-1.6 0 0 1.4-2.5 4.4-1.6.7.2 1.3.9 1.7 1.8.4.8.2 1.7 0 2.1.1-.5 0-1.3-.3-1.9-.2-.4-.5-.9-1-1.1.3.5.5.8.7 1.1.2.4.2.7.2.9 0 1-.4 2-.9 2.4h-.1c.5-1.2.5-2.2.1-3.1l-.1-.3c-.4-.6-1-1.4-1.9-1.4.4.3.8.8 1.1 1.3.5 1.3.4 2.6-.3 3.2m-11.1-10.8c-.1-.1 1.9.4 2.3 2.1.1 1.1-.5 1.4-.7 1.4v-.1c.3-.7.2-1.9-.4-2.5-.4-.5-1.1-.8-1.2-.9m-1.2 18.9c-.4-.7.7-1.6.9-2.3 1.4-.2-.3 2.1-.9 2.3m.3 1.9c-.3-.1-.3-.7-.3-1 .1-.7.9-1 1.3-1.4.1.1 0 1.2-1 2.4m.2-8c.9.4-.5 2.3-.6 2.7.2-.1 1-.9 1.3-.7.5.4-1 2.4-1.4 2.5-2.1-2.8.6-3.6.7-4.5m-1.6 8.8c-.3-.1-.1-.7-.1-1 0-1.5 0-2.9-.4-4.2-.2-.6-.7-2.6-2-5.1.5.6 2.5 3.7 2.8 6 .1 1.5.4 3.2-.3 4.3m-1.2-.8c-1 0-1.1-.7-1.3-1.4.4.4 1 .8 1 0-.4-.3-2.6-.9-2-1.9.4-.5 1.6 1.6 1.9.9.2-1.4-4.3-1.9-4.2-3.1 0-.7 3.5 1.7 4 1.7 0-.8-5.2-2.9-6.8-5.7-.1-.2-.2-.4-.1-.4h.1c1 1.5 3.5 3.6 6.7 4.5 1.1.2 1.6 3.6.7 5.4m-11.1-7.2c.5-1.4.8-3.5-1.4-4-1.7-.4-3.2.8-4 1.6.5-1.6 2.2-2.7 4.5-2.2-.5-1.3-2.2-1.9-4.1-.8-.5.3-.8.6-1.1.8.3-1 1.2-1.7 2.1-2.1 1.5-.5 3 0 3.8.8 2.2 2.4.9 5.7.2 5.9m-4.3 1.2c1.2-.3 2.2-.9 1.9-2.1-.1-.3-.4-.6-.8-.6-.7-.1-1.1.4-1.5.9.1-1.1.7-1.7 1.8-1.6.6.1 1.3.6 1.4 1.2.4 1.6-1.1 2.3-2.8 2.2m30.5.1h.8c3.2-.8 3.4-4.8 2.8-5.1l-.3.7c-.2.4-.5.7-.5.6v-.1c.7-1.2.7-2.2.3-3.4-.3-.7-.6-1.3-1.3-1.7-1.6-1.1-4.9-1.3-6.7 0-.6-.6-1.4-1.1-2.3-1.4-.2 1-1.3 2.3-2.3 3-.2.1-.7.5-1 .5 0 0-.2 0 0-.2 1.7-1.1 2.6-2.4 2.6-4 0-.8-.3-2.4-1.3-3.5-1.6-1.7-5.8-2-7.8-.3-.5.5-.8 1.2-1 2 .2-.6.7-1.2 1.6-1.5.9-.3 2.5-.1 2.8.9-1.5-1.5-4.1-.4-4.5 2.2 0 .2-.1.2-.1.2-.1 0-.2 0-.1-1.2 0-.7.3-1.6.6-2.3-3.3-.6-7.2 1-7.1 5.9.1.7.3 1.3.9 2 .1.1 0 .2 0 .2-.1 0-.5-.2-.7-.6-.3-.4-.6-1-.8-1.6-2.1-.7-3.3-.8-4.5-.6-1.2.1-2.8 1.2-3.3 1.9-.3.3-.5.8-.7 1.2-.4.8-.7 1.8-.6 2.9.2 1.9 1.1 3.5 2.5 4.3 1.9 1 4.3.9 5.2.8.5-.1 1-.3 1.5-.6l.2-.1.1-.1c.8-.7 1.2-1.7 1.2-3l.1-.1c.1 0 .2.4.2.8 0 .5-.1 1.1-.3 1.6v.3c0 .2.1.4.2.5.4.4 1.3.5 2 .3h.1c0 .1-.5.6-1.3.6-.2 0-.4 0-.5-.1.5.8 1.8 1.4 3.2 1.3l.1.1c0 .1-.3.2-.8.2-.6 0-1.4-.2-2-.5.7.8 1.8 1.5 3.8 1.8.1.2-1.5 0-1.9-.1.9 3.5 2.8 3.1 2.8 3.4-.6.2-.9.9-.6 1.6 2-.7 3.5-.8 4-.8.4 0 2 .1 4.1.8.2-.3.2-.6.1-.9-.3-.9-3-1.6-5.6-.8-.1 0-.2.1-.3.2v-.1l.3-.2c1.1-.6 3.4-.8 4.7-.2 1.1.5 2.1-.9 1.7-1.5.8.1 1.4-.4 1.5-1.2-.2.1-.3.2-.4.2-.3.1-.6.2-.6.1l.3-.2c1.5-.9 2.2-2.5 2.1-3.1-.1.3-.6.6-1 .6-.2 0-.4 0-.4-.1.2 0 .3-.1.5-.2.5-.4 1-1.1 1.2-1.6-.9-.9-1.2-1.9-1.8-3.3-.2-.5-.6-1-1.3-1.1h-.5c.7-.6 1.5 0 2 .3.1-1.3.5-1.6.6-1.6v.1c-.9 2.7.9 5.2 2.3 6.1 1.9 1 5.3 1.2 7.5-.8-.4.1-.8.2-1.2.2-.9-.3-1.2-.4-1.1-.6zM120.2 77.9c-.2 1-.6 3.4-.7 3.2 2-18.4.9-23 .6-22.9-.3.1-.6 2.3-1.6 1.6-1-.6 2.3-4.7 1-6.9-.3-.4-.6.5-1.1.4-1.4-.4.7-3.9.3-4.3-.3-.3-1.3-.5-1.3-1.8 0-.6.4-1.1-.1-1.6-.4-.4-.3.3-.7.2-.6-.7-.1-1.4-.4-1.9-.2-.1-.6.4-1 .1-.4-.3.2-.9-.3-1.1-.6.1-1.5.7-1.3 1.7.1.5.7.8.7 1.4 0 .5-.6 1.1-.8 1.3-.9 2 .6 2.4.4 3.1-.1.3-.7.5-1.1.4-.5-.2-.7-2-.5-2.7.2-.8 1.4-1.8 1.3-2.3 0-.5-.6-1.1-.6-1.8-.1-1.1.7-2.1 1.8-1.9.7.1 1.2.7 1.6 1.2l.5.5c1.2 1.5 2.2 4.2 2.8 6.4 1.8 6.5 2.6 16.6.5 27.7m-9.1-26.1c-.3.3-1 .6-1.5.8-1 .2-1.8-.1-2.2-.7.7-.2 1.3.3 2.3.1.3 0 .6-.1.9-.2.3-.1.5-.4.8-.4.1.1-.2.3-.3.4m-10.2 30.4v.1c-.5 0-1.6-.8-1.7-.8-.2-.1-.6-.4-1.1-.2-.4.2-.7.7-.9.9v-.7999999999999999l.1-.2.1-.1.1-.1.1-.1h.1c.2-.1.5-.2.9-.2s.9.2 1.2.5c.4.3 1.1.4 1.6.5-.1 0-.4.3-.5.5m-41.9-2.4v.1h-.1c-.1 0-.2.1-.4.1-.3 0-.5 0-.7-.1 0 .2.1.3.2.4l.2.1.3.2c0 .3-.4.4-.6.4-.4 0-.7-.5-.9-.8l-.1-.1-.1-.1c-.4-.2-1-.3-1.5-.3.1-1 2.9-.3 2.9-.3.3.2.6.2.8.4zm43-6.9c-2.3.2-3.9-2-3.7-1.9.1 0 .8.8 1.6 1.1 1.1.4 2.6.2 3.3-.4h.2c.1.1 0 .9-1.4 1.2m-8.3-1.6l-.1.1-.1.1-.1.1h-.6l-.1-.1h-.1l-.2-.1-.1-.1s-.3-.5.2-.6l.2.2.1.1h.2l.1-.1v-.7c.1-.8 0-1.9.2-2.2l.1-.1h.2v2.1c.5.4.4.9.1 1.3m-3.1 2.7c-.2.3-1.9 2.9-6.3 2.9-.4 0-4 .1-5.2 2.3l-.1.2c-.1.3-.6 1-.8 1.4l-.2.1-.2-.1c-.2-.4-.7-1.1-.8-1.4l-.1-.1c-1.2-2.3-4.8-2.3-5.2-2.3-4.5 0-6.2-2.6-6.3-2.9-2.2-3.3-.1-6.9-.1-7 1.8-3.2 1.6-5.3 1.6-5.7 0-3.5-2.2-6.1-2.4-6.4-.2-.3-.3-.5-.3-.7 0-.3.3-.5.4-.5.5-.3 1.6-1 2-1.3l.2-.1.2-.1c.1 0 .3.1.5.2.4.3 1.2 1 2.6 1 .2 0 .5 0 .8-.1.7-.1 1.9-.7 2-.7l1-.5h.1c2-.8 3.6-.9 4.1-.9.5 0 2.1.1 4.1.9h.1c.2.1.7.3 1.1.5 0 0 1.2.6 2 .7l.8.1c1.4 0 2.2-.6 2.6-1 .2-.2.3-.2.5-.2l.2.1s.1 0 .2.1c.5.3 1.5.9 2 1.3 0 0 .3.2.3.5 0 .2 0 .4-.3.7-.2.3-2.4 2.9-2.4 6.4-.1.4-.2 2.6 1.6 5.8-.1 0 1.8 3.6-.3 6.8m-26.3-6l-.1.1-.1.3-.1.2-.1.2-.1.1-.1.1-.2.1-.1.1-.2.1-.2.2h-.3v-.2c0-.3.3-.5.4-.9.1-.3.1-.5.3-.7.3 0 .5.1.6-.2-.4-.4-.5-1.1.1-1.7.8-.8 0-2.6.1-2.8.2.2.4.8.5 1.5v2.900000000000001l-.1.3-.1.2-.2.1zm27.6-3.6h.4c.1 0 .3 0 .4.1.1 0 .4.5.5 1 0 .1.2.9.5 1.1.3.3.2.8-.5.7-.7-.1-1.4-1.1-1.1-2.2h-.5l-.2.1h-.1l-.1.1h-.2c-.2.1-.2.4-.4.4 0-.4.2-.7.6-1 .2-.1.4-.2.7-.3m-28-4c-.4.1-.4-1.5-2.3-1.1-1 .5-1.8.2-2.5-.1 2.7-1.6 5 0 4.8 1.2m-9.4-10.9c-1.3-.4-2.7-.6-3.2-1.7 1.8.1 3.6.2 4.8.8l.1.1c.4.2 1.3 1 1.7 2.4-1.6-.9-2.1-1.1-3.4-1.6m-4-6.1c-.5 0-.8-.3-1.3 0 0 0-.6.5-.5 1.1 0 .4-.5.6-.7.3-.4-1 1.1-2.3 1.5-2.4.9-.3 1.5.2 2.5.4.6.1 1.2 0 1.6 0 1 .1.8.8.6 1-.9.2-1.4-.4-2.1-.5-.5-.2-1 .1-1.6.1m-1.5 1.2c1.2.4 1.3-1 1.6-.7.4.6-.7 1.7-1.6.7m-7 42.8l.6.4.1.2c-.1.2-.3.2-.6.1h-.1c-.2-.1-.5-.3-.6-.4-.2.3.2.6.4.9 0 .1-.1.1-.3.2-.2 0-.3 0-.4-.1-.4-.2-.5-.8-.5-1.1 0-.3-.2-.8-.7-1 .8-.5 1.9.7 2.1.8m55.8-35.9c-.3.6-.8 1.2-1.5 1.4-1.3.3-2.6-.8-2.7-.9-.1-.2 1.1.5 2.2.5.8-.2 1.4-.7 2-1zm-5-6.5h-.2c-.8-.4-2.3-.4-3.3.2-.8.4-1.4 1.2-1.5 1.2-.1.1 1.3-2.1 3.6-2.3 1.3.1 1.5.8 1.4.9m29.5 18.2c-.3-5.1-.7-9.6-1.9-13.8-.8-2.6-2.2-7.8-5.6-8.5-1.6-.3-2.8 1.1-2.8 2.5 0 1.1.8 1.7.5 2.8-.4.7-.9 1.6-1.1 2.4l.3 2c-1-.1-1.6.7-3.1.4-1.4.6-2.8.3-2.8.3h.1c1.5 0 2.9-.5 3.2-1.2.3-1 .1-2.5-.6-3.1-.9.2-1.3.9-4.3.8-2.5-.1-3.1.3-3.5 1.8-.1-.2-.2-.4-.1-.7.1-.8.9-1.3 1.9-1.5.2-.4.2-.6.2-1h-1.2c-1.2.2-2.8.9-3.2 2 0 .1-.1.4-.1.6 0 .2 0 .4.1.5l.1.4c.4.8 1.3 1.3 3.3 1.4l.1.1c0 .1-.4.2-.9.1 0 0-1.9 0-2.7-1l-.1.2c-.5.5-1.4 1-2.3 1.1-.9 0-1.9-.5-2.3-1-1.2-1.6.4-4.4.3-5.5-.1-2.8-3.9-1.5-5.3-.8-1.7.9-3 2.3-4.1 3.6-.6.7-1.2 1.6-1.6 2.4.5.2 1.9.9 3 .9h.5c.6 0 1.6-.1 2.4-.8.1-.1.4-.3.9-.3.3 0 .7.1.9.4.2.2 2.6 2.1 3.4 2.6.1.1.3.3.4.6 0 .2 0 .5-.3.8-.2.2-1.4 1.6-2.2 3.5l-.3.9c-.3 1-.5 2.6.9 3.1 0 0 1.6.4 1.4-2.2 0 0 .3 1.7 1.5 1.6.5 0 1-.5.9-1.7-.1-1.1-.1-2.3.1-3.7v-.1s.1.1.1.7c.1.7-.4 6.7 4.5 10.8 0 0-2.1-1-3.5-3.6-.8.5-2 1.6-1.4 3.8.3.8.8 1.5 1.2 1.7l.1.1c0 .1-.3.3-.7-.2l-.2-.2c-.2-.3-.3-.5-.4-.8-.6-.5-1.1-1-1.6-1.6-.4-.8-.2-3.2-2.5-3.2h-.2c-.1 0-.3 0-.4.1h-.1c-.6-2.1-.4-3.4-.4-3.7.5-3 2.6-5.6 2.9-5.9.1-.1.2-.3.2-.4 0-.1-.1-.2-.1-.2-.8-.5-3.2-2.4-3.4-2.6-.2-.2-.4-.3-.6-.3-.3 0-.5.2-.5.2-1.1 1.1-2.3 1.2-2.9 1.2h-.5c-1.4 0-3.1-.8-3.4-1-2.3-1-4.1-1-4.5-1-.3 0-2.1 0-4.5 1-.3.2-2 1-3.4 1h-.5c-.6 0-1.9-.1-2.8-.9 0 0-.2-.2-.5-.2-.2 0-.4.1-.6.3-.3.2-2.6 2.1-3.4 2.6 0 0-.1.1-.1.2s.1.3.2.4c.2.3 2.4 2.8 2.9 5.9 0 .1.1.6 0 1.3-.3-.6-.4-1.2-.6-1.6l-.3-.9c-.3-.5-.8-.9-1.3-1.2-.4-.2-.9-.3-1.3-.6-.6-.4-1.3-.9-1.7-1.7 0-1.6-.8-2.7-.8-2.7.2-.1 1.2.6 1.3 2.3 1.1-1.2 1.7-2.9 2.1-4.8.8-1.2 3.2-.7 4.1-.5.2 0 .6.1.8.3.3.2.3.6.7.7.4.2.8 0 1.3 0l.3.6h.3c1.3 0 3-.9 3.2-.9l.2-.1c-.5-.6-1.3-.8-2-.9-.9-.1-1.4-.9-2.2-1.1-.2 0-1-.2-1.2-.1-1.9.2-3.2-.5-4.9-.6-1.7-.1-1.7 1-2.3 2-.2.4-.5.8-.8 1l-1.5.9-.1-.1c-.1-.6-.4-1.5-.8-2.1l-.1-.2c-.9-1.4-1.9-2.5-3.9-3-.4-.2-.4-.2-.7-.4-.3-.3-.1-.6 0-.6l2.2-.5c1.6-.7 1-2.1.4-2.2-.8-.1-2.3-.5-2.5-.7-.4-.2-.6-.9-1.3-1.1-.5-.2-.9-.1-1.3-.1-.4.1-.6.3-.9.3.4-.5 1-.8 1.8-.8-.7-.2-.5-1.3-1.1-1.6-.3 0-.7.1-1.1.3 0-.4-.3-1.6-.9-2-.5-.3-.7.2-.7.5s.8.6 1 1.8l-.4.3c-.1-.5-.3-1.3-.9-1.6-.5-.3-.7.2-.7.5s.7.6.9 1.6c-.2.1-.4.3-.5.5-1.1-.3-1.3-1-1.6-1.1-.3-.1-.8.1-.5.7.3.6 1.1.9 1.5 1l-.3.4c-1.2-.2-1.5-1.1-1.8-1.1-.3-.1-.8.1-.5.6.3.7 1.6 1 1.9 1.1-.2.3-.3.6-.3.9-1-.1-2.7.4-2.4 1.5.3.2 1.5-.7 2.5-.2.7 1.1 1.8 1.1 2.1 1.3.4.3.5.9.6 1.4.3.9 1 1.7 1.5 2.5.6.9 1.2 1.9 1.8 2.6.1.2.1.4.1.8-.7 1.1-2.8 2.5-3.7 3.3-.9.8-9.2 7.2-10.3 9.9-.2.6-.4 1.4-.3 2.2-.5.3-1.4.1-1.7-.2-.5-.6.6-1.3.3-2.1-.1-.3-.6-.5-.9-.3-.6.2-.7 1.5-.4 2.2.1.2.4.5.2.6-.3.1-.5-.2-.5-.6-.2.1-.3.4-.3.7.2.6.9.6 1.1.8 0 .3-.4.4-.7.1-.5.7.1.9.2 1 .5.1 1-.4 1.4-.4.1.3-.1.5-.6.6.8 1 1.6-.7 2.5-.5.3.1 2.9 2.5 2.5 4.4l-.5.3c-.6.7-1.5 1.3-2.2 2-1.4.9 1.3 6.4 1.1 9.2-.2 1.1.9.9 1.6 2.7-.7 0-1.3.2-1.7.7l-.1.1c-.1.2-.2.4-.2.7 0 .8.6 1.4 1.4 1.4.8 0 1.4-.6 1.4-1.4v-.2c.3 0 .7.1 1.1.2l1.2.7s-4.3 3.6-11.2 1.5c0 0-3.1-1-2.3-3.8 0 0 .2-.5.6-.7.1.4.3.7.6.9.3.2.6.3.9.3.9 0 1.6-.7 1.6-1.6 0-.4-.2-.8-.4-1.1l-.2-.2c-.5-.3-1.2-.5-2.3-.2 0 0-3 .9-1.9 4.2 0 0-2-.5-2.8.5 0 0-.3.3-.2.8 0 .2.1.4.2.7.2.3.6.5 1 .5s.7-.2.9-.4c.1-.1.3-.2.7.1 0 0 2.8 3.1 7 2.7 0 0 .1 2.2 1.6 2.5h.2c.4 0 .7-.3.7-.7 0-.4-.3-.7-.7-.7h-.1c0-.1-.2-.7-.1-1.2 0 0 4.6-.6 7.6-3.1 0 0 2.1.6 3.5.7 0 0 .2.5-.7.6 0 0-1.2 0-1.2.4 0 0-.1.4.9.4 0 0-.1.4.6.9 0 0 .5.3.2.6 0 0-.9.5-.6 1.1 0 0 .2.7 1.5.5 0 0 .4 0 .1.4 0 0-.6.7.4 1.2 0 0 .8.5 1.4-.4 0 0 .1-.3.6-.1 0 0 2.7 1.2 4.1-.8 0 0 .1-.3.5.2 0 0 1.4 1.7 5.2 1.8.2.5.7.8 1.3.8.7 0 1.3-.5 1.4-1.2.5 0 2.1-.1 3.9-1.3 0 0 .6-.4 1.3-.7 0 1.1.9 1.9 2 1.9s2-.9 2-2c0-1-.7-1.8-1.6-2 0 0-1.3-.4-3.2.8 0 0-1.5 1-1.8 1 0 0 .4-1.7.6-3.6-.3 0-.6-.1-.8-.1-.2 1.8-.6 3.8-1.3 3.9l-1 .2c0-.1-.1-.3-.2-.4-.2-.2-.5-.5-1.1-.4h-.1c-.5.1-.8.5-.8 1-.2 0-1.9.3-2.8-.4 0 0 1.7-.6 1.9-1.2 0 0 .5-1-1.2-1.9 0 0-1.2-.7-1.6.1 0 0-.1.3.4.8 0 0 .6.6-.5.5 0 0-.8-.1-1-.4 0 0 .2-2.1.7-3.6l-1.3-.3-.5 1.5s-.1 1.2-.5 1.6c0 0-1.6-1.3-.9-3.6l-1.5-.5c-.1 1.1.2 2.9 1.7 5.5 0 0-1.3 1.7-2.7.8 0 0-1.9-1.2-.7-2.3 0 0 .8-.7 1.2.2-.4 0-.8.4-.8.8s.4.8.8.8.8-.3.8-.8c0-.3.1-1.2-.7-1.8 0 0-.7-.7-1.8-.5 0 0 1.1-1.4 1.2-2.6 0 0 0-.2.1-.5-.3-.1-.6-.2-.9-.4-.1 1.2-.4 3.3-2 2.7 0 0 1-1.7 1.7-2.8l-1.9-.8-.2-.1c.1.5.3 1.7-.4 2.4 0 0-.8.7-2.2-.3 0 0 1.8-1.5 2.4-2.1-.4-.1-1-.3-1.5-.3h-.5l-.1.1s-1.2.9-2 1.2c0 0-.2.2-.5-.1 0 0-1.5-1.7-.3-3.6 0 0 .7-1.6 2.1-1.3 0 0 .4 0 .7.6 0 0-1.4.1-1.2 1 0 0 0 1 1.3 1 0 0 1.7-.2 1.3-2.3 0 0-.3-1.3-1.3-1.3 0 0 .6-.7.2-1 0 0-.4-.4-1.3.3 0 0-.2.5-1.4.2 0 0-.8-.3-1.2.3 0 0-.2.1-.2.9 0 0 .1.3-.4 1.2 0 0-.3.6-.3 1.5-.4-.3-.7-.5-1.2-.5-.6-.6-.6-3.4-1.2-4.7-.1-.3.3-1.7.3-3.2 4.2-.9 5.8-4.1 6.2-5.5.7-2.3-.2-4.7-.3-5.3h.1l.5 1.1c2 .2 3.4-.2 4.4-.5l.2-.1.2-.1c.2-.1.3-.2.5-.2l.2-.1c2.9-1.5 4.3-3.9 5.1-5.3-.4-.1-1.7-.5-2.1-1.1 1.1.1 1.9.5 3 .5 1.6 0 2.7-.9 4.4-.7 0 .1.2.8 1.4 1.3 0 1 .1 1.9.4 2.6.1.2.1.3.1.3s-1.3 1-1 1.9l.3.7h-.2c-.2-.1-.4.3-.7.7-.1.2-.8 1.7-.3 1.8h.3c-.3 1.5-.3 3.4 1 5.2.1.1 2 3.2 7.1 3.2h.1c.5 0 5 .1 6.6 3.1.1.2.5.7.8.7.4 0 .7-.5.8-.7 1.6-3 6.1-3.1 6.6-3.1h.1c5.1 0 7-3.1 7.1-3.2.6-.9.9-1.9 1-2.8 1-.5.9-2.8 1-3.2.3.4.9 1.5 2.1 1.8-.2 1.1-.1 2.8 1 3.1.3 0 .6-.5.5-.9 1 2.8.2 4.6.9 4.8 1 0 1-1.7 1.1-1.7.1.1.4.7.4 1.4 0 .9-.1 1.7.3 1.9 1.3.2.7-3.6 1.7-3.3-.3 1.7 0 2.7.7 3 0 .8-.1 1.5-.4 1.5-1.9.4-3.6-1.1-5.3-.6l-.2-.1c-3-1.6-5-.4-5.2-.6-.9-.8-1.2.4-1.4.3-1.6-.9-2.5.6-2.9.7-.4.1-1-.8-1.8 1-.3.8-2.1 1.1-2.3 1.2-.7.1-.9-.4-.9-.4-.1-.2-.1-.4-.2-.5-.1-.1-.1-.2-.3-.4-.2-.2-.5-.3-.7-.2-.5 0-.9.5-.9 1 0 .2.1.4.2.6.1 0 .2-.2.4-.2.4 0 .7.3.7.7 0 .8-1.2 1.6-1.2 1.6-.7.6-1.6-.3-1.6-.3-.5-.4-.9-.4-.9-.4-.5 0-.8.6-.8.6s-.2-.6-.8-.6c0 0-.3 0-.9.4 0 0-.9.9-1.6.3 0 0-1.2-.8-1.2-1.6 0-.4.3-.7.7-.7.2 0 .4.2.4.2.1-.2.2-.4.2-.6 0-.5-.4-1-.9-1-.2 0-.5 0-.7.2-.1.1-.2.2-.3.4-.1.1-.1.3-.2.5 0 0-.2.5-.9.4-.1 0-1.9-.4-2.2-1.2-.7-1.8-1.4-.9-1.8-1-.4-.1-1.3-1.6-2.9-.7-.3.1-.6-1-1.4-.3-.2.1-1.7-.8-4.1.1-.1-.3-.9-.4-1.1-.5-.5-.1-.9-.5-1.2-.7-.7-.3-1.8-.1-2.6-.2-.3 0-.7-.2-1-.4-1-.6-2.2-1.4-2.8-2.3-.1-.1-.4-.5-.4-.5-.3-.4-.5-.7-.7-1.3-.4-1.2.2-2.6.4-3.8.1-.6.1-.8.1-1.2-1 .3-2.2.3-3.8-.2.4 1.3.5 2.7.3 3.8.6.5 1 1.2 1 1.6.1.6-.2 1.3.1 1.8.5.8 1.8 1.4 2.5 2 .3.2 3.7 2.8 4.1 2.9.5.1.8-.3 1.2-.2.1 0 .3.1.4.2 0 0 .3.3.7.6-1 .6-2.3 1.4-3.3 1.9 0 0-1.5.8-.8.9 0 0 1.1 0 1.2.2 0 0-.5.2-1.2.5 1.6.6 3.3 1.1 5 1.6 1.1-1.1 2.4-2.2 3.8-2.7 0 0 1.9.1 2.6-1.3.2-.4 1 .8 2.7-.1.2-.1.4.4.9.5.2 0-.7.2-.5.9 0 .1-1.4 0-1.8.8-.1.2-3.1.2-5.8 2.4l1.5.3c.9-.7 1.9-1.1 3.2-1 0 0 1.6.1 2.3 2l3.1.4c.3-.1 1.7-.8 1.1-1.7 0 0-.3-.4-.9.1 0 0-.4.3-.5-.2 0 0 0-.3-.2-.6 0 0-.3-.4.3-.2 0 0 .5.2 1 .1.5 0 .9-.4.9-1 0-.5-.4-1-.9-1l-.4-.2c.1.1.1.2.1.3 0 .2-.2.4-.3.4-.6-.2-.4-1.3.4-1.3 0 0 .7 0 1.3.7 0 0 1.4 2 2.6 2.5.1 0-.2.7.6 1 .1 0 0 .6.8.6 0 0 .2.3.4.7h4.300000000000001c.2-.4.3-.7.4-.7.8.1.7-.5.8-.6.8-.2.5-.9.6-1 1.3-.4 2.6-2.5 2.6-2.5.6-.7 1.3-.7 1.3-.7.8 0 1 1.2.4 1.3-.2 0-.3-.2-.3-.4l.1-.3-.1-.1c-.6 0-.9.5-.9 1s.4.9.9 1c.5.1 1-.1 1-.1.6-.2.3.2.3.2-.2.3-.2.6-.2.6-.2.5-.5.2-.5.2-.6-.6-.9-.1-.9-.1-.6.8.8 1.5 1.1 1.7 1-.1 2.1-.2 3.1-.4.7-1.9 2.3-2 2.3-2 1.2-.1 2.3.4 3.2 1l1.5-.3c-2.6-2.2-5.6-2.2-5.8-2.4-.5-.8-1.9-.7-1.8-.8.2-.7-.7-.9-.5-.9.5-.1.7-.6.9-.5 1.7.9 2.5-.3 2.7.1.6 1.4 2.6 1.3 2.6 1.3 1.3.5 2.7 1.6 3.8 2.7 1.5-.4 3-.9 4.5-1.4v-.1l-.1-.3v-.1l-.2-.4c-.4-.6-1-1.3-1.1-1.5l-.1-.1s1.1-1.7 1.8-.5c.1.1-.1.6-.8.6 0 0 .8 1.3 1 2.2.3-.1.6-.2.7-.3h.2c-.4-.9-1.1-1.3-.9-1.6.2-.1.8.2 1.1-.3.1-.1.2-.7.3-1.4.4.2.9.3 1.1.3 1.2 0 1.6-1.8 1.3-2.3.2-.1.8-.7.9-.5.4.8 2.2 1.7 2.1-.1.3.9.5 1.9 1.6 1.8.8-.2.3-1.5.5-1.5.2.4.5 1.9 1.7 1.5.3-.1.6-.4.6-.9.1-1.4-4-8.8-4.4-12.1l-.2-.1c-.4-.2-.4-.8-.4-1.3v-.1c-.5-.1-1.3-.5-1.4-1.9 0-1.2.5-1.8.7-1.8v.1c-.3 1-.5 2.1.2 2.7.1.1.4.2.7.3.2-.4.5-.6.6-.6v.1c-.4.7-.4 1.6 0 2 .2.2.5.3.7.3 1.1-.4 1.7-2.6 2-3.2.8.2-1.2 4.5.3 5.5.6-.1 1-.8 1.2-1.4.5 1.3-1.6 4-.1 4.6.9.2 1.3-2.1 1.3-1.8.3 3.6-1.6 5.4-.4 5.9 1 .5 1.4-2.5 1.4-2.1 0 3.8-2 4.9-1.1 5.6 1 .4 1.6-1.9 1.6-1.4-.1 3.4-1.8 4.4-1 5.5.9 1.3 2.5-2.2 2.6-1.6.1.8-1.9 4.8-.7 5.1 1 .2 1.3-1.1 1.4-1.4 2.4-10.1 2.5-19.7 2.3-23"/><path class="st1" d="M322.9 11.9h189.4v295.2h-189.4zM525.9 12.4h189.4v295.2h-189.4z"/><path class="st0" d="M169.1 285.1c0-1.5-1.3-1.9-2.2-1.9-1 0-2.3.4-2.3 1.9 0 1.6 1.2 2 2.3 2 1 0 2.2-.4 2.2-2m-2.7 7.9c-1.2.1-1.9.8-1.9 1.9 0 1.1 1 1.9 2.4 1.9 1.5 0 2.5-.8 2.5-2.1-.1-1.1-1-1.5-3-1.7m6.9-11.9l-.1 2.5c-.6 0-1.5-.2-2.4-.4.6.5 1.2 1.2 1.3 2 0 3.1-3.1 4.3-5.2 4.3-.5 0-1.1-.1-1.6-.2-.4.1-.6.4-.6.7 0 1.4 8-.2 8 4.5 0 3-2.8 4.6-6 4.6-2.7 0-5.3-1.2-5.3-3.5 0-1.6 1.3-2.5 3.4-2.8-1.6-.2-3.1-.7-3.1-2.1 0-1.1 1-1.8 2.4-1.9-1.3-.7-2.3-1.8-2.3-3.6 0-3.4 3.2-4.3 5.2-4.3 1.2-.1 4.1.2 6.3.2M183.4 287.4c0-3-.9-4.1-2.5-4.1s-2.5 1.1-2.5 4.1c0 2.9.8 4.1 2.5 4.1 1.6 0 2.5-1.1 2.5-4.1m3.4 0c0 4.3-2.2 6.6-5.9 6.6-3.8 0-5.9-2.3-5.9-6.6 0-3.7 2.1-6.5 5.9-6.5 3.8-.1 5.9 2.8 5.9 6.5"/><path class="st0" d="M192.7 290.2c.5.7 1.4 1.3 2.3 1.3 1.5 0 2.6-1.1 2.6-4.1 0-3-1-4.1-2.5-4.1-.9 0-1.8.4-2.3 1v5.9zm-.2-7.8c.6-.8 1.9-1.5 3.4-1.5 3 0 5.1 2.1 5.1 6.5s-2.6 6.6-5.5 6.6c-1.8 0-2.9-.7-3.7-1.8l-.6 1.5h-1.8v-17.8h3.4v4.4l-.3 2.1zM203.1 290.1h3.4v3.6h-3.4zM219.2 292.9c-.7.4-2.4 1.1-4.3 1.1-3.8 0-6-2.1-6-6.6 0-4.1 2.3-6.6 6-6.6 1.7 0 3.1.3 4.3 1l-.9 2.3c-.9-.5-2.1-.8-3.2-.8-1.8 0-2.9 1.2-2.9 4 0 2.9 1.1 4 2.9 4 1.3 0 2.6-.5 3.4-1l.7 2.6zM221.4 290.4v-14.4h3.3v14.3c0 1.1.6 1.2 2 1.2v2.4s-1 .2-1.9.2c-2.4-.1-3.4-1.5-3.4-3.7"/><path class="st2" d="M551.6 289.6c-1.9.9-3.4 1.3-5.2 1.3-4.1 0-6.1-3-6.1-7.5 0-4.3 2.1-7.2 6.4-7.2 2.1 0 3.5.5 4.6 1.3l-1.1 2.1c-.8-.5-1.9-.9-3.4-.9-2.5 0-3.6 1.9-3.6 4.7 0 3.3 1.2 5.2 3.5 5.2.9 0 1.8-.2 2.4-.5v-2.6h-1.9l-.1-2h4.5v6.1zM562.9 285.5c0 3.5-1.7 5.4-4.7 5.4s-4.7-1.8-4.7-5.4c0-3 1.6-5.3 4.7-5.3 3 0 4.7 2.3 4.7 5.3m-2.8 0c0-2.5-.7-3.3-2-3.3s-1.9.9-1.9 3.3.6 3.3 1.9 3.3c1.3.1 2-.8 2-3.3"/><path class="st2" d="M567.4 281.4c.5-.6 1.5-1.3 2.7-1.3 2.4 0 4.1 1.7 4.1 5.3 0 3.5-2.1 5.4-4.4 5.4-1.4 0-2.3-.6-2.9-1.4l-.5 1.2h-1.4v-14.4h2.7v3.6l-.3 1.6zm.1 6.4c.4.6 1.1 1 1.8 1 1.2 0 2-.9 2-3.3s-.8-3.3-2-3.3c-.7 0-1.4.4-1.9.8v4.8zM576.9 290.7v-8.2l-1.1-.2v-1.8h3.8v10.3h-2.7zm0-14.5h2.7v2.5h-2.7v-2.5zM584.4 286.3c0 1.6.9 2.5 2.6 2.5 1 0 2.1-.4 2.9-.9l.5 1.9c-.8.5-2.2 1-3.8 1-3.1 0-5-2-5-5.4 0-3.2 1.5-5.3 4.7-5.3 3 0 4.3 2.3 4.3 4.9v1.2h-6.2zm1.8-4.1c-1.3 0-1.9 1.2-1.9 2.4h3.7c0-1.3-.4-2.4-1.8-2.4M598.4 282.7c-.3-.1-.8-.2-1.3-.2-.7 0-1.4.3-1.8.7v7.4h-2.7v-10.3h1.9l.3 1.4h.1c.3-.7 1.2-1.6 2.4-1.6.5 0 .9.1 1.2.1-.1.9-.1 1.7-.1 2.5"/><path class="st2" d="M606.2 290.7v-6.1c0-1.5-.6-2.3-1.8-2.3-.7 0-1.3.3-1.8.6v7.7h-2.6v-10.3h1.8l.4 1.2c.6-.7 1.7-1.4 3.2-1.4 2.5 0 3.5 1.5 3.5 4.1v6.3h-2.7zM620.2 285.5c0 3.5-1.7 5.4-4.7 5.4s-4.7-1.8-4.7-5.4c0-3 1.6-5.3 4.7-5.3 3 0 4.7 2.3 4.7 5.3m-2.8 0c0-2.5-.7-3.3-2-3.3-1.2 0-1.9.9-1.9 3.3s.6 3.3 1.9 3.3c1.4.1 2-.8 2-3.3"/><path class="st2" d="M633.2 281.2c-.2-.6-.3-1.1-.3-1.9v-3.1h2.7v14.4h-2.2l-.3-1.1c-.4.6-1.4 1.3-2.7 1.3-2.3 0-4.1-1.7-4.1-5.3 0-3.4 1.9-5.3 4.3-5.3 1.2 0 2.1.4 2.6 1m-.2 1.5c-.4-.3-1-.5-1.8-.5-1.3 0-2.1.9-2.1 3.3s.8 3.4 2 3.4c.7 0 1.4-.3 1.9-.9v-5.3zM640.4 286.3c0 1.6.9 2.5 2.6 2.5 1 0 2.1-.4 2.9-.9l.5 1.9c-.8.5-2.2 1-3.8 1-3.1 0-5-2-5-5.4 0-3.2 1.5-5.3 4.7-5.3 3 0 4.2 2.3 4.2 4.9v1.2h-6.1zm1.9-4.1c-1.3 0-1.9 1.2-1.9 2.4h3.7c0-1.3-.4-2.4-1.8-2.4M658.9 290.9c-3.9 0-6-2.7-6-7.4 0-4.3 2.1-7.3 6-7.3 1.9 0 3.6.4 4.7 1.2l-1 2.2c-.7-.5-2-1-3.4-1-2.3 0-3.4 1.7-3.4 4.8 0 3.3 1.1 5 3.4 5 1.4 0 2.7-.6 3.7-1.3l.9 2.2c-1.6 1-3.1 1.6-4.9 1.6"/><path class="st2" d="M665.5 290.7v-14.4h2.7v3.8c0 .7-.2 1.4-.3 1.6.6-.7 1.4-1.4 2.8-1.4 2.9 0 3.7 1.5 3.7 4.1v6.3h-2.7v-6.1c0-.3 0-.5-.1-.6-.1-1.2-.7-1.7-1.7-1.7-.7 0-1.3.3-1.8.6v7.7h-2.6zM677.5 290.7v-8.2l-1.2-.2v-1.8h3.8v10.3h-2.6zm-.1-14.5h2.7v2.5h-2.7v-2.5zM682.6 287.9v-11.7h2.6v11.6c0 .9.5 1 1.6 1v1.9s-.8.2-1.5.2c-2 0-2.7-1.1-2.7-3M690.9 286.3c0 1.6.9 2.5 2.6 2.5 1 0 2.1-.4 2.9-.9l.5 1.9c-.8.5-2.2 1-3.8 1-3.1 0-5-2-5-5.4 0-3.2 1.5-5.3 4.7-5.3 3 0 4.2 2.3 4.2 4.9v1.2h-6.1zm1.9-4.1c-1.3 0-1.9 1.2-1.9 2.4h3.7c0-1.3-.4-2.4-1.8-2.4"/><path class="st0" d="M354.2 54.4l-.2-14.9c-.5 2.3-.9 4.4-1.4 5.8l-2.3 9.1h-4.9l-2.8-11.7c-.2-1.2-.5-2.3-.7-3.3h-.2l-.2 14.9h-3.7l.7-18.9h6.3c.5 1.4 2.3 9.3 3.3 15.4h.2c1.2-6.1 3.5-14 4-15.4h5.6l.7 18.9h-4.4zM362.6 54.4v-11l-1.6-.2v-2.3h5.1v13.5h-3.5zm0-19.1h3.7v3.3h-3.7v-3.3zM378 54.4v-8.2c0-2.1-.7-3-2.3-3-.9 0-1.6.5-2.3.9v10.3h-3.7v-13.5h2.6l.5 1.6c.7-.9 2.3-1.9 4.2-1.9 3.5 0 4.9 2.1 4.9 5.4v8.4h-3.9zM385.7 54.4v-11l-1.4-.2v-2.3h5.1v13.5h-3.7zm0-19.1h3.7v3.3h-3.7v-3.3zM395.8 44.4c0 2.1 5.8 1.4 5.8 5.8 0 2.6-1.9 4.4-5.4 4.4-1.6 0-3.3-.5-4-.9l.7-2.6c.7.5 1.9.9 3.3.9 1.2 0 2.1-.7 2.1-1.4 0-2.3-5.8-1.6-5.8-6.3 0-2.1 1.6-3.7 5.1-3.7 1.4 0 2.8.2 3.7.7l-.5 2.6c-.9-.5-2.1-.7-3.3-.7-1 0-1.7.5-1.7 1.2zM409.5 54.9c-2.3 0-4.2-1.4-4.2-4.9v-6.5h-2.1v-2.6h2.1v-2.3l3.5-1.2v3.5h3.7v2.6h-3.7v6.8c0 .9.5 1.6 1.4 1.6.7 0 1.6-.2 2.1-.5l.5 2.6c-.5.2-1.6.9-3.3.9zM417.9 48.6c0 2.1 1.2 3.3 3.5 3.3 1.4 0 2.8-.5 4-1.2l.7 2.6c-1.2.7-3 1.4-5.1 1.4-4.2 0-6.8-2.6-6.8-7 0-4.2 2.1-7 6.3-7 4.2 0 5.8 3 5.8 6.5v1.6h-8.4v-.2zm2.6-5.4c-1.9 0-2.6 1.6-2.6 3.3h4.9c.3-1.7-.4-3.3-2.3-3.3zM436.9 43.9c-.5-.2-1.2-.2-1.6-.2-.9 0-1.9.5-2.3.9v9.8h-3.5v-13.5h2.6c.2.7.2 1.2.5 1.9.5-.9 1.6-2.1 3.3-2.1.7 0 1.2 0 1.6.2-.4.9-.4 2.1-.6 3zM440.4 54.4v-11l-1.6-.2v-2.3h5.1v13.5h-3.5zm-.3-19.1h3.7v3.3h-3.7v-3.3zM459.3 47.6c0 4.7-2.3 7-6.3 7s-6.3-2.3-6.3-7c0-4 2.3-7 6.3-7 4.2 0 6.3 3.1 6.3 7zm-3.8 0c0-3.3-.9-4.4-2.6-4.4-1.6 0-2.6 1.2-2.6 4.4s.9 4.4 2.6 4.4c1.9.1 2.6-1.1 2.6-4.4zM343.5 82.4c-2.6 0-4.7-.9-6.1-2.1l1.4-2.8c1.2.9 3 1.6 4.7 1.6s2.8-1.2 2.8-2.6c0-4-8.6-2.1-8.6-8.6 0-2.8 2.3-5.1 6.5-5.1 2.1 0 4 .5 5.6 1.4l-1.2 2.8c-.9-.7-2.6-1.2-4.4-1.2-.5 0-.7 0-.9.2-1.4.2-1.9.9-1.9 1.6 0 3.3 8.9 2.1 8.9 8.4-.1 3.6-2.6 6.4-6.8 6.4zM356.1 76.4c0 2.1 1.2 3.3 3.5 3.3 1.4 0 2.8-.5 4-1.2l.7 2.6c-1.2.7-3 1.4-5.1 1.4-4.2 0-6.8-2.6-6.8-7 0-4.2 2.1-7 6.3-7 4.2 0 5.8 3 5.8 6.5v1.6h-8.4v-.2zm2.5-5.4c-1.9 0-2.6 1.6-2.6 3.3h4.9c.3-1.7-.4-3.3-2.3-3.3zM378.2 81.3c-.7.5-2.6 1.2-4.7 1.2-4 0-6.5-2.3-6.5-7 0-4.4 2.3-7 6.5-7 1.9 0 3.3.5 4.7 1.2l-.9 2.6c-.9-.5-2.3-.9-3.5-.9-1.9 0-3 1.2-3 4.4 0 3 1.2 4.4 3 4.4 1.4 0 2.8-.5 3.7-.9l.7 2zM388.3 71.7c-.5-.2-1.2-.2-1.6-.2-.9 0-1.9.5-2.3.9v9.8h-3.5v-13.5h2.6c.2.7.2 1.2.5 1.9.5-.9 1.6-2.1 3.3-2.1.7 0 1.2 0 1.6.2-.6.9-.6 2.1-.6 3zM393.7 76.4c0 2.1 1.2 3.3 3.5 3.3 1.4 0 2.8-.5 4-1.2l.7 2.6c-1.2.7-3 1.4-5.1 1.4-4.2 0-6.8-2.6-6.8-7 0-4.2 2.1-7 6.3-7 4.2 0 5.8 3 5.8 6.5v1.6h-8.4v-.2zm2.5-5.4c-1.9 0-2.6 1.6-2.6 3.3h4.9c.1-1.7-.4-3.3-2.3-3.3zM410 82.4c-2.3 0-4.2-1.4-4.2-4.9v-6.5h-2.1v-2.6h2.1v-2.3l3.5-1.2v3.5h3.7v2.6h-3.7v6.8c0 .9.5 1.6 1.4 1.6.7 0 1.6-.2 2.1-.5l.5 2.6c-.7.5-1.9.9-3.3.9zM424.2 82.2l-.5-1.6c-.7.9-2.1 1.9-4 1.9-2.8 0-4.7-1.6-4.7-4.4 0-2.6 1.9-4 5.1-4h2.8v-.7c0-1.6-.9-2.3-2.3-2.3-1.6 0-3 .5-4.2.9l-.9-2.6c1.4-.5 3.3-1.2 5.4-1.2 4 0 5.6 1.9 5.6 5.1v8.9h-2.3zm-.9-5.8h-2.3c-1.6 0-2.3.7-2.3 1.6 0 1.2.7 2.1 2.1 2.1.9 0 1.6-.5 2.3-.9v-2.8h.2zM437.6 71.7c-.5-.2-1.2-.2-1.6-.2-.9 0-1.9.5-2.3.9v9.8h-3.5v-13.5h2.6c.2.7.2 1.2.5 1.9.5-.9 1.6-2.1 3.3-2.1.7 0 1.2 0 1.6.2-.6.9-.6 2.1-.6 3zM439.2 66.6l-.5-2.1 7-1.9c0 .5.5 2.3.5 2.6l-7 1.4zm1.6 15.6v-11l-1.6-.2v-2.3h5.1v13.5h-3.5zM456.2 82.2l-.5-1.6c-.7.9-2.1 1.9-4 1.9-2.8 0-4.7-1.6-4.7-4.4 0-2.6 1.9-4 5.1-4h2.8v-.7c0-1.6-.9-2.3-2.3-2.3-1.6 0-3 .5-4.2.9l-.9-2.6c1.4-.5 3.3-1.2 5.4-1.2 4 0 5.6 1.9 5.6 5.1v8.9h-2.3zm-.9-5.8h-2.3c-1.6 0-2.3.7-2.3 1.6 0 1.2.7 2.1 2.1 2.1.9 0 1.6-.5 2.3-.9v-2.8h.2zM352.8 108.6c-2.6 1.2-4.7 1.6-7 1.6-5.6 0-8.2-4-8.2-9.8 0-5.6 2.8-9.6 8.6-9.6 2.8 0 4.7.7 6.1 1.6l-1.6 2.8c-1.2-.7-2.6-1.2-4.7-1.2-3.3 0-4.9 2.6-4.9 6.3 0 4.4 1.6 6.8 4.7 6.8 1.2 0 2.3-.2 3.3-.7v-3.4h-2.6l-.2-2.8h6.1v8.4h.4zM358.9 104.2c0 2.1 1.2 3.3 3.5 3.3 1.4 0 2.8-.5 4-1.2l.7 2.6c-1.2.7-3 1.4-5.1 1.4-4.2 0-6.8-2.6-6.8-7 0-4.2 2.1-7 6.3-7 4.2 0 5.8 3 5.8 6.5v1.6h-8.4v-.2zm2.5-5.4c-1.9 0-2.6 1.6-2.6 3.3h4.9c.1-1.9-.4-3.3-2.3-3.3zM378.5 110v-8.2c0-2.1-.7-3-2.3-3-.9 0-1.6.5-2.3.9v10.3h-3.7v-13.6h2.6l.5 1.6c.7-.9 2.3-1.9 4.2-1.9 3.5 0 4.9 2.1 4.9 5.4v8.4c-.2.1-3.9.1-3.9.1zM388.3 104.2c0 2.1 1.2 3.3 3.5 3.3 1.4 0 2.8-.5 4-1.2l.7 2.6c-1.2.7-3 1.4-5.1 1.4-4.2 0-6.8-2.6-6.8-7 0-4.2 2.1-7 6.3-7 4.2 0 5.8 3 5.8 6.5v1.6h-8.4v-.2zm2.6-5.4c-1.9 0-2.6 1.6-2.6 3.3h4.9c0-1.9-.5-3.3-2.3-3.3zM407.2 99.5c-.5-.2-1.2-.2-1.6-.2-.9 0-1.9.5-2.3.9v9.8h-3.5v-13.6h2.6c.2.7.2 1.2.5 1.9.5-.9 1.6-2.1 3.3-2.1.7 0 1.2 0 1.6.2-.6 1-.6 1.9-.6 3.1zM417.7 110l-.5-1.6c-.7.9-2.1 1.9-4 1.9-2.8 0-4.7-1.6-4.7-4.4 0-2.6 1.9-4 5.1-4h2.8v-.7c0-1.6-.9-2.3-2.3-2.3-1.6 0-3 .5-4.2.9l-.9-2.6c1.4-.5 3.3-1.2 5.4-1.2 4 0 5.6 1.9 5.6 5.1v8.6h-2.3v.3zm-.9-5.8h-2.3c-1.6 0-2.3.7-2.3 1.6 0 1.2.7 2.1 2.1 2.1.9 0 1.6-.5 2.3-.9v-2.8h.2zM423.3 106.5v-15.7h3.5v15.4c0 1.2.7 1.4 2.1 1.4v2.6s-1.2.2-2.1.2c-2.6-.2-3.5-1.6-3.5-3.9zM446.4 97.4c-.2-.7-.2-1.4-.2-2.6v-4.2h3.5v19.1h-3l-.5-1.4c-.5.9-1.9 1.9-3.5 1.9-3 0-5.6-2.3-5.6-7 0-4.4 2.6-7 5.8-7 1.7 0 2.8.5 3.5 1.2zm-.4 2.1c-.5-.2-1.4-.7-2.6-.7-1.6 0-2.8 1.2-2.8 4.4 0 3.3.9 4.4 2.8 4.4.9 0 1.9-.5 2.6-1.2v-6.9zM456 104.2c0 2.1 1.2 3.3 3.5 3.3 1.4 0 2.8-.5 4-1.2l.7 2.6c-1.2.7-3 1.4-5.1 1.4-4.2 0-6.8-2.6-6.8-7 0-4.2 2.1-7 6.3-7s5.8 3 5.8 6.5v1.6h-8.4v-.2zm2.6-5.4c-1.9 0-2.6 1.6-2.6 3.3h4.9c.2-1.9-.5-3.3-2.3-3.3zM473.3 106.5v-15.7h3.5v15.4c0 1.2.7 1.4 2.1 1.4v2.6s-1.2.2-2.1.2c-2.3-.2-3.5-1.6-3.5-3.9zM490.1 110l-.5-1.6c-.7.9-2.1 1.9-4 1.9-2.8 0-4.7-1.6-4.7-4.4 0-2.6 1.9-4 5.1-4h2.8v-.7c0-1.6-.9-2.3-2.3-2.3-1.6 0-3 .5-4.2.9l-.9-2.6c1.4-.5 3.3-1.2 5.4-1.2 4 0 5.6 1.9 5.6 5.1v8.6h-2.3v.3zm-1.2-5.8h-2.3c-1.6 0-2.3.7-2.3 1.6 0 1.2.7 2.1 2.1 2.1.9 0 1.6-.5 2.3-.9v-2.8h.2zM343.7 131.2h-2.1v6.5h-3.7v-18.9h5.6c3.7 0 7.2 1.9 7.2 5.8.2 3.8-2.6 6.6-7 6.6zm0-9.3h-1.9v6.3h1.9c2.1 0 3.5-1.4 3.5-3.3-.2-1.8-1.6-3-3.5-3zM360.7 127.3c-.5-.2-1.2-.2-1.6-.2-.9 0-1.9.5-2.3.9v9.8h-3.5v-13.5h2.6c.2.7.2 1.2.5 1.9.5-.9 1.6-2.1 3.3-2.1.7 0 1.2 0 1.6.2-.6.9-.6 1.8-.6 3zM366.1 131.9c0 2.1 1.2 3.3 3.5 3.3 1.4 0 2.8-.5 4-1.2l.7 2.6c-1.2.7-3 1.4-5.1 1.4-4.2 0-6.8-2.6-6.8-7 0-4.2 2.1-7 6.3-7s5.8 3 5.8 6.5v1.6h-8.4v-.2zm2.3-5.3c-1.9 0-2.6 1.6-2.6 3.3h4.9c.3-1.9-.2-3.3-2.3-3.3zM380.3 127.7c0 2.1 5.8 1.4 5.8 5.8 0 2.6-1.9 4.4-5.4 4.4-1.6 0-3.3-.5-4-.9l.7-2.6c.7.5 1.9.9 3.3.9 1.2 0 2.1-.7 2.1-1.4 0-2.3-5.8-1.6-5.8-6.3 0-2.1 1.6-3.7 5.1-3.7 1.4 0 2.8.2 3.7.7l-.5 2.6c-.9-.5-2.1-.7-3.3-.7-1.2.1-1.7.5-1.7 1.2zM390.2 137.8v-11l-1.6-.2v-2.3h5.1v13.5h-3.5zm0-19.2h3.5v3.3h-3.7v-3.3h.2zM405.8 125.2c-.2-.7-.2-1.4-.2-2.6v-4.2h3.5v19.1h-3l-.5-1.4c-.5.9-1.9 1.9-3.5 1.9-3 0-5.6-2.3-5.6-7 0-4.4 2.6-7 5.8-7 1.6-.2 2.8.5 3.5 1.2zm-.2 2.1c-.7-.2-1.4-.7-2.6-.7-1.6 0-2.8 1.2-2.8 4.4s.9 4.4 2.8 4.4c.9 0 1.9-.5 2.6-1.2v-6.9zM415.6 131.9c0 2.1 1.2 3.3 3.5 3.3 1.4 0 2.8-.5 4-1.2l.7 2.6c-1.2.7-3 1.4-5.1 1.4-4.2 0-6.8-2.6-6.8-7 0-4.2 2.1-7 6.3-7s5.8 3 5.8 6.5v1.6h-8.4v-.2zm2.3-5.3c-1.9 0-2.6 1.6-2.6 3.3h4.9c.3-1.9-.2-3.3-2.3-3.3zM435.2 137.8v-8.2c0-2.1-.7-3-2.3-3-.9 0-1.6.5-2.3.9v10.3h-3.7v-13.5h2.6l.5 1.6c.7-.9 2.3-1.9 4.2-1.9 3.5 0 4.9 2.1 4.9 5.4v8.4h-3.9zM452.7 136.8c-.7.5-2.6 1.2-4.7 1.2-4 0-6.5-2.3-6.5-7 0-4.4 2.3-7 6.5-7 1.9 0 3.3.5 4.7 1.2l-.9 2.6c-.9-.5-2.3-.9-3.5-.9-1.9 0-3 1.2-3 4.4 0 3 1.2 4.4 3 4.4 1.4 0 2.8-.5 3.7-.9l.7 2zM456.2 137.8v-11l-1.6-.2v-2.3h5.1v13.5h-3.5zm-.2-19.2h3.7v3.3h-3.7v-3.3zM471.4 137.8l-.5-1.6c-.7.9-2.1 1.9-4 1.9-2.8 0-4.7-1.6-4.7-4.4 0-2.6 1.9-4 5.1-4h2.8v-.7c0-1.6-.9-2.3-2.3-2.3-1.6 0-3 .5-4.2.9l-.9-2.6c1.4-.5 3.3-1.2 5.4-1.2 4 0 5.6 1.9 5.6 5.1v8.6h-2.3v.3zm-.9-6.1h-2.3c-1.6 0-2.3.7-2.3 1.6 0 1.2.7 2.1 2.1 2.1.9 0 1.6-.5 2.3-.9v-2.8h.2zM548 55.5c-2.7 0-5-.5-6.7-1v-18.2h6.3c5.5 0 8.9 2.2 8.9 9.3 0 6.1-2.6 9.9-8.5 9.9zm-.6-16.2h-2.4v12.7c.6.2 1.9.4 3.2.4 2.5 0 4.4-1.4 4.4-6.8 0-4.6-1.4-6.3-5.2-6.3zM560.7 55.2v-11.1l-1.6-.3v-2.3h5.2v13.7h-3.6zm-.1-19.3h3.7v3.3h-3.7v-3.3zM575.7 55.2h-5.3l-4.1-13.7h4.1l2.9 11.5h.1l2.9-11.5h3.7l-4.3 13.7zM582.9 55.2v-11.1l-1.6-.3v-2.3h5.2v13.7h-3.6zm-.2-19.3h3.7v3.3h-3.7v-3.3zM593 45.1c0 2.1 5.9 1.5 5.9 6 0 2.5-1.8 4.4-5.4 4.4-1.6 0-3.2-.5-4.1-1l.8-2.5c.6.4 2 1 3.2 1 1.2 0 2-.7 2-1.5 0-2.5-5.8-1.6-5.8-6.3 0-2 1.5-3.8 5.2-3.8 1.4 0 2.9.3 3.9.7l-.5 2.7c-.9-.4-2.1-.7-3.3-.7-1.3-.3-1.9.2-1.9 1zM602.9 55.2v-11.1l-1.6-.3v-2.3h5.2v13.7h-3.6zm-.1-19.3h3.7v3.3h-3.7v-3.3zM622.1 48.3c0 4.7-2.3 7.2-6.4 7.2-4.1 0-6.4-2.5-6.4-7.2 0-4 2.2-7.1 6.4-7.1s6.4 3.1 6.4 7.1zm-9.8-8.9l-.4-2.1 7.1-2 .5 2.7-7.2 1.4zm6.1 8.9c0-3.3-1-4.4-2.7-4.4s-2.7 1.2-2.7 4.4.9 4.5 2.7 4.5 2.7-1.2 2.7-4.5zM633.4 55.2v-8.2c0-2.1-.8-3-2.5-3-1 0-1.8.4-2.4.8v10.3h-3.7v-13.6h2.5l.6 1.6c.8-.9 2.3-1.8 4.3-1.8 3.5 0 4.8 2 4.8 5.5v8.5h-3.6zM550 70.5c-.2-.8-.3-1.5-.3-2.5v-4.1h3.6v19.3h-3l-.4-1.5c-.6.8-1.9 1.8-3.6 1.8-3.1 0-5.6-2.2-5.6-7.1 0-4.5 2.6-7.1 5.9-7.1 1.5-.1 2.6.4 3.4 1.2zm-.4 2.1c-.6-.3-1.4-.7-2.5-.7-1.7 0-2.8 1.2-2.8 4.4 0 3.3 1 4.5 2.8 4.5.9 0 1.8-.4 2.5-1.2v-7zM559.7 77.3c0 2.2 1.2 3.4 3.5 3.4 1.4 0 2.8-.5 4-1.1l.7 2.6c-1.1.6-3 1.3-5.2 1.3-4.2 0-6.7-2.6-6.7-7.2 0-4.2 2-7.1 6.4-7.1 4.1 0 5.8 3.1 5.8 6.5v1.6h-8.5zm2.6-5.4c-1.8 0-2.6 1.6-2.6 3.3h5c0-1.8-.5-3.3-2.4-3.3zM592 81.8c-2.5 1.1-4.5 1.7-6.8 1.7-5.6 0-8.5-3.9-8.5-9.9 0-5.7 2.9-9.5 8.8-9.5 2.9 0 4.7.7 6.2 1.6l-1.5 2.8c-1.1-.7-2.7-1.2-4.6-1.2-3.4 0-4.9 2.5-4.9 6.2 0 4.4 1.6 6.8 4.9 6.8 1.2 0 2.3-.2 3.2-.6v-3.5h-2.6l-.2-2.7h6.2v8.3zM607.3 76.3c0 4.7-2.3 7.2-6.4 7.2-4.1 0-6.4-2.5-6.4-7.2 0-4 2.2-7.1 6.4-7.1 4.1 0 6.4 3.1 6.4 7.1zm-3.7 0c0-3.3-1-4.4-2.7-4.4s-2.7 1.2-2.7 4.4.9 4.5 2.7 4.5 2.7-1.2 2.7-4.5zM613.5 70.9c.6-.8 2.1-1.7 3.6-1.7 3.2 0 5.5 2.3 5.5 7.1 0 4.7-2.8 7.2-6 7.2-2 0-3.1-.8-4-1.9l-.7 1.6h-2v-19.3h3.7v4.8l-.1 2.2zm.2 8.5c.6.8 1.5 1.4 2.5 1.4 1.6 0 2.8-1.2 2.8-4.5s-1-4.4-2.7-4.4c-.9 0-1.9.5-2.5 1.1v6.4zM626.5 83.2v-11.1l-1.6-.3v-2.3h5.2v13.7h-3.6zm-.1-19.3h3.7v3.3h-3.7v-3.3zM636.6 77.3c0 2.2 1.2 3.4 3.5 3.4 1.4 0 2.8-.5 4-1.1l.7 2.6c-1.1.6-3 1.3-5.2 1.3-4.2 0-6.7-2.6-6.7-7.2 0-4.2 2-7.1 6.4-7.1 4.1 0 5.8 3.1 5.8 6.5v1.6h-8.5zm2.6-5.4c-1.8 0-2.6 1.6-2.6 3.3h5c0-1.8-.5-3.3-2.4-3.3zM655.7 72.5c-.4-.1-1.1-.2-1.7-.2-1 0-1.8.4-2.5.9v10h-3.6v-13.7h2.5l.4 1.8h.1c.4-1 1.6-2.1 3.3-2.1.7 0 1.3.1 1.6.2l-.1 3.1zM666.4 83.2v-8.2c0-2.1-.8-3-2.5-3-1 0-1.8.4-2.4.8v10.3h-3.7v-13.6h2.5l.6 1.6c.8-.9 2.3-1.8 4.3-1.8 3.5 0 4.8 2 4.8 5.5v8.5h-3.6zM685.4 76.3c0 4.7-2.3 7.2-6.4 7.2-4.1 0-6.4-2.5-6.4-7.2 0-4 2.2-7.1 6.4-7.1 4.1 0 6.4 3.1 6.4 7.1zm-3.8 0c0-3.3-1-4.4-2.7-4.4s-2.7 1.2-2.7 4.4.9 4.5 2.7 4.5 2.7-1.2 2.7-4.5zM548 111.5c-2.7 0-5-.5-6.7-1v-18.2h6.3c5.5 0 8.9 2.2 8.9 9.3 0 6.1-2.6 9.9-8.5 9.9zm-.6-16.2h-2.4v12.7c.6.2 1.9.4 3.2.4 2.5 0 4.4-1.4 4.4-6.8 0-4.6-1.4-6.3-5.2-6.3zM560.7 111.2v-11.1l-1.6-.3v-2.3h5.2v13.7h-3.6zm-.1-19.3h3.7v3.3h-3.7v-3.3zM580.1 97.5l-.1 2.7c-.6 0-1.6-.2-2.6-.5.6.6 1.3 1.3 1.4 2.2 0 3.4-3.3 4.7-5.6 4.7-.5 0-1.2-.1-1.8-.3-.4.1-.7.4-.7.8 0 1.5 8.7-.3 8.7 4.9 0 3.2-3.1 5-6.5 5-2.9 0-5.8-1.3-5.8-3.8 0-1.8 1.4-2.7 3.6-3-1.7-.2-3.4-.7-3.4-2.3 0-1.1 1.1-2 2.6-2.1-1.4-.8-2.5-1.9-2.5-3.9 0-3.6 3.4-4.7 5.6-4.7 1.7 0 4.7.3 7.1.3zm-7.5 12.9c-1.3.1-2.1.8-2.1 2s1.1 2.1 2.6 2.1c1.6 0 2.7-.8 2.7-2.3.1-1.2-1-1.6-3.2-1.8zm3-8.6c0-1.6-1.4-2-2.4-2-1.1 0-2.5.4-2.5 2 0 1.7 1.3 2.2 2.5 2.2 1.1 0 2.4-.4 2.4-2.2zM583.6 111.2v-11.1l-1.6-.3v-2.3h5.2v13.7h-3.6zm-.1-19.3h3.7v3.3h-3.7v-3.3zM595.6 111.5c-2.4 0-4-1.1-4-4.6v-6.8h-2v-2.6h2v-2.4l3.6-1.2v3.5h3.7v2.6h-3.7v6.7c0 1 .5 1.6 1.5 1.6.8 0 1.5-.2 2.1-.5l.6 2.7c-.9.5-2.3 1-3.8 1zM609.7 111.2l-.5-1.6c-.7 1-2.1 1.9-4 1.9-2.7 0-4.6-1.8-4.6-4.4 0-2.5 1.9-4.1 5.2-4.1h2.9v-.7c0-1.8-1-2.3-2.4-2.3-1.6 0-3 .4-4.1.9l-.9-2.6c1.4-.6 3.2-1.1 5.4-1.1 3.9 0 5.6 1.8 5.6 5.3v8.7h-2.6zm-1.1-6h-2.3c-1.5 0-2.2.7-2.2 1.8 0 1.3.7 2 2 2 .9 0 1.8-.4 2.4-.9v-2.9zM615.4 107.5v-15.6h3.6v15.5c0 1.1.7 1.3 2.2 1.3v2.6s-1.1.2-2 .2c-2.8 0-3.8-1.5-3.8-4zM551.1 142l-.2-9.1h-.1c-.2 1.2-.4 2-.5 2.6l-1.5 6.5h-3.1l-1.5-6.5-.5-2.6h-.1l-.1 9.1h-1.9l.4-10.8h3.6s1.2 5.4 1.8 8.9c.7-3.5 2.1-8.9 2.1-8.9h3.5l.4 10.8h-2.3zM555.9 142v-6.3l-.9-.2v-1.3h3v7.8h-2.1zm0-11h2.1v1.9h-2.1v-1.9zM564.8 142v-4.7c0-1.2-.4-1.7-1.4-1.7-.5 0-1 .2-1.4.5v5.9h-2.1v-7.8h1.4l.3.9c.4-.5 1.3-1.1 2.5-1.1 2 0 2.8 1.2 2.8 3.2v4.8h-2.1zM569.3 142v-6.3l-.9-.2v-1.3h3v7.8h-2.1zm-.1-11h2.1v1.9h-2.1v-1.9zM575 136.3c0 1.2 3.4.8 3.4 3.4 0 1.4-1.1 2.5-3.1 2.5-.9 0-1.8-.3-2.4-.6l.4-1.5c.4.3 1.1.5 1.9.5.7 0 1.2-.4 1.2-.9 0-1.4-3.3-.9-3.3-3.6 0-1.2.9-2.2 3-2.2.8 0 1.7.2 2.2.4l-.3 1.5c-.5-.2-1.2-.4-1.9-.4-.7.2-1.1.4-1.1.9zM583 142.2c-1.4 0-2.3-.7-2.3-2.6v-3.9h-1.2v-1.5h1.2v-1.4l2.1-.7v2h2.1v1.5h-2.1v3.8c0 .5.3.9.8.9.4 0 .9-.1 1.2-.3l.3 1.5c-.5.5-1.3.7-2.1.7zM587.8 138.7c0 1.2.7 1.9 2 1.9.8 0 1.6-.3 2.3-.7l.4 1.5c-.7.4-1.7.8-3 .8-2.4 0-3.9-1.5-3.9-4.1 0-2.4 1.2-4.1 3.7-4.1 2.4 0 3.3 1.8 3.3 3.7v.9h-4.8zm1.5-3.1c-1 0-1.5.9-1.5 1.9h2.9c0-1.1-.3-1.9-1.4-1.9zM598.7 135.9c-.3-.1-.6-.1-1-.1-.6 0-1.1.2-1.4.5v5.7h-2.1v-7.8h1.5l.2 1.1c.2-.6.9-1.2 1.9-1.2.4 0 .7.1.9.1v1.7zM600.6 142v-6.3l-.9-.2v-1.3h3v7.8h-2.1zm0-11h2.1v1.9h-2.1v-1.9zM611.7 138.1c0 2.7-1.3 4.1-3.7 4.1-2.4 0-3.7-1.4-3.7-4.1 0-2.3 1.3-4.1 3.7-4.1 2.4 0 3.7 1.8 3.7 4.1zm-2.2 0c0-1.9-.6-2.5-1.5-2.5s-1.5.7-1.5 2.5.5 2.6 1.5 2.6 1.5-.7 1.5-2.6zM620 142.2c-1.4 0-2.7-.5-3.5-1.2l.8-1.6c.6.5 1.8 1 2.8 1 1 0 1.7-.6 1.7-1.4 0-2.3-5-1.2-5-5 0-1.6 1.3-3 3.8-3 1.3 0 2.3.3 3.2.7l-.7 1.7c-.6-.4-1.6-.6-2.5-.6-1 0-1.6.3-1.6 1.1 0 1.9 5 1.2 5 4.9-.1 1.8-1.6 3.4-4 3.4zM627.3 138.7c0 1.2.7 1.9 2 1.9.8 0 1.6-.3 2.3-.7l.4 1.5c-.7.4-1.7.8-3 .8-2.4 0-3.9-1.5-3.9-4.1 0-2.4 1.2-4.1 3.7-4.1 2.4 0 3.3 1.8 3.3 3.7v.9h-4.8zm1.4-3.1c-1 0-1.5.9-1.5 1.9h2.9c0-1.1-.3-1.9-1.4-1.9zM640 141.5c-.4.2-1.5.7-2.7.7-2.3 0-3.7-1.3-3.7-4.1 0-2.6 1.4-4.1 3.7-4.1 1 0 1.9.2 2.7.6l-.5 1.4c-.6-.3-1.3-.5-2-.5-1.1 0-1.8.7-1.8 2.5s.7 2.5 1.8 2.5c.8 0 1.6-.3 2.1-.6l.4 1.6zM645.8 135.9c-.3-.1-.6-.1-1-.1-.6 0-1.1.2-1.4.5v5.7h-2.1v-7.8h1.5l.2 1.1c.2-.6.9-1.2 1.9-1.2.4 0 .7.1.9.1v1.7zM648.5 138.7c0 1.2.7 1.9 2 1.9.8 0 1.6-.3 2.3-.7l.4 1.5c-.7.4-1.7.8-3 .8-2.4 0-3.9-1.5-3.9-4.1 0-2.4 1.2-4.1 3.7-4.1 2.4 0 3.3 1.8 3.3 3.7v.9h-4.8zm1.4-3.1c-1 0-1.5.9-1.5 1.9h2.9c0-1.1-.3-1.9-1.4-1.9zM657.8 142.2c-1.4 0-2.3-.7-2.3-2.6v-3.9h-1.2v-1.5h1.2v-1.4l2.1-.7v2h2.1v1.5h-2.1v3.8c0 .5.3.9.8.9.4 0 .9-.1 1.2-.3l.3 1.5c-.4.5-1.3.7-2.1.7zM665.9 142l-.3-.9c-.4.5-1.2 1.1-2.3 1.1-1.6 0-2.6-1-2.6-2.5s1.1-2.3 3-2.3h1.6v-.4c0-1-.6-1.3-1.4-1.3-.9 0-1.7.2-2.4.5l-.5-1.5c.8-.3 1.9-.6 3.1-.6 2.2 0 3.2 1 3.2 3v5h-1.4zm-.6-3.4h-1.3c-.9 0-1.3.4-1.3 1 0 .7.4 1.2 1.2 1.2.5 0 1-.2 1.4-.5v-1.7zM673.6 135.9c-.3-.1-.6-.1-1-.1-.6 0-1.1.2-1.4.5v5.7h-2.1v-7.8h1.5l.2 1.1c.2-.6.9-1.2 1.9-1.2.4 0 .7.1.9.1v1.7zM675.5 142v-6.3l-.9-.2v-1.3h3v7.8h-2.1zm-.1-11h2.1v1.9h-2.1v-1.9zM684.3 142l-.3-.9c-.4.5-1.2 1.1-2.3 1.1-1.6 0-2.6-1-2.6-2.5s1.1-2.3 3-2.3h1.6v-.4c0-1-.6-1.3-1.4-1.3-.9 0-1.7.2-2.4.5l-.5-1.5c.8-.3 1.9-.6 3.1-.6 2.2 0 3.2 1 3.2 3v5h-1.4zm-.6-3.4h-1.3c-.9 0-1.3.4-1.3 1 0 .7.4 1.2 1.2 1.2.5 0 1-.2 1.4-.5v-1.7zM550.2 159.2c-1.5.7-2.6 1-3.9 1-3.2 0-4.9-2.2-4.9-5.7 0-3.3 1.6-5.5 5-5.5 1.6 0 2.7.4 3.6.9l-.9 1.6c-.6-.4-1.6-.7-2.6-.7-2 0-2.8 1.4-2.8 3.6 0 2.5.9 3.9 2.8 3.9.7 0 1.3-.1 1.8-.3v-2h-1.5l-.1-1.6h3.5v4.8zM553.7 156.7c0 1.2.7 1.9 2 1.9.8 0 1.6-.3 2.3-.7l.4 1.5c-.7.4-1.7.8-3 .8-2.4 0-3.9-1.5-3.9-4.1 0-2.4 1.2-4.1 3.7-4.1 2.4 0 3.3 1.8 3.3 3.7v.9h-4.8zm1.4-3.1c-1 0-1.5.9-1.5 1.9h2.9c0-1.1-.3-1.9-1.4-1.9zM565 160v-4.7c0-1.2-.4-1.7-1.4-1.7-.5 0-1 .2-1.4.5v5.9h-2.1v-7.8h1.4l.3.9c.4-.5 1.3-1.1 2.5-1.1 2 0 2.8 1.2 2.8 3.2v4.8h-2.1zM570.6 156.7c0 1.2.7 1.9 2 1.9.8 0 1.6-.3 2.3-.7l.4 1.5c-.7.4-1.7.8-3 .8-2.4 0-3.9-1.5-3.9-4.1 0-2.4 1.2-4.1 3.7-4.1 2.4 0 3.3 1.8 3.3 3.7v.9h-4.8zm1.5-3.1c-1 0-1.5.9-1.5 1.9h2.9c0-1.1-.3-1.9-1.4-1.9zM581.5 153.9c-.3-.1-.6-.1-1-.1-.6 0-1.1.2-1.4.5v5.7h-2.1v-7.8h1.5l.2 1.1c.2-.6.9-1.2 1.9-1.2.4 0 .7.1.9.1v1.7zM587.5 160l-.3-.9c-.4.5-1.2 1.1-2.3 1.1-1.6 0-2.6-1-2.6-2.5s1.1-2.3 3-2.3h1.6v-.4c0-1-.6-1.3-1.4-1.3-.9 0-1.7.2-2.4.5l-.5-1.5c.8-.3 1.9-.6 3.1-.6 2.2 0 3.2 1 3.2 3v5h-1.4zm-.6-3.4h-1.3c-.9 0-1.3.4-1.3 1 0 .7.4 1.2 1.2 1.2.5 0 1-.2 1.4-.5v-1.7zM590.7 158v-9h2.1v8.9c0 .7.4.8 1.3.8v1.5s-.6.1-1.2.1c-1.6-.1-2.2-.9-2.2-2.3zM604 152.8c-.1-.4-.2-.8-.2-1.4v-2.4h2.1v11h-1.7l-.2-.9c-.3.5-1.1 1-2.1 1-1.8 0-3.2-1.3-3.2-4.1 0-2.6 1.5-4.1 3.4-4.1.8.1 1.5.4 1.9.9zm-.2 1.2c-.3-.2-.8-.4-1.4-.4-1 0-1.6.7-1.6 2.5 0 1.9.6 2.6 1.6 2.6.5 0 1.1-.3 1.5-.7v-4zM609.6 156.7c0 1.2.7 1.9 2 1.9.8 0 1.6-.3 2.3-.7l.4 1.5c-.7.4-1.7.8-3 .8-2.4 0-3.9-1.5-3.9-4.1 0-2.4 1.2-4.1 3.7-4.1 2.4 0 3.3 1.8 3.3 3.7v.9h-4.8zm1.4-3.1c-1 0-1.5.9-1.5 1.9h2.9c0-1.1-.3-1.9-1.4-1.9zM619.6 158v-9h2.1v8.9c0 .7.4.8 1.3.8v1.5s-.6.1-1.2.1c-1.7-.1-2.2-.9-2.2-2.3zM629.1 160l-.3-.9c-.4.5-1.2 1.1-2.3 1.1-1.6 0-2.6-1-2.6-2.5s1.1-2.3 3-2.3h1.6v-.4c0-1-.6-1.3-1.4-1.3-.9 0-1.7.2-2.4.5l-.5-1.5c.8-.3 1.9-.6 3.1-.6 2.2 0 3.2 1 3.2 3v5h-1.4zm-.6-3.4h-1.3c-.9 0-1.3.4-1.3 1 0 .7.4 1.2 1.2 1.2.5 0 1-.2 1.4-.5v-1.7zM544.9 174.3h-1.2v3.8h-2.1v-10.8h3.3c2.2 0 4.1 1.1 4.1 3.4.1 2-1.5 3.6-4.1 3.6zm0-5.3h-1.1v3.6h1.1c1.2 0 1.9-.8 1.9-1.9 0-1.1-.7-1.7-1.9-1.7zM554.8 171.9c-.3-.1-.6-.1-1-.1-.6 0-1.1.2-1.4.5v5.7h-2.1v-7.8h1.5l.2 1.1c.2-.6.9-1.2 1.9-1.2.4 0 .7.1.9.1v1.7zM557.4 174.7c0 1.2.7 1.9 2 1.9.8 0 1.6-.3 2.3-.7l.4 1.5c-.7.4-1.7.8-3 .8-2.4 0-3.9-1.5-3.9-4.1 0-2.4 1.2-4.1 3.7-4.1 2.4 0 3.3 1.8 3.3 3.7v.9h-4.8zm1.5-3.1c-1 0-1.5.9-1.5 1.9h2.9c0-1.1-.3-1.9-1.4-1.9zM565.7 172.3c0 1.2 3.4.8 3.4 3.4 0 1.4-1.1 2.5-3.1 2.5-.9 0-1.8-.3-2.4-.6l.4-1.5c.4.3 1.1.5 1.9.5.7 0 1.2-.4 1.2-.9 0-1.4-3.3-.9-3.3-3.6 0-1.2.9-2.2 3-2.2.8 0 1.7.2 2.2.4l-.3 1.5c-.5-.2-1.2-.4-1.9-.4-.8.2-1.1.4-1.1.9zM571.4 178v-6.3l-.9-.2v-1.3h3v7.8h-2.1zm-.1-11h2.1v1.9h-2.1v-1.9zM580.4 170.8c-.1-.4-.2-.8-.2-1.4v-2.4h2.1v11h-1.7l-.2-.9c-.3.5-1.1 1-2.1 1-1.8 0-3.2-1.3-3.2-4.1 0-2.6 1.5-4.1 3.4-4.1.8.1 1.5.4 1.9.9zm-.2 1.2c-.3-.2-.8-.4-1.4-.4-1 0-1.6.7-1.6 2.5 0 1.9.6 2.6 1.6 2.6.5 0 1.1-.3 1.5-.7v-4zM586 174.7c0 1.2.7 1.9 2 1.9.8 0 1.6-.3 2.3-.7l.4 1.5c-.7.4-1.7.8-3 .8-2.4 0-3.9-1.5-3.9-4.1 0-2.4 1.2-4.1 3.7-4.1 2.4 0 3.3 1.8 3.3 3.7v.9h-4.8zm1.5-3.1c-1 0-1.5.9-1.5 1.9h2.9c0-1.1-.4-1.9-1.4-1.9zM597.3 178v-4.7c0-1.2-.4-1.7-1.4-1.7-.5 0-1 .2-1.4.5v5.9h-2.1v-7.8h1.4l.3.9c.4-.5 1.3-1.1 2.5-1.1 2 0 2.8 1.2 2.8 3.2v4.8h-2.1zM607.4 177.5c-.4.2-1.5.7-2.7.7-2.3 0-3.7-1.3-3.7-4.1 0-2.6 1.4-4.1 3.7-4.1 1 0 1.9.2 2.7.6l-.5 1.4c-.6-.3-1.3-.5-2-.5-1.1 0-1.8.7-1.8 2.5s.7 2.5 1.8 2.5c.8 0 1.6-.3 2.1-.6l.4 1.6zM609.4 178v-6.3l-.9-.2v-1.3h3v7.8h-2.1zm0-11h2.1v1.9h-2.1v-1.9zM618.2 178l-.3-.9c-.4.5-1.2 1.1-2.3 1.1-1.6 0-2.6-1-2.6-2.5s1.1-2.3 3-2.3h1.6v-.4c0-1-.6-1.3-1.4-1.3-.9 0-1.7.2-2.4.5l-.5-1.5c.8-.3 1.9-.6 3.1-.6 2.2 0 3.2 1 3.2 3v5h-1.4zm-.5-3.4h-1.3c-.9 0-1.3.4-1.3 1 0 .7.4 1.2 1.2 1.2.5 0 1-.2 1.4-.5v-1.7z"/><path class="st2" d="M350.6 289.6c-1.9.9-3.4 1.3-5.2 1.3-4.1 0-6.1-3-6.1-7.5 0-4.3 2.1-7.2 6.4-7.2 2.1 0 3.5.5 4.6 1.3l-1.1 2.1c-.8-.5-1.9-.9-3.4-.9-2.5 0-3.6 1.9-3.6 4.7 0 3.3 1.2 5.2 3.5 5.2.9 0 1.8-.2 2.4-.5v-2.6h-1.9l-.1-2h4.5v6.1zM361.9 285.5c0 3.5-1.7 5.4-4.7 5.4s-4.7-1.8-4.7-5.4c0-3 1.6-5.3 4.7-5.3 3 0 4.7 2.3 4.7 5.3m-2.8 0c0-2.5-.7-3.3-2-3.3s-1.9.9-1.9 3.3.6 3.3 1.9 3.3c1.3.1 2-.8 2-3.3"/><path class="st2" d="M366.4 281.4c.5-.6 1.5-1.3 2.7-1.3 2.4 0 4.1 1.7 4.1 5.3 0 3.5-2.1 5.4-4.4 5.4-1.4 0-2.3-.6-2.9-1.4l-.5 1.2h-1.4v-14.4h2.7v3.6l-.3 1.6zm.1 6.4c.4.6 1.1 1 1.8 1 1.2 0 2-.9 2-3.3s-.8-3.3-2-3.3c-.7 0-1.4.4-1.9.8v4.8zM375.9 290.7v-8.2l-1.1-.2v-1.8h3.8v10.3h-2.7zm0-14.5h2.7v2.5h-2.7v-2.5zM383.4 286.3c0 1.6.9 2.5 2.6 2.5 1 0 2.1-.4 2.9-.9l.5 1.9c-.8.5-2.2 1-3.8 1-3.1 0-5-2-5-5.4 0-3.2 1.5-5.3 4.7-5.3 3 0 4.3 2.3 4.3 4.9v1.2h-6.2zm1.8-4.1c-1.3 0-1.9 1.2-1.9 2.4h3.7c0-1.3-.4-2.4-1.8-2.4M397.4 282.7c-.3-.1-.8-.2-1.3-.2-.7 0-1.4.3-1.8.7v7.4h-2.7v-10.3h1.9l.3 1.4h.1c.3-.7 1.2-1.6 2.4-1.6.5 0 .9.1 1.2.1-.1.9-.1 1.7-.1 2.5"/><path class="st2" d="M405.2 290.7v-6.1c0-1.5-.6-2.3-1.8-2.3-.7 0-1.3.3-1.8.6v7.7h-2.6v-10.3h1.8l.4 1.2c.6-.7 1.7-1.4 3.2-1.4 2.5 0 3.5 1.5 3.5 4.1v6.3h-2.7zM419.2 285.5c0 3.5-1.7 5.4-4.7 5.4s-4.7-1.8-4.7-5.4c0-3 1.6-5.3 4.7-5.3 3 0 4.7 2.3 4.7 5.3m-2.8 0c0-2.5-.7-3.3-2-3.3-1.2 0-1.9.9-1.9 3.3s.6 3.3 1.9 3.3c1.4.1 2-.8 2-3.3"/><path class="st2" d="M432.2 281.2c-.2-.6-.3-1.1-.3-1.9v-3.1h2.7v14.4h-2.2l-.3-1.1c-.4.6-1.4 1.3-2.7 1.3-2.3 0-4.1-1.7-4.1-5.3 0-3.4 1.9-5.3 4.3-5.3 1.2 0 2.1.4 2.6 1m-.2 1.5c-.4-.3-1-.5-1.8-.5-1.3 0-2.1.9-2.1 3.3s.8 3.4 2 3.4c.7 0 1.4-.3 1.9-.9v-5.3zM439.4 286.3c0 1.6.9 2.5 2.6 2.5 1 0 2.1-.4 2.9-.9l.5 1.9c-.8.5-2.2 1-3.8 1-3.1 0-5-2-5-5.4 0-3.2 1.5-5.3 4.7-5.3 3 0 4.2 2.3 4.2 4.9v1.2h-6.1zm1.9-4.1c-1.3 0-1.9 1.2-1.9 2.4h3.7c0-1.3-.4-2.4-1.8-2.4M457.9 290.9c-3.9 0-6-2.7-6-7.4 0-4.3 2.1-7.3 6-7.3 1.9 0 3.6.4 4.7 1.2l-1 2.2c-.7-.5-2-1-3.4-1-2.3 0-3.4 1.7-3.4 4.8 0 3.3 1.1 5 3.4 5 1.4 0 2.7-.6 3.7-1.3l.9 2.2c-1.6 1-3.1 1.6-4.9 1.6"/><path class="st2" d="M464.5 290.7v-14.4h2.7v3.8c0 .7-.2 1.4-.3 1.6.6-.7 1.4-1.4 2.8-1.4 2.9 0 3.7 1.5 3.7 4.1v6.3h-2.7v-6.1c0-.3 0-.5-.1-.6-.1-1.2-.7-1.7-1.7-1.7-.7 0-1.3.3-1.8.6v7.7h-2.6zM476.5 290.7v-8.2l-1.2-.2v-1.8h3.8v10.3h-2.6zm-.1-14.5h2.7v2.5h-2.7v-2.5zM481.6 287.9v-11.7h2.6v11.6c0 .9.5 1 1.6 1v1.9s-.8.2-1.5.2c-2 0-2.7-1.1-2.7-3M489.9 286.3c0 1.6.9 2.5 2.6 2.5 1 0 2.1-.4 2.9-.9l.5 1.9c-.8.5-2.2 1-3.8 1-3.1 0-5-2-5-5.4 0-3.2 1.5-5.3 4.7-5.3 3 0 4.2 2.3 4.2 4.9v1.2h-6.1zm1.9-4.1c-1.3 0-1.9 1.2-1.9 2.4h3.7c0-1.3-.4-2.4-1.8-2.4"/></svg>
