<svg width="143" height="60" viewBox="0 0 143 60" xmlns="http://www.w3.org/2000/svg"><title>gobierno-logo-white</title><desc>Created with Sketch.</desc><g fill="#fff" fill-rule="nonzero"><path d="M47.66 11.022h.911v.803h-.911v-.803zm.02 4.698v-2.71l-.385-.08v-.562h1.276v3.333h-.891v.02zM59.926 59.376h-32.304v-58.773h32.304v58.773zm-32.912 0h-26.386v-58.773h26.386v58.773zm-27.014.624h60.534v-60h-60.534v60zM34.393 9.295c-.628.301-1.114.462-1.782.462-1.377 0-2.066-1.064-2.066-2.409 0-1.285.689-2.329 2.147-2.329.709 0 1.155.181 1.519.422l-.385.683c-.243-.181-.628-.301-1.114-.301-.83 0-1.236.622-1.236 1.526 0 1.024.425 1.686 1.215 1.686.466 0 .77-.141.871-.201v-.823h-.689v-.642h1.499v1.927h.02zM37.208 8.031c0-.803-.243-1.084-.648-1.084-.425 0-.648.281-.648 1.084 0 .763.203 1.084.648 1.084.425 0 .648-.301.648-1.084m.932 0c0 1.124-.567 1.727-1.58 1.727-1.013 0-1.56-.602-1.56-1.727 0-.984.547-1.727 1.56-1.727s1.58.743 1.58 1.727" id="Shape"/><path d="M39.7 8.773c.142.181.365.341.608.341.385 0 .668-.281.668-1.084 0-.783-.243-1.064-.668-1.064-.223 0-.466.12-.628.261v1.546h.02zm-.061-2.048c.142-.201.506-.402.891-.402.79 0 1.357.562 1.357 1.727 0 1.144-.689 1.727-1.458 1.727-.486 0-.749-.181-.972-.462l-.162.402h-.486v-4.698h.891v1.164l-.061.542zM42.799 5.019h.891v.803h-.891v-.803zm.02 4.678v-2.67l-.385-.08v-.582h1.276v3.313h-.891v.02zM45.918 6.966c-.446 0-.628.402-.628.783h1.215c.02-.422-.122-.783-.587-.783zm-.608 1.305c0 .522.304.823.851.823.344 0 .689-.141.972-.281l.162.622c-.284.141-.729.321-1.256.321-1.053 0-1.661-.642-1.661-1.727 0-1.024.486-1.727 1.56-1.727 1.013 0 1.418.743 1.418 1.566v.381h-2.046v.02zM49.989 7.107c-.101-.04-.263-.06-.425-.06-.243 0-.446.1-.608.221v2.409h-.891v-3.293h.628l.101.442h.02c.101-.241.405-.502.79-.502.182 0 .304.02.385.04.02.261.02.502 0 .743" id="Shape"/><path d="M52.602 9.697v-1.967c0-.502-.182-.743-.608-.743-.223 0-.425.1-.587.201v2.51h-.891v-3.313h.608l.142.381c.182-.221.567-.442 1.053-.442.851 0 1.175.502 1.175 1.325v2.048h-.891zM56.329 8.031c0-.803-.243-1.084-.648-1.084-.425 0-.648.281-.648 1.084 0 .763.203 1.084.648 1.084.425 0 .648-.301.648-1.084m.932 0c0 1.124-.567 1.727-1.58 1.727-1.013 0-1.56-.602-1.56-1.727 0-.984.547-1.727 1.56-1.727s1.58.743 1.58 1.727" id="Shape"/><path d="M32.732 13.19c-.122-.1-.344-.201-.608-.201-.425 0-.689.281-.689 1.064s.243 1.084.668 1.084c.223 0 .446-.1.628-.281v-1.666zm.081-.542c0-.06-.081-.321-.081-.602v-1.004h.891v4.678h-.729l-.101-.361c-.142.201-.466.442-.891.442-.749 0-1.357-.542-1.357-1.727 0-1.104.628-1.727 1.438-1.727.365-.02.648.1.83.301zM35.811 12.969c-.446 0-.628.402-.628.783h1.215c.02-.422-.122-.783-.587-.783zm-.628 1.305c0 .522.304.823.851.823.344 0 .689-.141.972-.281l.162.622c-.284.141-.729.341-1.256.341-1.053 0-1.661-.642-1.661-1.727 0-1.024.486-1.727 1.56-1.727 1.013 0 1.418.743 1.418 1.586v.381h-2.046v-.02zM41.442 15.78c-1.296 0-2.046-.863-2.046-2.389 0-1.405.79-2.349 2.066-2.349.628 0 1.134.141 1.519.402l-.324.703c-.243-.181-.668-.321-1.134-.321-.79 0-1.175.562-1.175 1.566 0 1.064.405 1.626 1.155 1.626.506 0 .911-.161 1.215-.402l.284.683c-.446.301-.932.482-1.56.482" id="Shape"/><path d="M43.609 15.7v-4.658h.891v1.225c0 .221-.081.462-.081.522.182-.221.466-.462.952-.462.972 0 1.236.502 1.236 1.325v2.048h-.911v-1.967l-.041-.201c-.02-.361-.223-.542-.547-.542-.223 0-.425.1-.587.201v2.51h-.911zM49.301 14.816v-3.774h.871v3.313c0 .221.041.422.122.562.041.161.162.161.425.181v.622s-.243.06-.486.06c-.668 0-.932-.361-.932-.964" id="Shape"/><path d="M52.724 12.969c-.446 0-.628.402-.628.783h1.215c.02-.422-.122-.783-.587-.783zm-.608 1.305c0 .522.304.823.851.823.344 0 .689-.141.972-.281l.162.622c-.284.141-.729.341-1.256.341-1.053 0-1.661-.642-1.661-1.727 0-1.024.486-1.727 1.56-1.727 1.013 0 1.418.743 1.418 1.586v.381h-2.046v-.02zM16.285 11.745v.944c.4-.402.2-.743 0-.944M18.27 6.244c-.041.08-.162.08-.182.181-.101-.08.081-.281.182-.181m.628-.04c.081-.06.162-.241.304-.141l.203.161c.081.06.162.1.182.161.041.08-.061.281-.182.1-.081-.12-.203-.361-.385-.261-.142.08-.243.181-.284.08l.162-.1m.02.161c.061-.06.081.221.304.141-.162.201-.385 0-.304-.141m-.79.301c.02 0-.02-.141.101-.141.101 0 .284.08.304.201.02.12-.081.402.304.442v.12c0 .06-.02.141-.061.201h.061c.506.02.81-.02.952-.161l.122-.181c.122-.261.142-.502.081-.703l-.02-.04-.041-.06c-.122-.201-.405-.462-.79-.582h-.081.02.081c.284.04.729.301.83.582.081-.06.162-.201.182-.341 0-.02 0-.181.061-.341.02-.04 0-.1-.041-.12l-.101.04c-.061.141-.223.06-.162-.08.02-.04 0-.1-.041-.12l-.101.04c-.061.141-.223.06-.162-.08.02-.04 0-.1-.041-.12l-.122.04c-.061.141-.223.06-.162-.08.02-.04 0-.1-.041-.12l-.101.04c-.041.1-.081.161-.142.221.304.06.628.221.83.442l.101.12v.04l-.101-.1c-.344-.281-.648-.402-.891-.442-.162.02-.122.201-.101.321-.284-.06-.486.141-.506.341 0 .08.02.141.061.221v.02l-.081-.08-.041-.141c-.223.02-.425.141-.425.341.061.12.203.261.263.261M24.326 16.182c-.162-.181-.567-.1-.567-.1.223-.663-.385-.843-.385-.843-.223-.06-.365-.02-.466.04l-.041.04c-.061.06-.081.141-.081.221 0 .181.142.321.324.321l.182-.06c.061-.04.101-.12.122-.181l.122.141c.182.562-.466.763-.466.763-1.398.422-2.269-.301-2.269-.301l.243-.141c.081-.04.162-.04.223-.04v.04c0 .161.122.281.284.281.162 0 .284-.12.284-.281l-.041-.141-.02-.02c-.162-.241-.729-.08-.729-.08.182-.462.02-.803.02-.803-.101-.161-.081-.241-.081-.241 0-.161-.041-.181-.041-.181-.081-.12-.243-.06-.243-.06-.223.04-.284-.04-.284-.04-.182-.141-.263-.06-.263-.06-.081.06.041.201.041.201-.203 0-.263.261-.263.261-.081.422.263.462.263.462.263.02.263-.201.263-.201.041-.201-.243-.201-.243-.201.041-.12.142-.12.142-.12.304-.08.425.261.425.261.243.361-.061.723-.061.723-.041.06-.101.02-.101.02-.162-.06-.405-.241-.405-.241l-.02-.02h-.101c-.101 0-.223.04-.304.06.122.12.486.422.486.422-.284.221-.446.06-.446.06-.142-.141-.101-.381-.081-.482l-.02.02-.385.161.344.562c-.324.12-.385-.301-.405-.542l-.182.08-.061.12c.02.241.243.522.243.522-.223-.04-.365.1-.365.1-.142.12-.142.281-.142.361 0 .08.081.161.162.161s.162-.08.162-.161c0-.08-.061-.161-.162-.161.081-.181.243-.04.243-.04.243.221-.142.462-.142.462-.284.181-.547-.161-.547-.161.284-.522.344-.883.344-1.104l-.304.1c.142.462-.182.723-.182.723-.101-.06-.101-.321-.101-.321l-.101-.301-.263.06c.101.281.142.723.142.723-.061.06-.203.08-.203.08-.223.02-.101-.1-.101-.1.122-.1.081-.161.081-.161-.061-.161-.324-.02-.324-.02-.324.181-.243.381-.243.381.041.12.385.241.385.241-.182.141-.527.08-.567.08 0-.1-.081-.181-.182-.201h-.02c-.122-.02-.182.04-.223.08l-.041.08-.203-.04c-.142-.02-.223-.422-.263-.783h-.182l.122.723c-.081 0-.365-.201-.365-.201-.385-.221-.628-.161-.648-.161-.182.04-.324.201-.324.402 0 .221.182.402.405.402.223 0 .405-.181.405-.381l.284.141c.365.241.709.261.79.261.02.141.142.241.284.241.101 0 .203-.06.263-.161.77-.02 1.053-.361 1.053-.361.081-.1.101-.04.101-.04.284.402.83.161.83.161.101-.06.122.02.122.02.101.181.284.08.284.08.223-.12.081-.241.081-.241-.061-.08.02-.08.02-.08.263.04.304-.1.304-.1.061-.12-.142-.221-.142-.221-.061-.06.041-.12.041-.12.162-.08.122-.181.122-.181.182 0 .182-.08.182-.08 0-.08-.243-.08-.243-.08-.182-.02-.142-.12-.142-.12.284-.02.709-.141.709-.141.628.502 1.56.622 1.56.622.02.1-.02.221-.02.241h-.02c-.081 0-.142.06-.142.141 0 .08.061.141.142.141h.041c.304-.08.324-.502.324-.502.851.08 1.418-.542 1.418-.542.081-.08.122-.04.142-.02.041.06.101.08.182.08.081 0 .162-.04.203-.1l.041-.141c.02-.1-.02-.161-.02-.161M14.138 17.266c.081-.04.101-.141.101-.141.02-.221-.162-.341-.162-.341h-.608s-.162.1-.162.341c0 0 .02.1.101.141 0 0-.223.08-.223.241 0 0-.02.1.162.261 0 0 .142.161.182.261 0 0 .02.161.243.161s.243-.161.243-.161c.041-.12.182-.261.182-.261.182-.161.162-.261.162-.261 0-.161-.223-.241-.223-.241" id="Shape"/><path id="Shape" d="M15.718 16.532h.3l-.2-.35zM11.991 16.552h.25l-.1-.35zM11.605 16.041l-.1.4h.2l.1-.05.05-.15c0-.1 0-.15-.05-.15-.05-.05-.1-.05-.2-.05M13.317 16.161l-.182.053c-.045.026-.091.105-.091.184 0 .105 0 .158.045.211.045.053.091.053.182.053l.182-.053c.045-.026.091-.105.091-.184s0-.158-.045-.184c-.045-.053-.091-.079-.182-.079M14.689 16.161c-.091 0-.136.028-.182.056-.045.028-.045.111-.045.194s.045.167.091.194c.045.028.091.056.182.056s.136-.028.182-.056c.045-.028.045-.111.045-.194s-.045-.167-.091-.194c-.045-.028-.091-.056-.182-.056"/><path id="Shape" d="M10.735 16.341l.25.05-.05-.35zM8.698 15.318l-.15.4h.05c.1.05.15.05.2 0l.1-.15v-.15l-.05-.1c-.05.05-.1 0-.15 0M9.299 15.502c-.077-.027-.115 0-.192.027l-.115.159c-.038.08-.038.159-.038.212 0 .053.077.08.115.08.077.027.115 0 .192-.027.038-.027.115-.08.154-.186l.038-.186-.154-.08M9.751 15.66l-.15.4c.1.05.15.05.2.05l.1-.05.05-.1v-.15c-.05-.1-.1-.15-.2-.15M18.176 15.66h-.25l.1.4.2-.05.05-.1v-.15c0-.05-.05-.1-.1-.1"/><path id="Shape" d="M18.959 15.809l.25-.05-.25-.3zM19.121 15.72l-.02-.04.041-.02v-.02l-.02-.02-.02-.02-.122.04v.06l.02.02h.041l.02.04-.142.06-.02-.04.041-.1v-.381l.041-.02.263.281.061.04h.041l.02.04-.243.08zm-.689.241v-.02l.122-.442-.081.02-.081.04-.02.08-.041.02-.041-.12.365-.12v.02l-.122.442.101-.04.061-.02.02-.04v-.06l.041-.02.041.12-.365.141zm-.223.06l-.101-.1-.061-.04-.02-.02h-.041l.02.1.02.04h.041l.02.04-.243.06v-.04l.041-.02v-.04l-.061-.241-.02-.04h-.041v-.04l.182-.04.041-.02.081-.02h.061l.061.02.02.04c.02.06 0 .1-.061.141l.101.08.081.06h.041v.04l-.162.04zm-.851.201v-.04l.041-.02v-.04l-.061-.261-.02-.04h-.041v-.04l.385-.08.041.12h-.041l-.041-.04-.041-.02h-.041l-.081.02.041.161h.041l.041-.02v-.06h.041l.041.141h-.041l-.02-.04h-.082l.02.1.02.04.02.02h.061l.061-.02.02-.04v-.06h.041l.02.141-.425.08zm-.203-.301l.02.141v.08l-.02.06-.061.06-.081.04h-.101l-.081-.02-.041-.06-.02-.06-.041-.181-.02-.04h-.041v-.04l.243-.04v.04l-.041.02v.04l.041.181.02.08.041.04h.061l.061-.04.02-.06v-.08l-.02-.141-.081-.06v-.04l.162-.04v.06l-.02.02v.04zm-.527.12l-.02-.06-.041-.02h-.041l-.081.02.02.161h.041l.041-.02v-.04h.041l.02.161h-.041l-.02-.04h-.082l.02.12.02.04h.041v.04l-.243.04v-.04l.041-.02v-.04l-.041-.261-.02-.04h-.041v-.04l.385-.06.02.12-.02-.02zm-.79.442v-.04l.041-.02v-.06l-.02-.04-.142.02v.06l.02.02h.041v.04l-.142.02v-.04l.061-.08.101-.361h.041l.182.341.041.06h.041v.04l-.263.04zm-.689.06v-.04l.041-.02v-.04l-.02-.261-.02-.04h-.041v-.04l.243-.02v.04l-.041.02v.04l.02.261v.04l.02.02h.061l.081-.04.041-.08h.041l.02.141-.446.02zm-.385-.04c-.041.04-.101.08-.182.08l-.142-.02-.101-.08-.041-.12.02-.12.081-.08.122-.04c.081 0 .142.02.182.06.041.04.081.1.081.161.041.06.02.12-.02.161zm-.77-.321h-.041l-.02.02v.381h-.041l-.284-.321v.201l.02.06.041.02v.04h-.162v-.04h.041l.02-.02v-.261l-.061-.06v-.04h.162l.243.281v-.161l-.061-.08v-.04h.162v.02h-.02zm-.668.341c-.041.04-.101.06-.182.06l-.142-.04-.081-.1-.02-.12.041-.12.101-.08.122-.02c.081 0 .142.02.182.08.041.04.061.1.061.181 0 .06-.02.12-.081.161zm-.527-.381l-.284.361h.162l.041-.02.041-.06h.041l-.041.141-.405-.02v-.02l.284-.361h-.182l-.041.06h-.041l.02-.12.385.02.02.02zm-.506.381l-.223-.02v-.04h.041v-.08l-.142-.02-.02.04v.04h.041v.04l-.142-.02v-.04l.081-.06.182-.341h.041l.101.361.041.06.041.02-.041.06zm-.486-.04l-.142-.02-.061-.12-.02-.06-.041-.04-.041-.02-.02.1v.04l.041.02v.04l-.243-.04v-.04h.041l.02-.04.041-.261v-.04l-.041-.02v-.04l.182.02h.041l.081.02.061.02.041.04v.06c0 .06-.041.08-.101.1l.061.1.041.08.041.02.02.08zm-.77-.12l-.223-.04v-.04h.041v-.08l-.142-.02-.02.02-.02.04v.02l.041.02v.04l-.142-.02v-.04l.081-.06.203-.321h.041l.081.361.02.06.041.02v.04zm-.506-.08l-.405-.08v-.04h.041l.02-.04.061-.261v-.04l-.041-.02v-.04l.243.06v.04h-.041l-.02.04-.061.241v.04l.02.02.041.02.101-.02.061-.08h.041l-.061.161zm-.749-.301l.041.08.041.02v.04l-.142-.04-.041-.141-.02-.06-.041-.02-.041-.02-.02.1v.04l.041.02v.04l-.243-.06v-.04h.041l.02-.04.101-.241v-.04l-.041-.02v-.04l.182.04h.041l.081.02.041.04.041.06v.06c-.02.06-.061.08-.122.08l.041.12zm-.466-.221c-.02.06-.061.1-.122.141-.061.02-.122.04-.203 0l-.122-.08-.061-.12v-.12l.061-.1.122-.06.122.02c.081.02.122.06.162.12.061.08.061.141.041.201zm-.527-.281l-.061.06-.081.02-.101-.02-.041-.02-.041.1v.04l.041.02-.02.04-.223-.08.02-.04h.041l.02-.04.101-.261v-.04h-.02l.02-.04.182.06.101.04.061.04.02.06-.02.06zm4.355.502h.142l-.162.1h-.02l.041-.1zm6.239-.944l-.162-.04-.101.02c-.203.06-2.147.903-5.347.903-3.2 0-5.125-.843-5.347-.903l-.101-.02-.162.04-.648.502c.182 0 .405.1.405.1 1.701.743 3.666 1.044 5.833 1.064 2.188-.02 4.132-.321 5.833-1.064 0 0 .223-.1.405-.1l-.608-.502zM11.748 8.973c-.101-.15-.203-.25-.263-.4l-.243.4h.506zM12.902 8.753l-.203.25-.02.05h2.066l-.02-.05-.203-.25h-.061c-.101-.1-.182-.15-.263-.2h-1.013l-.263.2h-.02zM16.041 8.593c-.048.1-.143.25-.262.35h.5l-.238-.35zM11.397 12.668v-1.064c-.2.221-.55.642 0 1.064"/><path id="Shape" d="M13.692 10.901l-1.965-.622h1.539zM13.692 8.874h-2.633l.02.15c.02.05.061.15.101.35h2.431l.081-.5zM13.591 9.235h-2.309l.122.5h2.127l.061-.5zM13.47 9.576h-2.025l.081.5h1.884l.061-.5zM13.368 9.918h-1.803l.041.5h1.701l.061-.5zM12.214 10.62h-.628c0 .15-.02.35-.041.5h.952l-.284-.5zM12.106 10.734l-.357-.455h-.143v.5h.5v-.045zM13.713 8.874v-.02.02.201.161.201.141.201.141.201.763l1.965-.622h-1.539l-.041-.141h1.742l.041-.201h-1.843l-.061-.141h1.924l.081-.201h-2.066l-.041-.141h2.167l.122-.201h-2.35l-.041-.141h2.491l.142-.181.02-.02h-2.714v-.02zM14.178 12.026v1.566c.15-.04.35-.08.5-.1v-1.305l-.5-.161zM13.814 11.745v2.269l.182-.12.045-.02.273-.161v-1.807l-.5-.161zM13.47 11.845v1.807c.15.06.3.12.4.201l.05.02.05.04v-2.228l-.5.161zM13.105 12.106v1.345c.2.02.35.06.5.1v-1.626l-.5.181zM14.523 13.431l.5-.04v-.944l-.5-.161v1.144zM12.761 13.371c.15 0 .35.02.5.04v-1.205l-.5.161v1.004zM12.619 11.183h.142v.622l-.142.402v-1.024zm1.074-.281l-.729.261-.263-.201h-1.195l-.081.201-.081.161v1.546l.203.201v-1.907h.142v1.988l.203.1v-2.068h.142v2.128l.203.04v-2.168h.142v2.168h.203v-.883l-.122.1 1.236-1.666zM14.867 12.487l-.142-.402v-.903h.142v1.305zm1.114-1.305l-.081-.201h-1.215l-.263.201-.527-.201-.203-.08 1.175 1.646v.823h.203v-2.188h.142v2.168l.203-.04v-2.128h.142v2.088l.203-.08v-2.008h.142v1.927l.203-.161.02-.02v-1.425l-.142-.321zM14.887 11.14h.972l-.041-.5h-.628l-.304.5zM15.694 10.279l-.341.5h.5v-.5h-.159zM16.731 5.32v-.1l-.02-.261c-.101-.422-.446-.582-.709-.321 0 0 .284-.502.891-.321.142.04.263.181.344.361.081.161.041.341 0 .422.02-.1 0-.261-.061-.381-.041-.08-.101-.181-.203-.221l.142.221.041.181c0 .201-.081.402-.182.482h-.02c.101-.241.101-.442.02-.622l-.02-.06c-.081-.12-.203-.281-.385-.281.081.06.162.161.223.261.101.261.081.522-.061.642zm-2.248-2.168c-.02-.02.385.08.466.422.02.221-.101.281-.142.281v-.02c.061-.141.041-.381-.081-.502-.081-.1-.223-.161-.243-.181zm-.243 3.794c-.081-.141.142-.321.182-.462.284-.04-.061.422-.182.462zm.061.381c-.061-.02-.061-.141-.061-.201.02-.141.182-.201.263-.281.02.02 0 .241-.203.482zm.041-1.606c.182.08-.101.462-.122.542.041-.02.203-.181.263-.141.101.08-.203.482-.284.502-.425-.562.122-.723.142-.903zm-.324 1.767c-.061-.02-.02-.141-.02-.201 0-.301 0-.582-.081-.843-.041-.12-.142-.522-.405-1.024.101.12.506.743.567 1.205.02.301.081.642-.061.863zm-.243-.161c-.203 0-.223-.141-.263-.281.081.08.203.161.203 0-.081-.06-.527-.181-.405-.381.081-.1.324.321.385.181.041-.281-.871-.381-.851-.622 0-.141.709.341.81.341 0-.161-1.053-.582-1.377-1.144l-.02-.08h.02c.203.301.709.723 1.357.903.223.04.324.723.142 1.084zm-2.248-1.445c.101-.281.162-.703-.284-.803-.344-.08-.648.161-.81.321.101-.321.446-.542.911-.442-.101-.261-.446-.381-.83-.161l-.223.161c.061-.201.243-.341.425-.422.304-.1.608 0 .77.161.446.482.182 1.144.041 1.185zm-.871.241c.243-.06.446-.181.385-.422-.02-.06-.081-.12-.162-.12-.142-.02-.223.08-.304.181.02-.221.142-.341.365-.321.122.02.263.12.284.241.081.321-.223.462-.567.442zm6.178.02h.162c.648-.161.689-.964.567-1.024l-.061.141-.101.12v-.02c.142-.241.142-.442.061-.683-.061-.141-.122-.261-.263-.341-.324-.221-.992-.261-1.357 0-.122-.12-.284-.221-.466-.281-.041.201-.263.462-.466.602l-.203.1v-.04c.344-.221.527-.482.527-.803 0-.161-.061-.482-.263-.703-.324-.341-1.175-.402-1.58-.06-.101.1-.162.241-.203.402.041-.12.142-.241.324-.301.182-.06.506-.02.567.181-.304-.301-.83-.08-.911.442l-.02.04c-.02 0-.041 0-.02-.241 0-.141.061-.321.122-.462-.668-.12-1.458.201-1.438 1.185.02.141.061.261.182.402v.04c-.02 0-.101-.04-.142-.12-.061-.08-.122-.201-.162-.321-.425-.141-.668-.161-.911-.12-.243.02-.567.241-.668.381-.061.06-.101.161-.142.241-.081.161-.142.361-.122.582.041.381.223.703.506.863.385.201.871.181 1.053.161.101-.02.203-.06.304-.12l.041-.02.02-.02c.162-.141.243-.341.243-.602l.02-.02.041.161c0 .1-.02.221-.061.321v.06l.041.1c.081.08.263.1.405.06h.02c0 .02-.101.12-.263.12l-.101-.02c.101.161.365.281.648.261l.02.02c0 .02-.061.04-.162.04-.122 0-.284-.04-.405-.1.142.161.365.301.77.361.02.04-.304 0-.385-.02.182.703.567.622.567.683-.122.04-.182.181-.122.321.405-.141.709-.161.81-.161.081 0 .405.02.83.161.041-.06.041-.12.02-.181-.061-.181-.608-.321-1.134-.161l-.061.04v-.02l.061-.04c.223-.12.689-.161.952-.04.223.1.425-.181.344-.301.162.02.284-.08.304-.241l-.081.04-.122.02.061-.04c.304-.181.446-.502.425-.622-.02.06-.122.12-.203.12l-.081-.02.101-.04c.101-.08.203-.221.243-.321-.182-.181-.243-.381-.365-.663-.041-.1-.122-.201-.263-.221h-.10200000000000001c.142-.12.304 0 .405.06.02-.261.101-.321.122-.321v.02c-.182.542.182 1.044.466 1.225.385.201 1.074.241 1.519-.161l-.243.04c-.182-.06-.243-.08-.223-.12zM22.321 13.632c-.041.201-.122.683-.142.642.405-3.694.182-4.618.122-4.597-.061.02-.122.462-.324.321-.203-.12.466-.944.203-1.385l-.223.08c-.284-.08.142-.783.061-.863-.061-.06-.263-.1-.263-.361 0-.12.081-.221-.02-.321l-.142.04c-.122-.141-.02-.281-.081-.381-.041-.02-.122.08-.203.02l-.061-.221c-.122.02-.304.141-.263.341.02.1.142.161.142.281 0 .1-.122.221-.162.261-.182.402.122.482.081.622-.02.06-.142.1-.223.08-.101-.04-.142-.402-.101-.542.041-.161.284-.361.263-.462l-.122-.361c-.02-.221.142-.422.365-.381.142.02.243.141.324.241l.101.1c.243.301.446.843.567 1.285.365 1.305.527 3.333.101 5.561zm-1.843-5.24c-.061.06-.203.12-.304.161-.203.04-.365-.02-.446-.141l.466.02.182-.04.162-.08-.061.08zm-2.066 6.103v.02c-.101 0-.324-.161-.344-.161-.041-.02-.122-.08-.223-.04-.081.04-.142.141-.182.181v-.16l.02-.04.02-.02.02-.02.02-.02h.02l.182-.04c.081 0 .182.04.243.1.081.06.223.08.324.1l-.101.1zm-8.487-.482v.02h-.02l-.081.02-.142-.02.041.08.041.02.061.04c0 .06-.081.08-.122.08-.081 0-.142-.1-.182-.161l-.02-.02-.02-.02c-.081-.04-.203-.06-.304-.06.02-.201.587-.06.587-.06l.162.08zm8.71-1.385c-.466.04-.79-.402-.749-.381.02 0 .162.161.324.221.223.08.527.04.668-.08h.041c.02.02 0 .181-.284.241zm-1.681-.321l-.02.02-.02.02-.02.02h-.12100000000000001l-.02-.02h-.02l-.041-.02-.02-.02s-.061-.1.041-.12l.041.04.02.02h.041l.02-.02v-.14c.02-.161 0-.381.041-.442l.02-.02h.04v.42100000000000004c.101.08.081.181.02.261zm-.628.542c-.041.06-.385.582-1.276.582-.081 0-.81.02-1.053.462l-.02.04-.162.281-.041.02-.041-.02-.162-.281-.02-.02c-.243-.462-.972-.462-1.053-.462-.911 0-1.256-.522-1.276-.582-.446-.663-.02-1.385-.02-1.405.365-.642.324-1.064.324-1.144 0-.703-.446-1.225-.486-1.285l-.061-.141c0-.06.061-.1.081-.1l.405-.261.041-.02.041-.02.101.04c.081.06.243.201.527.201l.162-.02c.142-.02.385-.141.405-.141l.203-.1h.02c.405-.161.729-.181.83-.181.101 0 .425.02.83.181h.02l.223.1s.243.12.405.141l.162.02c.284 0 .446-.12.527-.201l.101-.04.041.02.041.02c.101.06.304.181.405.261l.061.1-.061.141c-.041.06-.486.582-.486 1.285-.02.08-.041.522.324 1.164-.02 0 .365.723-.061 1.365zm-5.327-1.205l-.02.02-.02.06-.02.04-.02.04-.02.02-.02.02-.041.02-.02.02-.041.02-.041.04h-.061v-.04l.081-.181.061-.141c.061 0 .101.02.122-.04-.081-.08-.101-.221.02-.341.162-.161 0-.522.02-.562.041.04.081.161.101.301v.58l-.02.06-.02.04-.041.02zm5.59-.723h.081l.081.02c.02 0 .081.1.101.201 0 .02.041.181.101.221.061.06.041.161-.101.141-.142-.02-.284-.221-.223-.442h-.101l-.041.02h-.02l-.02.02h-.041l-.081.08c0-.08.041-.141.122-.201l.142-.06zm-5.671-.803c-.081.02-.081-.301-.466-.221-.203.1-.365.04-.506-.02.547-.321 1.013 0 .972.241zm-1.904-2.188c-.263-.08-.547-.12-.648-.341.365.02.729.04.972.161l.02.02c.081.04.263.201.344.482-.324-.181-.425-.221-.689-.321zm-.81-1.225c-.101 0-.162-.06-.263 0 0 0-.122.1-.101.221 0 .08-.101.12-.142.06-.081-.201.223-.462.304-.482.182-.06.304.04.506.08h.324c.203.02.162.161.122.201-.182.04-.284-.08-.425-.1-.101-.04-.203.02-.324.02zm-.304.241c.243.08.263-.201.324-.141.081.12-.142.341-.324.141zm-1.418 8.593l.122.08.02.04c-.02.04-.061.04-.122.02h-.02l-.122-.08c-.041.06.041.12.081.181l-.061.04-.081-.02c-.081-.04-.101-.161-.101-.221s-.041-.161-.142-.201c.162-.1.385.141.425.161zm11.302-7.207c-.061.12-.162.241-.304.281-.263.06-.527-.161-.547-.181-.02-.04.223.1.446.1.162-.04.284-.141.405-.201zm-1.013-1.305h-.041c-.162-.08-.466-.08-.668.04-.162.08-.284.241-.304.241-.02.02.263-.422.729-.462.263.02.304.161.284.181zm5.975 3.654c-.061-1.024-.142-1.927-.385-2.771-.162-.522-.446-1.566-1.134-1.706-.324-.06-.567.221-.567.502 0 .221.162.341.101.562-.081.141-.182.321-.223.482l.061.402c-.203-.02-.324.141-.628.08-.284.12-.567.06-.567.06h.02c.304 0 .587-.1.648-.241.061-.201.02-.502-.122-.622-.182.04-.263.181-.871.161-.506-.02-.628.06-.709.361l-.02-.141c.02-.161.182-.261.385-.301l.041-.201h-.243c-.243.04-.567.181-.648.402l-.02.12.02.1.02.08c.081.161.263.261.668.281l.02.02c0 .02-.081.04-.182.02 0 0-.385 0-.547-.201l-.02.04c-.101.1-.284.201-.466.221-.182 0-.385-.1-.466-.201-.243-.321.081-.883.061-1.104-.02-.562-.79-.301-1.074-.161-.344.181-.608.462-.83.723-.122.141-.243.321-.324.482.101.04.385.181.608.181h.101c.122 0 .324-.02.486-.161.02-.02.081-.06.182-.06.061 0 .142.02.182.08.041.04.527.422.689.522l.081.12c0 .04 0 .1-.061.161-.041.04-.284.321-.446.703l-.061.181c-.061.201-.101.522.182.622 0 0 .324.08.284-.442 0 0 .061.341.304.321.101 0 .203-.1.182-.341-.02-.221-.02-.462.02-.743v-.02l.02.141c.02.141-.081 1.345.911 2.168 0 0-.425-.201-.709-.723-.162.1-.405.321-.284.763.061.161.162.301.243.341l.02.02c0 .02-.061.06-.142-.04l-.041-.04-.081-.161c-.122-.1-.223-.201-.324-.321-.081-.161-.041-.642-.506-.642h-.041l-.081.02h-.02c-.122-.422-.081-.683-.081-.743.101-.602.527-1.124.587-1.185l.041-.08-.02-.04c-.162-.1-.648-.482-.689-.522l-.122-.06-.101.04c-.223.221-.466.241-.587.241h-.101c-.284 0-.628-.161-.689-.201-.466-.201-.83-.201-.911-.201-.061 0-.425 0-.911.201-.061.04-.405.201-.689.201h-.101c-.122 0-.385-.02-.567-.181l-.101-.04-.122.06c-.061.04-.527.422-.689.522l-.02.04.041.08c.041.06.486.562.587 1.185v.261l-.122-.321-.061-.181c-.061-.1-.162-.181-.263-.241l-.263-.12c-.122-.08-.263-.181-.344-.341 0-.321-.162-.542-.162-.542.041-.02.243.12.263.462.223-.241.344-.582.425-.964.162-.241.648-.141.83-.1l.162.06.142.141c.081.04.162 0 .263 0l.061.12h.061c.263 0 .608-.181.648-.181l.041-.02c-.101-.12-.263-.161-.405-.181-.182-.02-.284-.181-.446-.221l-.243-.02c-.385.04-.648-.1-.992-.12-.344-.02-.344.201-.466.402-.041.08-.101.161-.162.201l-.304.181-.02-.02c-.02-.12-.081-.301-.162-.422l-.02-.04c-.182-.281-.385-.502-.79-.602l-.142-.08c-.061-.06-.02-.12 0-.12l.446-.1c.324-.141.203-.422.081-.442-.162-.02-.466-.1-.506-.141-.081-.04-.122-.181-.263-.221-.101-.04-.182-.02-.263-.02l-.182.06c.081-.1.203-.161.365-.161-.142-.04-.101-.261-.223-.321-.061 0-.142.02-.223.06 0-.08-.061-.321-.182-.402-.101-.06-.142.04-.142.1 0 .06.162.12.203.361l-.081.06c-.02-.1-.061-.261-.182-.321-.101-.06-.142.04-.142.1 0 .06.142.12.182.321l-.101.1c-.223-.06-.263-.201-.324-.221-.061-.02-.162.02-.101.141.061.12.223.181.304.201l-.061.08c-.243-.04-.304-.221-.365-.221-.061-.02-.162.02-.101.12.061.141.324.201.385.221l-.061.181c-.203-.02-.547.08-.486.301.061.04.304-.141.506-.04.142.221.365.221.425.261.081.06.101.181.122.281.061.181.203.341.304.502.122.181.243.381.365.522l.02.161c-.142.221-.567.502-.749.663-.182.161-1.863 1.445-2.086 1.988-.041.12-.081.281-.061.442-.101.06-.284.02-.344-.04-.101-.12.122-.261.061-.422-.02-.06-.122-.1-.182-.06-.122.04-.142.301-.081.442l.041.12c-.061.02-.101-.04-.101-.12-.041.02-.061.08-.061.141.041.12.182.12.223.161 0 .06-.081.08-.142.02-.101.141.02.181.041.201.101.02.203-.08.284-.08.02.06-.02.1-.122.12.162.201.324-.141.506-.1.061.02.587.502.506.883l-.101.06c-.122.141-.304.261-.446.402-.284.181.263 1.285.223 1.847-.041.221.182.181.324.542-.142 0-.263.04-.344.141l-.02.02-.041.141c0 .161.122.281.284.281.162 0 .284-.12.284-.281v-.04l.223.04.243.141s-.871.723-2.269.301c0 0-.628-.201-.466-.763 0 0 .041-.1.122-.141.02.08.061.141.122.181l.182.06c.182 0 .324-.141.324-.321 0-.08-.041-.161-.081-.221l-.041-.04c-.101-.06-.243-.1-.466-.04 0 0-.608.181-.385.843 0 0-.405-.1-.567.1 0 0-.061.06-.041.161l.041.141c.041.06.122.1.203.1.081 0 .142-.04.182-.08.02-.02.061-.04.142.02 0 0 .567.622 1.418.542 0 0 .02.442.324.502h.041c.081 0 .142-.06.142-.141 0-.08-.061-.141-.142-.141h-.02c0-.02-.041-.141-.02-.241 0 0 .932-.12 1.539-.622 0 0 .425.12.709.141 0 0 .041.1-.142.12 0 0-.243 0-.243.08 0 0-.02.08.182.08 0 0-.02.08.122.181 0 0 .101.06.041.12 0 0-.182.1-.122.221 0 0 .041.141.304.1 0 0 .081 0 .02.08 0 0-.122.141.081.241 0 0 .162.1.284-.08 0 0 .02-.06.122-.02 0 0 .547.241.83-.161 0 0 .02-.06.101.04 0 0 .284.341 1.053.361.041.1.142.161.263.161.142 0 .263-.1.284-.241.101 0 .425-.02.79-.261l.263-.141c0 .221.182.381.405.381.223 0 .405-.181.405-.402 0-.201-.142-.361-.324-.402 0 0-.263-.08-.648.161 0 0-.304.201-.365.201 0 0 .081-.341.122-.723l-.162-.02c-.041.361-.122.763-.263.783l-.203.04-.041-.08c-.041-.04-.101-.1-.223-.08h-.02c-.101.02-.162.1-.162.201-.041 0-.385.06-.567-.08 0 0 .344-.12.385-.241 0 0 .101-.201-.243-.381 0 0-.243-.141-.324.02 0 0-.02.06.081.161 0 0 .122.12-.101.1 0 0-.162-.02-.203-.08 0 0 .041-.422.142-.723l-.263-.06-.101.301s-.02.241-.101.321c0 0-.324-.261-.182-.723l-.304-.1c-.02.221.041.582.344 1.104 0 0-.263.341-.547.161 0 0-.385-.241-.142-.462 0 0 .162-.141.243.04-.081 0-.162.08-.162.161 0 .08.081.161.162.161s.162-.06.162-.161c0-.06.02-.241-.142-.361 0 0-.142-.141-.365-.1 0 0 .223-.281.243-.522l.02-.1-.182-.08c-.02.241-.081.663-.405.542l.344-.562-.385-.161-.041-.02c.02.1.061.341-.081.482 0 0-.162.141-.446-.06 0 0 .365-.301.486-.422-.081-.02-.203-.06-.304-.06h-.101l-.02.02s-.243.181-.405.241l-.101-.02s-.304-.341-.061-.723c0 0 .142-.321.425-.261 0 0 .081 0 .142.12 0 0-.284.02-.243.201 0 0 0 .201.263.201 0 0 .344-.04.263-.462 0 0-.061-.261-.263-.261 0 0 .122-.141.041-.201 0 0-.081-.08-.263.06 0 0-.041.1-.284.04 0 0-.162-.06-.243.06 0 0-.041.02-.041.181 0 0 .02.06-.081.241 0 0-.061.12-.061.301-.081-.06-.142-.1-.243-.1-.122-.12-.122-.683-.243-.944-.02-.06.061-.341.061-.642.851-.181 1.175-.823 1.256-1.104.142-.462-.041-.944-.061-1.064h.02l.101.221c.405.04.689-.04.891-.1l.041-.02.041-.02.101-.04.041-.02c.587-.301.871-.783 1.033-1.064-.081-.02-.344-.1-.425-.221.223.02.385.1.608.1.324 0 .547-.181.891-.141 0 .02.041.161.284.261 0 .201.02.381.081.522l.02.06s-.263.201-.203.381l.061.141h-.041c-.041-.02-.081.06-.142.141-.02.04-.162.341-.061.361h.061c-.061.301-.061.683.203 1.044.02.02.405.642 1.438.642h.02c.101 0 1.013.02 1.337.622.02.04.101.141.162.141.081 0 .142-.1.162-.141.324-.602 1.236-.622 1.337-.622h.02c1.033 0 1.418-.622 1.438-.642.122-.181.182-.381.203-.562.203-.1.182-.562.203-.642.061.08.182.301.425.361-.041.221-.02.562.203.622.061 0 .122-.1.101-.181.203.562.041.924.182.964.203 0 .203-.341.223-.341.02.02.081.141.081.281 0 .181-.02.341.061.381.263.04.142-.723.344-.663-.061.341 0 .542.142.602 0 .161-.02.301-.081.301-.385.08-.729-.221-1.074-.12l-.041-.02c-.608-.321-1.013-.08-1.053-.12-.182-.161-.243.08-.284.06-.324-.181-.506.12-.587.141-.081.02-.203-.161-.365.201-.061.161-.425.221-.466.241-.142.02-.182-.08-.182-.08l-.041-.1-.061-.08c-.041-.04-.101-.06-.142-.04-.101 0-.182.1-.182.201l.041.12.081-.04c.081 0 .142.06.142.141 0 .161-.243.321-.243.321-.142.12-.324-.06-.324-.06-.101-.08-.182-.08-.182-.08-.101 0-.162.12-.162.12s-.041-.12-.162-.12l-.182.08s-.182.181-.324.06c0 0-.243-.161-.243-.321 0-.08.061-.141.142-.141l.081.04.041-.12c0-.1-.081-.201-.182-.201l-.142.04-.061.08-.041.1s-.041.1-.182.08c-.02 0-.385-.08-.446-.241-.142-.361-.284-.181-.365-.201-.081-.02-.263-.321-.587-.141-.061.02-.122-.201-.284-.06-.041.02-.344-.161-.83.02-.02-.06-.182-.08-.223-.1-.101-.02-.182-.1-.243-.141-.142-.06-.365-.02-.527-.04-.061 0-.142-.04-.203-.08-.203-.12-.446-.281-.567-.462l-.081-.1c-.061-.08-.101-.141-.142-.261-.081-.241.041-.522.081-.763l.02-.241c-.203.06-.446.06-.77-.04.081.261.101.542.061.763.122.1.203.241.203.321.02.12-.041.261.02.361.101.161.365.281.506.402.061.04.749.562.83.582l.243-.04.081.04.142.12c-.203.12-.466.281-.668.381 0 0-.304.161-.162.181 0 0 .223 0 .243.04l-.243.1c.324.12.668.221 1.013.321.223-.221.486-.442.77-.542 0 0 .385.02.527-.261.041-.08.203.161.547-.02l.182.1c.041 0-.142.04-.101.181 0 .02-.284 0-.365.161-.02.04-.628.04-1.175.482l.304.06c.182-.141.385-.221.648-.201 0 0 .324.02.466.402l.628.08c.061-.02.344-.161.223-.341 0 0-.061-.08-.182.02 0 0-.081.06-.101-.04l-.041-.12s-.061-.08.061-.04c0 0 .101.04.203.02.101 0 .182-.08.182-.201 0-.1-.081-.201-.182-.201l-.081-.04.02.06-.061.08c-.122-.04-.081-.261.081-.261 0 0 .142 0 .263.141 0 0 .284.402.527.502.02 0-.041.141.122.201.02 0 0 .12.162.12l.081.141h.871l.081-.141c.162.02.142-.1.162-.12.162-.04.101-.181.122-.201.263-.08.527-.502.527-.502.122-.141.263-.141.263-.141.162 0 .203.241.081.261l-.061-.08.02-.06-.02-.02c-.122 0-.182.1-.182.201 0 .1.081.181.182.201.101.02.203-.02.203-.02.122-.04.061.04.061.04l-.041.12c-.041.1-.101.04-.101.04-.122-.12-.182-.02-.182-.02-.122.161.162.301.223.341.203-.02.425-.04.628-.08.142-.381.466-.402.466-.402.243-.02.466.08.648.201l.304-.06c-.527-.442-1.134-.442-1.175-.482-.101-.161-.385-.141-.365-.161.041-.141-.142-.181-.101-.181l.182-.1c.344.181.506-.06.547.02.122.281.527.261.527.261.263.1.547.321.77.542.304-.08.608-.181.911-.281v-.02l-.02-.06v-.02l-.041-.08-.223-.301-.02-.02s.223-.341.365-.1c.02.02-.02.12-.162.12 0 0 .162.261.203.442l.142-.06h.041l-.182-.321c.041-.02.162.04.223-.06l.061-.281.223.06c.243 0 .324-.361.263-.462.041-.02.162-.141.182-.1.081.161.446.341.425-.02.061.181.101.381.324.361.162-.04.061-.301.101-.301.041.08.101.381.344.301.061-.02.122-.08.122-.181.02-.281-.81-1.767-.891-2.429l-.041-.02c-.081-.04-.081-.161-.081-.261v-.02c-.101-.02-.263-.1-.284-.381 0-.241.101-.361.142-.361v.02c-.061.201-.101.422.041.542l.142.06c.041-.08.101-.12.122-.12v.02c-.081.141-.081.321 0 .402l.142.06c.223-.08.344-.522.405-.642.162.04-.243.903.061 1.104.122-.02.203-.161.243-.281.101.261-.324.803-.02.924.182.04.263-.422.263-.361l-.081 1.185c.203.1.284-.502.284-.422 0 .763-.405.984-.223 1.124.203.08.324-.381.324-.281-.02.683-.365.883-.203 1.104.182.261.506-.442.527-.321.02.161-.385.964-.142 1.024.203.04.263-.221.284-.281.486-2.028.506-3.955.466-4.618z"/><path d="M63.774.604v58.793h37.822v-58.793h-37.822zm38.431-.604v60h-39.04v-60h39.04zM104.569 59.396h37.822v-58.793h-37.822v58.793zm38.431-59.396v60h-39.04v-60h39.04z" id="Rectangle-path"/><path d="M32.226 55.23c0-.301-.263-.381-.446-.381-.203 0-.466.08-.466.381 0 .321.243.402.466.402.203 0 .446-.08.446-.402m-.547 1.586c-.243.02-.385.161-.385.381 0 .221.203.381.486.381.304 0 .506-.161.506-.422-.02-.221-.203-.301-.608-.341m1.398-2.389l-.02.502c-.122 0-.304-.04-.486-.08.122.1.243.241.263.402 0 .622-.628.863-1.053.863l-.324-.04c-.081.02-.122.08-.122.141 0 .281 1.62-.04 1.62.903 0 .602-.567.924-1.215.924-.547 0-1.074-.241-1.074-.703 0-.321.263-.502.689-.562-.324-.04-.628-.141-.628-.422 0-.221.203-.361.486-.381-.263-.141-.466-.361-.466-.723 0-.683.648-.863 1.053-.863.243-.02.83.04 1.276.04M35.122 55.692c0-.602-.182-.823-.506-.823s-.506.221-.506.823c0 .582.162.823.506.823.324 0 .506-.221.506-.823m.689 0c0 .863-.446 1.325-1.195 1.325-.77 0-1.195-.462-1.195-1.325 0-.743.425-1.305 1.195-1.305.77-.02 1.195.562 1.195 1.305" id="Shape"/><path d="M37.006 56.254c.101.141.284.261.466.261.304 0 .527-.221.527-.823s-.203-.823-.506-.823c-.182 0-.365.08-.466.201v1.185h-.02zm-.041-1.566c.122-.161.385-.301.689-.301.608 0 1.033.422 1.033 1.305s-.527 1.325-1.114 1.325c-.365 0-.587-.141-.749-.361l-.122.301h-.365v-3.574h.689v.883l-.061.422z" id="Shape"/><path d="M39.112 56.234h1v1h-1z"/><path d="M42.373 56.796c-.142.08-.486.221-.871.221-.77 0-1.215-.422-1.215-1.325 0-.823.466-1.325 1.215-1.325.344 0 .628.06.871.201l-.182.462c-.182-.1-.425-.161-.648-.161-.365 0-.587.241-.587.803 0 .582.223.803.587.803.263 0 .527-.1.689-.201l.142.522zM42.819 56.294v-2.891h.668v2.871c0 .221.122.241.405.241v.482s-.203.04-.385.04c-.486-.02-.689-.301-.689-.743" id="Shape"/><g id="Group"><g id="Shape"><path d="M67.895 56.133c-.385.181-.689.261-1.053.261-.83 0-1.236-.602-1.236-1.506 0-.863.425-1.445 1.296-1.445.425 0 .709.1.932.261l-.223.422c-.162-.1-.385-.181-.689-.181-.506 0-.729.381-.729.944 0 .663.243 1.044.709 1.044.182 0 .365-.04.486-.1v-.522h-.385l-.02-.402h.911v1.225zM70.184 55.31c0 .703-.344 1.084-.952 1.084s-.952-.361-.952-1.084c0-.602.324-1.064.952-1.064.608 0 .952.462.952 1.064m-.567 0c0-.502-.142-.663-.405-.663s-.385.181-.385.663c0 .482.122.663.385.663.284.02.405-.161.405-.663"/><path d="M71.095 54.487c.101-.12.304-.261.547-.261.486 0 .83.341.83 1.064 0 .703-.425 1.084-.891 1.084-.284 0-.466-.12-.587-.281l-.101.241h-.284v-2.891h.547v.723l-.061.321zm.02 1.285c.081.12.223.201.365.201.243 0 .405-.181.405-.663 0-.482-.162-.663-.405-.663-.142 0-.284.08-.385.161v.964h.02zM73.04 56.354v-1.646l-.223-.04v-.361h.77v2.068h-.547v-.02zm-.02-2.911h.547v.502h-.547v-.502zM74.539 55.471c0 .321.182.502.527.502.203 0 .425-.08.587-.181l.101.381c-.162.1-.446.201-.77.201-.628 0-1.013-.402-1.013-1.084 0-.642.304-1.064.952-1.064.608 0 .871.462.871.984v.241h-1.256v.02zm.365-.823c-.263 0-.385.241-.385.482h.749c0-.261-.081-.482-.365-.482zM77.374 54.748l-.263-.04c-.142 0-.284.06-.365.141v1.486h-.547v-2.068h.385l.061.281h.02c.061-.141.243-.321.486-.321l.243.02c-.02.181-.02.341-.02.502"/><path d="M78.954 56.354v-1.225c0-.301-.122-.462-.365-.462-.142 0-.263.06-.365.12v1.546h-.547v-2.068h.365l.081.241c.122-.141.344-.281.648-.281.506 0 .709.301.709.823v1.265h-.527v.04zM81.79 55.31c0 .703-.344 1.084-.952 1.084s-.952-.361-.952-1.084c0-.602.324-1.064.952-1.064.608 0 .952.462.952 1.064m-.567 0c0-.502-.142-.663-.405-.663-.243 0-.385.181-.385.663 0 .482.122.663.385.663.284.02.405-.161.405-.663"/><path d="M84.423 54.447c-.041-.12-.061-.221-.061-.381v-.622h.547v2.891h-.446l-.061-.221c-.081.12-.284.261-.547.261-.466 0-.83-.341-.83-1.064 0-.683.385-1.064.871-1.064.243 0 .425.08.527.201zm-.041.301c-.081-.06-.203-.1-.365-.1-.263 0-.425.181-.425.663 0 .482.162.683.405.683.142 0 .284-.06.385-.181v-1.064zM85.882 55.471c0 .321.182.502.527.502.203 0 .425-.08.587-.181l.101.381c-.162.1-.446.201-.77.201-.628 0-1.013-.402-1.013-1.084 0-.642.304-1.064.952-1.064.608 0 .851.462.851.984v.241h-1.236v.02zm.385-.823c-.263 0-.385.241-.385.482h.749c0-.261-.081-.482-.365-.482zM89.629 56.394c-.79 0-1.215-.542-1.215-1.486 0-.863.425-1.466 1.215-1.466.385 0 .729.08.952.241l-.203.442c-.142-.1-.405-.201-.689-.201-.466 0-.689.341-.689.964 0 .663.223 1.004.689 1.004.284 0 .547-.12.749-.261l.182.442c-.324.201-.628.321-.992.321"/><path d="M90.966 56.354v-2.891h.547v.763c0 .141-.041.281-.061.321.122-.141.284-.281.567-.281.587 0 .749.301.749.823v1.265h-.547v-1.225l-.02-.12c-.02-.241-.142-.341-.344-.341-.142 0-.263.06-.365.12v1.546h-.527v.02zM93.396 56.354v-1.646l-.243-.04v-.361h.77v2.068h-.527v-.02zm-.02-2.911h.547v.502h-.547v-.502zM94.429 55.792v-2.349h.527v2.329c0 .181.101.201.324.201v.381s-.162.04-.304.04c-.405 0-.547-.221-.547-.602"/><path d="M96.11 55.471c0 .321.182.502.527.502.203 0 .425-.08.587-.181l.101.381c-.162.1-.446.201-.77.201-.628 0-1.013-.402-1.013-1.084 0-.642.304-1.064.952-1.064.608 0 .851.462.851.984v.241h-1.236v.02zm.385-.823c-.263 0-.385.241-.385.482h.749c0-.261-.081-.482-.365-.482z"/></g><g id="Shape"><path d="M68.928 8.854l-.081-2.971h-.02c-.061.381-.122.642-.182.843l-.506 2.128h-1.013l-.486-2.128-.182-.843h-.02l-.041 2.971h-.628l.142-3.533h1.195s.385 1.767.587 2.911h.02c.243-1.124.709-2.911.709-2.911h1.155l.142 3.533h-.79zM70.508 8.854v-2.068l-.304-.06v-.422h.992v2.55h-.689zm-.02-3.594h.689v.622h-.689v-.622zM73.425 8.854v-1.526c0-.381-.142-.562-.466-.562-.182 0-.324.08-.446.161v1.927h-.689v-2.55h.466l.101.301c.142-.181.425-.341.81-.341.648 0 .911.381.911 1.024v1.586h-.689v-.02zM74.903 8.854v-2.068l-.304-.06v-.422h.992v2.55h-.689zm-.02-3.594h.689v.622h-.689v-.622zM76.807 6.967c0 .402 1.114.281 1.114 1.104 0 .462-.344.823-1.013.823-.304 0-.608-.08-.77-.181l.142-.482c.122.08.365.181.608.181.223 0 .385-.12.385-.281 0-.462-1.094-.301-1.094-1.185 0-.381.284-.723.992-.723.263 0 .547.06.729.12l-.101.502c-.182-.08-.385-.141-.628-.141-.263.02-.365.12-.365.261zM79.42 8.914c-.466 0-.749-.221-.749-.863v-1.265h-.385v-.482h.385v-.442l.689-.221v.663h.689v.482h-.689v1.245c0 .181.081.301.284.301.142 0 .284-.04.405-.1l.101.502c-.203.08-.466.181-.729.181zM81 7.75c0 .402.223.622.668.622.263 0 .527-.1.749-.221l.142.482c-.223.12-.567.241-.972.241-.79 0-1.276-.482-1.276-1.345 0-.783.385-1.325 1.215-1.325.77 0 1.094.582 1.094 1.225v.301h-1.62v.02zm.486-1.004c-.344 0-.486.301-.486.602h.952c0-.321-.101-.602-.466-.602zM84.605 6.866c-.081-.02-.203-.04-.324-.04-.182 0-.344.08-.466.181v1.867h-.689v-2.57h.486l.081.341h.02c.081-.181.304-.402.608-.402.142 0 .243.02.304.04l-.02.582zM85.233 8.854v-2.068l-.304-.06v-.422h.992v2.55h-.689zm-.02-3.594h.689v.622h-.689v-.622zM88.859 7.569c0 .863-.446 1.345-1.215 1.345-.77 0-1.215-.462-1.215-1.345 0-.743.425-1.325 1.215-1.325s1.215.582 1.215 1.325zm-.709 0c0-.622-.182-.823-.506-.823s-.506.221-.506.823.162.843.506.843.506-.221.506-.843zM92.201 6.505c-.041-.141-.061-.281-.061-.462v-.763h.689v3.594h-.567l-.081-.281c-.101.161-.344.341-.689.341-.587 0-1.053-.422-1.053-1.325 0-.843.486-1.325 1.114-1.325.284-.04.506.06.648.221zm-.061.381c-.101-.06-.263-.12-.466-.12-.324 0-.527.221-.527.823s.203.843.527.843c.182 0 .344-.08.486-.221v-1.325h-.02zM94.024 7.75c0 .402.223.622.668.622.263 0 .527-.1.749-.221l.142.482c-.223.12-.567.241-.972.241-.79 0-1.276-.482-1.276-1.345 0-.783.385-1.325 1.215-1.325.77 0 1.094.582 1.094 1.225v.301h-1.62v.02zm.486-1.004c-.344 0-.486.301-.486.602h.952c0-.321-.101-.602-.466-.602zM65.829 14.174v-3.513h2.188v.582h-1.499v.863h1.134l-.061.602h-1.094v.903h1.499v.562zM70.407 13.993c-.142.08-.486.221-.891.221-.77 0-1.236-.442-1.236-1.325 0-.843.466-1.325 1.236-1.325.344 0 .628.06.891.201l-.182.462c-.182-.1-.425-.161-.648-.161-.365 0-.587.241-.587.823s.223.823.587.823c.263 0 .527-.1.709-.201l.122.482zM73.182 12.889c0 .863-.446 1.345-1.215 1.345-.77 0-1.215-.462-1.215-1.345 0-.743.425-1.325 1.215-1.325s1.215.582 1.215 1.325zm-.689 0c0-.622-.182-.823-.506-.823s-.506.221-.506.823.162.843.506.843c.324 0 .506-.221.506-.843zM75.308 14.174v-1.526c0-.381-.142-.562-.466-.562-.182 0-.324.08-.446.161v1.927h-.689v-2.55h.466l.101.301c.142-.181.425-.341.81-.341.648 0 .911.381.911 1.024v1.586h-.689v-.02zM78.894 12.889c0 .863-.446 1.345-1.215 1.345-.77 0-1.215-.462-1.215-1.345 0-.743.425-1.325 1.215-1.325.77 0 1.215.582 1.215 1.325zm-.709 0c0-.622-.182-.823-.506-.823s-.506.221-.506.823.162.843.506.843.506-.221.506-.843zM81.689 12.588v1.586h-.689v-1.526c0-.381-.142-.562-.466-.562-.182 0-.324.08-.446.161v1.927h-.689v-2.55h.466l.122.301c.142-.181.405-.341.77-.341.425 0 .668.12.81.361.162-.181.425-.361.77-.361.729 0 .952.381.952 1.024v1.586h-.709v-1.546c0-.381-.162-.562-.486-.562-.162 0-.324.08-.446.161.02.1.041.221.041.341zM83.674 11.223l-.061-.402 1.337-.361.081.502-1.357.261zm.365 2.951v-2.068l-.304-.06v-.422h.992v2.55h-.689zM86.955 14.174l-.101-.301c-.122.181-.385.361-.749.361-.506 0-.871-.321-.871-.823 0-.482.344-.763.972-.763h.547v-.141c0-.321-.182-.442-.446-.442-.304 0-.567.08-.77.181l-.182-.482c.263-.1.608-.201 1.013-.201.729 0 1.053.341 1.053.984v1.626h-.466zm-.182-1.124h-.425c-.284 0-.425.141-.425.321 0 .241.122.381.385.381.162 0 .324-.08.466-.181v-.522zM87.968 13.431h.689v.783c0 .442-.243.622-.689.663v-.361c.101-.02.162-.1.162-.361l-.162-.08v-.642zM66.518 16.543v.964h1.134l-.061.602h-1.094v1.365h-.668v-3.493h2.188v.582h-1.499zM70.407 18.209c0 .863-.446 1.345-1.215 1.345-.77 0-1.215-.462-1.215-1.345 0-.743.425-1.325 1.215-1.325.77 0 1.215.582 1.215 1.325zm-.709 0c0-.622-.182-.823-.506-.823s-.506.221-.506.823.162.843.506.843c.324 0 .506-.221.506-.843zM73.202 17.908v1.586h-.689v-1.526c0-.381-.142-.562-.466-.562-.182 0-.324.08-.446.161v1.927h-.689v-2.55h.466l.122.301c.142-.181.405-.341.77-.341.425 0 .668.12.81.361.162-.181.425-.361.77-.361.729 0 .952.381.952 1.024v1.586h-.709v-1.526c0-.381-.162-.562-.486-.562-.162 0-.324.08-.446.161.02.08.041.201.041.321zM75.936 18.39c0 .402.223.622.668.622.263 0 .527-.1.749-.221l.142.482c-.223.12-.567.241-.972.241-.79 0-1.276-.482-1.276-1.345 0-.783.385-1.325 1.215-1.325.77 0 1.094.582 1.094 1.225v.301h-1.62v.02zm.486-1.004c-.344 0-.486.301-.486.602h.952c0-.321-.101-.602-.466-.602zM79.663 19.494v-1.526c0-.381-.142-.562-.466-.562-.182 0-.324.08-.446.161v1.927h-.689v-2.55h.466l.101.301c.142-.181.425-.341.81-.341.648 0 .911.381.911 1.024v1.586h-.689v-.02zM81.891 19.555c-.466 0-.749-.221-.749-.863v-1.265h-.385v-.482h.385v-.442l.689-.221v.663h.689v.482h-.689v1.245c0 .181.081.301.284.301.142 0 .284-.04.405-.1l.101.502c-.203.08-.466.181-.729.181zM85.213 18.209c0 .863-.446 1.345-1.215 1.345-.77 0-1.215-.462-1.215-1.345 0-.743.425-1.325 1.215-1.325.77 0 1.215.582 1.215 1.325zm-.709 0c0-.622-.182-.823-.506-.823s-.506.221-.506.823.162.843.506.843.506-.221.506-.843zM87.866 19.434l-.486.08-.77-2.59h.77l.547 2.148h.02l.547-2.148h.689l-.79 2.63c-.223.743-.587 1.004-1.134 1.004-.284 0-.608-.161-.729-.261l.223-.462h.061c.02.02.243.181.486.181.284 0 .446-.181.547-.522l.02-.06zM67.146 21.863v2.951h-.709v-2.951h-.851v-.582h2.451v.582h-.891zM69.738 24.815l-.101-.321c-.122.161-.405.361-.81.361-.648 0-.932-.361-.932-1.064v-1.546h.689v1.546c0 .402.142.542.446.542.182 0 .344-.06.466-.161v-1.927h.709v2.55h-.466v.02zM72.23 22.827c-.081-.02-.203-.04-.324-.04-.182 0-.344.08-.466.181v1.867h-.689v-2.55h.486l.081.341h.02c.081-.181.304-.402.608-.402.142 0 .243.02.304.04l-.02.562zM72.858 24.815v-2.068l-.304-.06v-.422h.992v2.55h-.689zm-.02-3.594h.689v.622h-.689v-.622zM74.762 22.927c0 .402 1.114.281 1.114 1.104 0 .462-.344.823-1.013.823-.304 0-.608-.08-.77-.181l.142-.482c.122.08.365.181.608.181.223 0 .385-.12.385-.281 0-.462-1.094-.301-1.094-1.185 0-.381.284-.723.992-.723.263 0 .547.06.729.12l-.101.502c-.182-.08-.385-.141-.628-.141-.243.02-.365.12-.365.261zM78.711 23.228v1.586h-.689v-1.526c0-.381-.142-.562-.466-.562-.182 0-.324.08-.446.161v1.927h-.689v-2.55h.466l.122.301c.142-.181.405-.341.77-.341.425 0 .668.12.81.361.162-.181.425-.361.77-.361.729 0 .952.381.952 1.024v1.586h-.709v-1.546c0-.381-.162-.562-.486-.562-.162 0-.324.08-.446.161.041.1.041.221.041.341zM83.188 23.53c0 .863-.446 1.345-1.215 1.345-.77 0-1.215-.462-1.215-1.345 0-.743.425-1.325 1.215-1.325.77 0 1.215.582 1.215 1.325zm-.709 0c0-.622-.182-.823-.506-.823s-.506.221-.506.823.162.843.506.843c.324 0 .506-.221.506-.843z"/></g></g><g id="Group"><path d="M109.701 56.133c-.385.181-.689.261-1.053.261-.83 0-1.236-.602-1.236-1.506 0-.863.425-1.445 1.296-1.445.425 0 .709.1.932.261l-.223.422c-.162-.1-.385-.181-.689-.181-.506 0-.729.381-.729.944 0 .663.243 1.044.709 1.044.182 0 .365-.04.486-.1v-.522h-.385l-.02-.402h.911v1.225zM111.989 55.31c0 .703-.344 1.084-.952 1.084s-.952-.361-.952-1.084c0-.602.324-1.064.952-1.064.608 0 .952.462.952 1.064m-.567 0c0-.502-.142-.663-.405-.663s-.385.181-.385.663c0 .482.122.663.385.663.263.02.405-.161.405-.663" id="Shape"/><path d="M112.901 54.487c.101-.12.304-.261.547-.261.486 0 .83.341.83 1.064 0 .703-.425 1.084-.891 1.084-.284 0-.466-.12-.587-.281l-.101.241h-.284v-2.891h.547v.723l-.061.321zm.02 1.285c.081.12.223.201.365.201.243 0 .405-.181.405-.663 0-.482-.162-.663-.405-.663-.142 0-.284.08-.385.161v.964h.02zM114.825 56.354v-1.646l-.223-.04v-.361h.77v2.068h-.547v-.02zm0-2.911h.547v.502h-.547v-.502zM116.344 55.471c0 .321.182.502.527.502.203 0 .425-.08.587-.181l.101.381c-.162.1-.446.201-.77.201-.628 0-1.013-.402-1.013-1.084 0-.642.304-1.064.952-1.064.608 0 .871.462.871.984v.241h-1.256v.02zm.365-.823c-.263 0-.385.241-.385.482h.749c0-.261-.081-.482-.365-.482zM119.18 54.748l-.263-.04c-.142 0-.284.06-.365.141v1.486h-.547v-2.068h.385l.061.281h.02c.061-.141.243-.321.486-.321l.243.02c-.02.181-.02.341-.02.502" id="Shape"/><path d="M120.76 56.354v-1.225c0-.301-.122-.462-.365-.462-.142 0-.263.06-.365.12v1.546h-.527v-2.068h.365l.081.241c.122-.141.344-.281.648-.281.506 0 .709.301.709.823v1.265h-.547v.04zM123.595 55.31c0 .703-.344 1.084-.952 1.084s-.952-.361-.952-1.084c0-.602.324-1.064.952-1.064.608 0 .952.462.952 1.064m-.567 0c0-.502-.142-.663-.405-.663-.243 0-.385.181-.385.663 0 .482.122.663.385.663.284.02.405-.161.405-.663" id="Shape"/><path d="M126.229 54.447c-.041-.12-.061-.221-.061-.381v-.622h.547v2.891h-.446l-.061-.221c-.081.12-.284.261-.547.261-.466 0-.83-.341-.83-1.064 0-.683.385-1.064.871-1.064.243 0 .425.08.527.201zm-.041.301c-.081-.06-.203-.1-.365-.1-.263 0-.425.181-.425.663 0 .482.162.683.405.683.142 0 .284-.06.385-.181v-1.064zM127.687 55.471c0 .321.182.502.527.502.203 0 .425-.08.587-.181l.101.381c-.162.1-.446.201-.77.201-.628 0-1.013-.402-1.013-1.084 0-.642.304-1.064.952-1.064.608 0 .851.462.851.984v.241h-1.236v.02zm.385-.823c-.263 0-.385.241-.385.482h.749c0-.261-.081-.482-.365-.482zM131.434 56.394c-.79 0-1.215-.542-1.215-1.486 0-.863.425-1.466 1.215-1.466.385 0 .729.08.952.241l-.203.442c-.142-.1-.405-.201-.689-.201-.466 0-.689.341-.689.964 0 .663.223 1.004.689 1.004.284 0 .547-.12.749-.261l.182.442c-.324.201-.628.321-.992.321" id="Shape"/><path d="M132.771 56.354v-2.891h.547v.763c0 .141-.041.281-.061.321.122-.141.284-.281.567-.281.587 0 .749.301.749.823v1.265h-.547v-1.225l-.02-.12c-.02-.241-.142-.341-.344-.341-.142 0-.263.06-.365.12v1.546h-.527v.02zM135.202 56.354v-1.646l-.243-.04v-.361h.77v2.068h-.527v-.02zm-.02-2.911h.547v.502h-.547v-.502zM136.235 55.792v-2.349h.527v2.329c0 .181.101.201.324.201v.381s-.162.04-.304.04c-.405 0-.547-.221-.547-.602" id="Shape"/><path d="M137.916 55.471c0 .321.182.502.527.502.203 0 .425-.08.587-.181l.101.381c-.162.1-.446.201-.77.201-.628 0-1.013-.402-1.013-1.084 0-.642.304-1.064.952-1.064.608 0 .851.462.851.984v.241h-1.236v.02zm.385-.823c-.263 0-.385.241-.385.482h.749c0-.261-.081-.482-.365-.482z" id="Shape"/></g><g><path d="M108.404 7.388c-.527 0-.952-.08-1.256-.181v-3.413h1.175c1.053 0 1.701.442 1.701 1.727 0 1.144-.527 1.867-1.62 1.867zm-.122-3.032h-.486v2.389c.122.04.344.08.608.08.486 0 .83-.261.83-1.305.061-.843-.203-1.164-.952-1.164zM110.734 7.308v-3.513h.689v3.554h-.689zM112.86 7.308h-.689v-3.513h1.134c.749 0 1.317.301 1.317 1.044 0 .482-.263.823-.689 1.044.263.482.527.944.749 1.466h-.83l-.527-1.345h-.385v1.305h-.081zm.344-2.991h-.344v1.124h.344c.446 0 .648-.221.648-.602.02-.381-.203-.522-.648-.522zM115.17 7.308v-3.513h2.188v.562h-1.479v.863h1.134l-.041.602h-1.094v.903h1.479v.562zM119.241 7.388c-1.013 0-1.519-.642-1.519-1.867 0-1.084.527-1.827 1.519-1.807.486 0 .911.08 1.215.301l-.263.562c-.182-.12-.527-.261-.871-.261-.608 0-.871.442-.871 1.205 0 .823.304 1.245.871 1.265.344 0 .689-.12.952-.341l.223.562c-.385.261-.77.381-1.256.381zM122.259 7.408c-1.175 0-1.519-.863-1.519-1.867 0-.903.344-1.767 1.519-1.767 1.215 0 1.519.863 1.519 1.767 0 .944-.344 1.867-1.519 1.867zm0-3.092c-.608 0-.79.562-.79 1.205 0 .683.182 1.305.79 1.305.608 0 .79-.562.79-1.305-.02-.622-.142-1.185-.79-1.205zM126.087 7.308l-1.094-2.771.041 2.771h-.608v-3.513h1.053l1.134 2.851-.081-2.831h.648v3.554h-1.094zM109.073 12.588l-.041-1.988c-.041.261-.081.442-.122.562l-.344 1.425h-.689l-.263-1.425c-.041-.12-.081-.301-.122-.562l-.041 1.988h-.446l.081-2.329h.79s.263 1.164.385 1.947c.182-.783.486-1.947.486-1.947h.79l.081 2.329h-.547zM110.106 12.588v-1.385l-.223-.04v-.301h.648v1.727h-.425zm-.041-2.429h.486v.442h-.486v-.442zM111.989 12.588v-1.004c0-.261-.081-.381-.304-.381-.122 0-.223.04-.304.08v1.305h-.486v-1.727h.304l.081.221c.081-.12.304-.221.567-.221.446 0 .608.261.608.683v1.044h-.466zM112.901 12.588v-1.385l-.182-.04v-.301h.648v1.727h-.466zm0-2.429h.486v.442h-.486v-.442zM114.137 11.283c0 .261.749.181.749.743 0 .301-.223.562-.689.562-.223 0-.385-.04-.527-.12l.081-.301c.081.04.263.12.385.12s.263-.08.263-.181c0-.301-.749-.221-.749-.783 0-.261.182-.482.648-.482.182 0 .344.04.486.08l-.041.341c-.122-.04-.263-.08-.446-.08-.081-.02-.162.02-.162.1zM115.838 12.588c-.304 0-.527-.12-.527-.562v-.863h-.263v-.341h.263v-.301l.446-.12v.442h.486v.341h-.486v.863c0 .12.041.221.182.221l.263-.04.081.341-.446.02zM116.871 11.845c0 .261.182.442.446.442.182 0 .344-.08.527-.12l.081.301c-.122.08-.385.181-.648.181-.527 0-.83-.341-.83-.903 0-.522.263-.903.83-.903.527 0 .749.381.749.823v.221l-1.155-.04zm.304-.683c-.223 0-.304.221-.304.381h.608c.02-.201-.081-.381-.304-.381zM119.2 11.243l-.223-.04c-.122 0-.223.04-.304.12v1.245h-.446v-1.727h.304l.041.221c.041-.12.223-.261.385-.261.081 0 .182 0 .223.04l.02.402zM119.585 12.588v-1.385l-.223-.04v-.301h.648v1.727h-.425zm-.041-2.429h.486v.442h-.486v-.442zM121.935 11.725c0 .562-.304.903-.83.903-.527 0-.83-.301-.83-.903 0-.522.263-.903.83-.903s.83.381.83.903zm-.466 0c0-.442-.122-.562-.344-.562-.223 0-.344.12-.344.562 0 .381.081.562.344.562.243 0 .344-.181.344-.562zM124.082 10.982c-.041-.08-.041-.181-.041-.301v-.522h.446v2.429h-.385l-.041-.181c-.081.08-.223.221-.446.221-.385 0-.689-.261-.689-.903 0-.562.304-.903.749-.903.182 0 .324.08.405.161zm-.041.261c-.081-.04-.182-.08-.304-.08-.223 0-.344.12-.344.562 0 .381.122.562.344.562.122 0 .223-.04.304-.12v-.924zM125.256 11.865c0 .261.182.442.446.442.182 0 .344-.08.527-.12l.081.301c-.122.08-.385.181-.648.181-.527 0-.83-.341-.83-.903 0-.522.263-.903.83-.903.527 0 .749.381.749.823v.221l-1.155-.04zm.304-.703c-.223 0-.304.221-.304.381h.608c0-.201-.041-.381-.304-.381zM107.493 16.041h-.446v-2.329h.79c.486 0 .83.221.83.683 0 .301-.182.562-.446.683.182.341.344.642.527.944h-.527l-.385-.903h-.263v.903l-.081.02zm.223-1.988h-.223v.743h.223c.304 0 .446-.12.446-.381-.02-.281-.182-.361-.446-.361zM109.194 15.319c0 .261.182.442.446.442.182 0 .344-.08.527-.12l.081.301c-.122.08-.385.181-.648.181-.527 0-.83-.341-.83-.903 0-.522.263-.903.83-.903.527 0 .749.381.749.823v.221l-1.155-.04zm.344-.663c-.223 0-.304.221-.304.381h.608c0-.201-.081-.381-.304-.381zM110.592 15.62v-1.947h.446v1.947c0 .12.081.181.263.181v.301s-.122.04-.263.04c-.324-.06-.446-.221-.446-.522zM112.597 16.041l-.041-.221c-.081.12-.263.221-.527.221-.344 0-.567-.221-.567-.562 0-.301.223-.522.648-.522h.344v-.08c0-.221-.122-.301-.304-.301-.223 0-.385.04-.527.12l-.081-.261c.182-.08.385-.12.689-.12.486 0 .689.221.689.642v1.084h-.324zm-.122-.723h-.304c-.182 0-.263.08-.263.221 0 .181.081.261.263.261.081 0 .223-.04.304-.12v-.361zM114.643 15.961c-.081.04-.344.12-.608.12-.527 0-.83-.301-.83-.903 0-.562.304-.903.83-.903.223 0 .446.04.608.12l-.122.301c-.122-.08-.263-.08-.446-.08-.223 0-.385.181-.385.562 0 .381.122.562.385.562.182 0 .344-.08.486-.12l.081.341zM115.048 16.041v-1.385l-.182-.04v-.301h.648v1.727h-.466zm0-2.369h.486v.442h-.486v-.442zM117.438 15.218c0 .562-.304.903-.83.903-.527 0-.83-.301-.83-.903 0-.522.263-.903.83-.903.527 0 .83.402.83.903zm-.466 0c0-.442-.122-.562-.344-.562-.223 0-.344.12-.344.562 0 .381.081.562.344.562.203-.04.344-.161.344-.562zM118.795 16.041v-1.004c0-.261-.081-.381-.304-.381-.122 0-.223.04-.304.08v1.305h-.486v-1.727h.304l.081.221c.081-.12.304-.221.567-.221.446 0 .608.261.608.683v1.044h-.466zM119.97 15.319c0 .261.182.442.446.442.182 0 .344-.08.527-.12l.081.301c-.122.08-.385.181-.648.181-.527 0-.83-.341-.83-.903 0-.522.263-.903.83-.903.527 0 .749.381.749.823v.221l-1.155-.04zm.365-.642c-.223 0-.304.221-.304.381h.608c0-.221-.101-.381-.304-.381zM121.773 14.797c0 .261.749.181.749.743 0 .301-.223.562-.689.562-.223 0-.385-.04-.527-.12l.081-.301c.081.04.263.12.385.12s.263-.08.263-.181c0-.301-.749-.221-.749-.783 0-.261.182-.482.648-.482.182 0 .344.04.486.08l-.041.341c-.122-.04-.263-.08-.446-.08-.122-.02-.162.02-.162.1zM123.555 16.061v-2.329h1.438v.381h-1.013v.562h.79l-.041.381h-.749v.602h1.013v.381zM125.864 15.539l-.304.562h-.486l.608-.903-.567-.823h.608l.263.482.263-.482h.486l-.527.863.567.863h-.567zM127.566 16.101c-.304 0-.527-.12-.527-.562v-.863h-.263v-.341h.263v-.301l.446-.12v.442h.486v.341h-.486v.823c0 .12.041.221.182.221l.263-.04.081.341c-.081.02-.263.06-.446.06zM128.578 15.319c0 .261.182.442.446.442.182 0 .344-.08.527-.12l.081.301c-.122.08-.385.181-.648.181-.527 0-.83-.341-.83-.903 0-.522.263-.903.83-.903.527 0 .749.381.749.823v.221l-1.155-.04zm.304-.642c-.223 0-.304.221-.304.381h.608c0-.221-.041-.381-.304-.381zM130.928 14.756l-.223-.04c-.122 0-.223.04-.304.12v1.245h-.446v-1.727h.304l.041.221c.041-.12.223-.261.385-.261.081 0 .182 0 .223.04l.02.402zM131.272 16.061v-1.385l-.223-.04v-.301h.648v1.727h-.425zm.02-2.389h.486v.442h-.486v-.442zM133.683 15.238c0 .562-.304.903-.83.903-.527 0-.83-.301-.83-.903 0-.522.263-.903.83-.903.527-.02.83.381.83.903zm-.486 0c0-.442-.122-.562-.344-.562-.223 0-.344.12-.344.562 0 .381.081.562.344.562.263 0 .344-.181.344-.562zM134.959 14.756l-.223-.04c-.122 0-.223.04-.304.12v1.245h-.446v-1.727h.304l.041.221c.041-.12.223-.261.385-.261.081 0 .182 0 .223.04l.02.402zM135.465 15.319c0 .261.182.442.446.442.182 0 .344-.08.527-.12l.081.301c-.122.08-.385.181-.648.181-.527 0-.83-.341-.83-.903 0-.522.263-.903.83-.903.527 0 .749.381.749.823v.221l-1.155-.04zm.304-.642c-.223 0-.304.221-.304.381h.608c.061-.221-.041-.381-.304-.381zM137.268 14.797c0 .261.749.181.749.743 0 .301-.223.562-.689.562-.223 0-.385-.04-.527-.12l.081-.301c.081.04.263.12.385.12s.263-.08.263-.181c0-.301-.749-.221-.749-.783 0-.261.182-.482.648-.482.182 0 .344.04.486.08l-.041.341c-.122-.04-.263-.08-.446-.08-.122-.02-.162.02-.162.1z"/></g></g></svg>