<?xml version="1.0" encoding="utf-8"?>
<!-- Generator: Adobe Illustrator 21.0.0, SVG Export Plug-In . SVG Version: 6.00 Build 0)  -->
<svg version="1.1" id="Capa_1" xmlns="http://www.w3.org/2000/svg" xmlns:xlink="http://www.w3.org/1999/xlink" x="0px" y="0px"
	 viewBox="0 0 70 70" style="enable-background:new 0 0 70 70;" xml:space="preserve">
<style type="text/css">
	.st0{fill:#F2F2F2;}
</style>
<g>
	<title>role-specific</title>
	<desc>Created with Sketch.</desc>
	<g>
		<g>
			<path class="st0" d="M16.5,30.5c0-2.7,2.2-4.8,4.8-4.8h19.4c2.7,0,4.8,2.2,4.8,4.8v0.7H35.2v-0.7c0-1.1-0.9-2.1-2.1-2.1h-2.8
				c-1.1,0-2.1,0.9-2.1,2.1v0.7H16.5V30.5z M33.1,36.1h-2.8c-0.4,0-0.7-0.3-0.7-0.7v-4.8c0-0.4,0.3-0.7,0.7-0.7h2.8
				c0.4,0,0.7,0.3,0.7,0.7v4.8C33.8,35.8,33.5,36.1,33.1,36.1z M38.6,48.5H21.4c-2.7,0-4.8-2.2-4.8-4.8V32.6h11.8v2.8
				c0,1.1,0.9,2.1,2.1,2.1h2.8c1.1,0,2.1-0.9,2.1-2.1v-2.8h10.4V34c0,0.4,0.3,0.7,0.7,0.7c0.4,0,0.7-0.3,0.7-0.7v-3.5
				c0-3.4-2.8-6.2-6.2-6.2H21.4c-3.4,0-6.2,2.8-6.2,6.2v13.1c0,3.4,2.8,6.2,6.2,6.2h17.3c0.4,0,0.7-0.3,0.7-0.7
				C39.3,48.8,39,48.5,38.6,48.5L38.6,48.5z"/>
			<path class="st0" d="M24.1,22.9c0.4,0,0.7-0.3,0.7-0.7v-0.7c0-1.1,0.9-2.1,2.1-2.1h9c1.1,0,2.1,0.9,2.1,2.1v0.7
				c0,0.4,0.3,0.7,0.7,0.7c0.4,0,0.7-0.3,0.7-0.7v-0.7c0-1.9-1.5-3.5-3.5-3.5h-9c-1.9,0-3.5,1.5-3.5,3.5v0.7
				C23.4,22.6,23.7,22.9,24.1,22.9"/>
		</g>
	</g>
</g>
<g>
	<g>
		<g>
			<path class="st0" d="M45.9,46.7c-0.5,0-0.9,0.4-0.9,0.9s0.4,0.9,0.9,0.9s0.9-0.4,0.9-0.9S46.4,46.7,45.9,46.7z"/>
			<path class="st0" d="M44.2,41.8v0.5h1.2v-0.6c0-0.4,0.2-0.6,0.6-0.6s0.6,0.2,0.6,0.6s-0.2,0.7-0.4,1.1c-0.4,0.6-0.8,1.3-0.8,2.5
				h1.2c0-0.8,0.3-1.3,0.6-1.9c0.3-0.5,0.6-1,0.6-1.7c0-1.1-0.9-1.9-2.1-1.8C44.8,40.1,44.2,40.9,44.2,41.8z"/>
			<path class="st0" d="M45.9,37.1c-4,0-7.2,3.2-7.2,7.2s3.2,7.2,7.2,7.2s7.2-3.2,7.2-7.2S49.9,37.1,45.9,37.1z M45.9,50.3
				c-3.3,0-6-2.7-6-6c0-3.3,2.7-6,6-6s6,2.7,6,6C51.9,47.6,49.2,50.3,45.9,50.3z"/>
		</g>
	</g>
</g>
</svg>
