<?xml version="1.0" encoding="utf-8"?>
<!-- Generator: Adobe Illustrator 21.0.0, SVG Export Plug-In . SVG Version: 6.00 Build 0)  -->
<svg version="1.1" id="Capa_1" xmlns="http://www.w3.org/2000/svg" xmlns:xlink="http://www.w3.org/1999/xlink" x="0px" y="0px"
	 viewBox="0 0 70 70" style="enable-background:new 0 0 70 70;" xml:space="preserve">
<style type="text/css">
	.st0{fill:#F2F2F2;}
</style>
<g>
	<title>role-specific</title>
	<desc>Created with Sketch.</desc>
	<g>
		<g>
			<path class="st0" d="M17.5,31.5c0-2.7,2.2-4.8,4.8-4.8h19.4c2.7,0,4.8,2.2,4.8,4.8v0.7H36.2v-0.7c0-1.1-0.9-2.1-2.1-2.1h-2.8
				c-1.1,0-2.1,0.9-2.1,2.1v0.7H17.5V31.5z M34.1,37.1h-2.8c-0.4,0-0.7-0.3-0.7-0.7v-4.8c0-0.4,0.3-0.7,0.7-0.7h2.8
				c0.4,0,0.7,0.3,0.7,0.7v4.8C34.8,36.8,34.5,37.1,34.1,37.1z M39.6,49.5H22.4c-2.7,0-4.8-2.2-4.8-4.8V33.6h11.8v2.8
				c0,1.1,0.9,2.1,2.1,2.1h2.8c1.1,0,2.1-0.9,2.1-2.1v-2.8h10.4V35c0,0.4,0.3,0.7,0.7,0.7c0.4,0,0.7-0.3,0.7-0.7v-3.5
				c0-3.4-2.8-6.2-6.2-6.2H22.4c-3.4,0-6.2,2.8-6.2,6.2v13.1c0,3.4,2.8,6.2,6.2,6.2h17.3c0.4,0,0.7-0.3,0.7-0.7
				C40.3,49.8,40,49.5,39.6,49.5L39.6,49.5z"/>
			<path class="st0" d="M25.1,23.9c0.4,0,0.7-0.3,0.7-0.7v-0.7c0-1.1,0.9-2.1,2.1-2.1h9c1.1,0,2.1,0.9,2.1,2.1v0.7
				c0,0.4,0.3,0.7,0.7,0.7c0.4,0,0.7-0.3,0.7-0.7v-0.7c0-1.9-1.5-3.5-3.5-3.5h-9c-1.9,0-3.5,1.5-3.5,3.5v0.7
				C24.4,23.6,24.7,23.9,25.1,23.9"/>
			<path class="st0" d="M49.1,40.5c0,1.1-0.9,2.1-2.1,2.1c-1.1,0-2.1-0.9-2.1-2.1c0-1.1,0.9-2.1,2.1-2.1
				C48.2,38.5,49.1,39.4,49.1,40.5 M43.6,40.5c0,1.9,1.6,3.5,3.5,3.5c1.9,0,3.5-1.6,3.5-3.5c0-1.9-1.6-3.5-3.5-3.5
				C45.1,37.1,43.6,38.6,43.6,40.5"/>
			<path class="st0" d="M47.1,45.4c-3,0-5.5,2.2-5.5,4.8c0,0.4,0.3,0.7,0.7,0.7c0.4,0,0.7-0.3,0.7-0.7c0-1.9,1.9-3.5,4.1-3.5
				c2.3,0,4.1,1.5,4.1,3.4c0,0.4,0.3,0.7,0.7,0.7c0.4,0,0.7-0.3,0.7-0.7C52.5,47.5,50.1,45.4,47.1,45.4"/>
		</g>
	</g>
</g>
</svg>
