<?xml version="1.0" encoding="utf-8"?>
<!-- Generator: Adobe Illustrator 21.0.0, SVG Export Plug-In . SVG Version: 6.00 Build 0)  -->
<svg version="1.1" id="Capa_1" xmlns="http://www.w3.org/2000/svg" xmlns:xlink="http://www.w3.org/1999/xlink" x="0px" y="0px"
	 viewBox="0 0 70 70" style="enable-background:new 0 0 70 70;" xml:space="preserve">
<style type="text/css">
	.st0{fill:#F2F2F2;}
</style>
<g>
	<g>
		<path class="st0" d="M35.5,26.4c0.4,0,0.7-0.1,1.2-0.1c2.9-0.6,4.7-3.5,4-6.4c-0.4-1.4-1.2-2.6-2.3-3.3c-1.2-0.7-2.6-1-4-0.7
			c-2.9,0.6-4.7,3.5-4,6.4C30.8,24.7,32.9,26.4,35.5,26.4z M37.4,17.9c0.8,0.5,1.4,1.4,1.6,2.3c0.5,2-0.8,4-2.8,4.5
			c-2,0.5-4-0.8-4.5-2.8c-0.5-2,0.8-4,2.8-4.5c0.3-0.1,0.5-0.1,0.8-0.1C36.1,17.4,36.8,17.5,37.4,17.9z"/>
		<path class="st0" d="M38.6,27.6h-6.4c0,0-4.1,1.9-4.3,4.1v7.3c0.3,2,1.1,3.4,2.5,3.9l-3,9.2c-0.1,0.4,0.1,0.9,0.5,1
			c0.1,0,0.2,0.1,0.3,0.1c0.4,0,0.6-0.2,0.7-0.5l0.1-0.3l3.2-9.8c0.1-0.3,0.1-0.5-0.1-0.7c-0.1-0.2-0.4-0.4-0.6-0.4
			c-1.6,0-1.8-1.6-1.7-2.4v-7.3c0-1.3,2.4-2.2,2.4-2.2h6.3c0,0,2.4,1,2.5,2.2v7.3c-0.1,2.2-1.3,2.4-1.9,2.4c-0.3,0-0.5,0.1-0.6,0.4
			c-0.1,0.2-0.2,0.5-0.1,0.7l2.5,9.9l0.1,0.2c0.1,0.5,0.5,0.7,1,0.5c0.5-0.1,0.7-0.5,0.5-1L40.2,43c1.4-0.5,2.4-1.9,2.7-3.9v-7.3
			C42.7,29.5,38.6,27.6,38.6,27.6z"/>
	</g>
</g>
</svg>
