<?xml version="1.0" encoding="utf-8"?>
<!-- Generator: Adobe Illustrator 21.0.0, SVG Export Plug-In . SVG Version: 6.00 Build 0)  -->
<svg version="1.1" id="Capa_1" xmlns="http://www.w3.org/2000/svg" xmlns:xlink="http://www.w3.org/1999/xlink" x="0px" y="0px"
	 viewBox="0 0 70 70" style="enable-background:new 0 0 70 70;" xml:space="preserve">
<style type="text/css">
	.st0{fill:#F2F2F2;}
</style>
<g>
	<g>
		<g>
			<path class="st0" d="M25.9,35.2c-1.7,0-3,1.4-3,3c0,1.7,1.4,3,3,3c1.7,0,3-1.4,3-3C28.9,36.6,27.5,35.2,25.9,35.2z M25.9,40.3
				c-1.1,0-2.1-0.9-2.1-2.1c0-1.1,0.9-2.1,2.1-2.1s2.1,0.9,2.1,2.1S27,40.3,25.9,40.3z"/>
			<path class="st0" d="M42.3,41.3c1.7,0,3-1.4,3-3c0-1.7-1.4-3-3-3c-1.7,0-3,1.4-3,3C39.2,39.9,40.6,41.3,42.3,41.3z M42.3,36.2
				c1.1,0,2.1,0.9,2.1,2.1c0,1.1-0.9,2.1-2.1,2.1s-2.1-0.9-2.1-2.1C40.2,37.1,41.1,36.2,42.3,36.2z"/>
			<path class="st0" d="M12.9,51.2c0-0.3,0-0.7,0.2-1c0.5-1.3,1.8-2.2,3.2-2.2H19c0.2,0,0.4,0,0.6,0.1c1.7,0.4,2.7,1.7,2.7,3.1v4.7
				h1v-4.7c0-1.1-0.4-2.1-1.1-2.9c-0.3-0.3-0.5-0.5-0.9-0.7l0-0.4c0-0.3,0-0.6,0.1-0.9c0.4-1.4,1.7-2.2,2.9-2.2l3.1,0
				c0.5,0,0.9,0.1,1.4,0.3c1.2,0.5,1.9,1.7,1.9,2.9v0.3c-0.3,0.2-0.6,0.4-0.9,0.7c-0.7,0.8-1.1,1.8-1.1,2.9v4.7h1l0-5
				c0-0.1,0-0.1,0-0.2c0.3-1.6,1.8-2.7,3.3-2.7l2.9,0c0.1,0,0.1,0,0.2,0c1.8,0.3,2.9,1.7,2.9,3.2v4.7h0.5v-4.7
				c0-1.1-0.4-2.1-1.1-2.9c-0.3-0.3-0.5-0.5-0.9-0.7v-0.4c0-0.3,0-0.6,0.1-0.9c0.4-1.4,1.7-2.2,2.9-2.2h3.2c1.3,0,2.6,1,3,2.5
				c0,0.2,0.1,0.4,0.1,0.6l0,0.4c-0.3,0.2-0.6,0.4-0.9,0.7c-0.7,0.8-1.1,1.8-1.1,2.9v4.5h1l0-4.6c0-0.3,0-0.7,0.2-1
				c0.5-1.3,1.8-2.2,3.2-2.2l2.5,0c0.4,0,0.7,0,1.1,0.1c1.5,0.5,2.4,1.7,2.4,3v4.7h1l0-4.7c0-0.2,0-0.5-0.1-0.7
				c-0.4-2.1-2.3-3.4-4.2-3.4h-2.6c-0.4,0-0.8,0.1-1.2,0.2c0-1.1-0.4-2.1-1.2-2.8c-0.8-0.8-1.9-1.3-3.1-1.3h-2.9
				c-1.1,0-2.3,0.5-3.1,1.3c-0.8,0.8-1.2,1.7-1.2,2.8c-0.4-0.1-0.8-0.2-1.2-0.2h-2.6c-0.4,0-0.8,0.1-1.2,0.2c0-1.1-0.4-2.1-1.2-2.8
				c-0.8-0.8-1.9-1.3-3.1-1.3h-3.1c-1.1,0-2.3,0.5-3.1,1.3c-0.8,0.8-1.2,1.7-1.2,2.8c-0.4-0.1-0.8-0.2-1.2-0.2h-2.6
				c-1.1,0-2.3,0.5-3.1,1.3c-0.8,0.8-1.2,1.8-1.2,2.9v4.6h1V51.2z"/>
			<path class="st0" d="M17.7,45.3c1.7,0,3-1.4,3-3c0-1.7-1.4-3-3-3c-1.7,0-3,1.4-3,3C14.7,43.9,16,45.3,17.7,45.3z M17.7,40.2
				c1.1,0,2.1,0.9,2.1,2.1c0,1.1-0.9,2.1-2.1,2.1s-2.1-0.9-2.1-2.1C15.6,41.1,16.6,40.2,17.7,40.2z"/>
			<path class="st0" d="M34.1,39.2c-1.7,0-3,1.4-3,3c0,1.7,1.4,3,3,3c1.7,0,3-1.4,3-3C37.1,40.6,35.7,39.2,34.1,39.2z M34.1,44.3
				c-1.1,0-2.1-0.9-2.1-2.1c0-1.1,0.9-2.1,2.1-2.1c1.1,0,2.1,0.9,2.1,2.1C36.1,43.4,35.2,44.3,34.1,44.3z"/>
			<path class="st0" d="M50.4,45.3c1.7,0,3-1.4,3-3c0-1.7-1.4-3-3-3c-1.7,0-3,1.4-3,3C47.4,43.9,48.8,45.3,50.4,45.3z M50.4,40.2
				c1.1,0,2.1,0.9,2.1,2.1c0,1.1-0.9,2.1-2.1,2.1c-1.1,0-2.1-0.9-2.1-2.1C48.4,41.1,49.3,40.2,50.4,40.2z"/>
		</g>
	</g>
</g>
<path class="st0" d="M33.6,14.8c-3.9,0-7.1,3.2-7.1,7.1c0,3.9,3.2,7.1,7.1,7.1s7.1-3.2,7.1-7.1C40.7,18,37.6,14.8,33.6,14.8z
	 M31.4,16.7c-0.4,0.5-0.7,1.1-0.9,1.8H29C29.6,17.7,30.4,17.1,31.4,16.7z M28.4,19.3h1.9c-0.2,0.7-0.3,1.5-0.3,2.4h-2.3
	C27.8,20.8,28,20,28.4,19.3z M28.3,24.8c-0.4-0.7-0.6-1.5-0.7-2.4H30c0,0.8,0.1,1.6,0.3,2.4H28.3z M29,25.6h1.5
	c0.2,0.7,0.6,1.4,0.9,1.9C30.4,27.1,29.6,26.4,29,25.6z M33.3,27.8c-0.7-0.3-1.3-1.1-1.7-2.2h1.7V27.8z M33.3,24.8L33.3,24.8h-2.2
	c-0.2-0.7-0.3-1.5-0.3-2.4h2.5L33.3,24.8L33.3,24.8z M33.3,21.7L33.3,21.7h-2.5c0-0.8,0.1-1.6,0.3-2.4h2.2L33.3,21.7L33.3,21.7z
	 M33.3,18.5L33.3,18.5h-1.7c0.4-1.1,1-2,1.7-2.2V18.5z M38.3,18.5h-1.5c-0.2-0.7-0.5-1.3-0.9-1.8C36.8,17.1,37.7,17.7,38.3,18.5z
	 M34.1,16.3c0.7,0.3,1.3,1.1,1.7,2.2h-1.7V16.3z M34.1,19.3h2.2c0.2,0.7,0.3,1.5,0.3,2.4h-2.5L34.1,19.3L34.1,19.3z M36.6,22.5
	c0,0.8-0.1,1.6-0.3,2.4h-2.2v-2.4H36.6z M34.1,27.8v-2.2h1.7C35.4,26.7,34.8,27.6,34.1,27.8z M35.9,27.5c0.4-0.5,0.7-1.1,0.9-1.9
	h1.5C37.7,26.4,36.8,27.1,35.9,27.5z M38.9,24.8h-2c0.2-0.7,0.3-1.5,0.3-2.4h2.3C39.5,23.3,39.3,24.1,38.9,24.8z M39.6,21.7h-2.3
	c0-0.8-0.1-1.6-0.3-2.4h1.9C39.3,20,39.5,20.8,39.6,21.7z"/>
</svg>
