<?xml version="1.0" encoding="utf-8"?>
<!-- Generator: Adobe Illustrator 21.0.0, SVG Export Plug-In . SVG Version: 6.00 Build 0)  -->
<svg version="1.1" id="Capa_1" xmlns="http://www.w3.org/2000/svg" xmlns:xlink="http://www.w3.org/1999/xlink" x="0px" y="0px"
	 viewBox="0 0 70 70" style="enable-background:new 0 0 70 70;" xml:space="preserve">
<style type="text/css">
	.st0{fill:#F2F2F2;stroke:#F2F2F2;stroke-miterlimit:10;}
</style>
<g>
	<g>
		<g>
			<path class="st0" d="M57.5,20h-48C9.2,20,9,20.2,9,20.5v32C9,52.8,9.2,53,9.5,53h48c0.3,0,0.5-0.2,0.5-0.5v-32
				C58,20.2,57.8,20,57.5,20z M57,52H10V21h47V52z"/>
			<path class="st0" d="M37,31h12c0.3,0,0.5-0.2,0.5-0.5S49.3,30,49,30H37c-0.3,0-0.5,0.2-0.5,0.5S36.7,31,37,31z"/>
			<path class="st0" d="M37,37h12c0.3,0,0.5-0.2,0.5-0.5S49.3,36,49,36H37c-0.3,0-0.5,0.2-0.5,0.5S36.7,37,37,37z"/>
			<path class="st0" d="M37,43h12c0.3,0,0.5-0.2,0.5-0.5S49.3,42,49,42H37c-0.3,0-0.5,0.2-0.5,0.5S36.7,43,37,43z"/>
			<path class="st0" d="M15,45c0.3,0,0.5-0.2,0.5-0.5c0-4.1,3.4-7.5,7.5-7.5s7.5,3.4,7.5,7.5c0,0.3,0.2,0.5,0.5,0.5s0.5-0.2,0.5-0.5
				c0-3.9-2.6-7.2-6.2-8.2c1.3-0.8,2.2-2.2,2.2-3.8c0-2.5-2-4.5-4.5-4.5s-4.5,2-4.5,4.5c0,1.6,0.9,3,2.2,3.8c-3.6,1-6.2,4.3-6.2,8.2
				C14.5,44.8,14.7,45,15,45z M19.5,32.5c0-1.9,1.6-3.5,3.5-3.5s3.5,1.6,3.5,3.5S24.9,36,23,36S19.5,34.4,19.5,32.5z"/>
		</g>
	</g>
</g>
</svg>
