<?xml version="1.0" encoding="utf-8"?>
<!-- Generator: Adobe Illustrator 21.0.0, SVG Export Plug-In . SVG Version: 6.00 Build 0)  -->
<svg version="1.1" id="Capa_1" xmlns="http://www.w3.org/2000/svg" xmlns:xlink="http://www.w3.org/1999/xlink" x="0px" y="0px"
	 viewBox="0 0 70 70" style="enable-background:new 0 0 70 70;" xml:space="preserve">
<style type="text/css">
	.st0{fill:#F2F2F2;}
</style>
<g>
	<path class="st0" d="M34.6,23.8c-3.9,0-7.1,3.2-7.1,7.1c0,3.9,3.2,7.1,7.1,7.1s7.1-3.2,7.1-7.1C41.7,27,38.5,23.8,34.6,23.8z
		 M32.3,25.7c-0.4,0.5-0.7,1.1-0.9,1.8H30C30.6,26.8,31.4,26.1,32.3,25.7z M29.3,28.3h1.9c-0.2,0.7-0.3,1.5-0.3,2.4h-2.3
		C28.7,29.8,29,29.1,29.3,28.3z M29.3,33.8c-0.4-0.7-0.6-1.5-0.7-2.4H31c0,0.8,0.1,1.6,0.3,2.4H29.3z M29.9,34.6h1.5
		c0.2,0.7,0.6,1.4,0.9,1.9C31.4,36.1,30.6,35.4,29.9,34.6z M34.3,36.8c-0.7-0.3-1.3-1.1-1.7-2.2h1.7V36.8z M34.3,33.8L34.3,33.8
		h-2.2c-0.2-0.7-0.3-1.5-0.3-2.4h2.5L34.3,33.8L34.3,33.8z M34.3,30.7L34.3,30.7h-2.5c0-0.8,0.1-1.6,0.3-2.4h2.2L34.3,30.7
		L34.3,30.7z M34.3,27.6L34.3,27.6h-1.7c0.4-1.1,1-2,1.7-2.2V27.6z M39.2,27.6h-1.5c-0.2-0.7-0.5-1.3-0.9-1.8
		C37.8,26.1,38.6,26.8,39.2,27.6z M35.1,25.3c0.7,0.3,1.3,1.1,1.7,2.2h-1.7V25.3z M35.1,28.3h2.2c0.2,0.7,0.3,1.5,0.3,2.4h-2.5
		L35.1,28.3L35.1,28.3z M37.6,31.5c0,0.8-0.1,1.6-0.3,2.4h-2.2v-2.4H37.6z M35.1,36.8v-2.2h1.7C36.4,35.8,35.8,36.6,35.1,36.8z
		 M36.9,36.5c0.4-0.5,0.7-1.1,0.9-1.9h1.5C38.6,35.4,37.8,36.1,36.9,36.5z M39.9,33.8h-2c0.2-0.7,0.3-1.5,0.3-2.4h2.3
		C40.5,32.3,40.3,33.1,39.9,33.8z M40.5,30.7h-2.3c0-0.8-0.1-1.6-0.3-2.4h1.9C40.2,29.1,40.5,29.8,40.5,30.7z"/>
	<path class="st0" d="M45.5,17h-22c-1.4,0-2.5,1.1-2.5,2.5v31c0,1.4,1.1,2.5,2.5,2.5h22c1.4,0,2.5-1.1,2.5-2.5v-31
		C48,18.1,46.9,17,45.5,17z M45.7,51.5h-22c-0.6,0-1.1-0.5-1.1-1.1v-31c0-0.6,0.5-1.1,1.1-1.1h22c0.6,0,1.1,0.5,1.1,1.1v31
		C46.8,51,46.3,51.5,45.7,51.5z"/>
	<rect x="27.6" y="44.4" class="st0" width="14.1" height="1.6"/>
</g>
</svg>
