<?xml version="1.0" encoding="utf-8"?>
<!-- Generator: Adobe Illustrator 21.0.0, SVG Export Plug-In . SVG Version: 6.00 Build 0)  -->
<svg version="1.1" id="Capa_1" xmlns="http://www.w3.org/2000/svg" xmlns:xlink="http://www.w3.org/1999/xlink" x="0px" y="0px"
	 viewBox="0 0 70 70" style="enable-background:new 0 0 70 70;" xml:space="preserve">
<style type="text/css">
	.st0{fill:#F2F2F2;}
</style>
<g>
	<path class="st0" d="M51.4,33.3c-0.1-0.2-0.3-0.4-0.6-0.6c-0.1-0.1-0.3-0.1-0.4-0.1h-5.5c-0.7,0-1.1,0.4-1.1,1.1s0.4,1.1,1.1,1.1
		h2.9l-9.5,9.5l-5.8-5.8c-0.4-0.4-1.1-0.4-1.5,0L18.8,50.5c-0.4,0.4-0.4,1.1,0,1.5c0.2,0.2,0.4,0.3,0.8,0.3s0.5-0.1,0.8-0.3
		l11.3-11.3l5.8,5.8c0.4,0.4,1.1,0.4,1.5,0l10.2-10.2v2.9c0,0.7,0.4,1.1,1.1,1.1c0.7,0,1.1-0.4,1.1-1.1v-5.5
		C51.5,33.6,51.5,33.4,51.4,33.3z"/>
	<path class="st0" d="M36.7,32.6h-5c-0.7,0-1.1,0.4-1.1,1.1s0.4,1.1,1.1,1.1h2.2v1.1c0,0.7,0.4,1.1,1.1,1.1s1.1-0.4,1.1-1.1v-1.1
		h0.6c1.5,0,2.8-1.2,2.8-2.8V31c0-1.5-1.2-2.8-2.8-2.8h-3.3c-0.3,0-0.5-0.2-0.5-0.6v-1.1c0-0.3,0.2-0.5,0.5-0.5h5
		c0.7,0,1.1-0.4,1.1-1.1c0-0.7-0.4-1.1-1.1-1.1h-2.2v-1.1c0-0.7-0.4-1.1-1.1-1.1s-1.1,0.4-1.1,1.1v1.1h-0.6c-1.5,0-2.7,1.2-2.7,2.8
		v1.1c0,1.5,1.2,2.8,2.7,2.8h3.3c0.3,0,0.5,0.2,0.5,0.6V32C37.2,32.4,37,32.6,36.7,32.6z"/>
</g>
</svg>
