<?xml version="1.0" encoding="utf-8"?>
<!-- Generator: Adobe Illustrator 21.0.0, SVG Export Plug-In . SVG Version: 6.00 Build 0)  -->
<svg version="1.1" id="Capa_1" xmlns="http://www.w3.org/2000/svg" xmlns:xlink="http://www.w3.org/1999/xlink" x="0px" y="0px"
	 viewBox="0 0 70 70" style="enable-background:new 0 0 70 70;" xml:space="preserve">
<style type="text/css">
	.st0{fill:#F2F2F2;}
</style>
<g>
	<g>
		<path class="st0" d="M56.6,25.7c0-1.9-1.6-3.5-3.5-3.5H13.9c-1.9,0-3.5,1.6-3.5,3.6v20.5c0,1.9,1.6,3.6,3.5,3.6h39.1
			c1.9,0,3.5-1.6,3.5-3.6V25.7z M55.4,46.2c0,1.3-1,2.4-2.3,2.4H13.9c-1.3,0-2.3-1-2.3-2.4V25.8c0-1.3,1-2.4,2.3-2.4h39.1
			c1.3,0,2.3,1,2.3,2.4V46.2z"/>
		<path class="st0" d="M29,27.6H16.4c-0.3,0-0.6,0.3-0.6,0.6v14.9v0.7c0,0.3,0.3,0.6,0.6,0.6H29c0.3,0,0.6-0.3,0.6-0.6v-0.7V28.2
			C29.6,27.9,29.4,27.6,29,27.6z M28.4,43.2H17v-0.1c0-2.4,1.5-4.5,3.7-5.3c0.6,0.4,1.3,0.5,2,0.5s1.4-0.2,2-0.5
			c2.2,0.8,3.7,2.9,3.7,5.3V43.2z M20.1,34.3c0-1.4,1.2-2.6,2.6-2.6s2.6,1.2,2.6,2.6c0,1.4-1.2,2.6-2.6,2.6
			C21.3,36.9,20.1,35.8,20.1,34.3z M28.4,39c-0.7-1-1.6-1.8-2.7-2.3c0.5-0.7,0.8-1.5,0.8-2.5c0-2.4-2.1-4.2-4.4-3.8
			c-1.9,0.3-3.2,1.9-3.2,3.8c0,0.9,0.3,1.7,0.8,2.4c-1.1,0.5-2,1.3-2.7,2.3V28.8h11.4V39z"/>
		<path class="st0" d="M50.5,27.6H34.8c-0.4,0-0.6,0.2-0.6,0.6s0.2,0.6,0.6,0.6h15.7c0.4,0,0.6-0.2,0.6-0.6S50.8,27.6,50.5,27.6z"/>
		<path class="st0" d="M50.5,30.6H34.8c-0.4,0-0.6,0.2-0.6,0.6c0,0.4,0.2,0.6,0.6,0.6h15.7c0.4,0,0.6-0.2,0.6-0.6
			C51.1,30.8,50.8,30.6,50.5,30.6z"/>
		<path class="st0" d="M47.4,35.4H34.8c-0.4,0-0.6,0.2-0.6,0.6s0.2,0.6,0.6,0.6h12.6c0.4,0,0.6-0.2,0.6-0.6S47.7,35.4,47.4,35.4z"/>
		<path class="st0" d="M47.4,37.8H34.8c-0.4,0-0.6,0.2-0.6,0.6c0,0.4,0.2,0.6,0.6,0.6h12.6c0.4,0,0.6-0.2,0.6-0.6
			C48,38,47.7,37.8,47.4,37.8z"/>
		<path class="st0" d="M47.4,43.2H34.8c-0.4,0-0.6,0.2-0.6,0.6c0,0.4,0.2,0.6,0.6,0.6h12.6c0.4,0,0.6-0.2,0.6-0.6
			C48,43.4,47.7,43.2,47.4,43.2z"/>
	</g>
</g>
</svg>
