<?xml version="1.0" encoding="utf-8"?>
<!-- Generator: Adobe Illustrator 21.0.0, SVG Export Plug-In . SVG Version: 6.00 Build 0)  -->
<svg version="1.1" id="Capa_1" xmlns="http://www.w3.org/2000/svg" xmlns:xlink="http://www.w3.org/1999/xlink" x="0px" y="0px"
	 viewBox="0 0 70 70" style="enable-background:new 0 0 70 70;" xml:space="preserve">
<style type="text/css">
	.st0{fill:#F2F2F2;}
</style>
<g>
	<path class="st0" d="M32.2,31.3h0.6v2.5c0,0.5,0.3,1.1,0.8,1.2c0.9,0.3,1.7-0.4,1.7-1.2v-2.5h0.5c1.8,0,3.3-1.2,3.3-2.6v-4.8
		c0-1.5-1.4-2.6-3.3-2.6h-3.5c-0.4,0-0.6-0.1-0.7-0.2v-4.6c0.1-0.1,0.3-0.2,0.7-0.2h3.6c0.4,0,0.6,0.1,0.7,0.2v1.2
		c0,0.5,0.3,1.1,0.8,1.2c0.9,0.3,1.7-0.4,1.7-1.2v-1.3c0-1.5-1.4-2.6-3.2-2.6h-0.6v-2.2c0-0.5-0.3-1.1-0.8-1.2
		c-0.9-0.3-1.7,0.4-1.7,1.2v2.2h-0.5c-1.8,0-3.3,1.2-3.3,2.6v4.8c0,1.5,1.4,2.6,3.3,2.6h3.5c0.4,0,0.6,0.1,0.7,0.2v4.6
		c-0.1,0.1-0.3,0.2-0.7,0.2h-1.9c0,0,0,0,0,0c0,0,0,0,0,0h-1.7c-0.4,0-0.6-0.1-0.7-0.2V27c0-0.5-0.3-1.1-0.8-1.2
		C29.8,25.5,29,26.1,29,27v1.7C29,30.2,30.4,31.3,32.2,31.3z"/>
	<path class="st0" d="M47.4,40.3c3.4,0,6.1-2.8,6.1-6.1S50.8,28,47.4,28c-3.4,0-6.1,2.8-6.1,6.1C41.3,37.6,44,40.3,47.4,40.3z
		 M47.4,29.9c2.4,0,4.3,1.9,4.3,4.3s-1.9,4.3-4.3,4.3s-4.3-1.9-4.3-4.3C43.2,31.8,45.1,29.9,47.4,29.9z"/>
	<path class="st0" d="M20.7,40.3c3.4,0,6.1-2.8,6.1-6.1S24.1,28,20.7,28s-6.1,2.8-6.1,6.1C14.6,37.6,17.3,40.3,20.7,40.3z
		 M20.7,29.9c2.4,0,4.3,1.9,4.3,4.3s-1.9,4.3-4.3,4.3s-4.3-1.9-4.3-4.3C16.5,31.8,18.4,29.9,20.7,29.9z"/>
	<path class="st0" d="M12.7,49.9c0-3,2.5-5.4,5.5-5.4h4.5c2,0,3.9,0.8,5.3,2.2l8.3,8.1c-0.8,0.5-1.6,0.7-2.6,0.7
		c-1.1,0-2.2-0.4-3.1-1.1l-5.4-4.7v10.5h1.9v-6.4l2.2,2c1.2,1,2.7,1.6,4.3,1.6c0.1,0,0.3,0,0.4,0c0.1,0,0.3,0,0.4,0
		c1.6,0,3.1-0.6,4.3-1.6l2.2-1.9v6.4l1.9,0V49.7l-4.9,4.2l-2.7-2.6l4.7-4.6c1.4-1.4,3.3-2.2,5.3-2.2h4.6c3,0,5.5,2.4,5.5,5.5v10.2
		l1.9,0V50c0-4.1-3.3-7.3-7.3-7.3h-4.5c-2.5,0-4.9,1-6.7,2.7L34,50l-4.7-4.6c-1.8-1.8-4.2-2.7-6.7-2.7h-4.5c-4.1,0-7.3,3.3-7.3,7.3
		v10.2h1.9L12.7,49.9L12.7,49.9z"/>
</g>
</svg>
