<?xml version="1.0" encoding="utf-8"?>
<!-- Generator: Adobe Illustrator 21.0.0, SVG Export Plug-In . SVG Version: 6.00 Build 0)  -->
<svg version="1.1" id="Capa_1" xmlns="http://www.w3.org/2000/svg" xmlns:xlink="http://www.w3.org/1999/xlink" x="0px" y="0px"
	 viewBox="0 0 70 70" style="enable-background:new 0 0 70 70;" xml:space="preserve">
<style type="text/css">
	.st0{fill:#F2F2F2;}
</style>
<g>
	<g>
		<path class="st0" d="M20.8,26.4h5.3c1.1,0,2-0.9,2-2v-5.3c0-1.1-0.9-2-2-2h-5.3c-1.1,0-2,0.9-2,2v5.3
			C18.8,25.5,19.7,26.4,20.8,26.4z M20.1,19.2c0-0.4,0.3-0.7,0.7-0.7h5.3c0.4,0,0.7,0.3,0.7,0.7v5.3c0,0.4-0.3,0.7-0.7,0.7h-5.3
			c-0.4,0-0.7-0.3-0.7-0.7V19.2z"/>
		<path class="st0" d="M27.4,34.3c-0.4,0-0.7,0.3-0.7,0.7v2.6c0,0.4-0.3,0.7-0.7,0.7h-5.3c-0.4,0-0.7-0.3-0.7-0.7v-5.3
			c0-0.4,0.3-0.7,0.7-0.7h3.6c0.4,0,0.7-0.3,0.7-0.7c0-0.4-0.3-0.7-0.7-0.7h-3.6c-1.1,0-2,0.9-2,2v5.3c0,1.1,0.9,2,2,2h5.3
			c1.1,0,2-0.9,2-2V35C28.1,34.6,27.8,34.3,27.4,34.3z"/>
		<path class="st0" d="M26.1,43.6h-5.3c-1.1,0-2,0.9-2,2v5.3c0,1.1,0.9,2,2,2h5.3c1.1,0,2-0.9,2-2v-5.3
			C28.1,44.5,27.2,43.6,26.1,43.6z M26.7,50.8c0,0.4-0.3,0.7-0.7,0.7h-5.3c-0.4,0-0.7-0.3-0.7-0.7v-5.3c0-0.4,0.3-0.7,0.7-0.7h5.3
			c0.4,0,0.7,0.3,0.7,0.7V50.8z"/>
		<path class="st0" d="M31.7,19.2h8.9c0.4,0,0.7-0.3,0.7-0.7s-0.3-0.7-0.7-0.7h-8.9c-0.4,0-0.7,0.3-0.7,0.7S31.3,19.2,31.7,19.2z"/>
		<path class="st0" d="M31.7,22.5h16.8c0.4,0,0.7-0.3,0.7-0.7c0-0.4-0.3-0.7-0.7-0.7H31.7c-0.4,0-0.7,0.3-0.7,0.7
			C31,22.2,31.3,22.5,31.7,22.5z"/>
		<path class="st0" d="M31.7,25.8h14.2c0.4,0,0.7-0.3,0.7-0.7c0-0.4-0.3-0.7-0.7-0.7H31.7c-0.4,0-0.7,0.3-0.7,0.7
			C31,25.5,31.3,25.8,31.7,25.8z"/>
		<path class="st0" d="M31.7,32.4h8.9c0.4,0,0.7-0.3,0.7-0.7c0-0.4-0.3-0.7-0.7-0.7h-8.9c-0.4,0-0.7,0.3-0.7,0.7
			C31,32.1,31.3,32.4,31.7,32.4z"/>
		<path class="st0" d="M48.5,34.3H31.7c-0.4,0-0.7,0.3-0.7,0.7s0.3,0.7,0.7,0.7h16.8c0.4,0,0.7-0.3,0.7-0.7S48.9,34.3,48.5,34.3z"/>
		<path class="st0" d="M31.7,39h14.2c0.4,0,0.7-0.3,0.7-0.7s-0.3-0.7-0.7-0.7H31.7c-0.4,0-0.7,0.3-0.7,0.7C31,38.7,31.3,39,31.7,39z
			"/>
		<path class="st0" d="M31.7,45.6h8.9c0.4,0,0.7-0.3,0.7-0.7s-0.3-0.7-0.7-0.7h-8.9c-0.4,0-0.7,0.3-0.7,0.7S31.3,45.6,31.7,45.6z"/>
		<path class="st0" d="M48.5,47.5H31.7c-0.4,0-0.7,0.3-0.7,0.7s0.3,0.7,0.7,0.7h16.8c0.4,0,0.7-0.3,0.7-0.7S48.9,47.5,48.5,47.5z"/>
		<path class="st0" d="M45.9,50.8H31.7c-0.4,0-0.7,0.3-0.7,0.7s0.3,0.7,0.7,0.7h14.2c0.4,0,0.7-0.3,0.7-0.7S46.2,50.8,45.9,50.8z"/>
		<path class="st0" d="M29.6,28.6l-6.5,6.5l-1.2-1.2c-0.3-0.3-0.7-0.3-0.9,0s-0.3,0.7,0,0.9l1.6,1.6c0.1,0.1,0.3,0.2,0.5,0.2
			c0.2,0,0.3-0.1,0.5-0.2l6.9-6.9c0.3-0.3,0.3-0.7,0-0.9S29.8,28.3,29.6,28.6z"/>
	</g>
</g>
</svg>
