<?xml version="1.0" encoding="utf-8"?>
<!-- Generator: Adobe Illustrator 21.0.0, SVG Export Plug-In . SVG Version: 6.00 Build 0)  -->
<svg version="1.1" id="Capa_1" xmlns="http://www.w3.org/2000/svg" xmlns:xlink="http://www.w3.org/1999/xlink" x="0px" y="0px"
	 viewBox="0 0 70 70" style="enable-background:new 0 0 70 70;" xml:space="preserve">
<style type="text/css">
	.st0{fill:#F2F2F2;}
</style>
<g>
	<path class="st0" d="M48.5,26.8c0.4,0,0.8-0.1,1.3-0.1c3.1-0.7,5.2-3.9,4.5-7.1c-0.3-1.5-1.3-2.9-2.6-3.7c-1.3-0.8-2.9-1.1-4.5-0.8
		c-3.1,0.7-5.2,3.9-4.5,7.1C43.3,25,45.7,26.8,48.5,26.8z M50.6,17.4c0.9,0.6,1.6,1.5,1.8,2.6c0.5,2.2-0.9,4.4-3.2,5
		c-2.2,0.5-4.4-0.9-5-3.1c-0.5-2.2,0.9-4.4,3.1-5c0.3-0.1,0.6-0.1,0.9-0.1C49.2,16.8,50,17,50.6,17.4z"/>
	<path class="st0" d="M52,28.2h-7.1c0,0-4.5,2.1-4.8,4.6v8c0.3,2.2,1.2,3.8,2.8,4.3l-3.3,10.2c-0.1,0.5,0.1,1,0.6,1.1
		c0.1,0,0.2,0.1,0.3,0.1c0.4,0,0.7-0.2,0.8-0.6l0.1-0.3L45,44.8c0.1-0.3,0.1-0.6-0.1-0.8c-0.1-0.2-0.4-0.4-0.7-0.4
		c-1.8,0-2-1.8-1.9-2.7v-8.1c0-1.5,2.7-2.5,2.7-2.5H52c0,0,2.7,1.1,2.8,2.5v8c-0.1,2.4-1.4,2.7-2.1,2.7c-0.3,0-0.6,0.1-0.7,0.4
		c-0.1,0.2-0.2,0.5-0.1,0.8l2.8,11l0.1,0.2c0.1,0.5,0.6,0.8,1.1,0.6c0.5-0.1,0.8-0.6,0.6-1.1l-2.7-10.2c1.6-0.5,2.7-2.1,3-4.3v-8
		C56.5,30.3,52,28.2,52,28.2z"/>
</g>
<g>
	<g>
		<path class="st0" d="M8.4,36.3l1.1,0.5l0,9.3c0,0.3,0.2,0.6,0.4,0.7c0.5,0.2,0.9-0.2,0.9-0.6v-8.8l1.7,0.7v4.6
			c0,0.3,0.2,0.5,0.4,0.6l7.7,3.3c0.1,0,0.2,0.1,0.3,0.1c0.1,0,0.2,0,0.3-0.1l7.7-3.3c0.2-0.1,0.4-0.3,0.4-0.6v-4.6l4.1-1.8
			c0.2-0.1,0.4-0.3,0.4-0.6c0-0.3-0.2-0.5-0.4-0.6l-12.2-5.4c-0.2-0.1-0.4-0.1-0.5,0L8.4,35C8.1,35.1,8,35.4,8,35.6
			S8.1,36.1,8.4,36.3z M28,42.3l-7.1,3l-7.1-3.1v-3.6l6.8,2.9c0.1,0,0.2,0.1,0.3,0.1c0.1,0,0.2,0,0.3-0.1l6.8-2.9
			C28,38.6,28,42.3,28,42.3z M20.9,31.1l10.6,4.6l-10.6,4.6l-10.6-4.6L20.9,31.1z"/>
	</g>
</g>
</svg>
