<?xml version="1.0" encoding="utf-8"?>
<!-- Generator: Adobe Illustrator 21.0.0, SVG Export Plug-In . SVG Version: 6.00 Build 0)  -->
<svg version="1.1" id="Capa_1" xmlns="http://www.w3.org/2000/svg" xmlns:xlink="http://www.w3.org/1999/xlink" x="0px" y="0px"
	 viewBox="0 0 70 70" style="enable-background:new 0 0 70 70;" xml:space="preserve">
<style type="text/css">
	.st0{fill:#F2F2F2;}
</style>
<g>
	<g>
		<path class="st0" d="M37.7,35h-7.2c-2.3,0-4.2,1.9-4.2,4.2h-0.2v0c0,0,0,0,0,0l0,0v11.6h2.1V39.4c0-1.3,0.9-2.3,2.1-2.3v0h7.4v0
			c1.2,0,2.1,1,2.1,2.3v11h2.1V39.4C41.9,37,40,35,37.7,35z"/>
		<path class="st0" d="M55.4,34.5h-6.8c-2.5,0-4.5,2.1-4.5,4.7v0.1v0c0,0,0,0,0,0h0v11.6h2.6V39.4c0-1.3,0.9-2.3,2.1-2.3v0h6.9v0
			c1.2,0,2.1,1,2.1,2.3v11.4h2.1V39C59.9,36.5,57.9,34.5,55.4,34.5z"/>
		<path class="st0" d="M19.4,35h-7c-2.3,0-4.2,1.9-4.2,4.2h0v0c0,0,0,0,0,0h0v11.6h2.1V39.4c0-1.3,0.9-2.3,2.1-2.3v0h6.9v0
			c1.2,0,2.1,1,2.1,2.3v11H24V39.2C23.9,36.7,19.4,35,19.4,35z"/>
		<path class="st0" d="M9.7,26.9c0,0.1,0,0.3,0.1,0.4c1,1,0.9,0.9,0.9,0.9h1.1c0,2.3,1.9,4.2,4.2,4.2s4.2-1.9,4.2-4.2h1.1
			c0,0,0,0,0,0c0.6,0,1.1-0.6,1-1.2c-0.1-0.5-0.6-0.9-1.1-0.9l-1,0c0-2.3-1.9-4.2-4.2-4.2s-4.2,1.9-4.2,4.2h-1.1
			C10.2,26,9.8,26.4,9.7,26.9z M16,23.2c1.2,0,2.3,1,2.3,2.3h-4.5C13.8,24.3,14.8,23.2,16,23.2z M18.3,28.1c0,1.2-1,2.3-2.3,2.3
			c-1.2,0-2.3-1-2.3-2.3H18.3z"/>
		<path class="st0" d="M46.7,28.1C46.7,28.1,46.7,28.1,46.7,28.1l1.1,0c0,2.3,1.9,4.2,4.2,4.2c2.3,0,4.2-1.9,4.2-4.2h1.1
			c0,0,0,0,0,0c0.6,0,1.1-0.6,1-1.2c-0.1-0.5-0.6-0.9-1.1-0.9l-1,0c0-2.3-1.9-4.2-4.2-4.2c-2.3,0-4.2,1.9-4.2,4.2l-1,0
			c-0.5,0-1.1,0.4-1.1,0.9C45.6,27.6,46.1,28.1,46.7,28.1z M52,23.2c1.2,0,2.2,1,2.2,2.3h-4.5C49.7,24.3,50.8,23.2,52,23.2z
			 M54.2,28.1c0,1.2-1,2.3-2.2,2.3c-1.2,0-2.3-1-2.3-2.3H54.2z"/>
		<path class="st0" d="M29.2,21.3C29.2,21.3,29.2,21.3,29.2,21.3l0.5,0V28c0,0,0,0,0,0c0,2.7,2.4,4.8,5.1,4.5
			c2.2-0.3,3.8-2.3,3.8-4.6v-6.6h1.1c0,0,0,0,0,0v6.3l0,0c0,0.4,0.2,0.8,0.5,0.9c0.8,0.4,1.6-0.2,1.6-0.9v-8.4l-12.6,0
			c-0.5,0-1.1,0.4-1.1,0.9C28.1,20.7,28.6,21.3,29.2,21.3z M31.4,21.3h4.8v2.9c-0.7-0.4-1.5-0.6-2.4-0.6c-0.9,0-1.7,0.2-2.4,0.6
			C31.4,24.1,31.4,21.3,31.4,21.3z M31.9,28.1L31.9,28.1c0-0.9,0.5-1.7,1.3-2c1.8-0.7,3.4,0.5,3.5,2v0h0c0,1.2-1.1,2.3-2.4,2.3
			S31.9,29.4,31.9,28.1L31.9,28.1z"/>
	</g>
</g>
</svg>
