<?xml version="1.0" encoding="utf-8"?>
<!-- Generator: Adobe Illustrator 21.0.0, SVG Export Plug-In . SVG Version: 6.00 Build 0)  -->
<svg version="1.1" id="Capa_1" xmlns="http://www.w3.org/2000/svg" xmlns:xlink="http://www.w3.org/1999/xlink" x="0px" y="0px"
	 viewBox="0 0 70 70" style="enable-background:new 0 0 70 70;" xml:space="preserve">
<style type="text/css">
	.st0{fill:#F2F2F2;}
</style>
<g>
	<g>
		<path class="st0" d="M7.4,36.3l1.1,0.5l0,9.3c0,0.3,0.2,0.6,0.4,0.7c0.5,0.2,0.9-0.2,0.9-0.6v-8.8l1.7,0.7v4.6
			c0,0.3,0.2,0.5,0.4,0.6l7.7,3.3c0.1,0,0.2,0.1,0.3,0.1c0.1,0,0.2,0,0.3-0.1l7.7-3.3c0.2-0.1,0.4-0.3,0.4-0.6v-4.6l4.1-1.8
			c0.2-0.1,0.4-0.3,0.4-0.6c0-0.3-0.2-0.5-0.4-0.6l-12.2-5.4c-0.2-0.1-0.4-0.1-0.5,0L7.4,35C7.1,35.1,7,35.4,7,35.6
			S7.1,36.1,7.4,36.3z M27,42.3l-7.1,3l-7.1-3.1v-3.6l6.8,2.9c0.1,0,0.2,0.1,0.3,0.1c0.1,0,0.2,0,0.3-0.1l6.8-2.9
			C27,38.6,27,42.3,27,42.3z M19.9,31.1l10.6,4.6l-10.6,4.6L9.3,35.6L19.9,31.1z"/>
	</g>
</g>
<g>
	<g>
		<g>
			<path class="st0" d="M48.8,26.8c0.4,0,0.8-0.1,1.3-0.1c3.1-0.7,5.2-3.9,4.5-7.1c-0.4-1.5-1.3-2.9-2.6-3.7
				c-1.3-0.8-2.9-1.1-4.5-0.8c-3.2,0.7-5.2,3.9-4.5,7.1C43.7,25,46.2,26.8,48.8,26.8z M51.1,17.4c0.9,0.6,1.6,1.5,1.8,2.6l0,0
				c0.5,2.2-0.9,4.4-3.1,5c-2.2,0.5-4.4-0.9-5-3.1c-0.5-2.2,0.9-4.4,3.2-5c0.3-0.1,0.6-0.1,0.9-0.1C49.6,16.8,50.4,17,51.1,17.4z"/>
			<path class="st0" d="M53.2,28.2h-8.6c-2.5,0-4.5,2-4.5,4.5V46c0,2.2,1.5,4,3.5,4.4v5.4c0,0,0.5,0.9,1,0.9s1.1-0.9,1.1-0.9V56
				v-6.1c0-0.5-0.4-0.9-0.9-0.9c-1.5,0-2.6-1.3-2.6-2.7V33.1c0-1.5,1.2-2.7,2.6-2.7h8c1.5,0,2.6,1.3,2.6,2.7v13.2
				c0,1.5-1.2,2.7-2.6,2.7c-0.5,0-0.9,0.4-0.9,0.9v5.9l0,0c0.3,0.5,0.7,0.9,1.2,0.9s0.9-0.9,0.9-0.9v-5.4c2-0.4,3.5-2.2,3.5-4.4
				V32.8C57.5,30.3,55.6,28.2,53.2,28.2z"/>
		</g>
	</g>
</g>
</svg>
