<?xml version="1.0" encoding="utf-8"?>
<!-- Generator: Adobe Illustrator 21.0.0, SVG Export Plug-In . SVG Version: 6.00 Build 0)  -->
<svg version="1.1" id="Capa_1" xmlns="http://www.w3.org/2000/svg" xmlns:xlink="http://www.w3.org/1999/xlink" x="0px" y="0px"
	 viewBox="0 0 70 70" style="enable-background:new 0 0 70 70;" xml:space="preserve">
<style type="text/css">
	.st0{fill:#F2F2F2;}
</style>
<g>
	<g>
		<path class="st0" d="M12,33l1.9,0.8l0,15.5c0,0.5,0.3,1,0.7,1.1c0.8,0.3,1.5-0.3,1.5-1.1V34.8L19,36v7.7c0,0.4,0.3,0.8,0.7,1
			l12.9,5.6c0.2,0.1,0.3,0.1,0.4,0.1c0.2,0,0.3-0.1,0.4-0.1l12.9-5.6c0.4-0.2,0.7-0.6,0.7-1V36l6.8-3c0.4-0.2,0.7-0.6,0.7-1
			c0-0.4-0.3-0.8-0.7-1l-20.4-9c-0.3-0.1-0.6-0.1-0.9,0L12,30.9c-0.4,0.2-0.7,0.6-0.7,1S11.6,32.8,12,33z M44.7,43L33,48l-11.8-5.1
			v-6l11.3,4.9c0.2,0.1,0.3,0.1,0.4,0.1s0.3-0.1,0.4-0.1l11.3-4.9C44.7,36.9,44.7,43,44.7,43z M33,24.3L50.6,32L33,39.6l-17.6-7.7
			L33,24.3z"/>
	</g>
</g>
</svg>
