<?xml version="1.0" encoding="utf-8"?>
<!-- Generator: Adobe Illustrator 21.0.0, SVG Export Plug-In . SVG Version: 6.00 Build 0)  -->
<svg version="1.1" id="Capa_1" xmlns="http://www.w3.org/2000/svg" xmlns:xlink="http://www.w3.org/1999/xlink" x="0px" y="0px"
	 viewBox="0 0 70 70" style="enable-background:new 0 0 70 70;" xml:space="preserve">
<style type="text/css">
	.st0{fill:#F2F2F2;}
</style>
<g>
	<g>
		<g>
			<g>
				<path class="st0" d="M52.2,41.7h-5.4c-0.5,0-0.9-0.4-0.9-0.9v-6.3c0-0.5,0.4-0.9,0.9-0.9h3c0.2,0,0.5,0.1,0.6,0.3l2.4,2.4
					c0.2,0.2,0.3,0.4,0.3,0.6v3.9C53.1,41.3,52.7,41.7,52.2,41.7z M47.7,39.9h3.6v-2.6l-1.9-1.9h-1.7V39.9z"/>
			</g>
		</g>
		<g>
			<g>
				<path class="st0" d="M49.1,50.3c-2,0-3.6-1.6-3.6-3.6v0c0-2,1.6-3.6,3.6-3.6c1,0,1.9,0.4,2.5,1.1c0.7,0.7,1.1,1.6,1.1,2.5
					C52.7,48.7,51.1,50.3,49.1,50.3z M47.3,46.7c0,1,0.8,1.8,1.8,1.8s1.8-0.8,1.8-1.8c0-0.5-0.2-0.9-0.5-1.3
					c-0.3-0.3-0.8-0.5-1.3-0.5C48.1,44.9,47.3,45.7,47.3,46.7z"/>
			</g>
		</g>
		<g>
			<g>
				<path class="st0" d="M57.6,46.2c0,1-0.8,1.8-1.8,1.8h-4.5l0-1.1c0-0.9-0.8-1.7-1.8-1.7S47.7,46,47.7,47c0,0,0,0,0,0.1l0,0.9
					h-6.3V30h11.2l5,5V46.2z M53,46.2h2.8V35.8l-4-4h-8.6v14.4H46c0.4-1.6,1.8-2.8,3.5-2.8S52.6,44.6,53,46.2z"/>
			</g>
		</g>
		<g>
			<g>
				<path class="st0" d="M21.2,50.4c-2,0-3.6-1.6-3.6-3.6c0-2,1.6-3.6,3.6-3.6s3.6,1.6,3.6,3.6C24.8,48.8,23.2,50.4,21.2,50.4z
					 M21.2,45c-1,0-1.8,0.8-1.8,1.8c0,1,0.8,1.8,1.8,1.8s1.8-0.8,1.8-1.8C23,45.8,22.2,45,21.2,45z"/>
			</g>
		</g>
		<g>
			<g>
				<path class="st0" d="M43.2,48H23.4l0-0.8c0-0.8-0.5-1.5-1.2-1.8c-1.2-0.4-2.4,0.5-2.4,1.7V48h-3.6c-1,0-1.8-0.8-1.8-1.8V27.3
					c0-2,1.6-3.6,3.6-3.6h21.6c2,0,3.6,1.6,3.6,3.6V48z M25.1,46.2h16.3V27.3c0-1-0.8-1.8-1.8-1.8H18c-1,0-1.8,0.8-1.8,1.8v18.9h1.9
					c0.4-1.6,1.8-2.7,3.5-2.7S24.7,44.6,25.1,46.2z"/>
			</g>
		</g>
		<g>
			<g>
				<path class="st0" d="M28.4,43.7c-4.5,0-8.1-3.6-8.1-8.1s3.6-8.1,8.1-8.1s8.1,3.6,8.1,8.1S32.8,43.7,28.4,43.7z M28.4,29.2
					c-3.5,0-6.3,2.8-6.3,6.3s2.8,6.3,6.3,6.3s6.3-2.8,6.3-6.3S31.9,29.2,28.4,29.2z"/>
			</g>
		</g>
		<g>
			<g>
				<g>
					<path class="st0" d="M28.8,40c-0.5,0-0.9-0.4-0.9-0.9V32c0-0.5,0.4-0.9,0.9-0.9c0.5,0,0.9,0.4,0.9,0.9v7.2
						C29.7,39.6,29.3,40,28.8,40z"/>
				</g>
			</g>
			<g>
				<g>
					<path class="st0" d="M32,36.3h-7.2c-0.5,0-0.9-0.4-0.9-0.9c0-0.5,0.4-0.9,0.9-0.9H32c0.5,0,0.9,0.4,0.9,0.9
						C32.9,35.9,32.5,36.3,32,36.3z"/>
				</g>
			</g>
		</g>
		<g>
			<g>
				<path class="st0" d="M50.4,31.8H45l0-3.5c0-1.2,0.7-2.3,1.8-2.6c1.9-0.6,3.6,0.8,3.6,2.6V31.8z M46.8,30h1.8v-1.8
					c0-0.5-0.4-0.9-0.9-0.9s-0.9,0.4-0.9,0.9V30z"/>
			</g>
		</g>
		<g>
			<g>
				<path class="st0" d="M47.7,22.5c-0.5,0-0.9-0.4-0.9-0.9v-2.7c0-0.5,0.4-0.9,0.9-0.9c0.5,0,0.9,0.4,0.9,0.9v2.7
					C48.6,22.1,48.2,22.5,47.7,22.5z"/>
			</g>
		</g>
		<g>
			<g>
				<path class="st0" d="M43.7,23c-0.2,0-0.5-0.1-0.6-0.3l-1.9-1.9c-0.4-0.4-0.4-0.9,0-1.3s0.9-0.4,1.3,0l1.9,1.9
					c0.4,0.4,0.4,0.9,0,1.3C44.2,22.9,44,23,43.7,23z"/>
			</g>
		</g>
		<g>
			<g>
				<path class="st0" d="M50.8,23c-0.2,0-0.5-0.1-0.6-0.3c-0.4-0.4-0.4-0.9,0-1.3l1.9-1.9c0.4-0.4,0.9-0.4,1.3,0s0.4,0.9,0,1.3
					l-1.9,1.9C51.3,22.9,51.1,23,50.8,23z"/>
			</g>
		</g>
	</g>
</g>
</svg>
