<?xml version="1.0" encoding="utf-8"?>
<!-- Generator: Adobe Illustrator 21.0.0, SVG Export Plug-In . SVG Version: 6.00 Build 0)  -->
<svg version="1.1" id="Capa_1" xmlns="http://www.w3.org/2000/svg" xmlns:xlink="http://www.w3.org/1999/xlink" x="0px" y="0px"
	 viewBox="0 0 70 70" style="enable-background:new 0 0 70 70;" xml:space="preserve">
<style type="text/css">
	.st0{fill:#F2F2F2;}
</style>
<g>
	<path class="st0" d="M43,32H27c-0.6,0-1-0.4-1-1s0.4-1,1-1h16c0.6,0,1,0.4,1,1S43.6,32,43,32z"/>
	<path class="st0" d="M43,37H27c-0.6,0-1-0.4-1-1s0.4-1,1-1h16c0.6,0,1,0.4,1,1S43.6,37,43,37z"/>
	<path class="st0" d="M51,24.9c0-0.1,0-0.2-0.1-0.3c0,0,0-0.1,0-0.1c0-0.1-0.1-0.2-0.2-0.3l-9-9c-0.1-0.1-0.2-0.1-0.3-0.2
		c0,0-0.1,0-0.1,0c-0.1,0-0.2,0-0.3-0.1c0,0,0,0-0.1,0H20c-0.6,0-1,0.4-1,1v37c0,0.6,0.4,1,1,1h5v3c0,0.3,0.2,0.7,0.5,0.9
		c0.3,0.2,0.7,0.2,1,0l1.6-0.8l1.6,0.8C29.7,58,29.8,58,30,58c0.2,0,0.4,0,0.5-0.1c0.3-0.2,0.5-0.5,0.5-0.9v-3h19c0.6,0,1-0.4,1-1
		L51,24.9C51,25,51,25,51,24.9z M47.6,24H42v-5.6L47.6,24z M29.5,47.6C29.5,47.6,29.5,47.6,29.5,47.6c-0.3,0.1-0.5,0.2-0.7,0.3
		c0,0,0,0-0.1,0c-0.5,0.1-1,0.1-1.5,0c0,0,0,0-0.1,0c-0.2-0.1-0.5-0.2-0.7-0.3c0,0,0,0,0,0C25.6,47,25,46.1,25,45c0-1.7,1.3-3,3-3
		s3,1.3,3,3C31,46.1,30.4,47,29.5,47.6z M29,55.4l-0.6-0.3C28.3,55,28.2,55,28,55s-0.3,0-0.4,0.1L27,55.4v-5.5
		c0.3,0.1,0.7,0.1,1,0.1s0.7,0,1-0.1V55.4z M31,52v-3c1.2-0.9,2-2.3,2-4c0-2.8-2.2-5-5-5s-5,2.2-5,5c0,1.6,0.8,3.1,2,4v3h-4V17h19v8
		c0,0.6,0.4,1,1,1h8v26H31z"/>
	<path class="st0" d="M44,43h-8c-0.6,0-1-0.4-1-1s0.4-1,1-1h8c0.6,0,1,0.4,1,1S44.6,43,44,43z"/>
	<path class="st0" d="M44,47h-8c-0.6,0-1-0.4-1-1s0.4-1,1-1h8c0.6,0,1,0.4,1,1S44.6,47,44,47z"/>
</g>
</svg>
