<?xml version="1.0" encoding="utf-8"?>
<!-- Generator: Adobe Illustrator 21.0.0, SVG Export Plug-In . SVG Version: 6.00 Build 0)  -->
<svg version="1.1" id="Capa_1" xmlns="http://www.w3.org/2000/svg" xmlns:xlink="http://www.w3.org/1999/xlink" x="0px" y="0px"
	 viewBox="0 0 70 70" style="enable-background:new 0 0 70 70;" xml:space="preserve">
<style type="text/css">
	.st0{fill:none;stroke:#F2F2F2;stroke-miterlimit:10;}
	.st1{fill:#F2F2F2;}
</style>
<g>
	<line class="st0" x1="51.5" y1="49.5" x2="20.5" y2="49.5"/>
	<polyline class="st0" points="22.3,52.2 20.3,50 22.3,47.7 	"/>
	<polyline class="st0" points="49.9,47.7 52,50 49.9,52.2 	"/>
	<line class="st0" x1="16.5" y1="43.5" x2="16.5" y2="22.2"/>
	<polyline class="st0" points="14.1,23.5 16.4,22 18.7,23.5 	"/>
	<polyline class="st0" points="18.7,41.4 16.4,43.6 14.1,41.4 	"/>
	<g>
		<g transform="translate(0,-952.36218)">
			<path class="st1" d="M35.9,972.4c-0.1,0-0.2,0.1-0.3,0.1l-13.3,7.8c-0.4,0.2-0.5,0.7-0.3,1c0.1,0.2,0.3,0.3,0.6,0.3h0.5l2-1.2v13
				c0,0.4,0.4,0.8,0.8,0.8h20.4c0.4,0,0.8-0.4,0.8-0.8v-13l2,1.2c0.4,0.2,0.9,0.1,1.1-0.3s0.1-0.9-0.3-1.1l0,0l-13.3-7.8
				C36.2,972.4,36,972.3,35.9,972.4z M36,974.1l9.4,5.5v13.2h-5.9v-7.4c0-0.4-0.4-0.8-0.8-0.8h-5.5c0,0,0,0-0.1,0
				c-0.4,0-0.7,0.4-0.7,0.8v7.4h-5.9v-13.2L36,974.1z M34,986.1H38v6.7H34V986.1z"/>
		</g>
	</g>
</g>
</svg>
