<?xml version="1.0" encoding="utf-8"?>
<!-- Generator: Adobe Illustrator 21.0.0, SVG Export Plug-In . SVG Version: 6.00 Build 0)  -->
<svg version="1.1" id="Capa_1" xmlns="http://www.w3.org/2000/svg" xmlns:xlink="http://www.w3.org/1999/xlink" x="0px" y="0px"
	 viewBox="0 0 70 70" style="enable-background:new 0 0 70 70;" xml:space="preserve">
<style type="text/css">
	.st0{fill:#F2F2F2;}
</style>
<g>
	<path class="st0" d="M53,51.8h-4.8V35c0-0.7-0.5-1.2-1.2-1.2h-4.8c-0.7,0-1.2,0.5-1.2,1.2v16.8h-2.4v-12c0-0.7-0.5-1.2-1.2-1.2
		h-4.8c-0.7,0-1.2,0.5-1.2,1.2v12H29v-7.2c0-0.7-0.5-1.2-1.2-1.2H23c-0.7,0-1.2,0.5-1.2,1.2v7.2h-3.6V17c0-0.7-0.5-1.2-1.2-1.2
		s-1.2,0.5-1.2,1.2v36c0,0.7,0.5,1.2,1.2,1.2h36c0.7,0,1.2-0.5,1.2-1.2S53.7,51.8,53,51.8z M24.2,51.8v-6h2.4v6H24.2z M33.8,51.8V41
		h2.4v10.8H33.8z M43.4,51.8V36.2h2.4v15.6H43.4z M20.7,40.3c-0.3-0.6,0-1.3,0.6-1.6c12.3-5.6,15.3-8.3,24-16.9h-5.5
		c-0.7,0-1.2-0.5-1.2-1.2c0-0.7,0.5-1.2,1.2-1.2h8.4c0.7,0,1.2,0.5,1.2,1.2V29c0,0.7-0.5,1.2-1.2,1.2S47,29.7,47,29v-5.5
		c-8.7,8.7-12,11.6-24.7,17.4C21.7,41.2,21,40.9,20.7,40.3z"/>
</g>
</svg>
