<?xml version="1.0" encoding="utf-8"?>
<!-- Generator: Adobe Illustrator 21.0.0, SVG Export Plug-In . SVG Version: 6.00 Build 0)  -->
<svg version="1.1" id="Capa_1" xmlns="http://www.w3.org/2000/svg" xmlns:xlink="http://www.w3.org/1999/xlink" x="0px" y="0px"
	 viewBox="0 0 70 70" style="enable-background:new 0 0 70 70;" xml:space="preserve">
<style type="text/css">
	.st0{fill:#F2F2F2;}
</style>
<g id="XMLID_37_">
	<g id="XMLID_1775_">
		<path id="XMLID_1781_" class="st0" d="M35,17.4c-6.6,0-12,5.3-12.5,12c-0.2,3,0.8,6,2.7,8.6l9.3,13.3c0.1,0.2,0.3,0.3,0.5,0.3
			c0.2,0,0.4-0.1,0.5-0.3L44.9,38c1.9-2.6,2.8-5.6,2.7-8.6C47.1,22.7,41.6,17.4,35,17.4z M43.8,37.2L35,49.8l-8.8-12.6
			c-1.7-2.3-2.6-5.1-2.4-7.7c0.4-5.3,4.7-10.8,11.2-10.8s10.8,5.5,11.2,10.8C46.4,32.2,45.5,34.9,43.8,37.2z"/>
		<path id="XMLID_1777_" class="st0" d="M35,25.1c-2.8,0-5,2.3-5,5.1s2.3,5.1,5,5.1s5-2.3,5-5.1S37.8,25.1,35,25.1z M35,33.9
			c-2,0-3.7-1.7-3.7-3.7s1.6-3.7,3.7-3.7s3.7,1.7,3.7,3.7S37.1,33.9,35,33.9z"/>
	</g>
</g>
</svg>
