<?xml version="1.0" encoding="utf-8"?>
<!-- Generator: Adobe Illustrator 21.0.0, SVG Export Plug-In . SVG Version: 6.00 Build 0)  -->
<svg version="1.1" id="Capa_1" xmlns="http://www.w3.org/2000/svg" xmlns:xlink="http://www.w3.org/1999/xlink" x="0px" y="0px"
	 viewBox="0 0 70 70" style="enable-background:new 0 0 70 70;" xml:space="preserve">
<style type="text/css">
	.st0{fill:#F2F2F2;}
</style>
<g>
	<path class="st0" d="M21.5,21.3h24.1l-2,2c-0.3,0.3-0.3,0.9,0,1.2c0.2,0.2,0.4,0.3,0.6,0.3c0.2,0,0.4-0.1,0.6-0.3l3.4-3.4
		c0.3-0.3,0.3-0.9,0-1.2l-3.4-3.4c-0.3-0.3-0.9-0.3-1.2,0c-0.3,0.3-0.3,0.9,0,1.2l2,2H21.5c-0.5,0-0.9,0.4-0.9,0.9
		C20.6,20.9,21,21.3,21.5,21.3z"/>
	<path class="st0" d="M34.6,25.3c-3.6,0-6.9,1.4-9.4,4c-2.5,2.5-3.9,5.9-3.9,9.5c0,2.2,0.6,4.2,1.5,6c0,0,0,0,0,0
		c2.2,4.3,6.7,7.3,11.9,7.3c0,0,0.1,0,0.1,0c7.4-0.1,13.3-6.1,13.3-13.5c0-3.6-1.4-6.9-4-9.5C41.5,26.7,38.1,25.3,34.6,25.3z
		 M44.3,31.9l-3.9,0c-1-2.1-2.2-3.7-3.1-4.7c2.1,0.5,4.1,1.5,5.6,3.1C43.5,30.8,43.9,31.3,44.3,31.9z M46.5,37.9l-4.6,0
		c-0.1-1.6-0.4-3.1-0.8-4.5l4.2,0C45.9,34.8,46.4,36.3,46.5,37.9z M45.5,43.6l-4.4,0c0.4-1.3,0.7-2.6,0.8-4.2l4.6,0
		C46.4,40.9,46,42.3,45.5,43.6z M22.9,39.6l4.6,0c0.1,1.5,0.4,2.9,0.9,4.1l-4.4,0C23.4,42.5,23,41.1,22.9,39.6z M24.1,33.6l4.2,0
		c-0.4,1.3-0.7,2.8-0.8,4.5l-4.6,0C23,36.5,23.4,34.9,24.1,33.6z M35.3,31.9l0-4.6c0.5,0.5,2.1,2,3.4,4.6L35.3,31.9z M39.4,33.5
		c0.5,1.3,0.8,2.8,0.9,4.5l-5,0l0-4.5L39.4,33.5z M33.8,31.9l-3.2,0c1.1-2.3,2.5-3.8,3.2-4.4L33.8,31.9z M33.8,33.5l0,4.5L29,38
		c0.1-1.7,0.4-3.2,0.9-4.5L33.8,33.5z M29,39.5l4.8,0l0,4.2l-3.8,0C29.5,42.5,29.1,41.1,29,39.5z M33.9,45.2l0,4.1
		c-0.9-0.9-2.1-2.2-3.1-4.1L33.9,45.2z M35.4,49.5l0-4.3l3.3,0C37.7,47.1,36.3,48.6,35.4,49.5z M35.4,43.7l0-4.2l5,0
		c-0.1,1.5-0.4,2.9-0.9,4.2L35.4,43.7z M26.3,30.4c1.6-1.6,3.5-2.7,5.6-3.2c-0.9,1-2.1,2.6-3,4.7L25,32
		C25.4,31.4,25.8,30.9,26.3,30.4z M24.8,45.3l4.1,0c1.1,2.4,2.7,4.1,3.8,5.2C29.5,49.9,26.6,48,24.8,45.3z M36.7,50.4
		c1.1-1.1,2.6-2.8,3.7-5.2l4.1,0C42.9,47.9,40,49.8,36.7,50.4z"/>
</g>
</svg>
