<?xml version="1.0" encoding="utf-8"?>
<!-- Generator: Adobe Illustrator 21.0.0, SVG Export Plug-In . SVG Version: 6.00 Build 0)  -->
<svg version="1.1" id="Capa_1" xmlns="http://www.w3.org/2000/svg" xmlns:xlink="http://www.w3.org/1999/xlink" x="0px" y="0px"
	 viewBox="0 0 70 70" style="enable-background:new 0 0 70 70;" xml:space="preserve">
<style type="text/css">
	.st0{fill:#F2F2F2;}
</style>
<g>
	<path class="st0" d="M33.8,24.8c0.4,0,0.8-0.1,1.3-0.1c3.2-0.7,5.2-3.9,4.5-7.1c-0.4-1.5-1.3-2.9-2.6-3.7c-1.3-0.8-2.9-1.1-4.5-0.8
		c-3.1,0.7-5.2,3.9-4.5,7.1C28.7,23,31.2,24.8,33.8,24.8z M36.1,15.4c0.9,0.6,1.6,1.5,1.8,2.6l0,0c0.5,2.2-0.9,4.4-3.2,5
		c-2.2,0.5-4.4-0.9-5-3.1c-0.5-2.2,0.9-4.4,3.2-5c0.3-0.1,0.6-0.1,0.9-0.1C34.6,14.8,35.4,15,36.1,15.4z"/>
	<path class="st0" d="M38.2,26.2h-8.6c-2.5,0-4.5,2-4.5,4.5V44c0,2.2,1.5,4,3.5,4.4v5.4c0,0,0.5,0.9,1,0.9s1.1-0.9,1.1-0.9V54l0-6.1
		c0-0.5-0.4-0.9-0.9-0.9c-1.5,0-2.6-1.3-2.6-2.7V31.1c0-1.5,1.2-2.7,2.6-2.7h8c1.5,0,2.6,1.3,2.6,2.7v13.2c0,1.5-1.2,2.7-2.6,2.7
		c-0.5,0-0.9,0.4-0.9,0.9v5.9l0,0c0.3,0.5,0.7,0.9,1.2,0.9c0.5,0,0.9-0.9,0.9-0.9v-5.4c2-0.4,3.5-2.2,3.5-4.4V30.8
		C42.5,28.3,40.6,26.2,38.2,26.2z"/>
</g>
</svg>
