<?xml version="1.0" encoding="utf-8"?>
<!-- Generator: Adobe Illustrator 21.0.0, SVG Export Plug-In . SVG Version: 6.00 Build 0)  -->
<svg version="1.1" id="Capa_1" xmlns="http://www.w3.org/2000/svg" xmlns:xlink="http://www.w3.org/1999/xlink" x="0px" y="0px"
	 viewBox="0 0 70 70" style="enable-background:new 0 0 70 70;" xml:space="preserve">
<style type="text/css">
	.st0{fill:#F2F2F2;}
</style>
<g>
	<path class="st0" d="M33.9,13.4c-0.1,0-0.2,0-0.3,0.1L18,19.4c-0.5,0.2-0.8,0.8-0.6,1.3c0.1,0.3,0.3,0.5,0.6,0.6l8.4,3.2
		c-0.1,0.6-0.2,1.2-0.2,1.8c0,3.2,2,6,4.8,7.2c-5.8,1.4-10.2,6.4-10.2,12.6v7.7c0,0.5,0.4,1,1,1c0.5,0,1-0.4,1-1c0,0,0,0,0,0v-7.7
		c0-6.1,5-10.9,11.3-10.9s11.3,4.9,11.3,10.9v7c-3.4,1.1-7.2,1.7-11.3,1.7c-2.8,0-5.6-0.3-8.1-0.8c-0.5-0.1-1.1,0.2-1.2,0.7
		c-0.1,0.5,0.2,1.1,0.7,1.2c0,0,0.1,0,0.1,0c2.7,0.6,5.5,0.9,8.5,0.9c4.5,0,8.8-0.7,12.6-2c0.4-0.1,0.7-0.5,0.7-0.9v-7.7
		c0-6.1-4.3-11.2-10.2-12.6c2.8-1.2,4.8-4,4.8-7.2c0-0.6-0.1-1.2-0.2-1.8l8.4-3.2c0.5-0.2,0.8-0.8,0.6-1.3c-0.1-0.3-0.3-0.5-0.6-0.6
		l-15.7-5.9C34.2,13.5,34.1,13.4,33.9,13.4z M34,15.5l12.9,4.8L34,25.1l-12.9-4.8L34,15.5z M39.7,25.1c0.1,0.4,0.1,0.7,0.1,1.1
		c0,3.3-2.6,5.9-5.9,5.9c-3.3,0-5.9-2.6-5.9-5.9c0-0.4,0.1-0.7,0.1-1.1l5.4,2c0.2,0.1,0.5,0.1,0.7,0L39.7,25.1z"/>
</g>
</svg>
