<?xml version="1.0" encoding="utf-8"?>
<!-- Generator: Adobe Illustrator 21.0.0, SVG Export Plug-In . SVG Version: 6.00 Build 0)  -->
<svg version="1.1" id="Capa_1" xmlns="http://www.w3.org/2000/svg" xmlns:xlink="http://www.w3.org/1999/xlink" x="0px" y="0px"
	 viewBox="0 0 70 70" style="enable-background:new 0 0 70 70;" xml:space="preserve">
<style type="text/css">
	.st0{fill:#F2F2F2;}
</style>
<g>
	<path class="st0" d="M34.6,21.1c-4.9,0-8.9,4-8.9,8.9c0,4.9,4,8.9,8.9,8.9s8.9-4,8.9-8.9C43.5,25,39.5,21.1,34.6,21.1z M31.8,23.4
		c-0.4,0.6-0.8,1.4-1.1,2.3h-1.8C29.6,24.7,30.6,23.9,31.8,23.4z M28,26.7h2.4c-0.2,0.9-0.3,1.9-0.4,2.9h-2.9
		C27.3,28.6,27.6,27.6,28,26.7z M28,33.5c-0.5-0.9-0.7-1.9-0.8-2.9h2.9c0,1,0.2,2,0.4,2.9H28z M28.8,34.5h1.9
		c0.3,0.9,0.7,1.7,1.2,2.3C30.6,36.3,29.6,35.5,28.8,34.5z M34.3,37.3c-0.9-0.3-1.6-1.3-2.2-2.8h2.2V37.3z M34.3,33.5L34.3,33.5
		h-2.7c-0.2-0.9-0.4-1.9-0.4-2.9h3.2L34.3,33.5L34.3,33.5z M34.3,29.6L34.3,29.6h-3.1c0-1,0.2-2,0.4-2.9h2.7L34.3,29.6L34.3,29.6z
		 M34.3,25.7L34.3,25.7h-2.2c0.5-1.4,1.3-2.5,2.2-2.8V25.7z M40.4,25.7h-1.8c-0.3-0.9-0.7-1.7-1.1-2.3
		C38.6,23.9,39.7,24.7,40.4,25.7z M35.2,22.9c0.9,0.3,1.6,1.3,2.2,2.8h-2.2V22.9z M35.2,26.7h2.7c0.2,0.9,0.4,1.9,0.4,2.9h-3.1
		L35.2,26.7L35.2,26.7z M38.4,30.6c0,1-0.2,2-0.4,2.9h-2.7v-2.9H38.4z M35.2,37.3v-2.8h2.2C36.9,35.9,36.1,37,35.2,37.3z M37.4,36.8
		c0.5-0.6,0.9-1.4,1.2-2.3h1.9C39.7,35.5,38.6,36.3,37.4,36.8z M41.2,33.5h-2.5c0.2-0.9,0.3-1.9,0.4-2.9h2.9
		C42,31.6,41.7,32.6,41.2,33.5z M42,29.6h-2.9c0-1-0.2-2-0.4-2.9h2.4C41.7,27.6,42,28.6,42,29.6z"/>
	<path class="st0" d="M48.3,12.5H20.7c-1.7,0-3.2,1.4-3.2,3.2v38.8c0,1.7,1.4,3.2,3.2,3.2h27.5c1.7,0,3.2-1.4,3.2-3.2V15.6
		C51.4,13.9,50,12.5,48.3,12.5z M48.5,55.6H21c-0.8,0-1.4-0.6-1.4-1.4V15.4c0-0.8,0.6-1.4,1.4-1.4h27.5c0.8,0,1.4,0.6,1.4,1.4v38.8
		C49.9,54.9,49.3,55.6,48.5,55.6z"/>
	<rect x="25.9" y="46.8" class="st0" width="17.6" height="2"/>
</g>
</svg>
