<?xml version="1.0" encoding="utf-8"?>
<!-- Generator: Adobe Illustrator 21.0.0, SVG Export Plug-In . SVG Version: 6.00 Build 0)  -->
<svg version="1.1" id="Capa_1" xmlns="http://www.w3.org/2000/svg" xmlns:xlink="http://www.w3.org/1999/xlink" x="0px" y="0px"
	 viewBox="0 0 70 70" style="enable-background:new 0 0 70 70;" xml:space="preserve">
<style type="text/css">
	.st0{fill:#F2F2F2;}
</style>
<g id="XMLID_410_">
	<path id="XMLID_411_" class="st0" d="M46.9,31.1C46.9,31.1,46.9,31.1,46.9,31.1c-0.1-0.1-0.1-0.1-0.1-0.2L35.2,13.8
		c-0.3-0.4-1-0.4-1.3,0L22.2,30.9c0,0,0,0.1,0,0.1c0,0,0,0,0,0.1c0,0.1-0.1,0.2-0.1,0.3v22.6c0,0.4,0.3,0.8,0.8,0.8s0.8-0.3,0.8-0.8
		V33.1l4.7,4.7v16.2c0,0.4,0.3,0.8,0.8,0.8c0.4,0,0.8-0.3,0.8-0.8V37.6l5.1-4l5.1,4v16.3c0,0.4,0.3,0.8,0.8,0.8
		c0.4,0,0.8-0.3,0.8-0.8V37.7l4.7-4.7v20.9c0,0-0.2,0.8,0.3,0.8c0.4,0,0.5-0.8,0.5-0.8V31.4C47,31.3,46.9,31.2,46.9,31.1z
		 M34.8,15.7l4.4,6.4h-8.7L34.8,15.7z M34.3,31.9L29,36.2l-4.9-4.9l5.2-7.7h10.8l5.2,7.7l-4.9,4.9l-5.3-4.2
		C35,31.7,34.6,31.7,34.3,31.9z"/>
</g>
</svg>
