<?xml version="1.0" encoding="utf-8"?>
<!-- Generator: Adobe Illustrator 21.0.0, SVG Export Plug-In . SVG Version: 6.00 Build 0)  -->
<svg version="1.1" id="Capa_1" xmlns="http://www.w3.org/2000/svg" xmlns:xlink="http://www.w3.org/1999/xlink" x="0px" y="0px"
	 viewBox="0 0 70 70" style="enable-background:new 0 0 70 70;" xml:space="preserve">
<style type="text/css">
	.st0{fill:#F2F2F2;}
</style>
<g>
	<g>
		<g>
			<g>
				<g>
					<path class="st0" d="M44,55.2c6.2,0,11.3-5.1,11.3-11.3c0-6.2-5.1-11.3-11.3-11.3s-11.3,5.1-11.3,11.3
						C32.7,50.1,37.8,55.2,44,55.2z M44,34c5.5,0,9.9,4.5,9.9,9.9s-4.5,9.9-9.9,9.9s-9.9-4.5-9.9-9.9S38.5,34,44,34z"/>
				</g>
			</g>
		</g>
		<path class="st0" d="M42.9,49h0.3v1.5c0,0.3,0.2,0.6,0.5,0.7c0.5,0.2,1-0.2,1-0.7V49H45c1.1,0,2-0.7,2-1.6v-2.9
			c0-0.9-0.9-1.5-2-1.5h-2.1c-0.2,0-0.4-0.1-0.4-0.1v-2.7c0,0,0.2-0.1,0.4-0.1h2.2c0.2,0,0.4,0.1,0.4,0.1v0.7c0,0.3,0.2,0.6,0.5,0.7
			c0.5,0.2,1-0.2,1-0.7v-0.8c0-0.9-0.8-1.6-1.9-1.6h-0.3v-1.3c0-0.3-0.2-0.6-0.5-0.7c-0.5-0.2-1,0.2-1,0.7v1.3H43
			c-1.1,0-2,0.7-2,1.6V43c0,0.9,0.9,1.6,2,1.6h2.1c0.2,0,0.4,0.1,0.4,0.1v2.7c0,0-0.2,0.1-0.4,0.1h-1.1c0,0,0,0,0,0c0,0,0,0,0,0h-1
			c-0.2,0-0.4-0.1-0.4-0.1v-1c0-0.3-0.2-0.6-0.5-0.7c-0.5-0.2-1,0.2-1,0.7v1C41,48.3,41.8,49,42.9,49z"/>
	</g>
	<g>
		<path class="st0" d="M22.8,24.8c0.4,0,0.8-0.1,1.3-0.1c3.1-0.7,5.2-3.9,4.5-7.1c-0.4-1.5-1.3-2.9-2.6-3.7
			c-1.3-0.8-2.9-1.1-4.5-0.8c-3.2,0.7-5.2,3.9-4.5,7.1C17.7,23,20.2,24.8,22.8,24.8z M25.1,15.4c0.9,0.6,1.6,1.5,1.8,2.6l0,0
			c0.5,2.2-0.9,4.4-3.1,5c-2.2,0.5-4.4-0.9-5-3.1c-0.5-2.2,0.9-4.4,3.2-5c0.3-0.1,0.6-0.1,0.9-0.1C23.6,14.8,24.4,15,25.1,15.4z"/>
		<path class="st0" d="M27.2,26.2h-8.6c-2.5,0-4.5,2-4.5,4.5V44c0,2.2,1.5,4,3.5,4.4v5.4c0,0,0.5,0.9,1,0.9s1.1-0.9,1.1-0.9V54
			l0-6.1c0-0.5-0.4-0.9-0.9-0.9c-1.5,0-2.6-1.3-2.6-2.7V31.1c0-1.5,1.2-2.7,2.6-2.7h8c1.5,0,2.6,1.3,2.6,2.7v13.2
			c0,1.5-1.2,2.7-2.6,2.7c-0.5,0-0.9,0.4-0.9,0.9v5.9l0,0c0.3,0.5,0.7,0.9,1.2,0.9c0.5,0,0.9-0.9,0.9-0.9v-5.4
			c2-0.4,3.5-2.2,3.5-4.4V30.8C31.5,28.3,29.6,26.2,27.2,26.2z"/>
	</g>
</g>
</svg>
