<?xml version="1.0" encoding="utf-8"?>
<!-- Generator: Adobe Illustrator 21.0.0, SVG Export Plug-In . SVG Version: 6.00 Build 0)  -->
<svg version="1.1" id="Capa_1" xmlns="http://www.w3.org/2000/svg" xmlns:xlink="http://www.w3.org/1999/xlink" x="0px" y="0px"
	 viewBox="0 0 70 70" style="enable-background:new 0 0 70 70;" xml:space="preserve">
<style type="text/css">
	.st0{fill:#F2F2F2;}
</style>
<g>
	<g>
		<title>role-specific</title>
		<desc>Created with Sketch.</desc>
		<g>
			<g>
				<path class="st0" d="M15.8,30.1c0-2.9,2.4-5.3,5.3-5.3h21.3c2.9,0,5.3,2.4,5.3,5.3v0.8H36.3v-0.8c0-1.3-1-2.3-2.3-2.3h-3
					c-1.3,0-2.3,1-2.3,2.3v0.8H15.8V30.1z M34,36.2h-3c-0.4,0-0.8-0.3-0.8-0.8v-5.3c0-0.4,0.3-0.8,0.8-0.8h3c0.4,0,0.8,0.3,0.8,0.8
					v5.3C34.8,35.9,34.4,36.2,34,36.2z M40.1,49.9h-19c-2.9,0-5.3-2.4-5.3-5.3V32.4h12.9v3c0,1.3,1,2.3,2.3,2.3h3
					c1.3,0,2.3-1,2.3-2.3v-3h11.4v1.5c0,0.4,0.3,0.8,0.8,0.8c0.4,0,0.8-0.3,0.8-0.8v-3.8c0-3.8-3.1-6.8-6.8-6.8H21.1
					c-3.8,0-6.8,3.1-6.8,6.8v14.4c0,3.8,3.1,6.8,6.8,6.8h19c0.4,0,0.8-0.3,0.8-0.8C40.8,50.2,40.5,49.9,40.1,49.9L40.1,49.9z"/>
				<path class="st0" d="M24.1,21.8c0.4,0,0.8-0.3,0.8-0.8v-0.8c0-1.3,1-2.3,2.3-2.3H37c1.3,0,2.3,1,2.3,2.3V21
					c0,0.4,0.3,0.8,0.8,0.8c0.4,0,0.8-0.3,0.8-0.8v-0.8c0-2.1-1.7-3.8-3.8-3.8h-9.9c-2.1,0-3.8,1.7-3.8,3.8V21
					C23.4,21.4,23.7,21.8,24.1,21.8"/>
			</g>
		</g>
	</g>
	<g>
		<g>
			<g>
				<path class="st0" d="M48.1,37.4c-4.4,0-7.9,3.6-7.9,7.9s3.6,7.9,7.9,7.9s7.9-3.6,7.9-7.9S52.5,37.4,48.1,37.4z M48.1,51.9
					c-3.6,0-6.6-3-6.6-6.6c0-3.6,3-6.6,6.6-6.6c3.6,0,6.6,3,6.6,6.6C54.7,48.9,51.7,51.9,48.1,51.9z"/>
			</g>
		</g>
	</g>
	<path class="st0" d="M51,46h-5.6c-0.3,0-0.5-0.2-0.5-0.5v-0.1c0-0.3,0.2-0.5,0.5-0.5H51c0.3,0,0.5,0.2,0.5,0.5v0.1
		C51.5,45.8,51.3,46,51,46z"/>
</g>
</svg>
