<?xml version="1.0" encoding="utf-8"?>
<!-- Generator: Adobe Illustrator 21.0.0, SVG Export Plug-In . SVG Version: 6.00 Build 0)  -->
<svg version="1.1" id="Capa_1" xmlns="http://www.w3.org/2000/svg" xmlns:xlink="http://www.w3.org/1999/xlink" x="0px" y="0px"
	 viewBox="0 0 70 70" style="enable-background:new 0 0 70 70;" xml:space="preserve">
<style type="text/css">
	.st0{fill:#F2F2F2;}
</style>
<g id="XMLID_21037_">
	<g id="XMLID_21038_">
		<g id="XMLID_21039_">
			<path id="XMLID_21044_" class="st0" d="M37.2,20.9c0-2.6-2.1-4.8-4.8-4.8s-4.8,2.1-4.8,4.8s2.1,4.8,4.8,4.8S37.2,23.5,37.2,20.9z
				 M28.9,20.9c0-1.9,1.5-3.5,3.5-3.5c1.9,0,3.5,1.5,3.5,3.5s-1.5,3.5-3.5,3.5C30.5,24.4,28.9,22.8,28.9,20.9z"/>
			<path id="XMLID_21040_" class="st0" d="M30.5,53.1h3.7c1.6,0,2.9-1.3,2.9-2.9v-0.9h6c0.7,0,1.2-0.6,1.2-1.2v-7
				c0-0.7-0.6-1.2-1.2-1.2h-3.5v-7.6c0-3-2.4-5.4-5.4-5.4h-3.5c-3,0-5.4,2.4-5.4,5.4v7.8c0,1.4,1.1,2.6,2.4,2.8v7.3
				C27.7,51.8,29,53.1,30.5,53.1z M43,41.1V48h-9.4v-6.9H43z M26.5,40.1v-7.8c0-2.3,1.8-4.1,4.1-4.1h3.5c2.3,0,4.1,1.8,4.1,4.1v7.6
				h-4.7c-0.7,0-1.2,0.6-1.2,1.2v7c0,0.7,0.6,1.2,1.2,1.2h2.2v0.9c0,0.9-0.7,1.6-1.6,1.6h-3.7c-0.9,0-1.6-0.7-1.6-1.6v-8.6h-0.9
				C27.2,41.7,26.5,41,26.5,40.1z"/>
		</g>
	</g>
</g>
</svg>
