<?xml version="1.0" encoding="utf-8"?>
<!-- Generator: Adobe Illustrator 21.0.0, SVG Export Plug-In . SVG Version: 6.00 Build 0)  -->
<svg version="1.1" id="Capa_1" xmlns="http://www.w3.org/2000/svg" xmlns:xlink="http://www.w3.org/1999/xlink" x="0px" y="0px"
	 viewBox="0 0 70 70" style="enable-background:new 0 0 70 70;" xml:space="preserve">
<style type="text/css">
	.st0{fill:#F2F2F2;}
</style>
<g>
	<path class="st0" d="M41.5,26.8c0.4,0,0.8-0.1,1.3-0.1c3.1-0.7,5.2-3.9,4.5-7.1c-0.3-1.5-1.3-2.9-2.6-3.7c-1.3-0.8-2.9-1.1-4.5-0.8
		c-3.1,0.7-5.2,3.9-4.5,7.1C36.3,25,38.7,26.8,41.5,26.8z M43.6,17.4c0.9,0.6,1.6,1.5,1.8,2.6c0.5,2.2-0.9,4.4-3.2,5
		c-2.2,0.5-4.4-0.9-5-3.1c-0.5-2.2,0.9-4.4,3.1-5c0.3-0.1,0.6-0.1,0.9-0.1C42.2,16.8,43,17,43.6,17.4z"/>
	<path class="st0" d="M45,28.2h-7.1c0,0-4.5,2.1-4.8,4.6v8c0.3,2.2,1.2,3.8,2.8,4.3l-3.3,10.2c-0.1,0.5,0.1,1,0.6,1.1
		c0.1,0,0.2,0.1,0.3,0.1c0.4,0,0.7-0.2,0.8-0.6l0.1-0.3L38,44.8c0.1-0.3,0.1-0.6-0.1-0.8c-0.1-0.2-0.4-0.4-0.7-0.4
		c-1.8,0-2-1.8-1.9-2.7v-8.1c0-1.5,2.7-2.5,2.7-2.5H45c0,0,2.7,1.1,2.8,2.5v8c-0.1,2.4-1.4,2.7-2.1,2.7c-0.3,0-0.6,0.1-0.7,0.4
		c-0.1,0.2-0.2,0.5-0.1,0.8l2.8,11l0.1,0.2c0.1,0.5,0.6,0.8,1.1,0.6c0.5-0.1,0.8-0.6,0.6-1.1l-2.7-10.2c1.6-0.5,2.7-2.1,3-4.3v-8
		C49.5,30.3,45,28.2,45,28.2z"/>
</g>
<path class="st0" d="M18.6,26.8c-3.9,0-7.1,3.2-7.1,7.1c0,3.9,3.2,7.1,7.1,7.1s7.1-3.2,7.1-7.1C25.7,30,22.6,26.8,18.6,26.8z
	 M16.4,28.7c-0.4,0.5-0.7,1.1-0.9,1.8H14C14.6,29.7,15.4,29.1,16.4,28.7z M13.4,31.3h1.9c-0.2,0.7-0.3,1.5-0.3,2.4h-2.3
	C12.8,32.8,13,32,13.4,31.3z M13.3,36.8c-0.4-0.7-0.6-1.5-0.7-2.4H15c0,0.8,0.1,1.6,0.3,2.4H13.3z M14,37.6h1.5
	c0.2,0.7,0.6,1.4,0.9,1.9C15.4,39.1,14.6,38.4,14,37.6z M18.3,39.8c-0.7-0.3-1.3-1.1-1.7-2.2h1.7V39.8z M18.3,36.8L18.3,36.8h-2.2
	c-0.2-0.7-0.3-1.5-0.3-2.4h2.5L18.3,36.8L18.3,36.8z M18.3,33.7L18.3,33.7h-2.5c0-0.8,0.1-1.6,0.3-2.4h2.2L18.3,33.7L18.3,33.7z
	 M18.3,30.5L18.3,30.5h-1.7c0.4-1.1,1-2,1.7-2.2V30.5z M23.3,30.5h-1.5c-0.2-0.7-0.5-1.3-0.9-1.8C21.8,29.1,22.7,29.7,23.3,30.5z
	 M19.1,28.3c0.7,0.3,1.3,1.1,1.7,2.2h-1.7V28.3z M19.1,31.3h2.2c0.2,0.7,0.3,1.5,0.3,2.4h-2.5L19.1,31.3L19.1,31.3z M21.6,34.5
	c0,0.8-0.1,1.6-0.3,2.4h-2.2v-2.4H21.6z M19.1,39.8v-2.2h1.7C20.4,38.7,19.8,39.6,19.1,39.8z M20.9,39.5c0.4-0.5,0.7-1.1,0.9-1.9
	h1.5C22.7,38.4,21.8,39.1,20.9,39.5z M23.9,36.8h-2c0.2-0.7,0.3-1.5,0.3-2.4h2.3C24.5,35.3,24.3,36.1,23.9,36.8z M24.6,33.7h-2.3
	c0-0.8-0.1-1.6-0.3-2.4h1.9C24.3,32,24.5,32.8,24.6,33.7z"/>
</svg>
