<?xml version="1.0" encoding="utf-8"?>
<!-- Generator: Adobe Illustrator 21.0.0, SVG Export Plug-In . SVG Version: 6.00 Build 0)  -->
<svg version="1.1" id="Capa_1" xmlns="http://www.w3.org/2000/svg" xmlns:xlink="http://www.w3.org/1999/xlink" x="0px" y="0px"
	 viewBox="0 0 70 70" style="enable-background:new 0 0 70 70;" xml:space="preserve">
<style type="text/css">
	.st0{fill:#F2F2F2;}
</style>
<g>
	<g>
		<g>
			<g>
				<path class="st0" d="M40.5,45.2c0-1.9-0.8-3.5-2.1-4.7c-1.2-1.1-2.7-1.8-4.4-1.8c-1.7,0-3.3,0.7-4.4,1.8
					c-1.3,1.2-2.1,2.9-2.1,4.7c0,3.6,2.9,6.5,6.5,6.5C37.6,51.7,40.5,48.8,40.5,45.2z M29.2,45.2c0-2.6,2.1-4.8,4.8-4.8
					s4.8,2.1,4.8,4.8c0,2.6-2.1,4.8-4.8,4.8S29.2,47.9,29.2,45.2z"/>
				<path class="st0" d="M25.3,60v0.3h1.2V60c0-2.8,2.2-5,5-5H36c2.8,0,5,2.2,5,5v0.3h1.7V60c0-3.7-3-6.7-6.7-6.7H32
					C28.3,53.2,25.3,56.3,25.3,60z"/>
				<path class="st0" d="M34,36c7.8,0,14.1-6.3,14.1-14.1c0-7.8-6.3-14.1-14.1-14.1s-14.1,6.3-14.1,14.1C19.9,29.7,26.2,36,34,36z
					 M34,9.5c6.8,0,12.4,5.6,12.4,12.4S40.8,34.3,34,34.3s-12.4-5.6-12.4-12.4S27.2,9.5,34,9.5z"/>
			</g>
		</g>
	</g>
	<path class="st0" d="M32.6,28.3h0.4v1.8c0,0.4,0.2,0.8,0.6,0.9c0.6,0.2,1.2-0.3,1.2-0.9v-1.9h0.4c1.4,0,2.4-0.9,2.4-2v-3.6
		c0-1.1-1.1-1.9-2.4-1.9h-2.6c-0.3,0-0.5-0.1-0.5-0.1v-3.4c0.1-0.1,0.2-0.1,0.5-0.1h2.7c0.3,0,0.4,0.1,0.5,0.2v0.9
		c0,0.4,0.2,0.8,0.6,0.9c0.6,0.2,1.2-0.3,1.2-0.9v-1c0-1.1-1-2-2.4-2h-0.4v-1.6c0-0.4-0.2-0.8-0.6-0.9c-0.6-0.2-1.2,0.3-1.2,0.9v1.6
		h-0.4c-1.4,0-2.4,0.9-2.4,2v3.5c0,1.1,1.1,2,2.4,2h2.6c0.3,0,0.5,0.1,0.5,0.2v3.4c-0.1,0.1-0.2,0.2-0.5,0.2h-1.4c0,0,0,0,0,0
		s0,0,0,0h-1.3c-0.3,0-0.4-0.1-0.5-0.2v-1.2c0-0.4-0.2-0.8-0.6-0.9c-0.6-0.2-1.2,0.3-1.2,0.9v1.3C30.3,27.5,31.3,28.3,32.6,28.3z"/>
</g>
</svg>
