<?xml version="1.0" encoding="utf-8"?>
<!-- Generator: Adobe Illustrator 21.0.0, SVG Export Plug-In . SVG Version: 6.00 Build 0)  -->
<svg version="1.1" id="Capa_1" xmlns="http://www.w3.org/2000/svg" xmlns:xlink="http://www.w3.org/1999/xlink" x="0px" y="0px"
	 viewBox="0 0 70 70" style="enable-background:new 0 0 70 70;" xml:space="preserve">
<style type="text/css">
	.st0{fill:#F2F2F2;stroke:#F2F2F2;stroke-width:0.5;stroke-miterlimit:10;}
</style>
<g id="XMLID_367_">
	<g id="XMLID_368_">
		<path id="XMLID_375_" class="st0" d="M22.3,22.3c-2.5,2.5-2.5,6.5,0,9c1.1,1.1,2.6,1.7,4.1,1.8V36h-2v14.5c0,1,0.8,1.9,1.9,1.9
			h1.1c1,0,1.9-0.8,1.9-1.9V36h-2v-2.9c2.1-0.1,4.2-1.3,5.3-3.6c0.1-0.3,0.2-0.5,0.3-0.8c0.7-2.4,0.1-4.8-1.6-6.4
			C28.8,19.9,24.8,19.9,22.3,22.3z M28.4,36.8v13.7c0,0.6-0.5,1.1-1.1,1.1h-1.1c-0.6,0-1.1-0.5-1.1-1.1V36.8H28.4z M30.9,30.8
			c-2.2,2.2-5.7,2.2-7.9,0s-2.2-5.7,0-7.9c2.2-2.2,5.7-2.2,7.9,0c1.1,1.1,1.6,2.5,1.6,3.9C32.5,28.3,31.9,29.7,30.9,30.8z"/>
		
			<rect id="XMLID_374_" x="23" y="25.2" transform="matrix(0.8321 -0.5547 0.5547 0.8321 -9.7162 19.1149)" class="st0" width="7.4" height="0.8"/>
		
			<rect id="XMLID_373_" x="25.3" y="27.9" transform="matrix(0.8436 -0.537 0.537 0.8436 -10.8082 19.4234)" class="st0" width="5.3" height="0.8"/>
		<path id="XMLID_369_" class="st0" d="M44,23.3h-4.6c-1.1,0-2,0.9-2,2v1.3c0,1.1,0.9,2,2,2h1.3v7.3c0,0,0,0.1,0,0.1h-2.1v14.5
			c0,1,0.8,1.9,1.9,1.9h1.1c1,0,1.9-0.8,1.9-1.9V36h-2.1c0,0,0-0.1-0.4-0.1v-7.1c0.4,0,0.4-0.1,0.4-0.1v-1.2h0
			c0,0.4-0.2,0.2-0.4,0.4h-1.6c-0.6-0.2-1.2-1.4-1.2-1.4v-1.1c0-0.6,0.5-1.2,1.2-1.2H44c0.2,0,0.4-0.2,0.4-0.4
			C44.4,23.5,44.2,23.3,44,23.3z M42.8,36.8v13.7c0,0.6-0.5,1.1-1,1.1h-1.2c-0.6,0-1-0.5-1-1.1V36.8H42.8z M40.7,28.8
			c0,0,0-0.1,0-0.2h0V28.8z"/>
	</g>
</g>
</svg>
