<?xml version="1.0" encoding="utf-8"?>
<!-- Generator: Adobe Illustrator 21.0.0, SVG Export Plug-In . SVG Version: 6.00 Build 0)  -->
<svg version="1.1" id="Capa_1" xmlns="http://www.w3.org/2000/svg" xmlns:xlink="http://www.w3.org/1999/xlink" x="0px" y="0px"
	 viewBox="0 0 70 70" style="enable-background:new 0 0 70 70;" xml:space="preserve">
<style type="text/css">
	.st0{fill:#F2F2F2;}
</style>
<g>
	<g transform="translate(0,-1020.3622)">
		<g transform="translate(-0.50781,0.55001)">
			<g transform="matrix(0.70710678,0.70710678,-0.70710678,0.70710678,810.18819,741.96454)">
				<path class="st0" d="M-339.7,759.9c-0.2,0.2-0.2,0.6,0,0.8l4.7,4.7l-4.7,4.7c-0.2,0.2-0.2,0.6,0,0.8l3.4,3.4
					c0.2,0.2,0.6,0.2,0.8,0l4.7-4.7l13.2,13.2c0.2,0.2,0.6,0.2,0.8,0l3.4-3.4c0.2-0.2,0.2-0.6,0-0.8l-13.2-13.2l4.7-4.7
					c0.2-0.2,0.2-0.6,0-0.8l-3.4-3.4c-0.2-0.2-0.6-0.2-0.8,0l-4.7,4.7l-4.7-4.7c-0.1-0.1-0.3-0.2-0.4-0.2c-0.2,0-0.3,0.1-0.4,0.2
					L-339.7,759.9z M-338.4,760.4l2.5-2.5l4.7,4.7c0.2,0.2,0.6,0.2,0.8,0l4.7-4.7l2.5,2.5l-4.7,4.7c-0.2,0.2-0.2,0.6,0,0.8
					l13.2,13.2l-2.5,2.5l-13.2-13.2c-0.2-0.2-0.6-0.2-0.8,0l-4.7,4.7l-2.5-2.5l4.7-4.7c0.2-0.2,0.2-0.6,0-0.8L-338.4,760.4z"/>
			</g>
		</g>
	</g>
</g>
</svg>
