<?xml version="1.0" encoding="utf-8"?>
<!-- Generator: Adobe Illustrator 21.0.0, SVG Export Plug-In . SVG Version: 6.00 Build 0)  -->
<svg version="1.1" id="Capa_1" xmlns="http://www.w3.org/2000/svg" xmlns:xlink="http://www.w3.org/1999/xlink" x="0px" y="0px"
	 viewBox="0 0 70 70" style="enable-background:new 0 0 70 70;" xml:space="preserve">
<style type="text/css">
	.st0{fill:#F2F2F2;}
</style>
<g>
	<path class="st0" d="M44.7,33.5c-1.4,0-2.6,0.8-3.2,2h-3.3L37.7,35c-1.5-1.5-3.3-3.4-4.8-5.5c-0.9-1.3-2.5-2.1-4.1-2.1
		c-3.4,0-6.1,2.7-6.1,6.1l0,18.2c0,0.5,0.4,1,0.9,1.1c0.6,0,1.1-0.4,1.1-1V33.5c0-2.2,1.8-4,4-4c1,0,1.9,0.5,2.5,1.3
		c1.5,2.2,3.4,4.2,5,5.8l0.7,0.7c0.2,0.2,0.4,0.3,0.7,0.3l4.2,0c0.5,0,1,0.4,1.1,0.9c0,0.6-0.4,1.1-1,1.1h-5.3l-2.9-2.9
		c-0.2-0.2-0.4-0.3-0.7-0.3c-0.6,0-1,0.5-1,1v14.3c0,0.5,0.4,1,0.9,1.1c0.6,0,1.1-0.4,1.1-1V39.8l1.5,1.5c0.2,0.2,0.4,0.3,0.7,0.3
		H41v10.1c0,0.5,0.4,1,0.9,1.1c0.6,0,1.1-0.4,1.1-1v-2.4v-7.9c1.3-0.4,2.2-1.6,2.2-3.1c0-1.2-0.6-2.2-1.6-2.8
		c0.3-0.3,0.7-0.4,1.1-0.4c0.9,0,1.6,0.7,1.6,1.6v0.9c0,0.4,0.3,0.8,0.7,0.9c0.2,0.1,0.3,0.1,0.6,0c0.5-0.1,0.8-0.6,0.8-1.1l0-0.4
		C48.2,35,46.6,33.5,44.7,33.5z"/>
	<path class="st0" d="M35,21.3c0-2.8-2.3-5.1-5.1-5.1s-5.1,2.3-5.1,5.1s2.3,5.1,5.1,5.1S35,24.1,35,21.3z M26.9,21.3
		c0-1.7,1.4-3,3-3s3,1.4,3,3c0,1.7-1.4,3-3,3S26.9,22.9,26.9,21.3z"/>
</g>
</svg>
