<?xml version="1.0" encoding="utf-8"?>
<!-- Generator: Adobe Illustrator 21.0.0, SVG Export Plug-In . SVG Version: 6.00 Build 0)  -->
<svg version="1.1" id="Capa_1" xmlns="http://www.w3.org/2000/svg" xmlns:xlink="http://www.w3.org/1999/xlink" x="0px" y="0px"
	 viewBox="0 0 70 70" style="enable-background:new 0 0 70 70;" xml:space="preserve">
<style type="text/css">
	.st0{fill:#F2F2F2;}
</style>
<g>
	<title>less_Is_More_V1.0</title>
	<path class="st0" d="M32.7,41.9l-5.9,8.5c-0.3,0.4-0.8,0.5-1.2,0.2c-0.4-0.3-0.5-0.8-0.2-1.2l5.9-8.5c0.3-0.4,0.8-0.5,1.2-0.2
		C32.9,41,33,41.5,32.7,41.9z M42.6,49.4L28.4,29.1c-1.6-2.3-1.6-5.3-0.1-7.6l0-0.1c2.1-3.1,6.3-4,9.4-1.9c0.8,0.5,1.4,1.2,1.9,1.9
		l0,0.1c1.5,2.3,1.5,5.3-0.1,7.6l-4.2,6c-0.3,0.4-0.2,0.9,0.2,1.2c0.4,0.3,0.9,0.2,1.2-0.2l0,0l4.2-6c2-2.8,2.1-6.5,0.2-9.4l0-0.1
		c-2.5-3.9-7.8-5-11.7-2.5c-1,0.6-1.9,1.5-2.5,2.5l0,0.1c-1.9,2.9-1.8,6.6,0.2,9.4l14.1,20.3c0.3,0.4,0.8,0.5,1.2,0.2
		S42.8,49.8,42.6,49.4z"/>
</g>
</svg>
