<?xml version="1.0" encoding="utf-8"?>
<!-- Generator: Adobe Illustrator 21.0.0, SVG Export Plug-In . SVG Version: 6.00 Build 0)  -->
<svg version="1.1" id="Capa_1" xmlns="http://www.w3.org/2000/svg" xmlns:xlink="http://www.w3.org/1999/xlink" x="0px" y="0px"
	 viewBox="0 0 70 70" style="enable-background:new 0 0 70 70;" xml:space="preserve">
<style type="text/css">
	.st0{fill:#F2F2F2;}
</style>
<g>
	<g>
		<g transform="translate(0,-952.36218)">
			<path class="st0" d="M34,969.7c-0.2,0-0.4,0.1-0.6,0.2l-19,15.4c-0.4,0.3-0.5,0.9-0.1,1.3c0.2,0.2,0.4,0.3,0.7,0.3h3.6v17.2
				c0,0.6,0.7,1.1,1.3,0.8c0.3-0.1,0.5-0.5,0.5-0.8l0,0V986c0-0.5-0.4-0.9-0.9-0.9h-2l17-13.7c0.4-0.3,0.5-0.9,0.2-1.3
				C34.6,969.9,34.3,969.7,34,969.7z M37.1,972.3c-0.5,0.1-0.9,0.5-0.8,1c0,0.2,0.1,0.5,0.3,0.6l13.8,11.2h-2
				c-0.5,0-0.9,0.4-0.9,0.9v17.2H23.2c-0.6,0-1.1,0.7-0.8,1.3c0.1,0.3,0.5,0.5,0.8,0.5h0h25.3c0.5,0,0.9-0.4,0.9-0.9v-17.2h3.6
				c0.3,0,0.6-0.1,0.8-0.4c0.3-0.4,0.2-0.9-0.2-1.2l-15.8-12.8C37.6,972.4,37.3,972.3,37.1,972.3z"/>
		</g>
	</g>
	<g>
		<g>
		</g>
		<path class="st0" d="M32.6,46.3h0.4v1.8c0,0.4,0.2,0.8,0.6,0.9c0.6,0.2,1.2-0.3,1.2-0.9v-1.9h0.4c1.4,0,2.4-0.9,2.4-2v-3.6
			c0-1.1-1.1-1.9-2.4-1.9h-2.6c-0.3,0-0.5-0.1-0.5-0.1v-3.4c0.1-0.1,0.2-0.1,0.5-0.1h2.7c0.3,0,0.4,0.1,0.5,0.2v0.9
			c0,0.4,0.2,0.8,0.6,0.9c0.6,0.2,1.2-0.3,1.2-0.9v-1c0-1.1-1-2-2.4-2h-0.4v-1.6c0-0.4-0.2-0.8-0.6-0.9c-0.6-0.2-1.2,0.3-1.2,0.9
			v1.6h-0.4c-1.4,0-2.4,0.9-2.4,2v3.5c0,1.1,1.1,2,2.4,2h2.6c0.3,0,0.5,0.1,0.5,0.2v3.4c-0.1,0.1-0.2,0.2-0.5,0.2h-1.4c0,0,0,0,0,0
			s0,0,0,0h-1.3c-0.3,0-0.4-0.1-0.5-0.2v-1.2c0-0.4-0.2-0.8-0.6-0.9c-0.6-0.2-1.2,0.3-1.2,0.9v1.3C30.3,45.5,31.3,46.3,32.6,46.3z"
			/>
	</g>
</g>
</svg>
