<?xml version="1.0" encoding="UTF-8" standalone="no"?>
<svg xmlns="http://www.w3.org/2000/svg" width="40" height="50">
  <path d="M6 25H2L20 6l18 19h-4v19H6z" fill="none" stroke="#f2f2f2" stroke-width="2" stroke-linejoin="round"/>
  <path d="M20 18.6a2 2 0 0 0-2 2V24a4.5 4.5 0 0 0-2.5 4 4.5 4.5 0 0 0 4.5 4.5 4.5 4.5 0 0 0 4.5-4.5 4.5 4.5 0 0 0-2.5-4v-3.4a2 2 0 0 0-2-2z" fill="none" stroke="#f2f2f2" stroke-width="2" stroke-linejoin="round" paint-order="markers fill stroke"/>
  <path d="M10 28h2m16 0h2m-10 8v2m-7-17l1.3 1.3m11.4 11.4L27 35m0-14l-1.3 1.3M14.3 33.7L13 35" fill="none" stroke="#f2f2f2" stroke-width="2" stroke-linecap="round"/>
  <path d="M20 6v12.6" fill="none" stroke="#f2f2f2" stroke-width="2"/>
</svg>