<?xml version="1.0" encoding="utf-8"?>
<!-- Generator: Adobe Illustrator 21.0.0, SVG Export Plug-In . SVG Version: 6.00 Build 0)  -->
<svg version="1.1" id="Capa_1" xmlns="http://www.w3.org/2000/svg" xmlns:xlink="http://www.w3.org/1999/xlink" x="0px" y="0px"
	 viewBox="0 0 70 70" style="enable-background:new 0 0 70 70;" xml:space="preserve">
<style type="text/css">
	.st0{fill:#F2F2F2;}
</style>
<g id="XMLID_1792_">
	<title>Contact</title>
	<path id="XMLID_1806_" class="st0" d="M33.6,28.3c-2,0-3.7,1.7-3.7,3.7c0,2,1.7,3.7,3.7,3.7c2,0,3.7-1.7,3.7-3.7
		C37.3,30,35.7,28.3,33.6,28.3L33.6,28.3z M33.6,34.2c-1.2,0-2.2-1-2.2-2.2s1-2.2,2.2-2.2c1.2,0,2.2,1,2.2,2.2S34.8,34.2,33.6,34.2
		L33.6,34.2z"/>
	<path id="XMLID_1802_" class="st0" d="M23,29.8c-2,0-3.7,1.6-3.7,3.7c0,2,1.6,3.7,3.7,3.7s3.7-1.6,3.7-3.7l0,0
		C26.6,31.4,25,29.8,23,29.8z M23,35.7c-1.2,0-2.2-1-2.2-2.2c0-1.2,1-2.2,2.2-2.2c1.2,0,2.2,1,2.2,2.2C25.2,34.7,24.2,35.7,23,35.7
		C23,35.7,23,35.7,23,35.7L23,35.7z"/>
	<path id="XMLID_1799_" class="st0" d="M44.1,29.8c-2,0-3.7,1.6-3.7,3.7c0,2,1.6,3.7,3.7,3.7c2,0,3.7-1.6,3.7-3.7l0,0
		C47.7,31.4,46.1,29.8,44.1,29.8z M44.1,35.7c-1.2,0-2.2-1-2.2-2.2c0-1.2,1-2.2,2.2-2.2c1.2,0,2.2,1,2.2,2.2
		C46.3,34.7,45.3,35.7,44.1,35.7C44.1,35.7,44.1,35.7,44.1,35.7L44.1,35.7z"/>
	<path id="XMLID_1793_" class="st0" d="M33.5,15C22.2,15,13,24.2,13,35.5c0,4.3,1.3,8.4,3.8,11.9l0,0c0.4,0.6,0.8,1.1,1.3,1.6
		c0.7,0.8,0.9,1,1.4,1.4c0.2,0.1,0.3,0.3,0.5,0.4c1.7,1.5,3.6,2.7,5.7,3.6c0.5,0.2,1,0.4,1.4,0.5c0.8,0.3,1.5,0.5,2.3,0.6
		c0.5,0.1,1,0.2,1.5,0.2c0.9,0.1,1.7,0.2,2.6,0.2c1,0,1.9-0.1,2.9-0.2c0.5-0.1,1-0.1,1.5-0.3c0.7-0.2,1.4-0.3,2.1-0.6
		c0.5-0.2,1-0.3,1.4-0.5c2.1-0.9,4-2.1,5.7-3.6c0.2-0.1,0.3-0.3,0.5-0.4c0.5-0.5,1-0.9,1.4-1.5c0.5-0.5,0.9-1.1,1.3-1.6
		c6.5-9.2,4.4-22-4.8-28.5C41.9,16.4,37.8,15,33.5,15z M37.4,50.5c-0.4,0-0.7,0.3-0.7,0.7l-0.2,3.1c-1,0.2-2,0.2-3,0.3
		c-0.9,0-1.8-0.1-2.7-0.2l-0.2-3.1c0-0.4-0.4-0.7-0.7-0.7h-0.6c-0.2,0-0.4-0.1-0.5-0.3c-0.2-0.2-0.3-0.5-0.2-0.8l1-8.6
		c0.1-1.2,1.1-2.2,2.3-2.3h3.8c1.2,0.1,2.2,1,2.3,2.3l1,8.6c0,0.3,0,0.6-0.2,0.8c-0.1,0.2-0.3,0.3-0.5,0.3L37.4,50.5z M49.9,45
		l-0.4-3.1c-0.2-1.9-1.8-3.2-3.7-3.2h-3.6c-0.4,0-0.8,0.1-1.2,0.2c-0.4,0.2-0.5,0.6-0.4,1c0.1,0.3,0.5,0.5,0.8,0.4
		c0.2-0.1,0.5-0.1,0.7-0.1h3.6c1.1,0,2.1,0.8,2.2,1.9l0.6,4.9c-2,2.6-4.6,4.7-7.6,6c-0.4,0.2-0.9,0.3-1.3,0.5
		c-0.6,0.2-1.2,0.4-1.8,0.5l0.1-2c0.6,0,1.1-0.3,1.5-0.7c0.5-0.5,0.7-1.2,0.6-1.9l-1-8.6c-0.2-2-1.8-3.5-3.8-3.6h-3.8
		c-2,0.1-3.6,1.6-3.8,3.6l-1,8.6c-0.1,0.7,0.1,1.4,0.6,1.9c0.4,0.4,0.9,0.7,1.5,0.7l0.2,2c-0.7-0.2-1.4-0.4-2.1-0.6
		c-0.4-0.2-0.9-0.3-1.3-0.5c-3-1.3-5.6-3.4-7.6-6l0,0L19,42c0.1-1.1,1.1-1.9,2.2-1.9h3.6c0.3,0,0.5,0,0.7,0.1
		c0.4,0.1,0.8-0.1,0.9-0.5c0.1-0.3-0.1-0.7-0.4-0.8c-0.4-0.1-0.8-0.2-1.2-0.2h-3.6c-1.9,0-3.4,1.4-3.7,3.2L17.1,45
		C11.9,36,15,24.4,24,19.1s20.7-2.1,25.9,6.9c1.7,2.9,2.5,6.1,2.5,9.5C52.5,38.9,51.6,42.1,49.9,45z"/>
</g>
</svg>
