<svg xmlns="http://www.w3.org/2000/svg" width="40" height="50" viewBox="0 0 40 50">
    <path fill="#f2f2f2" d="M17.596 8.808c-.283 0-.566.282-.566.565v6.647h-6.647c-.283 0-.565.283-.565.566v4.808c0 .283.282.566.565.566h6.647v18.667c0 .283.283.566.566.566h4.808c.283 0 .566-.283.566-.566V21.96h6.647c.282 0 .565-.283.565-.566v-4.808c0-.283-.283-.566-.565-.566H22.97V9.373c0-.141-.071-.353-.142-.424-.141-.141-.283-.141-.424-.141zm.565 1.272h3.536v6.647c0 .283.283.566.566.566h6.646v3.535h-6.646c-.283 0-.566.283-.566.566v18.668H18.16V21.394c0-.283-.282-.566-.565-.566h-6.647v-3.535h6.647c.283 0 .565-.283.565-.566z"/>
</svg>
