<?xml version="1.0" encoding="utf-8"?>
<svg xmlns="http://www.w3.org/2000/svg" width="70" height="70" viewBox="0 0 70 70">
    <path fill="#f2f2f2" d="M15.8 30.1c0-2.9 2.4-5.3 5.3-5.3h21.3c2.9 0 5.3 2.4 5.3 5.3v.8H36.3v-.8c0-1.3-1-2.3-2.3-2.3h-3c-1.3 0-2.3 1-2.3 2.3v.8H15.8v-.8zM34 36.2h-3a.8.8 0 0 1-.8-.8v-5.3c0-.4.3-.8.8-.8h3c.4 0 .8.3.8.8v5.3c0 .5-.4.8-.8.8zm6.1 13.7h-19a5.3 5.3 0 0 1-5.3-5.3V32.4h12.9v3c0 1.3 1 2.3 2.3 2.3h3c1.3 0 2.3-1 2.3-2.3v-3h11.4v1.5c0 .4.3.8.8.8.4 0 .8-.3.8-.8v-3.8c0-3.8-3.1-6.8-6.8-6.8H21.1a6.8 6.8 0 0 0-6.8 6.8v14.4c0 3.8 3.1 6.8 6.8 6.8h19c.4 0 .8-.3.8-.8a.9.9 0 0 0-.8-.6zm-16-28.1c.4 0 .8-.3.8-.8v-.8c0-1.3 1-2.3 2.3-2.3H37c1.3 0 2.3 1 2.3 2.3v.8c0 .4.3.8.8.8.4 0 .8-.3.8-.8v-.8c0-2.1-1.7-3.8-3.8-3.8h-9.9a3.8 3.8 0 0 0-3.8 3.8v.8c0 .4.3.8.7.8"/>
    <path fill="#f2f2f2" d="M48.1 37.4c-4.4 0-7.9 3.6-7.9 7.9s3.6 7.9 7.9 7.9 7.9-3.6 7.9-7.9-3.5-7.9-7.9-7.9zm0 14.5c-3.6 0-6.6-3-6.6-6.6 0-3.6 3-6.6 6.6-6.6 3.6 0 6.6 3 6.6 6.6 0 3.6-3 6.6-6.6 6.6z"/>
    <path fill="#f2f2f2" d="M51 46h-5.6c-.3 0-.5-.2-.5-.5v-.1c0-.3.2-.5.5-.5H51c.3 0 .5.2.5.5v.1c0 .3-.2.5-.5.5z"/>
</svg>
