<?xml version="1.0" encoding="utf-8"?>
<!-- Generator: Adobe Illustrator 21.0.0, SVG Export Plug-In . SVG Version: 6.00 Build 0)  -->
<svg version="1.1" id="Capa_1" xmlns="http://www.w3.org/2000/svg" xmlns:xlink="http://www.w3.org/1999/xlink" x="0px" y="0px"
	 viewBox="0 0 70 70" style="enable-background:new 0 0 70 70;" xml:space="preserve">
<style type="text/css">
	.st0{fill:#F2F2F2;}
</style>
<g>
	<g>
		<path class="st0" d="M52.5,40.9c0-0.1,0-0.2-0.1-0.3c0,0,0,0,0-0.1c0,0,0,0,0-0.1l-8.1-13.3c-0.1-0.2-0.4-0.4-0.7-0.4h-4.1
			l9.3-9.3c0.3-0.3,0.3-0.8,0-1.1L35.6,3.1c-0.3-0.3-0.8-0.3-1.1,0L17.1,20.5c-0.3,0.3-0.3,0.8,0,1.1l5.2,5.3h0
			c-0.3-0.1-0.5,0-0.7,0.3l-8.1,13.3c0,0,0,0,0,0.1c0,0,0,0,0,0.1c0,0.1-0.1,0.2-0.1,0.3c0,0,0,0,0,0v21.4c0,0.4,0.4,0.8,0.8,0.8
			h37.4c0.4,0,0.8-0.4,0.8-0.8L52.5,40.9C52.5,40.9,52.5,40.9,52.5,40.9z M35.1,4.8l12.1,12.1L30.9,33.2l-6.1-6.1l-6-6L35.1,4.8z
			 M22.8,28.5H24l6.4,6.4c0.1,0.1,0.2,0.1,0.3,0.2c0.1,0,0.2,0.1,0.3,0.1h7c0.4,0,0.7-0.2,0.8-0.6c0.2-0.6-0.2-1.1-0.8-1.1h-5
			l4.9-4.9h5.3l7.1,11.7H15.7L22.8,28.5z M50.9,61.6H15V41.8h35.9L50.9,61.6L50.9,61.6z"/>
	</g>
	<g>
	</g>
	<g>
	</g>
	<g>
	</g>
	<g>
	</g>
	<g>
	</g>
	<g>
	</g>
	<g>
	</g>
	<g>
	</g>
	<g>
	</g>
	<g>
	</g>
	<g>
	</g>
	<g>
	</g>
	<g>
	</g>
	<g>
	</g>
	<g>
	</g>
</g>
</svg>
