<?xml version="1.0" encoding="utf-8"?>
<!-- Generator: Adobe Illustrator 21.0.0, SVG Export Plug-In . SVG Version: 6.00 Build 0)  -->
<svg version="1.1" id="Capa_1" xmlns="http://www.w3.org/2000/svg" xmlns:xlink="http://www.w3.org/1999/xlink" x="0px" y="0px"
	 viewBox="0 0 70 70" style="enable-background:new 0 0 70 70;" xml:space="preserve">
<style type="text/css">
	.st0{fill:#F2F2F2;stroke:#F2F2F2;stroke-miterlimit:10;}
</style>
<g id="XMLID_404_">
	<title>05_collections</title>
	<path id="XMLID_405_" class="st0" d="M25.4,24.8c2.7-1.4,3.7-4.9,2-7.5c-1.3-2-3.9-2.9-6.1-2c-3,1.1-4.2,4.5-2.8,7.2
		c0.5,1,1.3,1.8,2.3,2.3c-3,1.2-5,4.1-5,7.3v8.7c0,0.3,0.2,0.5,0.5,0.5h8.8v13.2h-4.9v-9.7c0.2-0.3,0-0.5-0.3-0.5s-0.2,0.5-0.2,0.5
		v10.2c0,0.3,0.2,0.5,0.5,0.5h5.4c0.3,0,0.5-0.2,0.5-0.5V40.9c0-0.3-0.2-0.5-0.5-0.5h-8.8V32c0-3.7,2.9-6.8,6.4-6.8s6.4,3,6.4,6.8
		V41c0,0.3,0.2,0.5,0.5,0.5s0.5-0.2,0.5-0.5v-8.8C30.5,28.9,28.5,26,25.4,24.8z M18.8,20.2c0-2.3,1.9-4.2,4.2-4.2s4.2,1.9,4.2,4.2
		s-1.9,4.2-4.2,4.2l0,0C20.7,24.4,18.8,22.5,18.8,20.2z M51.3,42.9l-7.9-13.9c2.7-0.4,4.5-3,4-5.6c-0.4-2.7-3-4.5-5.6-4
		s-4.5,3-4,5.6c0.3,2.1,2,3.7,4,4l-7.9,13.9c-0.1,0.2-0.1,0.5,0.2,0.7c0.1,0,0.2,0.2,0.2,0.2h10.8v10.8h-4.9V46
		c0-0.3-0.2-0.5-0.5-0.5s-0.5,0.2-0.5,0.5v9.1c0,0.3,0.2,0.5,0.5,0.5h5.4c0.3,0,0.5-0.2,0.5-0.5v-12c0,0,0-0.5-0.2-0.3H35.2
		l7.5-13.3L50,42.8h-1.9c-0.3-0.2-0.5,0-0.5,0.3s0.5,0.2,0.5,0.2h2.7c0,0,0.5,0.1,0.5-0.2C51.4,43,51.3,42.9,51.3,42.9z M42.6,28
		c-2.2,0-3.9-1.8-3.9-3.9s1.8-3.9,3.9-3.9s3.9,1.8,3.9,3.9S44.8,28,42.6,28z"/>
</g>
</svg>
