<?xml version="1.0" encoding="utf-8"?>
<!-- Generator: Adobe Illustrator 21.0.0, SVG Export Plug-In . SVG Version: 6.00 Build 0)  -->
<svg version="1.1" id="Capa_1" xmlns="http://www.w3.org/2000/svg" xmlns:xlink="http://www.w3.org/1999/xlink" x="0px" y="0px"
	 viewBox="0 0 70 70" style="enable-background:new 0 0 70 70;" xml:space="preserve">
<style type="text/css">
	.st0{fill:#F2F2F2;}
</style>
<g>
	<g transform="translate(0,-952.36218)">
		<path class="st0" d="M33.9,970.7c-0.1,0-0.3,0.1-0.4,0.1l-20.6,11.8c-0.4,0.2-0.6,0.7-0.4,1.2c0.1,0.3,0.5,0.5,0.8,0.5h0.6l3.4-2
			v20.7c0,0.5,0.4,1,1,1h31.4c0.5,0,1-0.4,1-1v-20.7l3.4,2c0.5,0.3,1.1,0.1,1.3-0.4s0.1-1.1-0.4-1.3l0,0l-4.4-2.5v-6.4
			c0-0.5-0.4-1-1-1h-6.9c0,0-0.1,0-0.1,0c-0.5,0-0.9,0.5-0.9,1v1.4l-7.3-4.2C34.3,970.7,34.1,970.7,33.9,970.7z M34,972.8l14.7,8.4
			v20.9H30.1v-12.7h7.8v6.9c0,0.7,0.7,1.2,1.5,0.9c0.3-0.2,0.5-0.5,0.5-0.9c0,0,0,0,0,0v-7.8c0-0.5-0.4-1-1-1h-9.8c0,0-0.1,0-0.1,0
			c-0.5,0-0.9,0.5-0.9,1v13.7h-8.8v-20.9L34,972.8z M43.8,974.6h4.9v4.3l-4.9-2.8V974.6z M39.1,998.6c-0.5,0-1,0.4-1,1
			c0,0.5,0.4,1,1,1c0.5,0,1-0.4,1-1C40,999.1,39.6,998.6,39.1,998.6z"/>
	</g>
</g>
</svg>
