<?xml version="1.0" encoding="utf-8"?>
<!-- Generator: Adobe Illustrator 21.0.0, SVG Export Plug-In . SVG Version: 6.00 Build 0)  -->
<svg version="1.1" id="Capa_1" xmlns="http://www.w3.org/2000/svg" xmlns:xlink="http://www.w3.org/1999/xlink" x="0px" y="0px"
	 viewBox="0 0 70 70" style="enable-background:new 0 0 70 70;" xml:space="preserve">
<style type="text/css">
	.st0{fill:#F2F2F2;}
</style>
<g>
	<g transform="translate(0,-952.36216)">
		<path class="st0" d="M41.2,981.8c-7.9,0-14.3,6.4-14.3,14.3c0,7.9,6.4,14.3,14.3,14.3s14.3-6.4,14.3-14.3
			C55.5,988.2,49.1,981.8,41.2,981.8z M41.2,982.7c7.4,0,13.3,6,13.3,13.3c0,7.4-6,13.3-13.3,13.3s-13.3-6-13.3-13.3
			C27.8,988.7,33.8,982.7,41.2,982.7z"/>
		<path class="st0" d="M24.4,964.3c-3.9-0.2-7.9,1.3-10.8,4.2c-4.7,4.7-5.5,12-2.1,17.6c3.5,5.6,10.4,8.2,16.6,6.1
			c0.3-0.1,0.4-0.4,0.3-0.6c-0.1-0.3-0.4-0.4-0.6-0.3c0,0,0,0,0,0c-5.9,1.9-12.3-0.4-15.5-5.7c-3.2-5.3-2.4-12.1,1.9-16.4
			c4.4-4.4,11.2-5.2,16.4-1.9c5.3,3.2,7.6,9.6,5.7,15.5c-0.1,0.3,0.1,0.5,0.3,0.6s0.5-0.1,0.6-0.3c0,0,0,0,0,0
			c2.1-6.3-0.5-13.2-6.1-16.6C29.1,965.1,26.7,964.4,24.4,964.3L24.4,964.3z"/>
		<path class="st0" d="M21.3,972l-4.2,4.2v8.6h0.5h8.1l4.2-4.2V972H21.3z M22,973.3h7.2v7.2l-3.7,3.7h-7.2v-7.2L22,973.3z"/>
		<path class="st0" d="M29.1,972.5l-3.7,3.3h-7.7v1.3h8.1l4-3.9L29.1,972.5z"/>
		<path class="st0" d="M24.8,976.5v7.7h1.3v-7.7H24.8z"/>
		<g transform="matrix(1,0,0,-1,0,2032.0137)">
			<path class="st0" d="M35.7,1030.6v9h1.3v-9H35.7z"/>
			<path class="st0" d="M45.3,1030.6h-9v1.3h9V1030.6z"/>
			<path class="st0" d="M36.8,1030.8l-0.7,0.7l9.5,9.5l0.7-0.7L36.8,1030.8z"/>
		</g>
	</g>
</g>
</svg>
