<?xml version="1.0" encoding="utf-8"?>
<!-- Generator: Adobe Illustrator 21.0.0, SVG Export Plug-In . SVG Version: 6.00 Build 0)  -->
<svg version="1.1" id="Capa_1" xmlns="http://www.w3.org/2000/svg" xmlns:xlink="http://www.w3.org/1999/xlink" x="0px" y="0px"
	 viewBox="0 0 70 70" style="enable-background:new 0 0 70 70;" xml:space="preserve">
<style type="text/css">
	.st0{fill:#F2F2F2;}
</style>
<g id="XMLID_1175_">
	<path id="XMLID_1180_" class="st0" d="M44.7,10H23.1c-1.7,0-3.1,1.4-3.1,3.1v44.1c0,1.7,1.4,3.1,3.1,3.1h21.6
		c1.7,0,3.1-1.4,3.1-3.1V13.1C47.7,11.4,46.3,10,44.7,10z M44.8,58.7H23.5c-0.8,0-1.4-0.6-1.4-1.4v-5h24.1v5
		C46.2,58.1,45.6,58.7,44.8,58.7z M46.2,50.7H22.1V16.4h24.1V50.7z M46.2,14.8H22.1v-1.3c0-0.8,0.6-1.4,1.4-1.4h7.7
		c0.1,0.3,0.3,0.5,0.6,0.5h4.7c0.3,0,0.6-0.3,0.6-0.5h7.7c0.8,0,1.4,0.6,1.4,1.4V14.8z"/>
	<circle id="XMLID_1179_" class="st0" cx="34.1" cy="55.5" r="1.4"/>
	<circle id="XMLID_1178_" class="st0" cx="34.1" cy="38.7" r="1.3"/>
	<path id="XMLID_1177_" class="st0" d="M37.5,36.3c-0.9-0.9-2.1-1.4-3.4-1.4s-2.5,0.5-3.4,1.4l-1.1-1.1c1.2-1.2,2.8-1.9,4.6-1.9
		c1.7,0,3.3,0.6,4.6,1.9L37.5,36.3z"/>
	<path id="XMLID_1176_" class="st0" d="M28,33.3l-1.1-1.1c4-4,10.4-4,14.4,0l-1.1,1.1C36.8,29.9,31.4,29.9,28,33.3z"/>
</g>
</svg>
