<?xml version="1.0" encoding="utf-8"?>
<!-- Generator: Adobe Illustrator 21.0.0, SVG Export Plug-In . SVG Version: 6.00 Build 0)  -->
<svg version="1.1" id="Capa_1" xmlns="http://www.w3.org/2000/svg" xmlns:xlink="http://www.w3.org/1999/xlink" x="0px" y="0px"
	 viewBox="0 0 70 70" style="enable-background:new 0 0 70 70;" xml:space="preserve">
<style type="text/css">
	.st0{fill:#F2F2F2;}
</style>
<g>
	<g transform="translate(0,-952.36216)">
		<path class="st0" d="M44.3,981.8c-7.9,0-14.3,6.4-14.3,14.3s6.4,14.3,14.3,14.3s14.3-6.4,14.3-14.3S52.2,981.8,44.3,981.8z
			 M44.3,982.7c7.4,0,13.3,6,13.3,13.3s-6,13.3-13.3,13.3s-13.3-6-13.3-13.3S36.9,982.7,44.3,982.7z"/>
		<path class="st0" d="M27.5,964.3c-3.9-0.2-7.9,1.3-10.8,4.2c-4.7,4.7-5.5,12-2.1,17.6c3.5,5.6,10.4,8.2,16.6,6.1
			c0.3-0.1,0.4-0.4,0.3-0.6c-0.1-0.3-0.4-0.4-0.6-0.3c0,0,0,0,0,0c-5.9,1.9-12.3-0.4-15.5-5.7c-3.2-5.3-2.4-12.1,1.9-16.4
			c4.4-4.4,11.2-5.2,16.4-1.9c5.3,3.2,7.6,9.6,5.7,15.5c-0.1,0.3,0.1,0.5,0.3,0.6s0.5-0.1,0.6-0.3c0,0,0,0,0,0
			c2.1-6.3-0.5-13.2-6.1-16.6C32.2,965.1,29.8,964.4,27.5,964.3L27.5,964.3z"/>
		<path class="st0" d="M24.4,972l-4.2,4.2v8.6h0.5h8.1l4.2-4.2V972H24.4z M25.1,973.3h7.2v7.2l-3.7,3.7h-7.2v-7.2L25.1,973.3z"/>
		<path class="st0" d="M32.2,972.5l-3.7,3.3h-7.7v1.3h8.1l4-3.9L32.2,972.5z"/>
		<path class="st0" d="M27.9,976.5v7.7h1.3v-7.7H27.9z"/>
		<path class="st0" d="M48.3,991.2v9H49v-9H48.3z"/>
		<path class="st0" d="M40.7,990.6v1.3h9v-1.3H40.7z"/>
		<path class="st0" d="M48.7,991l-9.5,9.5l0.7,0.7l9.5-9.5L48.7,991z"/>
	</g>
</g>
</svg>
