<svg xmlns="http://www.w3.org/2000/svg" width="50" height="50" viewBox="0 0 50 50">
    <path fill="#f2f2f2" d="M18.55 30.38v-1.9c0-2.7 2.2-4.9 4.9-4.9h3.1c2.7 0 4.9 2.2 4.9 4.9v1.9c0 .4-.3.7-.7.7-.4 0-.7-.3-.7-.7v-1.9c0-1.9-1.6-3.5-3.5-3.5h-3.1c-1.9 0-3.5 1.6-3.5 3.5v1.9c0 .4-.3.7-.7.7-.4 0-.7-.3-.7-.7zm3.2-10.7l-.2-1.6c-.1-.9.1-1.8.7-2.6.7-.9 1.7-1.3 2.7-1.3h.3c.9 0 1.8.3 2.5.9.8.8 1.1 1.8 1 2.8l-.2 1.6c-.2 1.5-1.2 2.8-2.7 3.1-2.1.5-3.9-.9-4.1-2.9zm1.2-1.8l.2 1.6c.1.9.7 1.6 1.5 1.8 1.2.3 2.3-.6 2.4-1.7l.2-1.7c.1-1.1-.7-2.1-1.8-2.2h-.5c-.5 0-1 .1-1.3.4-.5.5-.7 1.2-.7 1.8zm25.9 13.6c.4 0 .7-.3.7-.7v-2c0-2.9-2.3-5.2-5.2-5.2h-3.5c-.4 0-.7.3-.7.7 0 .4.3.7.7.7h3.5c2.1 0 3.7 1.7 3.7 3.7v2c0 .5.4.8.8.8zm-3.5-16.1c.6.7.9 1.6.8 2.6l-.1 1.5c-.2 1.5-1.2 2.8-2.7 3-2 .4-3.8-1-4-2.9l-.2-1.5c-.1-.9.1-1.8.7-2.5.7-.9 1.7-1.3 2.6-1.3h.3c1 0 1.9.4 2.6 1.1zm-1.1 1c-.4-.6-.9-.9-1.4-.7h-.3c-1-.1-1.9.7-1.9 1.7v.2l.2 1.6c.1 1 1 1.8 2.1 1.7.9-.1 1.6-.8 1.7-1.7l.2-1.6c-.1-.5-.2-1-.6-1.2zm-43 15.1c.4 0 .7-.3.7-.7v-2c0-2.1 1.7-3.7 3.7-3.7h3.5c.4 0 .7-.3.7-.7 0-.4-.3-.7-.7-.7h-3.5c-2.9 0-5.2 2.3-5.2 5.2v2c.1.3.4.6.8.6zm3-12.2l-.2-1.4c-.1-1 .2-2 .9-2.7.6-.6 1.4-.9 2.3-.9h.2c1 0 2 .4 2.6 1.2.5.7.8 1.5.7 2.3l-.2 1.3c-.2 1.6-1.4 3-3 3-1.7.1-3.1-1.1-3.3-2.8zm1.1-1.5l.2 1.6c.1 1 1 1.8 2.1 1.7.9-.1 1.6-.8 1.7-1.7l.2-1.6c.1-1-.6-2-1.7-2.1h-.5c-.5 0-1 .2-1.4.5-.5.5-.6 1-.6 1.6zm19.7-8c7.2 0 12.9 5.8 12.9 13 0 3.2-1.2 6.2-3.2 8.6l7.6 7.6c.3.3.3.7.1 1-.3.3-.7.3-1 .1l-.1-.1-7.6-7.6c-5.3 4.8-13.5 4.4-18.3-.9-4.8-5.3-4.4-13.5.9-18.3 2.3-2.2 5.5-3.4 8.7-3.4zm-11.5 13c0 6.4 5.2 11.5 11.5 11.5s11.5-5.2 11.5-11.5-5.1-11.6-11.5-11.6-11.5 5.2-11.5 11.6z"/>
</svg>
