<?xml version="1.0" encoding="utf-8"?>
<!-- Generator: Adobe Illustrator 21.0.0, SVG Export Plug-In . SVG Version: 6.00 Build 0)  -->
<svg version="1.1" id="Capa_1" xmlns="http://www.w3.org/2000/svg" xmlns:xlink="http://www.w3.org/1999/xlink" x="0px" y="0px"
	 viewBox="0 0 70 70" style="enable-background:new 0 0 70 70;" xml:space="preserve">
<style type="text/css">
	.st0{fill:#F2F2F2;}
</style>
<g>
	<title>tv</title>
	<desc>Created with Sketch.</desc>
	<g>
		<g>
			<path class="st0" d="M28.8,50.1c0-0.4,0.2-0.8,0.5-1.1l0.9-1.1H12c-1.2,0-2.2-1-2.2-2.2V19.9c0-1.2,1-2.2,2.2-2.2H58
				c1.2,0,2.2,1,2.2,2.2v25.8c0,1.2-1,2.2-2.2,2.2H39.6l0.9,1.1c0.3,0.3,0.4,0.7,0.5,1.1h6.9c0.6,0,1.1,0.5,1.1,1.1
				c0,0.6-0.5,1.1-1.1,1.1H22.1c-0.6,0-1.1-0.5-1.1-1.1c0-0.6,0.5-1.1,1.1-1.1H28.8z M12,19.9v25.8H58V19.9H12z M38.5,50.1l-1.9-2.2
				h-3.5l-1.9,2.2H38.5z"/>
		</g>
	</g>
</g>
</svg>
