<?xml version="1.0" encoding="utf-8"?>
<!-- Generator: Adobe Illustrator 21.0.0, SVG Export Plug-In . SVG Version: 6.00 Build 0)  -->
<svg version="1.1" id="Capa_1" xmlns="http://www.w3.org/2000/svg" xmlns:xlink="http://www.w3.org/1999/xlink" x="0px" y="0px"
	 viewBox="0 0 70 70" style="enable-background:new 0 0 70 70;" xml:space="preserve">
<style type="text/css">
	.st0{fill:#F2F2F2;}
</style>
<g>
	<path class="st0" d="M49.5,14H19.5c-0.4,0-0.7,0.3-0.7,0.7v40.6c0,0.4,0.3,0.7,0.7,0.7h30.1c0.4,0,0.7-0.3,0.7-0.7V14.7
		C50.2,14.3,49.9,14,49.5,14z M48.8,54.6H20.1V15.4h28.7V54.6z M26.5,30.1h4.9V35c0,0.4,0.3,0.7,0.7,0.7h4.2c0.4,0,0.7-0.3,0.7-0.7
		v-4.9h4.9c0.4,0,0.7-0.3,0.7-0.7v-4.2c0-0.4-0.3-0.7-0.7-0.7H37v-4.9c0-0.4-0.3-0.7-0.7-0.7H32c-0.4,0-0.7,0.3-0.7,0.7v4.9h-4.9
		c-0.4,0-0.7,0.3-0.7,0.7v4.2C25.8,29.8,26.1,30.1,26.5,30.1z M27.1,25.9H32c0.4,0,0.7-0.3,0.7-0.7v-4.9h2.8v4.9
		c0,0.4,0.3,0.7,0.7,0.7h4.9v2.8h-4.9c-0.4,0-0.7,0.3-0.7,0.7v4.9h-2.8v-4.9c0-0.4-0.3-0.7-0.7-0.7h-4.9V25.9z M27.6,40.6h17.1
		c0.4,0,0.7,0.3,0.7,0.7S45.1,42,44.7,42H27.6c-0.4,0-0.7-0.3-0.7-0.7S27.2,40.6,27.6,40.6z M23,46.9c0-0.4,0.3-0.7,0.7-0.7h21
		c0.4,0,0.7,0.3,0.7,0.7c0,0.4-0.3,0.7-0.7,0.7h-21C23.3,47.6,23,47.3,23,46.9z"/>
</g>
</svg>
