<svg xmlns="http://www.w3.org/2000/svg" width="40" height="50" viewBox="0 0 40 50">
    <path fill="#f2f2f2" stroke="#f2f2f2" stroke-miterlimit="10" d="M20.29 24.112c2 0 3.5-1.6 3.5-3.5 0-2-1.6-3.5-3.5-3.5-2 0-3.5 1.6-3.5 3.5s1.6 3.5 3.5 3.5zm0-6.3c1.5 0 2.7 1.2 2.7 2.7 0 1.5-1.2 2.7-2.7 2.7-1.5 0-2.7-1.2-2.7-2.7 0-1.4 1.2-2.7 2.7-2.7zm1.3 7.6h-2.9c-1.4 0-2.5 1.1-2.5 2.5v5.5c0 1 .7 1.9 1.7 2.3v3.7c0 .9.7 1.6 1.6 1.6h1.5c.9 0 1.6-.7 1.6-1.6v-3.7c1-.4 1.7-1.3 1.7-2.3v-5.5c-.1-1.4-1.2-2.5-2.7-2.5zm1.8 8c0 .8-.6 1.4-1.4 1.6-.2 0-.3.2-.3.4v4c0 .4-.4.8-.8.8h-1.4c-.4 0-.8-.3-.8-.8v-4c0-.2-.1-.4-.3-.4-.8-.2-1.4-.8-1.4-1.6v-5.5c0-.9.7-1.7 1.7-1.7h3c.9 0 1.7.7 1.7 1.7z" class="st0"/>
    <path fill="#f2f2f2" d="M19.99 7.35c-.2 0-.4.1-.6.2l-19 15.4c-.4.3-.5.9-.1 1.3.2.2.4.3.7.3h3.6v17.2c0 .6.7 1.1 1.3.8.3-.1.5-.5.5-.8v-18.1c0-.5-.4-.9-.9-.9h-2l17-13.7c.4-.3.5-.9.2-1.3-.1-.2-.4-.4-.7-.4zm3.1 2.6c-.5.1-.9.5-.8 1 0 .2.1.5.3.6l13.8 11.2h-2c-.5 0-.9.4-.9.9v17.2H9.19c-.6 0-1.1.7-.8 1.3.1.3.5.5.8.5h25.3c.5 0 .9-.4.9-.9v-17.2h3.6c.3 0 .6-.1.8-.4.3-.4.2-.9-.2-1.2l-15.8-12.8c-.2-.1-.5-.2-.7-.2z"/>
</svg>
