<?xml version="1.0" encoding="utf-8"?>
<!-- Generator: Adobe Illustrator 21.0.0, SVG Export Plug-In . SVG Version: 6.00 Build 0)  -->
<svg version="1.1" id="Capa_1" xmlns="http://www.w3.org/2000/svg" xmlns:xlink="http://www.w3.org/1999/xlink" x="0px" y="0px"
	 viewBox="0 0 70 70" style="enable-background:new 0 0 70 70;" xml:space="preserve">
<style type="text/css">
	.st0{fill:#F2F2F2;}
</style>
<g>
	<path class="st0" d="M51.3,29.6c-0.3,0.1-0.5,0.4-0.5,0.8v3.9h-7.6v-2c0-0.3-0.2-0.7-0.5-0.8c-0.6-0.2-1.1,0.2-1.1,0.8v2.1
		l-15.2-0.4l0-2c0-0.3-0.2-0.7-0.5-0.8c-0.6-0.2-1.1,0.2-1.1,0.8v2.1h-7.6v-7.1c0-0.5,0.4-0.9,0.9-0.9l31.7,0c0.5,0,0.9,0.4,0.9,1
		c-0.1,0.6,0.6,1.2,1.2,0.8c0.2-0.1,0.3-0.3,0.4-0.6c0.1-1.5-1.2-2.8-2.7-2.8h-6.3V21c0-1.5-1.2-2.7-2.7-2.7h-13
		c-1.5,0-2.7,1.2-2.7,2.7v3.3h-6.5c-1.5,0-2.7,1.2-2.7,2.7v21c0,1.5,1.2,2.7,2.7,2.7h31.4c1.5,0,2.7-1.2,2.7-2.7V30.3
		C52.4,29.8,51.9,29.4,51.3,29.6z M27.5,19.9h13c0.6,0,1.1,0.5,1.1,1.1v3.3H26.4V21C26.4,20.4,26.9,19.9,27.5,19.9z M49.7,49.1H18.3
		c-0.6,0-1.1-0.5-1.1-1.1V35.9h7.6l0,2.2c0,0.3,0.2,0.7,0.5,0.8c0.6,0.2,1.1-0.2,1.1-0.8v-2.3h15.2v2.2c0,0.3,0.2,0.7,0.5,0.8
		c0.6,0.2,1.1-0.2,1.1-0.8v-2.3h7.6V48C50.8,48.6,50.3,49.1,49.7,49.1z"/>
</g>
</svg>
