<?xml version="1.0" encoding="utf-8"?>
<!-- Generator: Adobe Illustrator 21.0.0, SVG Export Plug-In . SVG Version: 6.00 Build 0)  -->
<svg version="1.1" id="Capa_1" xmlns="http://www.w3.org/2000/svg" xmlns:xlink="http://www.w3.org/1999/xlink" x="0px" y="0px"
	 viewBox="0 0 70 70" style="enable-background:new 0 0 70 70;" xml:space="preserve">
<style type="text/css">
	.st0{fill:#F2F2F2;}
</style>
<g>
	<path class="st0" d="M17.6,26.8c-3.9,0-7.1,3.2-7.1,7.1c0,3.9,3.2,7.1,7.1,7.1s7.1-3.2,7.1-7.1C24.7,30,21.6,26.8,17.6,26.8z
		 M15.4,28.7c-0.4,0.5-0.7,1.1-0.9,1.8H13C13.6,29.7,14.4,29.1,15.4,28.7z M12.4,31.3h1.9c-0.2,0.7-0.3,1.5-0.3,2.4h-2.3
		C11.8,32.8,12,32,12.4,31.3z M12.3,36.8c-0.4-0.7-0.6-1.5-0.7-2.4H14c0,0.8,0.1,1.6,0.3,2.4H12.3z M13,37.6h1.5
		c0.2,0.7,0.6,1.4,0.9,1.9C14.4,39.1,13.6,38.4,13,37.6z M17.3,39.8c-0.7-0.3-1.3-1.1-1.7-2.2h1.7V39.8z M17.3,36.8L17.3,36.8h-2.2
		c-0.2-0.7-0.3-1.5-0.3-2.4h2.5L17.3,36.8L17.3,36.8z M17.3,33.7L17.3,33.7h-2.5c0-0.8,0.1-1.6,0.3-2.4h2.2L17.3,33.7L17.3,33.7z
		 M17.3,30.5L17.3,30.5h-1.7c0.4-1.1,1-2,1.7-2.2V30.5z M22.3,30.5h-1.5c-0.2-0.7-0.5-1.3-0.9-1.8C20.8,29.1,21.7,29.7,22.3,30.5z
		 M18.1,28.3c0.7,0.3,1.3,1.1,1.7,2.2h-1.7V28.3z M18.1,31.3h2.2c0.2,0.7,0.3,1.5,0.3,2.4h-2.5L18.1,31.3L18.1,31.3z M20.6,34.5
		c0,0.8-0.1,1.6-0.3,2.4h-2.2v-2.4H20.6z M18.1,39.8v-2.2h1.7C19.4,38.7,18.8,39.6,18.1,39.8z M19.9,39.5c0.4-0.5,0.7-1.1,0.9-1.9
		h1.5C21.7,38.4,20.8,39.1,19.9,39.5z M22.9,36.8h-2c0.2-0.7,0.3-1.5,0.3-2.4h2.3C23.5,35.3,23.3,36.1,22.9,36.8z M23.6,33.7h-2.3
		c0-0.8-0.1-1.6-0.3-2.4h1.9C23.3,32,23.5,32.8,23.6,33.7z"/>
	<g>
		<path class="st0" d="M39.8,26.8c0.4,0,0.8-0.1,1.3-0.1c3.2-0.7,5.2-3.9,4.5-7.1c-0.4-1.5-1.3-2.9-2.6-3.7
			c-1.3-0.8-2.9-1.1-4.5-0.8c-3.1,0.7-5.2,3.9-4.5,7.1C34.7,25,37.2,26.8,39.8,26.8z M42.1,17.4c0.9,0.6,1.6,1.5,1.8,2.6l0,0
			c0.5,2.2-0.9,4.4-3.2,5c-2.2,0.5-4.4-0.9-5-3.1c-0.5-2.2,0.9-4.4,3.2-5c0.3-0.1,0.6-0.1,0.9-0.1C40.6,16.8,41.4,17,42.1,17.4z"/>
		<path class="st0" d="M44.2,28.2h-8.6c-2.5,0-4.6,2-4.6,4.5V46c0,2.2,1.5,4,3.5,4.4v5.4c0,0,0.5,0.9,1,0.9c0.5,0,1.1-0.9,1.1-0.9
			V56l0-6.1c0-0.5-0.4-0.9-0.9-0.9c-1.5,0-2.6-1.3-2.6-2.7V33.1c0-1.5,1.2-2.7,2.6-2.7h8c1.5,0,2.6,1.3,2.6,2.7v13.2
			c0,1.5-1.2,2.7-2.6,2.7c-0.5,0-0.9,0.4-0.9,0.9v5.9l0,0c0.3,0.5,0.7,0.9,1.2,0.9c0.5,0,0.9-0.9,0.9-0.9v-5.4
			c2-0.4,3.5-2.2,3.5-4.4V32.8C48.5,30.3,46.6,28.2,44.2,28.2z"/>
	</g>
</g>
</svg>
