<?xml version="1.0" encoding="utf-8"?>
<!-- Generator: Adobe Illustrator 21.0.0, SVG Export Plug-In . SVG Version: 6.00 Build 0)  -->
<svg version="1.1" id="Capa_1" xmlns="http://www.w3.org/2000/svg" xmlns:xlink="http://www.w3.org/1999/xlink" x="0px" y="0px"
	 viewBox="0 0 70 70" style="enable-background:new 0 0 70 70;" xml:space="preserve">
<style type="text/css">
	.st0{fill:#F2F2F2;}
</style>
<path class="st0" d="M32.3,49.4c-4.9,0-8.9-4-8.9-8.8c0-3,2-5.7,3.8-7.3v-2.1c-3.5,1.8-5.5,5.3-5.5,9.3c0,5.8,4.8,10.6,10.6,10.6
	c4.4,0,8.2-2.7,9.8-6.6L40.9,42C40.3,46.1,36.7,49.4,32.3,49.4z M49.8,44.8L46.5,46l-4.4-9.9H30.7v-5.3h8.8v-1.8h-8.8v-4
	c1.8-0.4,3-1.9,3-3.6c0-2-1.6-3.7-3.7-3.7s-3.8,1.7-3.8,3.7c0,1.7,0.9,3.1,2.7,3.6v12.9H41l4.6,10.3l4.8-1.6L49.8,44.8z M28.1,21.4
	c0-1.1,0.9-2,2-2c1.1,0,2,0.9,2,2s-0.9,2-2,2C29,23.4,28.1,22.5,28.1,21.4z"/>
</svg>
