<?xml version="1.0" encoding="utf-8"?>
<!-- Generator: Adobe Illustrator 21.0.0, SVG Export Plug-In . SVG Version: 6.00 Build 0)  -->
<svg version="1.1" id="Capa_1" xmlns="http://www.w3.org/2000/svg" xmlns:xlink="http://www.w3.org/1999/xlink" x="0px" y="0px"
	 viewBox="0 0 70 70" style="enable-background:new 0 0 70 70;" xml:space="preserve">
<style type="text/css">
	.st0{fill:#F2F2F2;}
</style>
<g>
	<path class="st0" d="M24.5,46.5v-0.3c0.5,0.1,1,0.1,1.5,0.1c2.5,0,4.2-1,4.3-1.1c0.2-0.1,0.3-0.4,0.3-0.6c0-0.2-0.1-0.5-0.3-0.6
		c-2.1-1.4-2.2-5.4-2.2-5.5c0,0,0,0,0,0c0.1-0.3,0.1-0.6,0.2-0.9c0,0,0,0,0,0c0,0,0,0,0,0c0-0.4,0.1-0.7,0.1-1.1
		c0-4.7-3.6-8.6-8-8.6s-8,3.9-8,8.6c0,0.7,0.1,1.4,0.3,2.1c0,0.5-0.2,4.1-2.2,5.4c-0.2,0.1-0.3,0.4-0.3,0.6c0,0.2,0.1,0.5,0.3,0.6
		c0.1,0.1,1.8,1.1,4.3,1.1c0.5,0,1,0,1.5-0.1v0.3c-4.9,0-9.1,4.9-9.1,10.7v4.1C7,61.7,7.3,62,7.7,62h25.2c0.4,0,0.7-0.3,0.7-0.7
		v-4.1C33.6,51.4,29.4,46.5,24.5,46.5z M14.4,37.9c1.4-0.2,5.2-1,8.3-3.3c0.5,0.8,2.1,2.8,4.2,3.4c-0.6,3.1-3.2,5.4-6.2,5.4
		C17.5,43.5,15,41.1,14.4,37.9z M21,44.8c1,0,1.9-0.2,2.8-0.5v2.5l0,0c-1.7,1.1-3.9,1.1-5.6,0l0-2.5C19.1,44.7,20,44.8,21,44.8z
		 M28.5,44.2c-0.9,0.3-2.3,0.6-4,0.3v-0.9c1-0.6,1.8-1.5,2.5-2.6C27.2,42.2,27.7,43.3,28.5,44.2z M27,36.5c0,0,0,0.1,0,0.1
		c-1.7-0.6-2.9-2.4-3.3-2.9c0.6-0.6,1.2-1.2,1.6-1.9C26.4,33.1,27,34.8,27,36.5z M20.6,29.6c1.4,0,2.7,0.5,3.7,1.3
		c-2.5,4-8.3,5.3-10.1,5.7C14.2,32.7,17.1,29.6,20.6,29.6z M12.8,44.2c0.8-0.9,1.2-2.1,1.5-3.1c0.6,1,1.5,1.9,2.4,2.5v0.9
		C15.1,44.8,13.7,44.5,12.8,44.2z M32.2,60.6h-3.5v-1.4c0-0.4-0.3-0.7-0.7-0.7s-0.7,0.3-0.7,0.7v1.4H14v-1.4c0-0.4-0.3-0.7-0.7-0.7
		c-0.4,0-0.7,0.3-0.7,0.7v1.4H8.4v-3.3c0-4.9,3.7-9.3,7.9-9.3h0.5l0.1,0.1c1,0.6,2.2,1,3.4,1c1.2,0,2.4-0.3,3.4-1l0.1-0.1h0.5
		c4.2,0,7.9,4.3,7.9,9.2L32.2,60.6L32.2,60.6z"/>
	<path class="st0" d="M53.9,46.5v-2.6c2-1.3,3.4-3.6,3.8-6.2c0,0,0,0,0,0c0,0,0,0,0,0c0-0.4,0.1-0.7,0.1-1.1c0-4.7-3.6-8.6-8-8.6
		s-8,3.9-8,8.6c0,3.1,1.5,5.8,3.8,7.3v2.6c-4.9,0-9.1,4.9-9.1,10.7v4.1c0,0.4,0.3,0.7,0.7,0.7h25.2c0.4,0,0.7-0.3,0.7-0.7v-4.1
		C63,51.4,58.8,46.5,53.9,46.5z M56.4,36.5c0,0,0,0.1,0,0.1c-1.7-0.6-2.9-2.4-3.3-2.9c0.6-0.6,1.2-1.2,1.6-1.9
		C55.7,33.1,56.4,34.8,56.4,36.5z M50,29.6c1.4,0,2.7,0.5,3.7,1.3c-2.5,4-8.3,5.3-10.1,5.7C43.6,32.7,46.4,29.6,50,29.6z M43.7,37.9
		c1.4-0.2,5.2-1,8.3-3.3c0.5,0.8,2.1,2.8,4.2,3.4c-0.6,3.1-3.2,5.4-6.2,5.4C46.9,43.5,44.3,41.1,43.7,37.9z M49.7,44.8
		c1,0,1.9-0.2,2.8-0.5v2.5l0,0c-1.7,1.1-3.9,1.1-5.6,0l0-2.5C47.8,44.7,48.7,44.8,49.7,44.8z M61.6,60.6h-3.5v-1.4
		c0-0.4-0.3-0.7-0.7-0.7c-0.4,0-0.7,0.3-0.7,0.7v1.4H43.4v-1.4c0-0.4-0.3-0.7-0.7-0.7S42,58.8,42,59.2v1.4h-4.2v-3.3
		c0-4.9,3.7-9.3,7.9-9.3h0.5l0.1,0.1c1,0.6,2.2,1,3.4,1c1.2,0,2.4-0.3,3.4-1l0.1-0.1h0.5c4.2,0,7.9,4.3,7.9,9.2L61.6,60.6L61.6,60.6
		z"/>
	<path class="st0" d="M16.8,6.7v18.9c0,0.4,0.3,0.7,0.7,0.7h6.3c0.4,0,0.7-0.3,0.7-0.7V6.7c0-0.4-0.3-0.7-0.7-0.7h-6.3
		C17.1,6,16.8,6.3,16.8,6.7z M23.1,24.9h-4.9V7.4h4.9V24.9z"/>
	<path class="st0" d="M46.2,13.7v11.9c0,0.4,0.3,0.7,0.7,0.7h6.3c0.4,0,0.7-0.3,0.7-0.7V13.7c0-0.4-0.3-0.7-0.7-0.7h-6.3
		C46.5,13,46.2,13.3,46.2,13.7z M52.5,24.9h-4.9V14.4h4.9V24.9z"/>
</g>
</svg>
