<?xml version="1.0" encoding="utf-8"?>
<!-- Generator: Adobe Illustrator 21.0.0, SVG Export Plug-In . SVG Version: 6.00 Build 0)  -->
<svg version="1.1" id="Capa_1" xmlns="http://www.w3.org/2000/svg" xmlns:xlink="http://www.w3.org/1999/xlink" x="0px" y="0px"
	 viewBox="0 0 70 70" style="enable-background:new 0 0 70 70;" xml:space="preserve">
<style type="text/css">
	.st0{fill:#F2F2F2;}
</style>
<g>
	<path class="st0" d="M32.5,10.1c-0.6,0.1-1.1,0.5-1.3,1.1c-1.7,9.7-5.3,13.6-8.9,17.3s-7,7.4-7,15.6c0,4,1.8,7.4,4.4,10
		c2.6,2.6,6.1,4.5,9.6,5.6c0.7,0.2,1.5-0.2,1.7-0.9c0.1-0.5,0.1-1-0.3-1.3c-3.3-4-4.2-6.7-4.1-8.9c0.1-1.7,0.7-3.1,1.5-4.7
		c1,0.7,2,1.6,2.6,1.9c0.4,0.3,0.7,0.4,0.9,0.5s0.4,0.2,0.4,0.2c0.4,0.1,0.8,0.1,1.2-0.2c0,0,1.5-1.1,2.7-3.3
		c0.8-1.5,1.5-3.7,1.6-6.5c3.4,4.1,4.7,7.7,4.6,10.6c-0.1,4.3-2.7,7.8-5.1,10.1c-0.6,0.5-0.6,1.4-0.1,2c0.3,0.3,0.7,0.5,1.2,0.4
		c7.5-1,14.3-7.6,14.3-15.9c0-5.7-1-10.8-3.9-16.1s-7.7-10.8-15.2-17.5C33.3,10.2,32.9,10.1,32.5,10.1z M33.4,14.1
		c6.3,5.8,10.5,10.7,13,15.1c2.7,4.9,3.6,9.4,3.6,14.7c0,5.1-3.3,9.5-7.6,11.7c1.5-2.3,2.7-5,2.8-8.2c0.1-4.6-2.1-9.7-8-15.5
		c-0.5-0.5-1.4-0.5-2,0c-0.3,0.3-0.4,0.8-0.4,1.2c0.7,4.3-0.2,7.1-1.1,8.8c-0.4,0.8-0.9,1.4-1.2,1.7c0,0,0,0-0.1,0
		c-0.7-0.4-1.8-1.2-3.7-2.8c-0.6-0.5-1.5-0.4-1.9,0.2c-0.1,0.1-0.1,0.2-0.2,0.3c-1,2-2.4,4.3-2.5,7.3c-0.1,2,0.5,4.2,1.9,6.7
		c-1.6-0.9-3.1-1.9-4.3-3.1c-2.2-2.2-3.6-4.9-3.6-8.1c0-7.4,2.7-9.9,6.3-13.7C27.6,27.1,31.4,22.7,33.4,14.1z"/>
</g>
</svg>
