<?xml version="1.0" encoding="utf-8"?>
<!-- Generator: Adobe Illustrator 21.0.0, SVG Export Plug-In . SVG Version: 6.00 Build 0)  -->
<svg version="1.1" id="Capa_1" xmlns="http://www.w3.org/2000/svg" xmlns:xlink="http://www.w3.org/1999/xlink" x="0px" y="0px"
	 viewBox="0 0 70 70" style="enable-background:new 0 0 70 70;" xml:space="preserve">
<style type="text/css">
	.st0{fill:#F2F2F2;}
</style>
<g id="XMLID_2923_">
	<path id="XMLID_2925_" class="st0" d="M30.6,18.1c-2.7,0.9-5,2.7-6.5,5.1c-4,6.3-1.7,14.1,4.3,17.6c0.4,0.2,0.7,0.4,0.9,0.6
		c0.2,0.2,0.2,0.4,0.2,0.9v2.4c0,1.2,1,2.2,2.2,2.2h5.9c0.4,0,0.7,0.3,0.7,0.7c0,0.4-0.3,0.7-0.7,0.7l-4.4,0c-1,0-1.9,0.6-2.2,1.5
		c-0.5,1.5,0.6,2.9,2.1,2.9h4.4c0.4,0,0.7-0.3,0.7-0.7c0-0.4-0.3-0.7-0.7-0.7c0,0,0,0,0,0H33c-0.4,0-0.7-0.3-0.7-0.7
		c0-0.4,0.3-0.7,0.7-0.7l4.4,0c1,0,1.9-0.6,2.2-1.5c0.5-1.5-0.6-2.9-2.1-2.9h-5.9c-0.4,0-0.7-0.3-0.7-0.7v-2.4
		c0-0.7-0.2-1.4-0.6-1.8c-0.4-0.4-0.8-0.7-1.2-0.9c-4.9-2.8-6.9-8.9-4.5-14.2c1.5-3.2,4.5-5.6,8-6.2c5.8-1,11.1,2.6,12.6,8
		c1.3,4.8-0.8,9.9-5.1,12.4c-0.4,0.2-0.9,0.5-1.2,0.9c-0.4,0.4-0.6,1.1-0.6,1.8v1.3c0,0.4,0.3,0.7,0.7,0.7c0.4,0,0.7-0.3,0.7-0.7
		c0,0,0-0.4,0-0.4v-1c0-0.5,0.1-0.7,0.2-0.9c0.1-0.2,0.4-0.4,0.8-0.6c3.8-2.2,6.3-6.3,6.3-10.7C47.1,21.5,38.9,15.4,30.6,18.1z
		 M34.5,21.1c-0.4,0-0.7,0.3-0.7,0.7s0.3,0.7,0.7,0.7c0,0,0,0,0,0c2.3,0,4.4,1.1,5.8,2.9c0.2,0.3,0.7,0.4,1,0.1
		c0.3-0.2,0.4-0.7,0.1-1c0,0,0,0,0,0C39.8,22.4,37.2,21.1,34.5,21.1z M42.4,27.5c-0.4,0-0.7,0.3-0.8,0.7c0,0.1,0,0.1,0,0.2
		c0.2,0.6,0.2,1.3,0.2,1.9c0,0.4,0.3,0.7,0.7,0.7c0.4,0,0.7-0.3,0.7-0.7c0,0,0,0,0,0c0-0.8-0.1-1.5-0.3-2.3
		C43,27.7,42.7,27.5,42.4,27.5z M37.5,31c-0.2,0-0.4,0.1-0.5,0.2l-2.4,2.4l-2.4-2.4C32,31.1,31.8,31,31.6,31c-0.4,0-0.7,0.3-0.7,0.7
		c0,0.2,0.1,0.4,0.2,0.5l2.7,2.7v7c0,0.4,0.3,0.7,0.7,0.7c0.4,0,0.7-0.3,0.7-0.7c0,0,0,0,0,0v-7l2.7-2.7c0.3-0.3,0.3-0.7,0-1
		C37.9,31.1,37.7,31,37.5,31z"/>
</g>
</svg>
