<?xml version="1.0" encoding="utf-8"?>
<!-- Generator: Adobe Illustrator 21.0.0, SVG Export Plug-In . SVG Version: 6.00 Build 0)  -->
<svg version="1.1" id="Capa_1" xmlns="http://www.w3.org/2000/svg" xmlns:xlink="http://www.w3.org/1999/xlink" x="0px" y="0px"
	 viewBox="0 0 70 70" style="enable-background:new 0 0 70 70;" xml:space="preserve">
<style type="text/css">
	.st0{fill:#F2F2F2;}
</style>
<g>
	<g>
		<g>
			<path class="st0" d="M52.7,53.6c-0.1-0.4-0.2-0.8-0.5-1.2l-5.2-8.6c0,0,0,0,0,0c-0.8-1.5-2.3-2.6-4-2.8c0,0-0.1,0-0.2,0
				c0,0-0.1-0.3-0.1-0.3l-10.7,0.5h0c0,0-2.2,0.8-2.2,2c0,0.6,0.2,1.1,0.6,1.5c0.4,0.3,0.9,0.6,1.5,0.7c1,0.2,5,0.9,5.1,0.9
				c0.3,0.1,0.6-0.1,0.7-0.4c0.1-0.3-0.1-0.6-0.4-0.7c-0.2,0-4-0.8-5.1-0.9c-0.4-0.1-0.7-0.2-0.9-0.4c-0.2-0.2-0.3-0.5-0.3-0.7
				c0-0.6,1.1-1.1,1.1-1.1h0h10.6l0.1,0c1.4,0.2,2.7,1,3.3,2.3c0,0,0,0.1,0.1,0.1l5.2,8.5c0.2,0.2,0.3,0.5,0.3,0.8
				c0.2,1-0.3,2-1.1,2.5c-1.2,0.7-2.7,0.3-3.4-0.8l-1.8-3.8c-0.4-0.6-1-1.1-1.7-1.2c0,0-0.1,0-0.1,0l-11.9-1.7l-10.3-4.6
				c-0.3-0.1-0.5-0.3-0.6-0.6c-0.1-0.3-0.1-0.5,0-0.8c0.2-0.5,0.9-0.8,1.5-0.6l5.9,2.1c0.3,0.1,0.6-0.1,0.7-0.3
				c0.1-0.3-0.1-0.6-0.3-0.7l-5.9-2.1c-1.1-0.5-2.4,0-2.9,1.2c-0.2,0.5-0.2,1.1,0,1.7c0.2,0.6,0.6,1,1.2,1.2l10.4,4.6
				c0,0,0.1,0,0.2,0l11.9,1.7c0,0,0,0,0,0c0.4,0.1,0.8,0.4,1,0.7l1.7,3.8c0,0,0,0,0,0.1c0.7,1.1,1.9,1.7,3.1,1.7
				c0.6,0,1.3-0.2,1.9-0.5C52.4,56.5,53,55,52.7,53.6z"/>
		</g>
	</g>
	<g>
		<g transform="translate(0,-952.36218)">
			<path class="st0" d="M31.4,964.4c-0.1,0-0.2,0-0.3,0.1l-16.5,9.4c-0.3,0.2-0.5,0.6-0.4,0.9c0.1,0.3,0.4,0.4,0.6,0.4h0.5l2.7-1.6
				v16.6c0,0.4,0.4,0.8,0.8,0.8h25.1c0.4,0,0.8-0.4,0.8-0.8v-16.6l2.7,1.6c0.4,0.2,0.9,0.1,1.1-0.3c0.2-0.4,0.1-0.9-0.3-1.1l0,0
				l-3.5-2v-5.1c0-0.4-0.4-0.8-0.8-0.8h-5.5c0,0,0,0-0.1,0c-0.4,0-0.7,0.4-0.7,0.8v1.1l-5.9-3.4C31.8,964.4,31.6,964.4,31.4,964.4z
				 M31.5,966.1l11.8,6.7v16.7H28.4v-10.2h6.3v5.5c0,0.6,0.6,1,1.2,0.7c0.3-0.1,0.4-0.4,0.4-0.7c0,0,0,0,0,0v-6.3
				c0-0.4-0.4-0.8-0.8-0.8h-7.8c0,0,0,0-0.1,0c-0.4,0-0.7,0.4-0.7,0.8v11h-7.1v-16.7L31.5,966.1z M39.3,967.6h3.9v3.5l-3.9-2.2
				V967.6z M35.6,986.8c-0.4,0-0.8,0.4-0.8,0.8s0.4,0.8,0.8,0.8s0.8-0.4,0.8-0.8S36,986.8,35.6,986.8z"/>
		</g>
	</g>
</g>
</svg>
