<?xml version="1.0" encoding="utf-8"?>
<!-- Generator: Adobe Illustrator 21.0.0, SVG Export Plug-In . SVG Version: 6.00 Build 0)  -->
<svg version="1.1" id="Capa_1" xmlns="http://www.w3.org/2000/svg" xmlns:xlink="http://www.w3.org/1999/xlink" x="0px" y="0px"
	 viewBox="0 0 70 70" style="enable-background:new 0 0 70 70;" xml:space="preserve">
<style type="text/css">
	.st0{fill:#F2F2F2;}
</style>
<g>
	<title>Tavola disegno 38</title>
	<path class="st0" d="M40.5,28.5c0,3.8-3.1,6.8-6.8,6.8c-3.8,0-6.8-3-6.8-6.8 M25.4,28.5c0,4.6,3.7,8.2,8.3,8.2
		c4.6,0,8.2-3.7,8.2-8.2"/>
	<path class="st0" d="M45.7,50.6c-0.4,0-0.7-0.3-0.7-0.7c0-6.2-5.1-11.3-11.3-11.3s-11.3,5.1-11.3,11.3c0,0.4-0.3,0.7-0.7,0.7
		c-0.4,0-0.7-0.3-0.7-0.7c0-7,5.7-12.7,12.7-12.7s12.7,5.7,12.7,12.7C46.4,50.3,46.1,50.6,45.7,50.6z"/>
	<path class="st0" d="M28.3,47.3c-0.4,0-0.7-0.3-0.7-0.7v-7.2c0-0.4,0.3-0.7,0.7-0.7c0.4,0,0.7,0.3,0.7,0.7v7.2
		C29,47,28.7,47.3,28.3,47.3z"/>
	<path class="st0" d="M41.8,28.8c-0.4,0-0.7-0.3-0.7-0.7c0-4.1-3.3-7.4-7.4-7.4s-7.4,3.3-7.4,7.4c0,0.4-0.3,0.7-0.7,0.7
		c-0.4,0-0.7-0.3-0.7-0.7c0-4.9,4-8.9,8.9-8.9s8.9,4,8.9,8.9C42.5,28.5,42.2,28.8,41.8,28.8z"/>
	<path class="st0" d="M43,28.7H24.3c-0.4,0-0.7-0.3-0.7-0.7c0-0.4,0.3-0.7,0.7-0.7l0,0H43c0.4,0,0.7,0.3,0.7,0.7
		C43.7,28.4,43.4,28.7,43,28.7z"/>
	<path class="st0" d="M31.7,28.8c-0.4,0-0.7-0.3-0.7-0.7v-7.9c0-0.4,0.3-0.7,0.7-0.7c0.4,0,0.7,0.3,0.7,0.7v7.9
		C32.4,28.5,32.1,28.8,31.7,28.8z"/>
	<path class="st0" d="M35.5,28.8c-0.4,0-0.7-0.3-0.7-0.7v-7.9c0-0.4,0.3-0.7,0.7-0.7c0.4,0,0.7,0.3,0.7,0.7v7.9
		C36.2,28.5,35.9,28.8,35.5,28.8z"/>
	<path class="st0" d="M38.9,47.3c-0.4,0-0.7-0.3-0.7-0.7v-7.2c0-0.4,0.3-0.7,0.7-0.7c0.4,0,0.7,0.3,0.7,0.7v7.2
		C39.6,47,39.3,47.3,38.9,47.3z"/>
	<path class="st0" d="M45.2,47.4h-23c-0.4,0-0.7-0.3-0.7-0.7c0-0.4,0.3-0.7,0.7-0.7h23c0.4,0,0.7,0.3,0.7,0.7
		C45.9,47.1,45.6,47.4,45.2,47.4z"/>
</g>
</svg>
