<?xml version="1.0" encoding="utf-8"?>
<!-- Generator: Adobe Illustrator 21.0.0, SVG Export Plug-In . SVG Version: 6.00 Build 0)  -->
<svg version="1.1" id="Capa_1" xmlns="http://www.w3.org/2000/svg" xmlns:xlink="http://www.w3.org/1999/xlink" x="0px" y="0px"
	 viewBox="0 0 70 70" style="enable-background:new 0 0 70 70;" xml:space="preserve">
<style type="text/css">
	.st0{fill:none;stroke:#F2F2F2;stroke-width:1.5;stroke-miterlimit:10;}
	.st1{fill:#F2F2F2;}
</style>
<g>
	<g>
		<path class="st0" d="M66,38.6c-0.2-1-1.2-1.6-2.2-1.3l-6.4,1.5l-6-8c-0.1-0.1-0.1-0.1-0.2-0.2h0c-0.5-0.4-1.1-0.7-1.8-0.7
			c-0.7,0-1.4,0.3-1.9,0.8l-8,8c-0.3,0.3-2.7,2.3-3,4.6l-1.3,7.5l-6.9-1c-1.1-0.1-2.3,0.4-2.5,1.5c-0.3,2.1,2.3,2.4,2.3,2.4
			s7.7,1.2,9.6,1.2c1.5-0.1,2.2-1.4,2.4-2.1c0.5-2.2,1.5-6.3,1.5-6.3s3.3,3.3,4.6,5l1.7,9c0,0.2,0.1,0.4,0.2,0.9H29.6v1.2h20v-0.1
			c0.4,0,0.6,0,0.7,0c1.4-0.3,1.7-1.4,1.6-2.8L50.6,51c-0.1-0.6-0.2-1.7-0.7-2.3c0,0-3-3.9-4.1-5.3l6.2-5.9l3.3,4.4
			c0.3,0.5,0.9,0.7,1.5,0.7c0.1,0,0.3,0,0.4-0.1l2.9-0.7L52.9,49l8.3,5l2.9-13.1l0.5-0.1C65.6,40.5,66.2,39.5,66,38.6z M61.8,47.1
			l-3.6-2l3.6-3.6l1.3-0.3L61.8,47.1z"/>
		<path class="st0" d="M54.5,30.4c2-0.4,3.4-2.4,3-4.5c-0.4-2.1-2.4-3.4-4.5-3c-2.1,0.4-3.4,2.4-3,4.5
			C50.5,29.4,52.5,30.8,54.5,30.4"/>
		<polygon class="st1" points="22.6,12.5 21.6,11.6 26.7,6.1 27.7,7 		"/>
		<polygon class="st1" points="24.5,15.6 24.1,14.3 32.7,12 33.1,13.4 		"/>
		<polygon class="st1" points="32.3,21.4 23.8,18.9 24.2,17.6 32.7,20 		"/>
		<g>
			<ellipse class="st0" cx="16.4" cy="16.7" rx="3.8" ry="3.8"/>
			<path class="st0" d="M33.9,28.8c0,0-10.9-6.3-11-6.3c-1.5-0.9-2.8-0.8-2.8-0.8h-7.3c0,0-4-0.2-5.3,4.2l-3.2,11
				c-0.3,1,0.4,2,1.3,2.3c0.9,0.3,1.9-0.3,2.1-1.2l3.1-10.8l1.3,0L7.7,44.1h3.8v12.6c0,0.9,0.8,1.8,1.9,1.8c1.1,0,1.9-0.8,1.9-1.8
				V44.1h2.5v12.7c0,1,0.8,1.8,1.9,1.8c1,0,1.9-0.9,1.9-1.8V44.1h3.7l-3.3-17l0.7-0.6l9.4,5.3c0.3,0.2,0.6,0.2,0.9,0.3
				c0.7,0.1,1.2-0.3,1.6-0.8C34.9,30.5,34.6,29.3,33.9,28.8z"/>
		</g>
	</g>
</g>
</svg>
