<?xml version="1.0" encoding="utf-8"?>
<!-- Generator: Adobe Illustrator 21.0.0, SVG Export Plug-In . SVG Version: 6.00 Build 0)  -->
<svg version="1.1" id="Capa_1" xmlns="http://www.w3.org/2000/svg" xmlns:xlink="http://www.w3.org/1999/xlink" x="0px" y="0px"
	 viewBox="0 0 70 70" style="enable-background:new 0 0 70 70;" xml:space="preserve">
<style type="text/css">
	.st0{fill:#F2F2F2;}
</style>
<g id="XMLID_363_">
	<path id="XMLID_364_" class="st0" d="M23.3,23.6c-0.3,0-0.6,0.3-0.6,0.6v10.4c0,4,3,7.2,6.9,7.5v1.5c0,3.9,3.1,7.4,7,7.7
		c4.4,0.3,8.1-3.2,8.1-7.5v-3.6c1.2-0.3,2-1.4,1.9-2.7c-0.1-1.2-1.2-2.3-2.4-2.3c-1.4,0-2.6,1.1-2.6,2.5c0,1.2,0.8,2.1,1.9,2.4v3.4
		c0,3.3-2.5,6.2-5.8,6.4c-3.7,0.3-6.8-2.6-6.8-6.3v-1.6c3.9-0.3,6.9-3.6,6.9-7.5V24.2c0-0.3-0.3-0.6-0.6-0.6h-2.5
		c-0.4,0-0.8,0.5-0.6,0.9c0.1,0.2,0.3,0.3,0.6,0.3h0h1.9l0,9.6c0,3.3-2.5,6.2-5.8,6.4C27,41.2,24,38.3,24,34.6v-9.8h1.9
		c0.4,0,0.8-0.5,0.6-0.9c-0.1-0.2-0.3-0.3-0.6-0.3h0H23.3C23.3,23.6,23.3,23.6,23.3,23.6z M44.1,36.5c0.7,0,1.3,0.6,1.3,1.3
		S44.8,39,44.1,39c-0.7,0-1.3-0.6-1.3-1.3S43.4,36.5,44.1,36.5z"/>
</g>
</svg>
