<?xml version="1.0" encoding="utf-8"?>
<!-- Generator: Adobe Illustrator 21.0.0, SVG Export Plug-In . SVG Version: 6.00 Build 0)  -->
<svg version="1.1" id="Capa_1" xmlns="http://www.w3.org/2000/svg" xmlns:xlink="http://www.w3.org/1999/xlink" x="0px" y="0px"
	 viewBox="0 0 70 70" style="enable-background:new 0 0 70 70;" xml:space="preserve">
<style type="text/css">
	.st0{fill:#F2F2F2;}
</style>
<g>
	<g>
		<g>
			<path class="st0" d="M15.4,60.6h38.9L15.4,16.9V60.6z M50.8,59.1H17v-6.3h3.2v-1.6H17v-5.8h3.2v-1.1H17v-5.8h3.2v-1.6H17v-5.8
				h3.2v-1.6H17v-8.4L50.8,59.1z"/>
			<path class="st0" d="M24.4,38v15.2h13.5L24.4,38z M26,42.2l8.4,9.5H26V42.2z"/>
			<polygon class="st0" points="47.6,48.5 47.6,8.4 33.3,8.4 33.3,34.8 34.9,34.8 34.9,9.9 46,9.9 46.5,15.2 43.4,15.2 43.4,16.8 
				46.5,16.8 46.5,23.1 43.4,23.1 43.4,24.7 46.5,24.7 46.5,31.1 43.4,31.1 43.4,32.7 46.5,32.7 46.5,39.5 43.4,39.5 43.4,41.1 
				46,41.1 46,48.5 			"/>
		</g>
	</g>
</g>
</svg>
