<?xml version="1.0" encoding="utf-8"?>
<!-- Generator: Adobe Illustrator 21.0.0, SVG Export Plug-In . SVG Version: 6.00 Build 0)  -->
<svg version="1.1" id="Capa_1" xmlns="http://www.w3.org/2000/svg" xmlns:xlink="http://www.w3.org/1999/xlink" x="0px" y="0px"
	 viewBox="0 0 70 70" style="enable-background:new 0 0 70 70;" xml:space="preserve">
<style type="text/css">
	.st0{fill:#F2F2F2;}
</style>
<path class="st0" d="M64,16v-2h-5c-0.6,0-1,0.4-1,1h-3.6L51,11.6V5c0-0.6-0.4-1-1-1c-3.3,0-6,2.7-6,6v5h-7.5c-1.9,0-3.5,1.6-3.5,3.5
	c0,1,0.4,1.9,1.1,2.5c-0.7,0.6-1.1,1.5-1.1,2.5c0,1.3,0.7,2.3,1.7,3c-0.4,0.6-0.7,1.3-0.7,2c0,1.3,0.7,2.3,1.7,3
	c-0.4,0.6-0.7,1.3-0.7,2c0,1.9,1.6,3.5,3.5,3.5H58c0,0.6,0.4,1,1,1h5v-2h-4V16H64z M38.5,35c-0.8,0-1.5-0.7-1.5-1.5s0.7-1.5,1.5-1.5
	H39h1v-2h-1h-0.5h-1c-0.8,0-1.5-0.7-1.5-1.5s0.7-1.5,1.5-1.5H38h1v-2h-1h-0.5h-1c-0.8,0-1.5-0.7-1.5-1.5s0.7-1.5,1.5-1.5H38v-2h-1.5
	c-0.8,0-1.5-0.7-1.5-1.5s0.7-1.5,1.5-1.5H45c0.6,0,1-0.4,1-1v-6c0-1.9,1.3-3.4,3-3.9V12c0,0.3,0.1,0.5,0.3,0.7l4,4
	c0.2,0.2,0.4,0.3,0.7,0.3h4v18H38.5z"/>
<path class="st0" d="M33,51.5c0-1-0.4-1.9-1.1-2.5c0.7-0.6,1.1-1.5,1.1-2.5c0-1.3-0.7-2.3-1.7-3c0.4-0.6,0.7-1.3,0.7-2
	c0-1.3-0.7-2.3-1.7-3c0.4-0.6,0.7-1.3,0.7-2c0-1.9-1.6-3.5-3.5-3.5H8c0-0.6-0.4-1-1-1H2v2h4v20H2v2h5c0.6,0,1-0.4,1-1h3.6l3.4,3.4
	V65c0,0.6,0.4,1,1,1c3.3,0,6-2.7,6-6v-5h7.5C31.4,55,33,53.4,33,51.5z M29.5,53H21c-0.6,0-1,0.4-1,1v6c0,1.9-1.3,3.4-3,3.9V58
	c0-0.3-0.1-0.5-0.3-0.7l-4-4C12.5,53.1,12.3,53,12,53H8V35h19.5c0.8,0,1.5,0.7,1.5,1.5S28.3,38,27.5,38H27h-1v2h1h0.5h1
	c0.8,0,1.5,0.7,1.5,1.5S29.3,43,28.5,43H28h-1v2h1h0.5h1c0.8,0,1.5,0.7,1.5,1.5S30.3,48,29.5,48H28v2h1.5c0.8,0,1.5,0.7,1.5,1.5
	S30.3,53,29.5,53z"/>
<path class="st0" d="M33,14c0.3,0,0.6,0,1,0l0.1-2c-0.3,0-0.7,0-1,0c-11.1,0-20.6,7.9-22.6,18.8l2,0.4C14.2,21.2,22.9,14,33,14z"/>
<path class="st0" d="M33,56c-0.3,0-0.6,0-1,0L32,58c0.3,0,0.7,0,1,0c11.1,0,20.6-7.9,22.6-18.8l-2-0.4C51.8,48.8,43.1,56,33,56z"/>
</svg>
