<?xml version="1.0" encoding="utf-8"?>
<!-- Generator: Adobe Illustrator 21.0.0, SVG Export Plug-In . SVG Version: 6.00 Build 0)  -->
<svg version="1.1" id="Capa_1" xmlns="http://www.w3.org/2000/svg" xmlns:xlink="http://www.w3.org/1999/xlink" x="0px" y="0px"
	 viewBox="0 0 70 70" style="enable-background:new 0 0 70 70;" xml:space="preserve">
<style type="text/css">
	.st0{fill:#F2F2F2;}
</style>
<g>
	<g>
		<path class="st0" d="M51.9,39.3c1.1-2,1.6-4.4,1.6-6.9c0-10.4-8.8-18.8-19.5-18.8S14.5,22,14.5,32.4c0,2.5,0.5,4.9,1.6,6.9
			c-0.2,0.3-0.3,0.6-0.5,0.9c-0.7,1.2-1.3,2.5-1.3,4.4c0,2.3,0.9,4.6,7.1,5.8v3.3c0,1.6,1.6,2.9,3.6,2.9c1,0,2-0.4,2.6-0.9
			c0.5,1.1,1.8,1.9,3.4,1.9c1.3,0,2.4-0.5,3-1.3c0.7,0.8,1.8,1.3,3,1.3c1.5,0,2.9-0.8,3.4-1.9c0.7,0.6,1.6,0.9,2.6,0.9
			c2,0,3.6-1.3,3.6-2.9v-3.3c6.2-1.2,7.1-3.5,7.1-5.8c0-2-0.7-3.2-1.3-4.4C52.2,39.9,52.1,39.6,51.9,39.3z M46.6,49.2v-0.6
			c0-0.3-0.3-0.6-0.6-0.6s-0.6,0.3-0.6,0.6v5c0,0.9-1.1,1.7-2.4,1.7c-1.3,0-2.4-0.8-2.4-1.7v-1l0.6,0v-2.1c0,0-0.8-0.6-1.1-0.6
			c-0.3,0-0.7,0.6-0.7,0.6v3.2l0.6,0v0.9c0,0-1.7,1.7-3,1.7s-2.4-1.7-2.4-1.7v-4c0-0.3-0.3-0.6-0.6-0.6s-0.6,0.3-0.6,0.6v4
			c0,0-1.1,1.7-2.4,1.7s-3-1.7-3-1.7l0.6-1.9v-2.2c0-0.3-0.3-0.6-0.6-0.6s-0.6,0.3-0.6,0.6v3.1c0,0.9-1.1,1.7-2.4,1.7
			s-2.4-0.8-2.4-1.7v-5c0-0.3-0.3-0.6-0.6-0.6s-0.6,0.3-0.6,0.6v0.6c-5.9-1.2-5.9-3.3-5.9-4.5c0-1.7,0.5-2.7,1.2-3.8
			c0.4-0.8,0.9-1.7,1.2-2.8c0.3-1.2,1-4.4,0.1-6.8c-0.1-0.3-0.5-0.5-0.8-0.4c-0.3,0.1-0.5,0.5-0.3,0.8c0.8,2.1,0.2,5-0.1,6.1
			c0,0,0,0,0,0c-0.7-1.6-1-3.4-1-5.4c0-9.7,8.2-17.6,18.3-17.6s18.3,7.9,18.3,17.6c0,1.9-0.3,3.7-1,5.4c0,0,0,0,0,0
			c-0.3-1.1-0.9-4-0.1-6.1c0.1-0.3,0-0.7-0.4-0.8c-0.3-0.1-0.7,0-0.8,0.4c-0.9,2.4-0.2,5.6,0.1,6.8c0.3,1.1,0.8,2,1.2,2.8
			c0.6,1.2,1.2,2.2,1.2,3.8C52.5,45.9,52.5,48,46.6,49.2z"/>
		<path class="st0" d="M30.3,34.6c-1.1-1-2.6-1.1-3.9-1.1c-4,0-6.1,1.6-6.1,4.7c0,2.7,1.8,5.4,5.8,5.4c4.3,0,5.2-4.7,5.2-5.6
			C31.3,37.2,31.3,35.6,30.3,34.6z M26.1,42.4c-3.4,0-4.6-2.2-4.6-4.2c0-1.5,0.5-3.5,4.9-3.5c1.6,0,2.5,0.2,3.1,0.8
			c0.6,0.6,0.6,1.9,0.6,2.5C30.1,38.1,29.6,42.4,26.1,42.4z"/>
		<path class="st0" d="M41.6,33.5c-1.3,0-2.8,0.1-3.9,1.1c-1,1-1,2.5-1,3.4c0,0.9,1,5.5,5.2,5.5c4,0,5.8-2.7,5.8-5.4
			C47.7,35.1,45.6,33.5,41.6,33.5z M41.9,42.4c-3.5,0-4-4.3-4-4.4c0-0.7,0-1.9,0.6-2.5c0.6-0.6,1.5-0.8,3.1-0.8c4.4,0,4.9,2,4.9,3.5
			C46.5,40.1,45.3,42.4,41.9,42.4z"/>
		<path class="st0" d="M34,40.6c-1.2,0-3.4,2.8-3.4,5.2c0,3.1,2.3,3.1,3.4,3.1s3.4,0,3.4-3.1C37.4,43.4,35.2,40.6,34,40.6z M34,47.7
			c-1.5,0-2.2-0.2-2.2-1.9c0-1.9,1.7-3.8,2.2-4c0.5,0.2,2.2,2.1,2.2,4C36.2,47.5,35.5,47.7,34,47.7z"/>
	</g>
</g>
</svg>
