<?xml version="1.0" encoding="utf-8"?>
<!-- Generator: Adobe Illustrator 21.0.0, SVG Export Plug-In . SVG Version: 6.00 Build 0)  -->
<svg version="1.1" id="Capa_1" xmlns="http://www.w3.org/2000/svg" xmlns:xlink="http://www.w3.org/1999/xlink" x="0px" y="0px"
	 viewBox="0 0 70 70" style="enable-background:new 0 0 70 70;" xml:space="preserve">
<style type="text/css">
	.st0{fill:#F2F2F2;}
</style>
<path id="XMLID_1635_" class="st0" d="M34.3,35.9c2.4,0,4.4-2,4.4-4.4c0-2.4-2-4.4-4.4-4.4s-4.4,2-4.4,4.4
	C29.9,33.9,31.9,35.9,34.3,35.9z M34.3,28c1.9,0,3.4,1.5,3.4,3.4c0,1.9-1.5,3.4-3.4,3.4s-3.4-1.5-3.4-3.4C30.9,29.6,32.4,28,34.3,28
	z M45.6,31.4c0-6.2-5-11.3-11.3-11.3s-11.3,5-11.3,11.3c0,2.4,0.8,4.7,2.2,6.7c0.1,0.1,0.2,0.2,0.4,0.2c0.1,0,0.2,0,0.3-0.1
	c0.2-0.2,0.3-0.5,0.1-0.7c-1.3-1.8-2-3.9-2-6.1c0-5.7,4.6-10.3,10.3-10.3s10.3,4.6,10.3,10.3c0,2.1-0.7,4.3-2,6.1
	c-0.2,0.2-0.1,0.5,0.1,0.7c0.2,0.2,0.5,0.1,0.7-0.1C44.8,36,45.6,33.7,45.6,31.4z M34.3,13.9c-9.6,0-17.5,7.8-17.5,17.5
	c0,5.9,2.9,11.3,7.8,14.6c0.2,0.2,0.5,0.1,0.7-0.1c0.2-0.2,0.1-0.5-0.1-0.7c-4.6-3.1-7.4-8.2-7.4-13.7c0-9.1,7.4-16.5,16.5-16.5
	s16.5,7.4,16.5,16.5c0,5.5-2.8,10.7-7.4,13.7c-0.2,0.2-0.3,0.5-0.1,0.7c0.1,0.1,0.3,0.2,0.4,0.2c0.1,0,0.2,0,0.3-0.1
	c4.9-3.2,7.8-8.7,7.8-14.6C51.8,21.7,44,13.9,34.3,13.9z M35.9,37.5h-3.6c-1.7,0-3.1,1.4-3.1,3.1v6.9c0,1.3,0.8,2.4,2.1,2.9V55
	c0,1.1,0.9,2,2,2h1.8c1.1,0,2-0.9,2-2v-4.6c1.3-0.5,2.1-1.6,2.1-2.9v-6.9C39.2,38.9,37.8,37.5,35.9,37.5z M38.2,47.5
	c0,0.9-0.7,1.8-1.7,2c-0.2,0.1-0.4,0.3-0.4,0.5l0,4.9c0,0.5-0.4,1-1,1h-1.7c-0.5,0-1-0.4-1-1l0-4.9c0-0.2-0.2-0.4-0.4-0.5
	c-1-0.2-1.7-1.1-1.7-2v-6.8c0-1.1,0.9-2.1,2.1-2.1h3.7c1.1,0,2.1,0.9,2.1,2.1L38.2,47.5L38.2,47.5z"/>
</svg>
