<?xml version="1.0" encoding="UTF-8" standalone="no"?>
<svg width="28px" height="54px" viewBox="0 0 28 54" version="1.1" xmlns="http://www.w3.org/2000/svg" xmlns:xlink="http://www.w3.org/1999/xlink">
    <!-- Generator: Sketch 46.2 (44496) - http://www.bohemiancoding.com/sketch -->
    <title>ico-empleo</title>
    <desc>Created with Sketch.</desc>
    <defs></defs>
    <g id="Symbols" stroke="none" stroke-width="1" fill="none" fill-rule="evenodd">
        <g id="ico-empleo" fill="#F2F2F2">
            <path d="M5.4457,7.4336 C5.4457,4.7156 7.6577,2.5046 10.3747,2.5046 C13.0927,2.5046 15.3047,4.7156 15.3047,7.4336 C15.3047,10.1516 13.0927,12.3626 10.3747,12.3626 C7.6577,12.3626 5.4457,10.1516 5.4457,7.4336 M17.1707,7.4336 C17.1707,3.6866 14.1227,0.6386 10.3747,0.6386 C6.6277,0.6386 3.5797,3.6866 3.5797,7.4336 C3.5797,11.1806 6.6277,14.2296 10.3747,14.2296 C14.1227,14.2296 17.1707,11.1806 17.1707,7.4336" id="Fill-141"></path>
            <path d="M1.9976,34.8573 L1.9976,23.6733 C1.9976,20.4463 4.6226,17.8213 7.8496,17.8213 L12.9006,17.8213 C16.1276,17.8213 18.7526,20.4463 18.7526,23.6733 L18.7526,34.4623 L12.0786,34.4623 C11.0936,34.4623 10.2926,35.2633 10.2926,36.2473 L10.2926,46.2313 C10.2926,47.2153 11.0936,48.0163 12.0786,48.0163 L15.2566,48.0163 L15.2566,49.3273 C15.2566,50.5503 14.2616,51.5463 13.0386,51.5463 L7.7116,51.5463 C6.4876,51.5463 5.4926,50.5503 5.4926,49.3273 L5.4926,37.0753 L4.2156,37.0753 C2.9926,37.0753 1.9976,36.0803 1.9976,34.8573 L1.9976,34.8573 Z M12.1586,46.1503 L25.5616,46.1503 L25.5616,36.3283 L12.1586,36.3283 L12.1586,46.1503 Z M7.7116,53.4123 L13.0386,53.4123 C15.2916,53.4123 17.1236,51.5803 17.1236,49.3283 L17.1236,48.0173 L25.6426,48.0173 C26.6276,48.0173 27.4286,47.2153 27.4286,46.2313 L27.4286,36.2473 C27.4286,35.2623 26.6276,34.4613 25.6426,34.4613 L20.6186,34.4613 L20.6186,23.6733 C20.6186,19.4173 17.1566,15.9553 12.9006,15.9553 L7.8506,15.9553 C3.5936,15.9553 0.1316,19.4173 0.1316,23.6733 L0.1316,34.8573 C0.1316,36.9093 1.6526,38.6133 3.6276,38.8993 L3.6276,49.3283 C3.6266,51.5803 5.4596,53.4123 7.7116,53.4123 L7.7116,53.4123 Z" id="Fill-143"></path>
        </g>
    </g>
</svg>