<?xml version="1.0" encoding="UTF-8" standalone="no"?>
<svg width="56px" height="46px" viewBox="0 0 56 46" version="1.1" xmlns="http://www.w3.org/2000/svg" xmlns:xlink="http://www.w3.org/1999/xlink">
    <!-- Generator: Sketch 46.2 (44496) - http://www.bohemiancoding.com/sketch -->
    <title>ico-industria</title>
    <desc>Created with Sketch.</desc>
    <defs></defs>
    <g id="intro-panel+datos-destacados" stroke="none" stroke-width="1" fill="none" fill-rule="evenodd">
        <g id="descripcion-panel+datos-destacados" transform="translate(-784.000000, -195.000000)" fill="#F2F2F2">
            <g id="ico-industria" transform="translate(784.000000, 195.000000)">
                <g id="Group-156">
                    <path d="M52.624,42.4399 L3.376,42.4399 L3.376,11.3359 L11.152,11.3359 L11.152,28.1839 C11.152,28.6339 11.385,29.0499 11.766,29.2869 C12.149,29.5239 12.627,29.5449 13.027,29.3439 L31.888,19.9129 L31.888,28.1839 C31.888,28.6339 32.121,29.0499 32.504,29.2869 C32.886,29.5239 33.362,29.5419 33.765,29.3439 L52.624,19.9129 L52.624,42.4399 Z M3.376,8.7439 L11.152,8.7439 L11.152,3.5599 L3.376,3.5599 L3.376,8.7439 Z M54.6,16.7129 C54.218,16.4749 53.741,16.4569 53.339,16.6559 L34.48,26.0869 L34.48,17.3469 C34.48,16.8969 34.247,16.4809 33.864,16.2439 C33.482,16.0049 33.005,15.9869 32.603,16.1869 L13.744,25.6179 L13.744,2.2639 C13.744,1.5479 13.164,0.9679 12.448,0.9679 L2.08,0.9679 C1.364,0.9679 0.784,1.5479 0.784,2.2639 L0.784,43.7359 C0.784,44.4519 1.364,45.0319 2.08,45.0319 L53.92,45.0319 C54.636,45.0319 55.216,44.4519 55.216,43.7359 L55.216,17.8159 C55.216,17.3659 54.983,16.9499 54.6,16.7129 L54.6,16.7129 Z" id="Fill-146"></path>
                    <path d="M17.632,31.6028 C16.917,31.6028 16.336,32.1818 16.336,32.8988 L16.336,35.4908 C16.336,36.2078 16.917,36.7868 17.632,36.7868 C18.347,36.7868 18.928,36.2078 18.928,35.4908 L18.928,32.8988 C18.928,32.1818 18.347,31.6028 17.632,31.6028" id="Fill-148"></path>
                    <path d="M25.408,31.6028 C24.693,31.6028 24.112,32.1818 24.112,32.8988 L24.112,35.4908 C24.112,36.2078 24.693,36.7868 25.408,36.7868 C26.123,36.7868 26.704,36.2078 26.704,35.4908 L26.704,32.8988 C26.704,32.1818 26.123,31.6028 25.408,31.6028" id="Fill-150"></path>
                    <path d="M38.368,36.7867 C39.085,36.7867 39.664,36.2077 39.664,35.4907 L39.664,32.8987 C39.664,32.1817 39.085,31.6027 38.368,31.6027 C37.651,31.6027 37.072,32.1817 37.072,32.8987 L37.072,35.4907 C37.072,36.2077 37.651,36.7867 38.368,36.7867" id="Fill-152"></path>
                    <path d="M46.144,36.7867 C46.861,36.7867 47.44,36.2077 47.44,35.4907 L47.44,32.8987 C47.44,32.1817 46.861,31.6027 46.144,31.6027 C45.427,31.6027 44.848,32.1817 44.848,32.8987 L44.848,35.4907 C44.848,36.2077 45.427,36.7867 46.144,36.7867" id="Fill-154"></path>
                </g>
            </g>
        </g>
    </g>
</svg>