<?xml version="1.0" encoding="utf-8"?>
<!-- Generator: Adobe Illustrator 21.0.0, SVG Export Plug-In . SVG Version: 6.00 Build 0)  -->
<svg version="1.1" id="Capa_1" xmlns="http://www.w3.org/2000/svg" xmlns:xlink="http://www.w3.org/1999/xlink" x="0px" y="0px"
	 viewBox="0 0 70 70" style="enable-background:new 0 0 70 70;" xml:space="preserve">
<style type="text/css">
	.st0{fill:#F2F2F2;}
</style>
<g id="XMLID_379_">
	<path id="XMLID_380_" class="st0" d="M26.9,25.2c0.3,0,0.6-0.3,0.6-0.6v-2.9c0-0.4,0.3-0.8,0.8-0.8h11.1c0.4,0,0.8,0.3,0.8,0.8v2.9
		c0,0.3,0.3,0.6,0.6,0.6c0.3,0,0.6-0.3,0.6-0.6v-2.9c0-1.1-0.9-2-2-2H28.3c-1.1,0-2,0.9-2,2v2.9C26.3,24.9,26.6,25.2,26.9,25.2z
		 M49.5,25.3H18.8c-1.8,0-3.2,1.5-3.2,3.4v19c0,1.9,1.4,3.4,3.2,3.4h30.7c1.8,0,3.2-1.5,3.2-3.4v-19C52.8,26.9,51.3,25.3,49.5,25.3z
		 M51.5,47.7c0,1.2-0.9,2.2-2,2.2H18.8c-1.1,0-2-1-2-2.2v-19c0-1.2,0.9-2.2,2-2.2h30.7c1.1,0,2,1,2,2.2V47.7z M37.4,37.9h-2.9V35
		c0-0.3-0.3-0.6-0.6-0.6c-0.3,0-0.6,0.3-0.6,0.6v2.9h-2.9c-0.3,0-0.6,0.3-0.6,0.6c0,0.3,0.3,0.6,0.6,0.6h2.9v2.9
		c0,0.3,0.3,0.6,0.6,0.6c0.3,0,0.6-0.3,0.6-0.6v-2.9h2.9c0.3,0,0.6-0.3,0.6-0.6C38,38.2,37.7,37.9,37.4,37.9z M33.9,30.6
		c-4.2,0-7.7,3.5-7.7,7.7c0,4.2,3.5,7.7,7.7,7.7c4.2,0,7.7-3.5,7.7-7.7S38.1,30.6,33.9,30.6z M33.9,44.7c-3.6,0-6.4-2.9-6.4-6.4
		s2.9-6.4,6.4-6.4s6.4,2.9,6.4,6.4S37.4,44.7,33.9,44.7z"/>
</g>
</svg>
