<svg xmlns="http://www.w3.org/2000/svg" width="40" height="50" viewBox="0 0 40 50">
    <path fill="#f2f2f2" d="M12.748 14.8c.3 0 .6-.3.6-.6v-2.9c0-.4.3-.8.8-.8h11.1c.4 0 .8.3.8.8v2.9c0 .3.3.6.6.6s.6-.3.6-.6v-2.9c0-1.1-.9-2-2-2h-11.1c-1.1 0-2 .9-2 2v2.9c0 .3.3.6.6.6zm22.6.1h-30.7c-1.8 0-3.2 1.5-3.2 3.4v19c0 1.9 1.4 3.4 3.2 3.4h30.7c1.8 0 3.2-1.5 3.2-3.4v-19c.1-1.8-1.4-3.4-3.2-3.4zm2 22.4c0 1.2-.9 2.2-2 2.2h-30.7c-1.1 0-2-1-2-2.2v-19c0-1.2.9-2.2 2-2.2h30.7c1.1 0 2 1 2 2.2zm-14.1-9.8h-2.9v-2.9c0-.3-.3-.6-.6-.6s-.6.3-.6.6v2.9h-2.9c-.3 0-.6.3-.6.6s.3.6.6.6h2.9v2.9c0 .3.3.6.6.6s.6-.3.6-.6v-2.9h2.9c.3 0 .6-.3.6-.6s-.3-.6-.6-.6zm-3.5-7.3c-4.2 0-7.7 3.5-7.7 7.7s3.5 7.7 7.7 7.7 7.7-3.5 7.7-7.7-3.5-7.7-7.7-7.7zm0 14.1c-3.6 0-6.4-2.9-6.4-6.4 0-3.5 2.9-6.4 6.4-6.4 3.5 0 6.4 2.9 6.4 6.4 0 3.5-2.9 6.4-6.4 6.4z"/>
</svg>
