<svg xmlns="http://www.w3.org/2000/svg" width="40" height="50" viewBox="0 0 40 50">
    <path fill="#f2f2f2" d="M38.225 43.631c-.1-.4-.2-.8-.5-1.2l-5.2-8.6c-.8-1.5-2.3-2.6-4-2.8h-.2l-.1-.3-10.7.5s-2.2.8-2.2 2c0 .6.2 1.1.6 1.5.4.3.9.6 1.5.7 1 .2 5 .9 5.1.9.3.1.6-.1.7-.4.1-.3-.1-.6-.4-.7-.2 0-4-.8-5.1-.9-.4-.1-.7-.2-.9-.4-.2-.2-.3-.5-.3-.7 0-.6 1.1-1.1 1.1-1.1h10.7c1.4.2 2.7 1 3.3 2.3 0 0 0 .1.1.1l5.2 8.5c.2.2.3.5.3.8.2 1-.3 2-1.1 2.5-1.2.7-2.7.3-3.4-.8l-1.8-3.8c-.4-.6-1-1.1-1.7-1.2h-.1l-11.9-1.7-10.3-4.6c-.3-.1-.5-.3-.6-.6-.1-.3-.1-.5 0-.8.2-.5.9-.8 1.5-.6l5.9 2.1c.3.1.6-.1.7-.3.1-.3-.1-.6-.3-.7l-5.9-2.1c-1.1-.5-2.4 0-2.9 1.2-.2.5-.2 1.1 0 1.7.2.6.6 1 1.2 1.2l10.4 4.6h.2l11.9 1.7c.4.1.8.4 1 .7l1.7 3.8v.1c.7 1.1 1.9 1.7 3.1 1.7.6 0 1.3-.2 1.9-.5 1.2-.9 1.8-2.4 1.5-3.8zM18.925 2.069c-.1 0-.2 0-.3.1l-16.5 9.4c-.3.2-.5.6-.4.9.1.3.4.4.6.4h.5l2.7-1.6v16.6c0 .4.4.8.8.8h25.1c.4 0 .8-.4.8-.8v-16.6l2.7 1.6c.4.2.9.1 1.1-.3.2-.4.1-.9-.3-1.1l-3.5-2v-5.1c0-.4-.4-.8-.8-.8h-5.6c-.4 0-.7.4-.7.8v1.1l-5.9-3.4zm.1 1.7l11.8 6.7v16.7h-14.9v-10.2h6.3v5.5c0 .6.6 1 1.2.7.3-.1.4-.4.4-.7v-6.3c0-.4-.4-.8-.8-.8H15.125c-.4 0-.7.4-.7.8v11h-7.1v-16.7zm7.8 1.5h3.9v3.5l-3.9-2.2zm-3.7 19.2c-.4 0-.8.4-.8.8s.4.8.8.8.8-.4.8-.8-.4-.8-.8-.8z"/>
</svg>
