<?xml version="1.0" encoding="utf-8"?>
<!-- Generator: Adobe Illustrator 21.0.0, SVG Export Plug-In . SVG Version: 6.00 Build 0)  -->
<svg version="1.1" id="Capa_1" xmlns="http://www.w3.org/2000/svg" xmlns:xlink="http://www.w3.org/1999/xlink" x="0px" y="0px"
	 viewBox="0 0 70 70" style="enable-background:new 0 0 70 70;" xml:space="preserve">
<style type="text/css">
	.st0{fill:none;stroke:#F2F2F2;stroke-width:1.5;stroke-miterlimit:10;}
</style>
<g>
	<circle class="st0" cx="15.7" cy="22.8" r="5.2"/>
	<circle class="st0" cx="54.3" cy="47.2" r="5.2"/>
	<rect x="45.5" y="57.4" class="st0" width="17.5" height="5.6"/>
	<circle class="st0" cx="36.8" cy="47.2" r="5.2"/>
	<rect x="28" y="57.4" class="st0" width="17.5" height="5.6"/>
	<path class="st0" d="M35,28.4l-8.4,11.2c-1.2,1.5-2.1,4.4-2.1,6.3v6.7H7V33.6h12.2c1.9,0,4.7-1,6.2-2.3l9.6-8.2L35,28.4z"/>
	<path class="st0" d="M59.5,7H18.9c-1.9,0-3.5,1.6-3.5,3.5v7.1l0,0c2.9,0,5.3,2.4,5.3,5.3s-2.4,5.3-5.3,5.3l0,0v5.3h3.9
		c1.9,0,4.7-1,6.2-2.3l9.6-8.2v5.2l-8.4,11.2c-1.2,1.5-2.1,4.4-2.1,6.3v1.8h7c0-2.9,2.4-5.3,5.3-5.3c2.9,0,5.2,2.4,5.2,5.3h7
		c0-2.9,2.4-5.3,5.2-5.3c2.9,0,5.3,2.4,5.3,5.3c1.9,0,3.5-1.6,3.5-3.5V10.5C63,8.6,61.4,7,59.5,7z"/>
</g>
</svg>
