<?xml version="1.0" encoding="utf-8"?>
<!-- Generator: Adobe Illustrator 21.0.0, SVG Export Plug-In . SVG Version: 6.00 Build 0)  -->
<svg version="1.1" id="Capa_1" xmlns="http://www.w3.org/2000/svg" xmlns:xlink="http://www.w3.org/1999/xlink" x="0px" y="0px"
	 viewBox="0 0 70 70" style="enable-background:new 0 0 70 70;" xml:space="preserve">
<style type="text/css">
	.st0{fill:#F2F2F2;}
</style>
<g>
	<g>
		<path class="st0" d="M32.5,40.7V22.2c0-0.8,0.5-1.5,1.3-1.6c0.9-0.1,1.8,0.6,1.8,1.5v18.8c0,0.9-0.8,1.7-1.8,1.5
			C33,42.3,32.5,41.5,32.5,40.7z M35.1,47.5c0.3-0.3,0.5-0.7,0.5-1.1c0-0.4-0.2-0.8-0.5-1.1c-0.6-0.6-1.6-0.6-2.2,0
			c-0.3,0.3-0.5,0.7-0.5,1.1c0,0.4,0.2,0.8,0.5,1.1c0.3,0.3,0.7,0.5,1.1,0.5C34.4,48,34.8,47.8,35.1,47.5z M57.6,49.1
			c7.1-11,5.5-25.6-3.8-34.9C48.5,8.9,41.5,6,34,6c-7.5,0-14.5,2.9-19.8,8.2C8.9,19.5,6,26.5,6,34c0,7.5,2.9,14.5,8.2,19.8
			C19.5,59.1,26.5,62,34,62c5.4,0,10.6-1.5,15.1-4.4l8.9,2.4c0.5,0.1,1.1,0,1.5-0.4c0.4-0.4,0.6-1,0.4-1.5L57.6,49.1z M49.2,54.3
			c-0.4-0.1-0.9,0-1.3,0.2c-4.1,2.8-8.9,4.3-13.9,4.3c-6.6,0-12.9-2.6-17.6-7.3C11.8,46.9,9.2,40.6,9.2,34s2.6-12.9,7.3-17.5
			c4.7-4.7,10.9-7.3,17.6-7.3c6.6,0,12.9,2.6,17.5,7.3c8.4,8.4,9.7,21.7,3,31.5c-0.3,0.4-0.3,0.9-0.2,1.3l1.8,6.9L49.2,54.3z"/>
	</g>
</g>
</svg>
