<?xml version="1.0" encoding="utf-8"?>
<svg xmlns="http://www.w3.org/2000/svg" viewBox="0 0 70 70">
    <path fill="#f2f2f2" d="M17.5 31.5c0-2.7 2.2-4.8 4.8-4.8h19.4c2.7 0 4.8 2.2 4.8 4.8v.7H36.2v-.7c0-1.1-.9-2.1-2.1-2.1h-2.8c-1.1 0-2.1.9-2.1 2.1v.7H17.5v-.7zm16.6 5.6h-2.8a.7.7 0 0 1-.7-.7v-4.8c0-.4.3-.7.7-.7h2.8c.4 0 .7.3.7.7v4.8c0 .4-.3.7-.7.7zm5.5 12.4H22.4a4.8 4.8 0 0 1-4.8-4.8V33.6h11.8v2.8c0 1.1.9 2.1 2.1 2.1h2.8c1.1 0 2.1-.9 2.1-2.1v-2.8h10.4V35c0 .4.3.7.7.7.4 0 .7-.3.7-.7v-3.5c0-3.4-2.8-6.2-6.2-6.2H22.4a6.2 6.2 0 0 0-6.2 6.2v13.1c0 3.4 2.8 6.2 6.2 6.2h17.3c.4 0 .7-.3.7-.7a.9.9 0 0 0-.8-.6zM25.1 23.9c.4 0 .7-.3.7-.7v-.7c0-1.1.9-2.1 2.1-2.1h9c1.1 0 2.1.9 2.1 2.1v.7c0 .4.3.7.7.7.4 0 .7-.3.7-.7v-.7c0-1.9-1.5-3.5-3.5-3.5h-9a3.5 3.5 0 0 0-3.5 3.5v.7c0 .4.3.7.7.7"/>
    <path fill="#f2f2f2" d="M49.1 40.5c0 1.1-.9 2.1-2.1 2.1-1.1 0-2.1-.9-2.1-2.1 0-1.1.9-2.1 2.1-2.1 1.2.1 2.1 1 2.1 2.1m-5.5 0c0 1.9 1.6 3.5 3.5 3.5s3.5-1.6 3.5-3.5S49 37 47.1 37c-2 .1-3.5 1.6-3.5 3.5m3.5 4.9c-3 0-5.5 2.2-5.5 4.8 0 .4.3.7.7.7.4 0 .7-.3.7-.7 0-1.9 1.9-3.5 4.1-3.5 2.3 0 4.1 1.5 4.1 3.4 0 .4.3.7.7.7.4 0 .7-.3.7-.7-.1-2.6-2.5-4.7-5.5-4.7"/>
</svg>
