<?xml version="1.0" encoding="utf-8"?>
<svg xmlns="http://www.w3.org/2000/svg" id="Capa_1" viewBox="0 0 70 70">
    <path fill="#f2f2f2" d="M16.5 30.5c0-2.7 2.2-4.8 4.8-4.8h19.4c2.7 0 4.8 2.2 4.8 4.8v.7H35.2v-.7c0-1.1-.9-2.1-2.1-2.1h-2.8c-1.1 0-2.1.9-2.1 2.1v.7H16.5v-.7zm16.6 5.6h-2.8a.7.7 0 0 1-.7-.7v-4.8c0-.4.3-.7.7-.7h2.8c.4 0 .7.3.7.7v4.8c0 .4-.3.7-.7.7zm5.5 12.4H21.4a4.8 4.8 0 0 1-4.8-4.8V32.6h11.8v2.8c0 1.1.9 2.1 2.1 2.1h2.8c1.1 0 2.1-.9 2.1-2.1v-2.8h10.4V34c0 .4.3.7.7.7.4 0 .7-.3.7-.7v-3.5c0-3.4-2.8-6.2-6.2-6.2H21.4a6.2 6.2 0 0 0-6.2 6.2v13.1c0 3.4 2.8 6.2 6.2 6.2h17.3c.4 0 .7-.3.7-.7a.9.9 0 0 0-.8-.6zM24.1 22.9c.4 0 .7-.3.7-.7v-.7c0-1.1.9-2.1 2.1-2.1h9c1.1 0 2.1.9 2.1 2.1v.7c0 .4.3.7.7.7.4 0 .7-.3.7-.7v-.7c0-1.9-1.5-3.5-3.5-3.5h-9a3.5 3.5 0 0 0-3.5 3.5v.7c0 .4.3.7.7.7m21.8 23.8c-.5 0-.9.4-.9.9s.4.9.9.9.9-.4.9-.9-.4-.9-.9-.9zm-1.7-4.9v.5h1.2v-.6c0-.4.2-.6.6-.6s.6.2.6.6-.2.7-.4 1.1c-.4.6-.8 1.3-.8 2.5h1.2c0-.8.3-1.3.6-1.9.3-.5.6-1 .6-1.7 0-1.1-.9-1.9-2.1-1.8a2 2 0 0 0-1.5 1.9z"/>
    <path fill="#f2f2f2" d="M45.9 37.1c-4 0-7.2 3.2-7.2 7.2s3.2 7.2 7.2 7.2 7.2-3.2 7.2-7.2-3.2-7.2-7.2-7.2zm0 13.2a6 6 0 0 1-6-6c0-3.3 2.7-6 6-6s6 2.7 6 6a6 6 0 0 1-6 6z"/>
</svg>
