<svg xmlns="http://www.w3.org/2000/svg" width="40" height="50" viewBox="0 0 40 50">
    <path fill="#f2f2f2" d="M26.8 18.6c0 3.8-3.1 6.8-6.8 6.8-3.8 0-6.8-3-6.8-6.8m-1.5 0c0 4.6 3.7 8.2 8.3 8.2 4.6 0 8.2-3.7 8.2-8.2M32 40.7c-.4 0-.7-.3-.7-.7 0-6.2-5.1-11.3-11.3-11.3-6.2 0-11.3 5.1-11.3 11.3 0 .4-.3.7-.7.7-.4 0-.7-.3-.7-.7 0-7 5.7-12.7 12.7-12.7 7 0 12.7 5.7 12.7 12.7 0 .4-.3.7-.7.7z"/>
    <path fill="#f2f2f2" d="M14.6 37.4c-.4 0-.7-.3-.7-.7v-7.2c0-.4.3-.7.7-.7.4 0 .7.3.7.7v7.2c0 .4-.3.7-.7.7zM28.1 18.9c-.4 0-.7-.3-.7-.7 0-4.1-3.3-7.4-7.4-7.4-4.1 0-7.4 3.3-7.4 7.4 0 .4-.3.7-.7.7-.4 0-.7-.3-.7-.7 0-4.9 4-8.9 8.9-8.9s8.9 4 8.9 8.9c-.2.4-.5.7-.9.7z"/>
    <path fill="#f2f2f2" d="M29.3 18.8H10.6c-.4 0-.7-.3-.7-.7 0-.4.3-.7.7-.7h18.7c.4 0 .7.3.7.7 0 .4-.3.7-.7.7z"/>
    <path fill="#f2f2f2" d="M18 18.9c-.4 0-.7-.3-.7-.7v-7.9c0-.4.3-.7.7-.7.4 0 .7.3.7.7v7.9c0 .4-.3.7-.7.7zM21.8 18.9c-.4 0-.7-.3-.7-.7v-7.9c0-.4.3-.7.7-.7.4 0 .7.3.7.7v7.9c0 .4-.3.7-.7.7zM25.2 37.4c-.4 0-.7-.3-.7-.7v-7.2c0-.4.3-.7.7-.7.4 0 .7.3.7.7v7.2c0 .4-.3.7-.7.7z"/>
    <path fill="#f2f2f2" d="M31.5 37.5h-23c-.4 0-.7-.3-.7-.7 0-.4.3-.7.7-.7h23c.4 0 .7.3.7.7 0 .4-.3.7-.7.7z"/>
</svg>
