<?xml version="1.0" encoding="utf-8"?>
<!-- Generator: Adobe Illustrator 21.0.0, SVG Export Plug-In . SVG Version: 6.00 Build 0)  -->
<svg version="1.1" id="Capa_1" xmlns="http://www.w3.org/2000/svg" xmlns:xlink="http://www.w3.org/1999/xlink" x="0px" y="0px"
	 viewBox="0 0 70 70" style="enable-background:new 0 0 70 70;" xml:space="preserve">
<style type="text/css">
	.st0{fill:#F2F2F2;}
</style>
<g>
	<path class="st0" d="M33.8,8c-0.4,0.1-0.7,0.5-0.7,0.9v13.5H13.3c0,0-0.1,0-0.1,0c-0.3,0-0.6,0.2-0.7,0.5L2.6,42.7
		c-0.2,0.4,0,1,0.4,1.2C3.1,44,3.3,44,3.4,44H7v13.5c0,0.5,0.4,0.9,0.9,0.9h12.6v2.7c0,0.5,0.4,0.9,0.9,0.9h25.2
		c0.5,0,0.9-0.4,0.9-0.9v-2.7h12.6c0.5,0,0.9-0.4,0.9-0.9V44h3.6c0.5,0,0.9-0.4,0.9-0.9c0-0.1,0-0.3-0.1-0.4l-9.9-19.8
		c-0.2-0.3-0.5-0.5-0.8-0.5H34.9v-5.3c1.5,0.1,2.1,0.3,3,0.8c1,0.5,2.3,1,5.1,1c0.5,0,0.9-0.4,0.9-0.9l0-7.2c0-0.5-0.4-0.9-0.9-0.9
		c-2.6,0-3.5-0.4-4.5-0.8c-1-0.4-2.2-1-4.5-1C34,8,33.9,8,33.8,8C33.9,8,33.9,8,33.8,8z M34.9,9.9c1.3,0.1,2.1,0.4,2.9,0.7
		c0.9,0.4,2.2,0.8,4.3,0.9v5.4c-1.8-0.1-2.7-0.4-3.5-0.7c-0.8-0.4-1.9-0.9-3.7-0.9V9.9z M13.8,24.2h18.9l-12,12
		c-0.2,0.2-0.3,0.4-0.3,0.6v5.4H4.9L13.8,24.2z M35.3,24.2h18.9l9,18H47.5v-5.4c0-0.2-0.1-0.5-0.3-0.6L35.3,24.2z M34,25.5
		l11.7,11.7v23H22.3v-23L34,25.5z M34,34.1c-2.5,0-4.5,2-4.5,4.5c0,2.5,2,4.5,4.5,4.5s4.5-2,4.5-4.5C38.5,36.1,36.5,34.1,34,34.1z
		 M34,35.9c1.5,0,2.7,1.2,2.7,2.7s-1.2,2.7-2.7,2.7c-1.5,0-2.7-1.2-2.7-2.7S32.5,35.9,34,35.9z M8.8,44h11.7v12.6H8.8V44z M47.5,44
		h11.7v12.6H47.5V44z"/>
</g>
</svg>
