<?xml version="1.0" encoding="utf-8"?>
<!-- Generator: Adobe Illustrator 21.0.0, SVG Export Plug-In . SVG Version: 6.00 Build 0)  -->
<svg version="1.1" id="Capa_1" xmlns="http://www.w3.org/2000/svg" xmlns:xlink="http://www.w3.org/1999/xlink" x="0px" y="0px"
	 viewBox="0 0 70 70" style="enable-background:new 0 0 70 70;" xml:space="preserve">
<style type="text/css">
	.st0{fill:#F2F2F2;}
</style>
<g>
	<g>
		<path class="st0" d="M45.2,40.3c-0.5-0.2-0.9,0.2-0.9,0.7v9.9h-2.1v-5.9c0-0.3-0.2-0.6-0.5-0.7c-0.5-0.2-0.9,0.2-0.9,0.7v6.7
			c0,0.4,0.3,0.7,0.7,0.7H45c0.4,0,0.7-0.3,0.7-0.7V41C45.7,40.7,45.5,40.4,45.2,40.3z"/>
		<path class="st0" d="M39.1,46.4c-0.5-0.2-0.9,0.2-0.9,0.7v3.9h-2.1v-2c0-0.3-0.2-0.6-0.5-0.7c-0.5-0.2-0.9,0.2-0.9,0.7v2.7
			c0,0.4,0.3,0.7,0.7,0.7h3.4c0.4,0,0.7-0.3,0.7-0.7V47C39.5,46.7,39.4,46.4,39.1,46.4z"/>
		<path class="st0" d="M51.8,26.8c0.1-0.2,0.1-0.5-0.1-0.7l-6.8-8c-0.3-0.3-0.8-0.3-1,0l-6.8,8c-0.2,0.2-0.2,0.5-0.1,0.7
			c0.1,0.2,0.4,0.4,0.6,0.4h4c-0.5,5.4-3.9,10.1-8.9,12.4c-0.3,0.1-0.5,0.4-0.4,0.8c0.1,0.5,0.6,0.7,1,0.5c5.7-2.6,9.5-8.1,9.8-14.3
			c0-0.2-0.1-0.4-0.2-0.5c-0.1-0.1-0.3-0.2-0.5-0.2h-3.2l5.3-6.2l5.3,6.2h-3.2c-0.2,0-0.4,0.1-0.5,0.2c-0.1,0.1-0.2,0.3-0.2,0.5
			c0.4,9.7-6.2,18.4-15.6,20.7c-0.4,0.1-0.6,0.5-0.5,0.8c0.1,0.3,0.4,0.5,0.7,0.5c0.1,0,0.1,0,0.2,0c9.8-2.4,16.7-11.4,16.7-21.4h4
			C51.4,27.2,51.6,27.1,51.8,26.8z"/>
		<path class="st0" d="M51.2,36.5h-3.4c-0.4,0-0.7,0.3-0.7,0.7v14.4c0,0.4,0.3,0.7,0.7,0.7h3.4c0.4,0,0.7-0.3,0.7-0.7V37.2
			C51.9,36.8,51.6,36.5,51.2,36.5z M50.5,50.9h-2.1v-13h2.1V50.9z"/>
	</g>
</g>
<g>
	<g>
		<g>
			<path class="st0" d="M22.7,32.2c0.3,0,0.6-0.1,0.9-0.1c2.2-0.5,3.6-2.7,3.1-5c-0.3-1-0.9-2-1.8-2.6c-0.9-0.6-2-0.8-3.1-0.6
				c-2.2,0.5-3.6,2.7-3.1,5C19.2,30.9,20.9,32.2,22.7,32.2z M24.3,25.6c0.6,0.4,1.1,1.1,1.3,1.8l0,0c0.4,1.5-0.6,3.1-2.2,3.5
				c-1.5,0.3-3.1-0.6-3.5-2.2c-0.4-1.5,0.6-3.1,2.2-3.5c0.2-0.1,0.4-0.1,0.6-0.1C23.3,25.2,23.9,25.3,24.3,25.6z"/>
			<path class="st0" d="M25.8,33.2h-6c-1.8,0-3.1,1.4-3.1,3.2v9.3c0,1.5,1,2.8,2.4,3.1v3.8c0,0,0.4,0.6,0.7,0.6s0.8-0.6,0.8-0.6v0.1
				v-4.3c0-0.3-0.3-0.6-0.6-0.6c-1.1,0-1.8-0.9-1.8-1.9v-9.2c0-1,0.8-1.9,1.8-1.9h5.6c1.1,0,1.8,0.9,1.8,1.9v9.2
				c0,1-0.8,1.9-1.8,1.9c-0.3,0-0.6,0.3-0.6,0.6v4.1l0,0c0.2,0.4,0.5,0.6,0.8,0.6c0.4,0,0.6-0.6,0.6-0.6v-3.8
				c1.4-0.3,2.4-1.5,2.4-3.1v-9.2C28.8,34.7,27.5,33.2,25.8,33.2z"/>
		</g>
	</g>
</g>
</svg>
