<?xml version="1.0" encoding="utf-8"?>
<!-- Generator: Adobe Illustrator 21.0.0, SVG Export Plug-In . SVG Version: 6.00 Build 0)  -->
<svg version="1.1" id="Capa_1" xmlns="http://www.w3.org/2000/svg" xmlns:xlink="http://www.w3.org/1999/xlink" x="0px" y="0px"
	 viewBox="0 0 70 70" style="enable-background:new 0 0 70 70;" xml:space="preserve">
<style type="text/css">
	.st0{fill:#F2F2F2;}
</style>
<g>
	<path id="XMLID_846_" class="st0" d="M44.5,56.5v-1.8h2.2c0.3,0,0.6-0.3,0.6-0.6s-0.3-0.6-0.6-0.6h-2.2v-2.9c3-0.3,5.4-2.9,5.4-6
		c0-3.3-2.7-6-6-6s-6,2.7-6,6c0,3.1,2.4,5.6,5.4,6v2.9h-2.2c-0.3,0-0.6,0.3-0.6,0.6s0.3,0.6,0.6,0.6h2.2v1.8c0,0.3,0.3,0.6,0.6,0.6
		S44.5,56.8,44.5,56.5z M39.1,44.5c0-2.6,2.1-4.7,4.7-4.7c2.6,0,4.7,2.1,4.7,4.7c0,2.6-2.1,4.7-4.7,4.7
		C41.3,49.3,39.1,47.2,39.1,44.5z"/>
	<g>
		<path class="st0" d="M24.5,25.8c0.4,0,0.8-0.1,1.3-0.1c3.2-0.7,5.2-3.9,4.5-7.1c-0.4-1.5-1.3-2.9-2.6-3.7
			c-1.3-0.8-2.9-1.1-4.5-0.8C20,14.8,18,18,18.7,21.2C19.3,24,21.7,25.8,24.5,25.8z M26.6,16.4c0.9,0.6,1.6,1.5,1.8,2.6
			c0.5,2.2-0.9,4.4-3.1,5c-2.2,0.5-4.4-0.9-5-3.1c-0.5-2.2,0.9-4.4,3.1-5c0.3-0.1,0.6-0.1,0.9-0.1C25.2,15.8,26,16,26.6,16.4z"/>
		<path class="st0" d="M28,27.2h-7.1c0,0-4.6,2.1-4.8,4.6v8.1c0.3,2.2,1.2,3.8,2.8,4.3l-3.3,10.2c-0.1,0.5,0.1,1,0.6,1.1
			c0.1,0,0.2,0.1,0.3,0.1c0.4,0,0.7-0.2,0.8-0.6l0.1-0.3L21,43.8c0.1-0.3,0.1-0.6-0.1-0.8c-0.1-0.2-0.4-0.4-0.7-0.4
			c-1.8,0-2-1.8-1.9-2.7v-8.1c0-1.5,2.7-2.5,2.7-2.5h7c0,0,2.7,1.1,2.8,2.5v8.1c-0.1,2.4-1.4,2.7-2.1,2.7c-0.3,0-0.6,0.1-0.7,0.4
			c-0.1,0.2-0.2,0.5-0.1,0.8l2.8,11l0.1,0.2c0.1,0.5,0.6,0.8,1.1,0.6c0.5-0.1,0.8-0.6,0.6-1.1l-2.7-10.2c1.6-0.5,2.7-2.1,3-4.3v-8.1
			C32.5,29.3,28,27.2,28,27.2z"/>
	</g>
</g>
</svg>
