<?xml version="1.0" encoding="utf-8"?>
<!-- Generator: Adobe Illustrator 21.0.0, SVG Export Plug-In . SVG Version: 6.00 Build 0)  -->
<svg version="1.1" id="Capa_1" xmlns="http://www.w3.org/2000/svg" xmlns:xlink="http://www.w3.org/1999/xlink" x="0px" y="0px"
	 viewBox="0 0 70 70" style="enable-background:new 0 0 70 70;" xml:space="preserve">
<style type="text/css">
	.st0{fill:#F2F2F2;}
</style>
<g id="XMLID_457_">
	<g id="XMLID_458_" transform="translate(0,-952.36218)">
		<path id="XMLID_459_" class="st0" d="M24.4,969.3c-0.8,0-1.4,0.7-1.4,1.5c0,0.8,0.7,1.4,1.5,1.3h6.5v4.9H13c0,0-0.1,0-0.1,0
			c-0.7,0.1-1.3,0.7-1.3,1.4v6.2c0,0.8,0.6,1.4,1.5,1.4h30.5v4.9c0,0.8,0.6,1.4,1.5,1.4h7.3c0.8,0,1.5-0.6,1.5-1.4v-9.4
			c0-2.5-2.2-4.5-4.8-4.5H34v-4.9h6.5c1,0,1.8-1,1.3-2.1c-0.2-0.5-0.7-0.7-1.3-0.7h0h-16C24.5,969.3,24.5,969.3,24.4,969.3z
			 M14.4,979.7h34.4c1.1,0,1.9,0.8,1.9,1.7v8h-4.4v-4.9c0-0.8-0.6-1.4-1.5-1.4H14.4V979.7z M48.3,994c-0.6,0.1-1,0.5-1.2,1.1
			c-0.4,1.6-1.7,3.4-3.1,5.4s-2.8,3.9-2.8,6.3c0,3.7,3.3,6.7,7.3,6.7s7.3-3,7.3-6.7c0-2.4-1.4-4.3-2.8-6.3s-2.7-3.8-3.1-5.4
			C49.8,994.4,49,993.9,48.3,994z M48.5,998.9c0.6,1.1,1.4,2.1,2.1,3c1.3,1.9,2.3,3.6,2.3,4.7c0,2.2-1.9,4-4.4,4s-4.4-1.8-4.4-4
			c0-1.1,1-2.9,2.3-4.7C47.1,1001,47.9,1000,48.5,998.9z"/>
	</g>
</g>
</svg>
