<?xml version="1.0" encoding="utf-8"?>
<!-- Generator: Adobe Illustrator 21.0.0, SVG Export Plug-In . SVG Version: 6.00 Build 0)  -->
<svg version="1.1" id="Capa_1" xmlns="http://www.w3.org/2000/svg" xmlns:xlink="http://www.w3.org/1999/xlink" x="0px" y="0px"
	 viewBox="0 0 70 70" style="enable-background:new 0 0 70 70;" xml:space="preserve">
<style type="text/css">
	.st0{fill:#F2F2F2;stroke:#F2F2F2;stroke-miterlimit:10;}
	.st1{fill:#F2F2F2;}
</style>
<g>
	<g id="XMLID_1_">
		<path id="XMLID_2_" class="st0" d="M34.3,34.1c2,0,3.5-1.6,3.5-3.5c0-2-1.6-3.5-3.5-3.5c-2,0-3.5,1.6-3.5,3.5
			C30.8,32.5,32.4,34.1,34.3,34.1z M34.3,27.8c1.5,0,2.7,1.2,2.7,2.7c0,1.5-1.2,2.7-2.7,2.7c-1.5,0-2.7-1.2-2.7-2.7
			C31.6,29.1,32.8,27.8,34.3,27.8z M35.6,35.4h-2.9c-1.4,0-2.5,1.1-2.5,2.5v5.5c0,1,0.7,1.9,1.7,2.3v3.7c0,0.9,0.7,1.6,1.6,1.6H35
			c0.9,0,1.6-0.7,1.6-1.6v-3.7c1-0.4,1.7-1.3,1.7-2.3v-5.5C38.2,36.5,37.1,35.4,35.6,35.4z M37.4,43.4c0,0.8-0.6,1.4-1.4,1.6
			c-0.2,0-0.3,0.2-0.3,0.4l0,4c0,0.4-0.4,0.8-0.8,0.8h-1.4c-0.4,0-0.8-0.3-0.8-0.8l0-4c0-0.2-0.1-0.4-0.3-0.4
			c-0.8-0.2-1.4-0.8-1.4-1.6v-5.5c0-0.9,0.7-1.7,1.7-1.7h3c0.9,0,1.7,0.7,1.7,1.7L37.4,43.4L37.4,43.4z"/>
	</g>
	<g>
		<g transform="translate(0,-952.36218)">
			<path class="st1" d="M34,969.7c-0.2,0-0.4,0.1-0.6,0.2l-19,15.4c-0.4,0.3-0.5,0.9-0.1,1.3c0.2,0.2,0.4,0.3,0.7,0.3h3.6v17.2
				c0,0.6,0.7,1.1,1.3,0.8c0.3-0.1,0.5-0.5,0.5-0.8l0,0V986c0-0.5-0.4-0.9-0.9-0.9h-2l17-13.7c0.4-0.3,0.5-0.9,0.2-1.3
				C34.6,969.9,34.3,969.7,34,969.7z M37.1,972.3c-0.5,0.1-0.9,0.5-0.8,1c0,0.2,0.1,0.5,0.3,0.6l13.8,11.2h-2
				c-0.5,0-0.9,0.4-0.9,0.9v17.2H23.2c-0.6,0-1.1,0.7-0.8,1.3c0.1,0.3,0.5,0.5,0.8,0.5h0h25.3c0.5,0,0.9-0.4,0.9-0.9v-17.2h3.6
				c0.3,0,0.6-0.1,0.8-0.4c0.3-0.4,0.2-0.9-0.2-1.2l-15.8-12.8C37.6,972.4,37.3,972.3,37.1,972.3z"/>
		</g>
	</g>
</g>
</svg>
