<?xml version="1.0" encoding="utf-8"?>
<!-- Generator: Adobe Illustrator 21.0.0, SVG Export Plug-In . SVG Version: 6.00 Build 0)  -->
<svg version="1.1" id="Capa_1" xmlns="http://www.w3.org/2000/svg" xmlns:xlink="http://www.w3.org/1999/xlink" x="0px" y="0px"
	 viewBox="0 0 70 70" style="enable-background:new 0 0 70 70;" xml:space="preserve">
<style type="text/css">
	.st0{fill:#F2F2F2;}
</style>
<g id="XMLID_3485_">
	<g id="XMLID_3486_">
		<path id="XMLID_3487_" class="st0" d="M20.2,25.6c2.8,0,5.1-2.3,5.1-5.1s-2.3-5.1-5.1-5.1s-5.1,2.3-5.1,5.1S17.4,25.6,20.2,25.6z
			 M20.2,17c2,0,3.6,1.6,3.6,3.6s-1.6,3.6-3.6,3.6s-3.6-1.6-3.6-3.6S18.2,17,20.2,17z"/>
		<path id="XMLID_3490_" class="st0" d="M15.2,44.3V52c0,1.7,1.4,3.1,3.1,3.1h3.9c1.7,0,3.1-1.4,3.1-3.1V36.8v-3.1h5.4
			c0.1,0,0.1,0,0.2,0c2.7-0.1,4.8-2.3,4.8-5v-1.4h-4.8H25h-6.7c-3.2,0-5.7,2.6-5.7,5.7v8.2C12.6,42.8,13.7,44.1,15.2,44.3z
			 M14.1,33.1c0-2.4,1.9-4.3,4.3-4.3h15.8c0,1.9-1.6,3.5-3.5,3.5h-6.9V52c0,0.9-0.7,1.6-1.6,1.6h-3.9c-0.9,0-1.6-0.7-1.6-1.6v-9.1
			h-1c-0.9,0-1.6-0.7-1.6-1.6L14.1,33.1L14.1,33.1z"/>
		<path id="XMLID_3493_" class="st0" d="M48.2,33.9h0.9v2.3c0,0.4,0.3,0.7,0.7,0.7c0.4,0,0.7-0.3,0.7-0.7v-2.3h0.9
			c1.4,0,2.5-0.9,2.5-2v-4.4c0-1.1-1.1-2-2.5-2h-3.2c-0.6,0-1.1-0.3-1.1-0.6v-4.5c0-0.2,0.4-0.6,1.1-0.6h3.2c0.6,0,1.1,0.3,1.1,0.6
			v1.2c0,0.4,0.3,0.7,0.7,0.7c0.4,0,0.7-0.3,0.7-0.7v-1.2c0-1.1-1.1-2-2.5-2h-0.9v-2c0-0.4-0.3-0.7-0.7-0.7c-0.4,0-0.7,0.3-0.7,0.7
			v2h-0.9c-1.4,0-2.5,0.9-2.5,2v4.5c0,1.1,1.1,2,2.5,2h3.2c0.6,0,1.1,0.3,1.1,0.6v4.4c0,0.2-0.4,0.6-1.1,0.6h-3.2
			c-0.6,0-1.1-0.3-1.1-0.6v-1.6c0-0.4-0.3-0.7-0.7-0.7c-0.4,0-0.7,0.3-0.7,0.7v1.6C45.7,33,46.8,33.9,48.2,33.9z"/>
		<path id="XMLID_3494_" class="st0" d="M29.5,44.4c-0.3-0.3-0.8-0.2-1,0.1c-0.3,0.3-0.2,0.8,0.1,1l9.4,7.8c0.1,0.1,0.3,0.2,0.5,0.2
			c0.2,0,0.4-0.1,0.5-0.2l10-9.9v3.4c0,0.4,0.3,0.7,0.7,0.7c0.4,0,0.7-0.3,0.7-0.7v-4.9c0-0.4-0.3-0.7-0.7-0.7h-0.3h0h-4.6
			c-0.4,0-0.7,0.3-0.7,0.7s0.3,0.7,0.7,0.7h2.8l-9.2,9.2L29.5,44.4z"/>
	</g>
</g>
</svg>
