<?xml version="1.0" encoding="utf-8"?>
<!-- Generator: Adobe Illustrator 21.0.0, SVG Export Plug-In . SVG Version: 6.00 Build 0)  -->
<svg version="1.1" id="Capa_1" xmlns="http://www.w3.org/2000/svg" xmlns:xlink="http://www.w3.org/1999/xlink" x="0px" y="0px"
	 viewBox="0 0 70 70" style="enable-background:new 0 0 70 70;" xml:space="preserve">
<style type="text/css">
	.st0{fill:#F2F2F2;}
</style>
<g>
	<g>
		<g>
			<path class="st0" d="M40.8,25.8c0.4,0,0.8-0.1,1.3-0.1c3.1-0.7,5.2-3.9,4.5-7.1c-0.4-1.5-1.3-2.9-2.6-3.7
				c-1.3-0.8-2.9-1.1-4.5-0.8c-3.2,0.7-5.2,3.9-4.5,7.1C35.7,24,38.2,25.8,40.8,25.8z M43.1,16.4c0.9,0.6,1.6,1.5,1.8,2.6l0,0
				c0.5,2.2-0.9,4.4-3.1,5c-2.2,0.5-4.4-0.9-5-3.1c-0.5-2.2,0.9-4.4,3.2-5c0.3-0.1,0.6-0.1,0.9-0.1C41.6,15.8,42.4,16,43.1,16.4z"/>
			<path class="st0" d="M45.2,27.2h-8.6c-2.5,0-4.5,2-4.5,4.5V45c0,2.2,1.5,4,3.5,4.4v5.4c0,0,0.5,0.9,1,0.9s1.1-0.9,1.1-0.9V55
				v-6.1c0-0.5-0.4-0.9-0.9-0.9c-1.5,0-2.6-1.3-2.6-2.7V32.1c0-1.5,1.2-2.7,2.6-2.7h8c1.5,0,2.6,1.3,2.6,2.7v13.2
				c0,1.5-1.2,2.7-2.6,2.7c-0.5,0-0.9,0.4-0.9,0.9v5.9l0,0c0.3,0.5,0.7,0.9,1.2,0.9s0.9-0.9,0.9-0.9v-5.4c2-0.4,3.5-2.2,3.5-4.4
				V31.8C49.5,29.3,47.6,27.2,45.2,27.2z"/>
		</g>
	</g>
</g>
<path class="st0" d="M18.6,28.8c-3.9,0-7.1,3.2-7.1,7.1c0,3.9,3.2,7.1,7.1,7.1s7.1-3.2,7.1-7.1C25.7,32,22.6,28.8,18.6,28.8z
	 M16.4,30.7c-0.4,0.5-0.7,1.1-0.9,1.8H14C14.6,31.7,15.4,31.1,16.4,30.7z M13.4,33.3h1.9c-0.2,0.7-0.3,1.5-0.3,2.4h-2.3
	C12.8,34.8,13,34,13.4,33.3z M13.3,38.8c-0.4-0.7-0.6-1.5-0.7-2.4H15c0,0.8,0.1,1.6,0.3,2.4H13.3z M14,39.6h1.5
	c0.2,0.7,0.6,1.4,0.9,1.9C15.4,41.1,14.6,40.4,14,39.6z M18.3,41.8c-0.7-0.3-1.3-1.1-1.7-2.2h1.7V41.8z M18.3,38.8L18.3,38.8h-2.2
	c-0.2-0.7-0.3-1.5-0.3-2.4h2.5L18.3,38.8L18.3,38.8z M18.3,35.7L18.3,35.7h-2.5c0-0.8,0.1-1.6,0.3-2.4h2.2L18.3,35.7L18.3,35.7z
	 M18.3,32.5L18.3,32.5h-1.7c0.4-1.1,1-2,1.7-2.2V32.5z M23.3,32.5h-1.5c-0.2-0.7-0.5-1.3-0.9-1.8C21.8,31.1,22.7,31.7,23.3,32.5z
	 M19.1,30.3c0.7,0.3,1.3,1.1,1.7,2.2h-1.7V30.3z M19.1,33.3h2.2c0.2,0.7,0.3,1.5,0.3,2.4h-2.5L19.1,33.3L19.1,33.3z M21.6,36.5
	c0,0.8-0.1,1.6-0.3,2.4h-2.2v-2.4H21.6z M19.1,41.8v-2.2h1.7C20.4,40.7,19.8,41.6,19.1,41.8z M20.9,41.5c0.4-0.5,0.7-1.1,0.9-1.9
	h1.5C22.7,40.4,21.8,41.1,20.9,41.5z M23.9,38.8h-2c0.2-0.7,0.3-1.5,0.3-2.4h2.3C24.5,37.3,24.3,38.1,23.9,38.8z M24.6,35.7h-2.3
	c0-0.8-0.1-1.6-0.3-2.4h1.9C24.3,34,24.5,34.8,24.6,35.7z"/>
</svg>
