<?xml version="1.0" encoding="utf-8"?>
<!-- Generator: Adobe Illustrator 21.0.0, SVG Export Plug-In . SVG Version: 6.00 Build 0)  -->
<svg version="1.1" id="Capa_1" xmlns="http://www.w3.org/2000/svg" xmlns:xlink="http://www.w3.org/1999/xlink" x="0px" y="0px"
	 viewBox="0 0 70 70" style="enable-background:new 0 0 70 70;" xml:space="preserve">
<style type="text/css">
	.st0{fill:#F2F2F2;}
</style>
<g>
	<g>
		<path class="st0" d="M34.1,22.5c-1.7,0-3,1.4-3,3c0,1.7,1.4,3,3,3s3-1.4,3-3C37.1,23.9,35.7,22.5,34.1,22.5z M34.1,27.6
			c-1.1,0-2.1-0.9-2.1-2.1c0-1.1,0.9-2.1,2.1-2.1c1.1,0,2.1,0.9,2.1,2.1C36.1,26.7,35.2,27.6,34.1,27.6z"/>
		<path class="st0" d="M25.9,27.2c-1.7,0-3,1.4-3,3c0,1.7,1.4,3,3,3c1.7,0,3-1.4,3-3C28.9,28.6,27.5,27.2,25.9,27.2z M25.9,32.3
			c-1.1,0-2.1-0.9-2.1-2.1c0-1.1,0.9-2.1,2.1-2.1s2.1,0.9,2.1,2.1S27,32.3,25.9,32.3z"/>
		<path class="st0" d="M42.3,33.3c1.7,0,3-1.4,3-3c0-1.7-1.4-3-3-3c-1.7,0-3,1.4-3,3C39.2,31.9,40.6,33.3,42.3,33.3z M42.3,28.2
			c1.1,0,2.1,0.9,2.1,2.1c0,1.1-0.9,2.1-2.1,2.1s-2.1-0.9-2.1-2.1C40.2,29.1,41.1,28.2,42.3,28.2z"/>
		<path class="st0" d="M12.9,43.2c0-0.3,0-0.7,0.2-1c0.5-1.3,1.8-2.2,3.2-2.2H19c0.2,0,0.4,0,0.6,0.1c1.7,0.4,2.7,1.7,2.7,3.1v4.7h1
			v-4.7c0-1.1-0.4-2.1-1.1-2.9c-0.3-0.3-0.5-0.5-0.9-0.7l0-0.4c0-0.3,0-0.6,0.1-0.9c0.4-1.4,1.7-2.2,2.9-2.2l3.1,0
			c0.5,0,0.9,0.1,1.4,0.3c1.2,0.5,1.9,1.7,1.9,2.9v0.3c-0.3,0.2-0.6,0.4-0.9,0.7c-0.7,0.8-1.1,1.8-1.1,2.9v4.7h1l0-5
			c0-0.1,0-0.1,0-0.2c0.3-1.6,1.8-2.7,3.3-2.7l2.9,0c0.1,0,0.1,0,0.2,0c1.8,0.3,2.9,1.7,2.9,3.2v4.7h0.5v-4.7c0-1.1-0.4-2.1-1.1-2.9
			c-0.3-0.3-0.5-0.5-0.9-0.7v-0.4c0-0.3,0-0.6,0.1-0.9c0.4-1.4,1.7-2.2,2.9-2.2h3.2c1.3,0,2.6,1,3,2.5c0,0.2,0.1,0.4,0.1,0.6l0,0.4
			c-0.3,0.2-0.6,0.4-0.9,0.7c-0.7,0.8-1.1,1.8-1.1,2.9v4.5h1l0-4.6c0-0.3,0-0.7,0.2-1c0.5-1.3,1.8-2.2,3.2-2.2l2.5,0
			c0.4,0,0.7,0,1.1,0.1c1.5,0.5,2.4,1.7,2.4,3v4.7h1l0-4.7c0-0.2,0-0.5-0.1-0.7c-0.4-2.1-2.3-3.4-4.2-3.4h-2.6
			c-0.4,0-0.8,0.1-1.2,0.2c0-1.1-0.4-2.1-1.2-2.8c-0.8-0.8-1.9-1.3-3.1-1.3h-2.9c-1.1,0-2.3,0.5-3.1,1.3c-0.8,0.8-1.2,1.7-1.2,2.8
			c-0.4-0.1-0.8-0.2-1.2-0.2h-2.6c-0.4,0-0.8,0.1-1.2,0.2c0-1.1-0.4-2.1-1.2-2.8c-0.8-0.8-1.9-1.3-3.1-1.3h-3.1
			c-1.1,0-2.3,0.5-3.1,1.3c-0.8,0.8-1.2,1.7-1.2,2.8c-0.4-0.1-0.8-0.2-1.2-0.2h-2.6c-1.1,0-2.3,0.5-3.1,1.3
			c-0.8,0.8-1.2,1.8-1.2,2.9v4.6h1V43.2z"/>
		<path class="st0" d="M17.7,37.3c1.7,0,3-1.4,3-3c0-1.7-1.4-3-3-3c-1.7,0-3,1.4-3,3C14.7,35.9,16,37.3,17.7,37.3z M17.7,32.2
			c1.1,0,2.1,0.9,2.1,2.1c0,1.1-0.9,2.1-2.1,2.1s-2.1-0.9-2.1-2.1C15.6,33.1,16.6,32.2,17.7,32.2z"/>
		<path class="st0" d="M34.1,31.2c-1.7,0-3,1.4-3,3c0,1.7,1.4,3,3,3c1.7,0,3-1.4,3-3C37.1,32.6,35.7,31.2,34.1,31.2z M34.1,36.3
			c-1.1,0-2.1-0.9-2.1-2.1c0-1.1,0.9-2.1,2.1-2.1c1.1,0,2.1,0.9,2.1,2.1C36.1,35.4,35.2,36.3,34.1,36.3z"/>
		<path class="st0" d="M50.4,37.3c1.7,0,3-1.4,3-3c0-1.7-1.4-3-3-3c-1.7,0-3,1.4-3,3C47.4,35.9,48.8,37.3,50.4,37.3z M50.4,32.2
			c1.1,0,2.1,0.9,2.1,2.1c0,1.1-0.9,2.1-2.1,2.1c-1.1,0-2.1-0.9-2.1-2.1C48.4,33.1,49.3,32.2,50.4,32.2z"/>
	</g>
</g>
</svg>
