<?xml version="1.0" encoding="utf-8"?>
<!-- Generator: Adobe Illustrator 21.0.0, SVG Export Plug-In . SVG Version: 6.00 Build 0)  -->
<svg version="1.1" id="Capa_1" xmlns="http://www.w3.org/2000/svg" xmlns:xlink="http://www.w3.org/1999/xlink" x="0px" y="0px"
	 viewBox="0 0 70 70" style="enable-background:new 0 0 70 70;" xml:space="preserve">
<style type="text/css">
	.st0{fill:#F2F2F2;}
</style>
<g>
	<g>
		<path class="st0" d="M24.5,24.8c0.4,0,0.8-0.1,1.3-0.1c3.2-0.7,5.2-3.9,4.5-7.1c-0.4-1.5-1.3-2.9-2.6-3.7
			c-1.3-0.8-2.9-1.1-4.5-0.8c-3.2,0.7-5.2,3.9-4.5,7.1C19.3,23,21.7,24.8,24.5,24.8z M26.6,15.4c0.9,0.6,1.6,1.5,1.8,2.6
			c0.5,2.2-0.9,4.4-3.1,5c-2.2,0.5-4.4-0.9-5-3.1c-0.5-2.2,0.9-4.4,3.1-5c0.3-0.1,0.6-0.1,0.9-0.1C25.2,14.8,26,15,26.6,15.4z"/>
		<path class="st0" d="M28,26.2h-7.1c0,0-4.6,2.1-4.8,4.6v8.1c0.3,2.2,1.2,3.8,2.8,4.3l-3.3,10.2c-0.1,0.5,0.1,1,0.6,1.1
			c0.1,0,0.2,0.1,0.3,0.1c0.4,0,0.7-0.2,0.8-0.6l0.1-0.3L21,42.8c0.1-0.3,0.1-0.6-0.1-0.8c-0.1-0.2-0.4-0.4-0.7-0.4
			c-1.8,0-2-1.8-1.9-2.7v-8.1c0-1.5,2.7-2.5,2.7-2.5H28c0,0,2.7,1.1,2.8,2.5v8.1c-0.1,2.4-1.4,2.7-2.1,2.7c-0.3,0-0.6,0.1-0.7,0.4
			c-0.1,0.2-0.2,0.5-0.1,0.8l2.8,11l0.1,0.2c0.1,0.5,0.6,0.8,1.1,0.6c0.5-0.1,0.8-0.6,0.6-1.1l-2.7-10.2c1.6-0.5,2.7-2.1,3-4.3v-8.1
			C32.5,28.3,28,26.2,28,26.2z"/>
	</g>
	<g>
		<g>
			<g>
				<g>
					<path class="st0" d="M44,56.2c6.2,0,11.3-5.1,11.3-11.3c0-6.2-5.1-11.3-11.3-11.3s-11.3,5.1-11.3,11.3
						C32.7,51.1,37.8,56.2,44,56.2z M44,35c5.5,0,9.9,4.5,9.9,9.9s-4.5,9.9-9.9,9.9s-9.9-4.5-9.9-9.9S38.5,35,44,35z"/>
				</g>
			</g>
		</g>
		<path class="st0" d="M42.9,50h0.3v1.5c0,0.3,0.2,0.6,0.5,0.7c0.5,0.2,1-0.2,1-0.7V50H45c1.1,0,2-0.7,2-1.6v-2.9
			c0-0.9-0.9-1.5-2-1.5h-2.1c-0.2,0-0.4-0.1-0.4-0.1v-2.7c0,0,0.2-0.1,0.4-0.1h2.2c0.2,0,0.4,0.1,0.4,0.1v0.7c0,0.3,0.2,0.6,0.5,0.7
			c0.5,0.2,1-0.2,1-0.7v-0.8c0-0.9-0.8-1.6-1.9-1.6h-0.3v-1.3c0-0.3-0.2-0.6-0.5-0.7c-0.5-0.2-1,0.2-1,0.7v1.3H43
			c-1.1,0-2,0.7-2,1.6V44c0,0.9,0.9,1.6,2,1.6h2.1c0.2,0,0.4,0.1,0.4,0.1v2.7c0,0-0.2,0.1-0.4,0.1h-1.1c0,0,0,0,0,0c0,0,0,0,0,0h-1
			c-0.2,0-0.4-0.1-0.4-0.1v-1c0-0.3-0.2-0.6-0.5-0.7c-0.5-0.2-1,0.2-1,0.7v1C41,49.3,41.8,50,42.9,50z"/>
	</g>
</g>
</svg>
