<?xml version="1.0" encoding="utf-8"?>
<!-- Generator: Adobe Illustrator 21.0.0, SVG Export Plug-In . SVG Version: 6.00 Build 0)  -->
<svg version="1.1" id="Capa_1" xmlns="http://www.w3.org/2000/svg" xmlns:xlink="http://www.w3.org/1999/xlink" x="0px" y="0px"
	 viewBox="0 0 70 70" style="enable-background:new 0 0 70 70;" xml:space="preserve">
<style type="text/css">
	.st0{fill:#F2F2F2;stroke:#F2F2F2;stroke-width:0.5;stroke-miterlimit:10;}
</style>
<g id="XMLID_56_">
	<g id="XMLID_57_" transform="translate(0,-952.36218)">
		<path id="XMLID_58_" class="st0" d="M32.4,966.4c-0.1,0-0.1,0-0.2,0l-19,7.6c-0.2,0-0.4,0.3-0.4,0.5v23.8c0,0.2,0.2,0.4,0.4,0.5
			l18.9,8.5c0.2,0.1,0.4,0.1,0.6,0l10.2-4.6c1.5,2,4.1,3.2,6.9,2.7c3-0.5,5.3-2.9,5.8-5.8c0.5-3.2-1.1-6.2-3.7-7.5v-17.5
			c0-0.2-0.2-0.5-0.4-0.5l-18.9-7.6C32.5,966.5,32.5,966.4,32.4,966.4L32.4,966.4z M32.6,967.4l17.8,7.1l-8.2,3.3l-17.8-7.1
			L32.6,967.4z M23.1,971.2l17.8,7.1l-8.2,3.3l-17.8-7.1L23.1,971.2z M13.8,975.2l18.1,7.2v23.7L13.8,998V975.2z M51,975.2v16.4
			c-0.7-0.3-1.5-0.4-2.4-0.4c-3.9,0-7.1,3.2-7.1,7.1c0,1.3,0.4,2.5,1,3.5l-9.5,4.3v-23.7l8.6-3.4v6.9c0,0.3,0.2,0.5,0.5,0.5
			s0.5-0.2,0.5-0.5v-7.3L51,975.2L51,975.2z M48.8,992.2c3.4,0,6.2,2.8,6.2,6.2c0,3.4-2.8,6.2-6.2,6.2s-6.2-2.8-6.2-6.2
			C42.6,994.9,45.4,992.2,48.8,992.2z M49.8,995.3c-0.1,0-0.2,0-0.3,0.1c-0.2,0.2-0.2,0.5,0,0.7l1.6,1.6h-5.5
			c-0.3,0-0.5,0.2-0.5,0.5c0,0.3,0.2,0.5,0.5,0.5H51l-1.6,1.6c-0.2,0.2-0.2,0.5,0,0.7c0.2,0.2,0.5,0.2,0.7,0
			c0.8-0.8,1.6-1.6,2.4-2.4c0.1-0.1,0.1-0.2,0.1-0.3s-0.1-0.2-0.1-0.3c-0.8-0.8-1.6-1.6-2.4-2.4C50,995.3,49.9,995.3,49.8,995.3
			L49.8,995.3z"/>
	</g>
</g>
</svg>
