<?xml version="1.0" encoding="utf-8"?>
<!-- Generator: Adobe Illustrator 21.0.0, SVG Export Plug-In . SVG Version: 6.00 Build 0)  -->
<svg version="1.1" id="Capa_1" xmlns="http://www.w3.org/2000/svg" xmlns:xlink="http://www.w3.org/1999/xlink" x="0px" y="0px"
	 viewBox="0 0 70 70" style="enable-background:new 0 0 70 70;" xml:space="preserve">
<style type="text/css">
	.st0{fill:#F2F2F2;}
</style>
<g>
	<title>Artboard 22</title>
	<path class="st0" d="M27.5,43.3v-1.9c0-2.7,2.2-4.9,4.9-4.9h3.1c2.7,0,4.9,2.2,4.9,4.9v1.9c0,0.4-0.3,0.7-0.7,0.7
		c-0.4,0-0.7-0.3-0.7-0.7v-1.9c0-1.9-1.6-3.5-3.5-3.5h-3.1c-1.9,0-3.5,1.6-3.5,3.5v1.9c0,0.4-0.3,0.7-0.7,0.7S27.5,43.7,27.5,43.3z
		 M30.7,32.6L30.5,31c-0.1-0.9,0.1-1.8,0.7-2.6c0.7-0.9,1.7-1.3,2.7-1.3l0.3,0c0.9,0,1.8,0.3,2.5,0.9c0.8,0.8,1.1,1.8,1,2.8
		l-0.2,1.6c-0.2,1.5-1.2,2.8-2.7,3.1C32.7,36,30.9,34.6,30.7,32.6z M31.9,30.8l0.2,1.6c0.1,0.9,0.7,1.6,1.5,1.8
		c1.2,0.3,2.3-0.6,2.4-1.7l0.2-1.7c0.1-1.1-0.7-2.1-1.8-2.2c-0.1,0-0.1,0-0.2,0l-0.3,0c-0.5,0-1,0.1-1.3,0.4
		C32.1,29.5,31.9,30.2,31.9,30.8z M57.8,44.4c0.4,0,0.7-0.3,0.7-0.7v-2c0-2.9-2.3-5.2-5.2-5.2h-3.5c-0.4,0-0.7,0.3-0.7,0.7
		s0.3,0.7,0.7,0.7h3.5c2.1,0,3.7,1.7,3.7,3.7v2C57,44.1,57.4,44.4,57.8,44.4z M54.3,28.3c0.6,0.7,0.9,1.6,0.8,2.6L55,32.4
		c-0.2,1.5-1.2,2.8-2.7,3c-2,0.4-3.8-1-4-2.9l-0.2-1.5c-0.1-0.9,0.1-1.8,0.7-2.5c0.7-0.9,1.7-1.3,2.6-1.3h0.3
		C52.7,27.2,53.6,27.6,54.3,28.3z M53.2,29.3c-0.4-0.6-0.9-0.9-1.4-0.7h-0.3c-1-0.1-1.9,0.7-1.9,1.7c0,0.1,0,0.1,0,0.2l0.2,1.6
		c0.1,1,1,1.8,2.1,1.7c0.9-0.1,1.6-0.8,1.7-1.7l0.2-1.6C53.7,30,53.6,29.5,53.2,29.3L53.2,29.3z M10.2,44.4c0.4,0,0.7-0.3,0.7-0.7
		v-2c0-2.1,1.7-3.7,3.7-3.7h3.5c0.4,0,0.7-0.3,0.7-0.7s-0.3-0.7-0.7-0.7h-3.5c-2.9,0-5.2,2.3-5.2,5.2v2C9.5,44.1,9.8,44.4,10.2,44.4
		z M13.2,32.2L13,30.8c-0.1-1,0.2-2,0.9-2.7c0.6-0.6,1.4-0.9,2.3-0.9l0.2,0c1,0,2,0.4,2.6,1.2c0.5,0.7,0.8,1.5,0.7,2.3L19.5,32
		c-0.2,1.6-1.4,3-3,3C14.8,35.1,13.4,33.9,13.2,32.2L13.2,32.2z M14.3,30.7l0.2,1.6c0.1,1,1,1.8,2.1,1.7c0.9-0.1,1.6-0.8,1.7-1.7
		l0.2-1.6c0.1-1-0.6-2-1.7-2.1c-0.1,0-0.1,0-0.2,0l-0.3,0c-0.5,0-1,0.2-1.4,0.5C14.4,29.6,14.3,30.1,14.3,30.7z M34,22.7
		c7.2,0,12.9,5.8,12.9,13c0,3.2-1.2,6.2-3.2,8.6l7.6,7.6c0.3,0.3,0.3,0.7,0.1,1c-0.3,0.3-0.7,0.3-1,0.1c0,0-0.1-0.1-0.1-0.1
		l-7.6-7.6c-5.3,4.8-13.5,4.4-18.3-0.9s-4.4-13.5,0.9-18.3C27.6,23.9,30.8,22.7,34,22.7z M22.5,35.7c0,6.4,5.2,11.5,11.5,11.5
		S45.5,42,45.5,35.7S40.4,24.1,34,24.1S22.5,29.3,22.5,35.7z"/>
</g>
</svg>
