<?xml version="1.0" encoding="utf-8"?>
<!-- Generator: Adobe Illustrator 21.0.0, SVG Export Plug-In . SVG Version: 6.00 Build 0)  -->
<svg version="1.1" id="Capa_1" xmlns="http://www.w3.org/2000/svg" xmlns:xlink="http://www.w3.org/1999/xlink" x="0px" y="0px"
	 viewBox="0 0 70 70" style="enable-background:new 0 0 70 70;" xml:space="preserve">
<style type="text/css">
	.st0{fill:#F2F2F2;}
</style>
<g>
	<path class="st0" d="M34.5,25.8c0.4,0,0.8-0.1,1.3-0.1c3.1-0.7,5.2-3.9,4.5-7.1c-0.3-1.5-1.3-2.9-2.6-3.7c-1.3-0.8-2.9-1.1-4.5-0.8
		c-3.1,0.7-5.2,3.9-4.5,7.1C29.3,24,31.7,25.8,34.5,25.8z M36.6,16.4c0.9,0.6,1.6,1.5,1.8,2.6c0.5,2.2-0.9,4.4-3.2,5
		c-2.2,0.5-4.4-0.9-5-3.1c-0.5-2.2,0.9-4.4,3.1-5c0.3-0.1,0.6-0.1,0.9-0.1C35.2,15.8,36,16,36.6,16.4z"/>
	<path class="st0" d="M38,27.2h-7.1c0,0-4.6,2.1-4.8,4.6v8.1c0.3,2.2,1.2,3.8,2.8,4.3l-3.3,10.2c-0.1,0.5,0.1,1,0.6,1.1
		c0.1,0,0.2,0.1,0.3,0.1c0.4,0,0.7-0.2,0.8-0.6l0.1-0.3L31,43.8c0.1-0.3,0.1-0.6-0.1-0.8c-0.1-0.2-0.4-0.4-0.7-0.4
		c-1.8,0-2-1.8-1.9-2.7v-8.1c0-1.5,2.7-2.5,2.7-2.5H38c0,0,2.7,1.1,2.8,2.5v8.1c-0.1,2.4-1.4,2.7-2.1,2.7c-0.3,0-0.6,0.1-0.7,0.4
		c-0.1,0.2-0.2,0.5-0.1,0.8l2.8,11l0.1,0.2c0.1,0.5,0.6,0.8,1.1,0.6c0.5-0.1,0.8-0.6,0.6-1.1l-2.7-10.2c1.6-0.5,2.7-2.1,3-4.3v-8.1
		C42.5,29.3,38,27.2,38,27.2z"/>
</g>
</svg>
