<?xml version="1.0" encoding="utf-8"?>
<!-- Generator: Adobe Illustrator 21.0.0, SVG Export Plug-In . SVG Version: 6.00 Build 0)  -->
<svg version="1.1" id="Capa_1" xmlns="http://www.w3.org/2000/svg" xmlns:xlink="http://www.w3.org/1999/xlink" x="0px" y="0px"
	 viewBox="0 0 70 70" style="enable-background:new 0 0 70 70;" xml:space="preserve">
<style type="text/css">
	.st0{fill:#F2F2F2;stroke:#F2F2F2;stroke-miterlimit:10;}
</style>
<g id="XMLID_398_">
	<path id="XMLID_399_" class="st0" d="M26.2,16.9C26.1,16.9,26.1,16.9,26.2,16.9c-0.3,0.1-0.5,0.3-0.5,0.6v1.7h-1.1
		c-1.5,0-2.8,1.2-2.8,2.8v2.3c-2.5,0.5-4.4,2.7-4.4,5.4c0,2.4,1.6,4.5,3.8,5.3c-2.2,0.7-3.8,2.8-3.8,5.3v15c0,0.3,0.2,0.6,0.6,0.6
		h10c0.3,0,0.6-0.2,0.6-0.6V42.9c0.6-0.2,6.9-1.9,9.6-2.7c0.7-0.2,1.3-0.5,1.8-0.9c0.7-0.6,1.1-1.6,0.7-2.8
		c-0.4-1.1-1.5-1.8-2.7-1.8H25.3c1.9-0.9,3.2-2.8,3.2-5c0-3.1-2.5-5.5-5.5-5.5v-2.2c0-0.9,0.7-1.7,1.7-1.7h24.4
		c0.9,0,1.7,0.7,1.7,1.7v14.4c0,0.9-0.7,1.7-1.7,1.7h-5.5c-0.3,0-0.6,0.2-0.6,0.5c0,0.3,0.2,0.6,0.5,0.6c0,0,0,0,0,0h5.5
		c1.5,0,2.8-1.2,2.8-2.8V21.9c0-1.5-1.2-2.8-2.8-2.8h-1.1v-1.7c0-0.3-0.2-0.6-0.5-0.6c0,0-0.1,0-0.1,0c-0.3,0.1-0.4,0.3-0.4,0.6v1.7
		h-20v-1.7C26.8,17.2,26.5,16.9,26.2,16.9C26.2,16.9,26.2,16.9,26.2,16.9z M22.8,25.5c2.5,0,4.4,2,4.4,4.4s-2,4.4-4.4,4.4
		s-4.4-2-4.4-4.4S20.3,25.5,22.8,25.5z M44.3,34.7c-0.3,0-0.5,0.3-0.5,0.6c0,0.3,0.3,0.5,0.6,0.5h3.3c0.3,0,0.6-0.2,0.6-0.5
		c0-0.3-0.2-0.6-0.5-0.6c0,0,0,0,0,0h-3.3C44.4,34.7,44.3,34.7,44.3,34.7C44.3,34.7,44.3,34.7,44.3,34.7z M22.9,35.8l15.1,0
		c0.9,0,1.7,0.7,1.7,1.6c0,0.5-0.1,0.8-0.5,1.1c-0.3,0.3-0.8,0.5-1.3,0.6c0,0,0,0,0,0c-2.8,0.8-10.1,2.8-10.1,2.8
		c-0.2,0.1-0.4,0.3-0.4,0.5v12.2h-8.9V40.2C18.4,37.8,20.4,35.8,22.9,35.8z"/>
</g>
</svg>
