<?xml version="1.0" encoding="utf-8"?>
<!-- Generator: Adobe Illustrator 21.0.0, SVG Export Plug-In . SVG Version: 6.00 Build 0)  -->
<svg version="1.1" id="Capa_1" xmlns="http://www.w3.org/2000/svg" xmlns:xlink="http://www.w3.org/1999/xlink" x="0px" y="0px"
	 viewBox="0 0 70 70" style="enable-background:new 0 0 70 70;" xml:space="preserve">
<style type="text/css">
	.st0{fill:#F2F2F2;}
</style>
<g>
	<title>Artboard 2</title>
	<path class="st0" d="M58.8,36.2c0.3-0.5,0.5-1.1,0.5-1.7c0.1-2.1-1.4-3.9-3.5-4.2l-6.7-0.9l-1.7-4.3c-0.1-0.3-0.3-0.6-0.5-0.9
		c3.8-0.3,6.6-3.8,6.2-7.6c-0.4-3.5-3.6-6.1-7.1-5.9c-3.9,0.2-6.8,3.5-6.4,7.4c0,0.2,0,0.4,0.1,0.6h0c-2.8-1.5-5.7-2.8-8.8-3.7
		l-0.8-0.2c-1.4-0.4-2.9-0.1-3.9,0.9l-6.4,6.3c-1.5,1.4-1.6,3.8-0.3,5.4c1.4,1.6,3.9,1.8,5.5,0.4c0.1-0.1,0.1-0.1,0.2-0.2l4.7-4.6
		l2.1,1.1l-3.7,5.6l0,0.1c-0.6,1-0.9,2.1-1.1,3.2l-7.3,6.6l-6.6-2.4c-2.2-0.8-4.6,0.2-5.6,2.2c-0.5,1.1-0.6,2.4-0.1,3.6
		C8,44.1,9,45,10.2,45.4l9.2,3.4c0.5,0.2,1,0.3,1.5,0.3c1.1,0,2.1-0.4,2.9-1.1l7.6-5.6l3.5,4.4l-4.2,9.1c-0.9,1.8-0.4,4,1.1,5.3
		c0.5,0.5,1.2,0.8,1.9,0.9c0.2,0,0.3,0.1,0.5,0.1c1.9,0.2,3.7-0.8,4.5-2.6L44,48c0.7-1.4,0.5-3.1-0.4-4.4l-3.7-7L42,33l0.7,1.5
		c0.5,1.2,1.5,2.1,2.8,2.4c0.1,0,0.2,0.1,0.4,0.1l4.2,0.6L47.4,42c-2.3,3.9-0.9,9,3,11.2c1.1,0.6,2.3,1,3.5,1.1c0.2,0,0.4,0,0.6,0
		c4.5,0,8.2-3.7,8.2-8.3c0-1.2-0.3-2.4-0.8-3.5L58.8,36.2z M22,45.5l-0.1,0.1c-0.4,0.3-0.9,0.5-1.4,0.4l-0.2-0.1l-9.2-3.4
		c-0.4-0.2-0.8-0.5-0.9-0.9c-0.2-0.4-0.2-0.9,0-1.3c0.4-0.7,1.3-1.1,2.1-0.8l7.4,2.7c0.5,0.2,1.1,0.1,1.4-0.3l6.3-5.8
		c0.3,1,0.8,1.9,1.5,2.8l0.7,0.9L22,45.5z M46.2,33.8c-0.3-0.1-0.6-0.3-0.8-0.7c0,0,0-0.1-0.1-0.1l-1.9-4c-0.3-0.7-1.2-1-1.9-0.7
		c-0.3,0.1-0.5,0.3-0.6,0.6l-3.8,6.7c-0.2,0.4-0.2,0.9,0,1.4l4.1,7.8c0,0.1,0.1,0.1,0.1,0.2c0.3,0.5,0.4,1.1,0.2,1.6l-5.4,11.7
		c-0.3,0.6-0.9,1-1.6,0.9l-0.2,0c-0.3-0.1-0.5-0.2-0.7-0.4c-0.5-0.5-0.7-1.3-0.3-2l4.5-10c0.2-0.5,0.2-1.1-0.2-1.5l-6.5-8.3
		c-1.4-1.8-1.6-4.3-0.4-6.3l4.5-6.9c0.4-0.7,0.2-1.5-0.4-2c0,0-0.1,0-0.1-0.1l-4.4-2.3c-0.5-0.3-1.2-0.2-1.7,0.2l-5.4,5.3
		c-0.3,0.3-0.6,0.4-1,0.3c-0.2,0-0.4-0.2-0.6-0.3c-0.4-0.5-0.3-1.1,0.1-1.5l6.4-6.4c0.3-0.3,0.7-0.4,1.1-0.2l0.8,0.2
		c2.9,0.9,5.7,2.1,8.3,3.5c1.3,0.7,2.8,0.4,3.8-0.6c0.5-0.5,0.7-1.3,0.5-2c-0.2-0.8-0.2-1.6,0.1-2.3c0.6-1.8,2.4-2.9,4.3-2.7
		c2.2,0.3,3.7,2.2,3.5,4.4c0,0.1,0,0.3-0.1,0.4c-0.4,2-2.3,3.3-4.3,3.1L45.6,21c-1.1-0.2-2.1,0.5-2.3,1.6c-0.1,0.6,0.1,1.2,0.5,1.7
		c0.4,0.5,0.8,1,1,1.6l2.1,5.1c0.2,0.5,0.6,0.8,1.1,0.9l7.5,1c0.6,0,1,0.5,1,1.1c0,0.3-0.2,0.6-0.4,0.7c-0.2,0.2-0.5,0.3-0.8,0.2
		l-9.1-1.2L46.2,33.8z M59,48.9c-1.7,2.5-5,3.1-7.5,1.5c-2.4-1.6-3.1-4.8-1.6-7.2l3.3-5.6l1.8,0.2c0.5,0.1,1.1,0,1.6-0.1l2.8,5.9
		C60.2,45.3,60.1,47.4,59,48.9z"/>
	<path class="st0" d="M8.6,25.4l5,0c0.7,0,1.3-0.4,1.4-1.1c0.2-0.9-0.5-1.8-1.4-1.8l-5,0c-0.7,0-1.3,0.4-1.4,1.1
		C7,24.6,7.7,25.4,8.6,25.4z"/>
	<path class="st0" d="M12.9,18.1l5,0c0.7,0,1.3-0.4,1.4-1.1c0.2-0.9-0.5-1.8-1.4-1.8l-5,0c-0.7,0-1.3,0.4-1.4,1.1
		C11.3,17.2,12,18.1,12.9,18.1z"/>
	<path class="st0" d="M13,33.4h4.9c0.7,0,1.3-0.4,1.4-1.1c0.2-0.9-0.5-1.8-1.4-1.8h-5.1c-0.9,0-1.6,0.8-1.4,1.8
		C11.7,33,12.3,33.4,13,33.4z"/>
</g>
</svg>
