<?xml version="1.0" encoding="utf-8"?>
<!-- Generator: Adobe Illustrator 21.0.0, SVG Export Plug-In . SVG Version: 6.00 Build 0)  -->
<svg version="1.1" id="Capa_1" xmlns="http://www.w3.org/2000/svg" xmlns:xlink="http://www.w3.org/1999/xlink" x="0px" y="0px"
	 viewBox="0 0 70 70" style="enable-background:new 0 0 70 70;" xml:space="preserve">
<style type="text/css">
	.st0{fill:#F2F2F2;}
</style>
<g>
	<path class="st0" d="M15.6,35.5h3.2V53c0,0.6,0.5,1.1,1.1,1.1H48c0.6,0,1.1-0.5,1.1-1.1V35.5h3.2c1,0,1.4-1.2,0.8-1.9L34.8,15.1
		c0,0-0.1-0.1-0.2-0.1c0,0,0,0-0.1,0c0,0-0.1,0-0.1,0c0,0-0.1,0-0.1,0c0,0,0,0-0.1,0c-0.1,0-0.3,0-0.4,0c0,0,0,0-0.1,0
		c0,0-0.1,0-0.1,0c0,0-0.1,0-0.1,0c0,0,0,0-0.1,0c0,0-0.1,0.1-0.2,0.1L14.9,33.7C14.2,34.4,14.7,35.5,15.6,35.5z M33.8,30
		c0.6,0,1.1,0.6,1.1,1.2v2.6c0,0.4,0.3,0.8,0.6,1c1.8,0.8,2.9,2.8,2.5,4.8c-0.4,1.9-2,3.3-3.9,3.5c-2.5,0.2-4.7-1.8-4.7-4.3
		c0-1.7,1-3.3,2.6-4c0.4-0.2,0.6-0.6,0.6-1v-2.6C32.7,30.6,33.2,30,33.8,30z M32.7,18.7v9.4c-1.3,0.5-2.2,1.7-2.2,3.1v1.9
		c-2.4,1.4-3.7,4.2-3.1,7.2c0.6,2.7,3,4.7,5.8,4.9c3.8,0.3,7-2.7,7-6.5c0-2.3-1.3-4.4-3.2-5.6v-1.9c0-1.4-0.9-2.6-2.2-3.1v-9.4
		l14.7,14.7H48c-0.6,0-1.1,0.5-1.1,1.1V52H21V34.5c0-0.6-0.5-1.1-1.1-1.1H18L32.7,18.7z"/>
	<path class="st0" d="M23.1,39.9h2.2c1.4,0,1.4-2.2,0-2.2h-2.2C21.7,37.7,21.7,39.9,23.1,39.9z"/>
	<path class="st0" d="M42.5,39.9h2.2c1.4,0,1.4-2.2,0-2.2h-2.2C41.1,37.7,41.1,39.9,42.5,39.9z"/>
	<path class="st0" d="M25.5,31.9l1.5,1.5c1,1,2.5-0.6,1.5-1.5L27,30.4C26,29.4,24.5,30.9,25.5,31.9z"/>
	<path class="st0" d="M39.2,45.6l1.5,1.5c1,1,2.5-0.6,1.5-1.5l-1.5-1.5C39.7,43.1,38.2,44.6,39.2,45.6z"/>
	<path class="st0" d="M27,47.1l1.5-1.5c1-1-0.6-2.5-1.5-1.5l-1.5,1.5C24.5,46.6,26,48.1,27,47.1z"/>
	<path class="st0" d="M40.7,33.4l1.5-1.5c1-1-0.6-2.5-1.5-1.5l-1.5,1.5C38.2,32.9,39.7,34.4,40.7,33.4z"/>
	<path class="st0" d="M34.9,49.5v-2.2c0-1.4-2.2-1.4-2.2,0v2.2C32.7,50.9,34.9,50.9,34.9,49.5z"/>
</g>
</svg>
