<svg xmlns="http://www.w3.org/2000/svg" width="50" height="50" viewBox="0 0 50 50">
    <path fill="#f2f2f2" d="M4.1 21.798l1.9.8v15.5c0 .5.3 1 .7 1.1.8.3 1.5-.3 1.5-1.1v-14.5l2.9 1.2v7.7c0 .4.3.8.7 1l12.9 5.6c.2.1.3.1.4.1.2 0 .3-.1.4-.1l12.9-5.6c.4-.2.7-.6.7-1v-7.7l6.8-3c.4-.2.7-.6.7-1s-.3-.8-.7-1l-20.4-9c-.3-.1-.6-.1-.9 0l-20.5 8.9c-.4.2-.7.6-.7 1s.3.9.7 1.1zm32.7 10l-11.7 5-11.8-5.1v-6l11.3 4.9c.2.1.3.1.4.1.1 0 .3-.1.4-.1l11.3-4.9c.1 0 .1 6.1.1 6.1zm-11.7-18.7l17.6 7.7-17.6 7.6-17.6-7.7z"/>
</svg>
