<svg xmlns="http://www.w3.org/2000/svg" width="40" height="50" viewBox="0 0 40 50">
    <path fill="#f2f2f2" d="M17.6 6.5c-2.7 0-4.801 2.1-4.801 4.8 0 2.7 2.1 4.8 4.8 4.8 2.7 0 4.8-2.2 4.8-4.8 0-2.6-2.1-4.8-4.8-4.8zm0 1.3c1.9 0 3.5 1.5 3.5 3.5s-1.5 3.5-3.5 3.5c-1.9 0-3.5-1.6-3.5-3.5s1.5-3.5 3.5-3.5zm-1.702 9.5c-3 0-5.398 2.401-5.398 5.401V30.5c0 1.4 1.098 2.6 2.398 2.8v7.3c0 1.6 1.301 2.9 2.801 2.9h3.7c1.6 0 2.9-1.3 2.9-2.9V39.7h6c.7 0 1.201-.601 1.201-1.201v-7c0-.7-.601-1.2-1.201-1.2h-3.5v-7.599c0-3-2.4-5.4-5.4-5.4zm-.1 1.3h3.5c2.3 0 4.1 1.801 4.1 4.101v7.6H18.7c-.7 0-1.199.599-1.199 1.199v7c0 .7.6 1.201 1.2 1.201h2.198v.899c0 .9-.7 1.601-1.6 1.601H15.6c-.9 0-1.6-.701-1.6-1.601V32h-.9c-.7.1-1.4-.6-1.4-1.5v-7.799c0-2.3 1.799-4.101 4.099-4.101zm3 12.9H28.2v6.9h-9.4z"/>
</svg>
