<?xml version="1.0" encoding="UTF-8" standalone="no"?>
<svg width="15px" height="28px" viewBox="0 0 15 28" version="1.1" xmlns="http://www.w3.org/2000/svg" xmlns:xlink="http://www.w3.org/1999/xlink">
    <!-- Generator: Sketch 47.1 (45422) - http://www.bohemiancoding.com/sketch -->
    <title>ico-careers-color</title>
    <desc>Created with Sketch.</desc>
    <defs></defs>
    <g id="iconos-navegacion-slides-ilustrados-home" stroke="none" stroke-width="1" fill="none" fill-rule="evenodd">
        <g id="iconos-slides-nav-home" transform="translate(-442.000000, -36.000000)">
            <g id="icons-type-profile-slides" transform="translate(61.000000, 34.000000)">
                <g id="ico-careers-color" transform="translate(381.000000, 2.000000)">
                    <path d="M3.6128,4.2295 C3.6128,2.8715 4.7188,1.7655 6.0778,1.7655 C7.4368,1.7655 8.5428,2.8715 8.5428,4.2295 C8.5428,5.5885 7.4368,6.6945 6.0778,6.6945 C4.7188,6.6945 3.6128,5.5885 3.6128,4.2295 M9.4758,4.2295 C9.4758,2.3565 7.9508,0.8325 6.0778,0.8325 C4.2038,0.8325 2.6798,2.3565 2.6798,4.2295 C2.6798,6.1025 4.2038,7.6265 6.0778,7.6265 C7.9508,7.6265 9.4758,6.1025 9.4758,4.2295" id="Fill-140" fill="#E5C38D" fill-rule="evenodd"></path>
                    <path d="M3.6128,4.2295 C3.6128,2.8715 4.7188,1.7655 6.0778,1.7655 C7.4368,1.7655 8.5428,2.8715 8.5428,4.2295 C8.5428,5.5885 7.4368,6.6945 6.0778,6.6945 C4.7188,6.6945 3.6128,5.5885 3.6128,4.2295 Z M9.4758,4.2295 C9.4758,2.3565 7.9508,0.8325 6.0778,0.8325 C4.2038,0.8325 2.6798,2.3565 2.6798,4.2295 C2.6798,6.1025 4.2038,7.6265 6.0778,7.6265 C7.9508,7.6265 9.4758,6.1025 9.4758,4.2295 Z" id="Stroke-142" stroke="#E5C38D" stroke-width="0.5"></path>
                    <path d="M1.8887,17.9414 L1.8887,12.3494 C1.8887,10.7364 3.2007,9.4234 4.8147,9.4234 L7.3397,9.4234 C8.9537,9.4234 10.2657,10.7364 10.2657,12.3494 L10.2657,17.7444 L6.9297,17.7444 C6.4367,17.7444 6.0367,18.1444 6.0367,18.6364 L6.0367,23.6284 C6.0367,24.1214 6.4367,24.5204 6.9297,24.5204 L8.5177,24.5204 L8.5177,25.1764 C8.5177,25.7884 8.0207,26.2864 7.4097,26.2864 L4.7457,26.2864 C4.1337,26.2864 3.6367,25.7884 3.6367,25.1764 L3.6367,19.0504 L2.9977,19.0504 C2.3867,19.0504 1.8887,18.5524 1.8887,17.9414 L1.8887,17.9414 Z M6.9697,23.5874 L13.6707,23.5874 L13.6707,18.6764 L6.9697,18.6764 L6.9697,23.5874 Z M4.7457,27.2184 L7.4097,27.2184 C8.5357,27.2184 9.4517,26.3024 9.4517,25.1764 L9.4517,24.5214 L13.7117,24.5214 C14.2037,24.5214 14.6037,24.1214 14.6037,23.6284 L14.6037,18.6364 C14.6037,18.1434 14.2037,17.7444 13.7117,17.7444 L11.1997,17.7444 L11.1997,12.3494 C11.1997,10.2214 9.4687,8.4904 7.3407,8.4904 L4.8147,8.4904 C2.6867,8.4904 0.9557,10.2214 0.9557,12.3494 L0.9557,17.9414 C0.9557,18.9674 1.7167,19.8194 2.7037,19.9624 L2.7037,25.1764 C2.7037,26.3024 3.6197,27.2184 4.7457,27.2184 L4.7457,27.2184 Z" id="Fill-144" fill="#E5C38D" fill-rule="evenodd"></path>
                    <path d="M1.8887,17.9414 L1.8887,12.3494 C1.8887,10.7364 3.2007,9.4234 4.8147,9.4234 L7.3397,9.4234 C8.9537,9.4234 10.2657,10.7364 10.2657,12.3494 L10.2657,17.7444 L6.9297,17.7444 C6.4367,17.7444 6.0367,18.1444 6.0367,18.6364 L6.0367,23.6284 C6.0367,24.1214 6.4367,24.5204 6.9297,24.5204 L8.5177,24.5204 L8.5177,25.1764 C8.5177,25.7884 8.0207,26.2864 7.4097,26.2864 L4.7457,26.2864 C4.1337,26.2864 3.6367,25.7884 3.6367,25.1764 L3.6367,19.0504 L2.9977,19.0504 C2.3867,19.0504 1.8887,18.5524 1.8887,17.9414 Z M6.9697,23.5874 L13.6707,23.5874 L13.6707,18.6764 L6.9697,18.6764 L6.9697,23.5874 Z M4.7457,27.2184 L7.4097,27.2184 C8.5357,27.2184 9.4517,26.3024 9.4517,25.1764 L9.4517,24.5214 L13.7117,24.5214 C14.2037,24.5214 14.6037,24.1214 14.6037,23.6284 L14.6037,18.6364 C14.6037,18.1434 14.2037,17.7444 13.7117,17.7444 L11.1997,17.7444 L11.1997,12.3494 C11.1997,10.2214 9.4687,8.4904 7.3407,8.4904 L4.8147,8.4904 C2.6867,8.4904 0.9557,10.2214 0.9557,12.3494 L0.9557,17.9414 C0.9557,18.9674 1.7167,19.8194 2.7037,19.9624 L2.7037,25.1764 C2.7037,26.3024 3.6197,27.2184 4.7457,27.2184 Z" id="Stroke-146" stroke="#E5C38D" stroke-width="0.5"></path>
                </g>
            </g>
        </g>
    </g>
</svg>