<?xml version="1.0" encoding="UTF-8" standalone="no"?>
<svg width="25px" height="25px" viewBox="0 0 25 25" version="1.1" xmlns="http://www.w3.org/2000/svg" xmlns:xlink="http://www.w3.org/1999/xlink">
    <!-- Generator: Sketch 42 (36781) - http://www.bohemiancoding.com/sketch -->
    <title>icon-location-blue</title>
    <desc>Created with Sketch.</desc>
    <defs></defs>
    <g id="buscador-detalle" stroke="none" stroke-width="1" fill="none" fill-rule="evenodd">
        <g id="home-buscador" transform="translate(-564.000000, -529.000000)">
            <g id="resultados-buscador" transform="translate(1.000000, 0.000000)">
                <g id="icon-location-blue" transform="translate(563.000000, 529.000000)">
                    <path d="M24.7832,12.4707 C24.7832,19.1647 19.3572,24.5907 12.6642,24.5907 C5.9702,24.5907 0.5442,19.1647 0.5442,12.4707 C0.5442,5.7777 5.9702,0.3517 12.6642,0.3517 C19.3572,0.3517 24.7832,5.7777 24.7832,12.4707" id="Fill-925" fill="#708BBB"></path>
                    <path d="M12.6504,12.8809 C12.1994,12.8809 11.8404,12.5229 11.8404,12.0709 C11.8404,11.6209 12.1994,11.2629 12.6504,11.2629 C13.1014,11.2629 13.4604,11.6209 13.4604,12.0709 C13.4604,12.5229 13.0874,12.8809 12.6504,12.8809 M12.6504,10.2149 C11.6294,10.2149 10.7934,11.0509 10.7934,12.0709 C10.7934,13.0929 11.6294,13.9289 12.6504,13.9289 C13.6714,13.9289 14.5074,13.0929 14.5074,12.0709 C14.5074,11.0509 13.6714,10.2149 12.6504,10.2149" id="Fill-926" fill="#FFFFFF"></path>
                    <path d="M15.1973,14.3135 L12.6503,16.8735 L10.1033,14.3135 C9.5593,13.6895 9.2553,12.8935 9.2553,12.0715 C9.2553,10.2015 10.7803,8.6755 12.6503,8.6755 C14.5203,8.6755 16.0463,10.2015 16.0463,12.0715 C16.0463,12.8935 15.7413,13.6895 15.1973,14.3135 M12.6503,7.6275 C10.1963,7.6275 8.2073,9.6185 8.2073,12.0715 C8.2073,13.1595 8.6043,14.2075 9.3343,15.0165 C9.3473,15.0295 9.3473,15.0295 9.3603,15.0425 L12.2923,17.9745 C12.3843,18.0675 12.5173,18.1335 12.6643,18.1335 C12.7963,18.1335 12.9283,18.0805 13.0353,17.9745 L15.9673,15.0425 C15.9793,15.0295 15.9793,15.0295 15.9933,15.0165 C16.7223,14.2075 17.1203,13.1595 17.1203,12.0715 C17.0813,9.6185 15.0913,7.6275 12.6503,7.6275" id="Fill-927" fill="#FFFFFF"></path>
                </g>
            </g>
        </g>
    </g>
</svg>