<?xml version="1.0" encoding="UTF-8" standalone="no"?>
<svg width="22px" height="12px" viewBox="0 0 22 12" version="1.1" xmlns="http://www.w3.org/2000/svg" xmlns:xlink="http://www.w3.org/1999/xlink">
    <!-- Generator: Sketch 47 (45396) - http://www.bohemiancoding.com/sketch -->
    <title>icon-perfil-institucion-nav</title>
    <desc>Created with Sketch.</desc>
    <defs></defs>
    <g id="home-geo" stroke="none" stroke-width="1" fill="none" fill-rule="evenodd">
        <g transform="translate(-1000.000000, -803.000000)" id="navegacion-slides" fill="#7777ED">
            <g transform="translate(218.000000, 757.000000)">
                <g id="icon-perfil-institucion-nav" transform="translate(782.000000, 46.000000)">
                    <path d="M19.6074,7.5801 C19.7274,7.5801 19.7954,7.6661 19.7954,7.7681 C19.7954,7.8891 19.7264,7.9751 19.6074,7.9751 C19.5034,7.9751 19.4194,7.8891 19.4194,7.7681 C19.4194,7.6661 19.5034,7.5801 19.6074,7.5801 L19.6074,7.5801 Z M16.3324,6.5091 L16.3324,9.9841 C15.7394,9.5771 15.0274,9.3401 14.2644,9.3401 C12.9594,9.3401 11.8404,10.0341 11.1784,11.0691 C10.5174,10.0351 9.3994,9.3401 8.0934,9.3401 C7.3314,9.3401 6.6204,9.5771 6.0434,9.9841 L6.0434,6.5091 L10.3484,7.9831 C10.8404,8.1531 11.5184,8.1531 12.0094,7.9831 L16.3324,6.5091 Z M11.1874,1.2191 C11.4444,1.2191 11.7024,1.2531 11.8734,1.3051 L20.8594,4.3741 C20.9104,4.3911 20.9274,4.4081 20.9444,4.4251 C20.9274,4.4421 20.9104,4.4591 20.8594,4.4761 L16.6064,5.9341 C16.5724,5.9341 16.5204,5.9341 16.5034,5.9691 L11.8744,7.5461 C11.5304,7.6661 10.8444,7.6661 10.5024,7.5461 L5.8724,5.9511 C5.8374,5.9511 5.8214,5.9341 5.8034,5.9341 L1.5164,4.4761 C1.4644,4.4591 1.4474,4.4421 1.4304,4.4251 C1.4474,4.4081 1.4644,4.3911 1.5164,4.3741 L10.5024,1.3041 C10.6724,1.2531 10.9304,1.2191 11.1874,1.2191 L11.1874,1.2191 Z M11.1204,0.7881 C10.8324,0.7881 10.5444,0.8221 10.2904,0.9071 L1.4124,3.9401 C1.2934,3.9911 1.1914,4.0421 1.1064,4.1091 C1.0224,4.1781 0.9544,4.2791 0.9544,4.4141 C0.9544,4.5501 1.0224,4.6521 1.1064,4.7201 C1.1914,4.7871 1.2934,4.8381 1.4124,4.8891 L5.5294,6.2951 L5.5294,10.4441 C5.5294,10.6491 5.7694,10.7521 5.9064,10.6151 C6.4894,10.1011 7.2264,9.8091 8.0664,9.8091 C9.3364,9.8091 10.4334,10.5291 10.9824,11.6091 C11.0674,11.7651 11.3074,11.7651 11.3934,11.6091 C11.9424,10.5291 13.0394,9.8091 14.3084,9.8091 C15.1484,9.8091 15.8854,10.1181 16.4684,10.6151 C16.6234,10.7521 16.8464,10.6491 16.8464,10.4441 L16.8464,6.3341 L19.4194,5.4481 L19.4194,7.1691 L18.9044,7.7181 L18.9044,7.7681 L18.9044,8.7981 C18.9554,9.1061 19.4354,9.1061 19.4184,8.7981 L19.4184,8.3861 C19.4874,8.4031 19.5384,8.4211 19.6074,8.4211 C19.6754,8.4211 19.6754,8.3861 19.6754,8.3861 L19.6754,8.7981 L20.1904,8.7981 L20.1904,7.7681 L20.1904,7.7181 C20.2414,7.4771 19.6754,7.1691 19.6754,7.1691 L19.6754,5.2781 L20.8284,4.8891 C20.9464,4.8381 21.0474,4.7871 21.1324,4.7201 C21.2174,4.6521 21.2864,4.5501 21.2864,4.4141 C21.2864,4.2781 21.2174,4.1771 21.1324,4.1091 C21.0474,4.0421 20.9464,3.9911 20.8284,3.9401 L11.9504,0.9071 C11.6964,0.8221 11.4084,0.7881 11.1204,0.7881 L11.1204,0.7881 Z" id="Fill-1016"></path>
                </g>
            </g>
        </g>
    </g>
</svg>