<?xml version="1.0" encoding="utf-8"?>
<!-- Generator: Adobe Illustrator 21.0.0, SVG Export Plug-In . SVG Version: 6.00 Build 0)  -->
<svg version="1.1" id="Capa_1" xmlns="http://www.w3.org/2000/svg" xmlns:xlink="http://www.w3.org/1999/xlink" x="0px" y="0px"
	 viewBox="0 0 50 50" style="enable-background:new 0 0 50 50;" xml:space="preserve">
<style type="text/css">
	.st0{fill:#CACACA;}
</style>
<path class="st0" d="M16,29.8h18.1c0.6,0,1.2-0.5,1.2-1.2s-0.5-1.2-1.2-1.2H16c-0.6,0-1.2,0.5-1.2,1.2S15.3,29.8,16,29.8z M16,16.4
	h18.1c0.6,0,1.2-0.5,1.2-1.2s-0.5-1.2-1.2-1.2H16c-0.6,0-1.2,0.5-1.2,1.2S15.3,16.4,16,16.4z M16,23.1h18.1c0.6,0,1.2-0.5,1.2-1.2
	s-0.5-1.2-1.2-1.2H16c-0.6,0-1.2,0.5-1.2,1.2S15.3,23.1,16,23.1z M16,36.5h18.1c0.6,0,1.2-0.5,1.2-1.2s-0.5-1.2-1.2-1.2H16
	c-0.6,0-1.2,0.5-1.2,1.2S15.3,36.5,16,36.5z M38.5,8.3h-27c-0.6,0-1.2,0.5-1.2,1.2v31.6c0,0.6,0.5,1.2,1.2,1.2h27
	c0.6,0,1.2-0.5,1.2-1.2V9.5C39.7,8.8,39.2,8.3,38.5,8.3z M37.3,39.9H12.7V10.7h24.6V39.9z"/>
</svg>
