<?xml version="1.0" encoding="UTF-8" standalone="no"?>
<svg width="12px" height="13px" viewBox="0 0 12 13" version="1.1" xmlns="http://www.w3.org/2000/svg" xmlns:xlink="http://www.w3.org/1999/xlink">
    <!-- Generator: Sketch 43.1 (39012) - http://www.bohemiancoding.com/sketch -->
    <title>icon-source</title>
    <desc>Created with Sketch.</desc>
    <defs></defs>
    <g id="Detalle-selector-location" stroke="none" stroke-width="1" fill="none" fill-rule="evenodd">
        <g id="perfil-comuna-detalle-selector" transform="translate(-116.000000, -856.000000)" fill="#708BBB">
            <g id="data-perfil-comuna" transform="translate(110.000000, 282.000000)">
                <g id="Page-1" transform="translate(6.000000, 574.000000)">
                    <g id="icon-source">
                        <path d="M1.008,11.0882 L8.064,11.0882 L8.064,3.0242 L1.008,3.0242 L1.008,11.0882 Z M8.568,12.0962 L0.504,12.0962 C0.227,12.0962 0,11.8692 0,11.5922 L0,2.5192 C0,2.2422 0.227,2.0162 0.504,2.0162 L8.568,2.0162 C8.845,2.0162 9.072,2.2422 9.072,2.5192 L9.072,11.5922 C9.072,11.8692 8.845,12.0962 8.568,12.0962 L8.568,12.0962 Z" id="Fill-1"></path>
                        <path d="M10.0801,9.6017 L10.0801,1.0077 L2.4941,1.0077 C2.2741,1.0077 2.0621,0.8797 1.9931,0.6707 C1.8781,0.3247 2.1381,-0.0003 2.4701,-0.0003 L10.5841,-0.0003 C10.8611,-0.0003 11.0881,0.2267 11.0881,0.5037 L11.0881,9.6257 C11.0881,9.9577 10.7641,10.2167 10.4161,10.1027 C10.2071,10.0347 10.0801,9.8217 10.0801,9.6017" id="Fill-3"></path>
                    </g>
                </g>
            </g>
        </g>
    </g>
</svg>