<?xml version="1.0" encoding="UTF-8" standalone="no"?>
<svg width="12px" height="22px" viewBox="0 0 12 22" version="1.1" xmlns="http://www.w3.org/2000/svg" xmlns:xlink="http://www.w3.org/1999/xlink">
    <!-- Generator: Sketch 47 (45396) - http://www.bohemiancoding.com/sketch -->
    <title>icon-perfil-carreras</title>
    <desc>Created with Sketch.</desc>
    <defs></defs>
    <g id="home-geo" stroke="none" stroke-width="1" fill="none" fill-rule="evenodd">
        <g transform="translate(-741.000000, -800.000000)" id="navegacion-slides" fill="#E5C38D">
            <g transform="translate(218.000000, 757.000000)">
                <g id="icon-perfil-carreras" transform="translate(523.000000, 43.000000)">
                    <g id="Group">
                        <path d="M2.168,3.2793 C2.168,4.3803 3.064,5.2753 4.165,5.2753 C5.266,5.2753 6.161,4.3803 6.161,3.2793 C6.161,2.1773 5.266,1.2833 4.165,1.2833 C3.064,1.2833 2.168,2.1773 2.168,3.2793 Z M6.917,3.2793 C6.917,4.7963 5.683,6.0313 4.165,6.0313 C2.647,6.0313 1.412,4.7963 1.412,3.2793 C1.412,1.7613 2.647,0.5273 4.165,0.5273 C5.683,0.5273 6.917,1.7613 6.917,3.2793 Z" id="Fill-17"></path>
                        <path d="M0.7715,14.3857 L0.7715,9.8557 C0.7715,8.5487 1.8345,7.4867 3.1415,7.4867 L5.1875,7.4867 C6.4945,7.4867 7.5575,8.5487 7.5575,9.8557 L7.5575,14.2257 L4.8545,14.2257 C4.4565,14.2257 4.1315,14.5497 4.1315,14.9477 L4.1315,18.9917 C4.1315,19.3907 4.4565,19.7147 4.8545,19.7147 L6.1415,19.7147 L6.1415,20.2457 C6.1415,20.7407 5.7385,21.1447 5.2435,21.1447 L3.0855,21.1447 C2.5895,21.1447 2.1875,20.7407 2.1875,20.2457 L2.1875,15.2837 L1.6695,15.2837 C1.1745,15.2837 0.7715,14.8807 0.7715,14.3857 L0.7715,14.3857 Z M4.8875,18.9587 L10.3155,18.9587 L10.3155,14.9807 L4.8875,14.9807 L4.8875,18.9587 Z M3.0855,21.9007 L5.2435,21.9007 C6.1555,21.9007 6.8975,21.1577 6.8975,20.2457 L6.8975,19.7147 L10.3475,19.7147 C10.7475,19.7147 11.0715,19.3907 11.0715,18.9917 L11.0715,14.9477 C11.0715,14.5497 10.7475,14.2257 10.3475,14.2257 L8.3135,14.2257 L8.3135,9.8557 C8.3135,8.1327 6.9115,6.7307 5.1875,6.7307 L3.1415,6.7307 C1.4175,6.7307 0.0165,8.1327 0.0165,9.8557 L0.0165,14.3857 C0.0165,15.2167 0.6315,15.9067 1.4315,16.0227 L1.4315,20.2457 C1.4315,21.1577 2.1735,21.9007 3.0855,21.9007 L3.0855,21.9007 Z" id="Fill-19"></path>
                    </g>
                </g>
            </g>
        </g>
    </g>
</svg>