<?xml version="1.0" encoding="utf-8"?>
<!-- Generator: Adobe Illustrator 21.0.0, SVG Export Plug-In . SVG Version: 6.00 Build 0)  -->
<svg version="1.1" id="Capa_1" xmlns="http://www.w3.org/2000/svg" xmlns:xlink="http://www.w3.org/1999/xlink" x="0px" y="0px"
	 viewBox="0 0 40 40" style="enable-background:new 0 0 40 40;" xml:space="preserve">
<style type="text/css">
	.st0{display:none;}
	.st1{display:inline;fill:#B0B0B0;}
	.st2{fill:#B0B0B0;}
</style>
<g>
	<g>
		<g class="st0">
			<path class="st1" d="M13.1,10.2v16.4c0,2.2,1.7,3.9,3.9,3.9h6.2c2.2,0,3.9-1.7,3.9-3.9V10.2H13.1z M23.3,28.9H17
				c-1.3,0-2.3-1-2.3-2.3V11.7h10.9v14.8C25.6,27.8,24.5,28.9,23.3,28.9z M16.2,20.1c0-0.4,0.3-0.8,0.8-0.8c0.4,0,0.8,0.3,0.8,0.8
				c0,0.4-0.3,0.8-0.8,0.8C16.6,20.8,16.2,20.5,16.2,20.1z M20.9,20.1c0,0.4-0.3,0.8-0.8,0.8c-0.4,0-0.8-0.3-0.8-0.8
				c0-0.4,0.3-0.8,0.8-0.8C20.6,19.3,20.9,19.6,20.9,20.1z M24,20.1c0,0.4-0.3,0.8-0.8,0.8c-0.4,0-0.8-0.3-0.8-0.8
				c0-0.4,0.3-0.8,0.8-0.8C23.7,19.3,24,19.6,24,20.1z M16.2,23.2c0-0.4,0.3-0.8,0.8-0.8c0.4,0,0.8,0.3,0.8,0.8
				c0,0.4-0.3,0.8-0.8,0.8C16.6,24,16.2,23.6,16.2,23.2z M20.9,23.2c0,0.4-0.3,0.8-0.8,0.8c-0.4,0-0.8-0.3-0.8-0.8
				c0-0.4,0.3-0.8,0.8-0.8C20.6,22.4,20.9,22.7,20.9,23.2z M24,23.2v3.1c0,0.4-0.3,0.8-0.8,0.8c-0.4,0-0.8-0.3-0.8-0.8v-3.1
				c0-0.4,0.3-0.8,0.8-0.8C23.7,22.4,24,22.7,24,23.2z M16.2,26.3c0-0.4,0.3-0.8,0.8-0.8c0.4,0,0.8,0.3,0.8,0.8
				c0,0.4-0.3,0.8-0.8,0.8C16.6,27.1,16.2,26.7,16.2,26.3z M20.9,26.3c0,0.4-0.3,0.8-0.8,0.8c-0.4,0-0.8-0.3-0.8-0.8
				c0-0.4,0.3-0.8,0.8-0.8C20.6,25.5,20.9,25.9,20.9,26.3z M24,13.3h-7.8v4.7H24V13.3z M22.5,16.4h-4.7v-1.6h4.7V16.4z"/>
		</g>
		<g class="st0">
			<path class="st1" d="M28.7,10.2H11.6c-1.7,0-3.1,1.4-3.1,3.1v12.1v1.6c0,1.9,1.6,3.5,3.5,3.5h16.8c1.7,0,3.1-1.4,3.1-3.1v-1.9
				V13.3C31.8,11.5,30.4,10.2,28.7,10.2z M28.7,28.9H11.6c-0.9,0-1.6-0.8-1.6-1.6h20.3C30.3,28.1,29.6,28.9,28.7,28.9z M30.3,25.7
				H10V13.3c0-0.9,0.7-1.6,1.6-1.6h17.1c0.9,0,1.6,0.7,1.6,1.6V25.7z M27.9,13.3H12.3c-0.4,0-0.8,0.3-0.8,0.8v10.1h17.1V14
				C28.7,13.6,28.4,13.3,27.9,13.3z M27.2,22.6h-14v-7.8h14V22.6z"/>
		</g>
		<g class="st0">
			<path class="st1" d="M26.4,24.7c0,0.4-0.3,0.8-0.8,0.8c-0.4,0-0.8-0.3-0.8-0.8c0-0.4,0.3-0.8,0.8-0.8C26,24,26.4,24.3,26.4,24.7z
				 M29.5,28.9V14h-1.6v14.8c0,1.3-1,2.3-2.3,2.3H14.7c-1.3,0-2.3-1-2.3-2.3V14h-1.6v14.8c0,2.2,1.7,3.9,3.9,3.9h10.9
				C27.7,32.7,29.5,31,29.5,28.9z M26.4,20.3H13.9v-4.7h12.5V20.3z M15.5,18.7h9.4v-1.6h-9.4V18.7z M31,12.5h-1.6V9.4H10.8v3.1H9.2
				V7.8H31V12.5z M31,12.5H9.2V14H31V12.5z"/>
		</g>
		<g class="st0">
			<path class="st1" d="M20.1,13.5l1.7,4.4l0.4,1l1,0l4.3,0.2l-3.7,2.9L23,22.6l0.4,1.1l1.4,3.9L21,25l-0.9-0.6L19.2,25l-3.7,2.6
				l1.4-3.9l0.4-1.1l-0.9-0.7l-3.7-2.9l4.3-0.2l1,0l0.4-1L20.1,13.5 M20.1,9.1L17,17.3l-8.6,0.4l7,5.5l-3.1,8.6l7.8-5.5l7.8,5.5
				l-3.1-8.6l7-5.5l-8.6-0.4L20.1,9.1L20.1,9.1z"/>
		</g>
		<g class="st0">
			<path class="st1" d="M21.5,24.6l-0.9-1.3c1.1-0.7,1.8-1.9,1.8-3.3s-0.7-2.6-1.8-3.3l0.9-1.3c1.5,1,2.5,2.7,2.5,4.6
				S23,23.7,21.5,24.6z M24.9,10.3l-0.8,1.3c2.8,1.8,4.6,4.9,4.6,8.5s-1.8,6.7-4.6,8.5l0.8,1.3c3.2-2.1,5.3-5.7,5.3-9.8
				S28.1,12.4,24.9,10.3z M27.2,20.1c0-3-1.6-5.6-3.9-7.2l-0.8,1.3c1.9,1.3,3.2,3.4,3.2,5.9s-1.3,4.6-3.2,5.9l0.8,1.3
				C25.6,25.7,27.2,23.1,27.2,20.1z M14.5,17.2l4.1-2.3v10.9l-4.1-2.3H10v-6.2H14.5z M11.6,21.8h1.6v-3.1h-1.6V21.8z M17,17.1
				l-2.3,1.5v2.9l2.3,1.3V17.1z"/>
		</g>
		<g class="st0">
			<path class="st1" d="M27.2,20.1c0,1.9-1,3.6-2.5,4.6l-0.9-1.3c1.1-0.7,1.8-1.9,1.8-3.3s-0.7-2.6-1.8-3.3l0.9-1.3
				C26.2,16.5,27.2,18.1,27.2,20.1z M17.6,17.2l4.1-2.3v10.9l-4.1-2.3h-4.5v-6.2H17.6z M14.7,21.8h1.6v-3.1h-1.6V21.8z M20.1,17.1
				l-2.3,1.5v2.9l2.3,1.3V17.1z"/>
		</g>
		<g class="st0">
			<path class="st1" d="M23.1,24.6l-0.9-1.3c1.1-0.7,1.8-1.9,1.8-3.3s-0.7-2.6-1.8-3.3l0.9-1.3c1.5,1,2.5,2.7,2.5,4.6
				S24.6,23.7,23.1,24.6z M24.8,12.9L24,14.2c1.9,1.3,3.2,3.4,3.2,5.9s-1.3,4.6-3.2,5.9l0.8,1.3c2.3-1.5,3.9-4.2,3.9-7.2
				S27.2,14.4,24.8,12.9z M16,17.2l4.1-2.3v10.9L16,23.4h-4.5v-6.2H16z M13.1,21.8h1.6v-3.1h-1.6V21.8z M18.6,17.1l-2.3,1.5v2.9
				l2.3,1.3V17.1z"/>
		</g>
		<g class="st0">
			<path class="st1" d="M24.8,11.7v-0.8h-1.6v0.8H17v-0.8h-1.6v0.8h-4.7v14c0,2.2,1.7,3.9,3.9,3.9h10.9c2.2,0,3.9-1.7,3.9-3.9v-14
				H24.8z M15.5,13.3v1.6H17v-1.6h6.2v1.6h1.6v-1.6h3.1v3.1H12.3v-3.1H15.5z M25.6,28.1H14.7c-1.3,0-2.3-1-2.3-2.3v-7.8h15.6v7.8
				C27.9,27,26.9,28.1,25.6,28.1z M17,19.5h2.3v7h-1.6v-5.5H17V19.5z M20.9,19.5h2.3v7h-1.6v-5.5h-0.8V19.5z"/>
		</g>
		<g class="st0">
			<path class="st1" d="M28.7,9.4H11.6c-2.2,0-3.9,1.7-3.9,3.9v10.9c0,2.2,1.7,3.9,3.9,3.9h4.7v1.6h-1.6v1.6h10.9v-1.6H24v-1.6h4.7
				c2.2,0,3.9-1.7,3.9-3.9V13.3C32.6,11.1,30.9,9.4,28.7,9.4z M11.6,10.9h17.1c1.3,0,2.3,1,2.3,2.3v8.6H9.2v-8.6
				C9.2,12,10.3,10.9,11.6,10.9z M22.5,29.6h-4.7v-1.6h4.7V29.6z M28.7,26.5H11.6c-1.3,0-2.3-1-2.3-2.3v-0.8H31v0.8
				C31,25.5,30,26.5,28.7,26.5z"/>
		</g>
		<g class="st0">
			<path class="st1" d="M20.1,15.4c-2.6,0-4.7,2.1-4.7,4.7s2.1,4.7,4.7,4.7s4.7-2.1,4.7-4.7S22.7,15.4,20.1,15.4z M20.1,23.2
				c-1.7,0-3.1-1.4-3.1-3.1s1.4-3.1,3.1-3.1s3.1,1.4,3.1,3.1S21.9,23.2,20.1,23.2z M32.5,19.8c0-0.1-3.4-8.3-12.4-8.3
				S7.8,19.7,7.7,19.8l-0.1,0.3l0.1,0.3c0,0.1,3.4,8.3,12.4,8.3s12.4-8.2,12.4-8.3l0.1-0.3L32.5,19.8z M20.1,27.1
				c-7.1,0-10.2-5.6-10.8-7c0.6-1.3,3.8-7,10.8-7c7.1,0,10.2,5.6,10.8,7C30.3,21.4,27.3,27.1,20.1,27.1z"/>
		</g>
		<g class="st0">
			<path class="st1" d="M10.8,10.9V14H7.7v11.7c0,2.2,1.7,3.9,3.9,3.9h3.1h14c2.2,0,3.9-1.7,3.9-3.9V10.9H10.8z M9.2,25.7V15.6h1.6
				v10.1c0,0.9,0.3,1.7,0.8,2.3h0C10.3,28.1,9.2,27,9.2,25.7z M28.7,28.1h-14c-1.3,0-2.3-1-2.3-2.3V12.5H31v13.2
				C31,27,30,28.1,28.7,28.1z M22.5,14h-8.6v7.8h8.6V14z M20.9,20.3h-5.5v-4.7h5.5V20.3z M29.5,25H13.9v-1.6h15.6V25z M29.5,15.6H24
				V14h5.5V15.6z M29.5,18.7H24v-1.6h5.5V18.7z M29.5,21.8H24v-1.6h5.5V21.8z"/>
		</g>
		<g>
			<path class="st2" d="M20.1,7.6L9.2,13v14l10.9,5.5L31,27.1V13L20.1,7.6z M29,13.8l-3.3,1.6l-9-4.3l3.4-1.7L29,13.8z M20.1,18
				l-8.9-4.3l3.7-1.8l8.9,4.3L20.1,18z M10.8,15.2l8.6,4.1v11l-8.6-4.3V15.2z M20.9,30.4v-11l3.9-1.9v2.6l1.6-0.8v-2.5l3.1-1.5v10.9
				L20.9,30.4z"/>
		</g>
		<g class="st0">
			<path class="st1" d="M20.1,8.4c-6.4,0-11.7,5.2-11.7,11.7s5.2,11.7,11.7,11.7s11.7-5.2,11.7-11.7S26.6,8.4,20.1,8.4z M20.1,30.2
				c-5.6,0-10.1-4.5-10.1-10.1S14.6,9.9,20.1,9.9s10.1,4.5,10.1,10.1S25.7,30.2,20.1,30.2z M26.1,15.2L15.2,26.1L14.1,25L25,14
				L26.1,15.2z M16.2,19.3c1.3,0,2.3-1,2.3-2.3v-1.6c0-1.3-1-2.3-2.3-2.3s-2.3,1-2.3,2.3v1.6C13.9,18.2,15,19.3,16.2,19.3z
				 M15.5,15.4c0-0.4,0.3-0.8,0.8-0.8c0.4,0,0.8,0.3,0.8,0.8v1.6c0,0.4-0.3,0.8-0.8,0.8c-0.4,0-0.8-0.3-0.8-0.8V15.4z M24,20.8
				c-1.3,0-2.3,1-2.3,2.3v1.6c0,1.3,1,2.3,2.3,2.3s2.3-1,2.3-2.3v-1.6C26.4,21.9,25.3,20.8,24,20.8z M24.8,24.7
				c0,0.4-0.3,0.8-0.8,0.8s-0.8-0.3-0.8-0.8v-1.6c0-0.4,0.3-0.8,0.8-0.8s0.8,0.3,0.8,0.8V24.7z"/>
		</g>
		<g class="st0">
			<path class="st1" d="M9.2,8.6V32H31V8.6H9.2z M29.5,30.4H10.8V10.2h18.7V30.4z M27.9,11.7H12.3v15.6h15.6V11.7z M26.4,13.3v9.9
				l-2.2-3.3l-2.4,2.4l-3.2-3.9l-4.7,5.4V13.3H26.4z M26.2,25.7H14.2l4.4-5l3.1,3.8l2.3-2.3L26.2,25.7z M21.7,16.9
				c0-0.9,0.7-1.6,1.6-1.6s1.6,0.7,1.6,1.6s-0.7,1.6-1.6,1.6S21.7,17.8,21.7,16.9z"/>
		</g>
		<g class="st0">
			<path class="st1" d="M13.9,12.5v-0.8c0-1.3-1-2.3-2.3-2.3H9.2v1.6h2.3c0.4,0,0.8,0.4,0.8,0.8v11.7c0,1.7,1.1,3.2,2.7,3.7
				c-0.4,0.7-0.5,1.6-0.1,2.5c0.3,0.7,0.9,1.3,1.7,1.5c1.9,0.5,3.5-0.8,3.5-2.6c0-0.4-0.1-0.8-0.3-1.2h4.4c-0.3,0.7-0.4,1.5,0,2.4
				c0.3,0.6,0.9,1.2,1.6,1.4c2.1,0.6,4-1.2,3.5-3.4c-0.3-1.2-1.5-2-2.7-2l-10.5,0c-1.3,0-2.3-1-2.3-2.3V14h15.6v6.2
				c0,1.3-1,2.3-2.3,2.3H17v1.6h10.1c2.2,0,3.9-1.7,3.9-3.9v-7.8H13.9z M18.6,28.2c0,0.6-0.5,1.2-1.2,1.2c-0.6,0-1.2-0.5-1.2-1.2
				s0.5-1.2,1.2-1.2C18.1,27.1,18.6,27.6,18.6,28.2z M27.9,28.2c0,0.6-0.5,1.2-1.2,1.2c-0.6,0-1.2-0.5-1.2-1.2s0.5-1.2,1.2-1.2
				C27.4,27.1,27.9,27.6,27.9,28.2z"/>
		</g>
		<g class="st0">
			<path class="st1" d="M29.5,19.4c0.6-0.3,1.1-0.8,1.6-1.3v2.9c0,2.2-1.7,3.9-3.9,3.9H17v-1.6h10.1c1.3,0,2.3-1,2.3-2.3V19.4z
				 M29.4,29.9c-0.2,1-1,1.8-2,2C25.6,32.3,24,31,24,29.2c0-0.4,0.1-0.8,0.3-1.2h-4.4c0.3,0.6,0.4,1.3,0.1,2.1
				c-0.3,0.9-1.2,1.6-2.2,1.8c-1.7,0.2-3.1-1.1-3.1-2.7c0-0.5,0.1-1,0.4-1.4c-1.6-0.5-2.7-2-2.7-3.7V12.5c0-0.4-0.4-0.8-0.8-0.8H9.2
				v-1.6h2.3c1.3,0,2.3,1,2.3,2.3v0.8h6.3c0,0.3-0.1,0.5-0.1,0.8s0,0.5,0.1,0.8h-6.3v9.4c0,1.3,1,2.3,2.3,2.3h10.1v0
				c0.1,0,0.3,0,0.4,0C28.5,26.5,29.8,28.1,29.4,29.9z M17.4,27.8c-0.6,0-1.2,0.5-1.2,1.2c0,0.6,0.5,1.2,1.2,1.2
				c0.6,0,1.2-0.5,1.2-1.2C18.6,28.4,18.1,27.8,17.4,27.8z M27.9,29c0-0.6-0.5-1.2-1.2-1.2c-0.6,0-1.2,0.5-1.2,1.2
				c0,0.6,0.5,1.2,1.2,1.2C27.4,30.2,27.9,29.7,27.9,29z M25.6,16.4h1.6v-1.6h1.6v-1.6h-1.6v-1.6h-1.6v1.6H24v1.6h1.6V16.4z
				 M21.7,13.8c0-2.6,2.1-4.7,4.7-4.7s4.7,2.1,4.7,4.7s-2.1,4.7-4.7,4.7S21.7,16.4,21.7,13.8z M23.3,13.8c0,1.7,1.4,3.1,3.1,3.1
				s3.1-1.4,3.1-3.1s-1.4-3.1-3.1-3.1S23.3,12.1,23.3,13.8z"/>
		</g>
		<g class="st0">
			<path class="st1" d="M29.5,19.4c0.6-0.3,1.1-0.8,1.6-1.3v2.9c0,2.2-1.7,3.9-3.9,3.9H17v-1.6h10.1c1.3,0,2.3-1,2.3-2.3V19.4z
				 M29.4,29.9c-0.2,1-1,1.8-2,2C25.6,32.3,24,31,24,29.2c0-0.4,0.1-0.8,0.3-1.2h-4.4c0.3,0.6,0.4,1.3,0.1,2.1
				c-0.3,0.9-1.2,1.6-2.2,1.8c-1.7,0.2-3.1-1.1-3.1-2.7c0-0.5,0.1-1,0.4-1.4c-1.6-0.5-2.7-2-2.7-3.7V12.5c0-0.4-0.4-0.8-0.8-0.8H9.2
				v-1.6h2.3c1.3,0,2.3,1,2.3,2.3v0.8h6.3c0,0.3-0.1,0.5-0.1,0.8s0,0.5,0.1,0.8h-6.3v9.4c0,1.3,1,2.3,2.3,2.3h10.1v0
				c0.1,0,0.3,0,0.4,0C28.5,26.5,29.8,28.1,29.4,29.9z M17.4,27.8c-0.6,0-1.2,0.5-1.2,1.2c0,0.6,0.5,1.2,1.2,1.2
				c0.6,0,1.2-0.5,1.2-1.2C18.6,28.4,18.1,27.8,17.4,27.8z M27.9,29c0-0.6-0.5-1.2-1.2-1.2c-0.6,0-1.2,0.5-1.2,1.2
				c0,0.6,0.5,1.2,1.2,1.2C27.4,30.2,27.9,29.7,27.9,29z M28.7,13.3H24v1.6h4.7V13.3z M21.7,13.8c0-2.6,2.1-4.7,4.7-4.7
				s4.7,2.1,4.7,4.7s-2.1,4.7-4.7,4.7S21.7,16.4,21.7,13.8z M23.3,13.8c0,1.7,1.4,3.1,3.1,3.1s3.1-1.4,3.1-3.1s-1.4-3.1-3.1-3.1
				S23.3,12.1,23.3,13.8z"/>
		</g>
		<g class="st0">
			<path class="st1" d="M20.1,8.4c-6.4,0-11.7,5.2-11.7,11.7s5.2,11.7,11.7,11.7s11.7-5.2,11.7-11.7S26.6,8.4,20.1,8.4z M20.1,30.2
				c-5.6,0-10.1-4.5-10.1-10.1S14.6,9.9,20.1,9.9s10.1,4.5,10.1,10.1S25.7,30.2,20.1,30.2z M20.9,19.5h6.2v1.6h-7.8v-9.4h1.6V19.5z"
				/>
		</g>
		<g class="st0">
			<path class="st1" d="M28.7,10.9H11.6c-2.2,0-3.9,1.7-3.9,3.9v10.9c0,2.2,1.7,3.9,3.9,3.9h17.1c2.2,0,3.9-1.7,3.9-3.9V14.8
				C32.6,12.7,30.9,10.9,28.7,10.9z M11.6,12.5h17.1c1.3,0,2.3,1,2.3,2.3v0.8H9.2v-0.8C9.2,13.5,10.3,12.5,11.6,12.5z M31,17.2v1.6
				H9.2v-1.6H31z M28.7,28.1H11.6c-1.3,0-2.3-1-2.3-2.3v-5.5H31v5.5C31,27,30,28.1,28.7,28.1z"/>
		</g>
		<g class="st0">
			<path class="st1" d="M32.6,14.8c0-2.2-1.7-3.9-3.9-3.9H10.8c-1.7,0-3.1,1.4-3.1,3.1h0v0v0v11.7c0,2.2,1.7,3.9,3.9,3.9h17.1
				c2.2,0,3.9-1.7,3.9-3.9V14.8z M9.2,14c0-0.9,0.7-1.6,1.6-1.6h17.9c1.3,0,2.3,1,2.3,2.3V16c-0.5-0.3-1.1-0.4-1.6-0.4H10.8
				C9.4,15.6,9.2,14.4,9.2,14L9.2,14z M28.7,28.1H11.6c-1.3,0-2.3-1-2.3-2.3v-8.9c0.4,0.2,1,0.4,1.6,0.4h18.7c0.2,0,1.6,0.1,1.6,1.6
				v7C31,27,30,28.1,28.7,28.1z M29.5,22.4c0,0.9-0.7,1.6-1.6,1.6s-1.6-0.7-1.6-1.6s0.7-1.6,1.6-1.6S29.5,21.5,29.5,22.4z"/>
		</g>
		<g class="st0">
			<path class="st1" d="M27.9,18.8l0-1.1c0-2-1-4-2.7-5.1c-5.7-3.8-11.9-0.5-12.8,4.7l0,0c-0.9,0.2-1.6,0.6-2.3,1.1c0,0,0,0,0,0
				c-0.1,0.1-0.3,0.2-0.4,0.3c0,0,0,0,0,0c-0.6,0.6-1.1,1.2-1.5,2c0,0,0,0,0,0c-0.1,0.1-0.1,0.2-0.2,0.4c0,0.1,0,0.1-0.1,0.2
				c0,0.1-0.1,0.2-0.1,0.3c0,0.1,0,0.2-0.1,0.2c0,0.1,0,0.2-0.1,0.3c0,0.1,0,0.2-0.1,0.3c0,0.1,0,0.2,0,0.2
				c-0.1,1.3,0.1,2.6,1.4,4.5c1,1.5,2.7,2.3,4.5,2.3l14.1,0c1.5,0,2.9-0.7,3.7-1.9C34.2,23.6,31.7,19.3,27.9,18.8z M27.2,28.1
				l-12.4,0c-1.5,0-3-0.5-4.1-1.6c-1.4-1.4-1.6-2.7-1.4-3.9c0,0,0,0,0-0.1c0-0.3,0.1-0.5,0.2-0.8c0,0,0,0,0,0
				c0.1-0.2,0.2-0.5,0.4-0.7c0,0,0,0,0,0c0.7-1.2,1.9-2,3.4-2.2l0.2,0c0.1,0,0.3,0,0.4,0c2,0,3.8,1.3,4.4,3.2l1.5-0.5
				c-0.8-2.5-3.1-4.2-5.7-4.2c0.7-2.7,3.1-4.7,6-4.7c3.4,0,6.2,2.8,6.2,6.2c0,0.2,0,0.5,0,0.7l0,0.9l0.7,0c1.9,0,3.6,1.2,4,3.1
				C31.5,25.9,29.6,28.1,27.2,28.1z"/>
		</g>
		<g class="st0">
			<path class="st1" d="M7.7,10.9v18.7h24.9V10.9H7.7z M20.1,21.6l-9.7-9.1h19.4L20.1,21.6z M14.6,18.3l-5.4,7.8V13.3L14.6,18.3z
				 M15.8,19.6l4.4,4.1l4.4-4.1l5.8,8.4H9.9L15.8,19.6z M25.6,18.3l5.4-5v12.9L25.6,18.3z"/>
		</g>
		<g class="st0">
			<path class="st1" d="M20.1,8.4c-6.4,0-11.7,5.2-11.7,11.7s5.2,11.7,11.7,11.7s11.7-5.2,11.7-11.7S26.6,8.4,20.1,8.4z M30.2,19.5
				h-5.7c-0.1-3.5-0.7-7-1.9-9C26.8,11.5,29.9,15.1,30.2,19.5z M20.1,30.4c-1.1,0-2.7-3.6-2.8-9.4H23C22.8,26.8,21.3,30.4,20.1,30.4
				z M17.3,19.5c0.1-5.7,1.7-9.4,2.8-9.4c1.1,0,2.7,3.6,2.8,9.4H17.3z M17.6,10.5c-1.2,2-1.8,5.5-1.9,9H10
				C10.4,15.1,13.5,11.5,17.6,10.5z M10,21.1h5.7c0.1,3.5,0.7,7,1.9,9C13.5,29,10.4,25.4,10,21.1z M22.6,30.1c1.2-2,1.8-5.5,1.9-9
				h5.7C29.9,25.4,26.8,29,22.6,30.1z"/>
		</g>
		<g class="st0">
			<path class="st1" d="M30.9,9.3L19.5,7.5L8.7,18.2c-1.5,1.5-1.5,4,0,5.5l7.7,7.7c0.7,0.7,1.7,1.1,2.8,1.1c1,0,2-0.4,2.8-1.1
				l10.7-10.7L30.9,9.3z M20.9,30.3c-0.9,0.9-2.4,0.9-3.3,0l-7.7-7.7c-0.9-0.9-0.9-2.4,0-3.3L20,9.1l9.5,1.5l1.5,9.5L20.9,30.3z
				 M24.7,12.3c-0.8,0-1.6,0.3-2.2,0.9c-1.2,1.2-1.2,3.2,0,4.4c0.6,0.6,1.4,0.9,2.2,0.9c0.8,0,1.6-0.3,2.2-0.9
				c1.2-1.2,1.2-3.2,0-4.4C26.3,12.7,25.5,12.3,24.7,12.3z M25.8,16.6c-0.3,0.3-0.7,0.5-1.1,0.5c-0.4,0-0.8-0.2-1.1-0.5
				C23,16,23,15,23.6,14.4c0.3-0.3,0.7-0.5,1.1-0.5c0.4,0,0.8,0.2,1.1,0.5C26.4,15,26.4,16,25.8,16.6z"/>
		</g>
		<g class="st0">
			<path class="st1" d="M25.2,9.1c-2.1-1.2-4.4-1.3-5-1.3l-0.1,0l-0.2,0c-0.9,0-9.2,0.3-9.2,9.4c0,8.9,8.5,15.2,8.9,15.4l0.5,0.3
				l0.5-0.3c0.4-0.3,8.9-6.6,8.9-15.4C29.5,12.4,27.2,10.2,25.2,9.1z M20.1,30.8c-1.7-1.4-7.8-6.9-7.8-13.8c0-7.4,6.4-7.8,7.7-8.3
				l0.2,0.8h0.1c1.3-0.2,7.7,0.1,7.7,7.6C27.9,23.9,21.9,29.3,20.1,30.8z M20.1,12.3c-2.6,0-4.7,2.1-4.7,4.7s2.1,4.7,4.7,4.7
				s4.7-2.1,4.7-4.7S22.7,12.3,20.1,12.3z M20.1,20.1c-1.7,0-3.1-1.4-3.1-3.1s1.4-3.1,3.1-3.1s3.1,1.4,3.1,3.1S21.9,20.1,20.1,20.1z
				"/>
		</g>
		<g class="st0">
			<path class="st1" d="M26,8.4c0,0-0.1,0-0.4,0c-0.8,0-3.5,0.2-5.5,2.4c-2-2.2-4.7-2.4-5.5-2.4c-0.2,0-0.4,0-0.3,0h0
				c-0.2,0-5.8,0.4-5.8,7.3c0,6.6,10.7,15.5,11.2,15.9l0.5,0.4l0.5-0.4c0.5-0.4,11.2-9.3,11.2-15.9C31.8,8.7,26.1,8.4,26,8.4z
				 M20.1,29.9C18,28.1,10,20.8,10,15.7c0-5.5,4.2-5.8,4.4-5.8c0,0,0.1,0,0.2,0c0.9,0,3.3,0.3,4.9,2.6l0.6,1l0.6-1
				c1.5-2.3,3.9-2.6,4.9-2.6c0.1,0,0.2,0,0.3,0c0.2,0,4.3,0.3,4.3,5.8C30.3,20.8,22.2,28.1,20.1,29.9z"/>
		</g>
		<g class="st0">
			<path class="st1" d="M32,20.5L20.1,7.8L8.3,20.5l1.1,1.1l1.4-1.5v12.6h18.7V20.1l1.4,1.5L32,20.5z M21.7,31.2h-3.1v-7h3.1V31.2z
				 M27.9,31.2h-4.7v-8.6H17v8.6h-4.7V18.5l7.8-8.3l7.8,8.3V31.2z"/>
		</g>
		<g class="st0">
			<path class="st1" d="M26.4,18.7l0-4.5c0-3.1-2.2-5.9-5.3-6.4c-3.9-0.6-7.2,2.4-7.2,6.2v4.7h-3.1v10.1c0,2.2,1.7,3.9,3.9,3.9h10.9
				c2.2,0,3.9-1.7,3.9-3.9V18.7H26.4z M15.5,14c0-2.9,2.7-5.2,5.7-4.6c2.2,0.5,3.6,2.5,3.6,4.7l0,4.5h-9.4V14z M25.6,31.2H14.7
				c-1.3,0-2.3-1-2.3-2.3v-8.6h15.6v8.6C27.9,30.1,26.9,31.2,25.6,31.2z M20.9,28.1h-1.6v-4.7h1.6V28.1z"/>
		</g>
		<g class="st0">
			<path class="st1" d="M21.2,7.8H10.8v24.9h18.7V16.1L21.2,7.8z M21.7,10.5l5.1,5.1h-5.1V10.5z M12.3,31.2V9.4h7.8v7.8h7.8v14H12.3
				z"/>
		</g>
		<g class="st0">
			<path class="st1" d="M24,10.9V7.8h-7.8v3.1H10v1.6h20.3v-1.6H24z M17.8,9.4h4.7v1.6h-4.7V9.4z M27.2,14h1.6v14.8
				c0,2.2-1.7,3.9-3.9,3.9h-9.4c-2.2,0-3.9-1.7-3.9-3.9V14h1.6v14.8c0,1.3,1,2.3,2.3,2.3h9.4c1.3,0,2.3-1,2.3-2.3V14z M17,15.6v13.2
				h-1.6V15.6H17z M20.9,15.6v13.2h-1.6V15.6H20.9z M24.8,28.9h-1.6V15.6h1.6V28.9z"/>
		</g>
		<g class="st0">
			<path class="st1" d="M26.4,18.7l0-4.4c0-3.2-2.3-6.1-5.5-6.4c-1.9-0.2-3.8,0.4-5.1,1.8l1.1,1.1c1.1-1.1,2.7-1.6,4.3-1.3
				c2.2,0.4,3.7,2.5,3.7,4.7l0,4.5h-14v10.1c0,2.2,1.7,3.9,3.9,3.9h10.9c2.2,0,3.9-1.7,3.9-3.9V18.7H26.4z M25.6,31.2H14.7
				c-1.3,0-2.3-1-2.3-2.3v-8.6h15.6v8.6C27.9,30.1,26.9,31.2,25.6,31.2z M20.9,28.1h-1.6v-4.7h1.6V28.1z"/>
		</g>
		<g class="st0">
			<path class="st1" d="M32.4,32L26,25.6c1.7-1.9,2.7-4.4,2.7-7.1c0-6-4.9-10.9-10.9-10.9S6.9,12.5,6.9,18.5s4.9,10.9,10.9,10.9
				c2.7,0,5.2-1,7.1-2.7l6.3,6.3L32.4,32z M8.4,18.5c0-5.2,4.2-9.4,9.4-9.4s9.4,4.2,9.4,9.4s-4.2,9.4-9.4,9.4S8.4,23.7,8.4,18.5z
				 M18.6,17.9h3.1v1.6h-3.1v3.1H17v-3.1h-3.1v-1.6H17v-3.1h1.6V17.9z"/>
		</g>
		<g class="st0">
			<path class="st1" d="M32.4,32L26,25.6c1.7-1.9,2.7-4.4,2.7-7.1c0-6-4.9-10.9-10.9-10.9S6.9,12.5,6.9,18.5s4.9,10.9,10.9,10.9
				c2.7,0,5.2-1,7.1-2.7l6.3,6.3L32.4,32z M8.4,18.5c0-5.2,4.2-9.4,9.4-9.4s9.4,4.2,9.4,9.4s-4.2,9.4-9.4,9.4S8.4,23.7,8.4,18.5z
				 M13.9,17.9h7.8v1.6h-7.8V17.9z"/>
		</g>
		<g class="st0">
			<path class="st1" d="M32.4,32.8L26,26.4c1.7-1.9,2.7-4.4,2.7-7.1c0-6-4.9-10.9-10.9-10.9S6.9,13.3,6.9,19.3s4.9,10.9,10.9,10.9
				c2.7,0,5.2-1,7.1-2.7l6.3,6.3L32.4,32.8z M8.4,19.3c0-5.2,4.2-9.4,9.4-9.4s9.4,4.2,9.4,9.4s-4.2,9.4-9.4,9.4S8.4,24.4,8.4,19.3z"
				/>
		</g>
	</g>
</g>
</svg>
