<?xml version="1.0" encoding="utf-8"?>
<!-- Generator: Adobe Illustrator 21.0.0, SVG Export Plug-In . SVG Version: 6.00 Build 0)  -->
<svg version="1.1" id="Capa_1" xmlns="http://www.w3.org/2000/svg" xmlns:xlink="http://www.w3.org/1999/xlink" x="0px" y="0px"
	 viewBox="0 0 40 40" style="enable-background:new 0 0 40 40;" xml:space="preserve">
<style type="text/css">
	.st0{fill:#B0B0B0;}
</style>
<g>
	<g>
		<g transform="translate(0,-952.36218)">
			<path class="st0" d="M20.5,960.6c-0.3,0-0.5,0.2-0.7,0.5l-2.8,6.6l-7.1,0.6c-0.4,0-0.7,0.4-0.7,0.8c0,0.2,0.1,0.4,0.3,0.5
				l5.4,4.7l-1.6,6.9c-0.1,0.4,0.2,0.8,0.6,0.9c0.2,0,0.4,0,0.5-0.1l6.1-3.7l6.1,3.7c0.1,0.1,0.3,0.1,0.4,0.1c0.4,0,0.7-0.4,0.7-0.8
				c0,0,0-0.1,0-0.1l-1.6-6.9l5.4-4.7c0.3-0.3,0.3-0.7,0.1-1.1c-0.1-0.1-0.3-0.2-0.5-0.3l-7.1-0.6l-2.8-6.6
				C21.1,960.8,20.8,960.6,20.5,960.6z M20.5,963.3l2.3,5.4c0.1,0.3,0.3,0.4,0.6,0.5l5.8,0.5l-4.4,3.8c-0.2,0.2-0.3,0.5-0.2,0.7
				l1.3,5.7l-5-3c-0.2-0.1-0.5-0.1-0.8,0l-5,3l1.3-5.7c0.1-0.3,0-0.6-0.2-0.7l-4.4-3.8l5.8-0.5c0.3,0,0.5-0.2,0.6-0.5L20.5,963.3z"
				/>
		</g>
	</g>
</g>
</svg>
