<?xml version="1.0" encoding="UTF-8" standalone="no"?>
<svg width="36px" height="37px" viewBox="0 0 36 37" version="1.1" xmlns="http://www.w3.org/2000/svg" xmlns:xlink="http://www.w3.org/1999/xlink">
    <!-- Generator: Sketch 42 (36781) - http://www.bohemiancoding.com/sketch -->
    <title>icon-location-profile</title>
    <desc>Created with Sketch.</desc>
    <defs></defs>
    <g id="buscador-detalle" stroke="none" stroke-width="1" fill="none" fill-rule="evenodd">
        <g id="home-buscador" transform="translate(-186.000000, -921.000000)">
            <g id="perfiles-destacados-boxes" transform="translate(0.000000, 3.000000)">
                <g id="chile-perfil-box">
                    <g id="icon-location-profile" transform="translate(186.000000, 918.000000)">
                        <path d="M35.7949,18.6113 C35.7949,28.4163 27.8459,36.3653 18.0409,36.3653 C8.2359,36.3653 0.2869,28.4163 0.2869,18.6113 C0.2869,8.8053 8.2359,0.8573 18.0409,0.8573 C27.8459,0.8573 35.7949,8.8053 35.7949,18.6113" id="Fill-328" fill="#FFFFFF"></path>
                        <path d="M18.0215,19.2109 C17.3605,19.2109 16.8365,18.6869 16.8365,18.0259 C16.8365,17.3649 17.3605,16.8409 18.0215,16.8409 C18.6825,16.8409 19.2075,17.3649 19.2075,18.0259 C19.2075,18.6869 18.6625,19.2109 18.0215,19.2109 M18.0215,15.3059 C16.5255,15.3059 15.3015,16.5299 15.3015,18.0259 C15.3015,19.5229 16.5255,20.7459 18.0215,20.7459 C19.5175,20.7459 20.7415,19.5229 20.7415,18.0259 C20.7415,16.5299 19.5175,15.3059 18.0215,15.3059" id="Fill-330" fill="#89194E"></path>
                        <path d="M21.7524,21.3096 L18.0214,25.0596 L14.2914,21.3096 C13.4944,20.3966 13.0474,19.2306 13.0474,18.0266 C13.0474,15.2866 15.2824,13.0516 18.0214,13.0516 C20.7614,13.0516 22.9954,15.2866 22.9954,18.0266 C22.9954,19.2306 22.5484,20.3966 21.7524,21.3096 M18.0214,11.5166 C14.4274,11.5166 11.5124,14.4316 11.5124,18.0266 C11.5124,19.6196 12.0954,21.1546 13.1644,22.3396 C13.1834,22.3586 13.1834,22.3586 13.2034,22.3776 L17.4974,26.6716 C17.6324,26.8086 17.8274,26.9056 18.0414,26.9056 C18.2354,26.9056 18.4294,26.8286 18.5854,26.6716 L22.8794,22.3776 C22.8984,22.3586 22.8984,22.3586 22.9184,22.3396 C23.9864,21.1546 24.5694,19.6196 24.5694,18.0266 C24.5114,14.4316 21.5964,11.5166 18.0214,11.5166" id="Fill-332" fill="#708BBB"></path>
                    </g>
                </g>
            </g>
        </g>
    </g>
</svg>