<?xml version="1.0" encoding="utf-8"?>
<!-- Generator: Adobe Illustrator 21.0.0, SVG Export Plug-In . SVG Version: 6.00 Build 0)  -->
<svg version="1.1" id="Capa_1" xmlns="http://www.w3.org/2000/svg" xmlns:xlink="http://www.w3.org/1999/xlink" x="0px" y="0px"
	 viewBox="0 0 50 50" style="enable-background:new 0 0 50 50;" xml:space="preserve">
<style type="text/css">
	.st0{fill:#30394B;stroke:#30394B;stroke-width:0.5;stroke-miterlimit:10;}
</style>
<g>
	<g transform="translate(0,-952.36218)">
		<path class="st0" d="M25.1,960.8c-0.1,0-0.2,0-0.2,0l-15.2,4.8c-0.1,0-0.2,0.1-0.3,0.1c-0.1,0.1-0.2,0.2-0.3,0.4
			c-0.1,0.1-0.1,0.3,0,0.5v21.4c0,0.2,0.1,0.3,0.1,0.4c0.1,0.1,0.2,0.2,0.4,0.3l15.2,4.8c0.1,0,0.2,0.1,0.3,0.1c0.1,0,0.2,0,0.3,0
			c0,0,0,0,0,0c0,0,0,0,0,0l15.3-4.8c0.1,0,0.3-0.1,0.4-0.3s0.1-0.3,0.1-0.4v-21.7c0,0,0,0,0,0c0,0,0,0,0,0c0-0.1,0-0.2-0.1-0.3
			S41,966,41,965.9c-0.1-0.1-0.1-0.1-0.2-0.2c-0.1,0-0.2-0.1-0.2-0.1l-15.2-4.8C25.3,960.9,25.2,960.8,25.1,960.8L25.1,960.8z
			 M25.2,962.3l5.2,1.6l-12.8,4.1l-5.2-1.6L25.2,962.3z M32.9,964.8l5.2,1.6l-12.8,4.1l-5.2-1.6L32.9,964.8z M10.9,967.5l6,1.9
			l-0.1,5.2c0,0.1,0,0.2,0.1,0.3c0,0.1,0.1,0.2,0.2,0.3c0.1,0.1,0.2,0.1,0.3,0.2c0.1,0,0.2,0.1,0.3,0.1c0.1,0,0.2,0,0.3-0.1
			s0.2-0.1,0.3-0.2s0.1-0.2,0.2-0.3c0-0.1,0.1-0.2,0.1-0.3l0.1-4.8l6.3,2v20.1l-13.8-4.4V967.5z M39.7,967.4v20.1l-13.8,4.4v-20.1
			L39.7,967.4z"/>
	</g>
</g>
</svg>
