<?xml version="1.0" encoding="UTF-8" standalone="no"?>
<svg xmlns="http://www.w3.org/2000/svg" width="50" height="50" viewBox="0 0 50 50">
    <path fill="#b0b0b0" d="M27.9 10.5c0-2.7-2.2-5-5-5s-5 2.2-5 5 2.2 5 5 5 5-2.2 5-5zm-8.6 0c0-2 1.6-3.6 3.6-3.6s3.6 1.6 3.6 3.6-1.6 3.6-3.6 3.6-3.6-1.6-3.6-3.6zM21 44.1h3.9c1.6 0 3-1.3 3-3v-1h6.2c.7 0 1.3-.6 1.3-1.3v-7.3c0-.7-.6-1.3-1.3-1.3h-3.7v-7.9c0-3.1-2.5-5.6-5.6-5.6h-3.7c-3.1 0-5.6 2.5-5.6 5.6v8.2c0 1.5 1.1 2.7 2.6 3v7.6c-.1 1.7 1.3 3 2.9 3zm13-12.5v7.2h-9.8v-7.2H34zm-17.2-1.1v-8.2c0-2.4 1.9-4.3 4.3-4.3h3.7c2.4 0 4.3 1.9 4.3 4.3v7.9h-4.9c-.7 0-1.3.6-1.3 1.3v7.3c0 .7.6 1.3 1.3 1.3h2.3v1c0 .9-.7 1.6-1.6 1.6H21c-.9 0-1.6-.7-1.6-1.6v-8.9h-.9c-.9 0-1.7-.8-1.7-1.7z"/>
</svg>
