<?xml version="1.0" encoding="utf-8"?>
<!-- Generator: Adobe Illustrator 21.0.0, SVG Export Plug-In . SVG Version: 6.00 Build 0)  -->
<svg version="1.1" id="Capa_1" xmlns="http://www.w3.org/2000/svg" xmlns:xlink="http://www.w3.org/1999/xlink" x="0px" y="0px"
	 viewBox="0 0 15 15" style="enable-background:new 0 0 15 15;" xml:space="preserve">
<style type="text/css">
	.st0{fill:#B0B0B0;}
</style>
<g>
	<g>
		<g>
			<g>
				<path class="st0" d="M6.9,11.8l-3.4,1.8c-0.4,0.2-0.7-0.1-0.6-0.5l0.6-3.8c0-0.1,0-0.2-0.1-0.2L0.7,6.4C0.4,6.1,0.5,5.7,0.9,5.7
					l3.8-0.6C4.8,5.1,4.9,5,4.9,5l1.7-3.4c0.2-0.4,0.6-0.4,0.8,0L9.1,5c0,0.1,0.1,0.1,0.2,0.1l3.8,0.6c0.4,0.1,0.5,0.5,0.2,0.7
					l-2.8,2.7c0,0-0.1,0.2-0.1,0.2l0.6,3.8c0.1,0.4-0.3,0.6-0.6,0.5l-3.4-1.8C7.1,11.7,6.9,11.7,6.9,11.8z M6.6,11.3
					c0.2-0.1,0.6-0.1,0.8,0l3.1,1.7L9.9,9.4c0-0.3,0.1-0.6,0.2-0.7l2.5-2.5L9.2,5.7C9,5.6,8.7,5.5,8.6,5.2L7,2L5.4,5.2
					C5.3,5.5,5.1,5.6,4.8,5.7L1.3,6.2l2.5,2.5C4,8.8,4.1,9.2,4.1,9.4l-0.6,3.5L6.6,11.3z"/>
			</g>
		</g>
	</g>
</g>
</svg>
