<?xml version="1.0" encoding="utf-8"?>
<!-- Generator: Adobe Illustrator 21.0.0, SVG Export Plug-In . SVG Version: 6.00 Build 0)  -->
<svg version="1.1" id="Capa_1" xmlns="http://www.w3.org/2000/svg" xmlns:xlink="http://www.w3.org/1999/xlink" x="0px" y="0px"
	 viewBox="0 0 40 40" style="enable-background:new 0 0 40 40;" xml:space="preserve">
<style type="text/css">
	.st0{fill:#B0B0B0;}
</style>
<path class="st0" d="M20.4,13.9c-2.3,0-4.3,1.9-4.3,4.1c0,2.3,1.9,4.1,4.3,4.1c2.3,0,4.3-1.9,4.3-4.1C24.7,15.7,22.8,13.9,20.4,13.9
	z M20.4,19.8c-1,0-1.9-0.8-1.9-1.8s0.8-1.8,1.9-1.8c1,0,1.9,0.8,1.9,1.8S21.4,19.8,20.4,19.8z"/>
<path class="st0" d="M20.4,8.2c-5.6,0-10.2,4.4-10.2,9.8c0,2.4,0.9,4.7,2.6,6.5c0,0,0,0,0.1,0.1l6.7,6.5c0.2,0.2,0.5,0.4,0.9,0.4
	c0.3,0,0.6-0.1,0.9-0.4l6.7-6.5c0,0,0,0,0.1-0.1c1.7-1.8,2.6-4.1,2.6-6.5C30.6,12.6,26,8.2,20.4,8.2z M26.3,23l-5.9,5.7L14.6,23
	c-1.3-1.4-2-3.1-2-5c0-4.1,3.5-7.5,7.8-7.5s7.8,3.4,7.8,7.5C28.2,19.8,27.5,21.6,26.3,23z"/>
</svg>
