<?xml version="1.0" encoding="utf-8"?>
<!-- Generator: Adobe Illustrator 21.0.0, SVG Export Plug-In . SVG Version: 6.00 Build 0)  -->
<svg version="1.1" id="Capa_1" xmlns="http://www.w3.org/2000/svg" xmlns:xlink="http://www.w3.org/1999/xlink" x="0px" y="0px"
	 viewBox="0 0 40 40" style="enable-background:new 0 0 40 40;" xml:space="preserve">
<style type="text/css">
	.st0{fill:#B0B0B0;}
</style>
<path class="st0" d="M20.4,8C14,8,8.7,13.2,8.7,19.7S14,31.4,20.4,31.4s11.7-5.3,11.7-11.7S26.9,8,20.4,8z M16.8,9.9
	c-0.6,0.8-1.2,1.8-1.7,2.9c-0.7-0.1-1.5-0.2-2.2-0.3C14,11.4,15.3,10.5,16.8,9.9z M11.9,13.6c0.9,0.2,1.8,0.3,2.7,0.5
	c-0.4,1.5-0.7,3.1-0.8,4.9H10C10.1,17,10.8,15.2,11.9,13.6z M11.9,25.7c-1.1-1.5-1.8-3.4-1.9-5.4h3.9c0.1,1.8,0.3,3.5,0.8,4.9
	C13.7,25.4,12.8,25.5,11.9,25.7z M12.9,26.8c0.7-0.1,1.5-0.2,2.2-0.3c0.5,1.1,1,2.1,1.7,2.9C15.3,28.8,14,28,12.9,26.8z M19.8,30
	c-1.3-0.3-2.5-1.7-3.3-3.6c1.1-0.1,2.2-0.2,3.3-0.2V30z M19.8,24.9c-1.3,0-2.5,0.1-3.8,0.2c-0.4-1.4-0.7-3-0.8-4.8h4.5V24.9z
	 M19.8,19h-4.5c0.1-1.7,0.3-3.4,0.8-4.8c1.2,0.1,2.5,0.2,3.8,0.2L19.8,19L19.8,19z M19.8,13.1c-1.1,0-2.2-0.1-3.3-0.2
	c0.8-1.9,2-3.3,3.3-3.6V13.1z M27.9,12.5c-0.7,0.1-1.5,0.2-2.2,0.3c-0.5-1.1-1-2.1-1.7-2.9C25.5,10.5,26.9,11.4,27.9,12.5z
	 M21.1,9.3c1.3,0.3,2.5,1.7,3.3,3.6c-1.1,0.1-2.2,0.2-3.3,0.2V9.3z M21.1,14.4c1.3,0,2.5-0.1,3.8-0.2c0.4,1.4,0.7,3,0.8,4.8h-4.5
	V14.4z M21.1,20.3h4.5c-0.1,1.7-0.3,3.4-0.8,4.8c-1.2-0.1-2.5-0.2-3.8-0.2L21.1,20.3L21.1,20.3z M21.1,30v-3.8
	c1.1,0,2.2,0.1,3.3,0.2C23.5,28.3,22.4,29.6,21.1,30z M24.1,29.4c0.6-0.8,1.2-1.8,1.7-2.9c0.7,0.1,1.5,0.2,2.2,0.3
	C26.9,28,25.5,28.8,24.1,29.4z M28.9,25.7c-0.9-0.2-1.8-0.3-2.7-0.5c0.4-1.5,0.7-3.1,0.8-4.9h3.9C30.7,22.3,30,24.2,28.9,25.7z
	 M30.8,19h-3.9c-0.1-1.8-0.3-3.5-0.8-4.9c0.9-0.1,1.8-0.3,2.7-0.5C30,15.2,30.7,17,30.8,19z"/>
</svg>
