<?xml version="1.0" encoding="utf-8"?>
<!-- Generator: Adobe Illustrator 21.0.0, SVG Export Plug-In . SVG Version: 6.00 Build 0)  -->
<svg version="1.1" id="Capa_1" xmlns="http://www.w3.org/2000/svg" xmlns:xlink="http://www.w3.org/1999/xlink" x="0px" y="0px"
	 viewBox="0 0 20 20" style="enable-background:new 0 0 20 20;" xml:space="preserve">
<style type="text/css">
	.st0{fill:#2A99B7;}
</style>
<g transform="translate(0,-952.36218)">
	<path class="st0" d="M10,955.2c-4,0-7.2,3.2-7.2,7.2s3.2,7.2,7.2,7.2s7.2-3.2,7.2-7.2S14,955.2,10,955.2z M10,955.8
		c3.6,0,6.6,3,6.6,6.6s-3,6.6-6.6,6.6s-6.6-3-6.6-6.6S6.4,955.8,10,955.8z M10,957.3c-0.2,0-0.3,0.1-0.3,0.3v4.5H5.2
		c-0.2,0-0.3,0.1-0.3,0.3s0.1,0.3,0.3,0.3h4.5v4.5c0,0.2,0.1,0.3,0.3,0.3s0.3-0.1,0.3-0.3v-4.5h4.5c0.2,0,0.3-0.1,0.3-0.3
		s-0.1-0.3-0.3-0.3h-4.5v-4.5C10.3,957.4,10.2,957.3,10,957.3z"/>
</g>
</svg>
