<?xml version="1.0" encoding="UTF-8" standalone="no"?>
<svg width="20px" height="20px" viewBox="0 0 20 20" version="1.1" xmlns="http://www.w3.org/2000/svg" xmlns:xlink="http://www.w3.org/1999/xlink">
    <!-- Generator: Sketch 43.1 (39012) - http://www.bohemiancoding.com/sketch -->
    <title>icon-lupa-header</title>
    <desc>Created with Sketch.</desc>
    <defs></defs>
    <g id="Perfil-pais-industria-seccion" stroke="none" stroke-width="1" fill="none" fill-rule="evenodd">
        <g id="perfil-pais-industria" transform="translate(-1297.000000, -31.000000)" fill="#FFFFFF">
            <g id="header-fixed" transform="translate(2.000000, 0.000000)">
                <g id="icon-lupa-header" transform="translate(1295.000000, 31.000000)">
                    <path d="M3.96,12.7964 C1.521,10.3574 1.521,6.3654 3.96,3.9254 C5.195,2.6904 6.779,2.0884 8.396,2.0884 C10.011,2.0884 11.627,2.6904 12.83,3.9254 C15.27,6.3654 15.27,10.3574 12.83,12.7964 C10.392,15.2354 6.399,15.2354 3.96,12.7964 L3.96,12.7964 Z M19.262,18.3084 L14.161,13.2084 C16.664,10.2304 16.537,5.7954 13.749,3.0074 C10.803,0.0614 6.02,0.0614 3.073,3.0074 C0.127,5.9534 0.127,10.7374 3.073,13.6834 C4.53,15.1404 6.494,15.9004 8.427,15.9004 C10.169,15.9004 11.88,15.2994 13.306,14.1274 L18.406,19.2274 L19.262,18.3084 Z" id="Fill-26"></path>
                </g>
            </g>
        </g>
    </g>
</svg>