<?xml version="1.0" encoding="utf-8"?>
<svg version="1.1" id="Capa_1" xmlns="http://www.w3.org/2000/svg" xmlns:xlink="http://www.w3.org/1999/xlink" x="0px" y="0px"
	 viewBox="0 0 100 125" style="enable-background:new 0 0 100 125;" xml:space="preserve">
<path d="M62.4,15.5H21.9c-3.1,0-5.6,2.5-5.6,5.6c0,0,0,0,0,0v78.7c0,3.1,2.5,5.6,5.6,5.6c0,0,0,0,0,0h56.2c3.1,0,5.6-2.5,5.6-5.6
	c0,0,0,0,0,0V36.8l0,0L62.4,15.5z M61.2,22.3L77,38H61.2V22.3z M78.1,99.9H21.9V21.1h33.8V38c0,3.1,2.5,5.6,5.6,5.6c0,0,0,0,0,0
	h16.9V99.9z" fill="#fff"/>
<path d="M52.8,56.3c0-0.8-0.6-1.4-1.4-1.4h-2.8c-0.8,0-1.4,0.6-1.4,1.4v22.2L37,68.3c-0.5-0.6-1.4-0.6-2,0c0,0,0,0,0,0l-2,2
	c-0.6,0.5-0.6,1.4,0,2c0,0,0,0,0,0L49,88.2c0.3,0.3,0.6,0.4,1,0.4h0.3c0.3-0.1,0.5-0.2,0.7-0.4l15.9-15.9c0.6-0.5,0.6-1.4,0-2
	c0,0,0,0,0,0l-2-2c-0.5-0.6-1.4-0.6-2,0c0,0,0,0,0,0L52.8,78.4V56.3z" fill="#fff"/>
</svg>
