<?xml version="1.0" encoding="utf-8"?>
<!-- Generator: Adobe Illustrator 21.0.0, SVG Export Plug-In . SVG Version: 6.00 Build 0)  -->
<svg version="1.1" id="Capa_1" xmlns="http://www.w3.org/2000/svg" xmlns:xlink="http://www.w3.org/1999/xlink" x="0px" y="0px"
	 viewBox="0 0 50 50" style="enable-background:new 0 0 50 50;" xml:space="preserve">
<style type="text/css">
	.st0{fill:#CACACA;stroke:#CACACA;stroke-miterlimit:10;}
</style>
<g>
	<g transform="translate(0,-952.36218)">
		<path class="st0" d="M7.2,959.2c-1.7,0-3,1.4-3,3v7.1v11.1v9.1c0,1.7,1.4,3,3,3h28.7c1.6,2.1,4.3,3.4,7.3,2.9
			c3.2-0.5,5.7-3.1,6.2-6.2c0.5-3-0.8-5.7-2.9-7.3v-11.6v-3c0-2.2-1.8-4-4-4h-18l-0.7-1.3c-0.3-0.6-0.8-1.3-1.3-1.8
			c-0.6-0.5-1.3-0.9-2.1-0.9L7.2,959.2L7.2,959.2z M7.2,960.2h13.1c0.5,0,1,0.2,1.4,0.7c0.4,0.4,0.8,1,1.1,1.6l0.9,1.7l0,0l0,0
			l2,3.8c0.1,0.2,0.3,0.3,0.4,0.3h17.1c1.1,0,2,0.9,2,2v11c-1.5-0.8-3.3-1.1-5.2-0.7c-2.8,0.6-5.1,2.9-5.7,5.7
			c-0.4,1.9-0.1,3.7,0.7,5.2H7.2c-1.1,0-2-0.9-2-2v-9.1v-11.1v-7.1C5.2,961.1,6.1,960.2,7.2,960.2z M25,964.3h17.5c1.7,0,3,1.4,3,3
			v0.8c-0.5-0.5-1.2-0.8-2-0.8H26.6L25,964.3z M42,981.2c3.6,0,6.6,2.9,6.6,6.6c0,3.6-2.9,6.6-6.6,6.6s-6.6-2.9-6.6-6.6
			C35.4,984.2,38.3,981.2,42,981.2z M42,983.9c-0.3,0-0.5,0.2-0.5,0.5v3h-3c-0.3,0-0.5,0.2-0.5,0.5s0.2,0.5,0.5,0.5h3v3
			c0,0.3,0.2,0.5,0.5,0.5s0.5-0.2,0.5-0.5v-3h3c0.3,0,0.5-0.2,0.5-0.5s-0.2-0.5-0.5-0.5h-3v-3C42.5,984.1,42.3,983.9,42,983.9z"/>
	</g>
</g>
</svg>
