<?xml version="1.0" encoding="utf-8"?>
<!-- Generator: Adobe Illustrator 21.0.0, SVG Export Plug-In . SVG Version: 6.00 Build 0)  -->
<svg version="1.1" id="Capa_1" xmlns="http://www.w3.org/2000/svg" xmlns:xlink="http://www.w3.org/1999/xlink" x="0px" y="0px"
	 viewBox="0 0 40 40" style="enable-background:new 0 0 40 40;" xml:space="preserve">
<style type="text/css">
	.st0{fill:#B0B0B0;}
</style>
<g>
	<g>
		<g>
			<g>
				<path class="st0" d="M23.6,7.4c0-2.5-2-4.5-4.5-4.5s-4.5,2-4.5,4.5s2,4.5,4.5,4.5S23.6,9.9,23.6,7.4z M15.9,7.4
					c0-1.8,1.5-3.2,3.2-3.2s3.2,1.5,3.2,3.2s-1.5,3.2-3.2,3.2S15.9,9.2,15.9,7.4z"/>
				<path class="st0" d="M17.4,37.6h3.5c1.5,0,2.7-1.2,2.7-2.7v-0.9h5.6c0.6,0,1.2-0.5,1.2-1.2v-6.6c0-0.6-0.5-1.2-1.2-1.2h-3.3
					v-7.1c0-2.8-2.3-5.1-5.1-5.1h-3.3c-2.8,0-5.1,2.3-5.1,5.1v7.4c0,1.3,1,2.5,2.3,2.7V35C14.7,36.4,15.9,37.6,17.4,37.6z
					 M29.1,26.4v6.5h-8.8v-6.5H29.1z M13.6,25.5v-7.4c0-2.1,1.7-3.8,3.8-3.8h3.3c2.1,0,3.8,1.7,3.8,3.8v7.1h-4.4
					c-0.6,0-1.2,0.5-1.2,1.2v6.6c0,0.6,0.5,1.2,1.2,1.2h2.1V35c0,0.8-0.7,1.5-1.5,1.5h-3.5c-0.8,0-1.5-0.7-1.5-1.5v-8.1h-0.8
					C14.3,26.9,13.6,26.3,13.6,25.5z"/>
			</g>
		</g>
	</g>
</g>
</svg>
