<?xml version="1.0" encoding="UTF-8" standalone="no"?>
<svg xmlns="http://www.w3.org/2000/svg" width="40" height="40" viewBox="0 0 40 40">
    <path fill="#b0b0b0" d="M23.6 7.4c0-2.5-2-4.5-4.5-4.5s-4.5 2-4.5 4.5 2 4.5 4.5 4.5 4.5-2 4.5-4.5zm-7.7 0c0-1.8 1.5-3.2 3.2-3.2s3.2 1.5 3.2 3.2-1.5 3.2-3.2 3.2-3.2-1.4-3.2-3.2zM17.4 37.6h3.5c1.5 0 2.7-1.2 2.7-2.7V34h5.6c.6 0 1.2-.5 1.2-1.2v-6.6c0-.6-.5-1.2-1.2-1.2h-3.3v-7.1c0-2.8-2.3-5.1-5.1-5.1h-3.3c-2.8 0-5.1 2.3-5.1 5.1v7.4c0 1.3 1 2.5 2.3 2.7v7c0 1.4 1.2 2.6 2.7 2.6zm11.7-11.2v6.5h-8.8v-6.5h8.8zm-15.5-.9v-7.4c0-2.1 1.7-3.8 3.8-3.8h3.3c2.1 0 3.8 1.7 3.8 3.8v7.1h-4.4c-.6 0-1.2.5-1.2 1.2V33c0 .6.5 1.2 1.2 1.2h2.1v.8c0 .8-.7 1.5-1.5 1.5h-3.5c-.8 0-1.5-.7-1.5-1.5v-8.1h-.8c-.6 0-1.3-.6-1.3-1.4z"/>
</svg>
