<?xml version="1.0" encoding="utf-8"?>
<!-- Generator: Adobe Illustrator 21.0.0, SVG Export Plug-In . SVG Version: 6.00 Build 0)  -->
<svg version="1.1" id="Capa_1" xmlns="http://www.w3.org/2000/svg" xmlns:xlink="http://www.w3.org/1999/xlink" x="0px" y="0px"
	 viewBox="0 0 40 40" style="enable-background:new 0 0 40 40;" xml:space="preserve">
<style type="text/css">
	.st0{fill:#B0B0B0;}
</style>
<g transform="translate(0,-952.36218)">
	<g>
		<path class="st0" d="M19.9,962.5c0,0-0.1,0-0.1,0l-14,5c-0.4,0.1-0.7,0.6-0.5,1.1c0.1,0.2,0.3,0.4,0.5,0.5l5.2,1.8v7.1
			c0,0.7,0.4,1.3,1,1.7c0.5,0.4,1.2,0.7,2,1c1.6,0.5,3.7,0.8,6.1,0.8s4.5-0.3,6.1-0.8c0.8-0.3,1.5-0.6,2-1c0.5-0.4,1-1,1-1.7v-7.1
			l4.1-1.5v4.2c0,0.5,0.4,0.8,0.8,0.8c0.5,0,0.8-0.4,0.8-0.8c0,0,0,0,0,0v-5.4c0-0.4-0.2-0.7-0.6-0.8l-14-5
			C20.2,962.5,20.1,962.5,19.9,962.5z M20.1,964.2l11.6,4.1l-11.6,4.1l-11.6-4.1L20.1,964.2z M12.6,971.5l7.2,2.5
			c0.2,0.1,0.4,0.1,0.5,0l7.2-2.5v6.5c0,0,0,0.2-0.3,0.4c-0.3,0.2-0.8,0.5-1.5,0.7c-1.4,0.4-3.4,0.7-5.6,0.7s-4.2-0.3-5.6-0.7
			c-0.7-0.2-1.2-0.5-1.5-0.7c-0.3-0.2-0.3-0.4-0.3-0.4V971.5z"/>
	</g>
</g>
</svg>
