<?xml version="1.0" encoding="UTF-8" standalone="no"?>
<svg width="16px" height="17px" viewBox="0 0 16 17" version="1.1" xmlns="http://www.w3.org/2000/svg" xmlns:xlink="http://www.w3.org/1999/xlink">
    <!-- Generator: Sketch 47 (45396) - http://www.bohemiancoding.com/sketch -->
    <title>icon-perfil-paises-nav</title>
    <desc>Created with Sketch.</desc>
    <defs></defs>
    <g id="home-geo" stroke="none" stroke-width="1" fill="none" fill-rule="evenodd">
        <g transform="translate(-491.000000, -802.000000)" id="navegacion-slides" fill="#1ECBD8">
            <g transform="translate(218.000000, 757.000000)">
                <g id="icon-perfil-paises-nav" transform="translate(273.000000, 45.000000)">
                    <path d="M15.0688,7.8379 L12.4318,7.8379 C12.3968,6.6279 12.2178,5.4979 11.9238,4.4999 C12.5498,4.4169 13.1658,4.3129 13.7718,4.1889 C14.5158,5.2319 14.9848,6.4839 15.0688,7.8379 L15.0688,7.8379 Z M13.7708,12.3689 C13.1658,12.2449 12.5498,12.1409 11.9238,12.0579 C12.2168,11.0609 12.3968,9.9299 12.4318,8.7199 L15.0688,8.7199 C14.9848,10.0749 14.5158,11.3269 13.7708,12.3689 L13.7708,12.3689 Z M10.5068,14.8819 C10.9458,14.3539 11.3258,13.6849 11.6308,12.9089 C12.1378,12.9739 12.6398,13.0499 13.1328,13.1409 C12.4048,13.9029 11.5108,14.5049 10.5068,14.8819 L10.5068,14.8819 Z M8.4718,15.2719 L8.4718,12.6919 C9.2278,12.7029 9.9738,12.7429 10.7078,12.8109 C10.1468,14.1259 9.3548,15.0399 8.4718,15.2719 L8.4718,15.2719 Z M8.4718,8.7199 L11.5488,8.7199 C11.5108,9.8909 11.3228,10.9949 11.0228,11.9529 C10.1868,11.8699 9.3348,11.8229 8.4718,11.8109 L8.4718,8.7199 Z M8.4718,4.7469 C9.3348,4.7349 10.1868,4.6889 11.0228,4.6049 C11.3228,5.5639 11.5108,6.6669 11.5488,7.8379 L8.4718,7.8379 L8.4718,4.7469 Z M8.4718,1.2859 C9.3548,1.5179 10.1468,2.4329 10.7078,3.7479 C9.9738,3.8159 9.2278,3.8549 8.4718,3.8649 L8.4718,1.2859 Z M13.1328,3.4169 C12.6398,3.5079 12.1388,3.5849 11.6308,3.6489 C11.3258,2.8729 10.9458,2.2039 10.5068,1.6759 C11.5108,2.0539 12.4048,2.6539 13.1328,3.4169 L13.1328,3.4169 Z M7.5898,3.8649 C6.8348,3.8549 6.0888,3.8159 5.3538,3.7479 C5.9148,2.4329 6.7068,1.5179 7.5898,1.2859 L7.5898,3.8649 Z M7.5898,7.8379 L4.5128,7.8379 C4.5508,6.6669 4.7388,5.5629 5.0398,4.6049 C5.8758,4.6889 6.7278,4.7339 7.5898,4.7469 L7.5898,7.8379 Z M7.5898,11.8109 C6.7278,11.8229 5.8758,11.8699 5.0398,11.9529 C4.7388,10.9949 4.5508,9.8909 4.5128,8.7199 L7.5898,8.7199 L7.5898,11.8109 Z M7.5898,15.2719 C6.7068,15.0399 5.9148,14.1259 5.3538,12.8109 C6.0888,12.7429 6.8348,12.7029 7.5898,12.6919 L7.5898,15.2719 Z M2.9288,13.1409 C3.4228,13.0499 3.9228,12.9739 4.4308,12.9089 C4.7358,13.6849 5.1158,14.3539 5.5558,14.8819 C4.5508,14.5049 3.6568,13.9029 2.9288,13.1409 L2.9288,13.1409 Z M2.2908,12.3689 C1.5458,11.3269 1.0778,10.0749 0.9928,8.7199 L3.6298,8.7199 C3.6648,9.9309 3.8438,11.0609 4.1378,12.0579 C3.5118,12.1409 2.8958,12.2459 2.2908,12.3689 L2.2908,12.3689 Z M2.2908,4.1889 C2.8958,4.3129 3.5118,4.4169 4.1378,4.4999 C3.8438,5.4979 3.6648,6.6279 3.6298,7.8379 L0.9928,7.8379 C1.0778,6.4839 1.5458,5.2319 2.2908,4.1889 L2.2908,4.1889 Z M5.5558,1.6759 C5.1158,2.2039 4.7358,2.8729 4.4308,3.6489 C3.9238,3.5849 3.4228,3.5079 2.9288,3.4169 C3.6568,2.6539 4.5508,2.0539 5.5558,1.6759 L5.5558,1.6759 Z M8.0308,0.3449 C3.6558,0.3449 0.0968,3.9039 0.0968,8.2789 C0.0968,12.6539 3.6558,16.2129 8.0308,16.2129 C12.4058,16.2129 15.9648,12.6539 15.9648,8.2789 C15.9648,3.9039 12.4058,0.3449 8.0308,0.3449 L8.0308,0.3449 Z" id="Fill-1058"></path>
                </g>
            </g>
        </g>
    </g>
</svg>