<?xml version="1.0" encoding="UTF-8" standalone="no"?>
<svg xmlns="http://www.w3.org/2000/svg" width="100" height="125" viewBox="0 0 100 125">
    <path fill="#fff" d="M62.4 15.5H21.9c-3.1 0-5.6 2.5-5.6 5.6v78.7c0 3.1 2.5 5.6 5.6 5.6h56.2c3.1 0 5.6-2.5 5.6-5.6v-63L62.4 15.5zm-1.2 6.8L77 38H61.2V22.3zm16.9 77.6H21.9V21.1h33.8V38c0 3.1 2.5 5.6 5.6 5.6h16.9v56.3z"/>
    <path fill="#fff" d="M52.8 56.3c0-.8-.6-1.4-1.4-1.4h-2.8c-.8 0-1.4.6-1.4 1.4v22.2L37 68.3c-.5-.6-1.4-.6-2 0l-2 2c-.6.5-.6 1.4 0 2l16 15.9c.3.3.6.4 1 .4h.3c.3-.1.5-.2.7-.4l15.9-15.9c.6-.5.6-1.4 0-2l-2-2c-.5-.6-1.4-.6-2 0L52.8 78.4V56.3z"/>
</svg>
