<?xml version="1.0" encoding="utf-8"?>
<!-- Generator: Adobe Illustrator 21.0.0, SVG Export Plug-In . SVG Version: 6.00 Build 0)  -->
<svg version="1.1" id="Capa_1" xmlns="http://www.w3.org/2000/svg" xmlns:xlink="http://www.w3.org/1999/xlink" x="0px" y="0px"
	 viewBox="0 0 50 50" style="enable-background:new 0 0 50 50;" xml:space="preserve">
<style type="text/css">
	.st0{fill:#B0B0B0;}
</style>
<path class="st0" d="M24.5,14.5c-5.9,0-10.6,4.8-10.6,10.6s4.8,10.6,10.6,10.6s10.6-4.8,10.6-10.6S30.4,14.5,24.5,14.5z M21.2,16.3
	c-0.6,0.7-1.1,1.6-1.5,2.6c-0.7-0.1-1.4-0.2-2-0.3C18.6,17.6,19.8,16.8,21.2,16.3z M16.8,19.7c0.8,0.2,1.6,0.3,2.5,0.4
	c-0.4,1.3-0.6,2.9-0.7,4.5h-3.5C15.2,22.8,15.8,21.1,16.8,19.7z M16.8,30.7c-1-1.4-1.6-3.1-1.7-4.9h3.5c0,1.6,0.3,3.1,0.7,4.5
	C18.4,30.4,17.6,30.5,16.8,30.7z M17.6,31.7c0.7-0.1,1.3-0.2,2-0.3c0.4,1,0.9,1.9,1.5,2.6C19.8,33.5,18.6,32.7,17.6,31.7z
	 M23.9,34.6c-1.2-0.3-2.2-1.5-3-3.3c1-0.1,2-0.1,3-0.2V34.6z M23.9,29.9c-1.2,0-2.3,0.1-3.4,0.2c-0.4-1.3-0.7-2.8-0.7-4.3h4.1V29.9z
	 M23.9,24.6h-4.1c0.1-1.6,0.3-3.1,0.7-4.3c1.1,0.1,2.3,0.2,3.4,0.2L23.9,24.6L23.9,24.6z M23.9,19.3c-1,0-2-0.1-3-0.2
	c0.8-1.8,1.8-3,3-3.3V19.3z M31.3,18.7c-0.7,0.1-1.3,0.2-2,0.3c-0.4-1-0.9-1.9-1.5-2.6C29.2,16.8,30.4,17.6,31.3,18.7z M25.1,15.8
	c1.2,0.3,2.2,1.5,3,3.3c-1,0.1-2,0.1-3,0.2V15.8z M25.1,20.4c1.2,0,2.3-0.1,3.4-0.2c0.4,1.3,0.7,2.8,0.7,4.3h-4.1V20.4z M25.1,25.8
	h4.1c-0.1,1.6-0.3,3.1-0.7,4.3c-1.1-0.1-2.3-0.2-3.4-0.2L25.1,25.8L25.1,25.8z M25.1,34.6v-3.5c1,0,2,0.1,3,0.2
	C27.3,33,26.3,34.3,25.1,34.6z M27.8,34c0.6-0.7,1.1-1.6,1.5-2.6c0.7,0.1,1.4,0.2,2,0.3C30.4,32.7,29.2,33.5,27.8,34z M32.2,30.7
	c-0.8-0.2-1.6-0.3-2.5-0.4c0.4-1.3,0.6-2.9,0.7-4.5h3.5C33.8,27.6,33.2,29.3,32.2,30.7z M33.9,24.6h-3.5c0-1.6-0.3-3.1-0.7-4.5
	c0.8-0.1,1.7-0.3,2.5-0.4C33.2,21.1,33.8,22.8,33.9,24.6z"/>
</svg>
