<?xml version="1.0" encoding="UTF-8" standalone="no"?>
<svg width="9px" height="10px" viewBox="0 0 9 10" version="1.1" xmlns="http://www.w3.org/2000/svg" xmlns:xlink="http://www.w3.org/1999/xlink">
    <!-- Generator: Sketch 47 (45396) - http://www.bohemiancoding.com/sketch -->
    <title>Fill 1079</title>
    <desc>Created with Sketch.</desc>
    <defs></defs>
    <g id="Symbols" stroke="none" stroke-width="1" fill="none" fill-rule="evenodd">
        <g id="icon-profile-producto" transform="translate(-8.000000, -7.000000)" fill="#FF7474">
            <path d="M12.6846,15.6094 L12.6846,11.7144 L14.0626,11.0514 L14.0626,11.9554 L14.6136,11.6784 L14.6136,10.7864 L15.7156,10.2554 L15.7156,14.0934 L12.6846,15.6094 Z M9.1026,10.2554 L12.1326,11.7144 L12.1326,15.6094 L9.1026,14.0934 L9.1026,10.2554 Z M12.4096,11.2354 L9.2776,9.7274 L10.5826,9.0754 L13.7396,10.5944 L12.4096,11.2354 Z M15.5396,9.7274 L14.3746,10.2894 L11.2056,8.7624 L12.4096,8.1624 L15.5396,9.7274 Z M12.4096,7.5464 L8.5506,9.4744 L8.5506,14.4344 L12.4096,16.3634 L16.2666,14.4344 L16.2666,9.4744 L12.4096,7.5464 Z" id="Fill-1079"></path>
        </g>
    </g>
</svg>