<?xml version="1.0" encoding="utf-8"?>
<!-- Generator: Adobe Illustrator 21.0.0, SVG Export Plug-In . SVG Version: 6.00 Build 0)  -->
<svg version="1.1" id="Capa_1" xmlns="http://www.w3.org/2000/svg" xmlns:xlink="http://www.w3.org/1999/xlink" x="0px" y="0px"
	 viewBox="0 0 50 50" style="enable-background:new 0 0 50 50;" xml:space="preserve">
<style type="text/css">
	.st0{fill:#B0B0B0;}
</style>
<path class="st0" d="M38.8,37.3V21.2l-6.3,3.2v-3.2l-6.2,3.2v-3.4l-6.2,4L19,15.8h-5.2l-2.1,21.5h-1.6v1.6h30.3v-1.6H38.8z
	 M13.3,37.3l1.9-19.8h2.3l2.3,19.8H13.3z M37.2,37.3H21.4l-1.2-10.4l4.4-2.8v3.1l6.2-3.2V27l6.3-3.2V37.3z M29.7,34.5h5.4v-5h-5.4
	V34.5z M31.3,31.2h2.2v1.7h-2.2V31.2z M19.9,11.7h5.5c2.3,0,4.1-1.8,4.1-4.1h-1.6c0,1.4-1.1,2.5-2.5,2.5h-5.5
	c-2.3,0-4.1,1.8-4.1,4.1h1.6C17.4,12.9,18.5,11.7,19.9,11.7z M22.8,34.5h5.4v-5h-5.4V34.5z M24.4,31.2h2.2v1.7h-2.2V31.2z"/>
</svg>
