<?xml version="1.0" encoding="utf-8"?>
<!-- Generator: Adobe Illustrator 21.0.0, SVG Export Plug-In . SVG Version: 6.00 Build 0)  -->
<svg version="1.1" id="Capa_1" xmlns="http://www.w3.org/2000/svg" xmlns:xlink="http://www.w3.org/1999/xlink" x="0px" y="0px"
	 viewBox="0 0 50 50" style="enable-background:new 0 0 50 50;" xml:space="preserve">
<style type="text/css">
	.st0{fill:#B0B0B0;}
</style>
<g>
	<path class="st0" d="M42,14.7L31.4,4.2C31.3,4,31,3.9,30.8,3.9H8.7c-0.5,0-1,0.4-1,1v40.3c0,0.5,0.4,1,1,1h32.6c0.5,0,1-0.4,1-1
		V15.4C42.3,15.1,42.2,14.9,42,14.7z M31.7,7.2l7.3,7.3h-7.3V7.2z M9.6,44.2V5.8h20.2v9.6c0,0.5,0.4,1,1,1h9.6v27.8H9.6z"/>
	<path class="st0" d="M33.6,21.2H16.4c-0.5,0-1,0.4-1,1v14.4c0,0.5,0.4,1,1,1h17.3c0.5,0,1-0.4,1-1V22.1
		C34.6,21.6,34.2,21.2,33.6,21.2z M32.7,26h-9.6v-2.9h9.6V26z M17.3,27.9h3.8v2.9h-3.8V27.9z M23.1,27.9h9.6v2.9h-9.6V27.9z
		 M21.2,23.1V26h-3.8v-2.9H21.2z M17.3,32.7h3.8v2.9h-3.8V32.7z M23.1,35.6v-2.9h9.6v2.9H23.1z"/>
</g>
</svg>
