<?xml version="1.0" encoding="UTF-8" standalone="no"?>
<svg width="28px" height="18px" viewBox="0 0 28 18" version="1.1" xmlns="http://www.w3.org/2000/svg" xmlns:xlink="http://www.w3.org/1999/xlink">
    <!-- Generator: Sketch 47.1 (45422) - http://www.bohemiancoding.com/sketch -->
    <title>ico-institution-color</title>
    <desc>Created with Sketch.</desc>
    <defs></defs>
    <g id="iconos-navegacion-slides-ilustrados-home" stroke="none" stroke-width="1" fill="none" fill-rule="evenodd">
        <g id="iconos-slides-nav-home" transform="translate(-630.000000, -42.000000)" fill="#7777ED">
            <g id="icons-type-profile-slides" transform="translate(61.000000, 34.000000)">
                <g id="ico-institution-color" transform="translate(569.000000, 8.000000)">
                    <path d="M7.293,8.5273 L13.754,10.8093 C13.913,10.8643 14.085,10.8643 14.243,10.8093 L20.705,8.5273 L20.705,14.4063 C20.705,14.4303 20.686,14.5483 20.414,14.7563 C20.142,14.9643 19.66,15.1963 19.04,15.3963 C17.799,15.7973 15.998,16.0713 13.999,16.0713 C12,16.0713 10.198,15.7973 8.958,15.3963 C8.337,15.1963 7.855,14.9643 7.584,14.7563 C7.312,14.5483 7.293,14.4303 7.293,14.4063 L7.293,8.5273 Z M13.999,1.9493 L24.419,5.6283 L13.999,9.3193 L3.567,5.6393 L13.999,1.9493 Z M13.882,0.4233 C13.839,0.4313 13.796,0.4433 13.754,0.4593 L1.087,4.9293 C0.698,5.0643 0.492,5.4883 0.626,5.8783 C0.701,6.0933 0.871,6.2633 1.087,6.3393 L5.803,8.0033 L5.803,14.4063 C5.803,15.0493 6.195,15.5633 6.676,15.9313 C7.156,16.2993 7.766,16.5823 8.492,16.8163 C9.945,17.2863 11.87,17.5613 13.999,17.5613 C16.127,17.5613 18.053,17.2863 19.506,16.8163 C20.232,16.5823 20.841,16.2993 21.322,15.9313 C21.802,15.5633 22.195,15.0493 22.195,14.4063 L22.195,8.0033 L25.92,6.6873 L25.92,10.4833 C25.915,10.8943 26.244,11.2333 26.655,11.2393 C27.067,11.2453 27.405,10.9163 27.411,10.5043 C27.411,10.5043 27.411,10.4903 27.411,10.4833 L27.411,5.6393 C27.414,5.3203 27.212,5.0353 26.91,4.9293 L14.243,0.4593 C14.128,0.4183 14.004,0.4063 13.882,0.4233 L13.882,0.4233 Z" id="Fill-149"></path>
                </g>
            </g>
        </g>
    </g>
</svg>