<?xml version="1.0" encoding="UTF-8" standalone="no"?>
<svg xmlns="http://www.w3.org/2000/svg" width="25" height="25">
    <g fill="none" fill-rule="evenodd">
        <path fill="#708BBB" d="M24.8 12.5a12.1 12.1 0 1 1-24.3 0 12.1 12.1 0 0 1 24.3 0"/>
        <path fill="#FFF" d="M12.7 12.9a.8.8 0 0 1-.9-.8c0-.5.4-.8.9-.8.4 0 .8.3.8.8 0 .4-.4.8-.8.8m0-2.7c-1 0-2 .9-2 1.9 0 1 1 1.8 2 1.8s1.8-.8 1.8-1.8-.8-1.9-1.8-1.9"/>
        <path fill="#FFF" d="M15.2 14.3L12.7 17 10 14.3a3.4 3.4 0 1 1 6-2.2c0 .8-.4 1.6-.9 2.2m-2.5-6.7A4.4 4.4 0 0 0 9.3 15l3 3 .4.1.3-.1 3-3a4.5 4.5 0 0 0-3.3-7.4"/>
    </g>
</svg>
