<?xml version="1.0" encoding="utf-8"?>
<!-- Generator: Adobe Illustrator 21.0.0, SVG Export Plug-In . SVG Version: 6.00 Build 0)  -->
<svg version="1.1" id="Capa_1" xmlns="http://www.w3.org/2000/svg" xmlns:xlink="http://www.w3.org/1999/xlink" x="0px" y="0px"
	 viewBox="0 0 50 50" style="enable-background:new 0 0 50 50;" xml:space="preserve">
<style type="text/css">
	.st0{fill:#B0B0B0;}
</style>
<path class="st0" d="M24.5,19.4c-2.3,0-4.3,1.9-4.3,4.1s1.9,4.1,4.3,4.1c2.3,0,4.3-1.9,4.3-4.1S26.8,19.4,24.5,19.4z M24.5,25.3
	c-1,0-1.9-0.8-1.9-1.8s0.8-1.8,1.9-1.8c1,0,1.9,0.8,1.9,1.8S25.5,25.3,24.5,25.3z"/>
<path class="st0" d="M24.5,13.7c-5.6,0-10.2,4.4-10.2,9.8c0,2.4,0.9,4.7,2.6,6.5c0,0,0,0,0.1,0.1l6.7,6.5c0.2,0.2,0.5,0.4,0.9,0.4
	c0.3,0,0.6-0.1,0.9-0.4l6.7-6.5c0,0,0,0,0.1-0.1c1.7-1.8,2.6-4.1,2.6-6.5C34.7,18.1,30.1,13.7,24.5,13.7z M30.4,28.5l-5.9,5.7
	l-5.9-5.7c-1.3-1.4-2-3.1-2-5c0-4.1,3.5-7.5,7.8-7.5s7.8,3.4,7.8,7.5C32.3,25.3,31.6,27.1,30.4,28.5z"/>
</svg>
