<?xml version="1.0" encoding="utf-8"?>
<!-- Generator: Adobe Illustrator 21.0.0, SVG Export Plug-In . SVG Version: 6.00 Build 0)  -->
<svg version="1.1" id="Capa_1" xmlns="http://www.w3.org/2000/svg" xmlns:xlink="http://www.w3.org/1999/xlink" x="0px" y="0px"
	 viewBox="0 0 40 40" style="enable-background:new 0 0 40 40;" xml:space="preserve">
<style type="text/css">
	.st0{fill:#B0B0B0;}
</style>
<path class="st0" d="M31.7,31.5V17.4l-5.5,2.8v-2.8l-5.5,2.9v-3l-5.5,3.5l-0.9-8.2H9.7L7.9,31.5H6.5v1.4h26.6v-1.4H31.7z M9.3,31.5
	L11,14.1h2l2,17.4H9.3z M30.3,31.5H16.5l-1-9.1l3.9-2.5v2.7l5.5-2.9v2.7l5.5-2.8V31.5z M23.7,29.1h4.8v-4.4h-4.8V29.1z M25.2,26.1
	h1.9v1.5h-1.9V26.1z M15.1,9.1h4.8c2,0,3.6-1.6,3.6-3.6h-1.4c0,1.2-1,2.2-2.2,2.2h-4.8c-2,0-3.6,1.6-3.6,3.6h1.4
	C12.9,10.1,13.9,9.1,15.1,9.1z M17.6,29.1h4.8v-4.4h-4.8V29.1z M19.1,26.1H21v1.5h-1.9V26.1z"/>
</svg>
