<?xml version="1.0" encoding="UTF-8" standalone="no"?>
<svg width="13px" height="11px" viewBox="0 0 13 11" version="1.1" xmlns="http://www.w3.org/2000/svg" xmlns:xlink="http://www.w3.org/1999/xlink">
    <!-- Generator: Sketch 47 (45396) - http://www.bohemiancoding.com/sketch -->
    <title>Group</title>
    <desc>Created with Sketch.</desc>
    <defs></defs>
    <g id="Symbols" stroke="none" stroke-width="1" fill="none" fill-rule="evenodd">
        <g id="icon-profile-industrias" transform="translate(-6.000000, -6.000000)" fill="#2A8090">
            <g id="Group" transform="translate(6.000000, 6.000000)">
                <path d="M11.7119,10.1504 L0.7429,10.1504 L0.7429,3.2214 L2.4749,3.2214 L2.4749,6.9744 C2.4749,7.0754 2.5259,7.1674 2.6109,7.2204 C2.6969,7.2734 2.8039,7.2774 2.8929,7.2334 L7.0939,5.1314 L7.0939,6.9744 C7.0939,7.0754 7.1459,7.1674 7.2309,7.2204 C7.3159,7.2734 7.4219,7.2774 7.5119,7.2334 L11.7119,5.1314 L11.7119,10.1504 Z M0.7439,2.6444 L2.4749,2.6444 L2.4749,1.4904 L0.7439,1.4904 L0.7439,2.6444 Z M12.1519,4.4204 C12.0669,4.3664 11.9609,4.3624 11.8709,4.4074 L7.6709,6.5074 L7.6709,4.5604 C7.6709,4.4614 7.6189,4.3684 7.5339,4.3154 C7.4479,4.2614 7.3429,4.2574 7.2529,4.3024 L3.0519,6.4034 L3.0519,1.2014 C3.0519,1.0424 2.9229,0.9124 2.7639,0.9124 L0.4539,0.9124 C0.2949,0.9124 0.1649,1.0424 0.1649,1.2014 L0.1649,10.4384 C0.1649,10.5974 0.2949,10.7274 0.4539,10.7274 L12.0009,10.7274 C12.1599,10.7274 12.2889,10.5974 12.2889,10.4384 L12.2889,4.6654 C12.2889,4.5654 12.2369,4.4724 12.1519,4.4204 L12.1519,4.4204 Z" id="Fill-1069"></path>
                <path d="M3.918,7.7363 C3.759,7.7363 3.63,7.8653 3.63,8.0243 L3.63,8.6023 C3.63,8.7613 3.759,8.8903 3.918,8.8903 C4.077,8.8903 4.207,8.7613 4.207,8.6023 L4.207,8.0243 C4.207,7.8653 4.077,7.7363 3.918,7.7363" id="Fill-1071"></path>
                <path d="M5.3614,8.0243 L5.3614,8.6023 C5.3614,8.7613 5.4914,8.8903 5.6504,8.8903 C5.8094,8.8903 5.9384,8.7613 5.9384,8.6023 L5.9384,8.0243 C5.9384,7.8653 5.8094,7.7363 5.6504,7.7363 C5.4914,7.7363 5.3614,7.8653 5.3614,8.0243 Z" id="Fill-1073"></path>
                <path d="M8.5371,8.8906 C8.6961,8.8906 8.8251,8.7616 8.8251,8.6026 L8.8251,8.0246 C8.8251,7.8656 8.6961,7.7366 8.5371,7.7366 C8.3771,7.7366 8.2481,7.8656 8.2481,8.0246 L8.2481,8.6026 C8.2481,8.7616 8.3771,8.8906 8.5371,8.8906" id="Fill-1075"></path>
                <path d="M10.2686,8.8906 C10.4286,8.8906 10.5576,8.7616 10.5576,8.6026 L10.5576,8.0246 C10.5576,7.8656 10.4286,7.7366 10.2686,7.7366 C10.1096,7.7366 9.9806,7.8656 9.9806,8.0246 L9.9806,8.6026 C9.9806,8.7616 10.1096,8.8906 10.2686,8.8906" id="Fill-1077"></path>
            </g>
        </g>
    </g>
</svg>