<?xml version="1.0" encoding="UTF-8" standalone="no"?>
<svg width="25px" height="25px" viewBox="0 0 25 25" version="1.1" xmlns="http://www.w3.org/2000/svg" xmlns:xlink="http://www.w3.org/1999/xlink">
    <!-- Generator: Sketch 42 (36781) - http://www.bohemiancoding.com/sketch -->
    <title>icon-location-resultado</title>
    <desc>Created with Sketch.</desc>
    <defs></defs>
    <g id="buscador-detalle" stroke="none" stroke-width="1" fill="none" fill-rule="evenodd">
        <g id="home-buscador" transform="translate(-564.000000, -569.000000)">
            <g id="resultados-buscador" transform="translate(1.000000, 0.000000)">
                <g id="icon-location-resultado" transform="translate(563.000000, 569.000000)">
                    <path d="M24.8984,12.7715 C24.8984,19.4645 19.4714,24.8905 12.7784,24.8905 C6.0854,24.8905 0.6584,19.4645 0.6584,12.7715 C0.6584,6.0775 6.0854,0.6515 12.7784,0.6515 C19.4714,0.6515 24.8984,6.0775 24.8984,12.7715" id="Fill-919" fill="#CAD3E4"></path>
                    <path d="M12.7783,13.1807 C12.3273,13.1807 11.9693,12.8227 11.9693,12.3717 C11.9693,11.9207 12.3273,11.5627 12.7783,11.5627 C13.2293,11.5627 13.5883,11.9207 13.5883,12.3717 C13.5883,12.8227 13.2153,13.1807 12.7783,13.1807 M12.7783,10.5147 C11.7573,10.5147 10.9213,11.3507 10.9213,12.3717 C10.9213,13.3927 11.7573,14.2287 12.7783,14.2287 C13.7993,14.2287 14.6353,13.3927 14.6353,12.3717 C14.6353,11.3507 13.7993,10.5147 12.7783,10.5147" id="Fill-920" fill="#89194E"></path>
                    <path d="M15.3252,14.6133 L12.7782,17.1733 L10.2312,14.6133 C9.6872,13.9903 9.3832,13.1943 9.3832,12.3723 C9.3832,10.5013 10.9082,8.9753 12.7782,8.9753 C14.6482,8.9753 16.1742,10.5013 16.1742,12.3723 C16.1742,13.1943 15.8692,13.9903 15.3252,14.6133 M12.7782,7.9273 C10.3242,7.9273 8.3352,9.9183 8.3352,12.3723 C8.3352,13.4593 8.7322,14.5073 9.4622,15.3163 C9.4752,15.3303 9.4752,15.3303 9.4892,15.3423 L12.4202,18.2743 C12.5122,18.3673 12.6452,18.4333 12.7922,18.4333 C12.9242,18.4333 13.0562,18.3813 13.1632,18.2743 L16.0952,15.3423 L16.1212,15.3163 C16.8502,14.5073 17.2482,13.4593 17.2482,12.3723 C17.2092,9.9183 15.2192,7.9273 12.7782,7.9273" id="Fill-921" fill="#708BBB"></path>
                </g>
            </g>
        </g>
    </g>
</svg>