<?xml version="1.0" encoding="UTF-8" standalone="no"?>
<svg width="10px" height="12px" viewBox="0 0 10 12" version="1.1" xmlns="http://www.w3.org/2000/svg" xmlns:xlink="http://www.w3.org/1999/xlink">
    <!-- Generator: Sketch 47 (45396) - http://www.bohemiancoding.com/sketch -->
    <title>icon-perfil-geo-nav</title>
    <desc>Created with Sketch.</desc>
    <defs></defs>
    <g id="home-geo" stroke="none" stroke-width="1" fill="none" fill-rule="evenodd">
        <g transform="translate(-233.000000, -804.000000)" id="navegacion-slides" fill="#708BBB">
            <g transform="translate(218.000000, 757.000000)">
                <g id="icon-perfil-geo-nav" transform="translate(15.000000, 47.000000)">
                    <path d="M5.0649,5.8906 C5.5319,5.8906 5.9289,5.5086 5.9289,5.0276 C5.9289,4.5446 5.5459,4.1626 5.0649,4.1626 C4.5829,4.1626 4.2009,4.5446 4.2009,5.0276 C4.2009,5.5086 4.5829,5.8906 5.0649,5.8906 Z M5.0649,3.0436 C6.1549,3.0436 7.0479,3.9366 7.0479,5.0276 C7.0479,6.1176 6.1549,7.0096 5.0649,7.0096 C3.9739,7.0096 3.0819,6.1176 3.0819,5.0276 C3.0819,3.9366 3.9739,3.0436 5.0649,3.0436 Z" id="Fill-1026"></path>
                    <path d="M7.7842,7.4209 L5.0652,10.1539 L2.3452,7.4209 C1.7642,6.7549 1.4382,5.9049 1.4382,5.0269 C1.4382,3.0289 3.0672,1.3999 5.0652,1.3999 C7.0622,1.3999 8.6912,3.0289 8.6912,5.0269 C8.6912,5.9049 8.3652,6.7549 7.7842,7.4209 M5.0652,0.2819 C2.4442,0.2819 0.3202,2.4059 0.3202,5.0269 C0.3202,6.1889 0.7442,7.3079 1.5232,8.1719 C1.5372,8.1859 1.5372,8.1859 1.5522,8.1999 L4.6822,11.3299 C4.7812,11.4299 4.9232,11.4999 5.0792,11.4999 C5.2212,11.4999 5.3622,11.4429 5.4752,11.3299 L8.6062,8.1999 C8.6202,8.1859 8.6202,8.1859 8.6342,8.1719 C9.4132,7.3079 9.8382,6.1889 9.8382,5.0269 C9.7962,2.4059 7.6712,0.2819 5.0652,0.2819" id="Fill-1028"></path>
                </g>
            </g>
        </g>
    </g>
</svg>