<?xml version="1.0" encoding="utf-8"?>
<!-- Generator: Adobe Illustrator 21.0.0, SVG Export Plug-In . SVG Version: 6.00 Build 0)  -->
<svg version="1.1" id="Capa_1" xmlns="http://www.w3.org/2000/svg" xmlns:xlink="http://www.w3.org/1999/xlink" x="0px" y="0px"
	 viewBox="0 0 50 50" style="enable-background:new 0 0 50 50;" xml:space="preserve">
<style type="text/css">
	.st0{fill:#B0B0B0;}
</style>
<g transform="translate(0,-952.36218)">
	<path class="st0" d="M24.2,969.1c0,0-0.1,0-0.1,0l-13.6,4.8c-0.4,0.1-0.6,0.6-0.5,1c0.1,0.2,0.3,0.4,0.5,0.5l5.1,1.8v6.9
		c0,0.7,0.4,1.2,0.9,1.6c0.5,0.4,1.2,0.7,1.9,0.9c1.6,0.5,3.6,0.8,5.9,0.8s4.4-0.3,5.9-0.8c0.8-0.3,1.4-0.6,1.9-0.9
		c0.5-0.4,0.9-0.9,0.9-1.6v-6.9l4-1.4v4.1c0,0.4,0.3,0.8,0.8,0.8c0.4,0,0.8-0.3,0.8-0.8c0,0,0,0,0,0v-5.2c0-0.3-0.2-0.6-0.5-0.8
		l-13.6-4.8C24.4,969.1,24.3,969.1,24.2,969.1z M24.3,970.7l11.2,3.9l-11.2,4l-11.2-3.9L24.3,970.7z M17.1,977.8l6.9,2.4
		c0.2,0.1,0.4,0.1,0.5,0l6.9-2.4v6.3c0,0,0,0.2-0.3,0.4c-0.3,0.2-0.8,0.5-1.5,0.7c-1.3,0.4-3.3,0.7-5.4,0.7s-4.1-0.3-5.4-0.7
		c-0.7-0.2-1.2-0.5-1.5-0.7c-0.3-0.2-0.3-0.3-0.3-0.4V977.8z"/>
</g>
</svg>
