<?xml version="1.0" encoding="UTF-8" standalone="no"?>
<svg width="15px" height="15px" viewBox="0 0 15 15" version="1.1" xmlns="http://www.w3.org/2000/svg" xmlns:xlink="http://www.w3.org/1999/xlink">
    <!-- Generator: Sketch 42 (36781) - http://www.bohemiancoding.com/sketch -->
    <title>icon-lupa</title>
    <desc>Created with Sketch.</desc>
    <defs></defs>
    <g id="buscador-detalle" stroke="none" stroke-width="1" fill="none" fill-rule="evenodd">
        <g id="home-buscador" transform="translate(-557.000000, -492.000000)" fill="#708BBB">
            <g id="buscador" transform="translate(522.000000, 464.000000)">
                <g id="icon-lupa" transform="translate(35.000000, 28.000000)">
                    <path d="M8.811,0.1162 C5.381,0.1162 2.601,2.8972 2.601,6.3022 C2.601,9.7062 5.381,12.4872 8.811,12.4872 C12.238,12.4872 15.019,9.7062 15.019,6.3022 C15.019,2.8972 12.238,0.1162 8.811,0.1162 M8.811,1.5062 C11.447,1.5062 13.606,3.6632 13.606,6.3022 C13.606,8.9372 11.447,11.0952 8.811,11.0952 C6.172,11.0952 4.015,8.9372 4.015,6.3022 C4.015,3.6632 6.146,1.5062 8.811,1.5062" id="Fill-13"></path>
                    <path d="M1.5947,14.5254 C1.3297,14.5254 1.0657,14.4264 0.8737,14.2364 C0.4687,13.8294 0.4687,13.1824 0.8737,12.7974 L3.7747,9.8974 C4.1827,9.4884 4.8297,9.4884 5.2147,9.8974 C5.6207,10.3054 5.6207,10.9544 5.2147,11.3364 L2.3127,14.2124 C2.1207,14.4264 1.8567,14.5254 1.5947,14.5254" id="Fill-15"></path>
                </g>
            </g>
        </g>
    </g>
</svg>