<?xml version="1.0" encoding="UTF-8" standalone="no"?>
<svg width="16px" height="14px" viewBox="0 0 16 14" version="1.1" xmlns="http://www.w3.org/2000/svg" xmlns:xlink="http://www.w3.org/1999/xlink">
    <!-- Generator: Sketch 43.1 (39012) - http://www.bohemiancoding.com/sketch -->
    <title>icon-camera-source</title>
    <desc>Created with Sketch.</desc>
    <defs></defs>
    <g id="Perfil-pais-seccion-economia" stroke="none" stroke-width="1" fill="none" fill-rule="evenodd">
        <g id="perfil-pais-economia" transform="translate(-111.000000, -877.000000)" stroke="#708BBB" fill="#708BBB">
            <g id="fuente-imagen-header" transform="translate(111.000000, 877.000000)">
                <g id="icon-camera-source">
                    <path d="M8,5.5596 C9.329,5.5596 10.401,6.6316 10.401,7.9596 C10.401,9.2886 9.329,10.3616 8,10.3616 C6.671,10.3616 5.599,9.2886 5.599,7.9596 C5.599,6.6316 6.671,5.5596 8,5.5596 L8,5.5596 Z M8,5.0796 C6.412,5.0796 5.119,6.3716 5.119,7.9596 C5.119,9.5486 6.412,10.8416 8,10.8416 C9.588,10.8416 10.881,9.5486 10.881,7.9596 C10.881,6.3716 9.588,5.0796 8,5.0796 L8,5.0796 Z M5.989,1.4776 L10.011,1.4776 L10.904,3.2636 C10.943,3.3446 11.031,3.3996 11.121,3.3986 L13.815,3.3986 C14.321,3.3986 14.723,3.7996 14.723,4.3136 L14.723,11.6076 C14.723,12.1216 14.321,12.5226 13.815,12.5226 L2.185,12.5226 C1.679,12.5226 1.277,12.1216 1.277,11.6076 L1.277,4.3136 C1.277,3.7996 1.679,3.3986 2.185,3.3986 L4.879,3.3986 C4.969,3.3996 5.057,3.3446 5.096,3.2636 L5.989,1.4776 Z M5.839,0.9976 C5.728,0.9976 5.653,1.0736 5.622,1.1246 L4.729,2.9176 L2.185,2.9176 C1.42,2.9176 0.797,3.5436 0.797,4.3136 L0.797,11.6076 C0.797,12.3766 1.42,13.0026 2.185,13.0026 L13.815,13.0026 C14.58,13.0026 15.203,12.3766 15.203,11.6076 L15.203,4.3136 C15.203,3.5436 14.58,2.9176 13.815,2.9176 L11.271,2.9176 L10.378,1.1246 C10.337,1.0466 10.25,0.9956 10.161,0.9976 L5.839,0.9976 Z" id="Fill-260"></path>
                </g>
            </g>
        </g>
    </g>
</svg>