<?xml version="1.0" encoding="utf-8"?>
<!-- Generator: Adobe Illustrator 21.0.0, SVG Export Plug-In . SVG Version: 6.00 Build 0)  -->
<svg version="1.1" id="Capa_1" xmlns="http://www.w3.org/2000/svg" xmlns:xlink="http://www.w3.org/1999/xlink" x="0px" y="0px"
	 viewBox="0 0 50 50" style="enable-background:new 0 0 50 50;" xml:space="preserve">
<style type="text/css">
	.st0{fill:#B0B0B0;}
</style>
<g>
	<g>
		<g>
			<g>
				<path class="st0" d="M27.9,10.5c0-2.7-2.2-5-5-5s-5,2.2-5,5s2.2,5,5,5S27.9,13.3,27.9,10.5z M19.3,10.5c0-2,1.6-3.6,3.6-3.6
					s3.6,1.6,3.6,3.6s-1.6,3.6-3.6,3.6S19.3,12.5,19.3,10.5z"/>
				<path class="st0" d="M21,44.1h3.9c1.6,0,3-1.3,3-3v-1h6.2c0.7,0,1.3-0.6,1.3-1.3v-7.3c0-0.7-0.6-1.3-1.3-1.3h-3.7v-7.9
					c0-3.1-2.5-5.6-5.6-5.6h-3.7c-3.1,0-5.6,2.5-5.6,5.6v8.2c0,1.5,1.1,2.7,2.6,3v7.6C18,42.8,19.4,44.1,21,44.1z M34,31.6v7.2h-9.8
					v-7.2H34z M16.8,30.5v-8.2c0-2.4,1.9-4.3,4.3-4.3h3.7c2.4,0,4.3,1.9,4.3,4.3v7.9h-4.9c-0.7,0-1.3,0.6-1.3,1.3v7.3
					c0,0.7,0.6,1.3,1.3,1.3h2.3v1c0,0.9-0.7,1.6-1.6,1.6H21c-0.9,0-1.6-0.7-1.6-1.6v-8.9h-0.9C17.6,32.2,16.8,31.4,16.8,30.5z"/>
			</g>
		</g>
	</g>
</g>
</svg>
