<?xml version="1.0" encoding="UTF-8" standalone="no"?>
<svg xmlns="http://www.w3.org/2000/svg" width="40" height="91">
    <g fill="none" fill-rule="evenodd">
        <path fill="#B3B3B3" d="M30.7 11a9.8 9.8 0 1 0-19.5 0 9.8 9.8 0 0 0 19.5 0m9 38.2c.6 2.7-1 4.8-3.4 4.8l-4.6 1-.4 4.8-2.1 26.4C29 89 27 91 24.8 91h-8c-2.2 0-4.1-2.1-4.4-4.8l-2-26.4-.5-4.8H5.4C3 55 1.6 52.8 2 50.2l4.5-20.4a6.4 6.4 0 0 1 5.9-4.8h16.9c2.7 0 5.4 2.1 6 4.8l4.3 20"/>
        <path fill="#4E7AC7" d="M19.5 20.3l2-.2V1c-.6-.2-1.3-.2-2-.2a9.8 9.8 0 1 0 0 19.5"/>
        <path stroke="#4E7AC7" d="M19.5 20.3l2-.2V1c-.6-.2-1.3-.2-2-.2a9.8 9.8 0 1 0 0 19.5z"/>
        <path fill="#4E7AC7" d="M21.5 24.5H11a6.4 6.4 0 0 0-6 4.8L.7 49.7c-.5 2.6 1 4.8 3.3 4.8h4.6l.4 4.8 2 26.4c.3 2.7 2.2 4.8 4.4 4.8h6.2v-66z"/>
        <path stroke="#4E7AC7" d="M21.5 24.5H11a6.4 6.4 0 0 0-6 4.8L.7 49.7c-.5 2.6 1 4.8 3.3 4.8h4.6l.4 4.8 2 26.4c.3 2.7 2.2 4.8 4.4 4.8h6.2v-66z"/>
        <path stroke="#B3B3B3" stroke-width="2" d="M29.7 10.5a9.8 9.8 0 1 0-19.5 0 9.8 9.8 0 0 0 19.5 0m9 38.2c.6 2.7-1 4.8-3.4 4.8l-4.6 1-.4 4.8-2.1 26.4c-.2 2.7-2.2 4.8-4.4 4.8h-8c-2.2 0-4.1-2.1-4.4-4.8l-2-26.4-.5-4.8H4.4C2 54.5.6 52.3 1 49.7l4.5-20.4a6.4 6.4 0 0 1 5.9-4.8h16.9c2.7 0 5.4 2.1 6 4.8l4.3 20"/>
    </g>
</svg>
