<?xml version="1.0" encoding="UTF-8" standalone="no"?>
<svg width="39px" height="50px" viewBox="0 0 39 50" version="1.1" xmlns="http://www.w3.org/2000/svg" xmlns:xlink="http://www.w3.org/1999/xlink">
    <!-- Generator: Sketch 46.2 (44496) - http://www.bohemiancoding.com/sketch -->
    <title>ico-acreditacion-vacio</title>
    <desc>Created with Sketch.</desc>
    <defs></defs>
    <g id="splash-institucion" stroke="none" stroke-width="1" fill="none" fill-rule="evenodd">
        <g id="splash-header-perfil-institucion" transform="translate(-843.000000, -356.000000)">
            <g id="data-acreditacion" transform="translate(494.000000, 318.000000)">
                <g id="ico-acreditacion-vacio" transform="translate(349.000000, 38.000000)">
                    <g id="Group">
                        <polygon id="Fill-421" fill="#C0C3C8" points="0.891 49.386 37.917 49.386 37.917 6.295 0.891 6.295"></polygon>
                        <path d="M23.5537,5.6558 C23.5537,8.1238 21.5527,10.1248 19.0847,10.1248 C16.6167,10.1248 14.6157,8.1238 14.6157,5.6558 C14.6157,3.1878 16.6167,1.1868 19.0847,1.1868 C21.5527,1.1868 23.5537,3.1878 23.5537,5.6558" id="Fill-422" fill="#C0C3C8"></path>
                        <polygon id="Fill-423" fill="#E6E6E6" points="16.5537 34.458 11.2207 29.125 9.4757 30.871 16.5537 37.969 29.8347 24.666 28.0897 22.92"></polygon>
                        <path d="M24.9199,6.3735 L24.9199,5.2705 L24.8099,5.2705 C24.2989,2.7525 22.0719,0.8575 19.4039,0.8575 C16.7349,0.8575 14.5099,2.7525 13.9989,5.2705 L13.8889,5.2705 L13.8889,6.3735 L0.6499,6.3735 L0.6499,49.3955 L38.1569,49.3955 L38.1569,6.3735 L24.9199,6.3735 Z M16.0949,8.5795 L16.0949,6.3735 C16.0949,4.5455 17.5759,3.0635 19.4039,3.0635 C21.2319,3.0635 22.7139,4.5455 22.7139,6.3735 L22.7139,8.5795 L24.9199,8.5795 L28.2299,8.5795 L28.2299,11.8895 L10.5789,11.8895 L10.5789,8.5795 L13.8889,8.5795 L16.0949,8.5795 Z M35.9509,47.1895 L2.8579,47.1895 L2.8579,8.5795 L8.3729,8.5795 L8.3729,14.0955 L30.4359,14.0955 L30.4359,8.5795 L35.9509,8.5795 L35.9509,47.1895 Z" id="Fill-424" fill="#E6E6E6"></path>
                    </g>
                </g>
            </g>
        </g>
    </g>
</svg>