<?xml version="1.0" encoding="UTF-8" standalone="no"?>
<svg width="40px" height="91px" viewBox="0 0 40 91" version="1.1" xmlns="http://www.w3.org/2000/svg" xmlns:xlink="http://www.w3.org/1999/xlink">
    <!-- Generator: Sketch 46.2 (44496) - http://www.bohemiancoding.com/sketch -->
    <title>ico-poblacion-medio</title>
    <desc>Created with Sketch.</desc>
    <defs></defs>
    <g id="Symbols" stroke="none" stroke-width="1" fill="none" fill-rule="evenodd">
        <g id="ico-poblacion-medio">
            <path d="M30.7432,11.0098 C30.7432,5.6238 26.3782,1.2578 20.9922,1.2578 C15.6062,1.2578 11.2412,5.6238 11.2412,11.0098 C11.2412,16.3938 15.6062,20.7598 20.9922,20.7598 C26.3782,20.7598 30.7432,16.3938 30.7432,11.0098 M39.7022,49.2248 C40.2732,51.8518 38.7582,53.9998 36.3332,53.9998 L31.6652,54.9988 L31.2742,59.7538 L29.1722,86.2468 C28.9642,88.8608 27.0002,90.9998 24.8022,90.9998 L16.8172,90.9998 C14.6182,90.9998 12.6522,88.8608 12.4452,86.2478 L10.3432,59.7548 L9.9412,54.9998 L5.3592,54.9998 C3.0072,54.9998 1.5542,52.8228 2.1322,50.1608 L6.5542,29.7788 C7.1242,27.1508 9.7912,24.9998 12.4812,24.9998 L16.1392,24.9998 L26.0442,24.9998 L29.4272,24.9998 C32.1152,24.9998 34.7812,27.1488 35.3512,29.7758 L39.7022,49.8258" id="Fill-52" fill="#B3B3B3"></path>
            <path d="M19.5029,20.2598 C20.1879,20.2598 20.8549,20.1878 21.4999,20.0538 L21.4999,0.9638 C20.8549,0.8298 20.1879,0.7578 19.5029,0.7578 C14.1169,0.7578 9.7519,5.1238 9.7519,10.5098 C9.7519,15.8938 14.1169,20.2598 19.5029,20.2598" id="Fill-54" fill="#4E7AC7"></path>
            <path d="M19.5029,20.2598 C20.1879,20.2598 20.8549,20.1878 21.4999,20.0538 L21.4999,0.9638 C20.8549,0.8298 20.1879,0.7578 19.5029,0.7578 C14.1169,0.7578 9.7519,5.1238 9.7519,10.5098 C9.7519,15.8938 14.1169,20.2598 19.5029,20.2598 Z" id="Stroke-56" stroke="#4E7AC7"></path>
            <path d="M21.5,24.5 L10.991,24.5 C8.302,24.5 5.635,26.65 5.065,29.279 L0.643,49.661 C0.064,52.323 1.518,54.5 3.87,54.5 L8.452,54.5 L8.854,59.255 L10.956,85.748 C11.163,88.361 13.129,90.5 15.329,90.5 L21.5,90.5 L21.5,24.5 Z" id="Fill-58" fill="#4E7AC7"></path>
            <path d="M21.5,24.5 L10.991,24.5 C8.302,24.5 5.635,26.65 5.065,29.279 L0.643,49.661 C0.064,52.323 1.518,54.5 3.87,54.5 L8.452,54.5 L8.854,59.255 L10.956,85.748 C11.163,88.361 13.129,90.5 15.329,90.5 L21.5,90.5 L21.5,24.5 Z" id="Stroke-60" stroke="#4E7AC7"></path>
            <path d="M29.7432,10.5098 C29.7432,5.1238 25.3782,0.7578 19.9922,0.7578 C14.6062,0.7578 10.2412,5.1238 10.2412,10.5098 C10.2412,15.8938 14.6062,20.2598 19.9922,20.2598 C25.3782,20.2598 29.7432,15.8938 29.7432,10.5098 M38.7022,48.7248 C39.2732,51.3518 37.7582,53.4998 35.3332,53.4998 L30.6652,54.4988 L30.2742,59.2538 L28.1722,85.7468 C27.9642,88.3608 26.0002,90.4998 23.8022,90.4998 L15.8172,90.4998 C13.6182,90.4998 11.6522,88.3608 11.4452,85.7478 L9.3432,59.2548 L8.9412,54.4998 L4.3592,54.4998 C2.0072,54.4998 0.5542,52.3228 1.1322,49.6608 L5.5542,29.2788 C6.1242,26.6508 8.7912,24.4998 11.4812,24.4998 L15.1392,24.4998 L25.0442,24.4998 L28.4272,24.4998 C31.1152,24.4998 33.7812,26.6488 34.3512,29.2758 L38.7022,49.3258" id="Stroke-62" stroke="#B3B3B3" stroke-width="2"></path>
        </g>
    </g>
</svg>