<?xml version="1.0" encoding="UTF-8" standalone="no"?>
<svg xmlns="http://www.w3.org/2000/svg" width="38" height="50">
    <g fill="none" fill-rule="evenodd">
        <path fill="#518DE5" d="M.2 49.6h37V6.5H.3z"/>
        <path fill="#4E7AC7" d="M23 5.9a4.5 4.5 0 1 1-9 0 4.5 4.5 0 0 1 9 0"/>
        <path stroke="#4E7AC7" d="M23 5.9a4.5 4.5 0 1 1-9 0 4.5 4.5 0 0 1 9 0z"/>
        <path fill="#FFF" d="M16 34.7l-5.4-5.4-1.8 1.8 7.1 7L29.2 25l-1.8-2z"/>
        <path fill="#FFF" d="M24.3 6.6V5.5h-.1a5.5 5.5 0 0 0-10.8 0h-.2v1H0v43.1h37.5v-43H24.3zm-8.9 2.2V6.6a3.3 3.3 0 1 1 6.7 0v2.2h5.5V12H9.9V8.8h5.5zm20 38.6H2.1V8.8h5.5v5.5h22V8.8h5.6v38.6z"/>
    </g>
</svg>
