<?xml version="1.0" encoding="UTF-8" standalone="no"?>
<svg xmlns="http://www.w3.org/2000/svg" width="78" height="42" viewBox="0 0 78 42">
    <g fill="none" fill-rule="evenodd">
        <path fill="#4E7AC7" d="M2.5 39.5h37v-37h-37z"/>
        <path stroke="#4E7AC7" d="M2.5 39.5h37v-37h-37z"/>
        <path fill="#B3B3B3" d="M40 40h36V2H40z"/>
        <path fill="#FFF" d="M53 20.8A14 14 0 0 1 47.2 32a14 14 0 0 1-11.6 2.2 14 14 0 0 1-9-7.4 13.9 13.9 0 1 1 26.3-6c0 1.2 2 1.2 1.9 0 0-4.7-2.1-9.2-5.8-12.1a15.7 15.7 0 0 0-24.6 17.5A15.7 15.7 0 0 0 45.6 35c5.6-2.4 9.2-8.2 9.2-14.2 0-1.2-1.8-1.2-1.8 0"/>
        <path fill="#FFF" d="M.6 1.3v39c0 .5.4 1 .9 1h75.3c.5 0 1-.5 1-1v-39c0-.5-.5-1-1-1H1.5c-1.2 0-1.2 2 0 2h75.3l-.9-1v39l1-.9H1.4l1 1V1.2c0-1.1-2-1.1-2 0"/>
        <path fill="#FFF" d="M39.1 20a2.6 2.6 0 0 1-1.8-4.4c.7-.8 1.9-1 2.9-.6 1 .3 1.5 1.4 1.5 2.3 0 1.2 1.9 1.2 1.8 0 0-1.7-1-3.2-2.5-4a4.4 4.4 0 1 0-1.8 8.4c1.1 0 1.1-1.8 0-1.8"/>
        <path fill="#FFF" d="M39.1 21.8c2.3 0 3.4 2.7 1.9 4.3-.8.8-1.9 1-2.9.6s-1.5-1.4-1.5-2.4c0-1.2-1.9-1.2-1.9 0 0 1.7 1 3.3 2.6 4 1.7.8 3.6.4 5-.8a4.4 4.4 0 0 0-3.2-7.6c-1.1 0-1.1 1.8 0 1.9"/>
        <path fill="#FFF" d="M38.2 12.1v17.3c0 1.2 1.8 1.2 1.8 0V12.1c0-1.1-1.8-1.1-1.8 0"/>
    </g>
</svg>
