<svg xmlns="http://www.w3.org/2000/svg" viewBox="0 0 200 200" enable-background="new 0 0 200 200"><style type="text/css">.st0{fill:#3669B5;stroke:#3669B5;stroke-miterlimit:10;}</style><path class="st0" d="M100.2 45.338c-29.6 0-53.7 24.1-53.7 53.7s24.1 53.7 53.7 53.7 53.7-24 53.7-53.7c0-29.7-24.1-53.7-53.7-53.7zm0 5.3c26.7 0 48.2 21.7 48.2 48.4s-21.5 48.3-48.2 48.3-48.2-21.6-48.2-48.3c0-26.7 21.5-48.4 48.2-48.4zm-3 17.5v4.3c-3.6.7-6.5 2.8-8.5 5.2-2.4 3-3.6 6.3-3.6 9.2 0 4.3 2.2 7.7 4.7 10 4.4 4.1 10.7 5.1 15.4 8.3 2.5 1.8 4.1 3.8 4.1 5.9 0 1.1-.8 3.8-2.4 5.9s-3.8 3.5-7 3.5c-2 0-4.2-.8-6-2.1-1.8-1.2-3.1-2.9-3.5-4.2-.7-2.1-4.2-2.9-5.1.3-.2.5-.1 1.1 0 1.6.9 2.7 3 5 5.5 6.8 1.9 1.3 4 2.3 6.4 2.8v4.3h5.4v-4.3c3.6-.7 6.5-2.8 8.5-5.2 2.4-3 3.6-6.3 3.6-9.2 0-4.6-3.1-8-6.3-10.3-4.6-3.4-10.9-4.2-14.8-7.8-1.8-1.7-3-3.6-3-6.1 0-1.1.8-3.8 2.4-5.9s3.8-3.5 7-3.5c2 0 4.2.8 6 2 1.8 1.2 3.1 2.9 3.5 4.2.7 2.1 4.2 2.9 5.1-.3.2-.5.1-1.1 0-1.6-.9-2.7-3-5-5.5-6.8-1.9-1.3-4-2.3-6.4-2.7v-4.3h-5.5z"/><circle cx="100" cy="100" r="50" fill="#3669B5" opacity=".5"/></svg>