<svg xmlns="http://www.w3.org/2000/svg" viewBox="0 0 200 200" enable-background="new 0 0 200 200"><style type="text/css">.st0{opacity:0.5;fill:#3669B5;enable-background:new ;} .st1{fill:none;} .st2{fill:#3669B5;} .st3{fill:#8CB6DD;}</style><path class="st0" d="M123.9 72.8v.1c6.8 0 12.3-5.5 12.3-12.3 0-6.8-5.5-12.3-12.3-12.3v-.1c-6.8 0-12.3 5.5-12.3 12.3s5.5 12.3 12.3 12.3zM145.9 119.2l-7.7-32.1c-.9-4.2-3.3-7.4-7.4-7.4h-5.9l-1-.1h-6.9c-4.1 0-6.4 3.3-7.4 7.4l-7.7 32.1c-1.1 4.4 3.3 8 7.4 8h2.7l2.6 19.7c0 2.8 2.3 5 5 5h4.2v.1h4.4c2.8 0 5-2.3 5-5l2.6-19.7h2.7c4.1 0 8.3-3.9 7.4-8z"/><path class="st1" d="M115.1 60.3c.1.2.1.3.1.4l.2.9.2.7c0 .1.3.8.2.6-.2-.4.1.2.1.3l.2.3.4.7c.2.2.4.5.5.7.1.2-.1-.1-.1-.1l.2.3c.4.5.9.9 1.3 1.3.1.1.5.4.5.4l.4.3c.5.3 1 .6 1.6.9l.1.1c-.4-.1.1.1.2.1.2.1.5.2.8.3l.9.2c.2.1.9.1.4.1.6.1 1.2.1 1.8.1h.6c-.3 0 .5-.1.6-.1.6-.1 1.1-.3 1.7-.5l.4-.2.6-.3.7-.4c.1-.1.7-.5.3-.2.5-.3.9-.7 1.3-1.1l.6-.6.2-.3c-.3.4-.1.1 0 0l.9-1.5c.1-.1.4-.8.3-.6-.1.3 0-.1 0-.1.1-.2.1-.4.2-.5.2-.6.3-1.1.4-1.7v-1.3c0-.4-.1-.7 0-1.3l-.1-.5c-.1-.6-.3-1.2-.5-1.8-.1-.3-.1-.3 0-.2 0-.1 0-.1-.1-.2-.2-.3-.4-.6-.5-.9-.1-.3-.3-.5-.5-.8l-.1-.1c-.1-.1-.2-.2-.2-.3-.5-.5-.9-1-1.4-1.4l-.4-.3c.4.3.1.1 0 0-.2-.2-.5-.4-.7-.5-.3-.2-.6-.4-.9-.5l-.6-.3.1.1c-.6-.2-1.3-.4-1.9-.5l-.5-.1c-.3-.1-.5-.1-.8-.1h-1.5c.3-.1-.2 0-.3 0l-.5.1-.7.2-.8.3c-.5.2-.1 0 0 0-.1 0-.2 0-.3.1-.6.3-1.1.6-1.6.9-.1.1-.2.2-.3.2l-.5.5c-.4.4-.8.8-1.2 1.3l-.1.2c-.2.2-.4.5-.5.7-.2.3-.4.6-.5.9l-.3.6c-.2.4-.3.9-.4 1.3l-.2 1v2.2zM107.6 122.8c-.5-.2-.1 0 0 0zM143.7 118.9c0 .1.1.6 0 0zM118.5 147.5zM132.1 53.7s0 .1.1.1c0-.1-.1-.1-.1-.1zM133.9 60.8c.1-.5 0-.1 0 0zM135.5 85v-.1.1zM132 81.6c-.3-.1-.2 0 0 0zM139.7 102.1l-3.6-15.2c-.2-.6-.3-1.1-.5-1.5 0-.1-.1-.3-.1-.5v-.1c-.1-.2-.2-.4-.2-.5l-.4-.7-.2-.4c.1.2-.3-.3-.4-.4-.2-.2-.3-.4-.5-.5-.2-.2-.1-.1.1 0l-.3-.2-.4-.2-.4-.1c-.3-.1-.5-.1-.7-.2h-15.2s-.4.1-.1 0l-.5.1c-.1 0-.7.3-.4.1s-.3.1-.4.2c-.1 0-.3.1-.4.2l-.5.5c-.1 0-.5.5-.3.3l-.3.4c-.3.5-.6 1-.8 1.5l-.1.3c-.1.2-.1.4-.2.7-.2.5-.3 1-.4 1.5-1.2 4.6-2.3 9.3-3.4 14l-3.7 15.6c-.1.6-.3 1.1-.4 1.6l-.1.2v.8999999999999999l.2.7.1.2c.4.7.9 1.2 1.5 1.6.2.1.4.3.7.4l.3.2c.4.2.8.3 1.3.4h3.4c1.7 0 2.6 1.3 2.8 2.8l1.7 12.9.8 6 .1 1.2v-.1c0 .2 0 .4.1.5v.1l.3.5c-.3-.5.1.1.2.2.2.1.3.2.4.3.1.1.2.1.2.1l.1.1h.1c.1 0 .2 0 .3.1h9.5l.4-.1s.1-.1.2-.1c0 0 .7-.5.2-.1.2-.1.3-.1.4-.3.1-.2.2-.3.3-.4 0 0 .1-.1.1-.2l.2-.5.1-.2v-.4c0-.6.1-1.1.2-1.7l.9-6.8c.4-3.6.9-7.3 1.4-11 .2-1.5 1.2-2.8 2.8-2.8h2.9c.1 0 .5-.1.5 0l.3-.1c.4-.1.7-.2 1-.3-.5.3.3-.1.3-.1l.4-.3s.2-.1.3-.1c.1 0 .2-.2.2-.2l.9-.9c-.3.3 0 .1.1-.1l.3-.4.1-.1c.1-.2.1-.4.2-.5 0-.2 0-.4.1-.6v-.7l-4.1-16.8zM133.1 81.9l-.2-.1c-.2-.1.1.1.2.1zM135.4 84.8z"/><path class="st2" d="M127.4 74.2c6.6-1.2 11.5-7.2 12-13.8.1-.3.1-.6.1-.9-.1-6.4-4-11.9-10-14.1-5.7-2.1-12.6-.3-16.5 4.4-4 4.9-4.8 11.9-1.5 17.4s9.7 8.2 15.9 7zm-11.7-18.4c0 .1.2-.4.3-.6.1-.3.3-.6.5-.9.1-.2.3-.5.5-.7l.1-.2c.4-.5.8-.9 1.2-1.3l.5-.5c.1 0 .3-.2.3-.2.5-.3 1-.6 1.6-.9.1-.1.2-.1.3-.1l.8-.3.7-.2.5-.1c.1 0 .6-.1.3 0h1.5c.3 0 .5 0 .8.1l.5.1c.6.1 1.3.3 1.9.5-.1 0-.1-.1-.1-.1l.6.3c.3.1.6.3.9.5.2.1.5.3.7.5l.4.3c.5.4.9.9 1.4 1.4.1.1.2.2.2.3 0 0 0 .1.1.1.2.3.4.5.5.8.1.3.3.6.5.9.1.1.1.1.1.2 0-.1-.1-.2 0 .2.2.6.4 1.2.5 1.8l.1.5c-.1.6 0 .9 0 1.3v1.3c0-.1.1-.5 0 0-.1.6-.2 1.1-.4 1.7-.1.1-.1.3-.2.5 0 0-.1.4 0 .1.1-.2-.2.5-.3.6l-.9 1.5-.2.3-.6.6c-.4.4-.8.8-1.3 1.1.4-.3-.2.1-.3.2l-.7.4-.6.3-.4.2c-.6.2-1.1.4-1.7.5-.1 0-.9.1-.6.1h-.6c-.6 0-1.2 0-1.8-.1.5 0-.2 0-.4-.1l-.9-.2c-.3-.1-.6-.2-.8-.3-.1 0-.6-.2-.2-.1-.1 0-.1-.1-.1-.1-.6-.3-1.1-.6-1.6-.9l-.4-.3s-.4-.3-.5-.4c-.4-.4-.9-.8-1.3-1.3l-.2-.3s.2.3.1.1c-.1-.2-.3-.5-.5-.7l-.4-.7-.2-.3c0-.1-.3-.7-.1-.3.1.2-.2-.5-.2-.6l-.2-.7-.2-.9c0-.1 0-.2-.1-.4v-2.2l.2-1 .4-1.3zM148 113.7l-5.3-22.1-1.2-5.1c0-.4 0-.7-.1-1.1-.6-2.5-1.6-4.9-3.4-6.7-1.8-1.8-4.2-2.7-6.7-2.8h-13.8c-5.5.1-8.9 4.5-10.1 9.5-1 4.1-2 8.2-3 12.4l-4.2 17.4c-.5 2-1 3.9-.6 6 .5 2.6 2.4 4.9 4.7 6.2 1.7 1 3.7 1.4 5.8 1.5l1.1 9 .9 6.7c.1.4.1.8.1 1.2.2 2.3.9 4.4 2.8 5.9 1.5 1.2 3.2 1.8 5.2 1.8h3.1c2.3 0 4.8.3 7.1-.2s4.3-2.1 5.2-4.2c.6-1.2.7-2.4.8-3.7l.7-5.6 1.4-11c1.3 0 2.5-.2 3.7-.6 3.1-1.2 6-3.8 6.7-7.2.5-2.5-.4-4.9-.9-7.3zm-29.5 33.8zm25.2-28.6v.6c-.1.2-.1.4-.1.6-.1.1-.1.3-.2.5l-.1.1-.3.4c-.1.2-.4.4-.1.1l-.9.9-.2.2c-.1.1-.3.1-.3.1l-.4.3s-.8.4-.3.1c-.3.1-.6.2-1 .3l-.3.1h-3.4c-1.6 0-2.6 1.3-2.8 2.8-.5 3.7-1 7.4-1.4 11l-.9 6.8c-.1.6-.2 1.1-.2 1.7v.4s-.1.1-.1.2c0 0-.2.4-.2.5-.1.1-.1.2-.1.2-.1.1-.2.2-.3.4-.1.2-.2.2-.4.3.5-.4-.2.1-.2.1-.1.1-.1.1-.2.1l-.4.1h-9.5l-.3-.1h-.1l-.1-.1s-.1-.1-.2-.1c-.1-.1-.2-.2-.4-.3-.1-.1-.5-.7-.2-.2l-.3-.5v-.1c-.1-.1-.1-.3-.1-.5v.1l-.1-1.2-.8-6-1.7-12.9c-.2-1.5-1.1-2.8-2.8-2.8h-2.9c-.2 0-.7-.1-.5 0-.5-.1-.9-.2-1.3-.4-.1 0-.5-.2 0 0l-.3-.2c-.3-.1-.5-.3-.7-.4-.6-.4-1.1-.9-1.5-1.6l-.1-.2-.2-.7v-.3c0-.1.1-.5 0-.6l.1-.2c.1-.5.3-1 .4-1.6l3.7-15.6c1.1-4.7 2.2-9.4 3.4-14 .1-.5.2-1 .4-1.5.1-.3.1-.5.2-.7 0-.1 0-.2.1-.3.2-.5.5-1 .8-1.5l.3-.4c-.2.2.2-.3.3-.3l.5-.5c.1-.1.3-.2.4-.2.1-.1.7-.4.4-.2s.3-.1.4-.1l.5-.1c-.3.1.1 0 .1 0h15.2c-.2 0-.3-.1 0 0 .2.1.4.1.7.2l.4.1c-.1 0-.4-.2-.2-.1l.2.1.4.2.3.2c-.2-.1-.3-.2-.1 0 .2.1.3.3.5.5.1.1.5.6.4.4l.2.4.4.7c.1.2.2.3.2.5v.1-.1l.1.5c.2.4.3.9.5 1.5l3.6 15.2 4 16.7v.3c.2.6.1.1.1 0zM135.5 84.9zM121 50.4c-.1 0-.5.2 0 0zM132.1 65.2c-.1.1-.3.4 0 0zM128 50.5c.1 0 .2.1 0 0zM121 68.1c.1 0 .2.1 0 0zM132.2 53.8s0-.1-.1-.1l.1.1zM130.1 51.7c.1.1.4.3 0 0z"/><path class="st3" d="M84.2 77.9h-11.9v1.7h-11.5c-4.1 0-7.4 3.3-7.4 7.4v26c0 4.1 3.3 7.4 7.4 7.4h1.4v26c0 2.7 2.2 4.9 4.9 4.9h5.6v-1.7h5.2c2.7 0 4.9-2.2 4.9-4.9v-26h1.4c4.1 0 7.4-3.3 7.4-7.4v-26c0-4.1-3.3-7.4-7.4-7.4zM72.3 71.7v.7c6.7 0 12.2-5.5 12.2-12.2 0-6.6-5.3-12-11.8-12.2v-.7c-6.7 0-12.2 5.5-12.2 12.2 0 6.6 5.3 12 11.8 12.2z"/><path class="st1" d="M88.9 115.4c0 .1-.1.1 0 0-.1.1 0 .1 0 0zM63.9 60.2c.1.2.1.3.1.4l.2.9.2.7c0 .1.3.8.2.6-.2-.4.1.2.1.3l.2.3.4.7c.2.2.4.5.5.7.1.2-.1-.1-.1-.1l.2.3c.4.5.9.9 1.3 1.3.1.1.7.5.5.4l.4.3c.5.4 1 .6 1.6.9l.1.1c-.4-.1.1.1.2.1.2.1.5.2.8.3l.9.2c.2.1.9.1.4.1.6.1 1.2.1 1.8.1h.6c-.3 0 .5-.1.6-.1.6-.1 1.1-.3 1.7-.5l.4-.2.6-.3.7-.4c.1-.1.3-.3.4-.3.4-.3.7-.6 1.1-1l.6-.6.2-.3c-.3.4-.1.1 0 0 .3-.4.6-.9.9-1.4.1-.1.4-.8.3-.6-.1.3 0-.1 0-.1.1-.2.1-.4.2-.5.2-.6.3-1.1.4-1.7v-2.6l-.1-.5c-.1-.6-.3-1.2-.5-1.8-.1-.3-.1-.3 0-.2 0-.1 0-.1-.1-.2l-.5-.9c-.1-.3-.3-.5-.5-.8l-.1-.1c-.1-.1-.2-.2-.2-.3-.4-.4-.8-.9-1.3-1.3-.2-.1-.3-.2-.4-.3-.2-.2-.5-.4-.7-.5-.3-.2-.6-.4-.9-.5l-.6-.3.1.1c-.6-.2-1.3-.4-1.9-.5l-.5-.1c-.3-.1-.5-.1-.8-.1h-1.5c.3-.1-.2 0-.3 0l-.5.1-.7.2-.8.3c-.5.2-.1 0 0 0-.1 0-.2 0-.3.1-.6.3-1.1.6-1.6.9-.1.1-.6.4-.2.1-.2.1-.4.3-.6.5-.4.4-.8.8-1.2 1.3l-.1.2c-.2.2-.4.5-.5.7-.2.3-.4.6-.5.9l-.2.3c-.2.5-.4 1-.5 1.5-.1.4-.1.7-.2 1v2.2zM82.6 60.8c.1-.5 0-.1 0 0zM80.8 53.7s0 .1.1.1c0-.1-.1-.1-.1-.1zM78.9 51.8c.1.1.4.3 0 0zM88.9 115.4l.1-.1c-.1 0-.1.1-.1.1zM89.8 86.5v-.4s-.1-.4 0-.1v.1-.2l-.1-.5c0-.2-.1-.5-.2-.7.2.5 0-.1-.1-.2-.1-.2-.2-.4-.4-.6 0 0-.2-.3-.3-.4-.1-.2-.3-.3-.5-.5.4.4-.2-.1-.3-.2-.2-.1-.4-.3-.7-.4.4.2-.1 0-.3-.1l-.9-.2h-25.3c-.2 0-.3.1-.4.1-.2.1-.5.2-.8.3-.3.1.1 0 .1 0l-.3.2-.6.4-.1.1c-.1 0-.2.1-.3.2-.2.1-.3.3-.5.5l.1-.1-.2.3-.4.7c0 .2-.1.3-.1.4l-.2.7c-.1.1-.2.7-.1.3.1-.4 0 .1 0 .1v27.1c.1.2.2.4.2.6 0 .2.1.5.2.7l.2.3.4.6s.2.3.3.3l.4.4.4.3c.1 0 .3.1.4.2.1 0 .5.2.2.1.1.1.4.2.5.2l.7.2h2.1c1.5 0 2.8 1.3 2.8 2.8v.3c.1 5.3 0 10.7 0 16v9.6c0 .2.2.8 0 .3l.1.5c0 .1.2.4.3.5.1.2.2.3.3.4l.1.1h.1l.5.3.5.1c-.5-.2.1 0 .3 0h11.1c.1 0 .7-.1.4 0-.3.1.2 0 .4-.1.1 0 .2-.1.2-.1.1 0 .3-.1.4-.2-.4.2.1-.1.2-.2l.2-.3c0-.1.1-.3.2-.4l.1-.5c-.1.3 0-.3 0-.4v-25.9c0-1.5 1.3-2.8 2.8-2.8.7 0 1.4.1 2.1 0l.5-.1.8-.3c-.5.2.3-.2.4-.3l.4-.3.1-.1.2-.2.3-.3.1-.2s.1-.1.1-.2c.2-.2.3-.5.4-.7 0 0 0-.1.1-.1-.1.2 0-.2 0-.2.1-.2.1-.5.2-.8 0 0 0-.2.1-.3v-.7c.1-4.5 0-8.9 0-13.4v-12.6zM57.3 84.8c-.1.2-.1.3 0 0z"/><path class="st2" d="M76.3 74.1c6.9-1.3 11.9-7.7 11.9-14.6-.1-6.3-4-11.9-9.9-14.1-5.7-2.1-12.6-.3-16.4 4.4-4 4.9-4.8 11.8-1.5 17.3s9.6 8.2 15.9 7zm-11.7-18.6l.2-.3c.1-.3.3-.6.5-.9.1-.2.3-.5.5-.7l.1-.2c.4-.5.8-.9 1.2-1.3.2-.2.4-.4.6-.5-.4.3.1 0 .2-.1.5-.3 1-.6 1.6-.9.1-.1.2-.1.3-.1l.8-.3.7-.2.5-.1c.1 0 .6-.1.3 0h1.5c.3 0 .5 0 .8.1l.5.1c.6.1 1.3.3 1.9.5-.1 0-.1-.1-.1-.1l.6.3c.3.1.6.3.9.5.2.1.5.3.7.5.4.3.1.1 0 0 .1.1.2.2.4.3.5.4.9.9 1.3 1.3.1.1.2.2.2.3 0 0 0 .1.1.1.2.3.4.5.5.8l.5.9c.1.1.1.1.1.2 0-.1-.1-.2 0 .2.2.6.4 1.2.5 1.8l.1.5v2.6c0-.1.1-.5 0 0-.1.6-.2 1.1-.4 1.7-.1.1-.1.3-.2.5 0 0-.1.4 0 .1.1-.2-.2.5-.3.6-.3.5-.6 1-.9 1.4l-.2.3-.6.6c-.4.4-.7.7-1.1 1-.1 0-.4.2-.4.3l-.7.4-.6.3-.4.2c-.6.2-1.1.4-1.7.5-.1 0-.9.1-.6.1h-.6c-.6 0-1.2 0-1.8-.1.5 0-.2 0-.4-.1l-.9-.2c-.3-.1-.6-.2-.8-.3-.1 0-.6-.2-.2-.1-.1 0-.1-.1-.1-.1-.6-.3-1.1-.5-1.6-.9l-.4-.3c.2.1-.4-.3-.5-.4-.4-.4-.9-.8-1.3-1.3l-.2-.3s.2.3.1.1c-.1-.2-.3-.5-.5-.7l-.4-.7-.2-.3c0-.1-.3-.7-.1-.3.1.2-.2-.5-.2-.6l-.2-.7-.2-.9c0-.1 0-.2-.1-.4v-2.2c.1-.3.1-.6.2-1 .1-.5.3-1 .5-1.5zM88.8 115.5l.1-.1s0-.1.1-.1l-.2.2zM69.8 50.5c-.1 0-.5.2 0 0zM95.6 109.4v-23.2c0-.4-.1-.9-.4-1.3-.8-4.9-5-8.5-10-8.6h-23c-1 0-2 0-3 .2-2.7.5-5.1 2.3-6.5 4.6-1.5 2.3-1.5 4.9-1.5 7.5v23.7c.1 5.1 3.8 9.3 8.8 10.1v23c0 2.1.8 4.1 2.3 5.6 2.7 2.7 6.3 2.3 9.8 2.3h5c1.2 0 2.4.1 3.7-.2 2.8-.6 5.2-3.1 5.8-5.9.2-.9.2-1.7.2-2.6v-7.7c0-4.9.1-9.8 0-14.7 1.1-.2 2.1-.4 3.2-.9 2.4-1.2 4.2-3.4 5.1-5.9.7-1.9.5-4 .5-6zm-5.8 3.1v.7l-.1.3c-.1.3-.1.6-.2.8 0 0-.2.3 0 .2 0 .1-.1.1-.1.1-.2.3-.3.5-.4.7l-.1.1s0 .1-.1.1l-.1.2-.3.3-.2.2-.1.1-.4.3c-.1.1-.9.5-.4.3l-.8.3-.5.1c-.7.1-1.3 0-2.1 0-1.5 0-2.8 1.3-2.8 2.8v25.9c0 .1-.1.7 0 .4l-.1.5c-.1.1-.2.3-.2.4l-.2.3c-.1.1-.6.4-.2.2-.1.1-.3.2-.4.2 0 0-.1.1-.2.1-.2.1-.7.2-.4.1.3-.1-.3 0-.4 0h-11.1c-.2 0-.8-.2-.3 0l-.5-.1c-.1 0-.4-.2-.5-.3h-.1l-.1-.1c-.1-.1-.2-.2-.3-.4l-.3-.5-.1-.5c.2.5 0-.1 0-.3v-9.6c0-5.3.1-10.7 0-16v-.3c0-1.5-1.3-2.8-2.8-2.8h-2.1l-.7-.2c-.1 0-.4-.1-.5-.2.3.1-.1-.1-.2-.1-.1-.1-.3-.2-.4-.2l-.4-.3-.4-.4c-.1-.1-.3-.4-.3-.3l-.4-.6-.2-.3c-.1-.2-.2-.5-.2-.7 0-.2-.1-.4-.2-.6v-27.1s.1-.5 0-.1 0-.2.1-.3l.2-.7c0-.1.1-.2.1-.4-.1.3-.1.2 0 0l.4-.7.2-.3-.1.1c.2-.2.3-.4.5-.5.1-.1.2-.2.3-.2l.1-.1.6-.4.3-.2s-.4.1-.1 0c.3-.1.6-.2.8-.3.1 0 .2-.1.4-.1h25.3l.9.2c.2.1.7.3.3.1.3.1.5.3.7.4.1.1.7.6.3.2.2.2.4.3.5.5.1.1.3.4.3.4.2.2.3.4.4.6.1.1.3.7.1.2.1.2.2.5.2.7l.1.5v.2-.1c-.1-.3 0 .1 0 .1v13c0 4.5.1 8.9 0 13.4zM69.8 68c.1 0 .2.1 0 0zM80.8 65.1c-.1.1-.3.4 0 0zM80.9 53.8s0-.1-.1-.1l.1.1zM76.8 50.6c.1 0 .2.1 0 0z"/></svg>