<?xml version="1.0" encoding="UTF-8" standalone="no"?>
<svg width="78px" height="42px" viewBox="0 0 78 42" version="1.1" xmlns="http://www.w3.org/2000/svg" xmlns:xlink="http://www.w3.org/1999/xlink">
    <!-- Generator: Sketch 46.2 (44496) - http://www.bohemiancoding.com/sketch -->
    <title>ico-ingreso-lleno</title>
    <desc>Created with Sketch.</desc>
    <defs></defs>
    <g id="Symbols" stroke="none" stroke-width="1" fill="none" fill-rule="evenodd">
        <g id="ico-ingreso-lleno">
            <polygon id="Fill-85" fill="#4E7AC7" points="2.5 39.5 75.5 39.5 75.5 2.5 2.5 2.5"></polygon>
            <polygon id="Stroke-86" stroke="#4E7AC7" points="2.5 39.5 75.5 39.5 75.5 2.5 2.5 2.5"></polygon>
            <path d="M52.9653,20.788 C52.9413,25.196 50.8283,29.409 47.2453,31.996 C43.8903,34.418 39.5783,35.201 35.5793,34.156 C31.6843,33.138 28.4443,30.383 26.6703,26.791 C24.5133,22.424 24.9863,17.115 27.6463,13.085 C29.8303,9.778 33.5193,7.518 37.4523,7.054 C41.5403,6.571 45.6633,7.931 48.6543,10.756 C51.4063,13.355 52.9453,17.011 52.9653,20.788 C52.9713,21.972 54.8093,21.973 54.8023,20.788 C54.7773,16.11 52.6723,11.611 49.0383,8.654 C45.6013,5.858 41.1993,4.704 36.8263,5.298 C32.6023,5.871 28.8133,8.325 26.3383,11.756 C23.3793,15.857 22.6903,21.377 24.4013,26.115 C25.8483,30.123 28.9613,33.451 32.8733,35.145 C36.9533,36.913 41.5693,36.843 45.6243,35.046 C51.1873,32.581 54.7693,26.829 54.8023,20.788 C54.8093,19.603 52.9713,19.604 52.9653,20.788" id="Fill-87" fill="#FFFFFF"></path>
            <path d="M0.5813,1.3387 L0.5813,9.7067 L0.5813,26.4787 L0.5813,39.1577 L0.5813,40.3157 C0.5813,40.8207 0.9943,41.2347 1.4993,41.2347 L6.3553,41.2347 L18.6883,41.2347 L35.1443,41.2347 L52.3713,41.2347 L67.0173,41.2347 L75.7283,41.2347 L76.8203,41.2347 C77.3253,41.2347 77.7383,40.8207 77.7383,40.3157 L77.7383,31.9087 L77.7383,15.1367 L77.7383,2.4577 L77.7383,1.2997 C77.7383,0.7947 77.3253,0.3807 76.8203,0.3807 L71.9643,0.3807 L59.6323,0.3807 L43.1753,0.3807 L25.9483,0.3807 L11.3023,0.3807 L2.5913,0.3807 L1.4993,0.3807 C0.3153,0.3807 0.3153,2.2187 1.4993,2.2187 L6.2823,2.2187 L18.6273,2.2187 L35.1013,2.2187 L52.3463,2.2187 L67.0083,2.2187 L75.7283,2.2187 L76.8213,2.2187 C76.5143,1.9117 76.2083,1.6047 75.9013,1.2987 L75.9013,9.6747 L75.9013,26.4647 L75.9013,39.1567 L75.9013,40.3167 C76.2083,40.0107 76.5143,39.7037 76.8213,39.3967 L71.9643,39.3967 L59.6323,39.3967 L43.1753,39.3967 L25.9483,39.3967 L11.3023,39.3967 L2.5913,39.3967 L1.4993,39.3967 C1.8063,39.7037 2.1123,40.0097 2.4183,40.3157 L2.4183,31.9477 L2.4183,15.1767 L2.4183,2.4977 L2.4183,1.3387 C2.4183,0.1537 0.5813,0.1537 0.5813,1.3387" id="Fill-88" fill="#FFFFFF"></path>
            <path d="M39.1357,19.9119 C36.9157,19.8739 35.7517,17.1999 37.2807,15.5689 C38.0327,14.7659 39.1547,14.6049 40.1677,14.9849 C41.1067,15.3359 41.6867,16.3699 41.7037,17.3439 C41.7237,18.5269 43.5607,18.5289 43.5407,17.3439 C43.5117,15.6469 42.5457,14.0579 40.9827,13.3499 C39.3127,12.5939 37.3927,12.9419 36.0617,14.1889 C34.7917,15.3789 34.3887,17.3739 35.0497,18.9719 C35.7407,20.6449 37.3257,21.7179 39.1357,21.7489 C40.3217,21.7689 40.3187,19.9319 39.1357,19.9119" id="Fill-89" fill="#FFFFFF"></path>
            <path d="M39.1357,21.7565 C41.3557,21.7945 42.5207,24.4675 40.9917,26.0995 C40.2397,26.9025 39.1167,27.0635 38.1037,26.6835 C37.1647,26.3325 36.5847,25.2985 36.5677,24.3245 C36.5477,23.1405 34.7107,23.1385 34.7307,24.3245 C34.7607,26.0205 35.7257,27.6105 37.2887,28.3185 C38.9587,29.0745 40.8787,28.7265 42.2097,27.4785 C43.4797,26.2885 43.8827,24.2945 43.2227,22.6965 C42.5317,21.0235 40.9467,19.9505 39.1357,19.9195 C37.9507,19.8985 37.9527,21.7355 39.1357,21.7565" id="Fill-90" fill="#FFFFFF"></path>
            <path d="M38.1978,12.1411 L38.1978,25.1061 L38.1978,29.4351 C38.1978,30.6191 40.0348,30.6191 40.0348,29.4351 L40.0348,16.4701 L40.0348,12.1411 C40.0348,10.9561 38.1978,10.9561 38.1978,12.1411" id="Fill-91" fill="#FFFFFF"></path>
        </g>
    </g>
</svg>