<?xml version="1.0" encoding="UTF-8" standalone="no"?>
<svg xmlns="http://www.w3.org/2000/svg" width="39" height="50">
    <g fill="none" fill-rule="evenodd">
        <path fill="#C0C3C8" d="M.9 49.4h37V6.3H1z"/>
        <path fill="#C0C3C8" d="M23.6 5.7a4.5 4.5 0 1 1-9 0 4.5 4.5 0 0 1 9 0"/>
        <path fill="#E6E6E6" d="M16.6 34.5L11.2 29l-1.7 2 7 7 13.3-13.2-1.7-1.8z"/>
        <path fill="#E6E6E6" d="M25 6.4V5.3h-.2a5.5 5.5 0 0 0-10.8 0h-.1v1H.6v43.1h37.6v-43H24.9zm-9 2.2V6.4a3.3 3.3 0 1 1 6.7 0v2.2h5.5v3.3H10.6V8.6H16zm20 38.6H2.9V8.6h5.5V14h22V8.6H36v38.6z"/>
    </g>
</svg>
