<svg xmlns="http://www.w3.org/2000/svg" viewBox="0 0 200 200" enable-background="new 0 0 200 200"><style type="text/css">.st0{fill:none;} .st1{fill:#3669B5;} .st2{opacity:0.5;} .st3{fill:#8CB6DD;}</style><path class="st0" d="M142.1 135.7l-3.8-3.8-3.8 3.8v9.2c2.5.7 5.2.7 7.7 0h-.1v-9.2zm-7.6-10.9v-24.8l-9.8 4.9-15.7 7.9c-2.8 1.4-5.9 2.1-9 2.1s-6.2-.7-9-2.1l-25.5-12.8v18.7c0 7.2 14.2 15.3 34.5 15.3 6.3 0 12.4-.8 17.8-2.3l16.1-6.3.6-.6zm17.8-46.5l-46.8-23.4c-3.5-1.7-7.6-1.7-11.1 0l-46.8 23.4c-.8.4-1.3 1.2-1.3 2.1s.5 1.7 1.3 2.1l46.9 23.4c3.5 1.7 7.6 1.7 11.1 0l15.7-7.9v.1l7.4-3.6-26.3-9.2 7.6-5.5 28 9.8 14.3-7.1c.8-.4 1.3-1.2 1.3-2.1s-.5-1.7-1.3-2.1z"/><path class="st1" d="M155.7 71.4l-46.7-23.4c-5.7-2.8-12.3-2.8-18 0l-46.8 23.4c-3.4 1.7-5.6 5.2-5.5 9 0 3.8 2.1 7.3 5.5 9l13.6 6.8v22.5c0 12.9 18.5 23 42.2 23 6.8 0 13.6-.8 19.5-2.5l.5-.1c.1 0 .2 0 .2-.1l6.6-1.9v12.8l2.1 1.1c.5.2 4.8 2.3 9.4 2.3 4.6 0 8.9-2.1 9.4-2.3l2.1-1.1v-17.4l-7.7-7.7v-28.6l13.2-6.6c2.8-1.4 5-3.9 5.7-6.9 1-4.7-1.2-9.2-5.3-11.3zm-37.9 60.3c-5.4 1.6-11.5 2.3-17.8 2.3-20.3 0-34.5-8.1-34.5-15.3v-18.7l25.5 12.8c2.8 1.4 5.9 2.1 9 2.1s6.2-.7 9-2.1l15.7-7.9 9.8-4.9v24.8l-.6.6-16.1 6.3zm24.4 13.2c-2.5.7-5.2.7-7.7 0v-9.2l3.8-3.8 3.8 3.8.1 9.2zm10.1-62.4l-14.3 7.1-28-9.8-7.6 5.5 26.3 9.2-7.4 3.6v-.1l-15.7 7.9c-3.5 1.7-7.6 1.7-11.1 0l-46.9-23.4c-.8-.4-1.3-1.2-1.3-2.1s.5-1.7 1.3-2.1l46.8-23.4c3.5-1.7 7.6-1.7 11.1 0l46.8 23.4c.8.4 1.3 1.2 1.3 2.1s-.5 1.7-1.3 2.1z"/><g class="st2"><path class="st0" d="M142.1 135.7l-3.8-3.8-3.8 3.8v9.2c2.5.7 5.2.7 7.7 0h-.1v-9.2zm-7.6-10.9v-24.8l-9.8 4.9-15.7 7.9c-2.8 1.4-5.9 2.1-9 2.1s-6.2-.7-9-2.1l-25.5-12.8v18.7c0 7.2 14.2 15.3 34.5 15.3 6.3 0 12.4-.8 17.8-2.3l16.1-6.3.6-.6zm17.8-46.5l-46.8-23.4c-3.5-1.7-7.6-1.7-11.1 0l-46.8 23.4c-.8.4-1.3 1.2-1.3 2.1s.5 1.7 1.3 2.1l46.9 23.4c3.5 1.7 7.6 1.7 11.1 0l15.7-7.9v.1l7.4-3.6-26.3-9.2 7.6-5.5 28 9.8 14.3-7.1c.8-.4 1.3-1.2 1.3-2.1s-.5-1.7-1.3-2.1z"/><path class="st1" d="M117.8 131.7c-5.4 1.6-11.5 2.3-17.8 2.3-20.3 0-34.5-8.1-34.5-15.3v-18.7l25.5 12.8c2.8 1.4 5.9 2.1 9 2.1s6.2-.7 9-2.1l15.7-7.9 9.8-4.9v24.8l-.6.6-16.1 6.3zm24.4 13.2c-2.5.7-5.2.7-7.7 0v-9.2l3.8-3.8 3.8 3.8.1 9.2zm10.1-62.4l-14.3 7.1-28-9.8-7.6 5.5 26.3 9.2-7.4 3.6v-.1l-15.7 7.9c-3.5 1.7-7.6 1.7-11.1 0l-46.9-23.4c-.8-.4-1.3-1.2-1.3-2.1s.5-1.7 1.3-2.1l46.8-23.4c3.5-1.7 7.6-1.7 11.1 0l46.8 23.4c.8.4 1.3 1.2 1.3 2.1s-.5 1.7-1.3 2.1z"/></g><path class="st3" d="M99.9 53.6c-.5 0-.9 0-1.4.1-1.4.2-2.8.6-4.1 1.2l-46.8 23.4c-.4.2-.7.5-1 .9-.2.4-.3.8-.3 1.2 0 .7.3 1.3.8 1.7l.5.4 46.9 23.4c1.3.6 2.7 1 4.1 1.2l1.3.1v-53.6zM99.9 114.9c-3.1 0-6.2-.7-8.9-2.1l-25.5-12.8v18.7c0 .9.2 1.8.6 2.7 1.1 2.3 3.4 4.5 6.8 6.5.7.4 1.4.8 2.2 1.1l2.4 1.1c3.4 1.3 7.3 2.4 11.7 3.1 1.1.2 2.2.3 3.4.4 2.3.2 4.7.4 7.3.4v-19.1z"/></svg>