<?xml version="1.0" encoding="UTF-8" standalone="no"?>
<svg xmlns="http://www.w3.org/2000/svg" width="73" height="62" viewBox="0 0 73 62">
    <g fill="#B3B3B3" fill-rule="evenodd">
        <path d="M62.7 58.7l2.8-4.2 2.8 4.2h-5.6zm-9.1-21.2l-17.2 7.9-17.1-8V27.3l16.6 7.6c.3.2.7.2 1 0l16.7-7.6v10.3zm-17.2-34l31.2 14.3-31.2 14.4L5.3 17.8 36.4 3.4zm30.4 48.2V21.1l4.5-2.1a1.3 1.3 0 0 0 0-2.4L37 .8c-.4-.2-.8-.2-1.1 0L1.6 16.6a1.3 1.3 0 0 0 0 2.4l15 7v12.3c0 .5.3 1 .8 1.2L36 48a1.3 1.3 0 0 0 1 0l18.6-8.5c.4-.2.7-.7.7-1.2V26l8-3.7v29.4L59 59.3a1.3 1.3 0 0 0 1.1 2h10.6a1.3 1.3 0 0 0 1-2l-5-7.6z"/>
        <path d="M67 51.7V21.1l4.4-2.1a1.3 1.3 0 0 0 0-2.4L37.1.8a1 1 0 0 0-1 0L1.6 16.6a1.3 1.3 0 0 0 0 2.4l15 7v12.8c0 .5.4 1 .8 1.2L36 48.5a1.3 1.3 0 0 0 1.1 0L55.6 40c.5-.2.8-.7.8-1.2V26l7.9-3.7v29.4l-5 7.6a1.3 1.3 0 0 0 1 2H71a1.3 1.3 0 0 0 1-2l-5-7.6z"/>
    </g>
</svg>
