<?xml version="1.0" encoding="UTF-8" standalone="no"?>
<svg xmlns="http://www.w3.org/2000/svg" width="40" height="92" viewBox="0 0 40 92">
    <g fill="none" fill-rule="evenodd">
        <path fill="#4E7AC7" d="M29.7 11a9.8 9.8 0 1 0-19.5 0 9.8 9.8 0 0 0 19.5 0m9 38.2c.6 2.7-1 4.8-3.4 4.8l-4.6 1-.4 4.8-2.1 26.4C28 89 26 91 23.8 91h-8c-2.2 0-4.1-2.1-4.4-4.8l-2-26.4-.5-4.8H4.4C2 55 .6 52.8 1 50.2l4.5-20.4a6.4 6.4 0 0 1 5.9-4.8h16.9c2.7 0 5.4 2.1 6 4.8l4.3 20"/>
        <path stroke="#FFF" d="M29.7 11a9.8 9.8 0 1 0-19.5 0 9.8 9.8 0 0 0 19.5 0m9 38.2c.6 2.7-1 4.8-3.4 4.8l-4.6 1-.4 4.8-2.1 26.4C28 89 26 91 23.8 91h-8c-2.2 0-4.1-2.1-4.4-4.8l-2-26.4-.5-4.8H4.4C2 55 .6 52.8 1 50.2l4.5-20.4a6.4 6.4 0 0 1 5.9-4.8h16.9c2.7 0 5.4 2.1 6 4.8l4.3 20"/>
    </g>
</svg>
