<svg xmlns="http://www.w3.org/2000/svg" xmlns:xlink="http://www.w3.org/1999/xlink" width="38" height="50" viewBox="0 0 38 50"><defs><path id="a" d="M17.6 7.1h20.4v41.9h-20.4z"/></defs><g fill="none"><use fill="#D8D8D8" xlink:href="#a"/><path stroke="#979797" d="M18.1 7.6h19.4v40.9h-19.4z"/><path fill="#518DE5" d="M.4 49.3h20.4v-43h-20.4z"/><path fill="#6688DA" d="M23.1 5.6a4.5 4.5 0 1 1-9 0 4.5 4.5 0 0 1 9 0"/><path fill="#E6E6E6" d="M16.1 34.4l-5.3-5.4-1.8 1.8 7.1 7.1 13.3-13.3-1.8-1.8zm8.4-28.1v-1.1h-.1a5.5 5.5 0 0 0-10.9 0v1.1h-13.4v43h37.5v-43h-13.1zm-8.9 2.2v-2.2a3.3 3.3 0 1 1 6.7 0v2.2h5.5v3.3h-17.8v-3.3h5.5zm19.9 38.6h-33.1v-38.6h5.5v5.5h22v-5.5h5.6v38.6z"/></g></svg>