<?xml version="1.0" encoding="utf-8"?>
<!-- Generator: Adobe Illustrator 22.0.1, SVG Export Plug-In . SVG Version: 6.00 Build 0)  -->
<svg version="1.1" id="Layer_1" xmlns="http://www.w3.org/2000/svg" xmlns:xlink="http://www.w3.org/1999/xlink" x="0px" y="0px"
	 viewBox="0 0 200 200" style="enable-background:new 0 0 200 200;" xml:space="preserve">
<style type="text/css">
	.st0{opacity:0.5;fill:#3669B5;enable-background:new    ;}
	.st1{opacity:0.5;fill:#3669B5;}
	.st2{fill:#8CB6DD;enable-background:new    ;}
	.st3{fill:none;}
	.st4{fill:#3669B5;}
	.st5{fill:#8CB6DD;}
</style>
<path class="st0" d="M123.9,72.8L123.9,72.8c6.8,0.1,12.3-5.4,12.3-12.2s-5.5-12.3-12.3-12.3v-0.1c-6.8,0-12.3,5.5-12.3,12.3
	S117.1,72.8,123.9,72.8z M145.9,119.2l-7.7-32.1c-0.9-4.2-3.3-7.4-7.4-7.4h-5.9l-1-0.1H117c-4.1,0-6.4,3.3-7.4,7.4l-7.7,32.1
	c-1.1,4.4,3.3,8,7.4,8h2.7l2.6,19.7c0,2.8,2.3,5,5,5h4.2v0.1h4.4c2.8,0,5-2.3,5-5l2.6-19.7h2.7C142.6,127.2,146.8,123.3,145.9,119.2
	L145.9,119.2z"/>
<path class="st1" d="M78.9,150.6c2.7,0,4.9-2.2,4.9-4.9v-26h1.4c4.1,0,7.4-3.3,7.4-7.4v-26c0-4.1-3.3-7.4-7.4-7.4l-24.4,0.7
	c-4.1,0-7.4,3.3-7.4,7.4v26c0,4.1,3.3,7.4,7.4,7.4h1.4v26c0,2.7,2.2,4.9,4.9,4.9L78.9,150.6z M72.3,71.7L72.3,71.7
	c6.7,0,13.2-3.8,13.2-13.2c0-6.6-6.3-11-12.8-11.2l0,0c-6.7,0-12.2,5.5-12.2,12.2C60.5,66.1,65.8,71.5,72.3,71.7z"/>
<g>
	<path class="st2" d="M123.9,72.8V48.2c-6.8,0-12.3,5.5-12.3,12.3S117.1,72.8,123.9,72.8z"/>
	<path class="st2" d="M123.9,151.9V79.6H117c-4.1,0-6.4,3.3-7.4,7.4l-7.7,32.1c-1.1,4.4,3.3,8,7.4,8h2.7l2.6,19.7c0,2.8,2.3,5,5,5
		h4.2L123.9,151.9L123.9,151.9z"/>
</g>
<path class="st3" d="M115.1,60.3c0.1,0.2,0.1,0.3,0.1,0.4l0.2,0.9l0.2,0.7c0,0.1,0.3,0.8,0.2,0.6c-0.2-0.4,0.1,0.2,0.1,0.3l0.2,0.3
	l0.4,0.7c0.2,0.2,0.4,0.5,0.5,0.7s-0.1-0.1-0.1-0.1l0.2,0.3c0.4,0.5,0.9,0.9,1.3,1.3c0.1,0.1,0.5,0.4,0.5,0.4l0.4,0.3
	c0.5,0.3,1,0.6,1.6,0.9l0.1,0.1c-0.4-0.1,0.1,0.1,0.2,0.1c0.2,0.1,0.5,0.2,0.8,0.3l0.9,0.2c0.2,0.1,0.9,0.1,0.4,0.1
	c0.6,0.1,1.2,0.1,1.8,0.1h0.6c-0.3,0,0.5-0.1,0.6-0.1c0.6-0.1,1.1-0.3,1.7-0.5l0.4-0.2l0.6-0.3l0.7-0.4c0.1-0.1,0.7-0.5,0.3-0.2
	c0.5-0.3,0.9-0.7,1.3-1.1l0.6-0.6l0.2-0.3c-0.3,0.4-0.1,0.1,0,0l0.9-1.5c0.1-0.1,0.4-0.8,0.3-0.6c-0.1,0.3,0-0.1,0-0.1
	c0.1-0.2,0.1-0.4,0.2-0.5c0.2-0.6,0.3-1.1,0.4-1.7v-1.3c0-0.4-0.1-0.7,0-1.3l-0.1-0.5c-0.1-0.6-0.3-1.2-0.5-1.8
	c-0.1-0.3-0.1-0.3,0-0.2c0-0.1,0-0.1-0.1-0.2c-0.2-0.3-0.4-0.6-0.5-0.9c-0.1-0.3-0.3-0.5-0.5-0.8l-0.1-0.1c-0.1-0.1-0.2-0.2-0.2-0.3
	c-0.5-0.5-0.9-1-1.4-1.4l-0.4-0.3c0.4,0.3,0.1,0.1,0,0c-0.2-0.2-0.5-0.4-0.7-0.5c-0.3-0.2-0.6-0.4-0.9-0.5l-0.6-0.3l0.1,0.1
	c-0.6-0.2-1.3-0.4-1.9-0.5l-0.5-0.1c-0.3-0.1-0.5-0.1-0.8-0.1h-1.5c0.3-0.1-0.2,0-0.3,0l-0.5,0.1l-0.7,0.2l-0.8,0.3
	c-0.5,0.2-0.1,0,0,0c-0.1,0-0.2,0-0.3,0.1c-0.6,0.3-1.1,0.6-1.6,0.9c-0.1,0.1-0.2,0.2-0.3,0.2l-0.5,0.5c-0.4,0.4-0.8,0.8-1.2,1.3
	l-0.1,0.2c-0.2,0.2-0.4,0.5-0.5,0.7c-0.2,0.3-0.4,0.6-0.5,0.9l-0.3,0.6c-0.2,0.4-0.3,0.9-0.4,1.3l-0.2,1L115.1,60.3L115.1,60.3z
	 M107.6,122.8C107.1,122.6,107.5,122.8,107.6,122.8z M143.7,118.9C143.7,119,143.8,119.5,143.7,118.9z M132.1,53.7
	c0,0,0,0.1,0.1,0.1C132.2,53.7,132.1,53.7,132.1,53.7z M133.9,60.8C134,60.3,133.9,60.7,133.9,60.8z M135.5,85L135.5,85L135.5,85z
	 M132,81.6C131.7,81.5,131.8,81.6,132,81.6z M139.7,102.1l-3.6-15.2c-0.2-0.6-0.3-1.1-0.5-1.5c0-0.1-0.1-0.3-0.1-0.5v-0.1
	c-0.1-0.2-0.2-0.4-0.2-0.5l-0.4-0.7l-0.2-0.4c0.1,0.2-0.3-0.3-0.4-0.4c-0.2-0.2-0.3-0.4-0.5-0.5c-0.2-0.2-0.1-0.1,0.1,0l-0.3-0.2
	l-0.4-0.2l-0.4-0.1c-0.3-0.1-0.5-0.1-0.7-0.2h-15.2c0,0-0.4,0.1-0.1,0l-0.5,0.1c-0.1,0-0.7,0.3-0.4,0.1s-0.3,0.1-0.4,0.2
	c-0.1,0-0.3,0.1-0.4,0.2l-0.5,0.5c-0.1,0-0.5,0.5-0.3,0.3l-0.3,0.4c-0.3,0.5-0.6,1-0.8,1.5l-0.1,0.3c-0.1,0.2-0.1,0.4-0.2,0.7
	c-0.2,0.5-0.3,1-0.4,1.5c-1.2,4.6-2.3,9.3-3.4,14l-3.7,15.6c-0.1,0.6-0.3,1.1-0.4,1.6l-0.1,0.2v0.9l0.2,0.7l0.1,0.2
	c0.4,0.7,0.9,1.2,1.5,1.6c0.2,0.1,0.4,0.3,0.7,0.4l0.3,0.2c0.4,0.2,0.8,0.3,1.3,0.4h3.4c1.7,0,2.6,1.3,2.8,2.8l1.7,12.9l0.8,6
	l0.1,1.2V146c0,0.2,0,0.4,0.1,0.5v0.1l0.3,0.5c-0.3-0.5,0.1,0.1,0.2,0.2c0.2,0.1,0.3,0.2,0.4,0.3s0.2,0.1,0.2,0.1l0.1,0.1h0.1
	c0.1,0,0.2,0,0.3,0.1h9.5l0.4-0.1c0,0,0.1-0.1,0.2-0.1c0,0,0.7-0.5,0.2-0.1c0.2-0.1,0.3-0.1,0.4-0.3c0.1-0.2,0.2-0.3,0.3-0.4
	c0,0,0.1-0.1,0.1-0.2l0.2-0.5l0.1-0.2v-0.4c0-0.6,0.1-1.1,0.2-1.7l0.9-6.8c0.4-3.6,0.9-7.3,1.4-11c0.2-1.5,1.2-2.8,2.8-2.8h2.9
	c0.1,0,0.5-0.1,0.5,0l0.3-0.1c0.4-0.1,0.7-0.2,1-0.3c-0.5,0.3,0.3-0.1,0.3-0.1l0.4-0.3c0,0,0.2-0.1,0.3-0.1s0.2-0.2,0.2-0.2l0.9-0.9
	c-0.3,0.3,0,0.1,0.1-0.1l0.3-0.4l0.1-0.1c0.1-0.2,0.1-0.4,0.2-0.5c0-0.2,0-0.4,0.1-0.6v-0.7C143.8,118.9,139.7,102.1,139.7,102.1z
	 M133.1,81.9l-0.2-0.1C132.7,81.7,133,81.9,133.1,81.9z"/>
<path class="st4" d="M127.4,74.2c6.6-1.2,11.5-7.2,12-13.8c0.1-0.3,0.1-0.6,0.1-0.9c-0.1-6.4-4-11.9-10-14.1
	c-5.7-2.1-12.6-0.3-16.5,4.4c-4,4.9-4.8,11.9-1.5,17.4S121.2,75.4,127.4,74.2z M115.7,55.8c0,0.1,0.2-0.4,0.3-0.6
	c0.1-0.3,0.3-0.6,0.5-0.9c0.1-0.2,0.3-0.5,0.5-0.7l0.1-0.2c0.4-0.5,0.8-0.9,1.2-1.3l0.5-0.5c0.1,0,0.3-0.2,0.3-0.2
	c0.5-0.3,1-0.6,1.6-0.9c0.1-0.1,0.2-0.1,0.3-0.1l0.8-0.3l0.7-0.2l0.5-0.1c0.1,0,0.6-0.1,0.3,0h1.5c0.3,0,0.5,0,0.8,0.1l0.5,0.1
	c0.6,0.1,1.3,0.3,1.9,0.5c-0.1,0-0.1-0.1-0.1-0.1l0.6,0.3c0.3,0.1,0.6,0.3,0.9,0.5c0.2,0.1,0.5,0.3,0.7,0.5l0.4,0.3
	c0.5,0.4,0.9,0.9,1.4,1.4c0.1,0.1,0.2,0.2,0.2,0.3c0,0,0,0.1,0.1,0.1c0.2,0.3,0.4,0.5,0.5,0.8s0.3,0.6,0.5,0.9
	c0.1,0.1,0.1,0.1,0.1,0.2c0-0.1-0.1-0.2,0,0.2c0.2,0.6,0.4,1.2,0.5,1.8l0.1,0.5c-0.1,0.6,0,0.9,0,1.3v1.3c0-0.1,0.1-0.5,0,0
	c-0.1,0.6-0.2,1.1-0.4,1.7c-0.1,0.1-0.1,0.3-0.2,0.5c0,0-0.1,0.4,0,0.1c0.1-0.2-0.2,0.5-0.3,0.6l-0.9,1.5l-0.2,0.3l-0.6,0.6
	c-0.4,0.4-0.8,0.8-1.3,1.1c0.4-0.3-0.2,0.1-0.3,0.2l-0.7,0.4l-0.6,0.3l-0.4,0.2c-0.6,0.2-1.1,0.4-1.7,0.5c-0.1,0-0.9,0.1-0.6,0.1
	h-0.6c-0.6,0-1.2,0-1.8-0.1c0.5,0-0.2,0-0.4-0.1l-0.9-0.2c-0.3-0.1-0.6-0.2-0.8-0.3c-0.1,0-0.6-0.2-0.2-0.1c-0.1,0-0.1-0.1-0.1-0.1
	c-0.6-0.3-1.1-0.6-1.6-0.9l-0.4-0.3c0,0-0.4-0.3-0.5-0.4c-0.4-0.4-0.9-0.8-1.3-1.3l-0.2-0.3c0,0,0.2,0.3,0.1,0.1
	c-0.1-0.2-0.3-0.5-0.5-0.7l-0.4-0.7l-0.2-0.3c0-0.1-0.3-0.7-0.1-0.3c0.1,0.2-0.2-0.5-0.2-0.6l-0.2-0.7l-0.2-0.9c0-0.1,0-0.2-0.1-0.4
	v-2.2l0.2-1L115.7,55.8L115.7,55.8z M148,113.7l-5.3-22.1l-1.2-5.1c0-0.4,0-0.7-0.1-1.1c-0.6-2.5-1.6-4.9-3.4-6.7
	c-1.8-1.8-4.2-2.7-6.7-2.8h-13.8c-5.5,0.1-8.9,4.5-10.1,9.5c-1,4.1-2,8.2-3,12.4l-4.2,17.4c-0.5,2-1,3.9-0.6,6
	c0.5,2.6,2.4,4.9,4.7,6.2c1.7,1,3.7,1.4,5.8,1.5l1.1,9l0.9,6.7c0.1,0.4,0.1,0.8,0.1,1.2c0.2,2.3,0.9,4.4,2.8,5.9
	c1.5,1.2,3.2,1.8,5.2,1.8h3.1c2.3,0,4.8,0.3,7.1-0.2s4.3-2.1,5.2-4.2c0.6-1.2,0.7-2.4,0.8-3.7l0.7-5.6l1.4-11c1.3,0,2.5-0.2,3.7-0.6
	c3.1-1.2,6-3.8,6.7-7.2C149.4,118.5,148.5,116.1,148,113.7L148,113.7z M143.7,118.9v0.6c-0.1,0.2-0.1,0.4-0.1,0.6
	c-0.1,0.1-0.1,0.3-0.2,0.5l-0.1,0.1l-0.3,0.4c-0.1,0.2-0.4,0.4-0.1,0.1l-0.9,0.9l-0.2,0.2c-0.1,0.1-0.3,0.1-0.3,0.1l-0.4,0.3
	c0,0-0.8,0.4-0.3,0.1c-0.3,0.1-0.6,0.2-1,0.3l-0.3,0.1h-3.4c-1.6,0-2.6,1.3-2.8,2.8c-0.5,3.7-1,7.4-1.4,11l-0.9,6.8
	c-0.1,0.6-0.2,1.1-0.2,1.7v0.4c0,0-0.1,0.1-0.1,0.2c0,0-0.2,0.4-0.2,0.5c-0.1,0.1-0.1,0.2-0.1,0.2c-0.1,0.1-0.2,0.2-0.3,0.4
	s-0.2,0.2-0.4,0.3c0.5-0.4-0.2,0.1-0.2,0.1c-0.1,0.1-0.1,0.1-0.2,0.1l-0.4,0.1h-9.5l-0.3-0.1H119l-0.1-0.1c0,0-0.1-0.1-0.2-0.1
	c-0.1-0.1-0.2-0.2-0.4-0.3c-0.1-0.1-0.5-0.7-0.2-0.2l-0.3-0.5v-0.1c-0.1-0.1-0.1-0.3-0.1-0.5v0.1l-0.1-1.2l-0.8-6l-1.7-12.9
	c-0.2-1.5-1.1-2.8-2.8-2.8h-2.9c-0.2,0-0.7-0.1-0.5,0c-0.5-0.1-0.9-0.2-1.3-0.4c-0.1,0-0.5-0.2,0,0l-0.3-0.2
	c-0.3-0.1-0.5-0.3-0.7-0.4c-0.6-0.4-1.1-0.9-1.5-1.6l-0.1-0.2l-0.2-0.7v-0.3c0-0.1,0.1-0.5,0-0.6l0.1-0.2c0.1-0.5,0.3-1,0.4-1.6
	l3.7-15.6c1.1-4.7,2.2-9.4,3.4-14c0.1-0.5,0.2-1,0.4-1.5c0.1-0.3,0.1-0.5,0.2-0.7c0-0.1,0-0.2,0.1-0.3c0.2-0.5,0.5-1,0.8-1.5
	l0.3-0.4c-0.2,0.2,0.2-0.3,0.3-0.3l0.5-0.5c0.1-0.1,0.3-0.2,0.4-0.2c0.1-0.1,0.7-0.4,0.4-0.2s0.3-0.1,0.4-0.1l0.5-0.1
	c-0.3,0.1,0.1,0,0.1,0H132c-0.2,0-0.3-0.1,0,0c0.2,0.1,0.4,0.1,0.7,0.2l0.4,0.1c-0.1,0-0.4-0.2-0.2-0.1l0.2,0.1l0.4,0.2l0.3,0.2
	c-0.2-0.1-0.3-0.2-0.1,0c0.2,0.1,0.3,0.3,0.5,0.5c0.1,0.1,0.5,0.6,0.4,0.4l0.2,0.4l0.4,0.7c0.1,0.2,0.2,0.3,0.2,0.5v0.1v-0.1
	l0.1,0.5c0.2,0.4,0.3,0.9,0.5,1.5l3.6,15.2l4,16.7v0.3C143.8,119.5,143.7,119,143.7,118.9z M121,50.4
	C120.9,50.4,120.5,50.6,121,50.4z M132.1,65.2C132,65.3,131.8,65.6,132.1,65.2z M128,50.5C128.1,50.5,128.2,50.6,128,50.5z
	 M121,68.1C121.1,68.1,121.2,68.2,121,68.1z M132.2,53.8c0,0,0-0.1-0.1-0.1L132.2,53.8z M130.1,51.7C130.2,51.8,130.5,52,130.1,51.7
	z"/>
<path class="st3" d="M88.9,115.4C88.9,115.5,88.8,115.5,88.9,115.4C88.8,115.5,88.9,115.5,88.9,115.4z M63.9,60.2
	c0.1,0.2,0.1,0.3,0.1,0.4l0.2,0.9l0.2,0.7c0,0.1,0.3,0.8,0.2,0.6c-0.2-0.4,0.1,0.2,0.1,0.3l0.2,0.3l0.4,0.7c0.2,0.2,0.4,0.5,0.5,0.7
	s-0.1-0.1-0.1-0.1l0.2,0.3c0.4,0.5,0.9,0.9,1.3,1.3c0.1,0.1,0.7,0.5,0.5,0.4l0.4,0.3c0.5,0.4,1,0.6,1.6,0.9l0.1,0.1
	c-0.4-0.1,0.1,0.1,0.2,0.1c0.2,0.1,0.5,0.2,0.8,0.3l0.9,0.2c0.2,0.1,0.9,0.1,0.4,0.1c0.6,0.1,1.2,0.1,1.8,0.1h0.6
	c-0.3,0,0.5-0.1,0.6-0.1c0.6-0.1,1.1-0.3,1.7-0.5l0.4-0.2l0.6-0.3l0.7-0.4c0.1-0.1,0.3-0.3,0.4-0.3c0.4-0.3,0.7-0.6,1.1-1l0.6-0.6
	l0.2-0.3c-0.3,0.4-0.1,0.1,0,0c0.3-0.4,0.6-0.9,0.9-1.4c0.1-0.1,0.4-0.8,0.3-0.6c-0.1,0.3,0-0.1,0-0.1c0.1-0.2,0.1-0.4,0.2-0.5
	c0.2-0.6,0.3-1.1,0.4-1.7v-2.6l-0.1-0.5c-0.1-0.6-0.3-1.2-0.5-1.8c-0.1-0.3-0.1-0.3,0-0.2c0-0.1,0-0.1-0.1-0.2l-0.5-0.9
	c-0.1-0.3-0.3-0.5-0.5-0.8l-0.1-0.1c-0.1-0.1-0.2-0.2-0.2-0.3c-0.4-0.4-0.8-0.9-1.3-1.3c-0.2-0.1-0.3-0.2-0.4-0.3
	c-0.2-0.2-0.5-0.4-0.7-0.5c-0.3-0.2-0.6-0.4-0.9-0.5l-0.6-0.3l0.1,0.1c-0.6-0.2-1.3-0.4-1.9-0.5L74.4,50c-0.3-0.1-0.5-0.1-0.8-0.1
	h-1.5c0.3-0.1-0.2,0-0.3,0L71.3,50l-0.7,0.2l-0.8,0.3c-0.5,0.2-0.1,0,0,0c-0.1,0-0.2,0-0.3,0.1c-0.6,0.3-1.1,0.6-1.6,0.9
	c-0.1,0.1-0.6,0.4-0.2,0.1c-0.2,0.1-0.4,0.3-0.6,0.5c-0.4,0.4-0.8,0.8-1.2,1.3l-0.1,0.2c-0.2,0.2-0.4,0.5-0.5,0.7
	c-0.2,0.3-0.4,0.6-0.5,0.9l-0.2,0.3c-0.2,0.5-0.4,1-0.5,1.5c-0.1,0.4-0.1,0.7-0.2,1L63.9,60.2L63.9,60.2z M82.6,60.8
	C82.7,60.3,82.6,60.7,82.6,60.8z M80.8,53.7C80.8,53.7,80.8,53.8,80.8,53.7C80.9,53.7,80.8,53.7,80.8,53.7z M78.9,51.8
	C79,51.9,79.3,52.1,78.9,51.8z M88.9,115.4L88.9,115.4C88.9,115.3,88.9,115.4,88.9,115.4z M89.8,86.5v-0.4c0,0-0.1-0.4,0-0.1v0.1
	v-0.2l-0.1-0.5c0-0.2-0.1-0.5-0.2-0.7c0.2,0.5,0-0.1-0.1-0.2c-0.1-0.2-0.2-0.4-0.4-0.6c0,0-0.2-0.3-0.3-0.4
	c-0.1-0.2-0.3-0.3-0.5-0.5c0.4,0.4-0.2-0.1-0.3-0.2c-0.2-0.1-0.4-0.3-0.7-0.4c0.4,0.2-0.1,0-0.3-0.1L86,82.1H60.7
	c-0.2,0-0.3,0.1-0.4,0.1c-0.2,0.1-0.5,0.2-0.8,0.3c-0.3,0.1,0.1,0,0.1,0l-0.3,0.2l-0.6,0.4l-0.1,0.1c-0.1,0-0.2,0.1-0.3,0.2
	c-0.2,0.1-0.3,0.3-0.5,0.5l0.1-0.1l-0.2,0.3l-0.4,0.7c0,0.2-0.1,0.3-0.1,0.4L57,85.9c-0.1,0.1-0.2,0.7-0.1,0.3c0.1-0.4,0,0.1,0,0.1
	v27.1c0.1,0.2,0.2,0.4,0.2,0.6s0.1,0.5,0.2,0.7l0.2,0.3l0.4,0.6c0,0,0.2,0.3,0.3,0.3l0.4,0.4l0.4,0.3c0.1,0,0.3,0.1,0.4,0.2
	c0.1,0,0.5,0.2,0.2,0.1c0.1,0.1,0.4,0.2,0.5,0.2l0.7,0.2h2.1c1.5,0,2.8,1.3,2.8,2.8v0.3c0.1,5.3,0,10.7,0,16v9.6
	c0,0.2,0.2,0.8,0,0.3l0.1,0.5c0,0.1,0.2,0.4,0.3,0.5c0.1,0.2,0.2,0.3,0.3,0.4l0.1,0.1h0.1l0.5,0.3l0.5,0.1c-0.5-0.2,0.1,0,0.3,0H79
	c0.1,0,0.7-0.1,0.4,0c-0.3,0.1,0.2,0,0.4-0.1c0.1,0,0.2-0.1,0.2-0.1c0.1,0,0.3-0.1,0.4-0.2c-0.4,0.2,0.1-0.1,0.2-0.2l0.2-0.3
	c0-0.1,0.1-0.3,0.2-0.4l0.1-0.5c-0.1,0.3,0-0.3,0-0.4v-25.9c0-1.5,1.3-2.8,2.8-2.8c0.7,0,1.4,0.1,2.1,0l0.5-0.1l0.8-0.3
	c-0.5,0.2,0.3-0.2,0.4-0.3l0.4-0.3l0.1-0.1l0.2-0.2l0.3-0.3l0.1-0.2c0,0,0.1-0.1,0.1-0.2c0.2-0.2,0.3-0.5,0.4-0.7c0,0,0-0.1,0.1-0.1
	c-0.1,0.2,0-0.2,0-0.2c0.1-0.2,0.1-0.5,0.2-0.8c0,0,0-0.2,0.1-0.3v-0.7c0.1-4.5,0-8.9,0-13.4L89.8,86.5L89.8,86.5z M57.3,84.8
	C57.2,85,57.2,85.1,57.3,84.8z"/>
<g>
	<path class="st5" d="M72.3,71.7V47.3c-6.5,0.2-11.8,5.6-11.8,12.2C60.5,66.1,65.8,71.5,72.3,71.7z"/>
	<path class="st5" d="M72.3,79.6H60.8c-4.1,0-7.4,3.3-7.4,7.4v26c0,4.1,3.3,7.4,7.4,7.4h1.4v26c0,2.7,2.2,4.9,4.9,4.9h5.2V79.6z"/>
</g>
<path class="st4" d="M76.3,74.1c6.9-1.3,11.9-7.7,11.9-14.6c-0.1-6.3-4-11.9-9.9-14.1c-5.7-2.1-12.6-0.3-16.4,4.4
	c-4,4.9-4.8,11.8-1.5,17.3S70,75.3,76.3,74.1z M64.6,55.5l0.2-0.3c0.1-0.3,0.3-0.6,0.5-0.9c0.1-0.2,0.3-0.5,0.5-0.7l0.1-0.2
	c0.4-0.5,0.8-0.9,1.2-1.3c0.2-0.2,0.4-0.4,0.6-0.5c-0.4,0.3,0.1,0,0.2-0.1c0.5-0.3,1-0.6,1.6-0.9c0.1-0.1,0.2-0.1,0.3-0.1l0.8-0.3
	l0.7-0.2l0.5-0.1c0.1,0,0.6-0.1,0.3,0h1.5c0.3,0,0.5,0,0.8,0.1l0.5,0.1c0.6,0.1,1.3,0.3,1.9,0.5c-0.1,0-0.1-0.1-0.1-0.1l0.6,0.3
	c0.3,0.1,0.6,0.3,0.9,0.5c0.2,0.1,0.5,0.3,0.7,0.5c0.4,0.3,0.1,0.1,0,0c0.1,0.1,0.2,0.2,0.4,0.3c0.5,0.4,0.9,0.9,1.3,1.3
	c0.1,0.1,0.2,0.2,0.2,0.3c0,0,0,0.1,0.1,0.1c0.2,0.3,0.4,0.5,0.5,0.8l0.5,0.9c0.1,0.1,0.1,0.1,0.1,0.2c0-0.1-0.1-0.2,0,0.2
	c0.2,0.6,0.4,1.2,0.5,1.8l0.1,0.5v2.6c0-0.1,0.1-0.5,0,0c-0.1,0.6-0.2,1.1-0.4,1.7c-0.1,0.1-0.1,0.3-0.2,0.5c0,0-0.1,0.4,0,0.1
	c0.1-0.2-0.2,0.5-0.3,0.6c-0.3,0.5-0.6,1-0.9,1.4l-0.2,0.3L80,66c-0.4,0.4-0.7,0.7-1.1,1c-0.1,0-0.4,0.2-0.4,0.3l-0.7,0.4L77.2,68
	l-0.4,0.2c-0.6,0.2-1.1,0.4-1.7,0.5c-0.1,0-0.9,0.1-0.6,0.1h-0.6c-0.6,0-1.2,0-1.8-0.1c0.5,0-0.2,0-0.4-0.1l-0.9-0.2
	c-0.3-0.1-0.6-0.2-0.8-0.3c-0.1,0-0.6-0.2-0.2-0.1c-0.1,0-0.1-0.1-0.1-0.1c-0.6-0.3-1.1-0.5-1.6-0.9l-0.4-0.3
	c0.2,0.1-0.4-0.3-0.5-0.4c-0.4-0.4-0.9-0.8-1.3-1.3l-0.2-0.3c0,0,0.2,0.3,0.1,0.1c-0.1-0.2-0.3-0.5-0.5-0.7l-0.4-0.7l-0.2-0.3
	c0-0.1-0.3-0.7-0.1-0.3c0.1,0.2-0.2-0.5-0.2-0.6l-0.2-0.7L64,60.6c0-0.1,0-0.2-0.1-0.4V58c0.1-0.3,0.1-0.6,0.2-1
	C64.2,56.5,64.4,56,64.6,55.5L64.6,55.5z M88.8,115.5L88.8,115.5c0.1-0.1,0.1-0.2,0.2-0.2L88.8,115.5z M69.8,50.5
	C69.7,50.5,69.3,50.7,69.8,50.5z M95.6,109.4V86.2c0-0.4-0.1-0.9-0.4-1.3c-0.8-4.9-5-8.5-10-8.6h-23c-1,0-2,0-3,0.2
	c-2.7,0.5-5.1,2.3-6.5,4.6c-1.5,2.3-1.5,4.9-1.5,7.5v23.7c0.1,5.1,3.8,9.3,8.8,10.1v23c0,2.1,0.8,4.1,2.3,5.6
	c2.7,2.7,6.3,2.3,9.8,2.3h5c1.2,0,2.4,0.1,3.7-0.2c2.8-0.6,5.2-3.1,5.8-5.9c0.2-0.9,0.2-1.7,0.2-2.6v-7.7c0-4.9,0.1-9.8,0-14.7
	c1.1-0.2,2.1-0.4,3.2-0.9c2.4-1.2,4.2-3.4,5.1-5.9C95.8,113.5,95.6,111.4,95.6,109.4z M89.8,112.5v0.7l-0.1,0.3
	c-0.1,0.3-0.1,0.6-0.2,0.8c0,0-0.2,0.3,0,0.2c0,0.1-0.1,0.1-0.1,0.1c-0.2,0.3-0.3,0.5-0.4,0.7l-0.1,0.1c0,0,0,0.1-0.1,0.1l-0.1,0.2
	l-0.3,0.3l-0.2,0.2l-0.1,0.1l-0.4,0.3c-0.1,0.1-0.9,0.5-0.4,0.3l-0.8,0.3l-0.5,0.1c-0.7,0.1-1.3,0-2.1,0c-1.5,0-2.8,1.3-2.8,2.8V146
	c0,0.1-0.1,0.7,0,0.4l-0.1,0.5c-0.1,0.1-0.2,0.3-0.2,0.4l-0.2,0.3c-0.1,0.1-0.6,0.4-0.2,0.2c-0.1,0.1-0.3,0.2-0.4,0.2
	c0,0-0.1,0.1-0.2,0.1c-0.2,0.1-0.7,0.2-0.4,0.1c0.3-0.1-0.3,0-0.4,0H67.9c-0.2,0-0.8-0.2-0.3,0l-0.5-0.1c-0.1,0-0.4-0.2-0.5-0.3
	h-0.1l-0.1-0.1c-0.1-0.1-0.2-0.2-0.3-0.4l-0.3-0.5l-0.1-0.5c0.2,0.5,0-0.1,0-0.3v-9.6c0-5.3,0.1-10.7,0-16v-0.3
	c0-1.5-1.3-2.8-2.8-2.8h-2.1l-0.7-0.2c-0.1,0-0.4-0.1-0.5-0.2c0.3,0.1-0.1-0.1-0.2-0.1c-0.1-0.1-0.3-0.2-0.4-0.2l-0.4-0.3l-0.4-0.4
	c-0.1-0.1-0.3-0.4-0.3-0.3l-0.4-0.6l-0.2-0.3c-0.1-0.2-0.2-0.5-0.2-0.7s-0.1-0.4-0.2-0.6V86.3c0,0,0.1-0.5,0-0.1s0-0.2,0.1-0.3
	l0.2-0.7c0-0.1,0.1-0.2,0.1-0.4c-0.1,0.3-0.1,0.2,0,0l0.4-0.7l0.2-0.3l-0.1,0.1c0.2-0.2,0.3-0.4,0.5-0.5c0.1-0.1,0.2-0.2,0.3-0.2
	l0.1-0.1l0.6-0.4l0.3-0.2c0,0-0.4,0.1-0.1,0c0.3-0.1,0.6-0.2,0.8-0.3c0.1,0,0.2-0.1,0.4-0.1H86l0.9,0.2c0.2,0.1,0.7,0.3,0.3,0.1
	c0.3,0.1,0.5,0.3,0.7,0.4c0.1,0.1,0.7,0.6,0.3,0.2c0.2,0.2,0.4,0.3,0.5,0.5c0.1,0.1,0.3,0.4,0.3,0.4c0.2,0.2,0.3,0.4,0.4,0.6
	c0.1,0.1,0.3,0.7,0.1,0.2c0.1,0.2,0.2,0.5,0.2,0.7l0.1,0.5v0.2V86c-0.1-0.3,0,0.1,0,0.1v13C89.8,103.6,89.9,108,89.8,112.5
	L89.8,112.5z M69.8,68C69.9,68,70,68.1,69.8,68z M80.8,65.1C80.7,65.2,80.5,65.5,80.8,65.1z M80.9,53.8
	C80.9,53.8,80.9,53.7,80.9,53.8L80.9,53.8z M76.8,50.6C76.9,50.6,77,50.7,76.8,50.6z"/>
</svg>
