<svg xmlns="http://www.w3.org/2000/svg" viewBox="0 0 200 200" enable-background="new 0 0 200 200"><style type="text/css">.st0{fill:#8CB6DD;} .st1{fill:#3669B5;}</style><circle class="st0" cx="124.3" cy="59.9" r="12.3"/><path class="st1" d="M133.8 59.9v1.3c0-.1.1-.5 0 0-.1.6-.2 1.1-.4 1.7-.1.1-.1.3-.2.5 0 0-.1.4 0 .1.1-.2-.2.5-.3.6l-.9 1.5c-.1.1-.3.4 0 0l-.2.3-.6.6c-.4.4-.8.8-1.3 1.1.4-.3-.2.1-.3.2l-.7.4-.6.3-.4.2c.3-.1.2-.1 0 0-.6.2-1.1.4-1.7.5-.1 0-.9.1-.6.1h-.6c-.6 0-1.2 0-1.8-.1.5 0-.2 0-.4-.1l-.9-.2c-.3-.1-.6-.2-.8-.3-.1 0-.6-.2-.2-.1.3.1-.1 0-.1-.1-.6-.3-1.1-.6-1.6-.9l-.4-.3c.2.1-.4-.3-.5-.4-.4-.4-.9-.8-1.3-1.3l-.2-.3s.2.3.1.1c-.1-.2-.3-.5-.5-.7s-.3-.5-.4-.7l-.2-.3c0-.1-.3-.7-.1-.3.1.2-.2-.5-.2-.6l-.2-.7-.2-.9c0-.1 0-.2-.1-.4v-2.3s-.1.4 0 .1l.2-1c.1-.5.3-1 .5-1.5-.2.5.1-.2.2-.4.1-.3.3-.6.5-.9.1-.2.3-.5.5-.7l.1-.2c.4-.5.8-.9 1.2-1.3l.6-.6c-.4.3.1 0 .2-.1.5-.3 1-.6 1.6-.9.1-.1.2-.1.3-.1-.5.2-.1 0 0 0l.8-.3.7-.2.5-.1c.1 0 .6-.1.3 0h1.5c.3 0 .5 0 .8.1.4 0-.4-.1 0 0l.5.1c.6.1 1.3.3 1.9.5.3.1-.1 0-.1-.1l.6.3c.3.1.6.3.9.5.2.1.5.3.7.5.4.3.1.1 0 0l.4.3c.5.4.9.9 1.4 1.4.1.1.2.2.3.4-.2-.2-.1-.2 0 0 .2.3.4.5.5.8s.3.6.5.9c.1.1.1.2.1.3.2.4-.2-.6 0 .1.2.6.4 1.2.5 1.8l.1.5c.1.4 0-.4 0 0v1.3c0 1.4 1.3 2.8 2.8 2.8 1.5-.1 2.8-1.2 2.8-2.8-.1-6.4-4-11.9-10-14.1-5.7-2.1-12.6-.3-16.5 4.4-4 4.9-4.8 11.9-1.5 17.4 3.3 5.5 9.7 8.2 15.9 7 6.9-1.3 11.9-7.7 12-14.7 0-1.4-1.3-2.8-2.8-2.8-1.4.1-2.7 1.3-2.7 2.8z"/><path class="st0" d="M138.7 86.5l7.7 32.1c.9 4.1-3.3 8-7.4 8h-2.7l-2.6 19.7c0 2.7-2.2 5-5 5h-8.7c-2.7 0-5-2.2-5-5l-2.6-19.7h-2.7c-4.1 0-8.5-3.6-7.4-8l7.7-32.1c1-4.1 3.3-7.4 7.4-7.4h13.8c4.1 0 6.5 3.1 7.5 7.4z"/><path class="st1" d="M136 87.3l3.6 15.2 4 16.7v.1c.1.6 0 .1 0 0v.6c0 .4.1-.4 0 0-.1.2-.1.4-.1.6-.1.1-.1.3-.2.5l-.1.1-.3.4c-.1.2-.4.4-.1.1l-.9.9s-.4.3-.1.1c.3-.2-.3.2-.4.2l-.4.3s-.8.4-.3.1c-.3.1-.6.2-1 .3l-.5.1c.6-.1-.2 0-.3 0h-2.9c-1.6 0-2.6 1.3-2.8 2.8-.5 3.7-1 7.4-1.4 11l-.9 6.8c-.1.6-.2 1.1-.2 1.7v.4c0 .7.2-.4-.1.2 0 0-.3.7-.1.4.2-.4-.2.3-.2.3-.1.1-.2.2-.3.4-.1.1-.2.2-.4.3.5-.4-.2.1-.2.1-.6.4.3-.1-.1.1l-.6.2c.5-.1-.3 0-.6 0h-8.3c-.2 0-.9-.1-.3 0-.1 0-.3-.1-.5-.1-.6-.1.3.3-.2-.1-.1 0-.7-.5-.2-.1-.1-.1-.2-.2-.4-.3-.1-.1-.5-.7-.2-.2l-.3-.5c-.2-.4.1.6 0-.1-.1-.1-.1-.3-.1-.5v.1l-.1-1.2-.8-6-1.7-12.9c-.2-1.5-1.1-2.8-2.8-2.8h-2.9c-.2 0-.9-.1-.4 0-.5-.1-1-.2-1.4-.4-.1 0-.5-.2 0 0l-.3-.2c-.3-.1-.5-.3-.7-.4-.6-.4-1.1-.9-1.5-1.6l-.1-.2-.2-.7v-.3c0-.2.1-.9 0-.4l.1-.4c.1-.5.3-1 .4-1.6l3.7-15.6c1.1-4.7 2.2-9.4 3.4-14 .1-.5.2-1 .4-1.5.1-.3.1-.5.2-.7 0-.1.1-.2.1-.4 0 0-.2.4 0 .1.2-.5.5-1 .8-1.5l.3-.4c-.2.2.2-.3.3-.3l.5-.5c.3-.3-.4.2 0 0 .1-.1.3-.2.4-.2.1-.1.7-.4.4-.2-.3.1.3-.1.4-.1l.5-.1c-.3.1.1 0 .1 0h15.2c-.2 0-.3-.1 0 0 .2.1.4.1.7.2l.4.1c-.1 0-.4-.2-.2-.1l.6.3.3.2c-.2-.1-.3-.2-.1 0 .2.1.3.3.5.5.1.1.5.6.4.4l.2.4.4.7c.1.2.2.4.3.7-.2-.5.1.2.1.4.2.4.4.9.5 1.5.3 1.5 2 2.3 3.4 1.9 1.5-.4 2.3-1.9 1.9-3.4-.6-2.5-1.6-4.9-3.4-6.7-1.8-1.8-4.2-2.7-6.7-2.8h-13.8c-5.5.1-8.9 4.5-10.1 9.5-1 4.1-2 8.2-3 12.4l-4.2 17.4c-.5 2-1 3.9-.6 6 .5 2.6 2.4 4.9 4.7 6.2 1.9 1.1 4.1 1.5 6.3 1.5h1.9l-2.8-2.8 1.5 11.8.9 6.7c.1.4.1.8.1 1.2.2 2.3.9 4.4 2.8 5.9 1.5 1.2 3.2 1.8 5.2 1.8h3.1c2.3 0 4.8.3 7.1-.2s4.3-2.1 5.2-4.2c.6-1.2.7-2.4.8-3.7l.7-5.6 1.8-13.8-2.8 2.8c2.1 0 4.2.1 6.1-.6 3.1-1.2 6-3.8 6.7-7.2.5-2.5-.4-4.9-.9-7.3l-5.3-22.1-1.5-6.3c-.4-1.5-2-2.3-3.4-1.9-1.2.5-2 2-1.7 3.5z"/><circle class="st0" cx="73.1" cy="59.9" r="12.2"/><path class="st1" d="M82.6 59.9v1.3c0-.1.1-.5 0 0-.1.6-.2 1.1-.4 1.7-.2.1-.2.3-.3.4 0 0-.1.4 0 .1.1-.2-.2.5-.3.6-.3.5-.6 1-.9 1.4-.1.1-.3.4 0 0l-.2.3-.6.6c-.4.4-.8.8-1.2 1.1.4-.3-.2.1-.3.2l-.7.4-.6.3-.4.2c.3-.1.2-.1 0 0-.6.2-1.1.4-1.7.5-.1 0-.9.1-.6.1h-.6c-.6 0-1.2 0-1.8-.1.5 0-.2 0-.4-.1l-.9-.2c-.3-.1-.6-.2-.8-.3-.1 0-.6-.2-.2-.1.3.1-.1 0-.1-.1-.6-.3-1.1-.5-1.6-.9l-.4-.3s-.5.1-.6 0c-.4-.4-.9-.8-1.3-1.3l-.2-.3s.2.3.1.1c-.1-.2-.3-.5-.5-.7s-.3-.5-.4-.7l-.2-.3c0-.1-.3-.7-.1-.3.1.2-.2-.5-.2-.6l-.2-.7-.2-.9c0-.1 0-.2-.1-.4v-2.3s-.1.4 0 .1c.1-.3.1-.6.2-1 .1-.5.3-1 .5-1.5l.2-.3c.1-.3.3-.6.5-.9.1-.2.3-.5.5-.7l.1-.2c.4-.5.8-.9 1.2-1.3.2-.2.4-.4.6-.5-.4.3.1 0 .2-.1.5-.3 1-.6 1.6-.9.1-.1.2-.1.3-.1-.5.2-.1 0 0 0l.8-.3.7-.2.5-.1c.1 0 .6-.1.3 0h1.5c.3 0 .5 0 .8.1.4 0-.4-.1 0 0l.5.1c.6.1 1.3.3 1.9.5.3.1-.1 0-.1-.1l.6.3c.3.1.6.3.9.5.2.1.5.3.7.5.4.3.1.1 0 0 .1.1.2.2.4.3.5.4.9.9 1.3 1.3.1.1.2.2.3.4-.2-.2-.1-.2 0 0 .2.3.4.5.5.8l.5.9c.1.1.1.2.1.3.2.4-.2-.6 0 .1.2.6.4 1.2.5 1.8l.1.5c.1.4 0-.4 0 0 .1.2.2.6.2 1 0 1.4 1.3 2.8 2.8 2.8 1.5-.1 2.8-1.2 2.8-2.8-.1-6.3-4-11.9-9.9-14.1-5.7-2.1-12.6-.3-16.4 4.4-4 4.9-4.8 11.8-1.5 17.3s9.6 8.2 15.9 7c6.9-1.3 11.9-7.7 11.9-14.6 0-1.4-1.3-2.8-2.8-2.8-1.6 0-2.8 1.2-2.8 2.8z"/><path class="st0" d="M92.5 86.9v26c0 4.1-3.3 7.4-7.4 7.4h-1.4v26c0 2.7-2.2 4.9-4.9 4.9h-11.2c-2.7 0-4.9-2.2-4.9-4.9v-26h-1.4c-4.1 0-7.4-3.3-7.4-7.4v-26c0-4.1 3.3-7.4 7.4-7.4h23.9c4 0 7.3 3.3 7.3 7.4z"/><path class="st1" d="M89.7 86.9v12.6c0 4.5.1 8.9 0 13.4v.6s-.1.5 0 .1c.1-.3-.1.2-.1.3-.1.3-.1.6-.2.8 0 0-.2.4 0 .1l-.1.2c-.2.3-.3.6-.5.8-.2.3 0-.1.1-.1-.1.1-.2.2-.3.4l-.3.3-.2.2-.1.1-.4.3c-.1.1-.9.5-.4.3l-.8.3c-.2 0-.9.2-.4.1-.7.1-1.4 0-2.2 0-1.5 0-2.8 1.3-2.8 2.8v25.9c0 .1-.1.7 0 .4l-.1.5c-.1.4.2-.4 0 0-.1.1-.2.3-.2.4-.1.3.1 0 .1-.1-.1.1-.2.2-.3.4-.1.1-.6.4-.2.2-.1.1-.3.2-.4.2 0 0-.4.2-.1.1.3-.1-.9.2-.5.1.3-.1-.3 0-.4 0h-11.1c-.2 0-.8-.2-.3 0l-.7-.2c.5.2-.1-.1-.3-.2-.3-.1 0 .1.1.1l-.3-.2c-.1-.1-.2-.2-.3-.4-.3-.3.2.3 0 0-.1-.2-.4-.8-.2-.3l-.2-.7c.2.5 0-.1 0-.3v-9.6c0-5.3.1-10.7 0-16v-.3c0-1.5-1.3-2.8-2.8-2.8h-2.2.1l-.7-.2c-.1 0-.7-.3-.5-.2.3.1-.1-.1-.2-.1-.1-.1-.3-.2-.4-.2l-.4-.3-.4-.4c-.1-.1-.5-.6-.2-.2l-.5-.7-.2-.3c-.1-.2-.2-.5-.2-.7l-.2-.7c.1.5 0-.3 0-.5v-26.5s.1-.5 0-.1 0-.2.1-.3l.2-.7c0-.1.1-.2.1-.4-.1.3-.1.2 0 0l.4-.7.2-.3-.1.1c.2-.2.3-.4.5-.5.1-.1.2-.2.3-.2l.1-.1.6-.4.3-.2s-.4.1-.1 0c.3-.1.6-.2.8-.3.1 0 .2-.1.4-.1.4-.1-.4 0 0 0h25.4-.1l.9.2c.2.1.7.3.3.1.3.1.5.3.7.4.1.1.7.6.3.2.2.2.4.3.5.5.1.1.5.6.2.2.2.3.4.5.5.8.1.1.3.7.1.2.1.2.2.5.2.7l.1.5s.1.4 0 .1c-.1-.3 0 .1 0 .1v.4c0 1.4 1.3 2.8 2.8 2.8 1.5-.1 2.8-1.2 2.8-2.8-.1-5.6-4.6-10.1-10.2-10.2h-23c-1 0-2 0-3 .2-2.7.5-5.1 2.3-6.5 4.6-1.5 2.3-1.5 4.9-1.5 7.5v23.7c.1 5.4 4.3 9.8 9.7 10.2h1.9l-2.8-2.8v25.7c0 2.1.8 4.1 2.3 5.6 2.7 2.7 6.3 2.3 9.8 2.3h5c1.2 0 2.4.1 3.7-.2 2.8-.6 5.2-3.1 5.8-5.9.2-.9.2-1.7.2-2.6v-7.7c0-5.6.2-11.3 0-16.9v-.4l-2.8 2.8c2.1 0 4-.2 6-1.1 2.4-1.2 4.2-3.4 5.1-5.9.7-1.9.5-4 .5-6v-23.2c0-1.4-1.3-2.8-2.8-2.8-1.7.4-3 1.5-3 3.1z"/></svg>