<?xml version="1.0" encoding="UTF-8" standalone="no"?>
<svg width="40px" height="92px" viewBox="0 0 40 92" version="1.1" xmlns="http://www.w3.org/2000/svg" xmlns:xlink="http://www.w3.org/1999/xlink">
    <!-- Generator: Sketch 46.2 (44496) - http://www.bohemiancoding.com/sketch -->
    <title>ico-poblacion-lleno</title>
    <desc>Created with Sketch.</desc>
    <defs></defs>
    <g id="datos-destacados-splash" stroke="none" stroke-width="1" fill="none" fill-rule="evenodd">
        <g transform="translate(-118.000000, -164.000000)" id="iconos-y-datos">
            <g transform="translate(118.000000, 121.000000)">
                <g id="ico-poblacion-lleno" transform="translate(1.000000, 44.000000)">
                    <g id="Group">
                        <path d="M28.7432,10.0098 C28.7432,4.6238 24.3782,0.2578 18.9922,0.2578 C13.6062,0.2578 9.2412,4.6238 9.2412,10.0098 C9.2412,15.3938 13.6062,19.7598 18.9922,19.7598 C24.3782,19.7598 28.7432,15.3938 28.7432,10.0098 M37.7022,48.2248 C38.2732,50.8518 36.7582,52.9998 34.3332,52.9998 L29.6652,53.9988 L29.2742,58.7538 L27.1722,85.2468 C26.9642,87.8608 25.0002,89.9998 22.8022,89.9998 L14.8172,89.9998 C12.6182,89.9998 10.6522,87.8608 10.4452,85.2478 L8.3432,58.7548 L7.9412,53.9998 L3.3592,53.9998 C1.0072,53.9998 -0.4458,51.8228 0.1322,49.1608 L4.5542,28.7788 C5.1242,26.1508 7.7912,23.9998 10.4812,23.9998 L14.1392,23.9998 L24.0442,23.9998 L27.4272,23.9998 C30.1152,23.9998 32.7812,26.1488 33.3512,28.7758 L37.7022,48.8258" id="Fill-42" fill="#4E7AC7"></path>
                        <path d="M28.7432,10.0098 C28.7432,4.6238 24.3782,0.2578 18.9922,0.2578 C13.6062,0.2578 9.2412,4.6238 9.2412,10.0098 C9.2412,15.3938 13.6062,19.7598 18.9922,19.7598 C24.3782,19.7598 28.7432,15.3938 28.7432,10.0098 M37.7022,48.2248 C38.2732,50.8518 36.7582,52.9998 34.3332,52.9998 L29.6652,53.9988 L29.2742,58.7538 L27.1722,85.2468 C26.9642,87.8608 25.0002,89.9998 22.8022,89.9998 L14.8172,89.9998 C12.6182,89.9998 10.6522,87.8608 10.4452,85.2478 L8.3432,58.7548 L7.9412,53.9998 L3.3592,53.9998 C1.0072,53.9998 -0.4458,51.8228 0.1322,49.1608 L4.5542,28.7788 C5.1242,26.1508 7.7912,23.9998 10.4812,23.9998 L14.1392,23.9998 L24.0442,23.9998 L27.4272,23.9998 C30.1152,23.9998 32.7812,26.1488 33.3512,28.7758 L37.7022,48.8258" id="Stroke-44" stroke="#FFFFFF"></path>
                    </g>
                </g>
            </g>
        </g>
    </g>
</svg>