<?xml version="1.0" encoding="UTF-8" standalone="no"?>
<svg width="73px" height="62px" viewBox="0 0 73 62" version="1.1" xmlns="http://www.w3.org/2000/svg" xmlns:xlink="http://www.w3.org/1999/xlink">
    <!-- Generator: Sketch 46.2 (44496) - http://www.bohemiancoding.com/sketch -->
    <title>ico-psu-medio</title>
    <desc>Created with Sketch.</desc>
    <defs></defs>
    <g id="Symbols" stroke="none" stroke-width="1" fill="none" fill-rule="evenodd">
        <g id="ico-psu-medio">
            <path d="M66.9199,51.7201 L66.9199,21.0811 L71.4329,18.9981 C71.8999,18.7831 72.1999,18.3151 72.1999,17.8001 C72.1999,17.2851 71.8999,16.8171 71.4329,16.6011 L37.1129,0.7611 C36.7619,0.6001 36.3579,0.6001 36.0069,0.7611 L1.6869,16.6011 C1.2199,16.8171 0.9199,17.2851 0.9199,17.8001 C0.9199,18.3151 1.2199,18.7831 1.6869,18.9981 L16.7599,25.9561 L16.7599,38.8021 C16.7599,39.3171 17.0589,39.7851 17.5269,40.0001 L36.0069,48.5301 C36.1819,48.6121 36.3709,48.6521 36.5599,48.6521 C36.7489,48.6521 36.9379,48.6121 37.1129,48.5301 L55.5929,40.0001 C56.0609,39.7851 56.3599,39.3171 56.3599,38.8021 L56.3599,25.9561 L64.2799,22.3001 L64.2799,51.7201 L59.2219,59.3071 C58.9519,59.7131 58.9259,60.2331 59.1559,60.6621 C59.3859,61.0911 59.8329,61.3601 60.3199,61.3601 L70.8799,61.3601 C71.3669,61.3601 71.8149,61.0921 72.0439,60.6631 C72.2739,60.2341 72.2479,59.7131 71.9779,59.3091 L66.9199,51.7201 Z" id="Fill-108" fill="#B3B3B3"></path>
            <path d="M38.24,1.1157 L37.473,0.7617 C37.122,0.5997 36.718,0.5997 36.367,0.7617 L2.047,16.6007 C1.58,16.8167 1.28,17.2847 1.28,17.7997 C1.28,18.3147 1.58,18.7837 2.047,18.9987 L17.12,25.9567 L17.12,38.8017 C17.12,39.3167 17.419,39.7847 17.887,40.0007 L36.367,48.5307 C36.542,48.6127 36.731,48.6517 36.92,48.6517 C37.109,48.6517 37.298,48.6127 37.473,48.5307 L38.24,48.1757 L38.24,1.1157 Z" id="Fill-109" fill="#4E7AC7"></path>
            <path d="M63.1458,58.7194 L65.9598,54.4994 L68.7738,58.7194 L63.1458,58.7194 Z M54.0798,37.4644 L36.9198,45.3844 L19.7598,37.4644 L19.7598,27.1724 L36.3668,34.8384 C36.7178,35.0004 37.1218,35.0004 37.4728,34.8384 L54.0798,27.1744 L54.0798,37.4644 Z M36.9198,3.4144 L68.0888,17.7994 L36.9198,32.1844 L5.7498,17.7994 L36.9198,3.4144 Z M67.2798,51.7194 L67.2798,21.0804 L71.7928,18.9984 C72.2608,18.7824 72.5598,18.3144 72.5598,17.7994 C72.5598,17.2844 72.2608,16.8164 71.7928,16.6004 L37.4728,0.7604 C37.1218,0.5994 36.7178,0.5994 36.3668,0.7604 L2.0468,16.6004 C1.5798,16.8164 1.2798,17.2844 1.2798,17.7994 C1.2798,18.3144 1.5798,18.7824 2.0468,18.9984 L17.1198,25.9554 L17.1198,38.3094 C17.1198,38.8244 17.4198,39.2914 17.8868,39.5084 L36.3668,48.0384 C36.5428,48.1194 36.7308,48.1594 36.9198,48.1594 C37.1088,48.1594 37.2978,48.1194 37.4728,48.0374 L55.9528,39.5084 C56.4208,39.2914 56.7198,38.8244 56.7198,38.3094 L56.7198,25.9554 L64.6398,22.2994 L64.6398,51.7194 L59.5818,59.3064 C59.3128,59.7124 59.2858,60.2324 59.5158,60.6614 C59.7458,61.0904 60.1928,61.3594 60.6798,61.3594 L71.2398,61.3594 C71.7268,61.3594 72.1748,61.0914 72.4048,60.6624 C72.6338,60.2334 72.6078,59.7124 72.3378,59.3084 L67.2798,51.7194 Z" id="Fill-110" fill="#FFFFFF"></path>
            <path d="M63.1455,58.7192 L65.9595,54.4992 L68.7745,58.7192 L63.1455,58.7192 Z M67.2805,51.7192 L67.2805,21.0812 L71.7925,18.9982 C72.2605,18.7822 72.5605,18.3142 72.5605,17.7992 C72.5605,17.2842 72.2605,16.8162 71.7925,16.6002 L37.4735,0.7612 C37.4275,0.7402 37.3795,0.7292 37.3335,0.7142 L37.3335,3.6052 L68.0895,17.7992 L37.3335,31.9942 L37.3335,34.8852 C37.3795,34.8692 37.4275,34.8592 37.4735,34.8382 L54.0805,27.1742 L54.0805,37.4652 L37.3335,45.1942 L37.3335,48.0852 C37.3795,48.0692 37.4275,48.0592 37.4735,48.0382 L55.9535,39.5082 C56.4205,39.2912 56.7205,38.8242 56.7205,38.3092 L56.7205,25.9552 L64.6405,22.2992 L64.6405,51.7192 L59.5825,59.3062 C59.3125,59.7122 59.2865,60.2322 59.5155,60.6612 C59.7455,61.0902 60.1925,61.3592 60.6805,61.3592 L71.2405,61.3592 C71.7275,61.3592 72.1745,61.0912 72.4045,60.6622 C72.6335,60.2332 72.6075,59.7122 72.3385,59.3082 L67.2805,51.7192 Z" id="Fill-111" fill="#B3B3B3"></path>
        </g>
    </g>
</svg>