<?xml version="1.0" encoding="UTF-8" standalone="no"?>
<svg xmlns="http://www.w3.org/2000/svg" xmlns:xlink="http://www.w3.org/1999/xlink" width="38" height="50">
    <defs>
        <path id="a" d="M17.6 7.1H38V49H17.6z"/>
    </defs>
    <g fill="none" fill-rule="evenodd">
        <use fill="#D8D8D8" xlink:href="#a"/>
        <path stroke="#979797" d="M18.1 7.6h19.4v40.9H18.1z"/>
        <path fill="#518DE5" d="M.4 49.3h20.4v-43H.4z"/>
        <path fill="#6688DA" d="M23.1 5.6a4.5 4.5 0 1 1-9 0 4.5 4.5 0 0 1 9 0"/>
        <path fill="#E6E6E6" d="M16.1 34.4L10.8 29 9 30.8l7.1 7.1 13.3-13.3-1.8-1.8z"/>
        <path fill="#E6E6E6" d="M24.5 6.3V5.2h-.1a5.5 5.5 0 0 0-10.9 0v1.1H.1v43h37.5v-43H24.5zm-8.9 2.2V6.3a3.3 3.3 0 1 1 6.7 0v2.2h5.5v3.3H10V8.5h5.5zm19.9 38.6H2.4V8.5h5.5V14h22V8.5h5.6v38.6z"/>
    </g>
</svg>
