<?xml version="1.0" encoding="UTF-8" standalone="no"?>
<svg width="73px" height="62px" viewBox="0 0 73 62" version="1.1" xmlns="http://www.w3.org/2000/svg" xmlns:xlink="http://www.w3.org/1999/xlink">
    <!-- Generator: Sketch 46.2 (44496) - http://www.bohemiancoding.com/sketch -->
    <title>ico-psu-lleno</title>
    <desc>Created with Sketch.</desc>
    <defs></defs>
    <g id="Symbols" stroke="none" stroke-width="1" fill="none" fill-rule="evenodd">
        <g id="ico-psu-lleno">
            <path d="M66.9199,51.7201 L66.9199,21.0811 L71.4329,18.9981 C71.8999,18.7831 72.1999,18.3151 72.1999,17.8001 C72.1999,17.2851 71.8999,16.8171 71.4329,16.6011 L37.1129,0.7611 C36.7619,0.6001 36.3579,0.6001 36.0069,0.7611 L1.6869,16.6011 C1.2199,16.8171 0.9199,17.2851 0.9199,17.8001 C0.9199,18.3151 1.2199,18.7831 1.6869,18.9981 L16.7599,25.9561 L16.7599,38.8021 C16.7599,39.3171 17.0589,39.7851 17.5269,40.0001 L36.0069,48.5301 C36.1819,48.6121 36.3709,48.6521 36.5599,48.6521 C36.7489,48.6521 36.9379,48.6121 37.1129,48.5301 L55.5929,40.0001 C56.0609,39.7851 56.3599,39.3171 56.3599,38.8021 L56.3599,25.9561 L64.2799,22.3001 L64.2799,51.7201 L59.2219,59.3071 C58.9519,59.7131 58.9259,60.2331 59.1559,60.6621 C59.3859,61.0911 59.8329,61.3601 60.3199,61.3601 L70.8799,61.3601 C71.3669,61.3601 71.8149,61.0921 72.0439,60.6631 C72.2739,60.2341 72.2479,59.7131 71.9779,59.3091 L66.9199,51.7201 Z" id="Fill-100" fill="#4E7AC7"></path>
            <path d="M63.1858,58.7194 L65.9998,54.4994 L68.8138,58.7194 L63.1858,58.7194 Z M54.1198,37.4644 L36.9598,45.3844 L19.7998,37.4644 L19.7998,27.1724 L36.4068,34.8384 C36.7578,35.0004 37.1618,35.0004 37.5128,34.8384 L54.1198,27.1744 L54.1198,37.4644 Z M36.9598,3.4144 L68.1288,17.7994 L36.9598,32.1844 L5.7898,17.7994 L36.9598,3.4144 Z M67.3198,51.7194 L67.3198,21.0804 L71.8328,18.9984 C72.3008,18.7824 72.5998,18.3144 72.5998,17.7994 C72.5998,17.2844 72.3008,16.8164 71.8328,16.6004 L37.5128,0.7604 C37.1618,0.5994 36.7578,0.5994 36.4068,0.7604 L2.0868,16.6004 C1.6198,16.8164 1.3198,17.2844 1.3198,17.7994 C1.3198,18.3144 1.6198,18.7824 2.0868,18.9984 L17.1598,25.9554 L17.1598,38.3094 C17.1598,38.8244 17.4598,39.2914 17.9268,39.5084 L36.4068,48.0384 C36.5828,48.1194 36.7708,48.1594 36.9598,48.1594 C37.1488,48.1594 37.3378,48.1194 37.5128,48.0374 L55.9928,39.5084 C56.4608,39.2914 56.7598,38.8244 56.7598,38.3094 L56.7598,25.9554 L64.6798,22.2994 L64.6798,51.7194 L59.6218,59.3064 C59.3528,59.7124 59.3258,60.2324 59.5558,60.6614 C59.7858,61.0904 60.2328,61.3594 60.7198,61.3594 L71.2798,61.3594 C71.7668,61.3594 72.2148,61.0914 72.4448,60.6624 C72.6738,60.2334 72.6478,59.7124 72.3778,59.3084 L67.3198,51.7194 Z" id="Fill-101" fill="#FFFFFF"></path>
        </g>
    </g>
</svg>