<?xml version="1.0" encoding="UTF-8" standalone="no"?>
<svg width="38px" height="50px" viewBox="0 0 38 50" version="1.1" xmlns="http://www.w3.org/2000/svg" xmlns:xlink="http://www.w3.org/1999/xlink">
    <!-- Generator: Sketch 46.2 (44496) - http://www.bohemiancoding.com/sketch -->
    <title>ico-acreditacion-lleno</title>
    <desc>Created with Sketch.</desc>
    <defs></defs>
    <g id="splash-institucion" stroke="none" stroke-width="1" fill="none" fill-rule="evenodd">
        <g id="splash-header-perfil-institucion" transform="translate(-726.000000, -356.000000)">
            <g id="data-acreditacion" transform="translate(494.000000, 318.000000)">
                <g id="ico-acreditacion-lleno" transform="translate(232.000000, 39.000000)">
                    <g id="Group-7">
                        <polygon id="Fill-395" fill="#518DE5" points="0.245 48.592 37.271 48.592 37.271 5.5 0.245 5.5"></polygon>
                        <path d="M22.9082,4.8618 C22.9082,7.3298 20.9072,9.3308 18.4392,9.3308 C15.9712,9.3308 13.9702,7.3298 13.9702,4.8618 C13.9702,2.3938 15.9712,0.3928 18.4392,0.3928 C20.9072,0.3928 22.9082,2.3938 22.9082,4.8618" id="Fill-397" fill="#4E7AC7"></path>
                        <path d="M22.9082,4.8618 C22.9082,7.3298 20.9072,9.3308 18.4392,9.3308 C15.9712,9.3308 13.9702,7.3298 13.9702,4.8618 C13.9702,2.3938 15.9712,0.3928 18.4392,0.3928 C20.9072,0.3928 22.9082,2.3938 22.9082,4.8618 Z" id="Stroke-398" stroke="#4E7AC7"></path>
                        <polygon id="Fill-399" fill="#FFFFFF" points="15.9082 33.6641 10.5752 28.3311 8.8302 30.0771 15.9082 37.1741 29.1892 23.8721 27.4442 22.1261"></polygon>
                        <path d="M24.2744,5.5791 L24.2744,4.4761 L24.1644,4.4761 C23.6534,1.9591 21.4264,0.0631 18.7584,0.0631 C16.0894,0.0631 13.8644,1.9591 13.3534,4.4761 L13.2434,4.4761 L13.2434,5.5791 L0.0044,5.5791 L0.0044,48.6011 L37.5114,48.6011 L37.5114,5.5791 L24.2744,5.5791 Z M15.4494,7.7861 L15.4494,5.5791 C15.4494,3.7511 16.9304,2.2701 18.7584,2.2701 C20.5864,2.2701 22.0684,3.7511 22.0684,5.5791 L22.0684,7.7861 L24.2744,7.7861 L27.5844,7.7861 L27.5844,11.0951 L9.9334,11.0951 L9.9334,7.7861 L13.2434,7.7861 L15.4494,7.7861 Z M35.3054,46.3951 L2.2124,46.3951 L2.2124,7.7861 L7.7274,7.7861 L7.7274,13.3011 L29.7904,13.3011 L29.7904,7.7861 L35.3054,7.7861 L35.3054,46.3951 Z" id="Fill-400" fill="#FFFFFF"></path>
                    </g>
                </g>
            </g>
        </g>
    </g>
</svg>