<svg xmlns="http://www.w3.org/2000/svg" width="38" height="50" viewBox="0 0 38 50"><g fill="none"><path fill="#518DE5" d="M.2 49.6h37v-43.1h-36.9z"/><path fill="#4E7AC7" d="M23 5.9a4.5 4.5 0 1 1-9 0 4.5 4.5 0 0 1 9 0"/><path stroke="#4E7AC7" d="M23 5.9a4.5 4.5 0 1 1-9 0 4.5 4.5 0 0 1 9 0z"/><path fill="#FFF" d="M16 34.7l-5.4-5.4-1.8 1.8 7.1 7 13.3-13.1-1.8-2zm8.3-28.1v-1.1h-.1a5.5 5.5 0 0 0-10.8 0h-.2v1h-13.2v43.1h37.5v-43h-13.2zm-8.9 2.2v-2.2a3.3 3.3 0 1 1 6.7 0v2.2h5.5v3.2h-17.7v-3.2h5.5zm20 38.6h-33.3v-38.6h5.5v5.5h22v-5.5h5.6v38.6z"/></g></svg>