<?xml version="1.0" encoding="UTF-8" standalone="no"?>
<svg width="73px" height="62px" viewBox="0 0 73 62" version="1.1" xmlns="http://www.w3.org/2000/svg" xmlns:xlink="http://www.w3.org/1999/xlink">
    <!-- Generator: Sketch 46.2 (44496) - http://www.bohemiancoding.com/sketch -->
    <title>ico-psu-vacio</title>
    <desc>Created with Sketch.</desc>
    <defs></defs>
    <g id="Symbols" stroke="none" stroke-width="1" fill="none" fill-rule="evenodd">
        <g id="ico-psu-vacio" fill="#B3B3B3">
            <path d="M62.6658,58.7194 L65.4798,54.4994 L68.2938,58.7194 L62.6658,58.7194 Z M53.5998,37.4644 L36.4398,45.3844 L19.2798,37.4644 L19.2798,27.1724 L35.8868,34.8384 C36.2378,35.0004 36.6418,35.0004 36.9928,34.8384 L53.5998,27.1744 L53.5998,37.4644 Z M36.4398,3.4144 L67.6088,17.7994 L36.4398,32.1844 L5.2698,17.7994 L36.4398,3.4144 Z M66.7998,51.7194 L66.7998,21.0804 L71.3128,18.9984 C71.7808,18.7824 72.0798,18.3144 72.0798,17.7994 C72.0798,17.2844 71.7808,16.8164 71.3128,16.6004 L36.9928,0.7604 C36.6418,0.5994 36.2378,0.5994 35.8868,0.7604 L1.5668,16.6004 C1.0998,16.8164 0.7998,17.2844 0.7998,17.7994 C0.7998,18.3144 1.0998,18.7824 1.5668,18.9984 L16.6398,25.9554 L16.6398,38.3094 C16.6398,38.8244 16.9398,39.2914 17.4068,39.5084 L35.8868,48.0384 C36.0628,48.1194 36.2508,48.1594 36.4398,48.1594 C36.6288,48.1594 36.8178,48.1194 36.9928,48.0374 L55.4728,39.5084 C55.9408,39.2914 56.2398,38.8244 56.2398,38.3094 L56.2398,25.9554 L64.1598,22.2994 L64.1598,51.7194 L59.1018,59.3064 C58.8328,59.7124 58.8058,60.2324 59.0358,60.6614 C59.2658,61.0904 59.7128,61.3594 60.1998,61.3594 L70.7598,61.3594 C71.2468,61.3594 71.6948,61.0914 71.9248,60.6624 C72.1538,60.2334 72.1278,59.7124 71.8578,59.3084 L66.7998,51.7194 Z" id="Fill-106"></path>
            <path d="M66.9199,51.7201 L66.9199,21.0811 L71.4329,18.9981 C71.8999,18.7831 72.1999,18.3151 72.1999,17.8001 C72.1999,17.2851 71.8999,16.8171 71.4329,16.6011 L37.1129,0.7611 C36.7619,0.6001 36.3579,0.6001 36.0069,0.7611 L1.6869,16.6011 C1.2199,16.8171 0.9199,17.2851 0.9199,17.8001 C0.9199,18.3151 1.2199,18.7831 1.6869,18.9981 L16.7599,25.9561 L16.7599,38.8021 C16.7599,39.3171 17.0589,39.7851 17.5269,40.0001 L36.0069,48.5301 C36.1819,48.6121 36.3709,48.6521 36.5599,48.6521 C36.7489,48.6521 36.9379,48.6121 37.1129,48.5301 L55.5929,40.0001 C56.0609,39.7851 56.3599,39.3171 56.3599,38.8021 L56.3599,25.9561 L64.2799,22.3001 L64.2799,51.7201 L59.2219,59.3071 C58.9519,59.7131 58.9259,60.2331 59.1559,60.6621 C59.3859,61.0911 59.8329,61.3601 60.3199,61.3601 L70.8799,61.3601 C71.3669,61.3601 71.8149,61.0921 72.0439,60.6631 C72.2739,60.2341 72.2479,59.7131 71.9779,59.3091 L66.9199,51.7201 Z" id="Fill-107"></path>
        </g>
    </g>
</svg>