<?xml version="1.0" encoding="utf-8"?>
<!-- Generator: Adobe Illustrator 22.0.1, SVG Export Plug-In . SVG Version: 6.00 Build 0)  -->
<svg version="1.1" id="Layer_1" xmlns="http://www.w3.org/2000/svg" xmlns:xlink="http://www.w3.org/1999/xlink" x="0px" y="0px"
	 viewBox="0 0 200 200" style="enable-background:new 0 0 200 200;" xml:space="preserve">
<style type="text/css">
	.st0{fill:none;}
	.st1{fill:#3669B5;}
	.st2{fill:#8CB6DD;}
</style>
<path class="st0" d="M142.1,135.7l-3.8-3.8l-3.8,3.8v9.2c2.5,0.7,5.2,0.7,7.7,0h-0.1L142.1,135.7L142.1,135.7z M134.5,124.8V100
	l-9.8,4.9l-15.7,7.9c-2.8,1.4-5.9,2.1-9,2.1s-6.2-0.7-9-2.1L65.5,100v18.7c0,7.2,14.2,15.3,34.5,15.3c6.3,0,12.4-0.8,17.8-2.3
	l16.1-6.3L134.5,124.8L134.5,124.8z M152.3,78.3l-46.8-23.4c-3.5-1.7-7.6-1.7-11.1,0L47.6,78.3c-0.8,0.4-1.3,1.2-1.3,2.1
	s0.5,1.7,1.3,2.1l46.9,23.4c3.5,1.7,7.6,1.7,11.1,0l15.7-7.9v0.1l7.4-3.6l-26.3-9.2l7.6-5.5l28,9.8l14.3-7.1
	c0.8-0.4,1.3-1.2,1.3-2.1S153.1,78.7,152.3,78.3z"/>
<path class="st1" d="M155.7,71.4L109,48c-5.7-2.8-12.3-2.8-18,0L44.2,71.4c-3.4,1.7-5.6,5.2-5.5,9c0,3.8,2.1,7.3,5.5,9l13.6,6.8
	v22.5c0,12.9,18.5,23,42.2,23c6.8,0,13.6-0.8,19.5-2.5l0.5-0.1c0.1,0,0.2,0,0.2-0.1l6.6-1.9v12.8l2.1,1.1c0.5,0.2,4.8,2.3,9.4,2.3
	c4.6,0,8.9-2.1,9.4-2.3l2.1-1.1v-17.4l-7.7-7.7V96.2l13.2-6.6c2.8-1.4,5-3.9,5.7-6.9C162,78,159.8,73.5,155.7,71.4L155.7,71.4z
	 M117.8,131.7c-5.4,1.6-11.5,2.3-17.8,2.3c-20.3,0-34.5-8.1-34.5-15.3V100L91,112.8c2.8,1.4,5.9,2.1,9,2.1s6.2-0.7,9-2.1l15.7-7.9
	l9.8-4.9v24.8l-0.6,0.6L117.8,131.7z M142.2,144.9c-2.5,0.7-5.2,0.7-7.7,0v-9.2l3.8-3.8l3.8,3.8L142.2,144.9L142.2,144.9z
	 M152.3,82.5L138,89.6l-28-9.8l-7.6,5.5l26.3,9.2l-7.4,3.6V98l-15.7,7.9c-3.5,1.7-7.6,1.7-11.1,0L47.6,82.5
	c-0.8-0.4-1.3-1.2-1.3-2.1s0.5-1.7,1.3-2.1l46.8-23.4c3.5-1.7,7.6-1.7,11.1,0l46.8,23.4c0.8,0.4,1.3,1.2,1.3,2.1
	S153.1,82.1,152.3,82.5L152.3,82.5z"/>
<g>
	<path class="st0" d="M142.1,135.7l-3.8-3.8l-3.8,3.8v9.2c2.5,0.7,5.2,0.7,7.7,0h-0.1L142.1,135.7L142.1,135.7z M134.5,124.8V100
		l-9.8,4.9l-15.7,7.9c-2.8,1.4-5.9,2.1-9,2.1s-6.2-0.7-9-2.1L65.5,100v18.7c0,7.2,14.2,15.3,34.5,15.3c6.3,0,12.4-0.8,17.8-2.3
		l16.1-6.3L134.5,124.8L134.5,124.8z M152.3,78.3l-46.8-23.4c-3.5-1.7-7.6-1.7-11.1,0L47.6,78.3c-0.8,0.4-1.3,1.2-1.3,2.1
		s0.5,1.7,1.3,2.1l46.9,23.4c3.5,1.7,7.6,1.7,11.1,0l15.7-7.9v0.1l7.4-3.6l-26.3-9.2l7.6-5.5l28,9.8l14.3-7.1
		c0.8-0.4,1.3-1.2,1.3-2.1S153.1,78.7,152.3,78.3z"/>
	<path class="st2" d="M117.8,131.7c-5.4,1.6-11.5,2.3-17.8,2.3c-20.3,0-34.5-8.1-34.5-15.3V100L91,112.8c2.8,1.4,5.9,2.1,9,2.1
		s6.2-0.7,9-2.1l15.7-7.9l9.8-4.9v24.8l-0.6,0.6C133.9,125.4,117.8,131.7,117.8,131.7z M142.2,144.9c-2.5,0.7-5.2,0.7-7.7,0v-9.2
		l3.8-3.8l3.8,3.8L142.2,144.9L142.2,144.9z M152.3,82.5L138,89.6l-28-9.8l-7.6,5.5l26.3,9.2l-7.4,3.6V98l-15.7,7.9
		c-3.5,1.7-7.6,1.7-11.1,0L47.6,82.5c-0.8-0.4-1.3-1.2-1.3-2.1s0.5-1.7,1.3-2.1l46.8-23.4c3.5-1.7,7.6-1.7,11.1,0l46.8,23.4
		c0.8,0.4,1.3,1.2,1.3,2.1S153.1,82.1,152.3,82.5L152.3,82.5z"/>
</g>
</svg>
