<?xml version="1.0" encoding="UTF-8" standalone="no"?>
<svg width="38px" height="50px" viewBox="0 0 38 50" version="1.1" xmlns="http://www.w3.org/2000/svg" xmlns:xlink="http://www.w3.org/1999/xlink">
    <!-- Generator: Sketch 46.2 (44496) - http://www.bohemiancoding.com/sketch -->
    <title>ico-acreditacion-medio</title>
    <desc>Created with Sketch.</desc>
    <defs>
        <rect id="path-1" x="17.641" y="7.1171875" width="20.359" height="41.8828125"></rect>
    </defs>
    <g id="splash-institucion" stroke="none" stroke-width="1" fill="none" fill-rule="evenodd">
        <g id="splash-header-perfil-institucion" transform="translate(-786.000000, -356.000000)">
            <g id="data-acreditacion" transform="translate(494.000000, 318.000000)">
                <g id="ico-acreditacion-medio" transform="translate(292.000000, 38.000000)">
                    <g id="Group-2">
                        <g id="Rectangle">
                            <use fill="#D8D8D8" fill-rule="evenodd" xlink:href="#path-1"></use>
                            <rect stroke="#979797" stroke-width="1" x="18.141" y="7.6171875" width="19.359" height="40.8828125"></rect>
                        </g>
                        <polygon id="Fill-417" fill="#518DE5" points="0.436 49.314 20.795 49.314 20.795 6.223 0.436 6.223"></polygon>
                        <path d="M23.0986,5.585 C23.0986,8.053 21.0976,10.054 18.6296,10.054 C16.1616,10.054 14.1606,8.053 14.1606,5.585 C14.1606,3.117 16.1616,1.116 18.6296,1.116 C21.0976,1.116 23.0986,3.117 23.0986,5.585" id="Fill-418" fill="#6688DA"></path>
                        <polygon id="Fill-419" fill="#E6E6E6" points="16.0986 34.3877 10.7656 29.0547 9.0206 30.7997 16.0986 37.8977 29.3796 24.5947 27.6346 22.8497"></polygon>
                        <path d="M24.4648,6.3027 L24.4648,5.1987 L24.3548,5.1987 C23.8438,2.6817 21.6168,0.7867 18.9488,0.7867 C16.2798,0.7867 14.0548,2.6817 13.5438,5.1987 L13.4338,5.1987 L13.4338,6.3027 L0.1948,6.3027 L0.1948,49.3247 L37.7018,49.3247 L37.7018,6.3027 L24.4648,6.3027 Z M15.6398,8.5087 L15.6398,6.3027 C15.6398,4.4747 17.1208,2.9927 18.9488,2.9927 C20.7768,2.9927 22.2588,4.4747 22.2588,6.3027 L22.2588,8.5087 L24.4648,8.5087 L27.7748,8.5087 L27.7748,11.8187 L10.1238,11.8187 L10.1238,8.5087 L13.4338,8.5087 L15.6398,8.5087 Z M35.4958,47.1177 L2.4028,47.1177 L2.4028,8.5087 L7.9178,8.5087 L7.9178,14.0247 L29.9808,14.0247 L29.9808,8.5087 L35.4958,8.5087 L35.4958,47.1177 Z" id="Fill-420" fill="#E6E6E6"></path>
                    </g>
                </g>
            </g>
        </g>
    </g>
</svg>