<?xml version="1.0" encoding="utf-8"?>
<!-- Generator: Adobe Illustrator 21.0.0, SVG Export Plug-In . SVG Version: 6.00 Build 0)  -->
<!DOCTYPE svg PUBLIC "-//W3C//DTD SVG 1.1//EN" "http://www.w3.org/Graphics/SVG/1.1/DTD/svg11.dtd">
<svg version="1.1" id="Capa_1"
	 xmlns="http://www.w3.org/2000/svg" xmlns:xlink="http://www.w3.org/1999/xlink" x="0px" y="0px" viewBox="0 0 1951 313"
	 style="enable-background:new 0 0 1951 313;" xml:space="preserve">
<style type="text/css">
	
		.st0{fill:none;stroke:#FF7474;stroke-width:2;stroke-linecap:round;stroke-linejoin:round;stroke-miterlimit:10;stroke-dasharray:0,7;}
	.st1{fill:#E5C38D;stroke:#FFFFFF;stroke-miterlimit:10;}
	.st2{fill:#FFFFFF;}
</style>
<switch>
	<g>
		<polyline class="st0" points="-0.3,128 259.2,276.4 479.1,73.9 638.8,274.3 797.2,44.9 990.9,270 1243.5,46 1444.9,266.8 1617,56 
			1955,211 		"/>
		<g>
			
				<ellipse transform="matrix(1.195156e-03 -1 1 1.195156e-03 -14.9413 533.6747)" class="st1" cx="259.7" cy="274.3" rx="16.9" ry="16.9"/>
			<g>
				<g>
					<path class="st2" d="M265,273.4l0,2.3l-4.5,0l0,4.5l-2.2,0l0-4.5l-4.5,0l0-2.3l4.5,0l0-4.5l2.2,0l0,4.5L265,273.4z"/>
				</g>
			</g>
		</g>
		<g>
			
				<ellipse transform="matrix(1.195156e-03 -1 1 1.195156e-03 404.7968 551.9147)" class="st1" cx="478.7" cy="73.3" rx="16.9" ry="16.9"/>
			<g>
				<g>
					<path class="st2" d="M484,72.4l0,2.3l-4.5,0l0,4.5l-2.2,0l0-4.5l-4.5,0l0-2.3l4.5,0l0-4.5l2.2,0l0,4.5L484,72.4z"/>
				</g>
			</g>
		</g>
		<g>
			
				<ellipse transform="matrix(1.195156e-03 -1 1 1.195156e-03 365.6034 914.6744)" class="st1" cx="640.7" cy="274.3" rx="16.9" ry="16.9"/>
			<g>
				<g>
					<path class="st2" d="M646,273.4l0,2.3l-4.5,0l0,4.5l-2.2,0l0-4.5l-4.5,0l0-2.3l4.5,0l0-4.5l2.2,0l0,4.5L646,273.4z"/>
				</g>
			</g>
		</g>
		<g>
			
				<ellipse transform="matrix(1.195156e-03 -1 1 1.195156e-03 751.9656 843.5663)" class="st1" cx="798.3" cy="45.4" rx="16.9" ry="16.9"/>
			<g>
				<g>
					<path class="st2" d="M803.6,44.5l0,2.3l-4.5,0l0,4.5l-2.2,0l0-4.5l-4.5,0l0-2.3l4.5,0l0-4.5l2.2,0l0,4.5L803.6,44.5z"/>
				</g>
			</g>
		</g>
		<g>
			
				<ellipse transform="matrix(1.195156e-03 -1 1 1.195156e-03 717.7592 1260.8678)" class="st1" cx="990.1" cy="271.1" rx="16.9" ry="16.9"/>
			<g>
				<g>
					<path class="st2" d="M995.4,270.2l0,2.3l-4.5,0l0,4.5l-2.2,0l0-4.5l-4.5,0l0-2.3l4.5,0l0-4.5l2.2,0l0,4.5L995.4,270.2z"/>
				</g>
			</g>
		</g>
		<g>
			
				<ellipse transform="matrix(1.195156e-03 -1 1 1.195156e-03 1195.839 1289.6288)" class="st1" cx="1243.5" cy="46.2" rx="16.9" ry="16.9"/>
			<g>
				<g>
					<path class="st2" d="M1248.8,45.3l0,2.3l-4.5,0l0,4.5l-2.2,0l0-4.5l-4.5,0l0-2.3l4.5,0l0-4.5l2.2,0l0,4.5L1248.8,45.3z"/>
				</g>
			</g>
		</g>
		<g>
			
				<ellipse transform="matrix(1.195156e-03 -1 1 1.195156e-03 1179.9375 1714.9874)" class="st1" cx="1448.5" cy="266.8" rx="16.9" ry="16.9"/>
			<g>
				<g>
					<path class="st2" d="M1453.8,265.9l0,2.3l-4.5,0l0,4.5l-2.2,0l0-4.5l-4.5,0l0-2.3l4.5,0l0-4.5l2.2,0l0,4.5L1453.8,265.9z"/>
				</g>
			</g>
		</g>
		<g>
			
				<ellipse transform="matrix(1.195156e-03 -1 1 1.195156e-03 1559.8071 1672.2717)" class="st1" cx="1617" cy="55.3" rx="16.9" ry="16.9"/>
			<g>
				<g>
					<path class="st2" d="M1622.4,54.4l0,2.3l-4.5,0l0,4.5l-2.2,0l0-4.5l-4.5,0l0-2.3l4.5,0l0-4.5l2.2,0l0,4.5L1622.4,54.4z"/>
				</g>
			</g>
		</g>
	</g>
</switch>
</svg>
