<?xml version="1.0" encoding="UTF-8" standalone="no"?>
<svg xmlns="http://www.w3.org/2000/svg" id="Capa_1" viewBox="0 0 1366 241">
  <style>
    .st0{fill:#e5c38d;stroke:#fff;stroke-miterlimit:10}.st1{fill:#fff}.st2{fill:transparent}
  </style>
  <g class="hotspot" id="18">
    <circle class="st0" r="11" cx="119" cy="49"/>
    <path class="st1" d="M124 48v2h-4v4h-2v-4h-4v-2h4v-4h2v4z"/>
    <path class="st2" id="draw-18" d="M25.9 187.7l20.7-43.5-7-36.4 32.3-15L142 94l7.4 15 31.6 56.5 2.2 24.3z"/>
  </g>
  <g class="hotspot" id="205">
    <circle class="st0" r="11" cx="291" cy="37"/>
    <path class="st1" d="M296 36v2h-4v4h-2v-4h-4v-2h4v-4h2v4z"/>
    <path class="st2" id="draw-205" d="M217.5 67.6l-11.2 38.6-.3 52.7 8.3 32.6 115-1.3-.6-56.8-15.4-55z"/>
  </g>
  <g class="hotspot" id="68">
    <circle class="st0" r="11" cx="393" cy="13"/>
    <path class="st1" d="M398 12v2h-4v4h-2v-4h-4v-2h4v-4h2v4z"/>
    <path class="st2" id="draw-68" d="M353.3 182v-36.2l24.6-88.1 16.6-1.3 33.8 62.9-16.3 71-52 .6z"/>
  </g>
  <g class="hotspot" id="280">
    <circle class="st0" r="11" cx="501" cy="17"/>
    <path class="st1" d="M506 16v2h-4v4h-2v-4h-4v-2h4v-4h2v4z"/>
    <path class="st2" id="draw-280" d="M467.6 59.9l-24.9 89.4 3.5 18 18.2 23.9 66.5-1 12.7-72.2-13-70-15.7-.2z"/>
  </g>
  <g class="hotspot" id="76">
    <circle class="st0" r="11" cx="611" cy="21"/>
    <path class="st1" d="M616 20v2h-4v4h-2v-4h-4v-2h4v-4h2v4z"/>
    <path class="st2" id="draw-76" d="M574.6 191.8l75-.3 39-52 2.3-30.1-.6-40-54-10.8-56.6-1-7.3 9-9.6 77.3z"/>
  </g>
  <g class="hotspot" id="47">
    <circle class="st0" r="11" cx="782" cy="21"/>
    <path class="st1" d="M787 20v2h-4v4h-2v-4h-4v-2h4v-4h2v4z"/>
    <path class="st2" id="draw-47" d="M701.1 148v12.2l5.4 30.3 131.3.4 7.4-46.4-24.3-82h-16l-72.5 4.4-13.7 14.4z"/>
  </g>
  <g class="hotspot" id="26">
    <circle class="st0" r="11" cx="938" cy="21"/>
    <path class="st1" d="M943 20v2h-4v4h-2v-4h-4v-2h4v-4h2v4z"/>
    <path class="st2" id="draw-26" d="M870 60.8l-8.5 37.7-1.3 41.9 5.1 50.1 33.9 1 79.2-1-5.5-114-79.8-19.2z"/>
  </g>
  <g class="hotspot" id="100">
    <circle class="st0" r="11" cx="1254" cy="23"/>
    <path class="st1" d="M1259 22v2h-4v4h-2v-4h-4v-2h4v-4h2v4z"/>
    <path class="st2" id="draw-100" d="M1184 58l-12.4 46.3 5.1 86.9 151.8.6 1-38.3 6.3-.3-.6-12.8-11.5-76.4-100.3.4-24.3-6.7z"/>
  </g>
  <g class="hotspot" id="63">
    <circle class="st0" r="11" cx="1072" cy="24"/>
    <path class="st1" d="M1077 23v2h-4v4h-2v-4h-4v-2h4v-4h2v4z"/>
    <path class="st2" id="draw-63" d="M1004.2 94l2 40-23 57.2 182 .6V27.3l-77.3.6-70.2 27.8z"/>
  </g>
</svg>