<?xml version="1.0" encoding="utf-8"?>
<!-- Generator: Adobe Illustrator 21.0.0, SVG Export Plug-In . SVG Version: 6.00 Build 0)  -->
<svg version="1.1" id="Capa_1" xmlns="http://www.w3.org/2000/svg" xmlns:xlink="http://www.w3.org/1999/xlink" x="0px" y="0px"
	 viewBox="0 0 1366 241" style="enable-background:new 0 0 1366 241;" xml:space="preserve">
<style type="text/css">
	.st0{fill:#E5C38D;stroke:#FFFFFF;stroke-miterlimit:10;}
	.st1{fill:#FFFFFF;}
</style>
<g>
	
		<ellipse transform="matrix(1.195156e-03 -1 1 1.195156e-03 1045.4844 1098.0214)" class="st0" cx="1072.4" cy="25.6" rx="11.1" ry="11.1"/>
	<g>
		<g>
			<path class="st1" d="M1075.8,25.5l0,1.5l-3,0l0,2.9l-1.4,0l0-2.9l-2.9,0l0-1.5l2.9,0l0-2.9l1.4,0l0,2.9L1075.8,25.5z"/>
		</g>
	</g>
</g>
<g>
	
		<ellipse transform="matrix(1.195156e-03 -1 1 1.195156e-03 914.5449 960.5253)" class="st0" cx="938.1" cy="22.4" rx="11.1" ry="11.1"/>
	<g>
		<g>
			<path class="st1" d="M941.5,22.3l0,1.5l-3,0l0,2.9l-1.4,0l0-2.9l-2.9,0l0-1.5l2.9,0l0-2.9l1.4,0l0,2.9L941.5,22.3z"/>
		</g>
	</g>
</g>
<g>
	
		<ellipse transform="matrix(1.195156e-03 -1 1 1.195156e-03 759.131 804.7255)" class="st0" cx="782.4" cy="22.3" rx="11.1" ry="11.1"/>
	<g>
		<g>
			<path class="st1" d="M785.8,22.2l0,1.5l-3,0l0,2.9l-1.4,0l0-2.9l-2.9,0l0-1.5l2.9,0l0-2.9l1.4,0l0,2.9L785.8,22.2z"/>
		</g>
	</g>
</g>
<g>
	
		<ellipse transform="matrix(1.195156e-03 -1 1 1.195156e-03 483.7662 519.4315)" class="st0" cx="501.9" cy="17.5" rx="11.1" ry="11.1"/>
	<g>
		<g>
			<path class="st1" d="M505.3,17.4l0,1.5l-3,0l0,2.9l-1.4,0l0-2.9l-2.9,0l0-1.5l2.9,0l0-2.9l1.4,0l0,2.9L505.3,17.4z"/>
		</g>
	</g>
</g>
<g>
	
		<ellipse transform="matrix(1.195156e-03 -1 1 1.195156e-03 588.935 633.726)" class="st0" cx="611.7" cy="22" rx="11.1" ry="11.1"/>
	<g>
		<g>
			<path class="st1" d="M615.1,21.9l0,1.5l-3,0l0,2.9l-1.4,0l0-2.9l-2.9,0l0-1.5l2.9,0l0-2.9l1.4,0l0,2.9L615.1,21.9z"/>
		</g>
	</g>
</g>
<g>
	
		<ellipse transform="matrix(1.195156e-03 -1 1 1.195156e-03 380.296 405.8375)" class="st0" cx="393.3" cy="12.5" rx="11.1" ry="11.1"/>
	<g>
		<g>
			<path class="st1" d="M396.7,12.4l0,1.5l-3,0l0,2.9l-1.4,0l0-2.9l-2.9,0l0-1.5l2.9,0l0-2.9l1.4,0l0,2.9L396.7,12.4z"/>
		</g>
	</g>
</g>
<g>
	
		<ellipse transform="matrix(1.195156e-03 -1 1 1.195156e-03 253.4182 328.408)" class="st0" cx="291.1" cy="37.3" rx="11.1" ry="11.1"/>
	<g>
		<g>
			<path class="st1" d="M294.5,37.2l0,1.5l-3,0l0,2.9l-1.4,0l0-2.9l-2.9,0l0-1.5l2.9,0l0-2.9l1.4,0l0,2.9L294.5,37.2z"/>
		</g>
	</g>
</g>
<g>
	
		<ellipse transform="matrix(1.195156e-03 -1 1 1.195156e-03 69.2234 169.3929)" class="st0" cx="119.4" cy="50" rx="11.1" ry="11.1"/>
	<g>
		<g>
			<path class="st1" d="M122.8,49.9l0,1.5l-3,0l0,2.9l-1.4,0l0-2.9l-2.9,0l0-1.5l2.9,0l0-2.9l1.4,0l0,2.9L122.8,49.9z"/>
		</g>
	</g>
</g>
<g>
	
		<ellipse transform="matrix(1.195156e-03 -1 1 1.195156e-03 1228.2668 1279.0225)" class="st0" cx="1254.4" cy="24.6" rx="11.1" ry="11.1"/>
	<g>
		<g>
			<path class="st1" d="M1257.8,24.5l0,1.5l-3,0l0,2.9l-1.4,0l0-2.9l-2.9,0l0-1.5l2.9,0l0-2.9l1.4,0l0,2.9L1257.8,24.5z"/>
		</g>
	</g>
</g>
</svg>
