<?xml version="1.0" encoding="utf-8"?>
<!-- Generator: Adobe Illustrator 21.0.0, SVG Export Plug-In . SVG Version: 6.00 Build 0)  -->
<svg version="1.1" id="Capa_1" xmlns="http://www.w3.org/2000/svg" xmlns:xlink="http://www.w3.org/1999/xlink" x="0px" y="0px"
	 viewBox="0 0 1951 313" style="enable-background:new 0 0 1951 313;" xml:space="preserve">
<style type="text/css">
	
		.st0{fill:none;stroke:#FF7474;stroke-width:2;stroke-linecap:round;stroke-linejoin:round;stroke-miterlimit:10;stroke-dasharray:0,7;}
	.st1{fill:#FFFFFF;}
	.st2{font-family:'Rubik-Regular';}
	.st3{font-size:7.5458px;}
	.st4{font-family:'Rubik-Bold';}
	.st5{font-size:13.8418px;}
	.st6{font-size:14.5339px;}
	.st7{fill:#1ECBD8;stroke:#FFFFFF;stroke-miterlimit:10;}
</style>
<polyline class="st0" points="1.4,133.9 131,282 254,153 381,276 508,151 639,279 770,152 901,281 1038,157 1171,278 1310,164 
	1441,282 1568,156 1706,281 1847,155 1962,251.5 "/>
<text id="XMLID_62_" transform="matrix(0 -1 1 0 476.9375 200.4648)" class="st1 st2 st3">ALEMANIA</text>
<text id="XMLID_5_" transform="matrix(1 0 0 1 535.0083 175.917)"><tspan x="0" y="0" class="st1 st4 st5">$</tspan><tspan x="9.3" y="0" class="st1 st4 st6">1</tspan></text>
<g>
	
		<ellipse transform="matrix(1.195156e-03 -1 1 1.195156e-03 -148.4921 416.9692)" class="st7" cx="134.5" cy="282.8" rx="16.9" ry="16.9"/>
	<g>
		<g>
			<path class="st1" d="M139.8,281.9l0,2.3l-4.5,0l0,4.5l-2.2,0l0-4.5l-4.5,0l0-2.3l4.5,0l0-4.5l2.2,0l0,4.5L139.8,281.9z"/>
		</g>
	</g>
</g>
<g>
	
		<ellipse transform="matrix(1.195156e-03 -1 1 1.195156e-03 104.362 408.1257)" class="st7" cx="256.5" cy="151.8" rx="16.9" ry="16.9"/>
	<g>
		<g>
			<path class="st1" d="M261.8,150.9l0,2.3l-4.5,0l0,4.5l-2.2,0l0-4.5l-4.5,0l0-2.3l4.5,0l0-4.5l2.2,0l0,4.5L261.8,150.9z"/>
		</g>
	</g>
</g>
<g>
	
		<ellipse transform="matrix(1.195156e-03 -1 1 1.195156e-03 105.2115 658.9762)" class="st7" cx="382.5" cy="276.8" rx="16.9" ry="16.9"/>
	<g>
		<g>
			<path class="st1" d="M387.8,275.9l0,2.3l-4.5,0l0,4.5l-2.2,0l0-4.5l-4.5,0l0-2.3l4.5,0l0-4.5l2.2,0l0,4.5L387.8,275.9z"/>
		</g>
	</g>
</g>
<g>
	
		<ellipse transform="matrix(1.195156e-03 -1 1 1.195156e-03 357.0596 661.1255)" class="st7" cx="509.5" cy="151.8" rx="16.9" ry="16.9"/>
	<g>
		<g>
			<path class="st1" d="M514.8,150.9l0,2.3l-4.5,0l0,4.5l-2.2,0l0-4.5l-4.5,0l0-2.3l4.5,0l0-4.5l2.2,0l0,4.5L514.8,150.9z"/>
		</g>
	</g>
</g>
<g>
	
		<ellipse transform="matrix(1.195156e-03 -1 1 1.195156e-03 359.9032 919.9724)" class="st7" cx="640.5" cy="279.8" rx="16.9" ry="16.9"/>
	<g>
		<g>
			<path class="st1" d="M645.8,278.9l0,2.3l-4.5,0l0,4.5l-2.2,0l0-4.5l-4.5,0l0-2.3l4.5,0l0-4.5l2.2,0l0,4.5L645.8,278.9z"/>
		</g>
	</g>
</g>
<g>
	
		<ellipse transform="matrix(1.195156e-03 -1 1 1.195156e-03 619.7465 922.1265)" class="st7" cx="771.5" cy="150.8" rx="16.9" ry="16.9"/>
	<g>
		<g>
			<path class="st1" d="M776.8,149.9l0,2.3l-4.5,0l0,4.5l-2.2,0l0-4.5l-4.5,0l0-2.3l4.5,0l0-4.5l2.2,0l0,4.5L776.8,149.9z"/>
		</g>
	</g>
</g>
<g>
	
		<ellipse transform="matrix(1.195156e-03 -1 1 1.195156e-03 621.59 1181.9722)" class="st7" cx="902.5" cy="279.8" rx="16.9" ry="16.9"/>
	<g>
		<g>
			<path class="st1" d="M907.8,278.9l0,2.3l-4.5,0l0,4.5l-2.2,0l0-4.5l-4.5,0l0-2.3l4.5,0l0-4.5l2.2,0l0,4.5L907.8,278.9z"/>
		</g>
	</g>
</g>
<g>
	
		<ellipse transform="matrix(1.195156e-03 -1 1 1.195156e-03 884.4238 1197.1204)" class="st7" cx="1041.5" cy="155.8" rx="16.9" ry="16.9"/>
	<g>
		<g>
			<path class="st1" d="M1046.8,154.9l0,2.3l-4.5,0l0,4.5l-2.2,0l0-4.5l-4.5,0l0-2.3l4.5,0l0-4.5l2.2,0l0,4.5L1046.8,154.9z"/>
		</g>
	</g>
</g>
<g>
	
		<ellipse transform="matrix(1.195156e-03 -1 1 1.195156e-03 896.265 1450.9756)" class="st7" cx="1174.5" cy="276.8" rx="16.9" ry="16.9"/>
	<g>
		<g>
			<path class="st1" d="M1179.8,275.9l0,2.3l-4.5,0l0,4.5l-2.2,0l0-4.5l-4.5,0l0-2.3l4.5,0l0-4.5l2.2,0l0,4.5L1179.8,275.9z"/>
		</g>
	</g>
</g>
<g>
	
		<ellipse transform="matrix(1.195156e-03 -1 1 1.195156e-03 1147.1012 1474.1118)" class="st7" cx="1311.5" cy="162.8" rx="16.9" ry="16.9"/>
	<g>
		<g>
			<path class="st1" d="M1316.8,161.9l0,2.3l-4.5,0l0,4.5l-2.2,0l0-4.5l-4.5,0l0-2.3l4.5,0l0-4.5l2.2,0l0,4.5L1316.8,161.9z"/>
		</g>
	</g>
</g>
<g>
	
		<ellipse transform="matrix(1.195156e-03 -1 1 1.195156e-03 1157.947 1720.9707)" class="st7" cx="1440.5" cy="280.8" rx="16.9" ry="16.9"/>
	<g>
		<g>
			<path class="st1" d="M1445.8,279.9l0,2.3l-4.5,0l0,4.5l-2.2,0l0-4.5l-4.5,0l0-2.3l4.5,0l0-4.5l2.2,0l0,4.5L1445.8,279.9z"/>
		</g>
	</g>
</g>
<g>
	
		<ellipse transform="matrix(1.195156e-03 -1 1 1.195156e-03 1413.7916 1725.1211)" class="st7" cx="1570.5" cy="154.8" rx="16.9" ry="16.9"/>
	<g>
		<g>
			<path class="st1" d="M1575.8,153.9l0,2.3l-4.5,0l0,4.5l-2.2,0l0-4.5l-4.5,0l0-2.3l4.5,0l0-4.5l2.2,0l0,4.5L1575.8,153.9z"/>
		</g>
	</g>
</g>
<g>
	
		<ellipse transform="matrix(1.195156e-03 -1 1 1.195156e-03 1422.6292 1987.9692)" class="st7" cx="1706.5" cy="281.8" rx="16.9" ry="16.9"/>
	<g>
		<g>
			<path class="st1" d="M1711.8,280.9l0,2.3l-4.5,0l0,4.5l-2.2,0l0-4.5l-4.5,0l0-2.3l4.5,0l0-4.5l2.2,0l0,4.5L1711.8,280.9z"/>
		</g>
	</g>
</g>
<g>
	
		<ellipse transform="matrix(1.195156e-03 -1 1 1.195156e-03 1690.4594 2004.1198)" class="st7" cx="1848.5" cy="155.8" rx="16.9" ry="16.9"/>
	<g>
		<g>
			<path class="st1" d="M1853.8,154.9l0,2.3l-4.5,0l0,4.5l-2.2,0l0-4.5l-4.5,0l0-2.3l4.5,0l0-4.5l2.2,0l0,4.5L1853.8,154.9z"/>
		</g>
	</g>
</g>
</svg>
