<?xml version="1.0" encoding="UTF-8" standalone="no"?>
<svg xmlns="http://www.w3.org/2000/svg" viewBox="0 0 1366 241">
  <style>
    .st0{fill:#1ecbd8;stroke:#fff;stroke-miterlimit:10}.st1{fill:#fff}.st2{fill:transparent}
  </style>
  <g class="hotspot" id="336">
    <circle class="st0" cx="112" cy="62" r="11"/>
    <path class="st1" d="M117 61v2h-4v4h-2v-4h-4v-2h4v-4h2v4z"/>
    <path class="st2" id="draw-336" d="M70.3 91h80.8v99.1H70.3z"/>
  </g>
  <g class="hotspot" id="225">
    <circle class="st0" cx="214" cy="63" r="11"/>
    <path class="st1" d="M219 62v2h-4v4h-2v-4h-4v-2h4v-4h2v4z"/>
    <path class="st2" id="draw-225" d="M173.2 90.4H254v99.1h-80.8z"/>
  </g>
  <g class="hotspot" id="220">
    <circle class="st0" cx="316" cy="62" r="11"/>
    <path class="st1" d="M321 61v2h-4v4h-2v-4h-4v-2h4v-4h2v4z"/>
    <path class="st2" id="draw-220" d="M276 90.1h80.8v99.1H276z"/>
  </g>
  <g class="hotspot" id="563">
    <circle class="st0" cx="417" cy="63" r="11"/>
    <path class="st1" d="M422 62v2h-4v4h-2v-4h-4v-2h4v-4h2v4z"/>
    <path class="st2" id="draw-563" d="M377.9 90.4h80.8v99.1h-80.8z"/>
  </g>
  <g class="hotspot" id="406">
    <circle class="st0" cx="522" cy="64" r="11"/>
    <path class="st1" d="M527 63v2h-4v4h-2v-4h-4v-2h4v-4h2v4z"/>
    <path class="st2" id="draw-406" d="M480.2 91.5H561v99.1h-80.8z"/>
  </g>
  <g class="hotspot" id="112">
    <circle class="st0" cx="622" cy="62" r="11"/>
    <path class="st1" d="M627 61v2h-4v4h-2v-4h-4v-2h4v-4h2v4z"/>
    <path class="st2" id="draw-112" d="M581.8 91h80.8v99.1h-80.8z"/>
  </g>
  <g class="hotspot" id="505">
    <circle class="st0" cx="722" cy="62" r="11"/>
    <path class="st1" d="M727 61v2h-4v4h-2v-4h-4v-2h4v-4h2v4z"/>
    <path class="st2" id="draw-505" d="M683.2 91.2H764v99.1h-80.8z"/>
  </g>
  <g class="hotspot" id="201">
    <circle class="st0" cx="824" cy="61" r="11"/>
    <path class="st1" d="M829 60v2h-4v4h-2v-4h-4v-2h4v-4h2v4z"/>
    <path class="st2" id="draw-201" d="M785.6 90.7h80.8v99.1h-80.8z"/>
  </g>
  <g class="hotspot" id="216">
    <circle class="st0" cx="928" cy="57" r="11"/>
    <path class="st1" d="M933 56v2h-4v4h-2v-4h-4v-2h4v-4h2v4z"/>
    <path class="st2" id="draw-216" d="M887.3 87H971v102.4h-83.7z"/>
  </g>
  <g class="hotspot" id="208">
    <circle class="st0" cx="1033" cy="61" r="11"/>
    <path class="st1" d="M1038 60v2h-4v4h-2v-4h-4v-2h4v-4h2v4z"/>
    <path class="st2" id="draw-208" d="M993.2 87.3h83.8v102.8h-83.8z"/>
  </g>
  <g class="hotspot" id="219">
    <circle class="st0" cx="1140" cy="60" r="11"/>
    <path class="st1" d="M1145 59v2h-4v4h-2v-4h-4v-2h4v-4h2v4z"/>
    <path class="st2" id="draw-219" d="M1099 87.3h83.7v102.4H1099z"/>
  </g>
  <g class="hotspot" id="202">
    <circle class="st0" cx="1245" cy="57" r="11"/>
    <path class="st1" d="M1250 56v2h-4v4h-2v-4h-4v-2h4v-4h2v4z"/>
    <path class="st2" id="draw-202" d="M1205 87.8h83.7v102.6H1205z"/>
  </g>
</svg>