<?xml version="1.0" encoding="utf-8"?>
<!-- Generator: Adobe Illustrator 21.0.0, SVG Export Plug-In . SVG Version: 6.00 Build 0)  -->
<svg version="1.1" id="Capa_1" xmlns="http://www.w3.org/2000/svg" xmlns:xlink="http://www.w3.org/1999/xlink" x="0px" y="0px"
	 viewBox="0 0 1366 241" style="enable-background:new 0 0 1366 241;" xml:space="preserve">
<style type="text/css">
	.st0{fill:#1ECBD8;stroke:#FFFFFF;stroke-miterlimit:10;}
	.st1{fill:#FFFFFF;}
</style>
<g>
	
		<ellipse id="202" transform="matrix(1.195156e-03 -1 1 1.195156e-03 1185.2777 1303.9818)" class="st0" cx="1245.4" cy="58.6" rx="11.1" ry="11.1"/>
	<g>
		<g>
			<path class="st1" d="M1248.8,58.5l0,1.5l-3,0l0,2.9l-1.4,0l0-2.9l-2.9,0l0-1.5l2.9,0l0-2.9l1.4,0l0,2.9L1248.8,58.5z"/>
		</g>
	</g>
</g>
<g>
	
		<ellipse id="219" transform="matrix(1.195156e-03 -1 1 1.195156e-03 1077.3035 1201.4785)" class="st0" cx="1140.1" cy="61.4" rx="11.1" ry="11.1"/>
	<g>
		<g>
			<path class="st1" d="M1143.5,61.3l0,1.5l-3,0l0,2.9l-1.4,0l0-2.9l-2.9,0l0-1.5l2.9,0l0-2.9l1.4,0l0,2.9L1143.5,61.3z"/>
		</g>
	</g>
</g>
<g>
	
		<ellipse id="208" transform="matrix(1.195156e-03 -1 1 1.195156e-03 969.8311 1095.6776)" class="st0" cx="1033.4" cy="62.3" rx="11.1" ry="11.1"/>
	<g>
		<g>
			<path class="st1" d="M1036.8,62.2l0,1.5l-3,0l0,2.9l-1.4,0l0-2.9l-2.9,0l0-1.5l2.9,0l0-2.9l1.4,0l0,2.9L1036.8,62.2z"/>
		</g>
	</g>
</g>
<g>
	
		<ellipse id="201" transform="matrix(1.195156e-03 -1 1 1.195156e-03 761.3802 887.3775)" class="st0" cx="824.9" cy="62.5" rx="11.1" ry="11.1"/>
	<g>
		<g>
			<path class="st1" d="M828.3,62.4l0,1.5l-3,0l0,2.9l-1.4,0l0-2.9l-2.9,0l0-1.5l2.9,0l0-2.9l1.4,0l0,2.9L828.3,62.4z"/>
		</g>
	</g>
</g>
<g>
	
		<ellipse id="216" transform="matrix(1.195156e-03 -1 1 1.195156e-03 868.5562 987.6816)" class="st0" cx="928.7" cy="59" rx="11.1" ry="11.1"/>
	<g>
		<g>
			<path class="st1" d="M932.1,58.9l0,1.5l-3,0l0,2.9l-1.4,0l0-2.9l-2.9,0l0-1.5l2.9,0l0-2.9l1.4,0l0,2.9L932.1,58.9z"/>
		</g>
	</g>
</g>
<g>
	
		<ellipse id="505" transform="matrix(1.195156e-03 -1 1 1.195156e-03 657.9028 785.7764)" class="st0" cx="722.3" cy="63.5" rx="11.1" ry="11.1"/>
	<g>
		<g>
			<path class="st1" d="M725.7,63.4l0,1.5l-3,0l0,2.9l-1.4,0l0-2.9l-2.9,0l0-1.5l2.9,0l0-2.9l1.4,0l0,2.9L725.7,63.4z"/>
		</g>
	</g>
</g>
<g>
	
		<ellipse id="112" transform="matrix(1.195156e-03 -1 1 1.195156e-03 558.0226 685.3766)" class="st0" cx="622.1" cy="63.3" rx="11.1" ry="11.1"/>
	<g>
		<g>
			<path class="st1" d="M625.5,63.2l0,1.5l-3,0l0,2.9l-1.4,0l0-2.9l-2.9,0l0-1.5l2.9,0l0-2.9l1.4,0l0,2.9L625.5,63.2z"/>
		</g>
	</g>
</g>
<g>
	
		<ellipse id="406" transform="matrix(1.195156e-03 -1 1 1.195156e-03 455.9423 587.3742)" class="st0" cx="522" cy="65.4" rx="11.1" ry="11.1"/>
	<g>
		<g>
			<path class="st1" d="M525.4,65.3l0,1.5l-3,0l0,2.9l-1.4,0l0-2.9l-2.9,0l0-1.5l2.9,0l0-2.9l1.4,0l0,2.9L525.4,65.3z"/>
		</g>
	</g>
</g>
<g>
	
		<ellipse id="563" transform="matrix(1.195156e-03 -1 1 1.195156e-03 352.6674 481.3759)" class="st0" cx="417.3" cy="64.1" rx="11.1" ry="11.1"/>
	<g>
		<g>
			<path class="st1" d="M420.7,64l0,1.5l-3,0l0,2.9l-1.4,0l0-2.9l-2.9,0l0-1.5l2.9,0l0-2.9l1.4,0l0,2.9L420.7,64z"/>
		</g>
	</g>
</g>
<g>
	
		<ellipse id="220" transform="matrix(1.195156e-03 -1 1 1.195156e-03 252.6882 379.2771)" class="st0" cx="316.2" cy="63.1" rx="11.1" ry="11.1"/>
	<g>
		<g>
			<path class="st1" d="M319.6,63l0,1.5l-3,0l0,2.9l-1.4,0l0-2.9l-2.9,0l0-1.5l2.9,0l0-2.9l1.4,0l0,2.9L319.6,63z"/>
		</g>
	</g>
</g>
<g>
	
		<ellipse id="225" transform="matrix(1.195156e-03 -1 1 1.195156e-03 149.6366 278.0458)" class="st0" cx="214" cy="64.1" rx="11.1" ry="11.1"/>
	<g>
		<g>
			<path class="st1" d="M217.4,63.9l0,1.5l-3,0l0,2.9l-1.4,0l0-2.9l-2.9,0l0-1.5l2.9,0l0-2.9l1.4,0l0,2.9L217.4,63.9z"/>
		</g>
	</g>
</g>
<g>
	
		<ellipse id="336" transform="matrix(1.195156e-03 -1 1 1.195156e-03 49.2318 175.3774)" class="st0" cx="112.4" cy="63" rx="11.1" ry="11.1"/>
	<g>
		<g>
			<path class="st1" d="M115.8,62.9l0,1.5l-3,0l0,2.9l-1.4,0l0-2.9l-2.9,0l0-1.5l2.9,0l0-2.9l1.4,0l0,2.9L115.8,62.9z"/>
		</g>
	</g>
</g>
</svg>
