<?xml version="1.0" encoding="UTF-8" standalone="no"?>
<svg xmlns="http://www.w3.org/2000/svg" viewBox="0 0 1366 241">
  <style>
    .st0{fill:#4b71b5;stroke:#fff;stroke-miterlimit:10}.st1{fill:#fff}.st2{fill:transparent}
  </style>
  <g class="hotspot" id="15">
    <circle class="st0" cx="80" cy="80" r="11"/>
    <path class="st1" d="M85 79v2h-4v4h-2v-4h-4v-2h4v-4h2v4z"/>
    <path class="st2" id="draw-15" d="M37.5 190.8l6.5-39L62 140l20.3-2 25.2 4.2 4.8 12 4.7 1.3 8 19.2 4.3 15.3z"/>
  </g>
  <g class="hotspot" id="1">
    <circle class="st0" cx="156" cy="91" r="11"/>
    <path class="st1" d="M161 90v2h-4v4h-2v-4h-4v-2h4v-4h2v4z"/>
    <path class="st2" id="draw-" d="M189.3 190l-16-20.3-8 10.3v-28l-8.3-11-6.5 10-2.8 23.2-6.4 3.8-10.8-8.8-17.3 20z"/>
  </g>
  <g class="hotspot" id="2">
    <circle class="st0" cx="224" cy="113" r="11"/>
    <path class="st1" d="M229 112v2h-4v4h-2v-4h-4v-2h4v-4h2v4z"/>
    <path class="st2" id="draw-2" d="M189 196.5l70.8.2-.3-9.2-17-3.3V170l-5.5-4.3-23-2-9.8 6 .6 11.8-15.6 6z"/>
  </g>
  <g class="hotspot" id="3">
    <circle class="st0" cx="302" cy="76" r="11"/>
    <path class="st1" d="M307 75v2h-4v4h-2v-4h-4v-2h4v-4h2v4z"/>
    <path class="st2" id="draw-3" d="M334.8 183l5.4-14.5-5.7-26.5-15.8-13.3-19-3.5-17.2 6-12.5 13.5-4.5 17.8 4.5 18.7-18.5 8.3h102.3z"/>
  </g>
  <g class="hotspot" id="4">
    <circle class="st0" cx="388" cy="62" r="11"/>
    <path class="st1" d="M393 61v2h-4v4h-2v-4h-4v-2h4v-4h2v4z"/>
    <path class="st2" id="draw-4" d="M438.5 188.5l-2.3-6.5-5.4-15.5-4.6 8.7-24.4-6.5-6.8-43.5 3.3-4-9.8-11-8 10 3 4.3-2 45.2-22 2.3-4.8-6.8-16.2 24z"/>
  </g>
  <g class="hotspot" id="5">
    <circle class="st0" cx="493" cy="94" r="11"/>
    <path class="st1" d="M498 93v2h-4v4h-2v-4h-4v-2h4v-4h2v4z"/>
    <path class="st2" id="draw-5" d="M436 190l33.8-27 9 6.2v-15.7l7.2-9 15.3.5 5.2 8.5v22.2l17-13.2 37.8 27H479l-20.5 21-12-.3 8.5-10.5v-10z"/>
  </g>
  <g class="hotspot" id="6">
    <circle class="st0" cx="590" cy="74" r="11"/>
    <path class="st1" d="M595 73v2h-4v4h-2v-4h-4v-2h4v-4h2v4z"/>
    <path class="st2" id="draw-6" d="M590.3 123.2L564.5 138 524 190.5l174.5-1L674 174l-6-11.2h-12l-55-34.3-4.3 1.5z"/>
  </g>
  <g class="hotspot" id="13">
    <circle class="st0" cx="737" cy="91" r="11"/>
    <path class="st1" d="M742 90v2h-4v4h-2v-4h-4v-2h4v-4h2v4z"/>
    <path class="st2" id="draw-13" d="M694 190l.5-17.5-2.4-39 5-4.6 4.5 4-2 40 12-.4v-24H729l3 5h13l2.3-5.3H761l.3 24.5h9.3L775 101l8.7-.7 4.3 72h4V189z"/>
  </g>
  <g class="hotspot" id="7">
    <circle class="st0" cx="828" cy="105" r="11"/>
    <path class="st1" d="M833 104v2h-4v4h-2v-4h-4v-2h4v-4h2v4z"/>
    <path class="st2" id="draw-7" d="M878 165.7l-20.3-14-10.3-.3-3.6 16.8-7.8 2.5-23.8-4.8-3-10-5.3-4-6 3-2.7 10-11.6.3v23l80.2.4z"/>
  </g>
  <g class="hotspot" id="8">
    <circle class="st0" cx="899" cy="93" r="11"/>
    <path class="st1" d="M904 92v2h-4v4h-2v-4h-4v-2h4v-4h2v4z"/>
    <path class="st2" id="draw-8" d="M864.6 189.4l13.3-23.7-4-10 1-7.6 7-3 42.4 10 .5 4-6 4.8-4 21 19 5.2z"/>
  </g>
  <g class="hotspot" id="9">
    <circle class="st0" cx="964" cy="105" r="11"/>
    <path class="st1" d="M969 104v2h-4v4h-2v-4h-4v-2h4v-4h2v4z"/>
    <path class="st2" id="draw-9" d="M925.3 188.5l.2 9.7 79-.7v-9L965 155.7z"/>
  </g>
  <g class="hotspot" id="14">
    <circle class="st0" cx="1027" cy="94" r="11"/>
    <path class="st1" d="M1032 93v2h-4v4h-2v-4h-4v-2h4v-4h2v4z"/>
    <path class="st2" id="draw-14" d="M1028.8 144.2l-16.8 6-5.8-3-42.5 42.3h131.5z"/>
  </g>
  <g class="hotspot" id="10">
    <circle class="st0" cx="1119" cy="105" r="11"/>
    <path class="st1" d="M1124 104v2h-4v4h-2v-4h-4v-2h4v-4h2v4z"/>
    <path class="st2" id="draw-10" d="M1149.5 197.7L1147 163l-11-6.3-8 4.8-12.8-.3-2.5-5h-17.2l-4 7.3-.3 34.2z"/>
  </g>
  <g class="hotspot" id="11">
    <circle class="st0" cx="1217" cy="96" r="11"/>
    <path class="st1" d="M1222 95v2h-4v4h-2v-4h-4v-2h4v-4h2v4z"/>
    <path class="st2" id="draw-11" d="M1272.3 191.2l-11.8-21.2-20-17-20.5-5-23 10-48 32 27 5.5 30.5.2 11-6z"/>
  </g>
  <g class="hotspot" id="12">
    <circle class="st0" cx="1287" cy="119" r="11"/>
    <path class="st1" d="M1292 118v2h-4v4h-2v-4h-4v-2h4v-4h2v4z"/>
    <path class="st2" id="draw-12" d="M1312.8 190l-10.3-22-11.3-.3-3.2 11.5-16.5-7.5-4.8 18.8z"/>
  </g>
</svg>