<?xml version="1.0" encoding="utf-8"?>
<!-- Generator: Adobe Illustrator 21.0.0, SVG Export Plug-In . SVG Version: 6.00 Build 0)  -->
<!DOCTYPE svg PUBLIC "-//W3C//DTD SVG 1.1//EN" "http://www.w3.org/Graphics/SVG/1.1/DTD/svg11.dtd" >
<svg version="1.1" id="Capa_1"
	 xmlns="http://www.w3.org/2000/svg" xmlns:xlink="http://www.w3.org/1999/xlink" x="0px" y="0px" viewBox="0 0 1948 212"
	 style="enable-background:new 0 0 1948 212;" xml:space="preserve">
<style type="text/css">
	.st0{fill:none;stroke:#FF7474;stroke-width:2;stroke-linecap:round;stroke-linejoin:round;stroke-dasharray:0,7;}
	.st1{fill:#4B71B5;stroke:#FFFFFF;stroke-miterlimit:10;}
	.st2{fill:#FFFFFF;}
</style>
<switch>
	<g>
		<g>
			<g id="Page-1">
				<g id="linea-punteada-geo" transform="translate(1.000000, -39.000000)">
					<polyline id="Stroke-1" class="st0" points="1807.7,145.6 1659.3,128.3 1516.8,132.6 1407.3,125.4 1319.5,99.5 1228.8,111 
						1106.4,115.4 965.3,102.4 793.9,95.2 677.3,113.9 557.7,88 458.4,89.4 353.3,135.5 268.3,95.2 137.3,79.4 7.5,112.7 					"/>
					<path id="Stroke-3" class="st0" d="M1807.7,145.6l140.8-42.5"/>
				</g>
			</g>
			<g>
				
					<ellipse transform="matrix(1.195156e-03 -1 1 1.195156e-03 104.9916 186.9038)" class="st1" cx="146.1" cy="40.9" rx="12.3" ry="12.3"/>
				<g>
					<g>
						<path class="st2" d="M149.8,40.7l0,1.7l-3.3,0l0,3.2l-1.6,0l0-3.2l-3.3,0l0-1.7l3.3,0l0-3.3l1.6,0l0,3.3L149.8,40.7z"/>
					</g>
				</g>
			</g>
			<g>
				
					<ellipse transform="matrix(1.195156e-03 -1 1 1.195156e-03 206.3251 319.8513)" class="st1" cx="263.3" cy="56.6" rx="12.3" ry="12.3"/>
				<g>
					<g>
						<path class="st2" d="M267,56.4l0,1.7l-3.3,0l0,3.2l-1.6,0l0-3.2l-3.3,0l0-1.7l3.3,0l0-3.3l1.6,0l0,3.3L267,56.4z"/>
					</g>
				</g>
			</g>
			<g>
				
					<ellipse transform="matrix(1.195156e-03 -1 1 1.195156e-03 263.2991 456.6753)" class="st1" cx="360.3" cy="96.5" rx="12.3" ry="12.3"/>
				<g>
					<g>
						<path class="st2" d="M364.2,96.4l0,1.7l-3.3,0l0,3.2l-1.6,0l0-3.2l-3.3,0l0-1.7l3.3,0l0-3.3l1.6,0l0,3.3L364.2,96.4z"/>
					</g>
				</g>
			</g>
			<g>
				
					<ellipse transform="matrix(1.195156e-03 -1 1 1.195156e-03 413.39 514.5667)" class="st1" cx="464.3" cy="50.3" rx="12.3" ry="12.3"/>
				<g>
					<g>
						<path class="st2" d="M468,50.1l0,1.7l-3.3,0l0,3.2l-1.6,0l0-3.2l-3.3,0l0-1.7l3.3,0l0-3.3l1.6,0l0,3.3L468,50.1z"/>
					</g>
				</g>
			</g>
			<g>
				
					<ellipse transform="matrix(1.195156e-03 -1 1 1.195156e-03 531.0286 628.147)" class="st1" cx="580" cy="48.2" rx="12.3" ry="12.3"/>
				<g>
					<g>
						<path class="st2" d="M583.7,48l0,1.7l-3.3,0l0,3.2l-1.6,0l0-3.2l-3.3,0l0-1.7l3.3,0l0-3.3l1.6,0l0,3.3L583.7,48z"/>
					</g>
				</g>
			</g>
			<g>
				
					<ellipse transform="matrix(1.195156e-03 -1 1 1.195156e-03 609.3322 759.0323)" class="st1" cx="684.6" cy="74.5" rx="12.3" ry="12.3"/>
				<g>
					<g>
						<path class="st2" d="M688.4,74.3l0,1.7l-3.3,0l0,3.2l-1.6,0l0-3.2l-3.3,0l0-1.7l3.3,0l0-3.3l1.6,0l0,3.3L688.4,74.3z"/>
					</g>
				</g>
			</g>
			<g>
				
					<ellipse transform="matrix(1.195156e-03 -1 1 1.195156e-03 737.6204 849.6824)" class="st1" cx="794.2" cy="55.6" rx="12.3" ry="12.3"/>
				<g>
					<g>
						<path class="st2" d="M797.9,54.3l0,1.7l-3.3,0l0,3.2l-1.6,0l0-3.2l-3.3,0l0-1.7l3.3,0l0-3.3l1.6,0l0,3.3L797.9,54.3z"/>
					</g>
				</g>
			</g>
			<g>
				
					<ellipse transform="matrix(1.195156e-03 -1 1 1.195156e-03 900.1796 1027.1327)" class="st1" cx="964.3" cy="62.9" rx="12.3" ry="12.3"/>
				<g>
					<g>
						<path class="st2" d="M968,61.7l0,1.7l-3.3,0l0,3.2l-1.6,0l0-3.2l-3.3,0l0-1.7l3.3,0l0-3.3l1.6,0l0,3.3L968,61.7z"/>
					</g>
				</g>
			</g>
			<g>
				
					<ellipse transform="matrix(1.195156e-03 -1 1 1.195156e-03 1044.0619 1198.4808)" class="st1" cx="1122" cy="76.6" rx="12.3" ry="12.3"/>
				<g>
					<g>
						<path class="st2" d="M1125.7,75.3l0,1.7l-3.3,0l0,3.2l-1.6,0l0-3.2l-3.3,0l0-1.7l3.3,0l0-3.3l1.6,0l0,3.3L1125.7,75.3z"/>
					</g>
				</g>
			</g>
			<g>
				
					<ellipse transform="matrix(1.195156e-03 -1 1 1.195156e-03 1154.9564 1299.0104)" class="st1" cx="1227.8" cy="71.3" rx="12.3" ry="12.3"/>
				<g>
					<g>
						<path class="st2" d="M1231.5,70.1l0,1.7l-3.3,0l0,3.2l-1.6,0l0-3.2l-3.3,0l0-1.7l3.3,0l0-3.3l1.6,0l0,3.3L1231.5,70.1z"/>
					</g>
				</g>
			</g>
			<g>
				
					<ellipse transform="matrix(1.195156e-03 -1 1 1.195156e-03 1246.6859 1369.8544)" class="st1" cx="1309.1" cy="60.8" rx="12.3" ry="12.3"/>
				<g>
					<g>
						<path class="st2" d="M1312.8,59.6l0,1.7l-3.3,0l0,3.2l-1.6,0l0-3.2l-3.3,0l0-1.7l3.3,0l0-3.3l1.6,0l0,3.3L1312.8,59.6z"/>
					</g>
				</g>
			</g>
			<g>
				
					<ellipse transform="matrix(1.195156e-03 -1 1 1.195156e-03 1317.5068 1491.1486)" class="st1" cx="1405.2" cy="86" rx="12.3" ry="12.3"/>
				<g>
					<g>
						<path class="st2" d="M1409,84.8l0,1.7l-3.3,0l0,3.2l-1.6,0l0-3.2l-3.3,0l0-1.7l3.3,0l0-3.3l1.6,0l0,3.3L1409,84.8z"/>
					</g>
				</g>
			</g>
			<g>
				
					<ellipse transform="matrix(1.195156e-03 -1 1 1.195156e-03 1434.2349 1622.7128)" class="st1" cx="1529.4" cy="93.4" rx="12.3" ry="12.3"/>
				<g>
					<g>
						<path class="st2" d="M1533.2,92.1l0,1.7l-3.3,0l0,3.2l-1.6,0l0-3.2l-3.3,0l0-1.7l3.3,0l0-3.3l1.6,0l0,3.3L1533.2,92.1z"/>
					</g>
				</g>
			</g>
			<g>
				
					<ellipse transform="matrix(1.195156e-03 -1 1 1.195156e-03 1607.9984 1788.286)" class="st1" cx="1699.2" cy="89.2" rx="12.3" ry="12.3"/>
				<g>
					<g>
						<path class="st2" d="M1703,87.9l0,1.7l-3.3,0l0,3.2l-1.6,0l0-3.2l-3.3,0l0-1.7l3.3,0l0-3.3l1.6,0l0,3.3L1703,87.9z"/>
					</g>
				</g>
			</g>
			<g>
				
					<ellipse transform="matrix(1.195156e-03 -1 1 1.195156e-03 1709.0773 1923.0781)" class="st1" cx="1817.2" cy="106" rx="12.3" ry="12.3"/>
				<g>
					<g>
						<path class="st2" d="M1821,104.7l0,1.7l-3.3,0l0,3.2l-1.6,0l0-3.2l-3.3,0l0-1.7l3.3,0l0-3.3l1.6,0l0,3.3L1821,104.7z"/>
					</g>
				</g>
			</g>
		</g>
	</g>
</switch>
</svg>
