<?xml version="1.0" encoding="utf-8"?>
<!-- Generator: Adobe Illustrator 21.0.0, SVG Export Plug-In . SVG Version: 6.00 Build 0)  -->
<svg version="1.1" id="Capa_1" xmlns="http://www.w3.org/2000/svg" xmlns:xlink="http://www.w3.org/1999/xlink" x="0px" y="0px"
	 viewBox="0 0 1366 241" style="enable-background:new 0 0 1366 241;" xml:space="preserve">
<style type="text/css">
	.st0{fill:#4B71B5;stroke:#FFFFFF;stroke-miterlimit:10;}
	.st1{fill:#FFFFFF;}
</style>
<g>
	<ellipse id="15" transform="matrix(1.195156e-03 -1 1 1.195156e-03 1.27 159.3583)" class="st0" cx="80.4" cy="79" rx="11.1" ry="11.1"/>
	<g>
		<g>
			<path class="st1" d="M83.8,78.9l0,1.5l-3,0l0,2.9l-1.4,0l0-2.9l-2.9,0l0-1.5l2.9,0l0-2.9l1.4,0l0,2.9L83.8,78.9z"/>
		</g>
	</g>
</g>
<g>
	
		<ellipse id="1" transform="matrix(1.195156e-03 -1 1 1.195156e-03 68.2035 247.5154)" class="st0" cx="158" cy="89.6" rx="11.1" ry="11.1"/>
	<g>
		<g>
			<path class="st1" d="M161.4,89.4l0,1.5l-3,0l0,2.9l-1.4,0l0-2.9l-2.9,0l0-1.5l2.9,0l0-2.9l1.4,0l0,2.9L161.4,89.4z"/>
		</g>
	</g>
</g>
<g>
	
		<ellipse id="2" transform="matrix(1.195156e-03 -1 1 1.195156e-03 111.6247 335.9884)" class="st0" cx="224" cy="112.1" rx="11.1" ry="11.1"/>
	<g>
		<g>
			<path class="st1" d="M227.4,111.9l0,1.5l-3,0l0,2.9l-1.4,0l0-2.9l-2.9,0l0-1.5l2.9,0l0-2.9l1.4,0l0,2.9L227.4,111.9z"/>
		</g>
	</g>
</g>
<g>
	
		<ellipse id="3" transform="matrix(1.195156e-03 -1 1 1.195156e-03 223.705 380.2592)" class="st0" cx="302.2" cy="78.1" rx="11.1" ry="11.1"/>
	<g>
		<g>
			<path class="st1" d="M305.6,78l0,1.5l-3,0l0,2.9l-1.4,0l0-2.9l-2.9,0l0-1.5l2.9,0l0-2.9l1.4,0l0,2.9L305.6,78z"/>
		</g>
	</g>
</g>
<g>
	
		<ellipse id="4" transform="matrix(1.195156e-03 -1 1 1.195156e-03 328.7008 449.3806)" class="st0" cx="389.3" cy="60.1" rx="11.1" ry="11.1"/>
	<g>
		<g>
			<path class="st1" d="M392.7,60l0,1.5l-3,0l0,2.9l-1.4,0l0-2.9l-2.9,0l0-1.5l2.9,0l0-2.9l1.4,0l0,2.9L392.7,60z"/>
		</g>
	</g>
</g>
<g>
	
		<ellipse id="5" transform="matrix(1.195156e-03 -1 1 1.195156e-03 394.9817 582.3408)" class="st0" cx="489" cy="93.4" rx="11.1" ry="11.1"/>
	<g>
		<g>
			<path class="st1" d="M492.4,93.3l0,1.5l-3,0l0,2.9l-1.4,0l0-2.9l-2.9,0l0-1.5l2.9,0l0-2.9l1.4,0l0,2.9L492.4,93.3z"/>
		</g>
	</g>
</g>
<g>
	
		<ellipse id="13" transform="matrix(1.195156e-03 -1 1 1.195156e-03 507.068 660.3611)" class="st0" cx="584.1" cy="76.3" rx="11.1" ry="11.1"/>
	<g>
		<g>
			<path class="st1" d="M587.5,76.2l0,1.5l-3,0l0,2.9l-1.4,0l0-2.9l-2.9,0l0-1.5l2.9,0l0-2.9l1.4,0l0,2.9L587.5,76.2z"/>
		</g>
	</g>
</g>
<g>
	
		<ellipse id="6" transform="matrix(1.195156e-03 -1 1 1.195156e-03 638.8909 824.7417)" class="st0" cx="732.3" cy="92.5" rx="11.1" ry="11.1"/>
	<g>
		<g>
			<path class="st1" d="M735.7,92.4l0,1.5l-3,0l0,2.9l-1.4,0l0-2.9l-2.9,0l0-1.5l2.9,0l0-2.9l1.4,0l0,2.9L735.7,92.4z"/>
		</g>
	</g>
</g>
<g>
	
		<ellipse id="7" transform="matrix(1.195156e-03 -1 1 1.195156e-03 719.3791 931.3261)" class="st0" cx="825.9" cy="105.5" rx="11.1" ry="11.1"/>
	<g>
		<g>
			<path class="st1" d="M829.3,105.4l0,1.5l-3,0l0,2.9l-1.4,0l0-2.9l-2.9,0l0-1.5l2.9,0l0-2.9l1.4,0l0,2.9L829.3,105.4z"/>
		</g>
	</g>
</g>
<g>
	
		<ellipse id="8" transform="matrix(1.195156e-03 -1 1 1.195156e-03 1166.2288 1404.9102)" class="st0" cx="1286.4" cy="118.6" rx="11.1" ry="11.1"/>
	<g>
		<g>
			<path class="st1" d="M1289.8,118.5l0,1.5l-3,0l0,2.9l-1.4,0l0-2.9l-2.9,0l0-1.5l2.9,0l0-2.9l1.4,0l0,2.9L1289.8,118.5z"/>
		</g>
	</g>
</g>
<g>
	
		<ellipse id="9" transform="matrix(1.195156e-03 -1 1 1.195156e-03 801.9943 990.4401)" class="st0" cx="896.8" cy="93.7" rx="11.1" ry="11.1"/>
	<g>
		<g>
			<path class="st1" d="M900.2,93.6l0,1.5l-3,0l0,2.9l-1.4,0l0-2.9l-2.9,0l0-1.5l2.9,0l0-2.9l1.4,0l0,2.9L900.2,93.6z"/>
		</g>
	</g>
</g>
<g>
	
		<ellipse id="14" transform="matrix(1.195156e-03 -1 1 1.195156e-03 861.5144 1064.6313)" class="st0" cx="963.7" cy="101" rx="11.1" ry="11.1"/>
	<g>
		<g>
			<path class="st1" d="M967.1,100.9l0,1.5l-3,0l0,2.9l-1.4,0l0-2.9l-2.9,0l0-1.5l2.9,0l0-2.9l1.4,0l0,2.9L967.1,100.9z"/>
		</g>
	</g>
</g>
<g>
	
		<ellipse id="10" transform="matrix(1.195156e-03 -1 1 1.195156e-03 920.8514 1110.6393)" class="st0" cx="1016.4" cy="94.3" rx="11.1" ry="11.1"/>
	<g>
		<g>
			<path class="st1" d="M1019.8,94.2l0,1.5l-3,0l0,2.9l-1.4,0l0-2.9l-2.9,0l0-1.5l2.9,0l0-2.9l1.4,0l0,2.9L1019.8,94.2z"/>
		</g>
	</g>
</g>
<g>
	
		<ellipse id="11" transform="matrix(1.195156e-03 -1 1 1.195156e-03 1020.3298 1214.4368)" class="st0" cx="1118.1" cy="96.4" rx="11.1" ry="11.1"/>
	<g>
		<g>
			<path class="st1" d="M1121.5,96.3l0,1.5l-3,0l0,2.9l-1.4,0l0-2.9l-2.9,0l0-1.5l2.9,0l0-2.9l1.4,0l0,2.9L1121.5,96.3z"/>
		</g>
	</g>
</g>
<g>
	
		<ellipse id="12" transform="matrix(1.195156e-03 -1 1 1.195156e-03 1111.6144 1316.2305)" class="st0" cx="1214.7" cy="101.6" rx="11.1" ry="11.1"/>
	<g>
		<g>
			<path class="st1" d="M1218.1,101.5l0,1.5l-3,0l0,2.9l-1.4,0l0-2.9l-2.9,0l0-1.5l2.9,0l0-2.9l1.4,0l0,2.9L1218.1,101.5z"/>
		</g>
	</g>
</g>
</svg>
