<?xml version="1.0" encoding="utf-8"?>
<!-- Generator: Adobe Illustrator 21.0.0, SVG Export Plug-In . SVG Version: 6.00 Build 0)  -->
<svg version="1.1" id="Capa_1" xmlns="http://www.w3.org/2000/svg" xmlns:xlink="http://www.w3.org/1999/xlink" x="0px" y="0px"
	 viewBox="0 0 1366 241" style="enable-background:new 0 0 1366 241;" xml:space="preserve">
<style type="text/css">
	.st0{fill:#2A8090;stroke:#FFFFFF;stroke-miterlimit:10;}
	.st1{fill:#FFFFFF;}
</style>
<g>
	
		<ellipse id="A" transform="matrix(1.195156e-03 -1 1 1.195156e-03 20.6142 233.3256)" class="st0" cx="127.1" cy="106.3" rx="11.1" ry="11.1"/>
	<g>
		<g>
			<path class="st1" d="M130.5,106.2l0,1.5l-3,0l0,2.9l-1.4,0l0-2.9l-2.9,0l0-1.5l2.9,0l0-2.9l1.4,0l0,2.9L130.5,106.2z"/>
		</g>
	</g>
</g>
<g>
	
		<ellipse id="E" transform="matrix(1.195156e-03 -1 1 1.195156e-03 94.4936 361.2933)" class="st0" cx="228.1" cy="133.3" rx="11.1" ry="11.1"/>
	<g>
		<g>
			<path class="st1" d="M231.5,133.2l0,1.5l-3,0l0,2.9l-1.4,0l0-2.9l-2.9,0l0-1.5l2.9,0l0-2.9l1.4,0l0,2.9L231.5,133.2z"/>
		</g>
	</g>
</g>
<g>
	
		<ellipse id="B" transform="matrix(1.195156e-03 -1 1 1.195156e-03 200.4111 393.3375)" class="st0" cx="297.1" cy="96.3" rx="11.1" ry="11.1"/>
	<g>
		<g>
			<path class="st1" d="M300.5,96.2l0,1.5l-3,0l0,2.9l-1.4,0l0-2.9l-2.9,0l0-1.5l2.9,0l0-2.9l1.4,0l0,2.9L300.5,96.2z"/>
		</g>
	</g>
</g>
<g>
	
		<ellipse id="C" transform="matrix(1.195156e-03 -1 1 1.195156e-03 351.276 468.3828)" class="st0" cx="410.1" cy="58.3" rx="11.1" ry="11.1"/>
	<g>
		<g>
			<path class="st1" d="M413.5,58.2l0,1.5l-3,0l0,2.9l-1.4,0l0-2.9l-2.9,0l0-1.5l2.9,0l0-2.9l1.4,0l0,2.9L413.5,58.2z"/>
		</g>
	</g>
</g>
<g>
	
		<ellipse id="D" transform="matrix(1.195156e-03 -1 1 1.195156e-03 508.1003 605.3947)" class="st0" cx="557.1" cy="48.3" rx="11.1" ry="11.1"/>
	<g>
		<g>
			<path class="st1" d="M560.5,48.2l0,1.5l-3,0l0,2.9l-1.4,0l0-2.9l-2.9,0l0-1.5l2.9,0l0-2.9l1.4,0l0,2.9L560.5,48.2z"/>
		</g>
	</g>
</g>
<g>
	
		<ellipse id="F" transform="matrix(1.195156e-03 -1 1 1.195156e-03 622.9473 746.379)" class="st0" cx="685.1" cy="61.3" rx="11.1" ry="11.1"/>
	<g>
		<g>
			<path class="st1" d="M688.5,61.2l0,1.5l-3,0l0,2.9l-1.4,0l0-2.9l-2.9,0l0-1.5l2.9,0l0-2.9l1.4,0l0,2.9L688.5,61.2z"/>
		</g>
	</g>
</g>
<g>
	
		<ellipse id="G" transform="matrix(1.195156e-03 -1 1 1.195156e-03 715.8015 897.3442)" class="st0" cx="807.1" cy="90.3" rx="11.1" ry="11.1"/>
	<g>
		<g>
			<path class="st1" d="M810.5,90.2l0,1.5l-3,0l0,2.9l-1.4,0l0-2.9l-2.9,0l0-1.5l2.9,0l0-2.9l1.4,0l0,2.9L810.5,90.2z"/>
		</g>
	</g>
</g>
<g>
	
		<ellipse id="I" transform="matrix(1.195156e-03 -1 1 1.195156e-03 827.7155 929.392)" class="st0" cx="879.1" cy="50.3" rx="11.1" ry="11.1"/>
	<g>
		<g>
			<path class="st1" d="M882.5,50.2l0,1.5l-3,0l0,2.9l-1.4,0l0-2.9l-2.9,0l0-1.5l2.9,0l0-2.9l1.4,0l0,2.9L882.5,50.2z"/>
		</g>
	</g>
</g>
<g>
	
		<ellipse id="H" transform="matrix(1.195156e-03 -1 1 1.195156e-03 835.6342 1057.3203)" class="st0" cx="947.1" cy="110.3" rx="11.1" ry="11.1"/>
	<g>
		<g>
			<path class="st1" d="M950.5,110.2l0,1.5l-3,0l0,2.9l-1.4,0l0-2.9l-2.9,0l0-1.5l2.9,0l0-2.9l1.4,0l0,2.9L950.5,110.2z"/>
		</g>
	</g>
</g>
<g>
	
		<ellipse id="M" transform="matrix(1.195156e-03 -1 1 1.195156e-03 984.5278 1086.3918)" class="st0" cx="1036.1" cy="50.3" rx="11.1" ry="11.1"/>
	<g>
		<g>
			<path class="st1" d="M1039.5,50.2l0,1.5l-3,0l0,2.9l-1.4,0l0-2.9l-2.9,0l0-1.5l2.9,0l0-2.9l1.4,0l0,2.9L1039.5,50.2z"/>
		</g>
	</g>
</g>
<g>
	
		<ellipse id="Q" transform="matrix(1.195156e-03 -1 1 1.195156e-03 1132.3724 1198.4133)" class="st0" cx="1166.1" cy="32.3" rx="11.1" ry="11.1"/>
	<g>
		<g>
			<path class="st1" d="M1169.5,32.2l0,1.5l-3,0l0,2.9l-1.4,0l0-2.9l-2.9,0l0-1.5l2.9,0l0-2.9l1.4,0l0,2.9L1169.5,32.2z"/>
		</g>
	</g>
</g>
</svg>
