<?xml version="1.0" encoding="UTF-8" standalone="no"?>
<svg xmlns="http://www.w3.org/2000/svg" viewBox="0 0 1366 241">
  <style id="style2">
    .st0{fill:#2a8090;stroke:#fff;stroke-miterlimit:10}.st1{fill:#fff}.st2{fill:transparent}
  </style>
  <g class="hotspot" id="A">
    <circle class="st0" r="11" cx="140" cy="106"/>
    <path class="st1" d="M145 105v2h-4v4h-2v-4h-4v-2h4v-4h2v4z"/>
    <path class="st2" id="draw-A" d="M90.6 133.9h100.1V194H90.6z"/>
  </g>
  <g class="hotspot" id="E">
    <circle class="st0" r="11" cx="228" cy="133"/>
    <path class="st1" d="M233 132v2h-4v4h-2v-4h-4v-2h4v-4h2v4z"/>
    <path class="st2" id="draw-E" d="M191.6 171h72.7v49.5h-72.7z"/>
  </g>
  <g class="hotspot" id="B">
    <circle class="st0" r="11" cx="297" cy="96"/>
    <path class="st1" d="M302 95v2h-4v4h-2v-4h-4v-2h4v-4h2v4z"/>
    <path class="st2" id="draw-B" d="M267.3 133.9h59.2V194h-59.2z"/>
  </g>
  <g class="hotspot" id="C">
    <circle class="st0" r="11" cx="417" cy="57"/>
    <path class="st1" d="M422 56v2h-4v4h-2v-4h-4v-2h4v-4h2v4z"/>
    <path class="st2" id="draw-C" d="M327.8 102.3H506V192H327.8z"/>
  </g>
  <g class="hotspot" id="D">
    <circle class="st0" r="11" cx="556" cy="47"/>
    <path class="st1" d="M561 46v2h-4v4h-2v-4h-4v-2h4v-4h2v4z"/>
    <path class="st2" id="draw-D" d="M520.9 94.2h70.5v103h-70.5z"/>
  </g>
  <g class="hotspot" id="F">
    <circle class="st0" r="11" cx="684" cy="60"/>
    <path class="st1" d="M689 59v2h-4v4h-2v-4h-4v-2h4v-4h2v4z"/>
    <path class="st2" id="draw-F" d="M607.2 94h154.7v102.1H607.2z"/>
  </g>
  <g class="hotspot" id="G">
    <circle class="st0" r="11" cx="800" cy="89"/>
    <path class="st1" d="M805 88v2h-4v4h-2v-4h-4v-2h4v-4h2v4z"/>
    <path class="st2" id="draw-G" d="M764.2 119h72.7v89.2h-72.7z"/>
  </g>
  <g class="hotspot" id="I">
    <circle class="st0" r="11" cx="879" cy="49"/>
    <path class="st1" d="M884 48v2h-4v4h-2v-4h-4v-2h4v-4h2v4z"/>
    <path class="st2" id="draw-I" d="M841 86.7h77.5v116.8H841z"/>
  </g>
  <g class="hotspot" id="H">
    <circle class="st0" r="11" cx="958" cy="109"/>
    <path class="st1" d="M963 108v2h-4v4h-2v-4h-4v-2h4v-4h2v4z"/>
    <path class="st2" id="draw-H" d="M919.4 142.8h77.7v87.9h-77.7z"/>
  </g>
  <g class="hotspot" id="M">
    <circle class="st0" r="11" cx="1039" cy="49"/>
    <path class="st1" d="M1044 48v2h-4v4h-2v-4h-4v-2h4v-4h2v4z"/>
    <path class="st2" id="draw-M" d="M990.3 77.9h98.2v114.5h-98.2z"/>
  </g>
  <g class="hotspot" id="Q">
    <circle class="st0" r="11" cx="1168" cy="31"/>
    <path class="st1" d="M1173 30v2h-4v4h-2v-4h-4v-2h4v-4h2v4z"/>
    <path class="st2" id="draw-Q" d="M1108.4 93.7H1229v103h-120.6z"/>
  </g>
</svg>