<?xml version="1.0" encoding="utf-8"?>
<!-- Generator: Adobe Illustrator 21.0.0, SVG Export Plug-In . SVG Version: 6.00 Build 0)  -->
<!DOCTYPE svg PUBLIC "-//W3C//DTD SVG 1.1//EN" "http://www.w3.org/Graphics/SVG/1.1/DTD/svg11.dtd">
<svg version="1.1" id="Capa_1"
	 xmlns="http://www.w3.org/2000/svg" xmlns:xlink="http://www.w3.org/1999/xlink" x="0px" y="0px" viewBox="0 0 1951 313"
	 style="enable-background:new 0 0 1951 313;" xml:space="preserve">
<style type="text/css">
	
		.st0{fill:none;stroke:#FF7474;stroke-width:2;stroke-linecap:round;stroke-linejoin:round;stroke-miterlimit:10;stroke-dasharray:0,7;}
	.st1{fill:#39396B;}
	.st2{fill:#7777ED;stroke:#FFFFFF;stroke-miterlimit:10;}
	.st3{fill:#FFFFFF;}
</style>
<switch>
	<g>
		<polyline class="st0" points="-2,86.7 466,276 790,81 1131,265 1504,102 1951,258.9 		"/>
		<g>
			
				<ellipse transform="matrix(1.195156e-03 -1 1 1.195156e-03 865.3175 1393.9912)" class="st2" cx="1130.5" cy="263.8" rx="16.9" ry="16.9"/>
			<g>
				<g>
					<path class="st3" d="M1135.8,262.9l0,2.3l-4.5,0l0,4.5l-2.2,0l0-4.5l-4.5,0l0-2.3l4.5,0l0-4.5l2.2,0l0,4.5L1135.8,262.9z"/>
				</g>
			</g>
		</g>
		<g>
			
				<ellipse transform="matrix(1.195156e-03 -1 1 1.195156e-03 1405.8633 1613.1833)" class="st2" cx="1510.5" cy="102.8" rx="16.9" ry="16.9"/>
			<g>
				<g>
					<path class="st3" d="M1515.8,101.9l0,2.3l-4.5,0l0,4.5l-2.2,0l0-4.5l-4.5,0l0-2.3l4.5,0l0-4.5l2.2,0l0,4.5L1515.8,101.9z"/>
				</g>
			</g>
		</g>
		<g>
			
				<ellipse transform="matrix(1.195156e-03 -1 1 1.195156e-03 706.7261 869.2101)" class="st2" cx="788.5" cy="80.8" rx="16.9" ry="16.9"/>
			<g>
				<g>
					<path class="st3" d="M793.8,79.9l0,2.3l-4.5,0l0,4.5l-2.2,0l0-4.5l-4.5,0l0-2.3l4.5,0l0-4.5l2.2,0l0,4.5L793.8,79.9z"/>
				</g>
			</g>
		</g>
		<g>
			
				<ellipse transform="matrix(1.195156e-03 -1 1 1.195156e-03 195.1051 746.9773)" class="st2" cx="471.5" cy="275.8" rx="16.9" ry="16.9"/>
			<g>
				<g>
					<path class="st3" d="M476.8,274.9l0,2.3l-4.5,0l0,4.5l-2.2,0l0-4.5l-4.5,0l0-2.3l4.5,0l0-4.5l2.2,0l0,4.5L476.8,274.9z"/>
				</g>
			</g>
		</g>
	</g>
</switch>
</svg>
