<?xml version="1.0" encoding="utf-8"?>
<!-- Generator: Adobe Illustrator 21.0.0, SVG Export Plug-In . SVG Version: 6.00 Build 0)  -->
<svg version="1.1" id="Capa_1" xmlns="http://www.w3.org/2000/svg" xmlns:xlink="http://www.w3.org/1999/xlink" x="0px" y="0px"
	 viewBox="0 0 1366 241" style="enable-background:new 0 0 1366 241;" xml:space="preserve">
<style type="text/css">
	.st0{fill:#7777ED;stroke:#FFFFFF;stroke-miterlimit:10;}
	.st1{fill:#FFFFFF;}
</style>
<g>
	
		<ellipse id="97" transform="matrix(1.195156e-03 -1 1 1.195156e-03 1037.4509 1161.9784)" class="st0" cx="1100.4" cy="61.6" rx="11.1" ry="11.1"/>
	<g>
		<g>
			<path class="st1" d="M1103.8,61.5l0,1.5l-3,0l0,2.9l-1.4,0l0-2.9l-2.9,0l0-1.5l2.9,0l0-2.9l1.4,0l0,2.9L1103.8,61.5z"/>
		</g>
	</g>
</g>
<g>
	
		<ellipse id="73" transform="matrix(1.195156e-03 -1 1 1.195156e-03 745.1143 846.6921)" class="st0" cx="796.4" cy="50.3" rx="11.1" ry="11.1"/>
	<g>
		<g>
			<path class="st1" d="M799.8,50.2l0,1.5l-3,0l0,2.9l-1.4,0l0-2.9l-2.9,0l0-1.5l2.9,0l0-2.9l1.4,0l0,2.9L799.8,50.2z"/>
		</g>
	</g>
</g>
<g>
	
		<ellipse id="75" transform="matrix(1.195156e-03 -1 1 1.195156e-03 484.7352 570.4016)" class="st0" cx="527.9" cy="42.5" rx="11.1" ry="11.1"/>
	<g>
		<g>
			<path class="st1" d="M531.3,42.4l0,1.5l-3,0l0,2.9l-1.4,0l0-2.9l-2.9,0l0-1.5l2.9,0l0-2.9l1.4,0l0,2.9L531.3,42.4z"/>
		</g>
	</g>
</g>
<g>
	
		<ellipse id="96" transform="matrix(1.195156e-03 -1 1 1.195156e-03 237.4409 306.4116)" class="st0" cx="272.1" cy="34.3" rx="11.1" ry="11.1"/>
	<g>
		<g>
			<path class="st1" d="M275.5,34.2l0,1.5l-3,0l0,2.9l-1.4,0l0-2.9l-2.9,0l0-1.5l2.9,0l0-2.9l1.4,0l0,2.9L275.5,34.2z"/>
		</g>
	</g>
</g>
</svg>
