<?xml version="1.0" encoding="UTF-8" standalone="no"?>
<svg xmlns="http://www.w3.org/2000/svg" viewBox="0 0 1366 241">
  <style>
    .st0{fill:#7777ed;stroke:#fff;stroke-miterlimit:10}.st1{fill:#fff}.st2{fill:transparent}
  </style>
  <g class="hotspot" id="96">
    <circle class="st0" r="11" cx="272" cy="34"/>
    <path class="st1" d="M277 33v2h-4v4h-2v-4h-4v-2h4v-4h2v4z"/>
    <path class="st2" id="draw-96" d="M133.7 187.2h275.6v-76H299V94.3L271.5 81l-27.6 13.3V111H133.7z"/>
  </g>
  <g class="hotspot" id="75">
    <circle class="st0" r="11" cx="527" cy="42"/>
    <path class="st1" d="M532 41v2h-4v4h-2v-4h-4v-2h4v-4h2v4z"/>
    <path class="st2" id="draw-75" d="M419.2 86.5l1.4 68.2 36 7.7.5 23 32.6.5 38.8-2.7 64.6 6.8 23.5-1-.4-12.1 10.3-3.7-1.3-28.4-6.8-4.5-38-10.4 1-42-39.3-4.1-6.8 19-47.4-30.3-36.6 2.7z"/>
  </g>
  <g class="hotspot" id="73">
    <circle class="st0" r="11" cx="796" cy="49"/>
    <path class="st1" d="M801 48v2h-4v4h-2v-4h-4v-2h4v-4h2v4z"/>
    <path class="st2" id="draw-73" d="M641.7 185.2h312.1v-78.6l-18.4-14.9-18.4 19.7h-61.4l.4-13.6-15.8-15.4-15.8 15.4h-55.1l-15.4-15.4-15.3 15.4.9 13.6h-62l-17.9-19.7-18 15z"/>
  </g>
  <g class="hotspot" id="97">
    <circle class="st0" r="11" cx="1100" cy="60"/>
    <path class="st1" d="M1105 59v2h-4v4h-2v-4h-4v-2h4v-4h2v4z"/>
    <path class="st2" id="draw-97" d="M967.1 185.4l103 2.7 11.8-6.3V152l39.7 1 .5 34.2 9 2.8 106.6-1.9-.4-70.4-68.7-1.8-4-8.2-127.9 1.4-5.4 6.3H967z"/>
  </g>
</svg>