<?xml version="1.0" encoding="utf-8"?>
<!-- Generator: Adobe Illustrator 21.0.0, SVG Export Plug-In . SVG Version: 6.00 Build 0)  -->
<!DOCTYPE svg PUBLIC "-//W3C//DTD SVG 1.1//EN" "http://www.w3.org/Graphics/SVG/1.1/DTD/svg11.dtd">
<svg version="1.1" id="Capa_1" 
	 xmlns="http://www.w3.org/2000/svg" xmlns:xlink="http://www.w3.org/1999/xlink" x="0px" y="0px" viewBox="0 0 1951 313"
	 style="enable-background:new 0 0 1951 313;" xml:space="preserve">
<style type="text/css">
	
		.st0{fill-rule:evenodd;clip-rule:evenodd;fill:none;stroke:#FF7474;stroke-width:2;stroke-linecap:round;stroke-linejoin:round;stroke-miterlimit:10;stroke-dasharray:0,7;}
	.st1{fill:#FF7058;stroke:#FFFFFF;stroke-miterlimit:10;}
	.st2{fill:#FFFFFF;}
</style>
<switch>
	<g>
		<polyline class="st0" points="-3,109 140.5,156.7 256,189 380,171.3 511,158.6 636.6,158.6 763,189 872.1,143.1 997,136.6 
			1121.5,161.1 1215.5,176.4 1321,179 1451.4,154.6 1554,163 1661.2,154.6 1780.5,154.6 1955.3,77 		"/>
		<g>
			
				<ellipse transform="matrix(4.806703e-02 -0.9988 0.9988 4.806703e-02 57.9374 431.7038)" class="st1" cx="255.5" cy="185.5" rx="16.9" ry="16.9"/>
			<g>
				<g>
					<path class="st2" d="M261,184.9l-0.1,2.3l-4.5-0.2l-0.2,4.5l-2.2-0.1l0.2-4.5l-4.5-0.2l0.1-2.3l4.5,0.2l0.2-4.5l2.2,0.1
						l-0.2,4.5L261,184.9z"/>
				</g>
			</g>
		</g>
		<g>
			
				<ellipse transform="matrix(1.195156e-03 -1 1 1.195156e-03 209.4767 552.7744)" class="st1" cx="381.5" cy="171.5" rx="16.9" ry="16.9"/>
			<g>
				<g>
					<path class="st2" d="M386.8,170.6l0,2.3l-4.5,0l0,4.5l-2.2,0l0-4.5l-4.5,0l0-2.3l4.5,0l0-4.5l2.2,0l0,4.5L386.8,170.6z"/>
				</g>
			</g>
		</g>
		<g>
			
				<ellipse transform="matrix(1.195156e-03 -1 1 1.195156e-03 353.3189 672.7886)" class="st1" cx="513.5" cy="159.5" rx="16.9" ry="16.9"/>
			<g>
				<g>
					<path class="st2" d="M518.8,158.6l0,2.3l-4.5,0l0,4.5l-2.2,0l0-4.5l-4.5,0l0-2.3l4.5,0l0-4.5l2.2,0l0,4.5L518.8,158.6z"/>
				</g>
			</g>
		</g>
		<g>
			
				<ellipse transform="matrix(1.195156e-03 -1 1 1.195156e-03 483.1671 796.7921)" class="st1" cx="640.5" cy="156.5" rx="16.9" ry="16.9"/>
			<g>
				<g>
					<path class="st2" d="M645.8,155.6l0,2.3l-4.5,0l0,4.5l-2.2,0l0-4.5l-4.5,0l0-2.3l4.5,0l0-4.5l2.2,0l0,4.5L645.8,155.6z"/>
				</g>
			</g>
		</g>
		<g>
			
				<ellipse transform="matrix(1.195156e-03 -1 1 1.195156e-03 575.0178 954.7526)" class="st1" cx="765.5" cy="189.5" rx="16.9" ry="16.9"/>
			<g>
				<g>
					<path class="st2" d="M770.8,188.6l0,2.3l-4.5,0l0,4.5l-2.2,0l0-4.5l-4.5,0l0-2.3l4.5,0l0-4.5l2.2,0l0,4.5L770.8,188.6z"/>
				</g>
			</g>
		</g>
		<g>
			
				<ellipse transform="matrix(1.195156e-03 -1 1 1.195156e-03 727.8886 1017.8063)" class="st1" cx="873.5" cy="144.5" rx="16.9" ry="16.9"/>
			<g>
				<g>
					<path class="st2" d="M878.8,143.6l0,2.3l-4.5,0l0,4.5l-2.2,0l0-4.5l-4.5,0l0-2.3l4.5,0l0-4.5l2.2,0l0,4.5L878.8,143.6z"/>
				</g>
			</g>
		</g>
		<g>
			
				<ellipse transform="matrix(1.195156e-03 -1 1 1.195156e-03 858.7416 1132.8158)" class="st1" cx="996.5" cy="136.5" rx="16.9" ry="16.9"/>
			<g>
				<g>
					<path class="st2" d="M1001.8,135.6l0,2.3l-4.5,0l0,4.5l-2.2,0l0-4.5l-4.5,0l0-2.3l4.5,0l0-4.5l2.2,0l0,4.5L1001.8,135.6z"/>
				</g>
			</g>
		</g>
		<g>
			
				<ellipse transform="matrix(1.195156e-03 -1 1 1.195156e-03 961.5922 1279.7894)" class="st1" cx="1121.5" cy="158.5" rx="16.9" ry="16.9"/>
			<g>
				<g>
					<path class="st2" d="M1126.8,157.6l0,2.3l-4.5,0l0,4.5l-2.2,0l0-4.5l-4.5,0l0-2.3l4.5,0l0-4.5l2.2,0l0,4.5L1126.8,157.6z"/>
				</g>
			</g>
		</g>
		<g>
			
				<ellipse transform="matrix(1.195156e-03 -1 1 1.195156e-03 1038.4799 1390.769)" class="st1" cx="1215.5" cy="175.5" rx="16.9" ry="16.9"/>
			<g>
				<g>
					<path class="st2" d="M1220.8,174.6l0,2.3l-4.5,0l0,4.5l-2.2,0l0-4.5l-4.5,0l0-2.3l4.5,0l0-4.5l2.2,0l0,4.5L1220.8,174.6z"/>
				</g>
			</g>
		</g>
		<g>
			
				<ellipse transform="matrix(1.195156e-03 -1 1 1.195156e-03 1139.3556 1497.7654)" class="st1" cx="1319.5" cy="178.5" rx="16.9" ry="16.9"/>
			<g>
				<g>
					<path class="st2" d="M1324.8,177.6l0,2.3l-4.5,0l0,4.5l-2.2,0l0-4.5l-4.5,0l0-2.3l4.5,0l0-4.5l2.2,0l0,4.5L1324.8,177.6z"/>
				</g>
			</g>
		</g>
		<g>
			
				<ellipse transform="matrix(1.195156e-03 -1 1 1.195156e-03 1296.1967 1606.7939)" class="st1" cx="1452.5" cy="154.5" rx="16.9" ry="16.9"/>
		</g>
		<g>
			<g>
				<path class="st2" d="M1457.8,153.6l0,2.3l-4.5,0l0,4.5l-2.2,0l0-4.5l-4.5,0l0-2.3l4.5,0l0-4.5l2.2,0l0,4.5L1457.8,153.6z"/>
			</g>
		</g>
		<g>
			
				<ellipse transform="matrix(1.195156e-03 -1 1 1.195156e-03 1388.0784 1712.7855)" class="st1" cx="1551.5" cy="161.5" rx="16.9" ry="16.9"/>
		</g>
		<g>
			<g>
				<path class="st2" d="M1556.8,160.6l0,2.3l-4.5,0l0,4.5l-2.2,0l0-4.5l-4.5,0l0-2.3l4.5,0l0-4.5l2.2,0l0,4.5L1556.8,160.6z"/>
			</g>
		</g>
		<g>
			
				<ellipse transform="matrix(1.195156e-03 -1 1 1.195156e-03 1502.9469 1817.7914)" class="st1" cx="1661.5" cy="156.5" rx="16.9" ry="16.9"/>
			<g>
				<g>
					<path class="st2" d="M1666.8,155.6l0,2.3l-4.5,0l0,4.5l-2.2,0l0-4.5l-4.5,0l0-2.3l4.5,0l0-4.5l2.2,0l0,4.5L1666.8,155.6z"/>
				</g>
			</g>
		</g>
		<g>
			
				<ellipse transform="matrix(1.195156e-03 -1 1 1.195156e-03 1623.8047 1934.7937)" class="st1" cx="1780.5" cy="154.5" rx="16.9" ry="16.9"/>
			<g>
				<g>
					<path class="st2" d="M1785.8,153.6l0,2.3l-4.5,0l0,4.5l-2.2,0l0-4.5l-4.5,0l0-2.3l4.5,0l0-4.5l2.2,0l0,4.5L1785.8,153.6z"/>
				</g>
			</g>
		</g>
		<g>
			
				<ellipse transform="matrix(1.195156e-03 -1 1 1.195156e-03 -10.2389 296.7961)" class="st1" cx="143.5" cy="153.5" rx="16.9" ry="16.9"/>
			<g>
				<g>
					<path class="st2" d="M148.8,152.6l0,2.3l-4.5,0l0,4.5l-2.2,0l0-4.5l-4.5,0l0-2.3l4.5,0l0-4.5l2.2,0l0,4.5L148.8,152.6z"/>
				</g>
			</g>
		</g>
	</g>
</switch>
</svg>
