<?xml version="1.0" encoding="utf-8"?>
<!-- Generator: Adobe Illustrator 21.0.0, SVG Export Plug-In . SVG Version: 6.00 Build 0)  -->
<svg version="1.1" id="Capa_1" xmlns="http://www.w3.org/2000/svg" xmlns:xlink="http://www.w3.org/1999/xlink" x="0px" y="0px"
	 viewBox="0 0 1366 241" style="enable-background:new 0 0 1366 241;" xml:space="preserve">
<style type="text/css">
	.st0{fill:#FF7058;stroke:#FFFFFF;stroke-miterlimit:10;}
	.st1{fill:#FFFFFF;}
</style>
<g>
	
		<ellipse id="17" transform="matrix(1.195156e-03 -1 1 1.195156e-03 7.3225 189.7278)" class="st0" cx="98.6" cy="91.2" rx="11.9" ry="11.9"/>
	<g>
		<g>
			<path class="st1" d="M102.4,90.6l0,1.6l-3.2,0l0,3.1l-1.6,0l0-3.1l-3.2,0l0-1.6l3.2,0l0-3.2l1.6,0l0,3.2L102.4,90.6z"/>
		</g>
	</g>
</g>
<g>
	
		<ellipse id="08" transform="matrix(4.806703e-02 -0.9988 0.9988 4.806703e-02 49.1605 273.8646)" class="st0" cx="168.3" cy="111.1" rx="11.9" ry="11.9"/>
	<g>
		<g>
			<path class="st1" d="M172.2,110.8l-0.1,1.6l-3.2-0.2l-0.2,3.1l-1.6-0.1l0.2-3.1l-3.2-0.2l0.1-1.6l3.2,0.2l0.2-3.2l1.6,0.1
				l-0.2,3.2L172.2,110.8z"/>
		</g>
	</g>
</g>
<g>
	
		<ellipse id="74" transform="matrix(1.195156e-03 -1 1 1.195156e-03 132.2247 351.5825)" class="st0" cx="242.1" cy="109.6" rx="11.9" ry="11.9"/>
	<g>
		<g>
			<path class="st1" d="M245.9,109l0,1.6l-3.2,0l0,3.1l-1.6,0l0-3.1l-3.2,0l0-1.6l3.2,0l0-3.2l1.6,0l0,3.2L245.9,109z"/>
		</g>
	</g>
</g>
<g>
	
		<ellipse id="12" transform="matrix(1.712259e-02 -0.9999 0.9999 1.712259e-02 213.5347 413.2545)" class="st0" cx="317" cy="98" rx="11.9" ry="11.9"/>
	<g>
		<g>
			<path class="st1" d="M320.7,97.4l0,1.6l-3.2-0.1l-0.1,3.1l-1.6,0L316,99l-3.2-0.1l0-1.6l3.2,0.1l0.1-3.2l1.6,0l-0.1,3.2
				L320.7,97.4z"/>
		</g>
	</g>
</g>
<g>
	
		<ellipse id="16" transform="matrix(1.195156e-03 -1 1 1.195156e-03 298.5652 480.0195)" class="st0" cx="389.6" cy="90.5" rx="11.9" ry="11.9"/>
	<g>
		<g>
			<path class="st1" d="M393.3,89.9l0,1.6l-3.2,0l0,3.1l-1.6,0l0-3.1l-3.2,0l0-1.6l3.2,0l0-3.2l1.6,0l0,3.2L393.3,89.9z"/>
		</g>
	</g>
</g>
<g>
	
		<ellipse id="07" transform="matrix(1.195156e-03 -1 1 1.195156e-03 366.4363 587.4855)" class="st0" cx="477.3" cy="110.3" rx="11.9" ry="11.9"/>
	<g>
		<g>
			<path class="st1" d="M481.1,109.7l0,1.6l-3.2,0l0,3.1l-1.6,0l0-3.1l-3.2,0l0-1.6l3.2,0l0-3.2l1.6,0l0,3.2L481.1,109.7z"/>
		</g>
	</g>
</g>
<g>
	
		<ellipse id="07" transform="matrix(1.195156e-03 -1 1 1.195156e-03 463.8369 639.0217)" class="st0" cx="551.8" cy="87.3" rx="11.9" ry="11.9"/>
	<g>
		<g>
			<path class="st1" d="M555.6,86.7l0,1.6l-3.2,0l0,3.1l-1.6,0l0-3.1l-3.2,0l0-1.6l3.2,0l0-3.2l1.6,0l0,3.2L555.6,86.7z"/>
		</g>
	</g>
</g>
<g>
	
		<ellipse id="10" transform="matrix(1.192315e-03 -1 1 1.192315e-03 539.0383 714.3115)" class="st0" cx="627.1" cy="87.3" rx="11.9" ry="12"/>
	<g>
		<g>
			<path class="st1" d="M630.9,86.7l0,1.6l-3.2,0l0,3.1l-1.6,0l0-3.1l-3.2,0l0-1.6l3.2,0l0-3.2l1.6,0l0,3.2L630.9,86.7z"/>
		</g>
	</g>
</g>
<g>
	
		<ellipse id="27" transform="matrix(1.195156e-03 -1 1 1.195156e-03 612.4188 796.2485)" class="st0" cx="704.8" cy="91.5" rx="11.9" ry="11.9"/>
	<g>
		<g>
			<path class="st1" d="M708.6,90.9l0,1.6l-3.2,0l0,3.1l-1.6,0l0-3.1l-3.2,0l0-1.6l3.2,0l0-3.2l1.6,0l0,3.2L708.6,90.9z"/>
		</g>
	</g>
</g>
<g>
	
		<ellipse id="44" transform="matrix(1.195156e-03 -1 1 1.195156e-03 672.3304 884.2318)" class="st0" cx="778.8" cy="105.5" rx="11.9" ry="11.9"/>
	<g>
		<g>
			<path class="st1" d="M782.6,104.9l0,1.6l-3.2,0l0,3.1l-1.6,0l0-3.1l-3.2,0l0-1.6l3.2,0l0-3.2l1.6,0l0,3.2L782.6,104.9z"/>
		</g>
	</g>
</g>
<g>
	
		<ellipse id="02" transform="matrix(1.195156e-03 -1 1 1.195156e-03 755.2336 963.2341)" class="st0" cx="859.8" cy="103.5" rx="11.9" ry="11.9"/>
	<g>
		<g>
			<path class="st1" d="M863.6,102.9l0,1.6l-3.2,0l0,3.1l-1.6,0l0-3.1l-3.2,0l0-1.6l3.2,0l0-3.2l1.6,0l0,3.2L863.6,102.9z"/>
		</g>
	</g>
</g>
<g>
	
		<ellipse id="19" transform="matrix(1.195156e-03 -1 1 1.195156e-03 833.1511 1023.2448)" class="st0" cx="928.8" cy="94.5" rx="11.9" ry="11.9"/>
	<g>
		<g>
			<path class="st1" d="M932.6,93.9l0,1.6l-3.2,0l0,3.1l-1.6,0l0-3.1l-3.2,0l0-1.6l3.2,0l0-3.2l1.6,0l0,3.2L932.6,93.9z"/>
		</g>
	</g>
</g>
<g>
	
		<ellipse id="07" transform="matrix(1.195156e-03 -1 1 1.195156e-03 895.0675 1101.2351)" class="st0" cx="998.8" cy="102.5" rx="11.9" ry="11.9"/>
	<g>
		<g>
			<path class="st1" d="M1002.6,101.9l0,1.6l-3.2,0l0,3.1l-1.6,0l0-3.1l-3.2,0l0-1.6l3.2,0l0-3.2l1.6,0l0,3.2L1002.6,101.9z"/>
		</g>
	</g>
</g>
<g>
	
		<ellipse id="48" transform="matrix(1.195156e-03 -1 1 1.195156e-03 969.9874 1160.2446)" class="st0" cx="1065.8" cy="94.5" rx="11.9" ry="11.9"/>
	<g>
		<g>
			<path class="st1" d="M1069.6,93.9l0,1.6l-3.2,0l0,3.1l-1.6,0l0-3.1l-3.2,0l0-1.6l3.2,0l0-3.2l1.6,0l0,3.2L1069.6,93.9z"/>
		</g>
	</g>
</g>
<g>
	
		<ellipse id="06" transform="matrix(1.195156e-03 -1 1 1.195156e-03 1026.9097 1233.2351)" class="st0" cx="1130.8" cy="102.5" rx="11.9" ry="11.9"/>
	<g>
		<g>
			<path class="st1" d="M1134.6,101.9l0,1.6l-3.2,0l0,3.1l-1.6,0l0-3.1l-3.2,0l0-1.6l3.2,0l0-3.2l1.6,0l0,3.2L1134.6,101.9z"/>
		</g>
	</g>
</g>
<g>
	
		<ellipse id="27" transform="matrix(1.195156e-03 -1 1 1.195156e-03 1092.8416 1281.2457)" class="st0" cx="1187.8" cy="93.5" rx="11.9" ry="11.9"/>
	<g>
		<g>
			<path class="st1" d="M1191.6,92.9l0,1.6l-3.2,0l0,3.1l-1.6,0l0-3.1l-3.2,0l0-1.6l3.2,0l0-3.2l1.6,0l0,3.2L1191.6,92.9z"/>
		</g>
	</g>
</g>
<g>
	
		<ellipse id="51" transform="matrix(1.195156e-03 -1 1 1.195156e-03 1137.7687 1358.2266)" class="st0" cx="1248.8" cy="109.5" rx="11.9" ry="11.9"/>
	<g>
		<g>
			<path class="st1" d="M1252.6,108.9l0,1.6l-3.2,0l0,3.1l-1.6,0l0-3.1l-3.2,0l0-1.6l3.2,0l0-3.2l1.6,0l0,3.2L1252.6,108.9z"/>
		</g>
	</g>
</g>
</svg>
