<?xml version="1.0" encoding="UTF-8" standalone="no"?>
<svg xmlns="http://www.w3.org/2000/svg" width="132" height="55">
  <path fill="#fff" d="M1 18h5.3c7.3 0 10.9 4.2 10.9 10 0 5.9-3.8 10.2-11 10.2H1zm5.1 17.9c6 0 8.2-3.7 8.2-8 0-4.5-2.6-7.6-8.2-7.6H3.8V36zm22.1.7a6.2 6.2 0 0 1-4.3 1.9c-2.7 0-4.7-1.8-4.7-4.6 0-1.9 1-3.2 2.5-3.9a8 8 0 0 1 3.6-.7l2.7-.1v-.8c0-2-1.2-3-3-3-1.7 0-3 .6-4 1.2l-.9-1.9a10.2 10.2 0 0 1 5.3-1.4c3.3 0 5.3 1.6 5.3 5v5.3c0 2.5.1 3.9.3 4.6h-2.3zm-2.5-5.4a6 6 0 0 0-2.6.6c-.7.4-1.1 1.1-1.1 2 0 1.5 1 2.5 2.5 2.5 1.7 0 3-1 3.6-1.7v-3.5zm10 3.8v-9.2h-2.5v-2.2h2.5v-3.3l2.7-.8v4.2h4.3l-.7 2.2h-3.6v8.6c0 1.2.5 1.8 1.4 1.8 1 0 1.8-.4 2.4-.8l.8 1.9a7 7 0 0 1-3.8 1.1c-2.2 0-3.5-1.3-3.5-3.6zm18.1 1.6a6.2 6.2 0 0 1-4.4 1.9 4.4 4.4 0 0 1-4.6-4.6c0-1.9 1-3.2 2.4-3.9 1-.5 2.2-.7 3.7-.7l2.7-.1v-.8c0-2-1.3-3-3-3s-3 .6-4 1.2l-1-1.9a10.2 10.2 0 0 1 5.3-1.4c3.3 0 5.4 1.6 5.4 5v5.3c0 2.5 0 3.9.3 4.6h-2.4zm-2.6-5.4a6 6 0 0 0-2.6.6c-.7.4-1 1.1-1 2 0 1.5.9 2.5 2.4 2.5 1.7 0 3-1 3.6-1.7v-3.5zM75.5 37a12.3 12.3 0 0 1-5.9 1.5c-6.2 0-9.8-4.3-9.8-10.2 0-5.9 4-10.5 10.2-10.5a10.9 10.9 0 0 1 5.1 1v2.6a10.2 10.2 0 0 0-5-1.3c-4.7 0-7.5 3.6-7.5 8 0 4.8 2.8 8 7.3 8a10.2 10.2 0 0 0 4.9-1.2zm3.2-20.6h2.7v9c1.4-1.2 3-2.1 5-2.1 2.2 0 4.4 1.3 4.4 5.2v9.7H88v-8.8c0-2-.6-3.7-2.6-3.7-1.4 0-2.9.9-4.1 2v10.5h-2.7zM94.5 19c0-1 .7-1.8 1.8-1.8 1 0 1.7.8 1.7 1.7a1.8 1.8 0 0 1-1.7 1.8 1.7 1.7 0 0 1-1.8-1.8zm.4 4.7h2.7v14.5H95zm19.2 7.8c0 2.8 1.8 4.8 4.6 4.8 1.4 0 2.7-.4 3.7-1l.8 1.9a9.3 9.3 0 0 1-4.8 1.3c-4.8 0-7-3.6-7-7.7 0-4.5 2.4-7.6 6.2-7.6 3.8 0 6 3 6 7.6v.7zm6.6-2c0-2-1-4-3.2-4-2 0-3.3 1.8-3.3 4z"/>
  <path fill="#fff" d="M107.3.6c-.4.2-.2.3-.3.5-.1.3-.6.1-.4.4l.1 1.2v1l-.1 1.4c0 .3-.3 0-.2.2 0 .3-.1.3.1.3a5.1 4.5 0 0 0-.1 1.1c0 .3.2.5-.1.6V8c0 .2 0 .6-.2.8-.2 0 0 .5-.2.5-.1.4 0 .8-.4 1l.2.7v.4l-.3.2c-.2.6.2 1.2.1 1.8.2.2 0 .4 0 .7-.4 0 .1.6-.2.7-.3.4-.2.7-.4 1 0 .4-.5.6-.3.9-.3.1-.2.6-.4.8 0 .2 0 .2-.1 0 0 .1 0 .7-.3.6-.4-.2 0 .3-.2.4.2.2.2.5.1.8l.3.6v.6c-.2 0 0 .3-.2.2-.2 0-.2.1-.2.3-.1.3 0 .5-.2.7l.1.7c.2 0 .3 0 .1.1-.2.3.4.2.5.1 0-.1 0-.3.3-.2.1.4.4 0 .4-.1 0 .2-.1.3-.4.4-.3.2.2.3.3.2v.5c.1-.4-.6-.3-.2 0h-.1c-.2.2.1.5 0 .6-.2-.2 0 .7-.3.4 0 .2.3.2 0 .3.2.1.3-.1.2.1-.2-.1-.2.2-.2.3-.1 0-.2.2 0 0-.2.3.2.3.3.4.1.2.2-.3.1 0 0 .2 0 .4-.4.5-.1.1-.3 0-.2.3-.2 0 0 .2.1.1.1.2.5.2.2.2-.2-.2-.3-.1-.4 0-.1-.1-.2.7 0 .2.4 0 0 0 0 .2-.2.1-.2.4-.2.6 0-.2.4-.5.2-.2 0 .2-.2.1-.3.4.1 0-.3.2-.1 0 .3-.2 0-.6 0-.3.2.2-.3.1-.1 0h-.2c.4 0 .1-.5.1-.1V27h-.3s-.2-.2-.2.1v.3c-.3-.2-.2.1-.4 0 0 .1.2.1 0 0 0 .2-.2.2-.3.3-.2 0-.3.5 0 .5.3-.1 0-.2 0-.3-.3.1 0 0 0 0 .3 0 .5-.3.5-.2-.2 0 0 .4.1.3 0 .2.5 0 .1 0h.2c.1 0 .3 0 .2.1.2.2.3.2.2.4 0 0-.2 0 0 .1 0-.3-.4 0-.4.2 0-.1 0 .2.3.1 0-.1 0 .1 0 0-.2 0 0 .3-.2.1-.2 0 .1 0-.1-.1 0 0-.2 0 0 .1-.2 0-.3.2 0 .2h.4c.4 0 .2-.5.3-.3-.1.3.2.5.1.4 0 0 .5.1.1 0-.1 0-.2 0-.1.1 0 .3.4 0 .3.2h-.3c-.1-.1-.2 0-.2-.2-.1.2 0 0-.2 0-.4-.1-.2.1-.2.3 0-.2-.3-.5-.3-.2.2-.1 0 .2.2.2 0 .2.4 0 .1.1.2.1.4 0 .2.2.1.2-.2-.2-.3 0-.1.3.2.2.2.3-.2-.1-.3 0-.2.2v.5c.2.4.2 0 .2-.2 0 0 .2-.4.2-.2-.2 0 0 .4 0 .4-.2-.3-.3.3 0 .2 0 .1.3.4 0 .2l-.1-.2c-.3 0-.3.4 0 .3-.4 0-.3.2 0 .2.3-.2 0 .1 0 .1l-.3-.1c0 .2.3.3.3.4l-.3-.1c0-.2-.1 0-.2-.1-.2.2.2.1 0 .2.2.2.4-.2.2.1 0 .2.4-.1.2 0 .1.1.3.3 0 .2.1.9 0 0-.1 0l.1.3c0 .2.4 0 .3-.2.1-.2.3-.2 0 0 .2 0 .3.2.1 0-.2.1 0 .3-.2.3.3.3-.2-.2-.3.1 0 .3.3-.1 0 .2.1.3.2 0 .2.1.2.2.3-.2.3 0s-.2 0 0 .1v.5c0-.2-.3-.5-.2-.2.1 0 0 .2.2.2-.2.2 0 0 0 0 .3 0 0 .2.2.3.2.4-.3-.3-.1 0-.1.2.4.5.2.2v-.1c.1.4.1-.2.4-.2-.3 0-.3.2-.2 0l-.1-.2c-.1-.2.1.1.2.1 0 0 .5.2.3 0 0-.2-.4-.2-.4-.2 0-.1-.3 0 0-.2.1.2.6.2.6.6 0 .2-.4 0-.1.3.2.1-.2.4 0 .4-.1-.1-.5.1-.2 0 .1 0 .3-.3.1-.4 0-.2-.2-.3-.2-.1-.1.3 0 .1.1 0 0 .2 0 .3-.2.2-.2.1.2-.4-.1-.1h-.3c0 .2-.3-.4-.2 0 .2.1 0 .3 0 .4.3 0 0 0 0 .1-.1.1.2.1 0 .2 0 .1.3 0 .3-.2 0 .2.1.2.1 0h.3c-.4-.1 0 .1-.2 0 0 .2-.3.2-.1.4-.2 0-.4-.1 0 0 .1 0 0 .2-.2.2 0 .1.3.2.3 0 0 .3.2-.1 0-.2.2 0 .5-.4.2-.3-.2.4 0-.3 0 0 .2 0 .6-.2.3 0 .1.3.2-.3.4 0 .4-.2.8.1.2.1-.2-.2-.4.1-.5.2 0-.1-.2 0-.2 0 .2-.3-.4 0-.2 0v.4c.3-.1.1 0 0 0 .2.3 0 .1 0 0-.5 0-.2.2 0 .3l.3.2c.4 0-.1-.4-.1-.3 0 .2 0-.1.2-.1 0 0 .2-.1.1 0 .3 0-.4-.1-.2-.2.3 0 .2-.1.4.1l.6-.5s.4.2.1.4c-.1.2-.5.2-.4.5-.2.2-.4.1 0 0 0-.3-.3-.5-.2 0-.2 0-.2 0 0-.1-.2-.4-.6.2-.2.3.2.2.2 0 .4.3.4.2.8 0 .7-.4-.1-.3.2-.7.1-.8.2-.2-.1-.3.1-.3.1.2.2-.1.2 0l.6-.2c.4.1.2-.6.7-.4.2.2.9.2.3 0-.9-.3-1.9-.3-2.8-.3 0-.3-.7-.4-.4-.7.2-.2-.2-.4 0-.5 0-.2 0-.7-.3-.4-.2-.1-.5.3-.5-.1.1-.4-.4-.5-.2-.7l-.1-.6c0-.2.2-.3.4-.3-.2-.2.6-.7.4-.5 0-.3 0-.5.3-.6.1-.4-.4-.5 0-.8 0-.2 0-.3.2-.3 0-.3.3-.1.2-.3-.1 0-.1-.4 0-.4.3-.2 0-.6 0-.7.4-.1 0-.4 0-.5 0-.3.4-.1.3-.3.4-.1 0-.6-.3-.6s-.2-.2 0-.2c.3 0 .6.2.6-.1.3-.3-.7-.2-.5-.3-.2-.2.1-.4 0-.5-.2-.1.2-.3 0-.4-.2 0-.2-.2 0-.2 0-.3-.6-.3-.3-.6V23c0-.1.4 0 .3-.3-.2-.3 0-.7-.1-1.1-.1-.2.2-.4.1-.5v-.3c.2-.1-.2-.6.2-.4l.1-.8c.3 0 .7-.2.4-.4l-.2-1c0-.1.2-.4 0-.5 0 0 0-.3.1-.2 0-.4.4-.2.3-.4.2-.2.4-.2.3-.4l-.1-.6c.3-.2.1-.6.4-.8 0-.2.3 0 .2-.3v-.7c-.1 0-.4-.2-.2-.3v-.5c-.2-.1-.4-.4-.2-.5-.1 0-.3-.3-.2-.6 0-.2.1-.1.2-.2-.2-.2.1-.5.1-.6.2.1.4-.3.2-.3.1-.3-.3-.7.1-.9 0-.3.2-.7.4-.8.3-.3.3-.6.5-.9.3 0 .7-.2.3-.4-.3-.3.3-.5 0-.8-.2-.2 0-.5 0-.6 0 0-.1-.3 0-.4.3-.3 1.2-.3 1.2-1 .4-.5-.2-.4-.6-.5-.1-.2 0-.5-.2-.7-.1-.3-.1-.8-.5-.9.2-.3-.2-.3 0-.5-.3-.2.2-.2 0-.4-.2-.1.4-.3 0-.4-.4-.2-.4-.7-.4-1 0-.1-.4 0-.3-.3l-.1-.2zm-3.5 17.1c-.1.2 0 .1 0 0zm-.4 1.4c0 .1.1 0 0 0zm.7 3.4c0 .2.2.3 0 0zm-.8 0c0 .3-.3.7 0 1 0 .3-.3.4-.3.7h.5c.2 0 0 0 0-.3.3.1.2-.2.2 0-.2-.2 0-.1 0-.2l-.2-.4c.3.2 0-.2.3-.1.2-.1 0-.3 0-.4-.1 0 0-.3-.3-.2 0 .2-.4 0-.1 0h-.1zm1.3.3c-.2.2.2.1 0 0zm-.5.2c-.2 0 0 .2 0 0zm-.5.2c0 .1.4.3.1 0zm0 .2c-.3 0 .2.1 0 0zm.3 0c0 .1.2 0 0 0zm.3.1c0 .2.2.1 0 0zm-.5.3c.3.1 0 0 0 0zm0 .2c-.1.1.1 0 0 0zm-.1 0c0 .2.1 0 0 0zm-.5.2c0 .1 0 .1 0 0zm-.4.2c-.3.1.2.3 0 0zm.7.3s-.4 0-.1.1c.1 0 0-.1.1 0 .2 0 0-.1 0-.1zm.6.1c-.2.1.2.2 0 0zm-.4 0c-.1.2.2.4 0 .1zm-.6.1s.2 0 0 0zm.4.1zm-.4 0c-.1 0 .2.2 0 0zm.2 0c0 .1 0 .4.1.2.3 0 0 0 0-.1zm.4.2c-.2 0 0 0 0 0zm-.6 0c-.2 0 .2 0 0 0zm.5 0c-.4 0 0 .2 0 0zm.5 0c-.2.2.2.2 0 0zm-.8 0c0 .3.4.2 0 0zm.4 0c-.2.2 0 .3 0 0zm.6 0c0 .3 0 0-.2.2.2.2-.1 0 0 .2-.2-.2-.2.3 0 .2-.1 0-.2.1 0 .1.3 0 .3-.2.3-.3.4-.2 0-.3 0-.2zm-.8.1c0 .2.2.1 0 0zm-.4 0c-.2 0-.1.3 0 .2.1 0 .2-.1 0-.1zm.2 0c0 .3.4.2 0 0zm0 .2c-.5 0 .2.1 0 0zm.4 0c-.3 0 0 .3 0 .2v-.2zm-1 0c-.1.3.2.1 0 0zm.5 0c-.2.1-.1.2 0 .3.3-.1.5-.2 0-.2zm-.3.1c-.2.1.3 0 0 0zm0 .1c0 .1.4.2.2 0h-.1zm.8 0c-.3.1.2.2 0 0zm-1.3 0c-.2.3.3.2 0 0zm1.1 0v.2c.2.2 0-.1 0-.1zm0 0c-.5 0 0 .2 0 0zm-.2.2c-.4.1.2 0 0 0 .3.1 0 0 0 0zm.2.1c-.2 0-.4.2-.2.2 0 0 .5.3.4 0 0-.1 0-.2-.2-.2zm-.4.2c-.1.3.2 0 0 0zm.2 0c-.3.2.5.3.2 0 0 .2-.1 0-.2 0zm-.3.1c-.2 0 .3.3 0 0zm.5.1c-.3.1.4 0 0 0zm-.5 0c-.2.2 0 .4 0 0zm.4 0c-.2.3 0 .1.1.2.2-.1 0 0-.2-.1zm.3.1c-.2 0 0 .5 0 .3 0 0 .2-.2 0-.3zm-.6 0v.3c.1 0 .2-.2 0-.3zm.3.1c-.3.2.4.3 0 0zm-.5 0c-.3.3.2.3 0 0zm-.3 0c0 .2.4.2 0 0zm.8.2c-.1.2.1.2 0 0zm.3.1c-.3 0-.2.3 0 0 0 .1 0 0 0 0zm-1 0c-.1 0-.2 0-.1.1-.4 0 0 .2 0 .2-.4 0 .3 0 .2-.3h-.1zm1 .1c-.3.2.1.2 0 0zm-.2.2c-.2.1.3.2.1 0zm-1.1.7c-.4 0 .2.2 0 0zm.9.4c-.2.2.3 0 0 0zm-.2 0c-.3.1 0 .2 0 0zm-.6.7c-.1.2.4.2 0 0zm0 0c-.5.1-.2.4-.2.2.4 0 0 0 .1-.2zm.3.2c-.1.2.3 0 0 0zm.4 0s-.4 0 0 .2a2 1.7 0 0 1 .4 0c0-.2-.3-.1-.4-.2zm-.5 0c-.1 0-.6.2-.3.2 0 0 .5.3.3 0v-.2zm-.5.2c-.1 0-.3.2-.1.3 0 0 0 .1 0 0 .2 0-.2.2 0 .2.3-.2.1.2.2.3.2 0 .1-.3 0-.4zm.1 0c.1.2 0 .4.2.5.4-.1.1-.5-.1-.4zm.6.1v.3c.3 0 .1-.2 0-.3zm-.1 0c-.2.2 0 .6-.1.4-.4 0 0 .2.1.3.3 0 0-.2 0-.2a1.2 1 0 0 0 0-.4zm.3.2c-.3 0 .2.3 0 .1zm.1.1c.2.3 0 0 0 0zm-.2 0c-.1.2.4.2 0 0zm-.8.1c-.1 0-.4 0-.2.2.1 0-.2.2 0 .1.3 0 .2-.3.2-.3zm0 .2c-.2 0-.4.3 0 .2 0 0 .1 0 0-.2zm.2 0c-.2.2 0 .4 0 0zm.1 0c-.1.3.3 0 .1 0zm.3 0c0 .2-.3.2-.2.3-.2 0 0 0 0 0v.3c0 .1 0 .5-.1.1 0 .1-.3.1 0 .2-.2-.1-.3-.1-.1 0 0 .3-.4-.3-.2 0v.3c.1.1.3.5.3.2v-.1c0-.2 0-.3.1-.2.2 0 0-.2.2-.2v.1c-.3.2.1.2 0 .2-.2 0-.2.3-.2.2l.2.1c-.3 0-.2.1 0 0 0 0-.2.2 0 .2l.1-.1.1-.1v-.3c-.2.2 0 0 0-.1.1-.3 0-.7 0-.8 0-.4-.2.1-.1 0l-.1-.2zm-.6.2c0 .2.2 0 .2.2l-.2-.2zm0 0c-.2.3 0 0-.2.1-.2.3.2 0 0 .2h.3l-.1-.1zm0 .3l-.2.2c.1.2.1-.2.2 0 .1 0 0-.2 0-.2zm.2 0c-.1.2 0 0 .1.2.2.1.1-.3 0-.2zm-.4.4c0 .1.2.3.1 0zm1 0c0 .3.3.4 0 0zm-1 .3s.2.1 0 .2c0 .2.3-.3.2.1 0 0 .2.1.1-.1l-.2-.2zm.2.5c-.2.1.4.2.1.3-.2 0 .1-.2-.1-.1v.1c.2 0 .2.3 0 .2.2-.2.5-.2.5-.4 0 0-.3.1-.1 0-.2 0-.2-.2-.3-.1zm.4.3c-.5.3 0 .4 0 0zm.2.1c-.2.2.2.2.1 0zm.1 0c-.3.2.3.2 0 .3 0 .1.2.3.3.2l-.1-.1c.2 0-.3-.3-.1-.3zm-.7.1l-.1.3.1.1c.2 0 0-.3.2-.2.2-.2 0 0-.2-.2zm.6 0c0 .3.2 0 0 0zm-.3.3v.1c.1-.1 0-.1 0-.1zm.2 0c-.1 0 0 .2 0 .2-.3 0 .3 0 0 0v-.2zm.1 0v.3c-.2-.2-.4 0-.1 0-.1.4.2 0 0 .2 0 0 .3-.3.4 0 0-.1 0-.4-.3-.4zm.3.3s.1.6.1.2V33zm-.1.1c-.4.2.3.3 0 .1-.2 0 .1 0 0 0zm-.4.1c-.2.2.2 0 0 0zm.2.1c-.2.1-.2.3-.1.2-.4.2.2.2 0 0 0 0 .3.2.2 0-.1 0 .2-.1-.1-.2zm.8 0c-.1.2-.1.2 0 .2v-.1zm-1.2 0a2.4 2 0 0 0-.2.6c.2 0 .2-.3.2-.2.2 0 .1-.3 0-.2 0 .1 0 0 0 0zm.9.2c-.3 0 .2.3 0 0zm-.2 0c-.1.2.2 0 0 0zm-.5.2c-.2.1.1.1 0 0zm.7 0c0 .2-.3.3.1.4v-.3zm-.5 0c0 .1 0 .1 0 0zm.3 0c-.1.2 0 .1 0 0zm-.2.1s.1.1 0 0zm-.3 0c0 .1.2.4 0 .4v.1c.1-.2.2-.4 0-.4zm.9.1c0 .2.2.2 0 0zm-.5 0c0 .2.2.5.3.3l-.3-.2zm-.5 0c-.3.4.1.3 0 0zm1 .2c-.2 0 .3.4.2 0 0 0-.1.2-.2 0zm-.7 0l-.1.4c.1-.1 0-.3.2-.4h-.1zm.6.1c-.2.2.1.2.3.4l-.3-.4zm-.4 0c-.3.2-.2.4 0 0zm0 .2s.2 0 0 0zm-.1 0c-.4.2 0 .3 0 0zm.2 0c-.2.2.3.1.1.2.2 0-.1.1.1.2.3 0 0-.2-.2-.3zm.3.1c0 .2.2.2.2.3l-.2-.3zm-.8 0c0 .2.2.4.3.3.1-.3-.2-.1-.3-.2zm.4.2c-.1.2.1.3 0 0zm.6.1c-.3 0-.1.2-.4.4.2 0 .4-.3.3 0 0 .2.1-.2.2-.2v-.2zm-.7.1s.2.1 0 0zm4.6 0c-.3.1-.1.5-.5.5-.3-.3-.5 0-.3 0 .3-.1 0 .5 0 .2-.2 0-.2.5 0 .6.2 0 .9-.4.9 0-.3.3-1 .3-.7.7.1.4.8.3 1 .7h-.3c-.2.4-.1 0 0 0-.2-.4-.3-.2-.3-.1-.1-.3-.3-.2-.1 0 0 .2-.1 0 0 0-.2 0-.2-.3-.4-.3 0 .2.2.4-.1.2-.2-.2-.6-.4-.5-.2.2 0 .3.2.5.4l-.2-.1c-.2-.2 0 .4-.2.2-.2 0 .3-.5 0-.3-.2-.2-.1.3-.4.1.2.2-.4-.3-.1 0h-.3c.3.2-.2-.2-.1 0 0 0 .3.3 0 .1-.2-.1-.2 0-.2 0 .2 0 0 .3.2.2 0-.2 0 0 .1-.1 0 .2.1 0 .1.1l.1-.1c0-.2.3 0 .1.1h.3c0 .2 0 .1 0 0 .2 0 0 .2.3 0s-.1.3-.1.2c0-.1.4.1.4-.1.1-.2-.1.3.1 0 0 0 .2.2.2 0 0 .3.2 0 .2 0 0 .2 0-.2 0 0s.8.4.9.2c-.5-.3.2.1 0-.1v-2.3c0-.2.1-.9-.3-.5-.2.1-.2-.2-.3-.3zm-4.5 0c-.1.2.3.3 0 0zm1 .3s0 .1 0 0zm-1.2 0l.2.4c.1 0 .1.2.2 0l.4.2s.2 0 .2.2h.2c.3.1 0 0 0 0 0-.2-.2-.2-.1 0 0-.2-.2-.4-.2-.2l-.3-.2h-.3c0-.2-.1-.2-.3-.4zm1 .2s-.4.1 0 0c.1 0 .1.3.2 0h-.2zm2.6 0c-.3 0 0 .2 0 0zm-3 .5c-.4.2 0 .1 0 0zm.8.2c-.2 0 .2.3-.1.1-.3 0 0 .4.2.2.1 0-.2.2-.3 0-.2 0-.3 0-.1.1-.2.2.3-.1.2.2-.1 0 0 .1 0 .2.2.1 0 0 .1-.2h.3c.2 0 0 .2 0 .2 0 .1-.3.1 0 .2 0 0 .1-.3.2 0 0-.4.1 0 .2-.2-.2 0 0-.3 0-.2.2.1.1-.2 0-.2-.2.2 0-.2-.2-.1-.2-.3 0 .3-.1 0-.2-.2-.2-.2-.2 0V36c0-.2-.1.2-.1 0zm-.4 0c0 .2 0 .1-.2 0 .1.2.4.3.3.1.3 0-.3-.1-.1 0zm-.3 0c0 .3 0 .3.2.2l-.2-.1zm3 .3c-.2 0-.2.2-.1.3-.5-.1-.1.6 0 .5 0-.2-.2-.5.2-.2v-.7zm-1.3.3c0 .1 0 .3-.2.1 0 .3 0 .2.1.2-.1.1.3.1 0 .3h.3c-.2-.2-.2-.6 0-.2.2 0 0 0 0-.2 0 .1.1-.3 0 0 0 0 0-.2-.2-.2zm.3.1v.4c.1-.1 0 .2.1 0s0 0 .1 0h.2c-.2 0-.1.2 0 .1.2.2 0 0 .1 0 0 0 .1-.2 0-.2.1-.3-.1.1-.1 0 0 .3-.1-.5-.2 0 0-.4 0 0-.2-.3zm-1.5.1c-.2.1 0 .1.1.2l-.1-.2zm2.7 0c-.5 0 .1.4 0 0zm-1.8 0c-.1.2.1.2-.2.3.1.2.4 0 .2-.2zm1.6.2c0 .2.5.1.1 0zm-1.7.2c-.2 0 0 0 0 0 .2 0 0 0 0 0zm-.5.2c-.2 0 .1.1 0 0zm.8.3s.1 0 0 .1c.2 0 0-.1 0-.1zm.6.2c-.1.1 0 .1 0 .2.1-.2.3 0 .3 0 .3 0-.1-.2-.3-.2zm.7 0c-.5.2.6 0 0 0zm.8 0c0 .1 0 .2-.1 0v.3l.6-.1-.5-.1zm-.5.1c-.3 0-.3.1-.4 0 0 0-.3 0-.2.1-.2.1.2.1.2.2 0 0 .2-.2.2 0s.3 0 .2 0c-.3-.1.1 0 0 0l-.2-.1c-.5 0 .3 0 .2-.2zm2 0c-.3 0-.3 0-.1.2-.1.3.1.3.2.2.1.1.1.2.4 0 0 .2.4.2.4-.1-.1-.4-.5-.2-.8-.3zm-.4 0l-.8.2c.1 0-.2-.1-.1.2 0-.3-.5-.2-.4 0 .2 0 0 .2.2 0 .4 0-.1 0 .2.1-.4 0 0 .2 0 .1 0 0 0 .3.2.1 0 .2.3 0 0 0 .1-.1-.2 0-.2-.2.4 0 0-.2.2-.1 0-.1.2.3.2 0 0 .3.3-.1.2 0-.2.4 0 .4 0 .3-.3 0 .1.3 0 0l.3.1c.2 0 .4.2.3.2.1.2.2 0 0-.2 0 0-.3-.1-.1-.1l-.3-.1c-.3-.2.3.1.3-.1 0-.1-.6 0-.7-.4 0 .2.5.4.4.1.1.2.2 0 .2 0l-.1-.2zm1.3.1c0 .3.4.1 0 0zm.4.3c-.4.2.3 0 0 0zm-.4 0c-.2.3.4.1 0 0zm-2.7.1c0 .2 0 .1 0 0zm.2 0c0 .3.3 0 0 0zm2 .3c-.2.1 0 .3 0 0zm.2.1c0 .2 0 .1-.2.2.1.1.4.1.2 0v-.2zm.1.3c-.1 0 .2 0 0 0zm-.3 0c0 .1-.5 0-.2.2 0-.2.2 0 .2 0s.2-.2 0-.2zm.4 0c-.1.2.1.3 0 0zm-.2 0c0 .2.3.2 0 0zm-5.3-1.3c-.1 0-.1 0 0 0zm-.2 0zm.1.1h-.3v.1h-.1v.1h-.2l-.1.1v.2s.1 0 0 0h-.4l.6 1.2.3-.9-.1-.1v-.3l.1-.1V38h.2zm-.3 0zm-.2.2z"/>
  <path fill="#fff" d="M80.1 8.3l-.1.3v.1h.1c.1 0 .2-.2.3-.1l.1-.1h-.1zm15.7 2l-.1.1-.1.1h.5v-.1H96l-.2-.1zm-.3.3zm-.3 0l-.2.1.1.2h.1v-.1zm22 33.2c0 1.3-1 2.2-2.2 2.2a2 2 0 0 1-1.8-1v1h-.4v-6h.4v2.7c.4-.6 1-1 1.8-1a2.1 2.1 0 0 1 2.2 2zm-.4 0A1.8 1.8 0 0 0 115 42a1.8 1.8 0 0 0-1.8 1.8 1.8 1.8 0 0 0 1.8 1.8 1.8 1.8 0 0 0 1.8-1.8zm5.8 0v.2h-3.8a1.8 1.8 0 0 0 1.8 1.6c.7 0 1.2-.3 1.4-.8l.4.3a2.1 2.1 0 0 1-1.8.9 2.1 2.1 0 0 1-2.2-2.2 2.1 2.1 0 0 1 2.1-2.2c1.3 0 2 1 2 2.2zm-3.8-.2h3.4c-.1-1-.8-1.6-1.7-1.6a1.7 1.7 0 0 0-1.7 1.6zm6-1.5v2.7c0 .8.4.8 1.3.7v.4c-1.1.2-1.7-.1-1.7-1V42h-1v-.4h1v-1l.4-.2v1.2h1.2v.4zm6.5-.4v4.2h-.4v-1c-.3.7-1 1.1-1.8 1.1a2.2 2.2 0 0 1-2.2-2.2c0-1.2 1-2.2 2.2-2.2a2 2 0 0 1 1.8 1v-1zm-.4 2a1.8 1.8 0 0 0-1.8-1.7 1.8 1.8 0 0 0-1.8 1.8 1.8 1.8 0 0 0 1.8 1.8 1.8 1.8 0 0 0 1.8-1.8z"/>
</svg>