<?xml version="1.0" encoding="UTF-8"?>
<svg width="131" height="46" version="1.1" xmlns="http://www.w3.org/2000/svg" xmlns:cc="http://creativecommons.org/ns#" xmlns:dc="http://purl.org/dc/elements/1.1/">
 <g transform="translate(-8.6857 .034526)" fill="#fff">
  <g transform="matrix(.35006 0 0 .35006 4.8 -3.6)">
   <path class="st0" d="m11.1 61.5h15.2c20.7 0 31 12 31 28.6 0 16.8-10.8 29.2-31.5 29.2h-14.7zm14.7 51.2c17.2 0 23.3-10.4 23.3-22.8 0-12.8-7.5-21.7-23.3-21.7h-6.8v44.5z"/>
   <path class="st0" d="m88.8 114.8c-3.2 3-7.2 5.3-12.4 5.3-7.6 0-13.3-5-13.3-13 0-5.5 2.8-9.2 7.1-11.2 2.9-1.4 6.3-1.9 10.4-2.1l7.7-0.3v-2.2c0-5.9-3.6-8.4-8.6-8.4-4.8 0-8.4 1.5-11.3 3.2l-2.7-5.3a29 29 0 0 1 15-4.1c9.4 0 15.3 4.5 15.3 14.5v15.1c0 7.1 0.3 10.9 0.8 13h-6.7zm-7.2-15.4a17 17 0 0 0-7.3 1.5c-2.2 1.2-3.2 3.3-3.2 5.9 0 4.3 2.8 7.1 7.2 7.1 4.8 0 8.3-2.9 10.1-4.8v-10z"/>
   <path class="st0" d="m110.2 110v-26h-7.2v-6.3h7.1v-9.5l7.7-2.4v12h12.5l-2.1 6.3h-10.4v24.5c0 3.7 1.5 5.3 4.2 5.3s5-1.2 6.7-2.2l2.5 5.3a19.8 19.8 0 0 1-10.9 3.2c-6.3 0-10.1-3.7-10.1-10.2z"/>
   <path class="st0" d="m161.8 114.8c-3.2 3-7.2 5.3-12.4 5.3-7.6 0-13.3-5-13.3-13 0-5.5 2.8-9.2 7.1-11.2 2.9-1.4 6.3-1.9 10.4-2.1l7.7-0.3v-2.2c0-5.9-3.6-8.4-8.6-8.4-4.8 0-8.4 1.5-11.3 3.2l-2.7-5.3a29 29 0 0 1 15-4.1c9.4 0 15.3 4.5 15.3 14.5v15.1c0 7.1 0.3 10.9 0.8 13h-6.7zm-7.3-15.4a17 17 0 0 0-7.3 1.5c-2.2 1.2-3.2 3.3-3.2 5.9 0 4.3 2.8 7.1 7.2 7.1 4.8 0 8.3-2.9 10.1-4.8v-10z"/>
   <path class="st0" d="m224 116a35.2 35.2 0 0 1-16.9 4.2c-17.7 0-28.1-12.2-28.1-29.2 0-16.8 11.7-30.1 29.3-30.1a31 31 0 0 1 14.5 3.1v7.3a29.2 29.2 0 0 0-14.4-3.7c-13.2 0-21.2 10.4-21.2 23.1 0 13.5 8 22.8 20.7 22.8a29 29 0 0 0 13.9-3.7z"/>
   <path class="st0" d="m233 57.1h7.7v25.6c4.1-3.5 8.8-6 14.1-6 6.5 0 12.7 3.9 12.7 14.8v27.9h-7.7v-25.3c0-5.9-1.5-10.4-7.2-10.4-4.2 0-8.3 2.4-11.9 5.6v30.1h-7.7z"/>
   <path class="st0" d="m278.3 64.3c0-2.7 2-4.9 4.9-4.9 3 0 5.1 2.1 5.1 4.9a5 5 0 0 1-5.1 5 4.8 4.8 0 0 1-4.9-5zm1.1 13.5h7.7v41.5h-7.7z"/>
   <path class="st0" d="m334.3 100.3c0.1 7.8 4.9 13.6 13.1 13.6 4 0 7.5-1.2 10.4-2.8l2.4 5.3a26.7 26.7 0 0 1-13.6 3.7c-13.8 0-20.1-10.1-20.1-22 0-12.7 6.9-21.5 17.6-21.5 10.9 0 17.1 8.4 17.1 21.6v1.9zm18.8-5.9c-0.1-5.8-2.9-11.6-9.1-11.6-6 0-9.6 5.3-9.6 11.6z"/>
  </g>
  <g transform="matrix(.36422 0 0 .35006 -1.8 -2.8)">
   <path d="m321.2 8c-0.9 0.3-0.6 0.6-0.8 1.4-0.3 0.7-1.5 0.2-1 1-0.2 1.3 0.4 2.4 0.4 3.7-0.2 1-0.2 1.9 0.1 2.8 0 1.3-0.5 2.7-0.5 4-0.2 0.8-0.7 0-0.6 0.7-0.1 0.7-0.2 0.9 0.4 0.8a13 13 0 0 0-0.4 3.2c0.3 0.7 0.5 1.5-0.2 1.8-0.3 0.6 0 1 0 1.7-0.1 0.6-0.1 1.7-0.5 2.3-0.4 0.1 0.2 1.4-0.4 1.5-0.4 1-0.2 2.2-1 3-0.2 0.6 0.5 1 0.4 1.8 0 0.4 0.1 1-0.2 1.1 0.2 0.4-0.3 0.8-0.5 0.6-0.5 1.8 0.4 3.6 0.3 5.2 0.4 0.8 0 1.4-0.2 2.1-0.9 0.3 0.5 1.7-0.5 2.1-0.6 1-0.3 2-0.9 3 0.1 1-1.3 1.5-0.8 2.4-0.8 0.5-0.5 1.8-1 2.3 0.2 0.8-0.2 0.7-0.3 0.3-0.1 0.2 0 1.9-0.7 1.5-0.9-0.4 0 0.8-0.5 1.2 0.5 0.7 0.5 1.6 0.3 2.4l0.6 1.7c0.2 0.5 0.2 1 0 1.6-0.5 0.1 0 1.1-0.4 0.7-0.5 0.2-0.6 0.4-0.5 0.8-0.3 0.8-0.1 1.5-0.5 2.2-0.1 0.4 0 1.6 0.3 2 0.5 0.2 0.8-0.1 0.2 0.3-0.4 0.7 1 0.5 1.3 0.3 0-0.4 0.2-1 0.8-0.6 0.3 1.2 1-0.1 1-0.5 0.1 0.8-0.3 1-1 1.2-0.8 0.6 0.4 1 0.6 0.6v1.5c0.4-1.2-1.4-0.8-0.5-0.2 0.3 0.5 0.5 0.5-0.2 0.3-0.5 0.5 0.3 1.4 0 1.8-0.5-0.7-0.1 2-0.7 1-0.1 0.6 0.7 0.5 0.1 1 0.4 0.3 0.6-0.4 0.5 0.3-0.5-0.5-0.6 0.5-0.7 0.8-0.3-0.2-0.4 0.6 0 0.2-0.4 0.5 0.7 0.5 0.8 1 0.3 0.5 0.5-1 0.4 0.1-0.3 0.5-0.2 1-1 1.3-0.4 0.3-1 0.2-0.6 0.8-0.6 0.3 0 0.5 0.3 0.4 0.2 0.4 1.3 0.5 0.4 0.5-0.4-0.5-0.8-0.4-0.9 0-0.4-0.3-0.6 1.9 0 0.7 1 0 0 0-0.3 0.6-0.2 0.3-0.2 1-0.3 1.6 0.2-0.5 1.1-1.5 0.4-0.6 0 0.7-0.3 0.4-0.6 1.1 0.3 0-0.8 0.7-0.3 0 0.8-0.4-0.2-1.6-0.2-0.9 0.7 0.6-0.5 0.4-0.1 0-0.8 0.3-1.4-0.1-0.4 0 0.9 0 0.3-1.3 0.2-0.3-0.2-0.2 0.2-0.6 0-0.7 0-0.3-1.2-0.3-0.7-0.3v0.4c-0.3-0.3-0.6-0.6-0.7 0.2 0 0.1-0.2 0.5-0.1 0.7-0.5-0.4-0.2 0.4-0.7 0-0.1 0.5 0.3 0.5-0.2 0.3 0 0.3-0.5 0.3-0.6 0.7-0.6 0-0.8 1.3 0 1.4 0.6-0.3-0.2-0.5 0-0.7-0.7 0.3-0.3-0.1 0.1-0.3 0.5 0.2 1-0.6 1-0.5-0.5 0.3 0 1.2 0.4 1 0.2 0.6 1.2 0.1 0.3 0.2 0.6-0.5 0.2-0.3 0.5-0.3s0.7 0.3 0.5 0.4c0.4 0.4 0.6 0.5 0.5 1.1 0.1-0.1-0.5-0.2-0.3 0.4 0-1-0.9 0-0.8 0.4 0.2-0.3 0 0.7 0.7 0.4 0.2-0.4 0.3 0.4 0 0.1-0.3 0.1 0 0.7-0.4 0.3-0.5 0 0.3-0.3-0.3-0.5-0.1 0.1-0.4 0-0.2 0.5-0.4-0.4-0.5 0.4 0 0.3s0.6 0 1.2 0.2c1 0.2 0.5-1.6 0.8-0.8-0.3 0.6 0.4 1.2 0.3 1-0.1 0.2 1.3 0.4 0.3 0.3-0.4-0.3-0.7-0.4-0.4 0.1 0.1 0.8 1 0 0.7 0.4-0.2 0.1-0.8 0.5-0.7 0-0.3-0.3-0.5 0-0.4-0.4-0.3 0.4-0.2-0.1-0.6 0-0.9-0.5-0.5 0.3-0.4 0.7 0-0.4-0.8-1.4-0.9-0.5 0.5-0.4 0.1 0.5 0.7 0.6 0 0.5 0.8 0 0.2 0.3 0.5 0.3 0.9 0 0.4 0.6 0.3 0.6-0.5-0.6-0.7 0-0.4 0.7 0.5 0.6 0.6 0.7-0.6-0.2-1 0.3-0.7 0.7-0.3 0.4 0.1 0.9 0 1.6 0.5 1 0.6-0.4 0.5-0.7 0.2 0 0.5-1.1 0.7-0.5-0.7-0.3 0 1.2-0.1 1-0.5-0.9-0.8 1 0 0.6 0 0.4 0.8 1.2 0.2 0.6-0.4-0.6-0.5-0.3-0.5-0.5-0.8-0.2-0.8 1 0 0.7-1 0-0.6 0.7 0 0.8 0.7-0.7-0.2 0.2 0.2 0.2 0.4 0.3-0.7-0.2-0.9-0.4-0.1 0.7 0.7 1 0.8 1.2 0.5 0.2-0.7-0.1-0.7-0.3 0-0.6-0.5 0-0.6-0.3-0.6 0.6 0.4 0.4 0.2 0.8 0.2 0.4 0.7-0.6 0.4 0.2 0.1 0.4 0.9-0.4 0.4 0.2 0.3 0.1 0.8 0.7 0 0.2 0.3 2.6 0.2 0.3-0.3 0 0.1 0.4 0.2 0.9 0.4 0.9 0 0.8 0.9 0 0.7-0.6 0.2-0.6 0.7-0.6 0 0 0.5 0.2 0.8 0.6 0.2 0.3-0.5 0.1 0.1 0.8-0.4 0.6 0.6 1-0.6-0.4-0.9 0.4 0 0.8 0.8-0.4 0.2 0.5 0.1 1 0.4-0.2 0.4 0.4 0.4 0.5 0.6-0.7 0.7 0 0.2 0.6-0.4-0.2-0.1 0.3 0.1 0.8 0.3 0.6 0.2 1.3 0-0.6-0.9-1.3-0.6-0.4 0.3 0-0.2 0.6 0.4 0.4-0.4 0.6 0.3 0.3 0.3 0.3 0.5-0.3-0.2 0.3 0.3 0.7 0.4 1.2-0.7-1-0.3 0-0.3 0.4 1 1.5 0.6 0.4-0.1-1.2-0.1-1.6 0.1-0.2 0.2 1.2 0.2-0.4 0.8-0.4-0.6-0.1-0.6 0.5-0.3-0.3l-0.4-0.4c-0.3-0.5 0.3 0.3 0.6 0.3 0 0.2 1.2 0.5 0.8 0-0.2-0.6-1.2-0.7-1-0.7 0-0.3-1 0 0-0.5 0.2 0.7 1.5 0.7 1.3 1.7 0.2 0.5-0.9 0-0.2 0.8 0.6 0.5-0.4 1.3 0 1.3-0.3-0.4-1.2 0.3-0.5-0.2 0.3 0 0.8-0.8 0.4-1-0.2-0.6-0.6-0.7-0.7-0.3-0.2 1 0.3 0.4 0.4 0.2-0.2 0.5-0.3 0.7-0.6 0.4-0.4 0.4 0.5-1-0.3-0.3-0.1 0.4-0.9 0.1-0.8 0.1-0.1 0.5-0.7-1.1-0.4 0 0.4 0.3 0.2 0.8 0 1 0.7 0 0 0.3 0.2 0.5-0.5 0.3 0.3 0.3-0.2 0.6 0.2 0.2 0.7-0.3 0.7-0.6 0.1 0.4 0.4 0.5 0.4-0.2-0.3-0.3 0.4 0 0.7 0-1-0.3 0 0.4-0.6 0.2 0 0.4-0.6 0.6-0.2 0.9-0.5 0-1-0.2-0.2 0.3 0.6 0 0 0.3-0.2 0.4-0.2 0.3 0.8 0.5 0.6 0.2 0.2 0.6 0.7-0.5 0.3-0.8 0.4 0 1.1-1 0.3-0.8-0.4 1.1 0-0.8 0.2-0.2 0.4 0 1.3-0.4 0.6 0 0.3 0.9 0.5-0.8 1 0 0.9-0.3 2 0.5 0.5 0.5-0.5-0.5-1.1 0.3-1.4 0.6-0.1-0.4-0.5-0.3-0.5 0 0.7-0.9-0.9-0.2-0.5 0.2 0.1 0.5-0.1 0.6 0.2 0.9 0.6-0.3 0.2 0.1 0.1 0.2 0.4 0.6 0 0.2-0.3-0.1-1.3-0.2-0.5 0.4 0.2 0.8l0.7 0.6c0.9 0-0.3-1.2-0.3-0.9 0.2 0.5 0-0.3 0.4-0.3-0.1-0.2 0.5-0.3 0.4-0.2 0.6 0.2-1-0.1-0.6-0.3 0.7 0 0.6-0.4 1 0.2 0.5-0.5 1.4-1 1.6-1.4 0.2 0 1 0.4 0.3 1-0.4 0.6-1.4 0.6-1 1.6-0.5 0.6-1 0.3-0.2 0 0.3-0.8-0.6-1.4-0.4-0.3-0.6 0.3-0.5 0.1-0.2-0.1-0.4-1.2-1.3 0.6-0.3 1 0.5 0.5 0.6 0 1.1 0.7 0.9 0.6 2 0.1 1.8-1-0.4-0.9 0.4-2 0.2-2.5 0.5-0.4-0.4-0.6 0.3-0.6 0.2 0.3 0.5-0.5 0.4 0 0.6-0.3 1-0.7 1.6-0.8 1 0.4 0.5-1.6 1.6-1 0.5 0.6 2.3 0.4 0.8 0-2.2-1-4.7-0.9-7.1-0.9 0-0.9-1.6-1.2-1-2 0.5-0.6-0.5-1.1 0.2-1.5 0-0.7 0-2-1-1.3-0.5-0.3-1.2 1-1.3-0.3 0.4-1-0.8-1.3-0.5-2-0.2-0.5 0.2-1.1-0.2-1.6 0.1-0.7 0.5-0.9 1.1-1-0.5-0.5 1.5-1.9 1-1.5 0-0.7 0.2-1.4 0.8-1.7 0.2-1-1-1.3-0.2-2.2 0.2-0.5 0-0.8 0.6-1 0-0.7 0.7-0.3 0.5-0.9-0.2-0.1-0.3-1 0.2-1 0.6-0.5 0-1.7-0.2-2.1 1-0.3 0.2-1 0.3-1.5-0.2-0.7 0.8-0.3 0.6-0.9 1-0.3-0.2-1.6-0.8-1.5-0.8 0-0.5-0.7 0.2-0.6 0.6 0 1.3 0.4 1.3-0.5 0.7-0.8-1.7-0.4-1.4-0.8-0.3-0.6 0.5-1 0.2-1.5-0.5-0.3 0.4-0.7-0.3-1-0.2-0.2-0.3-0.7 0.2-0.8 0-0.7-1.4-0.6-0.8-1.7-0.1-0.6 0.3-1 0-1.5 0.2-0.5 1.1 0 0.8-0.9-0.6-1 0-2.2-0.3-3.3-0.3-0.6 0.6-1.2 0.4-1.6-0.4-0.1-0.2-0.8 0.1-0.7 0.3-0.4-0.6-1.7 0.4-1.3l0.3-2.1c0.6-0.3 1.7-0.6 0.9-1.4 0-1-0.6-1.9-0.4-2.8-0.3-0.4 0.3-1 0-1.3 0-0.1-0.2-0.9 0.2-0.8-0.2-1 1-0.5 0.8-1.2 0.3-0.3 1-0.5 0.6-1 0.1-0.5 0.2-1.5-0.3-1.8 0.8-0.5 0.4-1.7 1.2-2.4-0.1-0.5 0.7-0.1 0.4-0.7-0.2-0.8 0-1.5 0.1-2.2-0.4 0-1-0.5-0.5-0.9 0-0.4-0.4-0.9-0.3-1.4-0.3-0.3-0.7-1-0.2-1.3-0.4-0.3-0.9-1-0.7-1.7 0-0.7 0.4-0.4 0.7-0.8-0.5-0.5 0.3-1.3 0.3-1.7 0.5 0.4 0.8-0.8 0.3-0.8 0.4-0.9-0.6-2 0.4-2.6 0-0.9 0.4-2 1-2.4 0.6-0.7 0.8-1.7 1.3-2.5 0.6 0.2 1.7-0.5 0.7-1.2-0.7-0.8 0.7-1.4 0-2.4-0.5-0.5 0-1.3 0.2-1.6-0.3-0.3-0.5-1-0.1-1.2 0.7-1 3-0.8 2.9-2.7 1-1.6-0.5-1.5-1.5-1.6-0.3-0.6 0-1.6-0.6-2.1-0.2-1-0.2-2.2-1.1-2.6 0.5-0.8-0.7-0.9-0.3-1.5-0.5-0.6 0.8-0.5 0.2-1s1.1-1.1-0.1-1.4c-1-0.6-0.8-1.8-1-2.7 0.1-0.4-0.8-0.3-0.7-1-0.1 0-0.3-0.3-0.2-0.5zm-9 49.6c-0.2 0.4 0.3 0.3 0 0zm-1 3.8c0 0.5 0.4 0.3 0 0zm2 10c-0.3 0.5 0.4 0.8 0 0zm-2.2 0.2c0.2 0.8-0.6 1.8-0.2 2.7 0 0.8-0.5 1.2-0.6 1.9 0.5 0.3 1 0.4 1.3 0.4 0.5 0 0-0.5 0.2-1 0.7 0.3 0.4-0.6 0.3-0.3-0.5-0.4 0-0.2 0.2-0.5-0.4-0.2-1-1-0.6-1 0.6 0.5-0.2-0.7 0.6-0.5 0.6-0.2 0-0.6 0-1-0.2-0.3 0.1-0.8-0.6-0.5 0 0.4-1 0-0.3-0.1 0-0.1-0.1 0.1-0.3-0.1zm3.3 0.8c-0.4 0.4 0.5 0.3 0 0zm-1.2 0.6c-0.5 0 0.2 0.5 0 0zm-1.2 0.4c0 0.4 1 0.9 0.2 0zm0 0.6c-0.8 0.1 0.3 0.4 0 0zm0.7 0.2c0 0.2 0.4 0 0 0zm0.7 0.2c0 0.6 0.5 0.3 0 0zm-1.3 0.7c0.8 0.5 0 0 0 0zm0 0.7c-0.2 0.3 0.4 0.1 0 0zm-0.3 0.1c0 0.4 0.4 0 0 0zm-1.2 0.5c-0.2 0.3 0.1 0.3 0 0zm-1 0.6c-0.7 0.3 0.4 0.7 0.2 0.1l-0.3-0.1zm1.9 0.7c-0.2 0.2-1.1 0.2-0.4 0.5 0.4 0.1 0.1-0.5 0.4 0 0.4 0 0-0.4 0-0.5zm1.5 0.4c-0.7 0.4 0.5 0.6 0 0zm-1.2 0.1c-0.2 0.4 0.5 1 0.2 0.2-0.1 0-0.2 0-0.2-0.2zm-1.3 0.3c-0.1 0.1 0.5 0 0 0zm0.9 0.3v0zm-0.9 0.1c-0.5 0 0.3 0.3 0 0zm0.5 0c-0.2 0.1 0 0.9 0.2 0.3 0.6 0-0.2 0-0.2-0.3zm0.9 0.3c-0.4 0.1 0.2 0.3 0 0zm-1.5 0c-0.5 0.2 0.6 0.3 0 0zm1.2 0c-0.9 0.1 0.2 0.6 0 0zm1.3 0.2c-0.5 0.3 0.6 0.3 0 0zm-2 0c0 0.7 1 0.3 0 0zm1 0.1c-0.5 0.2 0.2 0.5 0 0zm1.5 0c-0.2 0.6-0.1 0-0.6 0.4 0.7 0.5-0.2 0 0.1 0.5-0.6-0.5-0.6 0.8 0 0.5-0.3-0.1-0.5 0.5 0.1 0.5 0.6-0.4 0.8-0.8 0.7-1 1-0.5 0.2-1-0.2-0.7zm-2 0.1c-0.2 0.5 0.6 0.3 0 0zm-1 0c-0.5 0-0.4 0.8 0 0.4 0.3 0 0.4-0.2 0-0.3zm0.4 0.2c-0.1 0.6 1 0.3 0.1 0zm-0.1 0.2c-1.2 0.2 0.7 0.5 0 0zm1.2 0.1c-0.8 0.1 0.2 1 0 0.5v-0.6zm-2.5 0c-0.3 0.8 0.4 0.4 0 0zm1.2 0.2c-0.5 0.1-0.3 0.5 0 0.7 0.8-0.3 1.4-0.7 0-0.7zm-0.8 0.1c-0.4 0.4 0.9 0.2 0.1 0zm0.3 0.3c-0.4 0.4 0.7 0.6 0.2 0.1 0 0-0.1-0.1-0.2 0zm1.9 0c-0.8 0.3 0.3 0.7 0 0zm-3.4 0.2c-0.4 0.7 0.8 0.5 0 0zm2.8 0v0.5c0.5 0.4 0.2-0.5 0-0.5zm-0.2 0c-1.1 0 0.4 0.5 0 0zm-0.4 0.3c-0.9 0.5 0.5 0 0.3 0.3 0.6 0.1 0-0.4-0.3-0.3zm0.6 0.4c-0.4 0-1.1 0.5-0.5 0.5 0.2 0.1 1.2 0.8 0.9-0.2-0.1-0.1-0.1-0.3-0.4-0.3zm-1.1 0.5c-0.3 0.9 0.7 0.2 0 0zm0.7 0.2c-0.8 0.4 1.2 0.7 0.5 0.1-0.3 0.2-0.4 0-0.5-0.1zm-0.8 0.2c-0.7 0.1 0.7 0.7 0.1 0zm1.1 0.3c-0.7 0.3 1 0 0 0zm-1.2 0.1c-0.5 0.5 0 0.9 0 0zm1 0c-0.4 0.8-0.1 0.2 0.4 0.5 0.3-0.5-0.2-0.2-0.5-0.4zm0.8 0.1c-0.5 0.2-0.1 1.4 0.1 0.8-0.3 0 0.5-0.6 0-0.8zm-1.6 0c-0.3 0.3-0.3 1.5 0.1 0.8 0.3 0.1 0.4-0.6-0.1-0.8zm0.8 0.3c-0.8 0.7 1 0.8 0 0zm-1.2 0.1c-0.9 0.7 0.4 0.9 0 0zm-0.7 0.1c-0.2 0.5 0.8 0.4 0 0zm1.9 0.5c-0.3 0.5 0.3 0.5 0.2 0zm0.7 0.2c-0.7 0.1-0.4 0.9-0.1 0.2 0.2 0.1 0.2 0 0-0.2zm-2.5 0c-0.3 0.2-0.5 0.2-0.3 0.3-0.8-0.2 0.3 0.5 0.1 0.4-1 0.3 0.7 0.3 0.5-0.6 0-0.3-0.2 0-0.3-0.1zm2.4 0.3c-0.5 0.6 0.5 0.5 0 0zm-0.2 0.4c-0.5 0.5 0.7 0.7 0.2 0 0 0.1-0.1-0.1-0.2 0zm-3 2.1c-0.9 0.1 0.7 0.6 0 0zm2.3 1.1c-0.5 0.8 0.8 0.3 0.2 0-0.2 0.3 0 0-0.2 0zm-0.4 0.1c-0.9 0.4 0.2 0.7 0 0zm-1.5 2.1c-0.4 0.5 0.9 0.4 0 0zm-0.2 0c-1 0.3-0.3 1-0.3 0.6 1-0.2 0.1 0 0.3-0.5zm1 0.4c-0.4 0.8 0.8 0.1 0 0zm1 0c0.1 0.3-1 0.2-0.3 0.6a5 5 0 0 1 1.2 0c0.2-0.5-0.8-0.2-1-0.5zm-1.4 0c-0.2 0.2-1.4 0.7-0.8 0.8 0.3-0.3 1.4 0.7 0.8 0 0-0.1 0.3-0.7 0-0.7zm-1.2 0.7c-0.3 0-0.7 0.5-0.3 0.8 0 0-0.1 0.4 0.2 0.3s-0.7 0.5 0 0.3c0.5-0.5 0.1 0.8 0.4 0.9 0.5 0.2 0.3-0.9 0.1-1zm0.3 0.3c0.2 0.4 0.1 1 0.5 1.2 0.9-0.4 0.2-1.4-0.4-1.2zm1.5 0.1c-0.2 0.6 0.1 0.2 0.1 0.8 0.6-0.2 0.2-0.5 0-0.8zm-0.4 0c-0.3 0.4 0.3 1.8-0.2 1-1 0.3-0.1 0.8 0.4 1 0.7 0 0.1-0.7 0.1-0.6a3 3 0 0 0-0.3-1.3zm1 0.6c-0.8 0.1 0.3 0.9 0 0.3zm0.2 0.3c0.5 0.7 0 0 0 0zm-0.6 0c-0.3 0.6 1 0.5 0 0zm-2 0.2c-0.3 0-1 0-0.5 0.7 0.3-0.2-0.4 0.3 0 0.2 0.7 0.2 0.6-1 0.4-1zm0 0.6c-0.4 0.2-1 0.8-0.2 0.4 0.1-0.1 0.5 0 0.3-0.3zm0.6 0c-0.7 0.5 0.1 1 0.1 0.2v-0.1zm0.2 0c-0.3 0.7 0.8 0.2 0.2 0.1h-0.1zm0.6 0.2c0 0.2-0.6 0.2-0.5 0.5-0.4 0.1 0.3 0 0 0.4 0.3 0.3 0.2 0 0.3 0.6-0.1 0.3 0 1.4-0.5 0.4 0.2 0.2-0.6 0.2 0 0.5-0.5-0.4-0.8-0.4-0.3 0.2 0.2 0.7-0.8-1.2-0.5-0.1 0.2 0.4 0.4 0.3 0.3 0.8 0.1 0.3 0.6 1.4 0.6 0.6 0-0.1-0.2-0.3 0-0.5 0-0.4 0-0.7 0.2-0.5 0.4-0.1 0.1-0.5 0.6-0.5-0.1 0.1 0 0.4-0.3 0.4-0.6 0.4 0.5 0.4 0 0.5-0.4 0-0.3 0.7-0.2 0.5 0.3 0 0.6 0.4 0.3 0.3-0.6 0.1-0.3 0.4 0.1 0.2 0 0-0.6 0.3-0.1 0.5 0.2 0 0.4-0.4 0.4-0.4 0.3-0.1 0-0.4 0.3-0.4-0.4-0.4 0.3-0.2-0.1-0.7-0.5 0.6 0 0-0.1-0.4 0.4-0.8 0-1.9 0-2.2 0.1-1.3-0.4 0.3-0.2-0.2 0-0.4 0-0.4-0.3-0.5zm-1.3 0.4c0 0.4 0.4 0.2 0.5 0.5 0 0 0.1-0.4-0.5-0.5zm-0.2 0.1c-0.4 0.6 0-0.2-0.5 0.2-0.3 0.7 0.6 0 0.3 0.5 0.3-0.3 0.4-0.3 0.6 0.2 0.1-0.5-0.4-0.3-0.4-0.6zm0.1 0.6c-0.2 0.5-0.6 0.4-0.6 0.8 0.4 0.5 0.4-0.6 0.6-0.2 0.3-0.1 0-0.4 0-0.6zm0.5 0.1c-0.3 0.6 0 0.2 0.3 0.7 0.5 0.3 0.2-0.9-0.2-0.7zm-0.9 1.2c-0.1 0.3 0.4 0.7 0.2 0.1h-0.2zm2.5 0.2c-0.3 0.7 0.6 0.8 0 0zm-2.4 0.5c-0.4 0.2 0.2 0.5-0.3 0.7 0.1 0.7 0.8-0.8 0.7 0.4 0.1-0.3 0.5 0.3 0.2-0.4-0.2-0.3-0.3-0.7-0.6-0.7zm0.4 1.5c-0.6 0.4 1 0.6 0.2 0.9-0.5 0 0.2-0.5-0.4-0.3 0 0.4-0.1 0.8 0.3 0.5 0.3 0 0.4 0.7 0 0.4 0.3-0.5 1-0.6 1-1-0.1 0-0.8 0.3-0.3-0.2-0.3 0.3-0.4-0.4-0.7-0.2zm0.9 1c-1.3 0.8 0 1 0 0zm0.5 0.3c-0.6 0.6 0.4 0.4 0.3 0zm0.3 0.2c-0.7 0.3 0.8 0.2 0 0.6 0 0.4 0.5 1 0.7 0.7 0.5 0.3-0.3-0.6-0.3-0.5 0.6 0.3-0.7-0.8-0.3-0.8zm-1.9 0.1c-0.2 0.3 0.3 0.5-0.2 0.7 0.3 0.1 0 0.5 0.4 0.4 0.4 0-0.3-1 0.3-0.7 0.5-0.5 0 0-0.5-0.4zm1.7 0.2c-0.2 0.5 0.5 0 0 0zm-0.9 0.5s-0.1 0.6 0.1 0.5c0.2-0.4 0-0.5 0-0.5zm0.5 0c-0.2 0.2 0.1 0.8-0.1 0.6-0.5 0.3 1 0 0.4 0.1-0.2-0.2 0-0.4-0.3-0.7zm0.4 0.3c0.2 0.4-0.2 1 0 0.7-0.5-0.5-1 0.2-0.4 0.1-0.3 0.9 0.5-0.3 0.2 0.4 0 0.3 0.7-0.7 0.8 0 0-0.3 0.1-1.1-0.6-1.2zm0.7 0.7c0 0.2 0.3 1.7 0.3 0.7-0.1-0.2-0.1-0.5-0.3-0.7zm-0.3 0.3c-0.9 0.5 0.7 0.9 0 0.3-0.4-0.1 0.3-0.1 0-0.3zm-1 0.3c-0.6 0.4 0.6 0.2 0 0zm0.5 0.3c-0.6 0.3-0.6 0.7-0.3 0.6-1 0.6 0.5 0.5 0.2-0.2 0 0 0.5 0.7 0.4 0-0.3 0 0.4-0.3-0.3-0.4zm2 0.2c-0.3 0.2-0.2 0.4 0 0.4 0.1-0.1 0.2-0.3 0-0.4zm-3 0a6 6 0 0 0-0.4 1.4c0.5 0 0.3-0.8 0.5-0.6 0.3-0.1 0.2-0.7 0-0.5-0.2 0.4 0-0.2-0.1-0.2zm2.2 0.2c-0.7 0.1 0.6 1.1 0 0zm-0.5 0.1c-0.3 0.6 0.6 0.3 0 0zm-1.2 0.5c-0.4 0.4 0.3 0.4 0 0zm1.9 0.3c0 0.4-0.8 0.6 0.2 1 0.2-0.2 0-0.8-0.2-1zm-1.5 0c-0.1 0.1 0.3 0.1 0 0zm0.8 0c-0.3 0.3 0.3 0.2 0 0zm-0.4 0.2c-0.1 0.1 0.3 0.2 0 0zm-0.7 0c-0.2 0.2 0.3 1-0.1 1-0.1-0.2 0 0.8-0.2 0.6 0 0.4 0.1 0.3 0.3-0.3 0.2-0.4 0.4-1 0-1.2zm2.1 0.2c0.1 0.7 0.6 0.6 0.2 0.1zm-1.2 0.2c0 0.3 0.6 1.3 0.9 0.6-0.2 0.1-0.5-0.5-1-0.6zm-1.2 0c-0.7 1 0.3 0.8 0 0zm2.5 0.3c-0.4 0.3 0.7 1.2 0.4 0.3 0-0.5-0.2 0.3-0.4-0.3zm-1.9 0.1c-0.2 0.4-0.2 0.8-0.2 1 0.4-0.3 0.3-0.6 0.5-1-0.2 0.2-0.3 0.2-0.3 0zm1.6 0.3c-0.4 0.4 0.4 0.6 0.8 1.2 0-0.5-0.5-0.9-0.8-1.2zm-1.1 0c-0.6 0.5-0.4 1 0 0.2v-0.1zm0.3 0.5c0 0.3 0.3 0 0 0zm-0.5 0c-0.9 0.5-0.1 0.9 0 0zm0.7 0.2c-0.7 0.3 0.6 0.2 0.2 0.4 0.4 0.1-0.4 0.4 0.2 0.7 0.8-0.3 0.1-0.7-0.4-1.1zm0.6 0.2c-0.2 0.4 0.6 0.6 0.5 0.9 0.4-0.2-0.3-0.8-0.5-1zm-1.9 0.1c0 0.5 0.5 1 0.7 0.6 0.3-0.9-0.5-0.2-0.7-0.6zm0.8 0.5c-0.2 0.5 0.4 0.8 0 0zm1.7 0.3c-0.7 0.1-0.4 0.4-1 1 0.5 0.2 0.9-0.7 0.6 0 0.3 0.6 0.4-0.4 0.6-0.6 0-0.1 0-0.3-0.2-0.4zm-1.8 0.2c-0.2 0.2 0.5 0.3 0 0zm11.6 0c-0.7 0.3-0.3 1.5-1.3 1.5-0.7-0.9-1.1-0.2-0.6 0.2 0.8-0.6-0.2 1.3-0.1 0.3-0.4 0.2-0.6 1.5 0 1.8 0.6 0 2.2-1.1 2.2 0.1-0.6 0.8-2.6 0.6-1.7 2 0.3 1 2.1 0.9 2.4 1.8-0.6-0.3-0.2 0.5-0.6 0.3-0.4 0.9-0.3 0 0.1-0.4-0.6-0.8-0.8-0.4-0.8-0.2-0.3-0.7-0.9-0.4-0.4 0.1 0.2 0.5-0.2-0.2-0.1 0.2-0.3 0-0.2-0.9-0.7-0.9-0.3 0.4 0.4 0.9-0.4 0.4-0.6-0.5-1.6-1.1-1.3-0.6 0.6 0.2 0.8 0.7 1.4 1.1 0.3 0.3 0 0.4-0.6-0.2-0.6-0.5 0 1.2-0.5 0.5-0.4 0.3 0.7-1.3 0-0.8-0.6-0.5-0.3 0.8-0.9 0.4 0.5 0.4-1-0.8-0.4 0-0.3 0-0.6-0.3-0.6 0 0.6 0.6-0.7-0.7-0.5 0 0.3 0.1 1 0.7 0 0.3-0.4-0.5-0.4-0.2-0.4 0.1 0.5-0.2-0.2 0.6 0.4 0.3 0.3-0.4 0.3 0.3 0.5-0.2 0 0.5 0.2-0.2 0.2 0.3l0.3-0.4c0-0.4 0.6 0.3 0.2 0.4 0.5 0.3 0.4-0.4 0.7-0.2-0.2 0.7-0.2 0.6 0.2 0.3 0.2 0-0.2 0.4 0.5 0.1 0.9-0.7-0.2 0.8-0.3 0.5 0.3-0.5 1 0.3 1-0.4 0.4-0.7-0.2 1 0.5 0.2 0 0 0.4 0.4 0.3-0.4-0.1 1 0.6 0.1 0.5 0.2 0.1 0.5 0.3-0.6 0.3 0.1-0.2 0.5 1.7 1 2 0.5-1.1-1 0.7 0.4 0.1-0.4 0.3-1.8 0-4.4 0.2-6.5 0-0.8 0.1-2.6-1-1.6-0.4 0.4-0.5-0.6-0.8-0.8zm-11.3 0.2c-0.4 0.4 0.6 0.8 0 0zm2.5 0.7c-0.2 0-0.1 0.3 0 0zm-3 0.1c-0.3 0.3 0.3 0.6 0.3 1 0.4 0 0.5 0.7 0.7 0.2 0.4 0.5 0.5-0.2 1 0.3 0 0.2 0.4 0.2 0.5 0.6-0.2 0.3 0.2 0 0.5 0.3 0.8 0.2 0.2-0.3 0-0.4 0-0.4-0.5-0.5-0.4 0 0-0.4-0.3-1-0.3-0.4-0.5-0.5-0.6-0.5-0.9-0.6-0.2-0.2-0.3 0-0.7-0.1-0.1-0.4-0.4-0.6-0.8-0.9zm2.4 0.4c0 0.1-1 0.4-0.1 0.2 0.4-0.2 0.4 0.6 0.6 0-0.2-0.1-0.4 0-0.5-0.2zm6.7 0c-0.8 0.3 0 0.5 0 0zm-7.8 1.5c-1 0.6 0.3 0.4 0 0zm2.3 0.6c-0.6 0.1 0.3 0.8-0.5 0.4-0.7-0.4 0.2 1 0.6 0.4 0.4 0.3-0.4 0.5-0.8 0-0.5-0.2-0.8 0.3-0.3 0.4-0.4 0.5 0.9-0.4 0.6 0.4-0.3 0.2 0 0.5-0.2 0.6 0.8 0.5 0.4-0.1 0.6-0.6 0.2 0.5 0.8-0.2 0.7 0.3 0.4-0.2-0.3 0.4-0.3 0.5 0.2 0.3-0.5 0.2 0 0.4 0.2 0.3 0.5-0.7 0.8 0 0-1 0.3 0 0.5-0.5-0.5-0.2-0.1-0.8-0.1-0.6 0.6 0.4 0.3-0.6-0.1-0.5-0.4 0.4 0.3-0.7-0.4-0.4-0.4-0.7-0.1 0.9-0.3 0-0.3-0.6-0.4-0.6-0.3 0-0.2 0.7 0-0.4-0.2-0.4 0-0.8-0.2 0.4-0.2-0.3zm-1.2 0c0.2 0.5 0 0.4-0.5 0.2 0.4 0.4 1.1 0.7 0.7 0.1 1-0.2-0.7-0.4-0.2-0.3zm-0.6 0.2c-0.1 0.5 0.1 0.7 0.3 0.3-0.2 0-0.2-0.2-0.3-0.3zm7.5 0.5c-0.5 0.4-0.4 0.8-0.3 1-1.1-0.4-0.2 1.8 0.3 1.4 0-0.5-0.7-1.5 0.2-0.5 0.3-0.4-0.2-1.2 0-2h-0.1zm-3.2 1c-0.2 0.3-0.1 0.8-0.6 0.4 0 0.7 0.2 0.5 0.3 0.6-0.3 0.2 0.6 0.3 0.2 0.9 0.5 0.2 0.2-0.3 0.5-0.4-0.5-0.3-0.5-1.4 0-0.3 0.6-0.2-0.1-0.3 0.1-0.6-0.1 0.3 0.2-0.8-0.2 0-0.1 0 0-0.5-0.3-0.5zm0.8 0.4c0 0.4-0.2 0.7-0.1 1.1 0.3-0.4 0 0.5 0.3-0.2 0.3-0.5 0.1 0.1 0.3 0.3 0-0.2 0.2 0 0.3 0-0.3 0-0.2 0.5 0.1 0.3 0.4 0.5 0-0.4 0.3 0 0.1-0.2 0.2-0.7 0-0.6 0.2-0.9-0.4 0.2-0.3-0.3-0.1 1-0.3-1.3-0.5-0.1-0.2-1 0 0-0.4-0.5zm-4 0.3c-0.4 0.3 0.2 0.3 0.4 0.4 0-0.3-0.1-0.2-0.4-0.4zm6.9 0.1c-1.2 0 0.3 0.9 0 0zm-4.5 0c-0.3 0.4 0.2 0.3-0.5 0.6 0.2 0.6 1-0.2 0.5-0.5zm4 0.4c-0.1 0.7 1.3 0.3 0.3 0.2l-0.1-0.2zm-4.3 0.6c-0.5 0.2 0.2-0.2 0.1 0.2 0.5 0 0-0.2 0-0.2zm-1.2 0.6c-0.7 0.1 0.2 0.3 0 0zm2 0.7c-0.2 0.1 0.3 0.1 0.2 0.5 0.3-0.2 0-0.4-0.1-0.5zm1.6 0.7c-0.4 0.4 0.1 0.3 0 0.5 0.2-0.6 0.6-0.1 0.7 0 0.8-0.2-0.3-0.4-0.7-0.5zm1.7 0c-1.2 0.5 1.5 0.2 0 0zm2 0.2c0 0.2 0 0.5-0.3 0-0.2 0.3-0.2 1-0.1 0.7l1.7-0.4c-0.7-0.3-0.7 0.2-1.2-0.3zm-1.4 0.1c-0.6 0.2-0.6 0.3-1 0.2 0 0-0.7-0.1-0.3 0.2-0.5 0.3 0.5 0.3 0.4 0.4 0 0.3 0.6-0.5 0.4 0.1 0 0.5 0.9 0.1 0.5 0.2-0.6-0.6 0.4 0 0-0.4 0.2-0.2-0.6-0.2-0.5-0.2-1.2 0 0.8-0.2 0.5-0.5zm5.4 0c-1 0-1 0.2-0.5 0.6-0.2 0.7 0.4 0.8 0.6 0.5 0.3 0.4 0.3 0.5 1 0 0 0.7 1 0.6 1-0.3-0.3-1-1.4-0.5-2-0.8zm-1.3 0.1c-0.8 0.3-1.4 0.3-2 0.4 0.3 0.3-0.5-0.3-0.3 0.5 0.2-0.6-1.2-0.4-1 0 0.6 0-0.1 0.7 0.7 0.3 0.9-0.4-0.4 0.1 0.3 0.2-1 0 0.1 0.4 0.1 0.3 0 0 0.1 0.9 0.4 0.2 0 0.7 0.8 0.1 0 0.1 0.4-0.5-0.3-0.3-0.3-0.8 0.9 0.2-0.1-0.4 0.3-0.3 0.3-0.2 0.5 0.9 0.5 0-0.1 1 0.9-0.2 0.6 0.4-0.5 0.8 0.2 0.8 0.2 0.5-1 0 0.2 1-0.1 0.2 0.5 0.3 0.3-0.3 0.8 0.3 0.5-0.2 1 0.5 0.7 0.5 0.2 0.7 0.5-0.2 0-0.5 0-0.1-0.7-0.5-0.4-0.5 0-0.3-0.7 0-0.7-0.2-0.7-0.6 0.7 0.3 0.9-0.3-0.1-0.4-1.7-0.1-1.9-1 0.2 0.4 1.3 1 1 0.3 0.4 0.3 0.6-0.4 0.6-0.3-0.1-0.1-0.2-0.3-0.4-0.3zm3.3 0.3c0 0.6 1 0.3 0 0zm1.2 0.7c-1 0.7 0.7 0.3 0 0zm-1 0.2c-0.7 0.8 1 0.2 0 0zm-7 0.2c0 0.6 0 0.3 0.2 0.1h-0.2zm0.6 0.2c0 0.6 0.8 0 0 0zm4.8 0.7c-0.2 0.3 0 0.7 0.2 0.1zm0.7 0.3c-0.2 0.5 0 0.3-0.5 0.6 0.4 0.2 1 0.3 0.5-0.2 0.2-0.1 0-0.3 0-0.4zm0.4 0.7c-0.4 0.3 0.3 0.1 0 0zm-0.9 0.2c0.2 0.2-1.2 0-0.5 0.4 0.2-0.4 0.4 0 0.5 0 0.2-0.1 0.5-0.4 0-0.4zm1.1 0c-0.4 0.3 0.3 0.8 0 0zm-0.6 0c-0.1 0.4 0.8 0.3 0 0z" stroke-width=".1"/>
   <g stroke-width=".9">
    <path d="m311.2 116h-0.1c-0.1 0-0.1 0 0 0v0z"/>
    <path d="m311 116v0z"/>
    <path d="m310.7 116v0c0.1 0.2 0.2 0.2 0 0 0.1 0.2 0 0.2 0 0z"/>
    <path d="m311 116.3h-0.4l-0.4 0.2h-0.1l-0.1 0.2h-0.1v0.4h-0.2v0c0-0.1-0.1-0.1-0.2 0h-0.1c0 0.2 0 0.2-0.3 0.2-0.2 0 0 0 0 0 0 0.2-0.1 0.2 0 0.2s0.1 0 0 0c-0.2 0-0.1 0.2 0 0.2s0.3 0 0.1 0.2h0.1v0h-0.2v-0.1h-0.1v0.2l-0.5-0.1h-0.4l1.5 3.4 1-2.5-0.4-0.5c0.2-0.1 0-0.2 0.2-0.3v-0.5c0-0.2 0.2-0.4 0.2-0.3v-0.5l0.2-0.3 0.1-0.1 0.2-0.1v0.1z"/>
    <path d="m310.3 116.5c0.1 0 0.1 0 0 0z"/>
    <path d="m309.8 116.9c0.1 0 0.1 0 0 0z"/>
   </g>
   <path class="st0" d="m236.8 30.3-0.4 0.8 0.1 0.3 0.3-0.2c0.2-0.1 0.3-0.3 0.7-0.2l0.4-0.3-0.4-0.1z"/>
   <path class="st0" d="m285.2 36-0.2 0.3c-0.2 0-0.3 0.2-0.4 0.3l-0.1 0.2 0.8-0.4 0.4 0.2h0.5c0.1-0.1-0.1-0.3-0.2-0.3-0.1 0.1-0.3 0-0.2-0.2l-0.6-0.1c0.1 0 0 0 0 0z"/>
   <path class="st0" d="m284.5 36.9c-0.1 0.1 0 0.2 0.1 0.1z"/>
   <path class="st0" d="m283.5 37-0.3 0.3c0 0.2 0 0.4 0.2 0.5 0.1 0.1 0.3 0.1 0.3-0.1v-0.3l-0.1-0.2z"/>
  </g>
  <g transform="matrix(.35006 0 0 .35006 -5.2 -5.6)">
   <g transform="translate(14.4,-4.3)" fill="#fff">
    <path class="st0" d="m357.2 145.3c0 3.6-2.8 6.3-6.2 6.3a5.8 5.8 0 0 1-5.2-3v2.8h-1.2v-16.8h1.2v7.6c1-1.8 2.8-3 5.2-3a6 6 0 0 1 6.2 6.1zm-1.2 0a5 5 0 0 0-5.1-5.1 5 5 0 0 0-5.1 5.1 5 5 0 0 0 5.1 5.1 5 5 0 0 0 5.1-5.1z"/>
    <path class="st0" d="m372.6 145.4v0.6h-10.9a5 5 0 0 0 5.1 4.5c2 0 3.5-0.9 4.1-2.2l1.1 0.6a6 6 0 0 1-5.2 2.7 6 6 0 0 1-6.3-6.3 6 6 0 0 1 6.2-6.3c3.7 0.1 5.9 3.1 5.9 6.4zm-10.8-0.6h9.6c-0.3-2.9-2.3-4.6-4.7-4.6a4.8 4.8 0 0 0-4.9 4.6z"/>
    <path class="st0" d="m378.9 140.5v7.8c0 2.1 1.1 2.2 3.6 1.9v1.1c-3.1 0.5-4.8-0.3-4.8-3v-7.8h-2.7v-1.2h2.6v-3l1.2-0.4v3.4h3.6v1.2z"/>
    <path class="st0" d="m397.6 139.3v12h-1.2v-2.7c-1 1.8-2.9 3-5.2 3a6.2 6.2 0 0 1-6.2-6.3c0-3.5 2.8-6.3 6.2-6.3 2.3 0 4.2 1.2 5.2 3v-2.7zm-1.2 6a5 5 0 0 0-5.1-5.1 5 5 0 0 0-5.1 5.1 5 5 0 0 0 5.1 5.1 5 5 0 0 0 5.1-5.1z"/>
   </g>
  </g>
 </g>
</svg>
