<svg xmlns="http://www.w3.org/2000/svg" xmlns:xlink="http://www.w3.org/1999/xlink" viewBox="0 0 727 310" enable-background="new 0 0 727 310"><style type="text/css">.st0{clip-path:url(#SVGID_2_);} .st1{clip-path:url(#SVGID_4_);} .st2{fill:#1A64B7;} .st3{fill:#EE293D;} .st4{fill:#FFFFFF;} .st5{clip-path:url(#SVGID_6_);} .st6{clip-path:url(#SVGID_8_);} .st7{clip-path:url(#SVGID_10_);} .st8{clip-path:url(#SVGID_12_);} .st9{fill:#EB3C46;}</style><g id="g12"><g transform="matrix(1.25 0 0 -1.25 0 320)"><defs><path id="SVGID_1_" d="M-174.8-218.8h956.2v1237.5h-956.2z"/></defs><clipPath id="SVGID_2_"><use xlink:href="#SVGID_1_" overflow="visible"/></clipPath></g><g transform="matrix(1.25 0 0 -1.25 0 320)"><defs><path id="SVGID_3_" d="M-174.8-218.8h956.2v1237.5h-956.2z"/></defs><clipPath id="SVGID_4_"><use xlink:href="#SVGID_3_" overflow="visible"/></clipPath></g><path id="path42" class="st2" d="M141.625 305h-135v-300h135v300z"/><path id="path44" class="st3" d="M306.625 305h-165v-300h165v300z"/><path id="path128" class="st4" d="M264.815 75.991c0 2.633 1.5 4.138 4.25 4.138 1.75 0 3.375-.752 4.875-1.379l.875 3.135c-1.375.752-3.625 1.63-6.25 1.63-5.25 0-8.25-3.26-8.25-8.778 0-5.141 2.5-8.653 7.875-8.653 5 0 7.125 3.762 7.125 8.026v1.881h-10.5zm3.125-6.646c-2.25 0-3.125 2.006-3.125 4.013h6.125c0-2.132-.75-4.013-3-4.013m-17.125 9.405v-19.186h4.375v16.804c0 1.129.25 2.132.625 2.759.25.878.875.878 2.125 1.003v3.135s-1.25.251-2.375.251c-3.5 0-4.75-1.756-4.75-4.765m-8.625 4.389v-13.418l-1.875-.376v-2.884h6.375v16.678h-4.5zm-.125-23.575h4.5v4.013h-4.5v-4.013zm-19.75 23.575v-23.575h4.5v6.145c0 1.129-.375 2.383-.5 2.633 1-1.129 2.375-2.257 4.75-2.257 4.875 0 6.125 2.508 6.125 6.772v10.408h-4.5v-9.907c0-.502-.125-.752-.25-1.003-.125-1.881-1.125-2.759-2.75-2.759-1.125 0-2.125.502-2.875 1.003v12.54h-4.5zm-10.875.376c-6.5 0-10.25-4.389-10.25-12.038 0-7.148 3.875-11.913 10.25-11.913 3.125 0 5.75.752 7.625 2.006l-1.625 3.511c-1.25-.878-3.25-1.63-5.75-1.63-3.875 0-5.875 2.759-5.875 7.9 0 5.392 2 8.276 5.75 8.276 2.5 0 4.5-.878 6.125-2.006l1.375 3.386c-2.125 1.63-4.5 2.508-7.625 2.508m-31.25-7.524c0 2.633 1.5 4.138 4.25 4.138 1.75 0 3.375-.752 4.875-1.379l.875 3.135c-1.375.752-3.625 1.63-6.25 1.63-5.25 0-8.25-3.26-8.25-8.778 0-5.141 2.5-8.653 7.875-8.653 5 0 7.125 3.762 7.125 8.026v1.881h-10.5zm3.125-6.646c-2.25 0-3.125 2.006-3.125 4.013h6.125c0-2.132-.625-4.013-3-4.013m-15-1.63c0-.376-.5-1.63-.5-3.135v-5.016h4.5v23.575h-3.625l-.5-1.881c-.625 1.129-2.25 2.257-4.375 2.257-3.75 0-6.875-2.759-6.875-8.778 0-5.518 3.125-8.778 7.25-8.778 1.875.125 3.25.752 4.125 1.756m-.375 2.759c-.625-.502-1.75-1.003-3-1.003-2.125 0-3.5 1.379-3.5 5.392s1.25 5.518 3.375 5.518c1.125 0 2.25-.502 3.125-1.379v-8.527zm122.625-26.083c0 5.768-2.875 8.778-7.875 8.778s-7.875-3.01-7.875-8.778c0-4.891 2.75-8.653 7.875-8.653 5-.125 7.875 3.637 7.875 8.653m-4.625 0c0-4.013-1.25-5.392-3.25-5.392s-3.25 1.379-3.25 5.392c0 3.887 1 5.518 3.25 5.518 2.125-.125 3.25-1.505 3.25-5.518m-18.625 8.402v-9.907c0-2.508-1-3.762-3-3.762-1.125 0-2.125.502-2.875 1.003v12.665h-4.5v-16.804h3l.75 1.881c1-1.129 2.75-2.257 5.25-2.257 4.25 0 5.875 2.508 5.875 6.772v10.408h-4.5zm-13.125-13.042c-.5-.125-1.25-.251-2.125-.251-1.25 0-2.25.502-3 1.129v12.164h-4.375v-16.804h3.125l.5 2.257h.125c.5-1.254 2-2.633 4-2.633.875 0 1.5.125 1.875.251 0 1.379 0 2.633-.125 3.887m-23.375 5.768c0 2.633 1.5 4.138 4.25 4.138 1.75 0 3.375-.752 4.875-1.379l.875 3.135c-1.375.752-3.625 1.63-6.25 1.63-5.25 0-8.25-3.26-8.25-8.778 0-5.141 2.5-8.653 7.875-8.653 5 0 7.125 3.762 7.125 8.026v2.006c-.125-.125-10.5-.125-10.5-.125zm3-6.646c-2.25 0-3.125 2.006-3.125 4.013h6.125c0-2.132-.625-4.013-3-4.013m-15.5 13.919v-13.418l-1.875-.376v-2.884h6.375v16.678h-4.5zm-.125-23.701h4.5v4.013h-4.5v-4.013zm-15.75 8.653c.75-1.003 2.5-2.006 4.375-2.006 3.875 0 6.75 2.759 6.75 8.653 0 5.768-3.375 8.778-7.25 8.778-2.375 0-3.75-.878-4.875-2.383l-.875 2.006h-2.375v-23.575h4.5v5.894c0-.125-.25 2.633-.25 2.633zm.25 10.408c.625.878 1.875 1.756 3 1.756 2 0 3.375-1.379 3.375-5.518 0-4.013-1.25-5.392-3.25-5.392-1.125 0-2.375.627-3.125 1.379v7.775zm-7.75-3.762c0 5.768-2.875 8.778-7.875 8.778s-7.875-3.01-7.875-8.778c0-4.891 2.75-8.653 7.875-8.653 5-.125 7.875 3.637 7.875 8.653m-4.625 0c0-4.013-1.25-5.392-3.25-5.392s-3.25 1.379-3.25 5.392c0 3.887 1 5.518 3.25 5.518 2.125-.125 3.25-1.505 3.25-5.518m-14 6.395c-3.125 1.505-5.625 2.383-9 2.383-6.875 0-10.375-5.392-10.375-12.164 0-6.521 3.5-11.788 10.75-11.788 3.5 0 5.75.878 7.625 2.132l-1.875 3.386c-1.25-.878-3.125-1.63-5.625-1.63-4.25 0-6.125 3.135-6.125 7.775 0 5.141 2.125 8.527 6.125 8.527 2.25 0 3.875-.752 4.375-1.003v-4.138h-3.375v-3.386h7.5v9.907z"/><path id="path132" class="st4" d="M86.281 64.175v4.64c.875-2.006.5-3.637 0-4.64"/><path id="path136" class="st4" d="M95.441 38.76c.125 0 0-.627.5-.752.5 0 1.375.502 1.5 1.003.125.627-.375 2.006 1.5 2.257v.627c0 .376-.125.752-.25 1.003h.375c2.5.125 4-.125 4.75-.878 0 0 .375-.502.625-.878.625-1.379.75-2.508.375-3.511 0 0 0-.125-.125-.251l-.125-.376c-.625-.878-2.125-2.257-3.875-2.884h-.375.125.375c1.375.125 3.625 1.505 4.125 2.884.5-.251.875-1.003.875-1.756 0-.125 0-1.003.25-1.63.125-.251 0-.502-.125-.627-.25-.125-.5 0-.625.251-.375.627-1.125.251-.75-.376.125-.251 0-.502-.125-.627-.25 0-.5 0-.625.251-.375.627-1.125.251-.875-.376.125-.251 0-.502-.125-.627s-.5 0-.5.251c-.375.752-1.25.251-.875-.376.125-.251 0-.502-.25-.627s-.5 0-.5.251c-.25.502-.375.878-.625 1.129 1.5.251 3.125 1.129 4.125 2.132 0 0 .375.502.5.502v.125c-.25-.125-.375-.251-.5-.376-1.75-1.379-3.25-2.006-4.375-2.132-.875 0-.625 1.003-.5 1.505-1.375-.251-2.5.752-2.5 1.756 0 .376.125.752.25 1.129v.125s-.25-.125-.375-.376c-.125-.376-.125-.627-.25-.878-1.125.125-2.125.627-2.125 1.756.125.627.875 1.379 1.125 1.379m4-1.63c.25-.376.375 1.129 1.5.752-.875 1.003-2 0-1.5-.752m-.125-.752c.5-.251.875-1.129 1.5-.752l1 .878c.375.251.75.502.875.752.25.376-.25 1.379-.875.502-.375-.627-1-1.756-1.875-1.379-.75.376-1.25 1.003-1.5.502 0-.251.625-.251.875-.502m-3.25.251c-.125.376-.75.376-.875 1.003-.5-.502.5-1.505.875-1.003"/><path id="path140" class="st4" d="M126.123 86.432c-.75-1.003-2.875-.502-2.875-.502 1.125-3.26-1.875-4.138-1.875-4.138-1.125-.251-1.75-.125-2.25.251l-.25.125c-.25.251-.5.627-.5 1.129 0 .878.75 1.63 1.625 1.63.375 0 .625-.125.875-.251.25-.251.5-.627.625-1.003.375.251.625.752.625.752.875 2.759-2.25 3.887-2.25 3.887-7 2.132-11.25-1.505-11.25-1.505l1.25-.627c.375-.125.75-.251 1.125-.251v.251c0 .752.625 1.379 1.375 1.379s1.375-.627 1.375-1.379c0-.251-.125-.502-.125-.627s-.125-.125-.125-.125c-.875-1.254-3.625-.376-3.625-.376.875-2.257.125-4.013.125-4.013-.5-.878-.375-1.129-.375-1.129 0-.878-.25-.878-.25-.878-.375-.627-1.125-.251-1.125-.251-1.125.251-1.375-.251-1.375-.251-.875-.627-1.375-.251-1.375-.251-.625 0 0 .627 0 .627-1 0-1.25 1.254-1.25 1.254-.375 2.132 1.375 2.257 1.375 2.257 1.25.125 1.25-1.003 1.25-1.003.125-1.003-1.25-1.003-1.25-1.003.25-.627.625-.627.625-.627 1.5-.376 2.125 1.254 2.125 1.254 1.125 1.881-.375 3.637-.375 3.637-.25.251-.5.125-.5.125-.875-.376-2-1.254-2-1.254s-.125 0-.125-.125h-.5c-.5 0-1.125.125-1.5.376.625.627 2.375 2.132 2.375 2.132-1.375 1.254-2.125.502-2.125.502-.625-.752-.5-1.881-.375-2.383 0 0-.125 0-.125.125l-1.875.752c.625 1.129 1.625 2.884 1.625 2.884-1.625.627-1.875-1.505-2-2.759-.375.125-.75.251-1 .376.125.251.125.502.125.502.125 1.129 1.125 2.633 1.125 2.633-1.125-.376-1.875.376-1.875.376-.625.627-.625 1.505-.625 1.756 0 .376.375.752.75.752.5 0 .75-.376.75-.752s-.375-.752-.75-.878c.375-.878 1.25-.125 1.25-.125 1.25 1.129-.75 2.383-.75 2.383-1.375.878-2.75-.878-2.75-.878 1.5-2.633 1.75-4.389 1.625-5.518l-1.5.502c.75 2.383-.875 3.637-.875 3.637-.5-.376-.5-1.63-.5-1.63-.125-.502-.25-1.003-.5-1.505l-1.25.376c.5 1.505.75 3.637.75 3.637-.25.251-1 .376-1 .376-1.125.125-.5-.502-.5-.502.625-.502.5-.878.5-.878-.375-.752-1.625 0-1.625 0-1.625.878-1.125 1.881-1.125 1.881.25.627 1.875 1.129 1.875 1.129-.875.752-2.625.376-2.875.376 0-.502-.375-.878-.875-1.003h-.125c-.625 0-.875.251-1.125.376l-.25.376-1-.125c-.75-.125-1.125-2.132-1.375-3.887l-.875.125c.25 1.881.625 3.637.625 3.637-.25-.125-1.75-1.129-1.75-1.129-1.875-1.129-3.125-.752-3.25-.752-1 .125-1.625 1.003-1.625 2.006 0 1.129.875 2.006 2 2.006s2-.878 2-2.006c.75.376 1.375.752 1.375.752 1.75 1.254 3.5 1.379 3.875 1.379.125.627.75 1.129 1.375 1.129.5 0 1-.251 1.25-.752 3.875-.125 5.25-1.881 5.25-1.881.375-.502.5-.251.5-.251 1.625 2.132 4.25.878 4.25.878.5-.251.625.125.625.125.5.878 1.375.376 1.375.376 1.125-.502.5-1.254.5-1.254-.375-.376.125-.376.125-.376 1.25.125 1.5-.502 1.5-.502.25-.627-.625-1.129-.625-1.129-.25-.376.25-.627.25-.627.75-.502.625-.878.625-.878 1 0 .875-.376.875-.376 0-.376-1.125-.376-1.125-.376-1-.125-.875-.502-.875-.502 1.375 0 3.5-.627 3.5-.627 3.125 2.383 7.75 3.01 7.75 3.01.125.502-.125 1.129-.125 1.129h-.125c-.375 0-.75.376-.75.752s.375.752.75.752h.25c1.5-.376 1.625-2.508 1.625-2.508 4.125.376 7-2.759 7-2.759.375-.376.625-.251.75-.125.25.251.5.502.875.502s.75-.251 1-.502c.125-.376.25-.627.25-.878 0-.502-.25-.752-.25-.752"/><path id="path144" class="st4" d="M75.716 91.828c.375-.251.5-.627.5-.627.125-1.129-.75-1.63-.75-1.63h-3s-.875.502-.75 1.63c0 0 .125.502.5.627 0 0-1 .502-1.125 1.129 0 0-.125.502.875 1.254 0 0 .625.752.875 1.379 0 0 0 .878 1.125.878l1.125-.878c.25-.502.875-1.254.875-1.254.875-.752.875-1.254.875-1.254-.125-.752-1.125-1.254-1.125-1.254"/><path id="path148" class="st4" d="M83.537 87.174h.5l-.25-.752-.25.752z"/><path id="path152" class="st4" d="M65.035 87.206h.5l-.125-.627-.375.627z"/><g transform="matrix(1.25 0 0 -1.254 -222.502 965.37)" id="g154"><defs><path id="SVGID_5_" d="M-174.8-222.5h956.3v1245h-956.3z"/></defs><clipPath id="SVGID_6_"><use xlink:href="#SVGID_5_" overflow="visible"/></clipPath><g id="g156" class="st5"><path id="path164" class="st4" d="M228.303 701.637l-.2-.7h.3c.1 0 .1 0 .1.1 0 0 .1.1.1.2s0 .2-.1.3c0 0-.1.1-.2.1"/><path id="path168" class="st4" d="M234.67 701.117c-.1 0-.3-.1-.3-.2-.1-.1-.1-.3-.1-.6s0-.5.1-.6c.1-.1.2-.2.3-.2.2 0 .3 0 .4.2.1.1.1.3.1.6s0 .5-.1.6c-.1.1-.2.2-.4.2"/><path id="path172" class="st4" d="M240.217 701.122c-.2 0-.3-.1-.3-.2-.1-.1-.1-.3-.1-.6s.1-.5.1-.6c.1-.1.2-.2.3-.2.2 0 .3.1.3.2.2.2.2.4.2.7s-.1.5-.1.6c-.1 0-.2.1-.4.1"/></g></g><path id="path176" class="st4" d="M58.831 86.295l.5.125-.125-.752-.375.627z"/><g transform="matrix(1.25 0 0 -1.254 -222.502 965.37)" id="g178"><defs><path id="SVGID_7_" d="M-174.8-222.5h956.3v1245h-956.3z"/></defs><clipPath id="SVGID_8_"><use xlink:href="#SVGID_7_" overflow="visible"/></clipPath><g id="g180" class="st6"><path id="path188" class="st4" d="M216.609 704.491l-.2-.7h.1c.1-.1.2-.1.3 0 .1 0 .1.1.2.2v.2c0 .1 0 .1-.1.1-.1.1-.2.2-.3.2"/><path id="path192" class="st4" d="M218.734 703.772c-.1 0-.3 0-.4-.1-.1-.1-.2-.3-.3-.5 0-.2-.1-.4 0-.6 0-.1.1-.2.3-.3.1 0 .3 0 .4.1 0 .1.1.3.2.5s.1.4.1.6c-.1.2-.1.2-.3.3"/><path id="path196" class="st4" d="M220.786 703.15l-.2-.6.3-.1c.1 0 .1 0 .1.1 0 0 .1.1.1.2v.3l-.3.1"/><path id="path200" class="st4" d="M253.952 703.125h-.4l.2-.7.3.1.1.1v.2c-.1.2-.1.3-.2.3"/></g></g><path id="path204" class="st4" d="M99.548 83.558l.5-.251-.5-.502v.752z"/><g transform="matrix(1.25 0 0 -1.254 -222.502 965.37)" id="g206"><defs><path id="SVGID_9_" d="M-174.8-222.5h956.3v1245h-956.3z"/></defs><clipPath id="SVGID_10_"><use xlink:href="#SVGID_9_" overflow="visible"/></clipPath><g id="g208" class="st7"><path id="path216" class="st4" d="M259.327 705.621c-.2.1-.4.2-.6.2-.3 0-.4-.1-.4-.1-.8-.2-8.5-3.6-21.2-3.6s-20.3 3.4-21.2 3.6c0 0-.2.1-.4.1s-.4-.1-.6-.2l-2.6-2c.8 0 1.6-.4 1.6-.4 6.8-3 14.5-4.2 23.2-4.3 8.7.1 16.4 1.3 23.2 4.3 0 0 .8.4 1.6.4l-2.6 2zm-24.7-3.8h.5l-.6-.4h-.1l.2.4zm-17.2 2c0-.1-.1-.2-.2-.2-.1-.1-.2-.1-.3-.1s-.3.1-.4.1h-.1l-.1-.4v-.2l.1-.1v-.1l-1.1.4v.1h.2s.1.1.1.2l.4 1v.2l-.1.1v.1l.7-.2c.2-.1.3-.1.4-.2.1 0 .2-.1.2-.2.1-.1.1-.1.1-.2.1-.1.1-.2.1-.3m2-1.1c-.1-.2-.2-.4-.5-.5-.2-.1-.5-.1-.8 0-.2.1-.4.2-.5.3s-.2.3-.2.5v.5s.1.3.3.4c.1.1.3.2.5.2h.5c.3-.1.5-.3.6-.5.2-.4.2-.6.1-.9m1.9-.9c.1-.2.1-.3.1-.3l.1-.1v-.1l-.5.1-.2.5-.1.3s0 .1-.1.1c0 0-.1 0-.2.1l-.1-.4v-.2s.1-.1.2-.1v-.1l-.9.3v.1h.2s.1.1.1.2l.3 1v.2s-.1.1-.2.1v.1l.7-.2h.2c.2 0 .3-.1.3-.1l.2-.1c.1-.1.1-.1.1-.2v-.2c-.1-.2-.2-.3-.5-.3l.3-.7m2.9-1.2l-1.6.3v.1h.2s.1.1.1.2l.2 1v.2s-.1.1-.2.1v.1l.9-.2v-.1h-.2s-.1-.1-.1-.2l-.2-1v-.2l.1-.1s.1-.1.2-.1h.4c.1.1.2.1.2.3h.1c.1.2-.1-.4-.1-.4zm2-.3l-.9.1v.1h.1v.30000000000000004l-.5.1-.1-.1c0-.1-.1-.1-.1-.1v-.1h.1v-.1l-.4.1v.1c.1 0 .2.1.3.2l.8 1.3h.2l.3-1.5c0-.2.1-.2.1-.3l.1-.1zm3.1-.5l-.6.1-.2.5-.1.3-.1.1h-.2l-.1-.4v-.2s.1-.1.2-.1v-.1l-1 .1v.2h.2s.1.1.1.2l.1 1.1v.2s-.1.1-.2.1v.1l.7-.1h.2c.2 0 .3 0 .4-.1l.2-.1c.1 0 .1-.1.1-.2v-.2c0-.2-.2-.3-.4-.4.1-.1.1-.2.2-.4s.1-.3.2-.3l.1-.1c.2-.1.2-.3.2-.3zm1.9-.2l-.9.1v.1h.1v.30000000000000004l-.6.1v-.30000000000000004h.1v-.1l-.6.1v.2c.1 0 .2.1.3.3l.7 1.3h.2l.4-1.5.1-.3.1-.1c.2 0 .1-.2.1-.2zm2 1.6l-1.1-1.4h.7l.2.1.1.2h.2l-.1-.5h-1.7v.1l1.1 1.5h-.7s-.1-.1-.2-.3h-.1l.1.5 1.5-.2zm2.1-1.6c-.2-.2-.4-.2-.7-.2-.2 0-.4.1-.6.2-.2.1-.3.2-.3.4-.1.2-.1.3-.1.4 0 .2.1.3.2.5s.2.3.4.3c.2.1.3.1.5.1.3 0 .6-.1.7-.3.2-.2.3-.4.2-.7 0-.3-.1-.5-.3-.7m2.7 1.4h-.1l-.1-.1v-1.5999999999999999h-.2l-1.2 1.3v-.8c0-.1 0-.2.1-.3 0 0 .1-.1.2-.1v-.1h-.7v.1h.1l.1.1v1.1c0 .2-.1.3-.3.3v.2h.6l1-1.1v.7c0 .2-.1.3-.2.3v.1h.6c.1.1.1-.1.1-.1zm3-1.3c-.2-.2-.4-.3-.7-.3-.2 0-.4 0-.6.1-.2.1-.3.2-.4.4-.1.2-.1.3-.1.4 0 .2 0 .3.1.5s.2.3.4.4c.2.1.3.1.5.1.3 0 .6-.1.8-.2.2-.2.3-.4.3-.7-.1-.3-.1-.5-.3-.7m1.5-.1v.1c.1 0 .1 0 .2.1v.2l-.1 1.1c0 .1 0 .1-.1.2h-.2v.1l1 .1v-.1c-.1 0-.1 0-.2-.1v-.2l.1-1v-.2l.1-.1h.2c.2 0 .3.1.3.1.1.1.1.2.1.3h.1v-.6c.2.1-1.5 0-1.5 0zm2.8.2l.1.1v.2l-.1.2-.6-.1v-.2s0-.1.1-.1h.1v-.1l-.6-.1v.1c.1 0 .2.1.2.3l.4 1.5h.2l.7-1.3c.1-.1.1-.2.2-.2h.1v-.1c.1-.1-.8-.2-.8-.2zm3.1 1.8l-.1.2-.1.1h-.5l.1-.6h.1c.1 0 .1 0 .1.1v.2h.1l.1-.6h-.1c0 .1 0 .2-.1.2h-.2l.1-.5c0-.1 0-.1.1-.2h.2v-.1l-1-.2v.1c.1 0 .1 0 .2.1v.2l-.1.9c0 .1 0 .1-.1.2h-.2v.1l1.5.2.1-.5c-.1.1-.2.1-.2.1zm2.1.5l.1-.6v-.3c0-.1 0-.2-.1-.3 0-.1-.1-.2-.2-.2 0-.1-.2-.1-.3-.2h-.4c-.1 0-.2.1-.2.1l-.2.2-.1.3-.1.7c0 .1 0 .1-.1.2h-.2v.1l.9.2v-.1c-.1 0-.1 0-.2-.1v-.2l.1-.7.1-.3c0-.1.1-.1.2-.2.1 0 .2-.1.3 0l.3.1c.1.1.1.1.1.2v.3l-.2.7c0 .2-.1.3-.3.2v.1l.7.1v-.1s-.1 0-.1-.1l-.1-.1m.8-1.3l.2.2v.2l-.2 1c0 .1 0 .1-.1.2h-.2v.1l1.5.3.1-.5h-.1c-.2.2-.2.3-.2.3l-.1.1h-.2l-.4-.1.1-.6h.2c.1 0 .1 0 .1.1v.2h.1l.1-.6h-.1c0 .1 0 .1-.1.1h-.4l.1-.4c0-.1 0-.1.1-.2h.30000000000000004c.1 0 .2.1.2.1s.1.1.1.2v.3h.1l.1-.6-1.3-.4zm3.4.9c-.1 0-.2.2-.4.4l-.2.2h-.30000000000000004l.1-.4c0-.1 0-.1.1-.2h.2v-.1l-.9-.3v.1l.2.1v.2l-.3 1c0 .1 0 .1-.1.2h-.2v.1l.7.2h.2c.2 0 .3.1.3.1h.2c.1 0 .2-.1.2-.1.1-.1.1-.1.1-.2 0-.2-.1-.4-.3-.5.1 0 .2-.1.4-.3.1-.1.2-.2.3-.2h.2v-.1l-.5-.2zm.8.2l.5 1.9-.3-.1c-.2 0-.3-.1-.3-.1-.1-.1-.1-.2-.1-.4l-.1-.1-.1.5 1.4.5v-.1l-.5-1.8.4.1c.1 0 .2.1.2.1s.1.1.1.2v.3h.1l.1-.5c.2 0-1.4-.5-1.4-.5zm2.7 1l-.1.1c.1 0 .2 0 .2.1v.2l-.1.1-.5-.2v-.2s0-.1.1-.1h.1v-.1l-.6-.3v.2c.1 0 .2.2.2.4v1.5h.1l1-1.1.2-.2h.1l.1-.1c.1 0-.8-.3-.8-.3z"/><path id="path220" class="st4" d="M229.058 730.78c-.4.2-.8.4-1 .6-.2-.1-.6-.4-1-.6h2z"/><path id="path224" class="st4" d="M233.643 731.206c-.2-.1-.5-.2-.8-.4 0 0-.1 0-.1-.1h8.2c-.1 0-.1 0-.1.1-.4.2-.7.3-.9.4h-.1c-.3.2-.7.3-1 .4h-4c-.4-.1-.7-.2-1.2-.4"/><path id="path228" class="st4" d="M245.92 731.374c-.2-.1-.5-.4-.9-.6h1.7c-.3.2-.6.4-.8.6"/><path id="path232" class="st4" d="M226.969 715.071v4.2c-.3-.8-.8-2.5 0-4.2"/></g></g><path id="path236" class="st4" d="M73.499 59.954l-9.75-3.135h7.625l2.125 3.135z"/><g transform="matrix(1.25 0 0 -1.254 -222.502 965.37)" id="g238"><defs><path id="SVGID_11_" d="M-174.8-222.5h956.3v1245h-956.3z"/></defs><clipPath id="SVGID_12_"><use xlink:href="#SVGID_11_" overflow="visible"/></clipPath><g id="g240" class="st8"><path id="path248" class="st4" d="M236.765 730.225h-10.4l.1-.3c.1-.1.2-.3.4-.5h9.6l.3.8z"/><path id="path252" class="st4" d="M236.344 728.833h-9.1c.1-.2.3-.5.4-.8h8.4l.3.8z"/><path id="path256" class="st4" d="M235.922 727.445h-8l.3-.8h7.4l.3.8z"/><path id="path260" class="st4" d="M235.499 726.046h-7.1l.1-.8h6.8l.2.8z"/><path id="path264" class="st4" d="M230.939 723.267h-2.5c0-.2-.1-.5-.2-.8h3.8l-1.1.8z"/><path id="path268" class="st4" d="M230.166 723.82l-1.2.8h-.5v-.9h1.7v.1z"/><path id="path272" class="st4" d="M236.838 730.225v-8.1l7.8 2.5h-6.1l-.2.6h6.9c0 .3.1.6.2.8h-7.3l-.2.6h7.6c.1.3.2.6.3.8h-8.2l-.1.6h8.6c.2.3.3.6.5.8h-9.4l-.1.6h9.8c.3.4.5.7.6.7 0 .1.1.1.1.1h-10.8z"/><path id="path276" class="st4" d="M238.679 717.693v-6.3c.3.2.6.3.8.4v5.2l-.8.7z"/><path id="path280" class="st4" d="M237.264 718.77v-9.1c.1.2.2.4.3.5v.1c.2.3.4.5.5.7v7.2l-.8.6z"/><path id="path284" class="st4" d="M235.868 718.412v-7.3c.3-.2.5-.5.7-.8v-.1s.1-.1.1-.2v9l-.8-.6z"/><path id="path288" class="st4" d="M234.478 717.357v-5.4c.3-.1.6-.2.8-.4v6.5l-.8-.7z"/><path id="path292" class="st4" d="M240.071 712.052c.3.1.6.1.8.2v3.8l-.8.6v-4.6z"/><path id="path296" class="st4" d="M233.089 712.272c.3 0 .5-.1.8-.2v4.8l-.8-.6v-4z"/><path id="path300" class="st4" d="M236.8 722.16l-2.9-1-1.1.8h-4.7c0-.3-.2-.6-.3-.9l-.3-.6v-6.3c.2-.2.4-.5.8-.8v7.6h.6v-7.9c.2-.1.5-.3.8-.4v8.3h.6v-8.5h.8v8.6h.6v-8.7h.9v3.5l-.5-.4 4.7 6.7zm-4.3-1.1h.6v-2.5l-.6-1.6v4.1z"/><path id="path304" class="st4" d="M245.829 721.04c-.1.3-.2.6-.3.8h-4.8l-1.1-.8-2.1.8-.7.3 4.7-6.6v-3.3h.8999999999999999v8.8h.4v-8.6c.3 0 .6.1.8.1v8.5h.6v-8.4c.3.1.6.2.9.4v8h.7l-.1-7.7c.3.2.6.4.8.6 0 0 0 .1.1.1v5.7c-.4.5-.6.9-.8 1.3m-4.4-5.2l-.5 1.6v3.6h.5v-5.2z"/><path id="path308" class="st4" d="M241.495 722.428h3.9c-.1.3-.2.6-.2.8h-2.5l-1.2-.8z"/><path id="path312" class="st4" d="M244.605 724.66l-1.2-.8h1.7v.8999999999999999l-.5-.1z"/><path id="path316" class="st4" d="M249.181 741.148h.7c2.6.7 2.7 3.9 2.3 4.1-.1-.1-.2-.3-.3-.5-.2-.3-.4-.5-.4-.5v.1c.6 1 .6 1.8.3 2.8-.3.4-.6 1-1.1 1.3-1.3.9-4 1.1-5.4 0-.5.5-1.1.9-1.8 1.1-.2-.8-1.1-1.9-1.9-2.4-.2-.1-.6-.4-.8-.4 0 0-.2 0 0 .2 1.4.8 2.1 1.9 2.1 3.2 0 .7-.2 1.9-1 2.8-1.3 1.4-4.7 1.6-6.3.3-.4-.4-.7-1-.8-1.6.2.5.5 1 1.3 1.2.7.2 2 .1 2.2-.7-1.2 1.2-3.3.3-3.6-1.7 0-.1-.1-.1-.1-.1-.1 0-.1 0-.1.9 0 .6.2 1.3.5 1.9-2.7.3-5.8-1-5.8-4.9 0-.5.2-1.1.7-1.6.1-.1 0-.2 0-.2-.1 0-.4.2-.6.4-.3.4-.5.8-.6 1.3-1.7.6-2.7.6-3.6.5-1-.1-2.2-.9-2.7-1.5l-.6-.9c-.3-.6-.6-1.4-.5-2.3.1-1.5.9-2.8 2-3.4 1.5-.8 3.5-.7 4.2-.6.4.1.8.2 1.2.5l.2.1.1.1c.6.5 1 1.3.9 2.4v.1c.1 0 .2-.3.1-.6 0-.4-.1-.9-.3-1.3v-.2c0-.2.1-.3.2-.4.3-.3 1-.4 1.6-.2h.1c0-.1-.4-.5-1.1-.5h-.4c.4-.7 1.5-1.1 2.6-1h.1c0-.1-.3-.2-.6-.2-.5 0-1.1.1-1.6.4.5-.6 1.4-1.2 3-1.4 0-.2-1.2 0-1.5.1.7-2.8 2.2-2.5 2.3-2.7-.4-.1-.8-.7-.4-1.3 1.6.6 2.8.6 3.2.6s1.6-.1 3.3-.7c.2.2.2.5.1.7-.2.7-2.4 1.3-4.5.7l-.3-.1v.1l.3.2c.9.5 2.8.7 3.8.1.9-.4 1.6.7 1.4 1.2.6 0 1.1.4 1.2 1-.3-.4-.4-.4-.5-.5-.2-.1-.4-.1-.5-.1l.3.1c1.2.7 1.8 2 1.7 2.5-.1-.2-.5-.4-.8-.4-.2 0-.3 0-.3.1.1 0 .3.1.4.2.4.3.8.9 1 1.3-.7.7-1 1.5-1.4 2.6-.2.4-.5.8-1 .9h-.4c.6.5 1.2 0 1.6-.2-.1 1 .2 1.3.3 1.3v-.1c-.7-2.1.7-4.2 1.8-4.8 1.5-.9 4.3-1 6.1.6-.3-.1-.7-.2-1-.2-.4 0-.7.1-.6.2m-24.4.1c1 .2 1.8.8 1.6 1.7-.1.3-.3.5-.7.5-.5 0-.9-.3-1.2-.7.1.8.6 1.4 1.4 1.3.5 0 1.1-.5 1.1-.9.4-1.4-.9-2-2.2-1.9m3.4 1c.4 1.1.6 2.8-1.1 3.2-1.4.3-2.6-.7-3.2-1.2.4 1.3 1.8 2.2 3.6 1.8-.4 1.1-1.7 1.5-3.3.6-.5-.2-.8-.5-1-.7.3.8.9 1.4 1.7 1.7 1.2.4 2.4 0 3-.6 1.9-2 .9-4.7.3-4.8m9-5.8c-.8 0-.9.5-1 1.1.4-.3.8-.7.8 0-.3.3-2.1.7-1.6 1.5.3.4 1.3-1.3 1.5-.7.2 1.2-3.4 1.5-3.3 2.5 0 .5 2.8-1.4 3.2-1.3 0 .6-4.2 2.3-5.5 4.6-.1.2-.2.3-.1.3.8-1.2 2.8-2.9 5.4-3.6.8-.2 1.3-3 .6-4.4m.9-.7c-.3.1-.1.6-.1.8 0 1.2 0 2.3-.3 3.3-.1.5-.5 2.1-1.6 4.1.4-.5 2-2.9 2.2-4.8.1-1.1.3-2.5-.2-3.4m1.3 7.1c.8-.3-.4-1.8-.5-2.1.2.1.8.7 1 .5.4-.3-.8-1.9-1.1-2-1.7 2.2.5 2.9.6 3.6m-.2-6.4c-.2.1-.2.6-.2.8.1.6.7.8 1 1.1.1 0 0-.9-.8-1.9m-.2 1.5c-.3.6.5 1.3.7 1.9 1.1.2-.3-1.7-.7-1.9m.9 15.2c-.1.1 1.5-.3 1.8-1.7.1-.9-.4-1.2-.5-1.1v.1c.2.6.1 1.5-.3 2-.3.4-.9.6-1 .7m8.9-8.7c-.1.2 0 .3 0 .4v1c-.4 1.7-1.8 2.3-2.8 1.3 0 0 1.1 2 3.6 1.3.6-.2 1.1-.7 1.4-1.4.3-.7.2-1.3 0-1.7.1.4 0 1-.3 1.6-.3.3-.5.7-.9.9.2-.4.4-.7.5-1s.2-.5.2-.7c0-.8-.4-1.6-.7-1.9.4.9.4 1.7.1 2.5l-.1.2c-.4.5-.9 1.1-1.6 1.1.4-.2.7-.6.9-1.1.3-.9.3-2-.3-2.5"/><path id="path320" class="st4" d="M272.626 723.013c-.2 4.1-.6 7.7-1.5 11.1-.6 2.1-1.8 6.3-4.5 6.9-1.3.3-2.2-.9-2.2-2 0-.9.7-1.4.4-2.3-.3-.6-.7-1.2-.8-1.9l.2-1.6c-.8.1-1.3-.6-2.5-.3-1.1-.5-2.2-.3-2.2-.2h.1c1.2 0 2.3.4 2.6 1 .2.8.1 2-.5 2.5-.7-.1-1-.7-3.5-.6-2 .1-2.5-.3-2.8-1.5-.1.2-.1.4-.1.6.1.7.7 1.1 1.6 1.2.2.3.2.5.2.8h-1c-1-.1-2.3-.7-2.6-1.6 0-.1-.1-.3-.1-.5s0-.3.1-.4l.1-.3c.3-.7 1.1-1 2.7-1.1 0 0 .1 0 .1-.1s-.3-.1-.7-.1c0 0-1.5 0-2.2.8 0-.1-.1-.1-.1-.1-.4-.4-1.1-.8-1.8-.9-.7 0-1.5.4-1.8.8-1 1.3.3 3.5.3 4.4-.1 2.2-3.1 1.2-4.2.6-1.3-.7-2.4-1.8-3.3-2.9-.5-.6-1-1.3-1.3-1.9.4-.2 1.6-.7 2.4-.7h.3c.5 0 1.3.1 2 .6.1 0 .3.3.7.3.3 0 .5-.1.8-.3.2-.1 2.1-1.7 2.7-2.1.1-.1.3-.2.3-.5 0-.2 0-.4-.2-.7-.1-.2-1.1-1.3-1.7-2.8-.1-.2-.2-.5-.2-.7-.2-.8-.4-2.1.7-2.5 0 0 1.3-.3 1.2 1.8 0 0 .2-1.3 1.2-1.3.4 0 .8.4.7 1.3-.1.9-.1 1.8.1 2.9v.1s0-.1.1-.5c.1-.5-.3-5.4 3.6-8.7 0 0-1.7.8-2.8 2.9-1.1-.6-2-1.5-1.6-3.3.2-.6.6-1.2 1-1.4v-.1c0-.1-.2-.2-.6.1 0 .1-.1.2-.1.2-.2.2-.3.4-.3.6-.5.4-.9.8-1.3 1.3-.3.6-.1 2.6-2 2.6h-.6c-.5 1.7-.4 2.8-.3 2.9.4 2.4 2.1 4.5 2.3 4.7.1.1.1.2.1.3 0 .1-.1.2-.1.2-.7.4-2.5 1.9-2.7 2.1-.1.1-.3.2-.5.2s-.4-.2-.4-.2c-.8-.6-1.8-.7-2.3-.7h-.4c-1.1 0-2.5.7-2.7.8-1.9.8-3.3.8-3.6.8s-1.7 0-3.6-.8c-.3-.1-1.6-.8-2.7-.8h-.4c-.5 0-1.5.1-2.2.7 0 0-.2.1-.4.1s-.3-.1-.5-.2c-.2-.2-2.1-1.7-2.7-2.1 0 0-.1-.1-.1-.2l.1-.3c.2-.2 1.9-2.3 2.3-4.7 0-.1.1-.5 0-1.1-.2.5-.3 1-.4 1.3-.1.3-.1.5-.3.7-.3.4-.7.7-1.1 1-.3.2-.7.2-1 .5-.5.3-1 .7-1.4 1.4 0 1.3-.7 2.2-.7 2.2.2.1.9-.5 1-1.8.9.9 1.3 2.3 1.7 3.8.7.9 2.6.6 3.3.4.2 0 .5-.1.6-.2.2-.1.2-.5.5-.6h1c.1-.1.2-.3.3-.5h.2c1 0 2.4.7 2.6.8.1 0 .1 0 .2.1-.4.5-1 .7-1.6.7-.7.1-1.1.7-1.8.9l-1 .1c-1.5-.2-2.6.4-4 .5-1.3.1-1.4-.8-1.9-1.6-.2-.3-.4-.6-.6-.8-.4-.4-.8-.4-1.2-.7h-.1c-.1.5-.3 1.2-.6 1.7l-.1.2c-.7 1.1-1.6 2-3.2 2.4-.3.1-.4.1-.6.3-.3.2-.1.4 0 .5.5.3 1.3.2 1.8.4 1.3.6.8 1.7.3 1.8-.6.1-1.8.4-2 .6-.3.2-.5.7-1 .9-.4.1-.7.1-1.1.1-.3 0-.5-.3-.7-.2.3.4.8.6 1.5.7-.6.2-.4 1.1-.9 1.3-.2 0-.5-.1-.9-.2 0 .3-.2 1.3-.7 1.6-.4.2-.6-.1-.6-.4 0-.2.7-.5.8-1.5l-.3-.2c-.1.4-.3 1-.7 1.3-.4.2-.6-.1-.6-.4 0-.2.6-.5.7-1.3-.1-.1-.3-.2-.4-.4-.9.2-1.1.8-1.3.9-.2 0-.6-.1-.4-.5.2-.5.8-.7 1.2-.8l-.3-.3c-1 .2-1.2.9-1.4.9-.2.1-.6-.1-.4-.5.3-.6 1.3-.8 1.5-.9-.2-.3-.2-.5-.2-.7-.8.1-2.2-.3-1.9-1.2.3-.2 1.2.6 2 .1.6-.9 1.5-.9 1.7-1.1.3-.2.4-.7.5-1.1.2-.7.8-1.3 1.2-2 .5-.7 1-1.5 1.5-2.1.1-.2.1-.4.1-.6-.6-.9-2.3-2-3-2.6-.7-.7-7.4-5.8-8.2-8-.2-.5-.3-1.1-.3-1.8-.4-.2-1.1-.1-1.3.1l.2 1.7c-.1.3-.5.4-.7.3-.5-.2-.6-1.2-.4-1.8.1-.2.3-.4.1-.5-.2-.1-.4.2-.4.5 0-.4-.1-.6-.1-.9.1-.5.7-.5.9-.6 0-.2-.4-.3-.6-.1-.4-.5 0-.8.1-.8.4-.1.8.3 1.1.3.1-.3-.1-.4-.5-.5.7-.8 1.3.6 2 .4.2 0 2.3-2 2-3.5l-.1-.4c-.5-.6-1.2-1-1.8-1.6-1.1-.7 1-5.1.9-7.4-.1-.9.8-.7 1.3-2.2-.5 0-1.1-.1-1.3-.5l-.1-.1c-.1-.2-.1-.3-.1-.5 0-.6.5-1.1 1.1-1.1s1.1.5 1.1 1.1v.2c.2 0 .5 0 .9-.2l1-.5s-3.4-2.9-9-1.2c0 0-2.5.8-1.8 3.1 0 0 .1.4.5.6.1-.3.3-.6.5-.8.2-.1.5-.2.7-.2.7 0 1.3.6 1.3 1.3 0 .3-.1.6-.4.9-.1.1-.1.1-.2.1-.4.3-.9.4-1.8.2 0 0-2.4-.7-1.5-3.3 0 0-1.6.4-2.3-.4 0 0-.2-.2-.2-.6 0-.2.1-.3.2-.5.2-.2.5-.4.8-.4s.6.1.7.4c.1.1.2.2.6-.1 0 0 2.3-2.5 5.6-2.2 0 0 .1-1.7 1.3-2h.2c.3 0 .6.3.6.6s-.3.6-.6.6h-.1c0 .1-.1.6-.1.9 0 0 3.7.5 6.1 2.5 0 0 1.7-.5 2.8-.5 0 0 .2-.4-.6-.5 0 0-1 0-.9-.3 0 0-.1-.3.7-.3 0 0-.1-.3.5-.7 0 0 .4-.2.2-.5 0 0-.7-.4-.5-.9 0 0 .2-.6 1.2-.4 0 0 .3 0 .1-.3 0 0-.5-.5.4-1 0 0 .7-.4 1.1.3 0 0 .1.3.5.1 0 0 2.2-1 3.3.6 0 0 .1.2.4-.2 0 0 1.1-1.4 4.2-1.5.2-.4.6-.6 1-.6.6 0 1 .4 1.1.9.4 0 1.7.1 3.2 1.1 0 0 .5.3 1.1.6 0-.9.7-1.6 1.6-1.6.9 0 1.6.7 1.6 1.6 0 .8-.6 1.4-1.3 1.6 0 0-1.1.3-2.6-.6 0 0-1.2-.8-1.5-.8 0 0 .3 1.4.5 2.9l-.7.1c-.2-1.4-.5-3-1.1-3.1l-.8-.2c0 .1-.1.2-.2.3-.1.2-.4.4-.9.3h-.1c-.4-.1-.6-.4-.7-.8-.2 0-1.6-.3-2.3.3 0 0 1.3.5 1.5.9 0 0 .4.8-.9 1.5 0 0-1 .6-1.3 0 0 0-.1-.3.4-.7 0 0 .5-.5-.4-.4 0 0-.6.1-.8.3 0 0 .2 1.7.6 2.9-.4.1-.7.2-1 .3l-.4-1.2s-.1-1-.4-1.2c0 0-1.3 1.1-.7 2.9l-1.2.4c0-.9.2-2.3 1.3-4.4 0 0-1.1-1.4-2.2-.7 0 0-1.5 1-.6 1.9 0 0 .7.6 1-.1-.3 0-.6-.3-.6-.6 0-.4.3-.6.6-.6s.6.3.6.6 0 .9-.5 1.4c0 0-.6.6-1.5.4 0 0 .9 1.1.9 2.1 0 0 0 .2.1.4l-.7.3c-.1-.9-.3-2.6-1.6-2.2 0 0 .8 1.4 1.3 2.3l-1.5.6s-.1 0-.1.1c.1-.4.2-1.4-.3-1.9 0 0-.6-.6-1.7.3 0 0 1.5 1.2 1.9 1.7-.3.1-.8.3-1.2.3h-.4s-.1 0-.1-.1c0 0-1-.7-1.6-1 0 0-.2-.1-.4.1 0 0-1.2 1.4-.3 2.9 0 0 .5 1.3 1.7 1 0 0 .3 0 .5-.5 0 0-1.1 0-1-.8 0 0 0-.8 1-.8 0 0 1.4.1 1.1 1.8 0 0-.2 1-1 1 0 0 .4.6.1.8 0 0-.3.3-1.1-.2 0 0-.2-.4-1.1-.2 0 0-.6.2-.9-.2 0 0-.2-.1-.2-.7 0 0 .1-.3-.3-.9 0 0-.2-.5-.3-1.2-.3.2-.6.4-.9.4-.5.5-.5 2.7-1 3.8-.1.3.2 1.4.2 2.6 3.4.7 4.6 3.3 5 4.4.5 1.9-.2 3.8-.3 4.3 0 .1.1.1.1 0l.4-.9c1.6-.1 2.7.1 3.5.4h.1c.1 0 .1 0 .2.1l.4.2s.1 0 .1.1c2.4 1.2 3.4 3.2 4.1 4.3-.3.1-1.3.4-1.7.9.9-.1 1.5-.4 2.4-.4 1.3 0 2.1.7 3.5.5 0-.1.2-.7 1.1-1 0-.8.1-1.5.3-2.1.1-.2.1-.3.1-.3s-1.1-.8-.8-1.5c.1-.2.1-.4.2-.5h-.2c-.2.1-.3-.2-.6-.6-.1-.2-.7-1.3-.3-1.4h.3c-.2-1.2-.2-2.8.8-4.2.1-.1 1.6-2.6 5.7-2.6h.1c.4 0 4-.1 5.3-2.5.1-.1.4-.5.7-.5s.6.4.7.5c1.3 2.4 4.9 2.5 5.3 2.5h.1c4.1 0 5.6 2.5 5.7 2.6.5.7.7 1.5.8 2.2.8.4.8 2.3.8 2.6.2-.3.7-1.2 1.7-1.5-.2-.9-.1-2.3.8-2.5.3 0 .5.4.4.7.8-2.3.1-3.7.7-3.8.8 0 .8 1.3.9 1.4.1-.1.3-.5.3-1.1 0-.7-.1-1.4.2-1.5 1.1-.2.6 2.9 1.4 2.6-.2-1.4 0-2.1.6-2.4 0-.6-.1-1.2-.4-1.2-1.5-.3-2.9.9-4.2.5l-.1.1c-2.4 1.3-4 .3-4.1.4-.7.6-.9-.3-1.1-.2-1.3.7-2-.5-2.3-.6-.3 0-.8.6-1.4-.8-.3-.6-1.7-.9-1.8-.9-.6-.1-.7.3-.7.3-.1.2-.1.3-.2.4l-.2.3c-.2.2-.4.2-.6.2-.4 0-.8-.4-.8-.8 0-.2.1-.4.2-.5 0 0 .2.1.4.1.3 0 .6-.3.6-.6 0-.6-.9-1.3-.9-1.3-.6-.5-1.3.2-1.3.2-.4.3-.7.4-.7.4-.4 0-.6-.5-.6-.5s-.2.4-.6.5c0 0-.3 0-.7-.4 0 0-.7-.7-1.3-.2 0 0-1 .7-.9 1.3 0 .3.3.5.6.6.2 0 .3-.2.4-.1.1.1.2.3.2.5 0 .4-.3.8-.8.8-.2 0-.4 0-.6-.2-.1-.1-.2-.2-.2-.3l-.2-.4s-.1-.4-.7-.3c-.1 0-1.5.3-1.8.9-.6 1.4-1.1.8-1.4.8-.3.1-1 1.3-2.3.6-.2-.1-.5.8-1.1.2-.1-.1-1.3.6-3.3-.1-.1.2-.7.3-.9.4-.4.1-.8.4-1 .6-.5.3-1.4.1-2.1.2-.2 0-.6.2-.8.3-.8.5-1.7 1.1-2.2 1.8-.1.1-.3.4-.3.4-.2.3-.4.5-.6 1.1-.3 1 .1 2.1.3 3.1.1.5.1.7.1 1-.8-.2-1.8-.2-3.1.1.3-1.1.4-2.2.3-3.1.5-.4.8-1 .8-1.3.1-.5-.2-1 .1-1.4.4-.6 1.4-1.2 2-1.6.2-.1 3-2.3 3.3-2.3.4-.1.6.2 1 .2.1 0 .2-.1.3-.2 0 0 .2-.3.6-.5-.8-.5-1.9-1.1-2.6-1.5 0 0-1.2-.7-.7-.7 0 0 .9 0 .9-.2 0 0-.4-.1-.9-.4 1.3-.5 2.6-.9 4-1.2.9.8 2 1.8 3 2.2 0 0 1.6-.1 2.1 1.1.2.3.8-.7 2.2.1.1.1.3-.3.7-.4.1 0-.6-.1-.4-.7 0-.1-1.1 0-1.5-.6-.1-.2-2.5-.1-4.6-1.9l1.2-.3c.7.5 1.6.9 2.6.8 0 0 1.3-.1 1.9-1.6.8-.1 1.6-.2 2.5-.3.2.1 1.4.7.9 1.3 0 0-.3.3-.7-.1 0 0-.3-.3-.4.2 0 0 0 .2-.2.4 0 0-.2.3.2.2 0 0 .4-.1.8-.1s.7.4.7.8-.3.8-.7.8c0 0-.1 0-.1-.1.1-.1.1-.1.1-.2 0-.2-.1-.3-.3-.3-.5.1-.3 1 .3 1.1 0 0 .6 0 1-.6 0 0 1.1-1.6 2.1-2 .1 0-.2-.6.5-.8.1 0 0-.5.6-.5l.3-.6h3.4c.2.3.3.6.3.6.7 0 .6.4.6.5.6.2.4.8.5.8 1 .3 2.1 2 2.1 2 .5.6 1 .6 1 .6.6 0 .8-.9.3-1.1-.1 0-.3.1-.3.3 0 .1 0 .2.1.2l-.1.1c-.4 0-.7-.4-.7-.8s.3-.8.7-.8c.4-.1.8.1.8.1.5.2.2-.2.2-.2l-.2-.4c-.1-.4-.4-.2-.4-.2-.5.5-.8.1-.8.1-.5-.7.6-1.2.9-1.3l2.5.3c.5 1.6 1.9 1.6 1.9 1.6 1 .1 1.8-.3 2.6-.8l1.2.3c-2.1 1.8-4.5 1.8-4.6 1.9-.4.6-1.5.6-1.5.6.1.6-.5.7-.4.7.4.1.6.5.7.4 1.4-.8 2 .3 2.2-.1.5-1.1 2.1-1.1 2.1-1.1 1.1-.4 2.2-1.3 3-2.2 1.2.3 2.5.7 3.6 1.1 0 .1 0 .1-.1.2v.1c0 .1-.1.2-.2.3-.3.5-.8 1-.9 1.2v.1s.9 1.4 1.5.4c0-.1-.1-.4-.6-.4 0 0 .7-1 .8-1.7.3.1.5.2.6.2h.2c-.4.7-.9 1.1-.7 1.3.1.1.6-.2.9.2.1.1.1.6.2 1.1.3-.2.8-.2.9-.2.9 0 1.3 1.4 1 1.9.1.1.7.5.7.4.3-.7 1.8-1.4 1.7.1.2-.7.4-1.5 1.3-1.5.6.1.2 1.2.4 1.2.2-.3.4-1.5 1.3-1.2.3.1.5.3.5.7 0 1.1-3.2 7.1-3.5 9.7-.1 0-.1 0-.2.1-.3.2-.3.7-.3 1v.1c-.4.1-1 .4-1.1 1.5 0 1 .4 1.5.5 1.5v-.1c-.3-.8-.4-1.7.1-2.2.1-.1.3-.2.6-.2-.3-.1-.1.1-.1 0v-.1c-.3-.5-.3-1.3 0-1.6.2-.1.4-.2.6-.2.9.3 1.4 2.1 1.6 2.6.6-.1-1-3.6.2-4.4.5 0 .8.6 1 1.1.4-1-1.3-3.2-.1-3.7.7-.2 1 1.7 1 1.5.2-2.9-1.3-4.3-.3-4.7.8-.4 1.1 2 1.1 1.7 0-3.1-1.6-3.9-.9-4.5.8-.3 1.3 1.6 1.3 1.1-.1-2.8-1.5-3.5-.8-4.4.7-1 2 1.8 2.1 1.3.1-.6-1.5-3.9-.6-4.1.8-.2 1 .9 1.1 1.1 2.4 8 2.5 15.8 2.3 18.4m-23.7 14.6h-.1c-.6.3-1.8.3-2.7-.2-.6-.3-1.1-1-1.2-1-.1-.1 1 1.7 2.9 1.8 1.1.1 1.2-.5 1.1-.6m4-5.2c-.3-.5-.6-1-1.2-1.1-1-.2-2.1.6-2.1.8-.1.1.9-.4 1.8-.4.6 0 1.1.5 1.5.7 0 .2.1.1 0 0m-44.8-28.8c.1-.1.3-.2.5-.3l.1-.1c-.1-.2-.3-.2-.5-.1s-.4.2-.5.3c-.2-.3.1-.5.3-.7 0-.1-.1-.1-.2-.1h-.4c-.3.1-.4.6-.4.9 0 .2-.1.6-.5.8.6.3 1.6-.7 1.6-.7m5.7 34.4c.9-.3 1 .8 1.2.6.4-.6-.5-1.4-1.2-.6m1.2.9c-.4 0-.7.3-1 0 0 0-.5-.4-.4-.9 0-.3-.4-.5-.6-.3-.3.8.9 1.9 1.2 1.9.7.3 1.2-.2 2-.3.5-.1.9 0 1.3 0 .8-.1.6-.7.5-.8-.7-.2-1.1.3-1.7.4-.4.2-.9 0-1.3 0m3.2-4.9c-1 .4-2.2.5-2.6 1.3 1.5-.1 2.9-.1 3.8-.7 0 0 .1 0 .1-.1.3-.2 1.1-.8 1.4-1.9-1.2.9-1.7 1-2.7 1.4m7.5-8.7c-.3-.1-.3 1.2-1.9.9-.8-.4-1.4-.1-2 .1 2.3 1.2 4.1 0 3.9-1m22.5-3.3h.6c.1 0 .3-.4.4-.8 0-.1.2-.7.4-.9.2-.2.1-.6-.4-.5-.5.1-1.1.9-.9 1.7h-.7000000000000001s-.1 0-.1-.1c0 0-.1 0-.1-.1s0-.3-.2-.3c0 .3.2.6.5.8.1.1.3.2.5.2m-22.2-2.9c0-.2-.1-.2-.1-.3v-.1l-.1-.1s0-.1-.1-.1l-.1-.2-.1-.1h-.1s-.1-.1-.2-.1-.1 0-.2-.1h-.2v.2c0 .2.2.4.3.7l.2.6c.2 0 .4-.1.5.2-.4.3-.4.9.1 1.3.7.7 0 2.1.1 2.2.2-.2.3-.6.4-1.2v-2.2c0-.1 0-.1-.1-.2v-.1c-.2-.3-.2-.3-.3-.4m21.2-4.8c-.1-.2-1.5-2.4-5.1-2.4-.3 0-3.2-.1-4.2-1.9l-.1-.1c-.1-.2-.5-.8-.6-1.1 0-.1-.1-.1-.2-.1s-.1 0-.2.1c-.2.3-.5.9-.6 1.1 0 .1-.1.1-.1.1-1 1.8-3.8 1.9-4.2 1.9-3.6 0-4.9 2.1-5.1 2.4-1.8 2.6-.1 5.6-.1 5.6 1.5 2.5 1.3 4.3 1.3 4.6 0 2.8-1.8 4.9-2 5.1s-.2.4-.2.6c0 .3.2.4.3.4.4.3 1.2.8 1.6 1l.2.1h.1c.1 0 .2-.1.4-.2.3-.3 1-.8 2.1-.8h.6c.6.1 1.6.6 1.6.6.3.2.7.3.8.4h.1c1.6.7 2.9.7 3.3.7.4 0 1.7 0 3.3-.7h.1c.2-.1.5-.2.8-.4 0 0 1-.5 1.6-.6h.6c1.1 0 1.8.5 2.1.8.2.1.3.2.4.2 0 0 .1 0 .2-.1 0 0 .1 0 .2-.1l1.6-1s.2-.1.2-.4c0-.1 0-.3-.2-.6-.2-.2-2-2.4-2-5.1 0-.4-.2-2.1 1.3-4.6.2 0 1.8-2.9.1-5.5m2.5 2.2l-.1-.1-.1-.1s-.1 0-.1-.1h-.4s-.1 0-.1.1h-.1l-.1.1h-.1s-.2.4.1.4l.1-.1h.30000000000000004v.6c0 .6 0 1.5.2 1.8l.1.1h.2v-1.8c.4-.1.3-.6.1-.9m6.6-1.3c-1.9-.1-3.1 1.6-3 1.5.1 0 .6-.6 1.3-.9.9-.3 2.1-.2 2.7.3h.1c.1 0 0-.7-1.1-.9m-34.5-5.5c0-.1-.1-.1-.1-.1l-.3-.1c-.2 0-.4 0-.6.1 0-.1.1-.2.2-.3 0 0 .1-.1.2-.1l.3-.1c0-.2-.3-.3-.5-.3-.4 0-.6.4-.7.6 0 0-.1 0-.1.1 0 0-.1 0-.1.1-.3.2-.8.2-1.2.3.1.8 2.3.3 2.4.2.1-.3.4-.3.5-.4m33.7-2v-.1c-.4 0-1.3.6-1.3.6-.1.1-.5.3-.8.2-.4-.2-.5-.5-.7-.7 0 .1 0 .1-.1.2v.5s0 .1.1.2c0 0 0 .1.1.1l.1.1.1.1c.2.1.4.1.7.1.3 0 .7-.1.9-.4.3-.3.9-.3 1.3-.4-.2 0-.3-.3-.4-.5m8.2 24.5c-.3-.2-.9-.5-1.3-.6-.8-.2-1.5.1-1.8.6.6.2 1.1-.2 1.8-.1l.7.1c.3 0 .5.3.7.3.1-.1-.1-.2-.1-.3m7.3-21c-.2-.8-.5-2.7-.6-2.6 1.6 14.8.7 18.5.4 18.4-.2-.1-.5-1.8-1.3-1.3s1.8 3.8.8 5.6c-.3.3-.5-.4-.9-.3-1.1.4.6 3.2.3 3.5-.3.2-1.1.4-1.1 1.4 0 .5.3.9-.1 1.2-.3.3-.2-.3-.6-.1-.5.5 0 1.2-.3 1.6-.1.1-.5-.3-.8-.1-.3.2.2.7-.2.9-.4-.1-1.1-.6-1-1.4.1-.4.6-.7.5-1.1 0-.4-.5-.9-.6-1.1-.7-1.6.5-1.9.3-2.5 0-.3-.5-.4-.8-.3-.4.2-.5 1.6-.4 2.2.2.7 1.1 1.5 1.1 1.8 0 .4-.4.9-.5 1.4-.1.9.6 1.8 1.4 1.6.6-.1.9-.6 1.3-1 .1-.2.3-.3.4-.4 1-1.2 1.8-3.4 2.3-5.1 1.4-5.2 2-13.3.4-22.3"/></g></g></g><g id="Gobierno_de_Chile_1_"><path class="st9" d="M319.8 5h193v300h-193z"/><path class="st4" d="M346.3 288.5c-2 .9-3.5 1.3-5.2 1.3-4.3 0-6.5-3.1-6.5-7.7 0-4.4 2.2-7.3 6.7-7.3 2.2 0 3.7.4 4.8 1.3l-1.1 2.2c-.9-.7-2.2-.9-3.5-.9-2.6 0-3.7 2-3.7 4.8 0 3.5 1.3 5.3 3.7 5.3.9 0 1.7-.2 2.4-.4v-2.6h-2l-.2-2.2h4.8v6.2h-.2zM358 284.3c0 3.5-1.7 5.5-5 5.5-3 0-5-2-5-5.5 0-3.1 1.7-5.5 5-5.5s5 2.4 5 5.5zm-2.8 0c0-2.6-.7-3.5-2-3.5s-2 .9-2 3.5c0 2.4.7 3.5 2 3.5s2-.9 2-3.5zM362.6 280.1c.4-.7 1.5-1.3 2.8-1.3 2.4 0 4.1 1.8 4.1 5.5s-2.2 5.5-4.6 5.5c-1.5 0-2.4-.7-3-1.5l-.4 1.3h-1.5v-15h2.8v3.7l-.2 1.8zm.2 6.6c.4.7 1.1 1.1 2 1.1 1.3 0 2.2-.9 2.2-3.5 0-2.4-.9-3.5-2.2-3.5-.7 0-1.5.4-2 .9v5zM372.5 289.6v-8.6l-1.3-.2v-1.8h3.9v10.6h-2.6zm0-14.8h2.8v2.6h-2.8v-2.6zM380.4 285.2c0 1.8.9 2.6 2.6 2.6 1.1 0 2.2-.4 3-.9l.4 2c-.9.4-2.4 1.1-3.9 1.1-3.3 0-5.2-2-5.2-5.5 0-3.3 1.5-5.5 5-5.5 3.3 0 4.3 2.4 4.3 5.1v1.3h-6.3l.1-.2zm1.9-4.2c-1.3 0-2 1.3-2 2.4h3.9c-.2-1.3-.6-2.4-1.9-2.4zM394.9 281.4l-1.3-.2c-.7 0-1.3.2-2 .7v7.7h-2.8v-10.6h2l.2 1.3c.2-.7 1.3-1.5 2.4-1.5.7 0 1.1 0 1.3.2l.2 2.4zM402.9 289.6v-6.4c0-1.5-.7-2.4-2-2.4-.7 0-1.3.2-1.7.7v7.9h-2.8v-10.6h2l.4 1.3c.7-.7 1.7-1.3 3.3-1.3 2.6 0 3.7 1.5 3.7 4.2v6.6h-2.9zM417.5 284.3c0 3.5-1.7 5.5-5 5.5-3 0-5-2-5-5.5 0-3.1 1.7-5.5 5-5.5s5 2.4 5 5.5zm-2.8 0c0-2.6-.7-3.5-2-3.5s-2 .9-2 3.5c0 2.4.7 3.5 2 3.5s2-.9 2-3.5zM431 279.9c-.2-.7-.2-1.1-.2-2v-3.3h2.8v15h-2.2l-.2-1.1c-.4.7-1.5 1.3-2.8 1.3-2.4 0-4.3-1.8-4.3-5.5 0-3.5 2-5.5 4.6-5.5.7 0 1.8.4 2.3 1.1zm-.3 1.5c-.4-.2-1.1-.4-2-.4-1.3 0-2.2.9-2.2 3.3s.9 3.5 2.2 3.5c.7 0 1.3-.4 2-.9v-5.5zM438.3 285.2c0 1.8.9 2.6 2.6 2.6 1.1 0 2.2-.4 3-.9l.4 2c-.9.4-2.4 1.1-3.9 1.1-3.3 0-5.2-2-5.2-5.5 0-3.3 1.5-5.5 5-5.5 3.3 0 4.3 2.4 4.3 5.1v1.3h-6.3l.1-.2zm2-4.2c-1.3 0-2 1.3-2 2.4h3.9c0-1.3-.4-2.4-1.9-2.4zM457.7 289.8c-4.1 0-6.3-2.6-6.3-7.5 0-4.6 2.2-7.5 6.3-7.5 2 0 3.7.4 5 1.3l-1.1 2.2c-.7-.7-2-1.1-3.5-1.1-2.4 0-3.7 1.8-3.7 4.8 0 3.3 1.3 5.1 3.5 5.1 1.3 0 2.8-.7 3.7-1.3l.9 2.2c-1.4 1.4-2.9 1.8-4.8 1.8zM464.4 289.6v-15h2.8v4c0 .7-.2 1.3-.2 1.5.7-.7 1.5-1.5 3-1.5 3 0 3.9 1.5 3.9 4.2v6.6h-2.8v-6.4c0-1.5-.7-2.4-2-2.4-.7 0-1.3.2-2 .7v7.9h-2.8l.1.4zM477 289.6v-8.6l-1.3-.2v-1.8h3.9v10.6h-2.6zm-.2-14.8h2.8v2.6h-2.8v-2.6zM482.2 286.9v-12.1h2.8v11.9c0 .9.4 1.1 1.7 1.1v2s-.9.2-1.5.2c-2.1-.2-3-1.3-3-3.1zM490.9 285.2c0 1.8.9 2.6 2.6 2.6 1.1 0 2.2-.4 3-.9l.4 2c-.9.4-2.4 1.1-3.9 1.1-3.3 0-5.2-2-5.2-5.5 0-3.3 1.5-5.5 5-5.5 3.3 0 4.3 2.4 4.3 5.1v1.3h-6.3l.1-.2zm1.9-4.2c-1.3 0-2 1.3-2 2.4h3.9c-.1-1.3-.3-2.4-1.9-2.4z"/></g><path class="st9" d="M526.2 4.8h194.6v300.2h-194.6z"/><path class="st4" d="M553.9 286.4c-2 .9-3.5 1.3-5.3 1.3-4.4 0-6.6-3.1-6.6-7.7 0-4.4 2.2-7.2 6.8-7.2 2.2 0 3.7.4 4.8 1.3l-1.1 2.2c-.9-.7-2.2-.9-3.5-.9-2.6 0-3.7 2-3.7 4.8 0 3.5 1.3 5.3 3.7 5.3.9 0 1.8-.2 2.4-.4v-2.6h-2l-.2-2.2h4.8v6.1h-.1zM565.5 282.2c0 3.5-1.8 5.5-5 5.5-3.1 0-5-2-5-5.5 0-3.1 1.8-5.5 5-5.5 3.3.1 5 2.5 5 5.5zm-2.8 0c0-2.6-.7-3.5-2-3.5s-2 .9-2 3.5c0 2.4.7 3.5 2 3.5s2-.8 2-3.5zM570.3 278.1c.4-.7 1.5-1.3 2.8-1.3 2.4 0 4.2 1.8 4.2 5.5s-2.2 5.5-4.6 5.5c-1.5 0-2.4-.7-3.1-1.5l-.4 1.3h-1.5v-14.9h2.8v3.7l-.2 1.7zm.2 6.5c.4.7 1.1 1.1 2 1.1 1.3 0 2.2-.9 2.2-3.5 0-2.4-.9-3.5-2.2-3.5-.7 0-1.5.4-2 .9v5zM580.4 287.5v-8.5l-1.3-.2v-1.8h3.9v10.5h-2.6zm-.2-14.7h2.8v2.6h-2.8v-2.6zM588.1 283.1c0 1.8.9 2.6 2.6 2.6 1.1 0 2.2-.4 3.1-.9l.4 2c-.9.4-2.4 1.1-3.9 1.1-3.3 0-5.3-2-5.3-5.5 0-3.3 1.5-5.5 5-5.5 3.3 0 4.4 2.4 4.4 5v1.3h-6.3v-.1zm1.9-4.1c-1.3 0-2 1.3-2 2.4h3.9c.1-1.3-.3-2.4-1.9-2.4zM602.7 279.4l-1.3-.2c-.7 0-1.3.2-2 .7v7.7h-2.8v-10.5h2l.2 1.3c.2-.7 1.3-1.5 2.4-1.5.7 0 1.1 0 1.3.2l.2 2.3zM611 287.5v-6.3c0-1.5-.7-2.4-2-2.4-.7 0-1.3.2-1.8.7v7.9h-2.8v-10.5h2l.4 1.3c.7-.7 1.8-1.3 3.3-1.3 2.6 0 3.7 1.5 3.7 4.2v6.6l-2.8-.2zM625.5 282.3c0 3.5-1.8 5.5-5 5.5-3.1 0-5-2-5-5.5 0-3.1 1.8-5.5 5-5.5s5 2.4 5 5.5zm-2.9 0c0-2.6-.7-3.5-2-3.5s-2 .9-2 3.5c0 2.4.7 3.5 2 3.5 1.4 0 2-.9 2-3.5zM639.3 277.9c-.2-.7-.2-1.1-.2-2v-3.3h2.8v14.9h-2.2l-.2-1.1c-.4.7-1.5 1.3-2.8 1.3-2.4 0-4.4-1.8-4.4-5.5 0-3.5 2-5.5 4.6-5.5.9.1 1.7.5 2.4 1.2zm-.4 1.5c-.4-.2-1.1-.4-2-.4-1.3 0-2.2.9-2.2 3.3s.9 3.5 2.2 3.5c.7 0 1.3-.4 2-.9v-5.5zM646.7 283.1c0 1.8.9 2.6 2.6 2.6 1.1 0 2.2-.4 3.1-.9l.4 2c-.9.4-2.4 1.1-3.9 1.1-3.3 0-5.3-2-5.3-5.5 0-3.3 1.5-5.5 5-5.5 3.3 0 4.4 2.4 4.4 5v1.3h-6.3v-.1zm2-4.1c-1.3 0-2 1.3-2 2.4h3.9c-.1-1.3-.6-2.4-1.9-2.4zM666 287.7c-4.2 0-6.3-2.6-6.3-7.4 0-4.6 2.2-7.4 6.4-7.4 2 0 3.7.4 5 1.3l-1.1 2.2c-.7-.7-2-1.1-3.5-1.1-2.4 0-3.7 1.8-3.7 4.8 0 3.3 1.3 5 3.5 5 1.3 0 2.8-.7 3.7-1.3l.9 2.2c-1.4 1.3-2.9 1.7-4.9 1.7zM673 287.5v-14.9h2.8v3.9c0 .7-.2 1.3-.2 1.5.7-.7 1.5-1.5 3.1-1.5 3.1 0 3.9 1.5 3.9 4.2v6.6h-2.8v-6.3c0-1.5-.7-2.4-2-2.4-.7 0-1.3.2-2 .7v7.9h-2.8v.3zM685.5 287.5v-8.5l-1.3-.2v-1.8h3.9v10.5h-2.6zm0-14.6h2.8v2.6h-2.8v-2.6zM690.7 284.9v-12h2.8v11.8c0 .9.4 1.1 1.8 1.1v2s-.9.2-1.5.2c-2.2-.3-3.1-1.4-3.1-3.1zM699.5 283.1c0 1.8.9 2.6 2.6 2.6 1.1 0 2.2-.4 3.1-.9l.4 2c-.9.4-2.4 1.1-3.9 1.1-3.3 0-5.3-2-5.3-5.5 0-3.3 1.5-5.5 5-5.5 3.3 0 4.4 2.4 4.4 5v1.3h-6.3v-.1zm2-4.1c-1.3 0-2 1.3-2 2.4h3.9c0-1.3-.4-2.4-1.9-2.4zM352.5 42.5l-.2-14.9c-.5 2.3-.9 4.4-1.4 5.8l-2.3 9.1h-4.9l-2.8-11.7c-.2-1.2-.5-2.3-.7-3.3h-.2l-.2 14.9h-3.7l.7-18.9h6.3c.5 1.4 2.3 9.3 3.3 15.4h.2c1.2-6.1 3.5-14 4-15.4h5.6l.7 18.9h-4.4zM360.9 42.5v-11l-1.6-.2v-2.3h5.1v13.5h-3.5zm0-19.1h3.7v3.3h-3.7v-3.3zM376.3 42.5v-8.2c0-2.1-.7-3-2.3-3-.9 0-1.6.5-2.3.9v10.3h-3.7v-13.5h2.6l.5 1.6c.7-.9 2.3-1.9 4.2-1.9 3.5 0 4.9 2.1 4.9 5.4v8.4h-3.9zM384 42.5v-11l-1.4-.2v-2.3h5.1v13.5h-3.7zm0-19.1h3.7v3.3h-3.7v-3.3zM394.1 32.5c0 2.1 5.8 1.4 5.8 5.8 0 2.6-1.9 4.4-5.4 4.4-1.6 0-3.3-.5-4-.9l.7-2.6c.7.5 1.9.9 3.3.9 1.2 0 2.1-.7 2.1-1.4 0-2.3-5.8-1.6-5.8-6.3 0-2.1 1.6-3.7 5.1-3.7 1.4 0 2.8.2 3.7.7l-.5 2.6c-.9-.5-2.1-.7-3.3-.7-1 0-1.7.5-1.7 1.2zM407.8 43c-2.3 0-4.2-1.4-4.2-4.9v-6.5h-2.1v-2.6h2.1v-2.3l3.5-1.2v3.5h3.7v2.6h-3.7v6.8c0 .9.5 1.6 1.4 1.6.7 0 1.6-.2 2.1-.5l.5 2.6c-.4.2-1.6.9-3.3.9zM416.3 36.7c0 2.1 1.2 3.3 3.5 3.3 1.4 0 2.8-.5 4-1.2l.7 2.6c-1.2.7-3 1.4-5.1 1.4-4.2 0-6.8-2.6-6.8-7 0-4.2 2.1-7 6.3-7 4.2 0 5.8 3 5.8 6.5v1.6h-8.4v-.2zm2.5-5.4c-1.9 0-2.6 1.6-2.6 3.3h4.9c.3-1.6-.4-3.3-2.3-3.3zM435.2 32c-.5-.2-1.2-.2-1.6-.2-.9 0-1.9.5-2.3.9v9.8h-3.5v-13.5h2.6c.2.7.2 1.2.5 1.9.5-.9 1.6-2.1 3.3-2.1.7 0 1.2 0 1.6.2-.4.9-.4 2.1-.6 3zM438.7 42.5v-11l-1.6-.2v-2.3h5.1v13.5h-3.5zm-.3-19.1h3.7v3.3h-3.7v-3.3zM457.6 35.8c0 4.7-2.3 7-6.3 7s-6.3-2.3-6.3-7c0-4 2.3-7 6.3-7 4.2 0 6.3 3 6.3 7zm-3.7 0c0-3.3-.9-4.4-2.6-4.4s-2.6 1.2-2.6 4.4c0 3.3.9 4.4 2.6 4.4 1.9 0 2.6-1.2 2.6-4.4zM341.8 70.6c-2.6 0-4.7-.9-6.1-2.1l1.4-2.8c1.2.9 3 1.6 4.7 1.6 1.6 0 2.8-1.2 2.8-2.6 0-4-8.6-2.1-8.6-8.6 0-2.8 2.3-5.1 6.5-5.1 2.1 0 4 .5 5.6 1.4l-1.2 2.8c-.9-.7-2.6-1.2-4.4-1.2-.5 0-.7 0-.9.2-1.4.2-1.9.9-1.9 1.6 0 3.3 8.9 2.1 8.9 8.4-.1 3.6-2.6 6.4-6.8 6.4zM354.4 64.5c0 2.1 1.2 3.3 3.5 3.3 1.4 0 2.8-.5 4-1.2l.7 2.6c-1.2.7-3 1.4-5.1 1.4-4.2 0-6.8-2.6-6.8-7 0-4.2 2.1-7 6.3-7s5.8 3 5.8 6.5v1.6h-8.4v-.2zm2.5-5.4c-1.9 0-2.6 1.6-2.6 3.3h4.9c.3-1.7-.4-3.3-2.3-3.3zM376.6 69.4c-.7.5-2.6 1.2-4.7 1.2-4 0-6.5-2.3-6.5-7 0-4.4 2.3-7 6.5-7 1.9 0 3.3.5 4.7 1.2l-.9 2.6c-.9-.5-2.3-.9-3.5-.9-1.9 0-3 1.2-3 4.4 0 3 1.2 4.4 3 4.4 1.4 0 2.8-.5 3.7-.9l.7 2zM386.6 59.8c-.5-.2-1.2-.2-1.6-.2-.9 0-1.9.5-2.3.9v9.8h-3.5v-13.5h2.6c.2.7.2 1.2.5 1.9.5-.9 1.6-2.1 3.3-2.1.7 0 1.2 0 1.6.2-.6.9-.6 2.1-.6 3zM392 64.5c0 2.1 1.2 3.3 3.5 3.3 1.4 0 2.8-.5 4-1.2l.7 2.6c-1.2.7-3 1.4-5.1 1.4-4.2 0-6.8-2.6-6.8-7 0-4.2 2.1-7 6.3-7 4.2 0 5.8 3 5.8 6.5v1.6h-8.4v-.2zm2.5-5.4c-1.9 0-2.6 1.6-2.6 3.3h4.9c.1-1.7-.4-3.3-2.3-3.3zM408.3 70.6c-2.3 0-4.2-1.4-4.2-4.9v-6.5h-2.1v-2.6h2.1v-2.3l3.5-1.2v3.5h3.7v2.6h-3.7v6.8c0 .9.5 1.6 1.4 1.6.7 0 1.6-.2 2.1-.5l.5 2.6c-.7.4-1.9.9-3.3.9zM422.6 70.3l-.5-1.6c-.7.9-2.1 1.9-4 1.9-2.8 0-4.7-1.6-4.7-4.4 0-2.6 1.9-4 5.1-4h2.8v-.7c0-1.6-.9-2.3-2.3-2.3-1.6 0-3 .5-4.2.9l-.9-2.6c1.4-.5 3.3-1.2 5.4-1.2 4 0 5.6 1.9 5.6 5.1v8.9h-2.3zm-1-5.8h-2.3c-1.6 0-2.3.7-2.3 1.6 0 1.2.7 2.1 2.1 2.1.9 0 1.6-.5 2.3-.9v-2.8h.2zM435.9 59.8c-.5-.2-1.2-.2-1.6-.2-.9 0-1.9.5-2.3.9v9.8h-3.5v-13.5h2.6c.2.7.2 1.2.5 1.9.5-.9 1.6-2.1 3.3-2.1.7 0 1.2 0 1.6.2-.6.9-.6 2.1-.6 3zM437.5 54.7l-.5-2.1 7-1.9c0 .5.5 2.3.5 2.6l-7 1.4zm1.6 15.6v-11l-1.6-.2v-2.3h5.1v13.5h-3.5zM454.6 70.3l-.5-1.6c-.7.9-2.1 1.9-4 1.9-2.8 0-4.7-1.6-4.7-4.4 0-2.6 1.9-4 5.1-4h2.8v-.7c0-1.6-.9-2.3-2.3-2.3-1.6 0-3 .5-4.2.9l-.9-2.6c1.4-.5 3.3-1.2 5.4-1.2 4 0 5.6 1.9 5.6 5.1v8.9h-2.3zm-1-5.8h-2.3c-1.6 0-2.3.7-2.3 1.6 0 1.2.7 2.1 2.1 2.1.9 0 1.6-.5 2.3-.9v-2.8h.2zM351.1 96.7c-2.6 1.2-4.7 1.6-7 1.6-5.6 0-8.2-4-8.2-9.8 0-5.6 2.8-9.6 8.6-9.6 2.8 0 4.7.7 6.1 1.6l-1.6 2.8c-1.2-.7-2.6-1.2-4.7-1.2-3.3 0-4.9 2.6-4.9 6.3 0 4.4 1.6 6.8 4.7 6.8 1.2 0 2.3-.2 3.3-.7v-3.5h-2.6l-.2-2.8h6.1v8.4h.4zM357.2 92.3c0 2.1 1.2 3.3 3.5 3.3 1.4 0 2.8-.5 4-1.2l.7 2.6c-1.2.7-3 1.4-5.1 1.4-4.2 0-6.8-2.6-6.8-7 0-4.2 2.1-7 6.3-7s5.8 3 5.8 6.5v1.6h-8.4v-.2zm2.5-5.4c-1.9 0-2.6 1.6-2.6 3.3h4.9c.1-1.9-.4-3.3-2.3-3.3zM376.8 98.1v-8.2c0-2.1-.7-3-2.3-3-.9 0-1.6.5-2.3.9v10.3h-3.7v-13.5h2.6l.5 1.6c.7-.9 2.3-1.9 4.2-1.9 3.5 0 4.9 2.1 4.9 5.4v8.4h-3.9zM386.6 92.3c0 2.1 1.2 3.3 3.5 3.3 1.4 0 2.8-.5 4-1.2l.7 2.6c-1.2.7-3 1.4-5.1 1.4-4.2 0-6.8-2.6-6.8-7 0-4.2 2.1-7 6.3-7s5.8 3 5.8 6.5v1.6h-8.4v-.2zm2.6-5.4c-1.9 0-2.6 1.6-2.6 3.3h4.9c0-1.9-.5-3.3-2.3-3.3zM405.5 87.6c-.5-.2-1.2-.2-1.6-.2-.9 0-1.9.5-2.3.9v9.8h-3.6v-13.5h2.6c.2.7.2 1.2.5 1.9.5-.9 1.6-2.1 3.3-2.1.7 0 1.2 0 1.6.2-.5.9-.5 1.8-.5 3zM416 98.1l-.5-1.6c-.7.9-2.1 1.9-4 1.9-2.8 0-4.7-1.6-4.7-4.4 0-2.6 1.9-4 5.1-4h2.8v-.7c0-1.6-.9-2.3-2.3-2.3-1.6 0-3 .5-4.2.9l-.9-2.6c1.4-.5 3.3-1.2 5.4-1.2 4 0 5.6 1.9 5.6 5.1v8.6h-2.3v.3zm-.9-5.8h-2.3c-1.6 0-2.3.7-2.3 1.6 0 1.2.7 2.1 2.1 2.1.9 0 1.6-.5 2.3-.9v-2.8h.2zM421.6 94.6v-15.6h3.5v15.4c0 1.2.7 1.4 2.1 1.4v2.6s-1.2.2-2.1.2c-2.5-.3-3.5-1.7-3.5-4zM444.7 85.5c-.2-.7-.2-1.4-.2-2.6v-4.2h3.5v19.1h-3l-.5-1.4c-.5.9-1.9 1.9-3.5 1.9-3 0-5.6-2.3-5.6-7 0-4.4 2.6-7 5.8-7 1.7 0 2.8.5 3.5 1.2zm-.4 2.1c-.5-.2-1.4-.7-2.6-.7-1.6 0-2.8 1.2-2.8 4.4s.9 4.4 2.8 4.4c.9 0 1.9-.5 2.6-1.2v-6.9zM454.3 92.3c0 2.1 1.2 3.3 3.5 3.3 1.4 0 2.8-.5 4-1.2l.7 2.6c-1.2.7-3 1.4-5.1 1.4-4.2 0-6.8-2.6-6.8-7 0-4.2 2.1-7 6.3-7s5.8 3 5.8 6.5v1.6h-8.4v-.2zm2.6-5.4c-1.9 0-2.6 1.6-2.6 3.3h4.9c.3-1.9-.4-3.3-2.3-3.3zM471.6 94.6v-15.6h3.5v15.4c0 1.2.7 1.4 2.1 1.4v2.6s-1.2.2-2.1.2c-2.3-.3-3.5-1.7-3.5-4zM488.4 98.1l-.5-1.6c-.7.9-2.1 1.9-4 1.9-2.8 0-4.7-1.6-4.7-4.4 0-2.6 1.9-4 5.1-4h2.8v-.7c0-1.6-.9-2.3-2.3-2.3-1.6 0-3 .5-4.2.9l-.9-2.6c1.4-.5 3.3-1.2 5.4-1.2 4 0 5.6 1.9 5.6 5.1v8.6h-2.3v.3zm-1.2-5.8h-2.3c-1.6 0-2.3.7-2.3 1.6 0 1.2.7 2.1 2.1 2.1.9 0 1.6-.5 2.3-.9v-2.8h.2zM342 119.4h-2.1v6.5h-3.7v-18.9h5.6c3.7 0 7.2 1.9 7.2 5.8.2 3.8-2.6 6.6-7 6.6zm0-9.4h-1.9v6.3h1.9c2.1 0 3.5-1.4 3.5-3.3-.2-1.8-1.6-3-3.5-3zM359 115.4c-.5-.2-1.2-.2-1.6-.2-.9 0-1.9.5-2.3.9v9.8h-3.5v-13.5h2.6c.2.7.2 1.2.5 1.9.5-.9 1.6-2.1 3.3-2.1.7 0 1.2 0 1.6.2-.6.9-.6 1.8-.6 3zM364.4 120.1c0 2.1 1.2 3.3 3.5 3.3 1.4 0 2.8-.5 4-1.2l.7 2.6c-1.2.7-3 1.4-5.1 1.4-4.2 0-6.8-2.6-6.8-7 0-4.2 2.1-7 6.3-7 4.2 0 5.8 3 5.8 6.5v1.6h-8.4v-.2zm2.3-5.4c-1.9 0-2.6 1.6-2.6 3.3h4.9c.3-1.9-.2-3.3-2.3-3.3zM378.7 115.9c0 2.1 5.8 1.4 5.8 5.8 0 2.6-1.9 4.4-5.4 4.4-1.6 0-3.3-.5-4-.9l.7-2.6c.7.5 1.9.9 3.3.9 1.2 0 2.1-.7 2.1-1.4 0-2.3-5.8-1.6-5.8-6.3 0-2.1 1.6-3.7 5.1-3.7 1.4 0 2.8.2 3.7.7l-.5 2.6c-.9-.5-2.1-.7-3.3-.7-1.3 0-1.7.5-1.7 1.2zM388.5 125.9v-11l-1.6-.2v-2.3h5.1v13.5h-3.5zm0-19.1h3.5v3.3h-3.7v-3.3h.2zM404.1 113.3c-.2-.7-.2-1.4-.2-2.6v-4.2h3.5v19.1h-3l-.5-1.4c-.5.9-1.9 1.9-3.5 1.9-3 0-5.6-2.3-5.6-7 0-4.4 2.6-7 5.8-7 1.6-.2 2.8.5 3.5 1.2zm-.2 2.1c-.7-.2-1.4-.7-2.6-.7-1.6 0-2.8 1.2-2.8 4.4 0 3.3.9 4.4 2.8 4.4.9 0 1.9-.5 2.6-1.2v-6.9zM413.9 120.1c0 2.1 1.2 3.3 3.5 3.3 1.4 0 2.8-.5 4-1.2l.7 2.6c-1.2.7-3 1.4-5.1 1.4-4.2 0-6.8-2.6-6.8-7 0-4.2 2.1-7 6.3-7 4.2 0 5.8 3 5.8 6.5v1.6h-8.4v-.2zm2.4-5.4c-1.9 0-2.6 1.6-2.6 3.3h4.9c.2-1.9-.2-3.3-2.3-3.3zM433.5 125.9v-8.2c0-2.1-.7-3-2.3-3-.9 0-1.6.5-2.3.9v10.3h-3.7v-13.5h2.6l.5 1.6c.7-.9 2.3-1.9 4.2-1.9 3.5 0 4.9 2.1 4.9 5.4v8.4h-3.9zM451 125c-.7.5-2.6 1.2-4.7 1.2-4 0-6.5-2.3-6.5-7 0-4.4 2.3-7 6.5-7 1.9 0 3.3.5 4.7 1.2l-.9 2.6c-.9-.5-2.3-.9-3.5-.9-1.9 0-3 1.2-3 4.4 0 3 1.2 4.4 3 4.4 1.4 0 2.8-.5 3.7-.9l.7 2zM454.6 125.9v-11l-1.6-.2v-2.3h5.1v13.5h-3.5zm-.3-19.1h3.7v3.3h-3.7v-3.3zM469.7 125.9l-.5-1.6c-.7.9-2.1 1.9-4 1.9-2.8 0-4.7-1.6-4.7-4.4 0-2.6 1.9-4 5.1-4h2.8v-.8c0-1.6-.9-2.3-2.3-2.3-1.6 0-3 .5-4.2.9l-.9-2.6c1.4-.5 3.3-1.2 5.4-1.2 4 0 5.6 1.9 5.6 5.1v8.6h-2.3v.4zm-.9-6.1h-2.3c-1.6 0-2.3.7-2.3 1.6 0 1.2.7 2.1 2.1 2.1.9 0 1.6-.5 2.3-.9v-2.8h.2zM549.3 43.6c-2.7 0-5-.5-6.7-1v-18.2h6.3c5.5 0 8.9 2.2 8.9 9.3 0 6.1-2.6 9.9-8.5 9.9zm-.6-16.2h-2.5v12.7c.6.2 1.9.4 3.2.4 2.5 0 4.4-1.4 4.4-6.8.1-4.6-1.3-6.3-5.1-6.3zM562.1 43.3v-11.1l-1.6-.3v-2.3h5.2v13.7h-3.6zm-.2-19.3h3.7v3.3h-3.7v-3.3zM577 43.3h-5.3l-4.1-13.7h4.1l2.9 11.5h.1l2.9-11.5h3.7l-4.3 13.7zM584.2 43.3v-11.1l-1.6-.3v-2.3h5.2v13.7h-3.6zm-.2-19.3h3.7v3.3h-3.7v-3.3zM594.3 33.2c0 2.1 5.9 1.5 5.9 6 0 2.5-1.8 4.4-5.4 4.4-1.6 0-3.2-.5-4.1-1l.8-2.5c.6.4 2 1 3.2 1 1.2 0 2-.7 2-1.5 0-2.5-5.8-1.6-5.8-6.3 0-2 1.5-3.8 5.2-3.8 1.4 0 2.9.3 3.9.7l-.5 2.7c-.9-.4-2.1-.7-3.3-.7-1.3-.3-1.9.2-1.9 1zM604.2 43.3v-11.1l-1.6-.3v-2.3h5.2v13.7h-3.6zm-.1-19.3h3.7v3.3h-3.7v-3.3zM623.5 36.4c0 4.7-2.3 7.2-6.4 7.2-4.1 0-6.4-2.5-6.4-7.2 0-4 2.2-7.1 6.4-7.1 4.1 0 6.4 3.1 6.4 7.1zm-9.9-8.9l-.4-2.1 7.1-2 .5 2.7-7.2 1.4zm6.1 8.9c0-3.3-1-4.4-2.7-4.4s-2.7 1.2-2.7 4.4.9 4.5 2.7 4.5 2.7-1.2 2.7-4.5zM634.7 43.3v-8.1c0-2.1-.8-3-2.5-3-1 0-1.8.4-2.4.8v10.3h-3.7v-13.7h2.5l.6 1.6c.8-.9 2.3-1.8 4.3-1.8 3.5 0 4.8 2 4.8 5.5v8.5h-3.6zM551.3 58.7c-.2-.8-.3-1.5-.3-2.5v-4.2h3.6v19.3h-3l-.4-1.5c-.6.8-1.9 1.8-3.6 1.8-3.1 0-5.6-2.2-5.6-7.1 0-4.5 2.6-7.1 5.9-7.1 1.5-.1 2.6.4 3.4 1.3zm-.3 2c-.6-.3-1.4-.7-2.5-.7-1.7 0-2.8 1.2-2.8 4.4 0 3.3 1 4.5 2.8 4.5.9 0 1.8-.4 2.5-1.2v-7zM561 65.4c0 2.2 1.2 3.4 3.5 3.4 1.4 0 2.8-.5 4-1.1l.7 2.6c-1.1.6-3 1.3-5.2 1.3-4.2 0-6.7-2.6-6.7-7.2 0-4.2 2-7.1 6.4-7.1 4.1 0 5.8 3.1 5.8 6.5v1.6h-8.5zm2.6-5.4c-1.8 0-2.6 1.6-2.6 3.3h5c0-1.8-.5-3.3-2.4-3.3zM593.4 69.9c-2.5 1.1-4.5 1.7-6.8 1.7-5.6 0-8.5-3.9-8.5-9.9 0-5.7 2.9-9.5 8.8-9.5 2.9 0 4.7.7 6.2 1.6l-1.5 2.8c-1.1-.7-2.7-1.2-4.6-1.2-3.4 0-4.9 2.5-4.9 6.2 0 4.4 1.6 6.8 4.9 6.8 1.2 0 2.3-.2 3.2-.6v-3.5h-2.6l-.2-2.7h6.2v8.3zM608.6 64.4c0 4.7-2.3 7.2-6.4 7.2-4.1 0-6.4-2.5-6.4-7.2 0-4 2.2-7.1 6.4-7.1s6.4 3.1 6.4 7.1zm-3.7 0c0-3.3-1-4.4-2.7-4.4s-2.7 1.2-2.7 4.4.9 4.5 2.7 4.5 2.7-1.2 2.7-4.5zM614.8 59c.6-.8 2.1-1.7 3.6-1.7 3.2 0 5.5 2.3 5.5 7.1 0 4.7-2.8 7.2-6 7.2-2 0-3.1-.8-4-1.9l-.7 1.6h-2v-19.3h3.7v4.8l-.1 2.2zm.2 8.5c.6.8 1.5 1.4 2.5 1.4 1.6 0 2.8-1.2 2.8-4.5s-1-4.4-2.7-4.4c-.9 0-1.9.5-2.5 1.1v6.4zM627.8 71.3v-11.1l-1.6-.3v-2.3h5.2v13.7h-3.6zm-.1-19.3h3.7v3.3h-3.7v-3.3zM637.9 65.4c0 2.2 1.2 3.4 3.5 3.4 1.4 0 2.8-.5 4-1.1l.7 2.6c-1.1.6-3 1.3-5.2 1.3-4.2 0-6.7-2.6-6.7-7.2 0-4.2 2-7.1 6.4-7.1 4.1 0 5.8 3.1 5.8 6.5v1.6h-8.5zm2.6-5.4c-1.8 0-2.6 1.6-2.6 3.3h5c0-1.8-.5-3.3-2.4-3.3zM657 60.6c-.4-.1-1.1-.2-1.7-.2-1 0-1.8.4-2.5.9v10h-3.6v-13.7h2.5l.4 1.8h.1c.4-1 1.6-2.1 3.3-2.1.7 0 1.3.1 1.6.2l-.1 3.1zM667.7 71.3v-8.1c0-2.1-.8-3-2.5-3-1 0-1.8.4-2.4.8v10.3h-3.7v-13.7h2.5l.6 1.6c.8-.9 2.3-1.8 4.3-1.8 3.5 0 4.8 2 4.8 5.5v8.5h-3.6zM686.7 64.4c0 4.7-2.3 7.2-6.4 7.2-4.1 0-6.4-2.5-6.4-7.2 0-4 2.2-7.1 6.4-7.1 4.1 0 6.4 3.1 6.4 7.1zm-3.8 0c0-3.3-1-4.4-2.7-4.4s-2.7 1.2-2.7 4.4.9 4.5 2.7 4.5 2.7-1.2 2.7-4.5zM549.3 99.6c-2.7 0-5-.5-6.7-1v-18.2h6.3c5.5 0 8.9 2.2 8.9 9.3 0 6.1-2.6 9.9-8.5 9.9zm-.6-16.2h-2.5v12.7c.6.2 1.9.4 3.2.4 2.5 0 4.4-1.4 4.4-6.8.1-4.6-1.3-6.3-5.1-6.3zM562.1 99.3v-11.1l-1.6-.3v-2.3h5.2v13.7h-3.6zm-.2-19.3h3.7v3.3h-3.7v-3.3zM581.4 85.6l-.1 2.7c-.6 0-1.6-.2-2.6-.5.6.6 1.3 1.3 1.4 2.2 0 3.4-3.3 4.7-5.6 4.7-.5 0-1.2-.1-1.8-.3-.4.1-.7.4-.7.8 0 1.5 8.7-.3 8.7 4.9 0 3.2-3.1 5-6.5 5-2.9 0-5.8-1.3-5.8-3.8 0-1.8 1.4-2.7 3.6-3-1.7-.2-3.4-.7-3.4-2.3 0-1.1 1.1-2 2.6-2.1-1.4-.8-2.5-1.9-2.5-3.9 0-3.6 3.4-4.7 5.6-4.7 1.7 0 4.7.3 7.1.3zm-7.4 12.9c-1.3.1-2.1.8-2.1 2s1.1 2.1 2.6 2.1c1.6 0 2.7-.8 2.7-2.3 0-1.2-1.1-1.6-3.2-1.8zm2.9-8.5c0-1.6-1.4-2-2.4-2-1.1 0-2.5.4-2.5 2 0 1.7 1.3 2.2 2.5 2.2 1.1-.1 2.4-.5 2.4-2.2zM584.9 99.3v-11.1l-1.6-.3v-2.3h5.2v13.7h-3.6zm-.1-19.3h3.7v3.3h-3.7v-3.3zM596.9 99.6c-2.4 0-4-1.1-4-4.6v-6.8h-2v-2.6h2v-2.4l3.6-1.2v3.5h3.7v2.6h-3.7v6.7c0 1 .5 1.6 1.5 1.6.8 0 1.5-.2 2.1-.5l.6 2.7c-.9.5-2.3 1-3.8 1zM611 99.3l-.5-1.6c-.7 1-2.1 1.9-4 1.9-2.7 0-4.6-1.8-4.6-4.4 0-2.5 1.9-4.1 5.2-4.1h2.9v-.7c0-1.8-1-2.3-2.4-2.3-1.6 0-3 .4-4.1.9l-.9-2.6c1.4-.6 3.2-1.1 5.4-1.1 3.9 0 5.6 1.8 5.6 5.3v8.7h-2.6zm-1-6h-2.3c-1.5 0-2.2.7-2.2 1.8 0 1.3.7 2 2 2 .9 0 1.8-.4 2.4-.9v-2.9zM616.7 95.7v-15.7h3.6v15.5c0 1.1.7 1.3 2.2 1.3v2.6s-1.1.2-2 .2c-2.8 0-3.8-1.5-3.8-3.9zM552.4 130.2l-.2-9.1h-.1c-.2 1.2-.4 2-.5 2.6l-1.5 6.5h-3.1l-1.5-6.5-.5-2.6h-.1l-.1 9.1h-1.9l.4-10.8h3.6s1.2 5.4 1.8 8.9c.7-3.5 2.1-8.9 2.1-8.9h3.5l.4 10.8h-2.3zM557.2 130.2v-6.3l-.9-.2v-1.3h3v7.8h-2.1zm0-11.1h2.1v1.9h-2.1v-1.9zM566.1 130.2v-4.7c0-1.2-.4-1.7-1.4-1.7-.5 0-1 .2-1.4.5v5.9h-2.1v-7.8h1.4l.3.9c.4-.5 1.3-1.1 2.5-1.1 2 0 2.8 1.2 2.8 3.2v4.8h-2.1zM570.6 130.2v-6.3l-.9-.2v-1.3h3v7.8h-2.1zm-.1-11.1h2.1v1.9h-2.1v-1.9zM576.4 124.4c0 1.2 3.4.8 3.4 3.4 0 1.4-1.1 2.5-3.1 2.5-.9 0-1.8-.3-2.4-.6l.4-1.5c.4.3 1.1.5 1.9.5.7 0 1.2-.4 1.2-.9 0-1.4-3.3-.9-3.3-3.6 0-1.2.9-2.2 3-2.2.8 0 1.7.2 2.2.4l-.3 1.5c-.5-.2-1.2-.4-1.9-.4-.8.2-1.1.4-1.1.9zM584.3 130.3c-1.4 0-2.3-.7-2.3-2.6v-3.9h-1.2v-1.5h1.2v-1.3l2.1-.7v2h2.1v1.5h-2.1v3.8c0 .5.3.9.8.9.4 0 .9-.1 1.2-.3l.3 1.5c-.5.4-1.3.6-2.1.6zM589.1 126.8c0 1.2.7 1.9 2 1.9.8 0 1.6-.3 2.3-.7l.4 1.5c-.7.4-1.7.8-3 .8-2.4 0-3.9-1.5-3.9-4.1 0-2.4 1.2-4.1 3.7-4.1 2.4 0 3.3 1.8 3.3 3.7v.9h-4.8zm1.5-3.1c-1 0-1.5.9-1.5 1.9h2.9c0-1-.3-1.9-1.4-1.9zM600.1 124.1c-.3-.1-.6-.1-1-.1-.6 0-1.1.2-1.4.5v5.7h-2.1v-7.8h1.5l.2 1.1c.2-.6.9-1.2 1.9-1.2.4 0 .7.1.9.1v1.7zM602 130.2v-6.3l-.9-.2v-1.3h3v7.8h-2.1zm-.1-11.1h2.1v1.9h-2.1v-1.9zM613 126.2c0 2.7-1.3 4.1-3.7 4.1-2.4 0-3.7-1.4-3.7-4.1 0-2.3 1.3-4.1 3.7-4.1 2.4.1 3.7 1.8 3.7 4.1zm-2.2 0c0-1.9-.6-2.5-1.5-2.5s-1.5.7-1.5 2.5.5 2.6 1.5 2.6 1.5-.7 1.5-2.6zM621.3 130.3c-1.4 0-2.7-.5-3.5-1.2l.8-1.6c.6.5 1.8 1 2.8 1 1 0 1.7-.6 1.7-1.4 0-2.3-5-1.2-5-5 0-1.6 1.3-3 3.8-3 1.3 0 2.3.3 3.2.7l-.7 1.7c-.6-.4-1.6-.6-2.5-.6-1 0-1.6.3-1.6 1.1 0 1.9 5 1.2 5 4.9-.1 1.8-1.6 3.4-4 3.4zM628.6 126.8c0 1.2.7 1.9 2 1.9.8 0 1.6-.3 2.3-.7l.4 1.5c-.7.4-1.7.8-3 .8-2.4 0-3.9-1.5-3.9-4.1 0-2.4 1.2-4.1 3.7-4.1 2.4 0 3.3 1.8 3.3 3.7v.9h-4.8zm1.4-3.1c-1 0-1.5.9-1.5 1.9h2.9c0-1-.3-1.9-1.4-1.9zM641.3 129.6c-.4.2-1.5.7-2.7.7-2.3 0-3.7-1.3-3.7-4.1 0-2.6 1.4-4.1 3.7-4.1 1 0 1.9.2 2.7.6l-.5 1.4c-.6-.3-1.3-.5-2-.5-1.1 0-1.8.7-1.8 2.5s.7 2.5 1.8 2.5c.8 0 1.6-.3 2.1-.6l.4 1.6zM647.1 124.1c-.3-.1-.6-.1-1-.1-.6 0-1.1.2-1.4.5v5.7h-2.1v-7.8h1.5l.2 1.1c.2-.6.9-1.2 1.9-1.2.4 0 .7.1.9.1v1.7zM649.8 126.8c0 1.2.7 1.9 2 1.9.8 0 1.6-.3 2.3-.7l.4 1.5c-.7.4-1.7.8-3 .8-2.4 0-3.9-1.5-3.9-4.1 0-2.4 1.2-4.1 3.7-4.1 2.4 0 3.3 1.8 3.3 3.7v.9h-4.8zm1.4-3.1c-1 0-1.5.9-1.5 1.9h2.9c0-1-.3-1.9-1.4-1.9zM659.1 130.3c-1.4 0-2.3-.7-2.3-2.6v-3.9h-1.2v-1.5h1.2v-1.3l2.1-.7v2h2.1v1.5h-2.1v3.8c0 .5.3.9.8.9.4 0 .9-.1 1.2-.3l.3 1.5c-.4.4-1.2.6-2.1.6zM667.2 130.2l-.3-.9c-.4.5-1.2 1.1-2.3 1.1-1.6 0-2.6-1-2.6-2.5s1.1-2.3 3-2.3h1.6v-.4c0-1-.6-1.3-1.4-1.3-.9 0-1.7.2-2.4.5l-.5-1.5c.8-.3 1.9-.6 3.1-.6 2.2 0 3.2 1 3.2 3v5h-1.4zm-.6-3.5h-1.3c-.9 0-1.3.4-1.3 1 0 .7.4 1.2 1.2 1.2.5 0 1-.2 1.4-.5v-1.7zM674.9 124.1c-.3-.1-.6-.1-1-.1-.6 0-1.1.2-1.4.5v5.7h-2.1v-7.8h1.5l.2 1.1c.2-.6.9-1.2 1.9-1.2.4 0 .7.1.9.1v1.7zM676.8 130.2v-6.3l-.9-.2v-1.3h3v7.8h-2.1zm-.1-11.1h2.1v1.9h-2.1v-1.9zM685.6 130.2l-.3-.9c-.4.5-1.2 1.1-2.3 1.1-1.6 0-2.6-1-2.6-2.5s1.1-2.3 3-2.3h1.6v-.4c0-1-.6-1.3-1.4-1.3-.9 0-1.7.2-2.4.5l-.5-1.5c.8-.3 1.9-.6 3.1-.6 2.2 0 3.2 1 3.2 3v5h-1.4zm-.6-3.5h-1.3c-.9 0-1.3.4-1.3 1 0 .7.4 1.2 1.2 1.2.5 0 1-.2 1.4-.5v-1.7zM551.5 147.4c-1.5.7-2.6 1-3.9 1-3.2 0-4.9-2.2-4.9-5.7 0-3.3 1.6-5.5 5-5.5 1.6 0 2.7.4 3.6.9l-.9 1.6c-.6-.4-1.6-.7-2.6-.7-2 0-2.8 1.4-2.8 3.6 0 2.5.9 3.9 2.8 3.9.7 0 1.3-.1 1.8-.3v-2h-1.5l-.1-1.6h3.5v4.8zM555 144.8c0 1.2.7 1.9 2 1.9.8 0 1.6-.3 2.3-.7l.4 1.5c-.7.4-1.7.8-3 .8-2.4 0-3.9-1.5-3.9-4.1 0-2.4 1.2-4.1 3.7-4.1 2.4 0 3.3 1.8 3.3 3.7v.9h-4.8zm1.4-3.1c-1 0-1.5.9-1.5 1.9h2.9c0-1-.3-1.9-1.4-1.9zM566.3 148.2v-4.7c0-1.2-.4-1.7-1.4-1.7-.5 0-1 .2-1.4.5v5.9h-2.1v-7.8h1.4l.3.9c.4-.5 1.3-1.1 2.5-1.1 2 0 2.8 1.2 2.8 3.2v4.8h-2.1zM571.9 144.8c0 1.2.7 1.9 2 1.9.8 0 1.6-.3 2.3-.7l.4 1.5c-.7.4-1.7.8-3 .8-2.4 0-3.9-1.5-3.9-4.1 0-2.4 1.2-4.1 3.7-4.1 2.4 0 3.3 1.8 3.3 3.7v.9h-4.8zm1.5-3.1c-1 0-1.5.9-1.5 1.9h2.9c0-1-.3-1.9-1.4-1.9zM582.8 142.1c-.3-.1-.6-.1-1-.1-.6 0-1.1.2-1.4.5v5.7h-2.1v-7.8h1.5l.2 1.1c.2-.6.9-1.2 1.9-1.2.4 0 .7.1.9.1v1.7zM588.8 148.2l-.3-.9c-.4.5-1.2 1.1-2.3 1.1-1.6 0-2.6-1-2.6-2.5s1.1-2.3 3-2.3h1.6v-.4c0-1-.6-1.3-1.4-1.3-.9 0-1.7.2-2.4.5l-.5-1.5c.8-.3 1.9-.6 3.1-.6 2.2 0 3.2 1 3.2 3v5h-1.4zm-.6-3.5h-1.3c-.9 0-1.3.4-1.3 1 0 .7.4 1.2 1.2 1.2.5 0 1-.2 1.4-.5v-1.7zM592 146.1v-9h2.1v8.9c0 .7.4.8 1.3.8v1.5s-.6.1-1.2.1c-1.6-.1-2.2-.9-2.2-2.3zM605.3 140.9c-.1-.4-.2-.8-.2-1.4v-2.4h2.1v11h-1.7l-.2-.9c-.3.5-1.1 1-2.1 1-1.8 0-3.2-1.3-3.2-4.1 0-2.6 1.5-4.1 3.4-4.1.8.2 1.5.5 1.9.9zm-.2 1.2c-.3-.2-.8-.4-1.4-.4-1 0-1.6.7-1.6 2.5 0 1.9.6 2.6 1.6 2.6.5 0 1.1-.3 1.5-.7v-4zM610.9 144.8c0 1.2.7 1.9 2 1.9.8 0 1.6-.3 2.3-.7l.4 1.5c-.7.4-1.7.8-3 .8-2.4 0-3.9-1.5-3.9-4.1 0-2.4 1.2-4.1 3.7-4.1 2.4 0 3.3 1.8 3.3 3.7v.9h-4.8zm1.5-3.1c-1 0-1.5.9-1.5 1.9h2.9c-.1-1-.4-1.9-1.4-1.9zM620.9 146.1v-9h2.1v8.9c0 .7.4.8 1.3.8v1.5s-.6.1-1.2.1c-1.6-.1-2.2-.9-2.2-2.3zM630.4 148.2l-.3-.9c-.4.5-1.2 1.1-2.3 1.1-1.6 0-2.6-1-2.6-2.5s1.1-2.3 3-2.3h1.6v-.4c0-1-.6-1.3-1.4-1.3-.9 0-1.7.2-2.4.5l-.5-1.5c.8-.3 1.9-.6 3.1-.6 2.2 0 3.2 1 3.2 3v5h-1.4zm-.6-3.5h-1.3c-.9 0-1.3.4-1.3 1 0 .7.4 1.2 1.2 1.2.5 0 1-.2 1.4-.5v-1.7zM546.3 162.4h-1.2v3.8h-2.1v-10.8h3.3c2.2 0 4.1 1.1 4.1 3.4 0 2-1.6 3.6-4.1 3.6zm-.1-5.3h-1.1v3.6h1.1c1.2 0 1.9-.8 1.9-1.9 0-1.1-.7-1.7-1.9-1.7zM556.1 160.1c-.3-.1-.6-.1-1-.1-.6 0-1.1.2-1.4.5v5.7h-2.1v-7.8h1.5l.2 1.1c.2-.6.9-1.2 1.9-1.2.4 0 .7.1.9.1v1.7zM558.7 162.8c0 1.2.7 1.9 2 1.9.8 0 1.6-.3 2.3-.7l.4 1.5c-.7.4-1.7.8-3 .8-2.4 0-3.9-1.5-3.9-4.1 0-2.4 1.2-4.1 3.7-4.1 2.4 0 3.3 1.8 3.3 3.7v.9h-4.8zm1.5-3.1c-1 0-1.5.9-1.5 1.9h2.9c0-1-.3-1.9-1.4-1.9zM567 160.4c0 1.2 3.4.8 3.4 3.4 0 1.4-1.1 2.5-3.1 2.5-.9 0-1.8-.3-2.4-.6l.4-1.5c.4.3 1.1.5 1.9.5.7 0 1.2-.4 1.2-.9 0-1.4-3.3-.9-3.3-3.6 0-1.2.9-2.2 3-2.2.8 0 1.7.2 2.2.4l-.3 1.5c-.5-.2-1.2-.4-1.9-.4-.8.2-1.1.4-1.1.9zM572.7 166.2v-6.3l-.9-.2v-1.3h3v7.8h-2.1zm-.1-11.1h2.1v1.9h-2.1v-1.9zM581.7 158.9c-.1-.4-.2-.8-.2-1.4v-2.4h2.1v11h-1.7l-.2-.9c-.3.5-1.1 1-2.1 1-1.8 0-3.2-1.3-3.2-4.1 0-2.6 1.5-4.1 3.4-4.1.8.2 1.5.5 1.9.9zm-.2 1.2c-.3-.2-.8-.4-1.4-.4-1 0-1.6.7-1.6 2.5 0 1.9.6 2.6 1.6 2.6.5 0 1.1-.3 1.5-.7v-4zM587.3 162.8c0 1.2.7 1.9 2 1.9.8 0 1.6-.3 2.3-.7l.4 1.5c-.7.4-1.7.8-3 .8-2.4 0-3.9-1.5-3.9-4.1 0-2.4 1.2-4.1 3.7-4.1 2.4 0 3.3 1.8 3.3 3.7v.9h-4.8zm1.5-3.1c-1 0-1.5.9-1.5 1.9h2.9c0-1-.3-1.9-1.4-1.9zM598.6 166.2v-4.7c0-1.2-.4-1.7-1.4-1.7-.5 0-1 .2-1.4.5v5.9h-2.1v-7.8h1.4l.3.9c.4-.5 1.3-1.1 2.5-1.1 2 0 2.8 1.2 2.8 3.2v4.8h-2.1zM608.7 165.6c-.4.2-1.5.7-2.7.7-2.3 0-3.7-1.3-3.7-4.1 0-2.6 1.4-4.1 3.7-4.1 1 0 1.9.2 2.7.6l-.5 1.4c-.6-.3-1.3-.5-2-.5-1.1 0-1.8.7-1.8 2.5s.7 2.5 1.8 2.5c.8 0 1.6-.3 2.1-.6l.4 1.6zM610.7 166.2v-6.3l-.9-.2v-1.3h3v7.8h-2.1zm0-11.1h2.1v1.9h-2.1v-1.9zM619.6 166.2l-.3-.9c-.4.5-1.2 1.1-2.3 1.1-1.6 0-2.6-1-2.6-2.5s1.1-2.3 3-2.3h1.6v-.4c0-1-.6-1.3-1.4-1.3-.9 0-1.7.2-2.4.5l-.5-1.5c.8-.3 1.9-.6 3.1-.6 2.2 0 3.2 1 3.2 3v5h-1.4zm-.6-3.5h-1.3c-.9 0-1.3.4-1.3 1 0 .7.4 1.2 1.2 1.2.5 0 1-.2 1.4-.5v-1.7zM166.5 277.7c0-1.5-1.3-1.9-2.2-1.9-1 0-2.3.4-2.3 1.9 0 1.6 1.2 2 2.3 2 1 0 2.2-.4 2.2-2m-2.7 7.9c-1.2.1-1.9.8-1.9 1.9 0 1.1 1 1.9 2.4 1.9 1.5 0 2.5-.8 2.5-2.1-.1-1.1-1.1-1.5-3-1.7m6.8-11.9l-.1 2.5c-.6 0-1.5-.2-2.4-.4.6.5 1.2 1.2 1.3 2 0 3.1-3.1 4.3-5.2 4.3-.5 0-1.1-.1-1.6-.2-.4.1-.6.4-.6.7 0 1.4 8-.2 8 4.5 0 3-2.8 4.6-6 4.6-2.7 0-5.3-1.2-5.3-3.5 0-1.6 1.3-2.5 3.4-2.8-1.6-.2-3.1-.7-3.1-2.1 0-1.1 1-1.8 2.4-1.9-1.3-.7-2.3-1.8-2.3-3.6 0-3.4 3.2-4.3 5.2-4.3 1.3-.1 4.2.2 6.3.2M180.7 280c0-3-.9-4.1-2.5-4.1s-2.5 1.1-2.5 4.1c0 2.9.8 4.1 2.5 4.1s2.5-1.1 2.5-4.1m3.5 0c0 4.3-2.2 6.6-5.9 6.6-3.8 0-5.9-2.3-5.9-6.6 0-3.7 2.1-6.5 5.9-6.5 3.8-.1 5.9 2.8 5.9 6.5"/><path class="st4" d="M190.1 282.8c.5.7 1.4 1.3 2.3 1.3 1.5 0 2.6-1.1 2.6-4.1 0-3-1-4.1-2.5-4.1-.9 0-1.8.4-2.3 1v5.9zm-.3-7.8c.6-.8 1.9-1.5 3.4-1.5 3 0 5.1 2.1 5.1 6.5s-2.6 6.6-5.5 6.6c-1.8 0-2.9-.7-3.7-1.8l-.6 1.5h-1.8v-17.8h3.4v4.4l-.3 2.1zM200.4 282.7h3.4v3.6h-3.4zM216.6 285.5c-.7.4-2.4 1.1-4.3 1.1-3.8 0-6-2.1-6-6.6 0-4.1 2.3-6.6 6-6.6 1.7 0 3.1.3 4.3 1l-.9 2.3c-.9-.5-2.1-.8-3.2-.8-1.8 0-2.9 1.2-2.9 4 0 2.9 1.1 4 2.9 4 1.3 0 2.6-.5 3.4-1l.7 2.6zM218.8 283v-14.4h3.3v14.3c0 1.1.6 1.2 2 1.2v2.4s-1 .2-1.9.2c-2.5-.1-3.4-1.5-3.4-3.7"/></svg>