<svg xmlns="http://www.w3.org/2000/svg" width="200" height="181">
  <defs>
    <clipPath id="a">
      <path d="M0 136.06h244.91V0H0z"/>
    </clipPath>
  </defs>
  <path d="M0 181h200V0H0z" fill="#eb3c46"/>
  <path d="M0 181h81.76V0H0z" fill="#0f69b4"/>
  <g clip-path="url(#a)" transform="matrix(1.33333 0 0 -1.33333 -126.25 181)" fill="#fff">
    <path d="M130.96 109.54v-2.11c.38.9.21 1.64 0 2.11m4.16 11.5c.05.02-.03.3.25.32.25.01.62-.2.66-.44.06-.27-.16-.93.7-1.02 0 0 0-.14-.02-.27a1.32 1.32 0 0 0-.13-.46h.16c1.15-.05 1.8.04 2.13.38a2.05 2.05 0 0 1 .48 2l-.03.1-.08.15a3.36 3.36 0 0 1-1.76 1.32.67.67 0 0 1-.17.02h-.01s.01.02.03.02h.18c.62-.08 1.66-.69 1.88-1.31.2.12.37.47.4.77.02.06-.02.43.14.76a.2.2 0 0 1-.08.26c-.09.04-.2 0-.25-.1-.16-.31-.52-.14-.37.18a.2.2 0 0 1-.08.26.2.2 0 0 1-.25-.1c-.15-.3-.5-.13-.36.18a.2.2 0 0 1-.08.25.2.2 0 0 1-.25-.1c-.15-.31-.51-.13-.36.19a.2.2 0 0 1-.09.26.2.2 0 0 1-.25-.1 1.9 1.9 0 0 0-.3-.48 3.82 3.82 0 0 0 1.88-1s.2-.21.21-.25v-.01c.02-.03.03-.06.02-.07h-.02a4 4 0 0 1-2.21 1.2c-.38-.03-.27-.45-.23-.72a.93.93 0 0 1-1.14-.76c0-.16.04-.32.12-.5v-.04c-.03-.01-.12.06-.17.19-.04.1-.07.2-.08.32-.5-.03-.97-.3-.94-.77.02-.28.35-.62.47-.63m1.79.71c.13.16.17-.52.7-.32-.38-.46-.89.01-.7.32m-.04.34c.2.12.38.53.7.33.14-.08.28-.23.44-.34.16-.12.34-.22.42-.37.09-.18-.16-.62-.43-.23-.18.29-.44.82-.85.61-.33-.17-.56-.4-.65-.18-.02.11.24.1.37.18m-1.45-.09c-.09-.19-.36-.19-.4-.43-.23.2.2.68.4.43m13.62-22.53c-.35.43-1.29.22-1.29.22.5 1.5-.88 1.9-.88 1.9-.49.12-.82.03-1.02-.12h-.02l-.01-.01-.1-.09a.72.72 0 1 1 1.22-.66c.19-.12.26-.33.26-.33.4-1.27-1.03-1.73-1.03-1.73-3.16-.95-5.1.68-5.1.68l.56.3c.19.09.36.1.5.1v-.08c0-.35.27-.63.61-.63a.62.62 0 0 1 .55.94l-.04.07c-.38.56-1.65.19-1.65.19.43 1.04.05 1.8.05 1.8-.24.39-.2.53-.2.53 0 .37-.09.4-.09.4-.19.27-.53.13-.53.13-.52-.11-.63.1-.63.1-.42.3-.6.11-.6.11-.2-.12.06-.44.06-.44-.45 0-.59-.58-.59-.58-.18-.96.61-1.04.61-1.04.57-.03.58.44.58.44.07.44-.56.47-.56.47.1.26.3.25.3.25.66.17.96-.58.96-.58.53-.84-.15-1.63-.15-1.63-.1-.12-.22-.05-.22-.05-.37.16-.9.56-.9.56a.49.49 0 0 0-.06.03h-.22a2 2 0 0 1-.69-.15c.26-.27 1.09-.97 1.09-.97-.63-.49-.99-.15-.99-.15-.3.33-.23.87-.18 1.1a21.34 21.34 0 0 0-.94-.39l.76-1.3c-.72-.26-.88.7-.91 1.24l-.42-.16a2.9 2.9 0 0 1 .57-1.38.93.93 0 0 1-.83-.23.9.9 0 0 1-.3-.8c0-.2.16-.36.36-.36.2 0 .37.17.37.37 0 .2-.16.36-.35.37.16.4.54.08.54.08.56-.5-.32-1.07-.32-1.07-.62-.41-1.22.38-1.22.38a4.7 4.7 0 0 1 .76 2.49l-.68-.23c.31-1.05-.42-1.65-.42-1.65-.21.15-.24.71-.24.71a6.7 6.7 0 0 1-.22.69l-.6-.16c.23-.66.32-1.63.32-1.63-.11-.14-.47-.17-.47-.17-.51-.05-.24.24-.24.24.25.22.2.37.2.37-.16.36-.72.03-.72.03-.75-.42-.52-.86-.52-.86.09-.27.85-.53.85-.53-.41-.32-1.2-.19-1.3-.17a.52.52 0 0 1-.38.45l-.05.02c-.27.02-.42-.1-.49-.2a.57.57 0 0 1-.09-.16l-.46.1c-.32.04-.5.97-.6 1.77l-.4-.04c.13-.86.29-1.63.29-1.63-.16 0-.84.47-.84.47-.85.52-1.43.35-1.45.34a.91.91 0 0 1 .16-1.8c.5 0 .9.4.9.88.33-.15.63-.33.63-.33.81-.54 1.58-.6 1.78-.6a.66.66 0 0 1 1.23-.2c1.74.06 2.37.83 2.37.83.19.24.23.1.23.1.64-.92 1.87-.36 1.87-.36.24.12.29-.04.29-.04.25-.4.63-.19.63-.19.5.26.2.57.2.57-.16.17.04.16.04.16.58-.09.7.25.7.25.11.26-.3.5-.3.5-.12.14.1.25.1.25.35.2.3.4.3.4.43 0 .4.2.4.2 0 .16-.54.16-.54.16-.43.04-.33.26-.33.26.63.02 1.59.3 1.59.3 1.4-1.14 3.48-1.41 3.48-1.41.04-.2-.03-.5-.04-.53h-.03a.33.33 0 0 1-.34-.33c0-.18.15-.33.34-.33l.09.01c.67.18.72 1.16.72 1.16a4.13 4.13 0 0 1 3.2 1.25c.18.16.27.12.31.06.1-.12.26-.2.43-.2.18 0 .35.1.44.23a.8.8 0 0 1 .1.3v.01c0 .23-.1.36-.1.36m-22.88-2.44c.18.1.21.3.21.3a.84.84 0 0 1-.35.76l-.68-.01-.68.01s-.38-.24-.35-.76c0 0 .04-.2.22-.3 0 0-.48-.2-.49-.53 0 0-.05-.25.37-.6 0 0 .31-.34.4-.6 0 0 .03-.37.53-.37s.54.37.54.37c.09.26.4.6.4.6.42.35.37.6.37.6-.01.33-.5.53-.5.53m3.55 2.11l.26.03-.16.29zm-8.39-.01l.25-.03-.1.32zm-.98.69h-.04l-.05-.38c.08-.01.14-.02.17 0 .03 0 .06.02.08.04l.04.12c.01.07 0 .12-.03.15-.03.04-.08.06-.17.07m3.61-.3a.21.21 0 0 1-.19-.1c-.05-.06-.07-.17-.08-.31a.7.7 0 0 1 .05-.35.2.2 0 0 1 .19-.1c.09 0 .15.02.2.08.05.06.07.17.08.33 0 .15-.01.26-.05.33a.21.21 0 0 1-.2.12m3.15 0a.2.2 0 0 1-.19-.1.58.58 0 0 1-.05-.33c0-.16.03-.27.08-.33a.2.2 0 0 1 .2-.1c.08 0 .14.04.19.1.04.07.05.18.05.34 0 .14-.03.25-.08.32a.2.2 0 0 1-.2.1m-8.6.02l.25-.05-.07.33zm-4.8 1.89l-.13-.37.05-.02c.07-.03.13-.03.17 0 .03.02.06.06.08.11.02.05.02.1.02.13a.16.16 0 0 1-.05.09.44.44 0 0 1-.13.06m.99-.44a.6.6 0 0 1-.16-.3.7.7 0 0 1-.04-.34.22.22 0 0 1 .15-.15c.08-.03.16-.02.22.03s.11.15.16.3c.05.14.06.25.04.33a.23.23 0 0 1-.15.17.27.27 0 0 1-.22-.04m1.38-.32l-.04.01-.1-.37a.47.47 0 0 1 .17-.03c.03 0 .06.02.08.04l.06.1c.01.08.01.13-.01.17a.34.34 0 0 1-.16.08"/>
    <path d="M134.89 100.66c-.04.02-.1.01-.18 0l-.04-.02.1-.37c.09.02.14.04.17.06.02.02.04.04.05.08v.12a.28.28 0 0 1-.1.13m2.09.11l.23.1-.22.23z"/>
    <path d="M137.59 102.18c-.14 0-.24-.04-.24-.04-.46-.12-4.8-2.04-12-2.04-7.19 0-11.53 1.92-12 2.04 0 0-.1.04-.23.04a.6.6 0 0 1-.36-.1l-1.47-1.16h.01c.43 0 .9-.23.92-.23 3.83-1.68 8.23-2.37 13.13-2.42 4.91.05 9.3.74 13.13 2.42.02 0 .5.23.92.23l-1.46 1.15a.6.6 0 0 1-.35.11m-13.65-2.26l.3-.01-.35-.23h-.07zm-9.8 1.14a.25.25 0 0 0-.11-.14.3.3 0 0 0-.18-.04l-.24.07-.07.02-.09-.22v-.1c0-.03.03-.05.08-.07h.02l-.03-.08-.52.19.03.08h.02c.04-.02.08-.03.1-.02.02.02.04.04.05.09l.21.57c.02.04.02.07.01.1 0 .02-.03.04-.08.06h-.02l.03.08.39-.13.22-.1c.05-.01.1-.05.13-.09a.26.26 0 0 0 .07-.13c0-.05 0-.1-.02-.14m1.19-.63a.52.52 0 0 0-.26-.3.58.58 0 0 0-.44-.03.7.7 0 0 0-.28.17.45.45 0 0 0-.13.26c-.01.1 0 .18.02.26a.51.51 0 0 0 .41.35c.1.02.2 0 .29-.02.17-.05.3-.15.36-.27a.52.52 0 0 0 .03-.42m1.04-.5a.75.75 0 0 1 .08-.2.12.12 0 0 1 .07-.05l-.02-.08-.31.08-.1.3a1.1 1.1 0 0 1-.04.15c0 .02-.02.04-.03.05a.27.27 0 0 1-.1.04l-.07-.23c-.01-.05-.02-.09 0-.1 0-.03.04-.05.09-.06h.01l-.02-.09-.53.15.02.08h.02c.05-.02.08-.02.1 0 .02 0 .04.04.05.08l.16.59v.1c-.01.02-.04.04-.09.05h-.02l.02.09.4-.1.1-.03.18-.06a.47.47 0 0 0 .1-.07.26.26 0 0 0 .08-.25c-.03-.12-.12-.18-.26-.2a.8.8 0 0 0 .1-.25m1.69-.67l-.92.2.02.08h.12c.02.02.03.05.04.1l.13.58v.1c-.02.03-.05.04-.1.06h-.01l.02.08.53-.12-.02-.07h-.01l-.11-.01c-.02-.01-.03-.04-.04-.09l-.12-.57a.35.35 0 0 1-.01-.1l.03-.03a.24.24 0 0 1 .1-.04c.1-.02.16-.01.22.02.05.04.1.09.12.16l.08-.02zm1.12-.2l-.5.09.02.08a.2.2 0 0 1 .08 0c.01 0 .02.01.02.03v.07l-.02.08-.31.06-.03-.05-.04-.07c0-.02 0-.04.02-.05.01-.02.04-.03.08-.03l-.02-.09-.33.06.01.09c.07-.02.13.03.2.13l.44.73.09-.02.18-.84a.27.27 0 0 1 .06-.15.16.16 0 0 1 .06-.04zm1.73-.25l-.32.05c-.03.03-.07.13-.13.28a.83.83 0 0 1-.06.15c-.02.02-.03.04-.05.04a.3.3 0 0 1-.1.03l-.03-.24V99c.02-.03.05-.04.1-.05h.02l-.01-.08-.55.07.01.09h.12c.02.03.04.06.04.1l.08.6-.01.1c-.02.03-.05.04-.1.04h-.02l.02.09.4-.06h.1l.2-.04a.34.34 0 0 0 .1-.06.3.3 0 0 0 .1-.1.3.3 0 0 0 .01-.14c-.02-.12-.1-.2-.24-.22a1 1 0 0 0 .14-.24l.1-.18a.12.12 0 0 1 .09-.04zm1.12-.11l-.5.05v.08h.09l.02.04v.05l-.02.02-.01.08-.32.03-.03-.04a.28.28 0 0 1-.02-.08l.01-.05a.17.17 0 0 1 .09-.02l-.01-.09-.34.03v.09c.07 0 .13.04.19.14l.39.77.09-.01.24-.83c.02-.08.04-.13.07-.15a.15.15 0 0 1 .07-.03zm1.1.88l-.64-.82.24-.02h.15l.08.07c.03.03.06.07.07.12h.1l-.05-.31-.92.07v.07l.64.82-.16.01c-.1.01-.18 0-.22-.02-.03-.02-.06-.06-.1-.14h-.07l.03.28.86-.06zm1.23-.88a.58.58 0 0 0-.43-.14.63.63 0 0 0-.32.1.45.45 0 0 0-.18.2.58.58 0 0 0-.05.26c0 .1.03.18.08.27.06.09.13.15.22.18.09.05.19.06.28.06a.6.6 0 0 0 .42-.17.54.54 0 0 0-.02-.76m1.5.8l-.08-.02a.11.11 0 0 1-.04-.06.27.27 0 0 1-.01-.1v-.78h-.1l-.67.75v-.47c0-.08.02-.12.04-.15a.17.17 0 0 1 .1-.03v-.08h-.38v.08c.03 0 .07 0 .09.02.02.02.04.04.04.06l.02.1v.52c0 .1-.05.16-.15.16v.09l.35-.01.56-.63v.38c0 .1-.05.17-.14.17v.08h.37zm1.7-.76a.57.57 0 0 0-.4-.17.67.67 0 0 0-.33.06.45.45 0 0 0-.2.2.6.6 0 0 0-.07.25c0 .1.01.18.06.27.05.1.12.16.2.2a.6.6 0 0 0 .28.08c.18.01.33-.04.43-.14.1-.1.17-.22.17-.37a.5.5 0 0 0-.14-.38m.88-.08l-.01.08c.06 0 .1.02.11.04.02.02.02.06.02.1l-.06.6c0 .05-.01.08-.03.1-.02.02-.05.03-.1.02h-.02v.08l.54.05.01-.08h-.02c-.05-.01-.08-.02-.1-.04-.01-.02-.02-.06-.01-.1l.05-.58.01-.1c.01 0 .02-.02.05-.02h.1c.1 0 .16.03.2.08.04.04.07.1.08.18l.08.01.03-.34zm1.56.15v.08c.04 0 .07.02.08.03v.03a.1.1 0 0 1-.01.05l-.01.02-.04.07-.31-.03-.02-.05a.24.24 0 0 1-.01-.08c0-.03.01-.04.03-.05l.08-.01.02-.08-.34-.04-.01.08c.06.01.1.07.14.18l.22.83.1.01.4-.75c.04-.07.07-.12.1-.13l.08-.02v-.08zm1.76 1.01a.45.45 0 0 1-.06.1.14.14 0 0 1-.07.05.2.2 0 0 1-.1 0l-.16-.03.05-.35.08.02c.04 0 .07.02.08.04.01.01.02.05.01.1l.08.01.06-.35h-.08a.19.19 0 0 1-.05.1h-.16l.04-.28c.01-.05.02-.08.04-.1a.11.11 0 0 1 .1 0h.03l.01-.09-.55-.08v.08c.06 0 .09.02.1.05v.1l-.09.6c0 .04-.02.07-.04.09-.02.01-.05.02-.1 0h-.02l-.01.09.85.14.05-.27zm1.2.26l.06-.34a.88.88 0 0 0 .02-.18c0-.05-.01-.1-.04-.15a.33.33 0 0 0-.12-.12.59.59 0 0 0-.2-.09.64.64 0 0 0-.21 0 .32.32 0 0 0-.16.07.4.4 0 0 0-.1.12.7.7 0 0 0-.05.15l-.07.4a.19.19 0 0 1-.05.1h-.1l-.02.08.53.1.02-.08h-.02a.13.13 0 0 1-.1-.04v-.1l.08-.4a.74.74 0 0 1 .05-.17.19.19 0 0 1 .1-.09.2.2 0 0 1 .15-.01c.06 0 .11.03.15.07.04.04.06.08.06.13a.7.7 0 0 1-.01.2l-.07.33c-.02.1-.08.15-.18.13l-.02.08.37.07.02-.08a.1.1 0 0 1-.06-.03.08.08 0 0 1-.04-.06v-.1m.47-.7l-.02.09h.02c.05.02.08.03.09.05v.1l-.14.6c-.01.04-.03.07-.05.08-.02.02-.05.02-.1.01h-.02l-.02.08.85.2.08-.26-.08-.02a.56.56 0 0 1-.08.1.13.13 0 0 1-.07.04c-.01 0-.05 0-.09-.02l-.19-.04.08-.34.1.02c.04 0 .06.02.08.04a.2.2 0 0 1 0 .1l.08.03.08-.34-.08-.02v.01c0 .03-.02.06-.04.08-.02.02-.05.02-.1 0l-.1-.01.06-.25.03-.09.05-.02h.12l.13.06.07.1.02.15.08.02.07-.33zm1.9.49a2.77 2.77 0 0 0-.34.32.16.16 0 0 1-.06.03c-.02 0-.06 0-.11-.02l.07-.24c0-.04.02-.07.04-.08.03-.02.06-.02.1 0h.03l.02-.08-.53-.15-.03.08h.02l.1.06-.01.1-.17.58c-.01.05-.02.08-.04.1h-.1l-.03-.01-.02.08.4.11.09.02c.08.03.15.05.2.05l.12-.01c.05 0 .09-.03.12-.07a.22.22 0 0 0 .07-.1c.03-.12-.01-.22-.13-.3a.94.94 0 0 0 .22-.17.74.74 0 0 1 .17-.13.12.12 0 0 1 .09 0l.02-.08zm.48.14l-.01.06.27 1-.16-.04a.51.51 0 0 1-.19-.1.32.32 0 0 1-.04-.17l-.08-.03-.06.27.82.27.02-.07-.28-1 .22.07.13.06c.03.02.05.06.06.1a.5.5 0 0 1 .02.14l.08.02.08-.3zm1.54.53l-.03.08c.04.01.07.03.07.04v.04l-.02.04-.02.02-.05.06-.3-.11v-.14l.05-.04c.02 0 .05 0 .08.02l.03-.08-.31-.12-.03.07c.06.03.09.1.09.22l.01.85.09.03.58-.62c.05-.07.1-.1.13-.1h.08l.03-.08zm-17.13 16.17l-.54-.35h1.11l-.57.35m7.22-.32l-.47.22-.05.02c-.21.1-.42.16-.6.2h-2.27c-.19-.04-.4-.1-.6-.2l-.06-.02c-.1-.04-.3-.13-.46-.22l-.06-.03h4.63l-.06.03m2.94.3l-.02.01h-.02c-.1-.08-.25-.2-.48-.34h.97l-.45.33m-10.78-9.24v2.4a2.97 2.97 0 0 1 0-2.4m5.56 8.6h-5.9c-.01-.07.03-.13.06-.17l.24-.3H125zm-.24-.79h-5.16l.25-.47h4.77zm-.38-1.26l.14.47h-4.53c.06-.15.12-.3.16-.47zm-.1-.32h-4.05c.03-.15.06-.31.07-.48h3.84zm-4.08-2.06h2.16l-.66.48h-1.4c-.02-.14-.05-.3-.1-.47m.12 1.26v-.04c0-.06.02-.21 0-.43h.94l-.67.47zm4.7-1.42l2.64-3.73v-1.85l.37.02.1.01v4.92h.33v-4.9c.16.01.33.03.47.07v4.83h.31v-4.75c.18.06.34.12.48.2v4.55h.32v-4.38c.18.12.33.25.44.36l.03.05v3.25c-.15.25-.27.5-.37.72l-.18.48h-2.71l-.6-.44-1.2.44-.42.16 4.43 1.42h-3.47l-.09.3h3.9l.1.48h-4.14l-.1.32h4.32c.06.16.11.32.18.47h-4.64l-.1.32h4.88l.26.47h-5.28l-.1.32h5.59a4.83 4.83 0 0 0 .35.47h-6.08l-.02.07v-4.64zm2.33-.63h.31v-2.97l-.3.92z"/>
    <path d="M126.23 105.37c.15.1.3.18.47.24v2.95l-.47.36zm-.81-.97l.18.28.03.04c.07.14.17.27.27.37v4.08l-.48.36zm-.79.8a2 2 0 0 0 .39-.48l.02-.04.07-.1v5.1l-.48-.35zm-.79.45c.17-.06.33-.13.48-.23v3.67l-.48-.36zm3.18.07c.16.05.32.09.47.11v2.13l-.47.36zm-3.96.13l.47-.1v2.74l-.47-.36z"/>
    <path d="M120.37 106.51v4.31h.32v-4.5c.14-.08.3-.15.47-.21v4.71h.31v-4.81l.48-.08v4.89h.32v-4.92h.2l.27-.02v2.01l-.28-.2 2.7 3.76-.97 1.43h-3.47l4.43-1.42-1.61-.6-.6.44h-2.69l-.18-.48-.17-.36v-3.51c.1-.12.25-.28.47-.44m2.37 4.31h.32v-1.39l-.32-.93zm5.08.78h2.19l-.09.48h-1.43zm2.1 1.27h-.33l-.67-.47h.98l.01.33.01.14m-12.34 8.98a4.06 4.06 0 0 1 2.36-.35c.21.05.44.12.67.28l.09.06c.01.01.02.03.04.03.34.3.55.77.52 1.37 0 .02.02.04.03.04.04 0 .1-.16.09-.37 0-.23-.06-.5-.15-.74v-.12a.49.49 0 0 1 .1-.24c.16-.18.57-.24.9-.11h.03c0-.05-.21-.28-.61-.28-.08 0-.16 0-.24.02.22-.36.84-.62 1.47-.59.01 0 .04 0 .04-.02 0-.04-.16-.1-.37-.1-.3 0-.64.08-.9.21.3-.36.81-.7 1.7-.82.03-.1-.66-.02-.86.05.4-1.6 1.27-1.42 1.28-1.53-.25-.09-.43-.4-.25-.75.92.33 1.6.36 1.8.36.2 0 .91-.03 1.85-.37.1.13.1.28.05.41-.14.4-1.38.72-2.54.38a.84.84 0 0 1-.15-.08h-.01l.01.03.15.1c.51.27 1.57.37 2.15.08.5-.21.94.39.78.7.37-.02.64.2.67.57l-.2-.09c-.12-.07-.25-.07-.26-.06v.03l.17.08c.68.39 1 1.16.93 1.4-.05-.14-.27-.26-.47-.26-.1-.01-.17.01-.17.03 0 .01 0 .02.02.02.08 0 .15.04.23.1.24.17.45.48.56.74-.42.4-.57.87-.81 1.5-.1.23-.3.47-.59.5h-.12l-.1-.02h-.03c.33.27.68-.02.9-.14.03.6.24.75.26.74v-.02c-.4-1.23.4-2.39 1.05-2.76.85-.46 2.4-.53 3.42.35a2.12 2.12 0 0 0-.55-.1c-.21 0-.37.05-.37.09 0 .02.02.03.03.03.14-.01.27 0 .39.01 1.47.39 1.53 2.2 1.3 2.33-.02-.02-.03-.02-.03.01a2.32 2.32 0 0 0-.13-.31c-.09-.2-.2-.3-.24-.3v.05c.32.56.3 1 .14 1.56-.11.3-.29.6-.57.8-.75.52-2.24.6-3.05-.03-.28.29-.64.5-1.06.65-.1-.46-.6-1.07-1.04-1.38-.09-.06-.34-.23-.45-.23 0 0-.1.02 0 .1.79.5 1.17 1.1 1.18 1.84v.02a2.6 2.6 0 0 1-.57 1.57c-.72.79-2.66.9-3.55.15a1.82 1.82 0 0 1-.46-.91c.1.27.3.54.71.67.4.12 1.15.04 1.26-.42-.66.69-1.87.18-2.04-.98v.01c-.02-.07-.06-.08-.06-.08-.04 0-.08.01-.06.53.01.32.11.72.26 1.06-1.5.27-3.28-.46-3.25-2.68.02-.3.13-.6.42-.93.05-.06.01-.1.01-.1-.04-.01-.23.11-.34.26-.15.2-.28.47-.34.73-.94.34-1.51.34-2.05.3a2.69 2.69 0 0 1-1.52-.88 3.6 3.6 0 0 1-.33-.53 2.34 2.34 0 0 1-.27-1.33c.08-.86.5-1.6 1.14-1.94m14.77 4.55c.35-.11.61-.39.8-.82.17-.37.1-.75-.01-.97h-.02s-.02 0-.01.02c.04.21-.02.58-.15.88-.07.16-.23.43-.46.5.14-.21.24-.38.3-.53.1-.2.1-.3.1-.4 0-.43-.2-.92-.4-1.1h-.03v.02c.22.53.24.98.05 1.4l-.06.12c-.16.3-.44.64-.86.63.2-.15.37-.36.48-.62.24-.55.2-1.17-.1-1.42h-.03v.01l.01.23c.02.19.02.37-.02.57-.23.97-1.03 1.31-1.6.74 0 0 .62 1.16 2.01.74m-5.85-6.86c-.13.06-.13.31-.11.44.05.31.42.46.59.63.03 0 .01-.5-.48-1.07m-.11.89c-.19.32.3.73.42 1.06.6.09-.16-.97-.42-1.06m1.56 7.6c.04-.49-.24-.64-.3-.61 0 0-.02.04 0 .05.13.34.08.86-.18 1.16-.18.22-.52.34-.54.38-.03.03.86-.18 1.02-.97m-1.33-4.83c.43-.18-.22-1.05-.27-1.21.1.04.45.42.6.3.21-.18-.47-1.07-.65-1.14-.96 1.26.27 1.63.32 2.05m-.63-2.13c.07-.6.18-1.39-.1-1.91-.16.04-.07.32-.07.44 0 .67-.02 1.33-.19 1.9-.08.27-.3 1.17-.9 2.3a7.01 7.01 0 0 0 1.26-2.73m-4.02 3.03c.44-.7 1.6-1.65 3.05-2.04.49-.14.73-1.72.33-2.5-.46-.02-.5.3-.6.65.2-.16.49-.37.46 0-.16.14-1.18.4-.92.85.17.24.72-.74.87-.41.1.66-1.95.86-1.89 1.42.01.3 1.62-.78 1.85-.75-.03.35-2.39 1.31-3.11 2.6-.05.1-.08.17-.06.18h.02m-3.65-1.81c.55.14 1.03.43.89.94-.04.15-.17.26-.37.28-.31.03-.52-.2-.67-.42.03.48.34.8.82.74.26-.03.6-.27.65-.54.15-.76-.54-1.07-1.32-1m.06 3.59a1.7 1.7 0 0 0 1.72-.37c1.1-1.08.5-2.6.16-2.68.23.63.35 1.58-.65 1.83-.77.2-1.47-.39-1.83-.71.23.71 1 1.24 2.04 1.02-.22.6-.98.84-1.87.35-.22-.12-.37-.26-.52-.38.16.45.53.78.95.94"/>
    <path d="M122.5 97.55c-.02.01-.6.18-1.45-.34 0 0-.68-.47-.84-.47 0 0 .16.77.29 1.63l-.39.04c-.1-.8-.28-1.73-.6-1.78l-.47-.1a.5.5 0 0 1-.09.17c-.07.1-.21.22-.49.2l-.04-.02a.52.52 0 0 1-.4-.45c-.1-.02-.88-.15-1.28.17 0 0 .76.26.85.53 0 0 .22.44-.53.86 0 0-.56.33-.71-.03 0 0-.06-.15.2-.37 0 0 .26-.29-.25-.24 0 0-.35.03-.47.17 0 0 .1.97.32 1.63l-.6.16a8.07 8.07 0 0 1-.21-.69s-.03-.57-.24-.71c0 0-.74.6-.42 1.65l-.69.23c-.02-.5.1-1.32.76-2.49 0 0-.6-.8-1.22-.38 0 0-.87.57-.31 1.07 0 0 .38.32.54-.08a.37.37 0 0 1-.35-.37c0-.2.16-.36.36-.36.2 0 .36.15.37.34a.9.9 0 0 1-.3.8s-.32.34-.83.23a2.9 2.9 0 0 0 .57 1.39l-.42.16c-.04-.53-.2-1.5-.92-1.24l.77 1.3a23.94 23.94 0 0 0-.94.38c.04-.22.1-.77-.19-1.09 0 0-.36-.34-.98.15 0 0 .83.7 1.08.97a2.1 2.1 0 0 1-.68.15h-.23l-.05-.03s-.54-.4-.91-.56c0 0-.1-.07-.22.05 0 0-.68.79-.15 1.63 0 0 .3.75.97.58 0 0 .19 0 .3-.26 0 0-.64-.02-.57-.46 0 0 .01-.47.58-.44 0 0 .8.08.61 1.04 0 0-.13.58-.59.58 0 0 .26.32.07.44 0 0-.19.19-.61-.11 0 0-.11-.21-.62-.1 0 0-.35.14-.54-.12 0 0-.09-.04-.09-.41 0 0 .04-.14-.2-.53 0 0-.12-.26-.14-.68a1.2 1.2 0 0 1-.53.25c-.26.27-.28 1.53-.55 2.16-.06.14.12.78.12 1.47a3.71 3.71 0 0 1 2.84 2.52c.3 1.05-.1 2.13-.15 2.42 0 .03.03.03.05 0 .08-.16.15-.33.21-.5a4.6 4.6 0 0 1 2 .24l.07.03.1.04.22.1.08.04c1.34.69 1.94 1.8 2.31 2.43-.19.04-.76.22-.95.51.49-.04.86-.24 1.35-.25.73 0 1.21.4 2.01.3 0-.04.1-.37.62-.58a3.56 3.56 0 0 1 .26-1.36s-.6-.46-.44-.85l.12-.3-.09.01c-.09.04-.2-.11-.33-.32-.07-.1-.38-.76-.15-.82l.15-.02a3.12 3.12 0 0 1 .45-2.38v-.01c.03-.06.9-1.47 3.23-1.47h.03c.23 0 2.28-.04 3-1.4.05-.08.21-.31.39-.31.18 0 .34.23.38.3.73 1.37 2.78 1.4 3 1.4h.04c2.33 0 3.2 1.42 3.23 1.48v.01c.29.41.43.85.48 1.26.46.25.44 1.28.44 1.46.13-.18.4-.7.97-.83-.1-.48-.07-1.28.45-1.39.16-.02.3.22.26.4.45-1.28.07-2.08.4-2.17.44 0 .47.76.5.78.04-.07.18-.3.19-.65 0-.4-.05-.8.13-.86.6-.1.31 1.66.78 1.48-.12-.78 0-1.22.32-1.34-.01-.36-.05-.7-.2-.7-.86-.2-1.65.49-2.4.28l-.08.05c-1.39.75-2.26.18-2.35.26-.39.35-.54-.18-.65-.12-.72.41-1.12-.29-1.31-.32-.17-.02-.48.36-.81-.45-.16-.36-.96-.52-1.03-.54-.32-.04-.4.19-.4.19a1 1 0 0 1-.1.23.57.57 0 0 1-.11.16.4.4 0 0 1-.33.11.46.46 0 0 1-.33-.73c.02-.02.1.08.2.08.18-.02.32-.15.32-.33.03-.37-.54-.74-.54-.74-.32-.3-.73.11-.73.11-.23.18-.38.2-.38.2-.24 0-.35-.26-.35-.26s-.1.25-.34.26c0 0-.16-.02-.4-.2 0 0-.4-.4-.73-.11 0 0-.56.37-.53.74 0 .18.14.31.32.33.1 0 .18-.1.2-.08.06.08.1.17.1.28 0 .24-.2.44-.44.45-.1.01-.21 0-.32-.1a.55.55 0 0 1-.12-.17 1.51 1.51 0 0 1-.1-.23s-.07-.23-.4-.19c-.06.02-.87.18-1.02.54-.33.81-.64.43-.8.45-.2.03-.6.73-1.32.32-.11-.06-.26.47-.65.12-.08-.07-.76.36-1.87-.05-.07.14-.42.2-.51.24-.23.06-.43.24-.57.31-.31.16-.82.06-1.17.1-.14.02-.34.1-.46.17-.46.28-.98.63-1.27 1.04-.05.07-.16.23-.19.25-.13.18-.2.3-.31.6-.16.57.08 1.17.17 1.75l.05.54a3.32 3.32 0 0 0-1.73.08c.18-.6.21-1.25.14-1.75.28-.2.44-.55.46-.72.03-.28-.1-.59.07-.82.25-.34.8-.65 1.14-.89.11-.07 1.67-1.28 1.87-1.32.22-.04.36.12.56.09.06-.02.12-.07.17-.1 0 0 .13-.15.32-.28-.47-.3-1.06-.65-1.5-.86 0 0-.7-.39-.37-.4 0 0 .5.02.54-.08l-.53-.22c.74-.27 1.5-.5 2.26-.71.48.48 1.11 1 1.72 1.23 0 0 .88-.04 1.17.6.09.2.46-.37 1.23.06.07.04.19-.17.4-.23.08-.02-.3-.08-.23-.42.01-.04-.63 0-.84-.36-.06-.1-1.43-.07-2.63-1.1l.69-.15c.4.3.88.5 1.44.47 0 0 .74-.04 1.06-.93l1.4-.17h-.01c.13.06.78.38.49.77 0 0-.16.2-.43-.06 0 0-.17-.16-.25.09 0 0-.01.13-.08.25 0 0-.13.19.12.1 0 0 .24-.07.46-.04.23.01.41.2.41.44s-.17.47-.41.47c-.01 0-.06 0-.06-.03a.16.16 0 0 0 .06-.13c0-.08-.07-.18-.15-.16-.27.08-.2.6.17.61 0 0 .32-.01.59-.34 0 0 .62-.92 1.19-1.12.04-.01-.1-.33.26-.44.04-.02-.01-.3.36-.27.01 0 .08-.12.17-.32a39.49 39.49 0 0 1 1.96 0c.09.2.16.32.17.32.37-.02.32.25.36.27.36.1.22.43.26.44.57.2 1.19 1.12 1.19 1.12a.9.9 0 0 0 .59.34c.37-.01.44-.53.18-.6-.1-.03-.16.07-.16.15 0 .06.02.1.06.13 0 .02-.05.03-.06.03-.24 0-.41-.23-.41-.47 0-.24.18-.43.41-.44.22-.03.46.04.46.04.25.09.12-.1.12-.1-.07-.12-.09-.25-.09-.25-.07-.25-.24-.1-.24-.1-.27.26-.43.07-.43.07-.29-.39.36-.7.49-.76h-.01c.47.04.94.1 1.4.16.32.89 1.06.93 1.06.93.56.03 1.04-.17 1.44-.47l.7.15c-1.22 1.03-2.58 1-2.64 1.1-.21.36-.86.32-.84.36.08.34-.31.4-.24.42.22.06.34.27.4.23.78-.43 1.15.14 1.24-.06.29-.64 1.17-.6 1.17-.6a5.48 5.48 0 0 0 1.72-1.23c.7.19 1.4.4 2.07.64l-.01.02-.04.12-.02.03a3.7 3.7 0 0 1-.62.87l-.03.03s.51.78.83.25c.03-.06-.03-.25-.35-.25 0 0 .37-.58.46-.98h.01l.33.12c.03 0 .06 0 .09.02-.2.39-.5.6-.41.74.07.03.35-.1.51.13.04.05.08.34.11.64.2-.11.44-.12.5-.12.53.01.73.8.58 1.06.08.05.39.3.42.23.16-.37 1.01-.77.94.07.13-.41.23-.87.7-.84.35.09.13.67.25.67.1-.17.24-.84.75-.68.16.06.28.18.28.4.03.65-1.82 4.03-1.99 5.5l-.08.02c-.18.1-.2.39-.17.6v.04c-.21.04-.56.24-.62.85 0 .56.24.83.3.83.02 0 .02-.03.01-.05-.14-.44-.24-.96.08-1.25a.62.62 0 0 1 .32-.12c.1.18.23.28.26.27.02 0 .01-.03 0-.04-.17-.3-.16-.71 0-.9a.54.54 0 0 1 .33-.15c.52.18.78 1.17.9 1.47.34-.07-.56-2.05.13-2.48.29.02.45.35.55.64.23-.58-.73-1.81-.04-2.09.42-.1.57.97.58.83.12-1.64-.74-2.44-.19-2.7.47-.2.63 1.13.63.96-.02-1.75-.9-2.24-.52-2.55.43-.17.74.89.73.64-.04-1.57-.82-1.99-.47-2.48.4-.57 1.16 1.02 1.2.72.04-.36-.86-2.18-.35-2.3.45-.12.6.5.63.64a33.33 33.33 0 0 1 1.31 10.39 28.26 28.26 0 0 1-.88 6.28c-.34 1.17-1 3.56-2.54 3.88-.73.16-1.28-.52-1.27-1.13.01-.52.38-.77.22-1.29-.2-.34-.39-.7-.49-1.08-.09-.38.24-.53.14-.93-.47.07-.72-.32-1.4-.18a2.22 2.22 0 0 0-1.28-.12s.01.02.03.01c.69.02 1.32.25 1.45.55.14.47.05 1.16-.3 1.42-.39-.08-.59-.42-1.97-.34-1.13.07-1.42-.15-1.58-.84a.46.46 0 0 0-.05.33c.04.38.42.61.88.66.1.16.1.3.1.47-.2.02-.3.02-.56-.02-.54-.08-1.29-.39-1.47-.93a.86.86 0 0 1 0-.52l.05-.18c.18-.37.6-.58 1.52-.62.01 0 .03-.01.03-.03 0-.04-.18-.07-.41-.05 0 0-.85 0-1.23.44a1.73 1.73 0 0 0-1.1-.56 1.4 1.4 0 0 0-1.02.46c-.55.74.16 2.02.15 2.5-.04 1.26-1.76.69-2.4.36a6.23 6.23 0 0 1-1.85-1.66 5.6 5.6 0 0 1-.73-1.1c.22-.11.88-.4 1.38-.4h.02l.18-.02c.26 0 .75.05 1.12.35a.6.6 0 0 0 .4.15c.15 0 .3-.06.43-.18.09-.07 1.17-.94 1.53-1.18a.42.42 0 0 0 .17-.28c.02-.09 0-.23-.13-.38a6.25 6.25 0 0 1-1.13-2c-.13-.47-.22-1.2.42-1.43 0 0 .71-.19.66 1 0 0 .12-.76.67-.74.24.01.45.25.4.76h.01c-.05.48-.04 1.04.05 1.66l.01.06c.01 0 .03-.06.06-.3.03-.3-.18-3.05 2.06-4.9 0 0-.94.46-1.6 1.62-.38-.22-.9-.7-.66-1.73.12-.36.36-.69.55-.79.01 0 .03-.03.03-.05 0-.05-.12-.14-.33.07a1.26 1.26 0 0 0-.28.46c-.25.22-.5.46-.73.7v.01c-.18.37-.08 1.46-1.15 1.47h-.1l-.18-.03h-.04c-.28.96-.2 1.57-.2 1.66a5.98 5.98 0 0 0 1.32 2.67c.04.04.09.1.08.18a.16.16 0 0 1-.06.1 38.5 38.5 0 0 0-1.56 1.2h-.01a.38.38 0 0 1-.27.12c-.13 0-.22-.09-.22-.09a2.05 2.05 0 0 0-1.5-.4h-.01c-.62.02-1.4.39-1.55.47a5.59 5.59 0 0 1-2.03.46 5.6 5.6 0 0 1-2.03-.46 4.4 4.4 0 0 0-1.55-.47h-.01l-.21-.01c-.3 0-.85.05-1.28.4v.02s-.1.08-.24.08a.37.37 0 0 1-.25-.12h-.01c-.12-.1-1.2-.96-1.56-1.2a.12.12 0 0 1-.06-.1c-.01-.07.03-.14.07-.18a5.92 5.92 0 0 0 1.31-2.67c.01-.05.04-.26.01-.6a16.58 16.58 0 0 1-.4 1.14c-.15.24-.37.4-.6.54-.2.11-.41.14-.6.27-.28.2-.58.4-.76.77-.01.71-.38 1.24-.38 1.24.1.05.54-.26.57-1.03.5.53.76 1.31.94 2.17.4.53 1.47.32 1.88.25.1-.02.29-.05.37-.12.11-.08.14-.26.3-.33.17-.07.36-.02.57 0 .07-.08.1-.18.15-.28l.14.01h.03c.58.01 1.38.4 1.45.44h.02l.09.04c-.23.29-.6.37-.9.42-.41.07-.63.41-1.01.5-.1.01-.44.07-.55.02-.86-.1-1.46.21-2.25.27-.76.06-.78-.46-1.05-.89-.11-.16-.23-.34-.36-.46-.2-.2-.45-.21-.7-.4-.01 0-.02 0-.03.02-.06.26-.16.68-.36.97v.01l-.06.1a2.73 2.73 0 0 1-1.8 1.35c-.17.07-.2.09-.32.17a.17.17 0 0 0 0 .27c.27.15.71.1 1.01.24.73.34.47.95.19 1-.37.07-1.03.24-1.16.32-.18.11-.29.42-.57.52-.22.07-.4.06-.6.03-.18-.02-.3-.15-.42-.13.16.23.45.35.82.38-.32.09-.21.6-.5.73-.13.02-.32-.04-.53-.15-.02.17-.11.72-.41.9-.25.14-.33-.08-.32-.23 0-.12.37-.27.43-.84a8.11 8.11 0 0 1-.19-.13c-.04.24-.15.6-.39.73-.24.14-.33-.07-.32-.22.02-.12.33-.25.43-.73l-.25-.21c-.49.13-.6.47-.72.5-.14.03-.36-.04-.25-.3.12-.25.48-.4.7-.47a2.1 2.1 0 0 1-.14-.17c-.57.12-.69.5-.82.53-.13.03-.36-.04-.24-.3.15-.33.7-.48.85-.5-.1-.17-.14-.3-.11-.4-.45.04-1.23-.2-1.08-.71.15-.1.67.32 1.15.08.31-.49.82-.51.94-.6.17-.14.2-.39.28-.62.14-.42.44-.77.69-1.14.26-.42.55-.85.83-1.2a.7.7 0 0 0 .05-.36c-.32-.52-1.3-1.12-1.7-1.5-.4-.37-4.2-3.26-4.66-4.51a2.7 2.7 0 0 1-.16-1.03c-.22-.12-.63-.05-.75.09-.25.3.26.57.13.97-.05.15-.25.2-.41.15-.28-.1-.34-.66-.2-1 .03-.1.18-.22.07-.3-.14-.05-.23.09-.23.3a.32.32 0 0 1-.11-.34c.07-.27.4-.28.52-.35-.02-.13-.2-.18-.33-.07-.21-.3.02-.42.07-.43.23-.04.48.16.62.18.07-.16-.04-.2-.28-.27.38-.46.72.33 1.14.23.13-.02 1.33-1.14 1.12-1.99a.88.88 0 0 0-.08-.2c-.27-.32-.7-.58-1-.89-.63-.4.59-2.89.49-4.17-.08-.5.43-.4.72-1.22-.3 0-.61-.08-.77-.31l-.04-.07a.62.62 0 0 1 .54-.93c.35 0 .63.27.63.62v.09c.13 0 .3-.03.5-.1l.55-.3s-1.94-1.64-5.1-.69c0 0-1.43.45-1.03 1.73 0 0 .07.21.27.34a.71.71 0 0 1 .7-.56.72.72 0 0 1 .51 1.21l-.1.09-.02.01c-.21.15-.54.24-1.03.11 0 0-1.38-.4-.88-1.89 0 0-.93.21-1.29-.22 0 0-.12-.13-.1-.35v-.02a.7.7 0 0 1 .09-.3.54.54 0 0 1 .87-.03c.04.06.13.1.32-.06 0 0 1.3-1.43 3.2-1.24 0 0 .05-.99.71-1.16l.1-.02a.33.33 0 0 1 0 .66h-.04c0 .03-.08.32-.04.53a8 8 0 0 0 3.49 1.41s.95-.28 1.59-.3c0 0 .09-.22-.34-.26 0 0-.54 0-.53-.17 0 0-.04-.2.4-.19 0 0-.06-.2.29-.4 0 0 .22-.11.1-.26 0 0-.41-.23-.3-.5 0 0 .12-.33.7-.24 0 0 .2 0 .04-.16 0 0-.29-.31.2-.56 0 0 .38-.21.63.18 0 0 .06.16.29.04 0 0 1.24-.56 1.88.36 0 0 .04.14.22-.1 0 0 .64-.77 2.38-.82a.65.65 0 0 1 1.22.19c.2 0 .97.06 1.79.6 0 0 .29.18.61.33a.91.91 0 0 1 1.82.03.9.9 0 0 1-.75.9m-5.8 6.82a.1.1 0 0 0-.03-.05l-.02-.02-.02-.02a.47.47 0 0 0-.18-.03c-.12 0-.25.01-.34.03-.01-.08.03-.13.1-.18l.09-.05.15-.07c0-.12-.2-.19-.3-.19-.2 0-.32.22-.4.36a.57.57 0 0 1-.05.04c-.02 0-.03.02-.05.03-.17.1-.43.13-.69.14.05.46 1.3.15 1.34.14.13-.04.3-.04.4-.1v-.03m19.08-1.1l-.03-.06c-.23 0-.74.35-.75.35-.07.05-.3.18-.48.11-.2-.1-.3-.3-.41-.4a.55.55 0 0 0-.04.11v.02a.6.6 0 0 0-.01.1v.11l.02.04a.4.4 0 0 0 .05.1l.03.04.04.03c.01.02.03.03.06.04l.02.02c.11.06.25.08.39.07a.92.92 0 0 0 .53-.2c.17-.16.51-.2.72-.2 0-.01-.1-.16-.14-.28m5.16 15.57c.09.38.62.84.62 1.05 0 .23-.26.5-.29.8-.04.5.33.97.82.87.3-.06.52-.33.7-.56.09-.1.2-.17.26-.25.56-.7 1-1.93 1.28-2.92.8-2.92 1.17-7.52.22-12.6-.09-.43-.3-1.54-.34-1.45.93 8.39.42 10.46.26 10.43-.13-.05-.28-1.03-.75-.73-.45.29 1.05 2.14.45 3.16-.14.16-.26-.23-.5-.16-.62.2.34 1.8.16 1.97-.14.12-.6.21-.62.8 0 .27.18.49-.04.71-.17.17-.14-.15-.32-.07-.29.3-.02.65-.17.88-.07.06-.27-.19-.43-.06-.17.14.1.4-.12.5-.27-.03-.67-.33-.6-.78.05-.23.32-.38.3-.64 0-.23-.28-.5-.34-.62-.4-.9.27-1.09.18-1.4-.04-.16-.33-.25-.51-.17-.25.1-.3.9-.22 1.24m-1.21-1.79c.13.01.3.05.42.08.13.04.22.17.36.17.05-.05-.05-.12-.1-.15a2 2 0 0 0-.7-.35c-.44-.1-.84.05-1.02.32.32.1.6-.13 1.04-.07m-7.68 3.16c-.02-.03-.06-.03-.07-.01-.36.18-1.03.16-1.51-.09-.36-.19-.64-.54-.7-.57-.06-.03.58.94 1.63 1.05.63 0 .7-.33.65-.38m2.28-2.93c-.14-.25-.36-.55-.68-.63-.6-.15-1.2.34-1.22.41-.03.07.5-.24 1-.2.37.02.66.28.88.46.02.03.05 0 .02-.04m.94-9.41a1.7 1.7 0 0 1 1.53.19h.08c.05-.05 0-.42-.64-.55a1.98 1.98 0 0 0-1.7.86c.06-.01.37-.36.73-.5m-2.72 1.92l.02-.02.01-.04.01-.04v-.04l.01-.07v-.45c0-.08 0-.17.02-.26a.99.99 0 0 0-.13-.63l-.05-.07a.47.47 0 0 0-.06-.06l-.05-.03h-.01l-.06-.02h-.1l-.06.02a.1.1 0 0 0-.03.01l-.06.03-.04.02c-.02.02-.04.05-.07.06l-.03.03s-.13.23.07.25a.68.68 0 0 1 .1-.09.14.14 0 0 1 .05-.02h.07c.02 0 .03 0 .04.02l.01.02.02.04.01.02.02.08v.03l.02.07v.1c.03.36.01.85.12 1.02 0 .01.01.03.03.03v.01l.05.01a.1.1 0 0 0 .06-.01l.01-.02m-1.23 1.46h.01c.09.06.2.1.31.13l.18.01c.07 0 .13 0 .2-.02.03 0 .16-.23.2-.46.02-.05.12-.4.24-.51.12-.12.07-.35-.21-.3h-.02c-.3.04-.64.51-.5.98a.65.65 0 0 1-.22.01.48.48 0 0 1-.11-.03l-.03-.01-.06-.03-.05-.03c-.07-.06-.1-.17-.2-.18 0 .18.11.34.26.44m-11.8-1.05c.84 1.43.76 2.42.73 2.6 0 1.59-1 2.79-1.1 2.92-.12.12-.13.24-.12.31.02.15.13.24.17.25l.91.58.1.06.07.03c.06 0 .1-.04.2-.11a1.81 1.81 0 0 1 1.55-.41c.34.04.89.32.9.33l.47.22.05.02c.9.38 1.66.4 1.87.4.21 0 .97-.02 1.86-.4l.05-.02.49-.22s.55-.29.88-.33l.35-.03c.64 0 1.01.28 1.2.44.1.07.15.1.21.1.03 0 .07 0 .1-.03l.1-.06.9-.58c.02 0 .13-.09.15-.23 0-.08 0-.2-.12-.32a4.8 4.8 0 0 1-1.1-2.9c-.03-.2-.11-1.19.72-2.62.04-.08.93-1.74-.05-3.19-.08-.13-.86-1.33-2.89-1.33-.18 0-1.8-.03-2.36-1.07l-.04-.05c-.06-.1-.27-.44-.36-.62a.11.11 0 0 0-.09-.05.1.1 0 0 0-.1.05c-.08.18-.29.51-.35.62l-.03.05c-.56 1.04-2.19 1.07-2.37 1.07-2.03 0-2.8 1.2-2.89 1.34-1 1.48-.06 3.16-.05 3.18m-.51 1.79c.1-.1.19-.36.22-.7v-.07l.01-.11v-.1l.01-.08v-.29l-.02-.1v-.06l-.02-.14-.01-.09-.02-.09a.4.4 0 0 0-.01-.07.53.53 0 0 0-.02-.08l-.03-.13-.03-.07-.02-.08-.03-.07-.05-.11a.24.24 0 0 0-.03-.05l-.04-.07-.03-.05-.08-.1-.02-.02-.07-.06-.03-.03a.57.57 0 0 0-.1-.06h-.01a.43.43 0 0 0-.11-.04h-.03a.55.55 0 0 0-.13-.01.17.17 0 0 0-.02.09c0 .12.13.24.2.39.05.14.04.23.12.33.13.01.24-.04.28.1-.2.15-.21.48.05.75.37.37 0 1.17.07 1.27m-.12 1.24c-.16-.04-.2.68-1.07.51-.47-.21-.82-.08-1.11.04 1.24.7 2.27 0 2.18-.55m-7.2 7.1c-.2.44.5 1.05.68 1.1.4.15.7-.1 1.14-.16.25-.04.53 0 .74-.02.47-.04.34-.38.26-.43-.39-.11-.61.19-.95.24-.24.02-.5-.11-.75-.09-.22.02-.38.15-.57 0-.02-.01-.3-.22-.24-.49.02-.17-.23-.26-.32-.15m.46.1c.53-.2.58.47.7.31.19-.3-.32-.78-.7-.32m1-1.5c.83-.06 1.65-.07 2.18-.36l.06-.04c.16-.12.6-.46.79-1.1-.7.44-.96.54-1.55.75-.58.2-1.23.3-1.48.76m-4.17-18.33h-.03c-.1.06-.22.12-.29.18-.1-.15.08-.3.17-.42-.01-.04-.06-.06-.12-.07a.39.39 0 0 0-.2.03h-.01c-.18.08-.21.34-.22.49a.6.6 0 0 1-.3.47c.35.23.89-.33.94-.38.08-.07.19-.12.26-.2l.07-.07c-.05-.1-.15-.09-.27-.03"/>
    <path d="M130.96 109.54v-2.11c.38.9.2 1.64 0 2.11m4.46 12.46c-.09-.18-.37-.18-.4-.43-.23.21.2.67.4.43m1.45.1c.2.11.38.52.7.32.14-.08.28-.23.44-.35.16-.11.34-.21.42-.36.09-.18-.16-.62-.43-.23-.18.29-.44.82-.85.61-.33-.17-.56-.4-.65-.18-.02.11.24.11.37.18m.04-.33c.13.15.17-.53.7-.33-.38-.46-.88.01-.7.33m-1.8-.72c.06.02-.02.3.26.32.25.01.62-.2.66-.44.06-.27-.16-.93.7-1.02l-.02-.28a1.38 1.38 0 0 0-.13-.45h.16c1.15-.05 1.8.04 2.13.38 0 0 .2.21.3.42.3.6.33 1.14.18 1.58a1.19 1.19 0 0 1-.1.25 3.36 3.36 0 0 1-1.77 1.31.57.57 0 0 1-.17.03h-.02l.04.02h.18c.62-.07 1.66-.69 1.87-1.31.2.12.38.47.42.77.01.06-.03.43.13.76a.2.2 0 0 1-.08.26.2.2 0 0 1-.26-.1c-.15-.31-.51-.14-.36.18a.2.2 0 0 1-.08.26.2.2 0 0 1-.25-.1c-.15-.3-.5-.13-.36.18a.2.2 0 0 1-.08.25.2.2 0 0 1-.25-.09c-.15-.32-.51-.14-.36.18a.2.2 0 0 1-.09.26.2.2 0 0 1-.25-.1c-.11-.24-.2-.37-.3-.48a3.82 3.82 0 0 0 1.88-1s.2-.21.21-.25c.02-.04.03-.07.02-.08h-.02a3.97 3.97 0 0 1-2.22 1.2c-.37-.03-.26-.45-.22-.72a.92.92 0 0 1-1.14-.76c0-.16.04-.32.12-.5v-.04c-.03-.01-.12.06-.17.2-.04.09-.07.2-.08.3-.5-.02-.97-.29-.94-.76.02-.28.35-.62.47-.63m13.92-21.57c-.35.43-1.29.22-1.29.22.5 1.5-.88 1.9-.88 1.9-.5.12-.82.03-1.03-.11v-.02h-.02a.72.72 0 0 1-.3-.58.72.72 0 0 1 1.42-.17c.19-.12.26-.33.26-.33.4-1.27-1.03-1.73-1.03-1.73-3.16-.95-5.1.68-5.1.68l.56.3c.19.09.36.1.5.1l-.01-.08c0-.35.28-.62.63-.62a.62.62 0 0 1 .54.93l-.04.07c-.38.56-1.65.19-1.65.19.42 1.05.04 1.8.04 1.8-.23.39-.19.53-.19.53 0 .37-.09.4-.09.4-.19.27-.53.13-.53.13-.52-.11-.63.1-.63.1-.42.3-.6.12-.6.12-.2-.13.06-.45.06-.45-.45 0-.59-.58-.59-.58-.18-.96.61-1.04.61-1.04.57-.03.58.44.58.44.07.44-.56.47-.56.47.1.26.3.25.3.25.66.17.96-.58.96-.58.53-.84-.15-1.63-.15-1.63-.1-.12-.22-.05-.22-.05a6 6 0 0 0-.9.56l-.06.03h-.22c-.25 0-.51-.08-.7-.15a22.9 22.9 0 0 1 1.1-.97c-.63-.49-.99-.15-.99-.15-.3.32-.23.88-.18 1.1l-.07-.04-.87-.36.76-1.29c-.72-.26-.88.7-.91 1.24l-.42-.16.04-.21a2.8 2.8 0 0 1 .53-1.18.92.92 0 0 1-.83-.22.9.9 0 0 1-.3-.8c0-.2.16-.35.36-.35.2 0 .36.16.36.36 0 .2-.15.36-.34.37.16.4.54.08.54.08.56-.5-.32-1.07-.32-1.07-.62-.41-1.22.38-1.22.38.66 1.17.78 1.99.76 2.5a9.07 9.07 0 0 0-.68-.23c.31-1.06-.42-1.66-.42-1.66-.21.15-.24.71-.24.71l-.22.69-.6-.16c.23-.66.32-1.63.32-1.63-.11-.13-.47-.17-.47-.17-.51-.05-.24.24-.24.24.25.22.2.38.2.38-.16.35-.72.02-.72.02-.75-.41-.52-.86-.52-.86.09-.27.85-.53.85-.53-.41-.32-1.2-.19-1.3-.17a.53.53 0 0 1-.38.45.57.57 0 0 1-.05.02.55.55 0 0 1-.5-.2.6.6 0 0 1-.08-.16l-.46.1c-.32.04-.5.97-.6 1.77l-.4-.04c.13-.86.29-1.63.29-1.63-.16 0-.84.47-.84.47-.85.52-1.43.35-1.45.35a.91.91 0 0 1-.75-.9.91.91 0 0 1 1.82-.03c.32-.15.62-.33.62-.33.81-.54 1.58-.6 1.78-.6a.66.66 0 0 1 .65-.54c.25 0 .47.14.57.35 1.74.05 2.38.82 2.38.82.19.25.23.1.23.1.63-.92 1.87-.36 1.87-.36.24.12.29-.04.29-.04.25-.4.63-.19.63-.19.5.26.2.57.2.57-.16.17.04.16.04.16.58-.09.7.25.7.25.11.26-.3.49-.3.49-.12.15.1.26.1.26.35.2.3.4.3.4.43 0 .4.2.4.2 0 .17-.54.16-.54.16-.43.04-.33.26-.33.26.63.02 1.59.3 1.59.3 1.4-1.14 3.48-1.41 3.48-1.41.04-.2-.03-.5-.04-.53h-.04a.33.33 0 0 1-.33-.33.33.33 0 0 1 .43-.31c.67.17.72 1.16.72 1.16a4.13 4.13 0 0 1 3.2 1.25c.18.16.27.1.31.06v-.01c.1-.12.26-.2.43-.2.18 0 .35.1.44.23.06.12.1.22.1.3v.01c0 .23-.1.37-.1.37m-22.88-2.44c.18.08.21.3.21.3a.83.83 0 0 1-.35.75l-.68-.01-.68.01s-.39-.24-.35-.76c0 0 .04-.2.22-.3 0 0-.48-.2-.49-.53 0 0-.06-.25.37-.6 0 0 .3-.33.4-.6 0 0 .03-.37.53-.37s.54.37.54.37c.09.27.4.6.4.6.42.35.37.6.37.6-.01.33-.5.54-.5.54m3.55 2.1l.26.03-.16.29zm-8.39-.01l.25-.03-.1.32zm-.98.69h-.04l-.05-.38c.08-.01.14-.02.17 0 .03 0 .06.02.08.04l.04.12c.01.07 0 .12-.03.15-.03.04-.08.06-.17.07m3.61-.3a.2.2 0 0 1-.19-.1c-.05-.06-.07-.17-.08-.31 0-.16.01-.28.05-.35a.2.2 0 0 1 .19-.1c.09 0 .15.02.2.08.05.06.07.17.08.33 0 .15-.01.26-.05.33a.21.21 0 0 1-.2.12m3.15 0a.22.22 0 0 1-.19-.1.6.6 0 0 1-.05-.33c0-.16.03-.27.08-.33a.2.2 0 0 1 .2-.1c.08 0 .14.04.19.1.04.07.06.18.05.34 0 .14-.03.25-.08.32-.04.07-.11.1-.2.1m-8.6.01l.25-.04-.07.33zm-4.8 1.9l-.13-.37.05-.02c.07-.03.13-.03.17 0 .03.02.06.06.08.11.02.05.02.1.02.14a.17.17 0 0 1-.05.08.54.54 0 0 1-.13.06m1.2-.4a.22.22 0 0 1-.21-.04.64.64 0 0 1-.16-.29.71.71 0 0 1-.04-.34.22.22 0 0 1 .15-.16c.08-.03.16-.02.21.03.07.05.12.15.17.3a.7.7 0 0 1 .04.33.23.23 0 0 1-.16.17m1.17-.36l-.04.01-.1-.37a.5.5 0 0 1 .17-.03c.03 0 .06.02.08.04l.05.1c.02.08.02.13 0 .17a.4.4 0 0 1-.16.08"/>
    <path d="M134.89 100.66c-.04.02-.1.01-.18 0l-.04-.02.1-.37c.09.02.14.04.17.06.02.02.04.04.05.08v.12a.28.28 0 0 1-.1.13m2.09.11l.23.1-.22.23z"/>
    <path d="M137.33 100.52l-.03.08.08.04v.04l-.03.04-.02.02-.05.06-.3-.11v-.06a.3.3 0 0 1 0-.07l.05-.05c.02 0 .05 0 .08.02l.03-.08-.32-.12-.02.07c.05.03.09.1.09.22l.01.85.08.03.59-.62c.05-.07.1-.1.13-.1h.08l.02-.08zm-1.54-.53l-.02.06.28 1-.16-.04a.62.62 0 0 1-.19-.1.32.32 0 0 1-.04-.17l-.08-.03-.06.27.82.27.02-.07-.28-1 .22.07.13.06c.03.02.05.06.06.1.02.03.02.08.02.14l.08.02.08-.3zm-.48-.14l-.23.21a.5.5 0 0 1-.12.11.11.11 0 0 1-.05.03.4.4 0 0 1-.11-.02l.07-.24c0-.04.02-.07.04-.08.03-.02.06-.02.1 0h.02l.03-.08-.53-.15-.02.09h.01c.05.01.08.03.1.05l-.01.1-.17.59c0 .04-.02.07-.04.08-.02.02-.06.02-.1 0h-.03l-.02.08.4.11.08.02.2.05.13-.01c.05 0 .09-.03.12-.07a.26.26 0 0 0 .07-.1c.03-.12-.02-.22-.14-.3a.92.92 0 0 0 .23-.17.78.78 0 0 1 .17-.13.12.12 0 0 1 .09 0l.02-.08zm-1.9-.48l-.02.08h.02l.09.05v.1l-.14.6a.2.2 0 0 1-.05.09h-.12l-.02.08.85.2.08-.26-.08-.02c-.03.04-.05.08-.08.1l-.07.04-.1-.02-.18-.04.08-.34.1.02c.04 0 .06.02.08.04v.1l.08.03.08-.34-.08-.02v.01a.21.21 0 0 1-.04.08c-.02.02-.05.02-.1 0l-.1-.01.06-.25.03-.09c0-.01.02-.02.05-.02h.12l.13.06a.2.2 0 0 1 .06.1l.03.15.08.02.07-.33zm-.47.7l.07-.34a.71.71 0 0 0 .02-.18c0-.05-.01-.1-.04-.14a.3.3 0 0 0-.12-.13.55.55 0 0 0-.41-.08.32.32 0 0 0-.16.06.35.35 0 0 0-.1.12.6.6 0 0 0-.05.15l-.07.4a.19.19 0 0 1-.05.1h-.1l-.02.08.53.1.02-.08h-.02a.13.13 0 0 1-.1-.04v-.1l.08-.4a.53.53 0 0 1 .05-.17.18.18 0 0 1 .1-.09c.05-.02.1-.03.15-.01a.24.24 0 0 1 .2.2v.2l-.07.33c-.02.1-.09.15-.18.13l-.02.08.37.07.02-.08a.12.12 0 0 1-.06-.03c-.03-.02-.04-.04-.04-.06v-.1m-1.19-.25a.39.39 0 0 1-.06.1.13.13 0 0 1-.07.05h-.1l-.16-.02.05-.36.08.02c.04 0 .07.02.08.04l.01.1.08.01.06-.34-.08-.02c-.01.06-.03.1-.05.1-.02.02-.05.02-.08.01l-.08-.01.04-.27c.01-.05.02-.08.04-.1h.13l.01-.08-.54-.1-.02.09h.02c.05 0 .08.02.1.05v.1l-.1.6c0 .04-.02.07-.04.09-.02.01-.05.02-.1.01h-.02l-.01.08.85.14.05-.27zm-1.76-1v.07l.07.03.02.03-.02.05-.01.02-.04.07-.31-.03-.02-.05a.22.22 0 0 1-.01-.08c0-.03.01-.04.03-.05h.08l.01-.09-.34-.04v.08c.06.01.1.07.14.19l.22.82.09.01.41-.75c.04-.07.07-.12.1-.13a.22.22 0 0 1 .08-.02v-.08zm-1.57-.16v.08h.01c.05.01.09.02.1.04.01.02.02.06.01.1l-.05.6c0 .05-.02.09-.03.1-.02.02-.05.03-.1.02h-.02v.08l.54.05.01-.08h-.02a.13.13 0 0 1-.1-.04l-.01-.1.05-.58.01-.1c.01 0 .02-.02.05-.02.02-.02.05-.02.1 0 .1 0 .17.03.2.08.04.04.07.1.08.18l.08.01.02-.34zm-.86.08a.59.59 0 0 0-.41-.17.64.64 0 0 0-.33.06.44.44 0 0 0-.2.2.61.61 0 0 0-.08.25c0 .1.02.18.07.28.05.09.12.15.2.2.09.05.18.07.28.07.18.01.33-.04.43-.14.1-.1.17-.22.17-.37a.5.5 0 0 0-.13-.38m-1.71.75l-.08-.01a.11.11 0 0 1-.04-.06.24.24 0 0 1-.01-.1v-.78h-.1l-.67.75v-.47c0-.08.02-.12.04-.15a.18.18 0 0 1 .1-.03v-.08h-.38v.08c.03 0 .07 0 .09.02l.05.06v.62c0 .1-.04.16-.14.16v.09l.35-.01.56-.63v.38c0 .1-.05.17-.14.17v.08h.37zm-1.5-.79a.56.56 0 0 0-.43-.14.64.64 0 0 0-.32.1.44.44 0 0 0-.18.2.56.56 0 0 0-.05.26c0 .1.03.18.09.27.05.09.12.15.21.18.09.05.18.06.28.06.19-.01.33-.06.42-.17.1-.11.15-.24.14-.4a.53.53 0 0 0-.17-.36m-1.21.88l-.65-.82.24-.02h.15l.09.07.07.12h.08l-.04-.3-.92.06v.07l.64.82-.16.01a.43.43 0 0 1-.22-.02c-.03-.02-.06-.06-.1-.14h-.07l.03.28.86-.06zm-1.1-.88l-.52.05.01.08h.09l.02.04v.05l-.02.02-.02.08-.31.03-.03-.04-.03-.08c0-.02 0-.04.02-.05l.09-.02-.01-.09-.34.03v.09c.07 0 .13.04.19.14l.39.77.09-.01.24-.83a.34.34 0 0 1 .07-.15.16.16 0 0 1 .07-.03zm-1.13.11l-.32.05-.13.28c-.02.08-.05.13-.06.15-.02.02-.03.04-.05.04a.31.31 0 0 1-.1.03l-.04-.24c0-.05 0-.08.02-.1 0-.03.04-.04.09-.05h.02l-.01-.08-.55.07.01.09h.02c.05-.01.09 0 .1.01.02.01.04.05.04.1l.08.6-.01.1c-.02.01-.05.03-.1.03h-.02l.02.09.4-.05.1-.02c.09 0 .15-.02.2-.03a.36.36 0 0 0 .11-.06.31.31 0 0 0 .08-.1.27.27 0 0 0 .02-.14c-.02-.12-.1-.2-.24-.22a.93.93 0 0 0 .14-.24l.1-.18a.12.12 0 0 1 .09-.04zm-1.73.25l-.5.09.01.08h.1l.01.03v.05l-.01.02-.01.08-.31.06-.03-.05-.03-.07v-.05a.19.19 0 0 1 .09-.03l-.02-.09-.33.06.01.09c.07-.02.13.03.2.13l.44.73.1-.02.17-.84a.38.38 0 0 1 .05-.15.17.17 0 0 1 .08-.04zm-1.12.2l-.92.2.02.08h.12a.2.2 0 0 1 .04.1l.13.58v.1c-.02.03-.05.04-.1.06h-.02l.03.08.53-.12-.02-.07h-.01l-.11-.01c-.02-.01-.03-.04-.04-.09l-.12-.57a.34.34 0 0 1-.01-.1l.03-.03a.26.26 0 0 1 .1-.04c.1-.02.16-.01.21.02.06.04.1.09.13.16l.08-.02zm-1.69.67l.08-.2a.14.14 0 0 1 .08-.04l-.02-.08-.31.08-.09.3c-.02.07-.03.13-.05.15a.13.13 0 0 1-.03.05.33.33 0 0 1-.1.04l-.07-.23v-.1c0-.03.03-.05.09-.06h.01l-.02-.09-.53.15.02.08h.02c.05-.02.08-.02.1 0 .02.01.04.04.05.08l.16.59v.1c-.01.02-.04.04-.09.05l-.02.01.02.08.4-.1.09-.03.19-.06a.48.48 0 0 0 .1-.07.24.24 0 0 0 .08-.12.26.26 0 0 0 0-.13c-.03-.12-.12-.18-.27-.2a.84.84 0 0 0 .11-.25m-1.03.51a.51.51 0 0 0-.26-.3.59.59 0 0 0-.44-.03.7.7 0 0 0-.28.17.46.46 0 0 0-.13.26.6.6 0 0 0 .02.26c.02.09.08.17.15.23a.5.5 0 0 0 .26.13c.1 0 .2 0 .29-.03a.55.55 0 0 0 .36-.28.53.53 0 0 0 .03-.4m-1.19.62a.26.26 0 0 0-.11-.14.3.3 0 0 0-.18-.03c-.06 0-.15.03-.24.06l-.07.02-.09-.23c-.01-.04-.02-.07 0-.1a.16.16 0 0 1 .08-.06h.02l-.03-.08-.52.19.03.08h.01c.05-.03.09-.03.1-.02.03.02.05.04.06.09l.21.57c.02.04.02.07.01.1 0 .02-.03.04-.08.06h-.02l.02.08.4-.13.22-.1a.4.4 0 0 0 .13-.09.25.25 0 0 0 .07-.13c0-.05 0-.1-.02-.14m9.8-1.14l.3-.01-.36-.23h-.06zm14 2.15a.6.6 0 0 1-.35.11c-.14 0-.24-.04-.24-.04-.47-.12-4.8-2.04-12-2.04-7.19 0-11.53 1.92-12 2.04 0 0-.1.04-.23.04a.59.59 0 0 1-.35-.1l-1.48-1.16h.01c.43 0 .9-.23.92-.23 3.83-1.68 8.22-2.37 13.13-2.42 4.91.05 9.3.74 13.13 2.42.02 0 .5.23.93.23zm-17.17 14.27l-.57.35-.54-.35zm2.6.25c-.1-.05-.3-.13-.46-.22l-.06-.03h4.63a.7.7 0 0 1-.07.03c-.16.1-.36.17-.46.22a5.06 5.06 0 0 1-.66.23h-2.26c-.2-.05-.4-.12-.6-.2l-.06-.03m6.96.09h-.01a5.5 5.5 0 0 0-.48-.34h.97l-.45.32-.03.02m-10.75-9.25v2.4a2.98 2.98 0 0 1 0-2.4m5.58 4.02l-4.44 1.43h3.47zm-.02 4.58h-5.9a.17.17 0 0 1 .06-.16l.24-.31H125zm-.24-.79h-5.16l.25-.47h4.77zm-.24-.79h-4.53c.06-.15.12-.3.16-.47h4.23zm-.24-.79h-4.05c.03-.15.06-.31.07-.48h3.84zm-2.58-1.58h-1.4c-.03-.14-.05-.3-.1-.47h2.16zm-.44.32l-.67.47h-.27v-.04c0-.06.02-.21 0-.43zm3.78 3.63l-.02.07v-4.65l4.44 1.43h-3.46l-.1.3h3.9l.1.48h-4.14l-.1.32h4.32c.05.16.11.32.18.47h-4.64l-.1.32h4.88l.26.47h-5.28l-.1.32h5.58a6.39 6.39 0 0 0 .35.47zm1.05-7.11v-3.55c.15.1.3.18.47.24v2.95zm-.81.61v-5.14c.08.12.15.23.18.3l.03.03c.07.14.16.27.27.37v4.08zm-.79-.2v-4.14c.15-.13.28-.28.39-.47l.02-.04.07-.1v5.11zm-.79-.6v-3.08c.17-.06.33-.13.48-.23v3.67zm3.17-3.01c.17.05.33.09.48.11v2.13l-.48.37zm-3.96.13c.15-.02.31-.05.48-.1v2.74l-.48-.36z"/>
    <path d="M122.74 110.82h.31v-1.39l-.31-.93zm2.42.64l-1.62-.6-.6.44h-2.69c-.05-.15-.1-.32-.18-.48a6 6 0 0 0-.17-.36v-3.52c.1-.12.25-.27.47-.43v4.31h.31v-4.5c.14-.08.3-.15.48-.22v4.72h.31v-4.8c.15-.04.31-.08.48-.1v4.9h.32v-4.92h.2l.27-.02v2.01l-.28-.2zm2.64-3.61l-.3.92v2.05h.3zm2.48 2.97l-.18.48h-2.71l-.6-.44-1.2.44-.43.16 2.64-3.74v-1.84l.37.01h.1v4.93h.33v-4.9c.16.01.32.03.47.07v4.83h.31v-4.75c.18.06.34.12.48.19v4.56h.31v-4.38a2.8 2.8 0 0 1 .48.41v3.25c-.15.25-.27.5-.37.72m-2.46.78h2.19c-.05.19-.07.35-.1.48h-1.42zm1.77 1.27l-.67-.47h.98l.01.33.01.14zm2.38 11.23h-.01l-.02.02.02.23c.02.19.02.37-.02.58-.23.96-1.03 1.3-1.6.73 0 0 .62 1.16 2.02.74.34-.1.6-.39.8-.82.16-.37.09-.75-.02-.97h-.02s-.02.01-.01.02c.04.21-.03.58-.16.88-.06.16-.21.43-.45.5.14-.21.24-.38.3-.52.1-.2.1-.32.1-.4 0-.44-.2-.93-.4-1.11h-.03v.02c.22.53.24.98.05 1.4l-.06.13c-.16.29-.45.63-.87.62.2-.14.38-.36.5-.61.23-.56.19-1.18-.12-1.43m-5.05 4.9c-.02.04.87-.18 1.03-.97.04-.5-.24-.65-.3-.62-.01 0-.02.04 0 .06.13.33.08.85-.18 1.16-.18.22-.52.34-.55.37m-.53-8.58c-.19.33.3.73.41 1.06.6.09-.15-.97-.41-1.06m.11-.9c-.12.07-.13.33-.11.44.05.32.41.47.58.64.04 0 .02-.5-.47-1.07m.12 3.67c.43-.18-.22-1.05-.27-1.21.1.05.45.42.59.3.22-.18-.46-1.07-.64-1.14-.96 1.26.27 1.63.32 2.05m-.73-4.04c-.16.04-.07.32-.07.44 0 .67-.02 1.33-.19 1.9-.08.27-.3 1.17-.9 2.3a6.96 6.96 0 0 0 1.26-2.73c.07-.6.18-1.39-.1-1.91m-.54.4c-.46-.01-.51.3-.6.65.2-.16.49-.37.46 0-.16.14-1.18.4-.92.85.17.24.72-.74.88-.41.09.66-1.96.86-1.9 1.43.01.3 1.61-.78 1.84-.76-.01.35-2.38 1.31-3.1 2.6-.05.1-.08.17-.06.19l.02-.01c.44-.7 1.6-1.65 3.04-2.04.5-.14.74-1.72.34-2.5m-5.09 3.27c.23.63.35 1.58-.65 1.83-.77.2-1.47-.39-1.83-.71.23.71 1 1.25 2.04 1.02-.22.6-.98.84-1.87.35a2.74 2.74 0 0 1-.52-.38c.16.45.53.78.95.94.68.24 1.36-.02 1.72-.37 1.1-1.08.5-2.6.16-2.68m-1.94-.54c.55.14 1.03.43.89.94-.04.15-.17.27-.38.29-.3.02-.5-.2-.66-.43.04.48.33.8.82.74.26-.03.6-.27.65-.54.16-.76-.54-1.07-1.32-1m13.86-.07c.15 0 .27 0 .39.02 1.48.38 1.53 2.2 1.29 2.31-.01-.01-.02 0-.02.02a2.3 2.3 0 0 0-.13-.31c-.09-.2-.2-.3-.24-.3-.01.01-.02.04 0 .05.32.57.3 1.01.14 1.56-.11.3-.29.6-.57.8-.75.52-2.24.6-3.05-.02-.28.28-.64.5-1.06.64-.1-.46-.6-1.06-1.04-1.38-.1-.06-.34-.22-.45-.22 0 0-.1.01 0 .1.78.49 1.18 1.08 1.18 1.83v.02a2.58 2.58 0 0 1-.57 1.57c-.72.79-2.66.9-3.55.15a1.89 1.89 0 0 1-.46-.91c.1.27.3.54.72.67.39.13 1.14.04 1.25-.41-.66.68-1.87.17-2.04-.99v.01c-.02-.07-.06-.08-.06-.08-.04 0-.08.01-.06.53 0 .32.1.72.25 1.06-1.49.27-3.27-.46-3.24-2.68.02-.3.13-.6.42-.93.05-.06.01-.1.01-.1-.04-.01-.23.11-.34.26-.14.2-.28.47-.34.73-.94.34-1.51.35-2.05.3a2.7 2.7 0 0 1-1.52-.87 4.02 4.02 0 0 1-.34-.54 2.4 2.4 0 0 1-.26-1.33c.08-.86.5-1.6 1.14-1.94a4.06 4.06 0 0 1 2.36-.35 1.8 1.8 0 0 1 .8.37c.34.3.55.77.53 1.38 0 0 0 .03.02.03.04 0 .1-.16.09-.37 0-.23-.06-.5-.16-.74v-.12a.49.49 0 0 1 .1-.23c.17-.19.58-.25.9-.12h.04c0-.05-.21-.28-.61-.28-.08 0-.16 0-.24.03.22-.37.83-.63 1.47-.6 0 0 .03 0 .03-.02 0-.04-.15-.1-.36-.1-.3 0-.65.08-.9.21.3-.36.82-.7 1.7-.81.03-.1-.66-.03-.86.04.4-1.6 1.27-1.42 1.28-1.53-.25-.09-.43-.4-.25-.74.92.32 1.6.35 1.8.35.2 0 .91-.03 1.85-.37.1.13.1.28.05.41-.14.4-1.38.72-2.54.38a.6.6 0 0 1-.15-.08h-.01l.01.03c.02.03.16.1.16.1.5.27 1.56.37 2.14.08.5-.21.94.4.78.7.37-.02.64.2.67.57l-.2-.09c-.12-.07-.25-.07-.26-.06v.02l.01.01.16.08c.67.4 1 1.16.93 1.4-.05-.14-.27-.26-.47-.26-.1-.01-.17.01-.17.03 0 .01 0 .02.02.02.08 0 .15.04.23.1.23.17.45.48.56.74-.42.4-.57.87-.81 1.5-.1.23-.3.48-.58.5h-.13l-.1-.02h-.03c.33.27.68-.02.9-.14.03.6.24.75.26.74v-.02c-.41-1.23.4-2.39 1.04-2.76.86-.46 2.4-.53 3.43.35a2.32 2.32 0 0 0-.55-.1c-.21 0-.37.05-.37.09 0 .02.02.03.03.03"/>
    <path d="M144.55 105.25c-.09-.44-.3-1.55-.34-1.46.93 8.39.42 10.46.26 10.43-.13-.05-.28-1.03-.75-.73-.45.29 1.05 2.14.45 3.16-.14.16-.26-.23-.5-.16-.62.2.33 1.8.15 1.97-.13.12-.6.21-.6.8-.01.27.17.49-.05.71-.17.17-.14-.15-.32-.07-.29.3-.02.65-.17.88-.08.06-.28-.18-.43-.06-.17.14.1.4-.12.5-.27-.03-.67-.33-.6-.78.05-.23.32-.38.3-.65 0-.22-.29-.49-.34-.6-.4-.91.27-1.1.18-1.41-.04-.16-.33-.25-.51-.18-.25.1-.3.92-.22 1.25.09.38.62.84.62 1.05 0 .23-.26.5-.29.81-.04.49.33.97.82.86.3-.06.51-.33.7-.56.08-.1.2-.17.26-.25.56-.7 1-1.93 1.28-2.92.8-2.92 1.18-7.51.22-12.6m-4.14 11.92a2.1 2.1 0 0 0-.7-.35c-.44-.1-.84.05-1.03.32.33.1.61-.12 1.05-.07l.42.08c.12.05.22.17.36.17.05-.05-.05-.11-.1-.15m-4.63-13.88a.26.26 0 0 1-.03-.06c-.24 0-.74.35-.75.36-.07.04-.3.17-.48.1-.2-.1-.3-.3-.41-.4a.51.51 0 0 0-.04.11v.02a.6.6 0 0 0-.01.1v.11l.02.04a.3.3 0 0 0 .05.09c0 .02.02.03.03.05l.03.03.07.04.02.02c.11.06.25.08.39.07a.93.93 0 0 0 .53-.2c.17-.16.51-.2.72-.21 0 0-.1-.15-.14-.27m-19.09 1.1a.12.12 0 0 0-.01-.05l-.03-.02-.02-.02a.45.45 0 0 0-.18-.03c-.12 0-.25.02-.34.03-.01-.08.03-.13.1-.18l.09-.05.14-.07c.01-.12-.19-.19-.28-.19-.2 0-.34.22-.4.36a.31.31 0 0 1-.06.04l-.05.03c-.17.1-.44.13-.69.14.05.46 1.31.15 1.34.14.13-.04.3-.04.4-.1v-.03m19.54 3.14a1.98 1.98 0 0 0-1.7.87c.06-.02.37-.37.73-.51a1.7 1.7 0 0 1 1.53.19c.01.01.06.02.08 0 .05-.05 0-.42-.64-.55m-3.75.73a.62.62 0 0 0-.05-.07l-.05-.05a.23.23 0 0 0-.06-.03l-.02-.01a.25.25 0 0 0-.05-.02h-.1l-.06.02-.03.01-.06.04-.04.02-.07.05c0 .02-.02.02-.03.03 0 0-.13.23.07.26a.56.56 0 0 1 .1-.1.24.24 0 0 1 .06-.02h.06a.1.1 0 0 1 .04.02l.01.02.02.04.01.02.02.08v.03l.02.07v.11c.03.35.01.84.12 1 0 .02.02.04.03.04v.01l.05.02a.1.1 0 0 0 .06-.02l.02-.02.01-.02.01-.03.01-.05v-.04l.01-.07v-.45c0-.08 0-.16.02-.26.02-.2-.02-.46-.13-.63m-1.43-1.23c-.08-.13-.86-1.33-2.89-1.33-.18 0-1.8-.03-2.36-1.07l-.04-.04c-.06-.12-.27-.45-.36-.63a.1.1 0 0 0-.09-.05.12.12 0 0 0-.1.05c-.08.18-.29.51-.35.63a.26.26 0 0 0-.04.04c-.55 1.04-2.18 1.07-2.36 1.07-2.03 0-2.8 1.2-2.89 1.34-1 1.48-.06 3.16-.05 3.18.83 1.43.75 2.42.72 2.6 0 1.59-1 2.79-1.1 2.92a.4.4 0 0 0-.12.31c.02.15.13.24.17.25.22.15.7.46.91.58l.1.06.07.03c.06 0 .1-.04.2-.11a1.81 1.81 0 0 1 1.55-.41c.34.04.89.32.9.33.16.09.37.18.47.22l.05.02c.9.38 1.66.4 1.87.4.21 0 .97-.02 1.86-.4l.05-.01.49-.23s.55-.29.88-.33l.35-.03c.64 0 1.01.28 1.2.44.1.07.15.1.21.1.03 0 .07 0 .1-.03l.1-.06.9-.58c.02 0 .13-.09.15-.23 0-.08 0-.2-.12-.32a4.84 4.84 0 0 1-1.1-2.9c-.03-.2-.11-1.19.72-2.62.04-.08.93-1.74-.05-3.19m-11.98 2.72l-.03-.06-.05-.12c0-.02-.02-.03-.03-.05l-.04-.07-.03-.05-.08-.1-.02-.02a.43.43 0 0 0-.07-.06l-.03-.03-.1-.06h-.01l-.11-.04h-.03a.49.49 0 0 0-.13-.01.17.17 0 0 0-.02.09c0 .12.13.24.2.4.05.13.04.22.12.32.13.01.24-.03.28.09-.2.16-.21.5.04.76.38.37 0 1.17.07 1.27.12-.1.2-.36.23-.7v-.07l.01-.11v-.1l.01-.08v-.29l-.02-.1v-.06a1.25 1.25 0 0 0-.03-.23l-.02-.09-.01-.07-.02-.08-.03-.13-.03-.07-.02-.08m12.57 1.65a.8.8 0 0 0 .17.02.7.7 0 0 0 .2-.03c.03 0 .15-.23.2-.45.02-.06.12-.4.24-.52.12-.11.07-.34-.21-.31h-.02c-.3.05-.64.52-.5 1a.72.72 0 0 1-.22 0 .5.5 0 0 1-.11-.03l-.03-.01-.06-.03a.2.2 0 0 1-.05-.03c-.07-.06-.1-.17-.2-.17 0 .18.11.33.26.43.1.07.2.1.33.13m-12.75 1.85c-.17-.04-.2.68-1.07.5-.46-.2-.82-.07-1.1.05 1.23.7 2.26 0 2.17-.55m-4.27 4.94c-.58.2-1.24.3-1.48.76.83-.07 1.65-.08 2.18-.37l.06-.04c.16-.11.6-.46.79-1.1-.7.44-.96.54-1.55.75m-1.81 2.8c-.22.02-.38.16-.57 0-.02-.01-.3-.22-.24-.48.02-.18-.23-.27-.31-.15-.2.44.5 1.04.68 1.1.4.14.7-.1 1.14-.17.25-.04.53 0 .74-.02.47-.03.34-.38.26-.43-.39-.11-.62.19-.95.24-.25.02-.5-.11-.75-.09m-.67-.55c.53-.2.57.48.7.33.19-.32-.32-.79-.7-.33m-3.23-19.52c.08-.07.18-.12.26-.2l.07-.07c-.05-.1-.15-.08-.27-.04l-.03.01-.3.18c-.09-.15.1-.3.18-.42-.01-.04-.06-.06-.12-.07a.4.4 0 0 0-.2.03h-.01c-.18.08-.21.34-.22.49a.6.6 0 0 1-.3.48c.35.22.9-.34.94-.4m25.41 16.4c-.14-.26-.36-.56-.68-.64-.6-.15-1.2.34-1.22.42-.03.07.5-.25 1-.21.37.02.67.28.88.46.02.03.05 0 .02-.04m-2.28 2.93c-.02-.02-.06-.02-.08-.01-.35.18-1.02.16-1.5-.09-.36-.19-.64-.54-.7-.57a2.3 2.3 0 0 0 1.63 1.05c.63 0 .7-.33.65-.38m13.43-8.28c-.14 2.3-.32 4.37-.88 6.28-.34 1.17-1 3.56-2.54 3.88-.73.16-1.28-.52-1.27-1.12.01-.52.38-.78.22-1.3a4.4 4.4 0 0 1-.49-1.08c-.09-.37.25-.53.14-.93-.47.07-.71-.32-1.4-.17a2.2 2.2 0 0 0-1.28-.13s.02.02.03.01c.69.02 1.32.25 1.45.55.14.47.05 1.16-.3 1.42-.39-.08-.59-.42-1.97-.34-1.14.07-1.42-.14-1.58-.84a.47.47 0 0 0-.06.33c.05.38.43.61.89.66.1.17.1.3.1.47-.2.02-.3.03-.56-.02-.54-.08-1.29-.39-1.47-.93a.98.98 0 0 1-.04-.28 1.2 1.2 0 0 1 .1-.42c.17-.37.6-.58 1.5-.62.02 0 .04-.01.04-.03 0-.04-.18-.07-.41-.05 0 0-.85 0-1.23.44l-.07-.08a1.74 1.74 0 0 0-1.02-.48c-.41-.02-.87.25-1.03.47-.55.73.16 2 .15 2.48-.03 1.27-1.76.7-2.4.37a6.2 6.2 0 0 1-1.85-1.66 5.48 5.48 0 0 1-.73-1.1c.22-.11.88-.4 1.38-.4h.02l.18-.02c.26 0 .75.05 1.12.35a.6.6 0 0 0 .39.15c.16 0 .3-.06.44-.18.09-.07 1.17-.94 1.53-1.18a.42.42 0 0 0 .18-.28c0-.09 0-.23-.14-.38a6.2 6.2 0 0 1-.99-1.6l-.14-.4c-.13-.46-.22-1.2.42-1.43 0 0 .71-.19.66 1 0 0 .12-.76.67-.74.24.01.45.25.4.76h.01a6.46 6.46 0 0 0 .07 1.72l.05-.3c.03-.3-.18-3.05 2.07-4.9 0 0-.96.46-1.61 1.62-.38-.22-.9-.7-.66-1.73.12-.36.36-.69.55-.79.01 0 .03-.03.03-.05 0-.04-.12-.13-.33.07l-.1.11a1.9 1.9 0 0 0-.17.35c-.26.22-.5.46-.74.7v.01c-.18.37-.08 1.46-1.15 1.47h-.1c-.05 0-.12 0-.18-.03h-.04a4.1 4.1 0 0 0-.2 1.66 5.98 5.98 0 0 0 1.32 2.67c.04.04.08.1.08.18a.17.17 0 0 1-.06.1c-.38.24-1.45 1.1-1.57 1.2a.36.36 0 0 1-.26.12.4.4 0 0 1-.24-.09 2.03 2.03 0 0 0-1.49-.4h-.01c-.62.02-1.4.39-1.55.47a5.59 5.59 0 0 1-2.03.46 5.6 5.6 0 0 1-2.03-.46 4.34 4.34 0 0 0-1.55-.47h-.22a2 2 0 0 0-1.28.4s-.1.09-.24.09a.37.37 0 0 1-.25-.12h-.01c-.12-.1-1.2-.96-1.56-1.2a.12.12 0 0 1-.06-.1c-.01-.07.03-.14.07-.18a5.92 5.92 0 0 0 1.31-2.67c.01-.05.04-.26.01-.6a17.54 17.54 0 0 1-.4 1.14c-.14.24-.37.4-.6.54-.2.11-.41.14-.6.27-.28.2-.58.4-.77.77 0 .71-.37 1.24-.37 1.24.1.05.53-.26.57-1.03.5.53.76 1.31.94 2.17.4.53 1.47.32 1.88.25.1-.02.29-.05.37-.12.11-.08.14-.26.3-.33.17-.07.36-.02.57 0 .07-.08.1-.18.15-.28l.14.01h.03c.58.01 1.38.4 1.45.44h.02l.09.04c-.23.29-.59.38-.9.42-.41.07-.63.4-1.01.5-.1.01-.44.07-.56.03-.85-.11-1.45.2-2.24.26-.76.06-.78-.46-1.06-.89-.1-.16-.22-.34-.35-.46-.2-.2-.45-.21-.7-.4l-.04.02c-.05.26-.16.68-.35.97v.01l-.06.1a2.72 2.72 0 0 1-1.8 1.35c-.17.07-.2.09-.32.17-.14.12-.04.26 0 .27.27.15.71.1 1.01.24.73.34.47.95.19 1-.37.07-1.03.24-1.16.32-.18.11-.29.42-.57.52-.22.07-.4.06-.6.04-.18-.03-.3-.16-.42-.14.16.23.45.35.82.38-.32.1-.21.6-.5.73-.13.02-.32-.04-.53-.14-.02.16-.1.7-.41.89-.25.14-.34-.08-.32-.22 0-.13.37-.29.43-.85l-.19-.13c-.04.24-.15.6-.39.73-.24.14-.33-.07-.32-.22.01-.12.33-.25.43-.73a5.45 5.45 0 0 1-.25-.21c-.49.13-.6.48-.72.5-.14.03-.36-.04-.25-.3.12-.25.48-.4.7-.46l-.14-.17c-.58.1-.69.5-.82.52-.13.03-.36-.05-.25-.3.16-.33.72-.47.86-.5-.1-.16-.14-.3-.12-.4-.44.04-1.22-.2-1.07-.71.15-.1.67.32 1.14.08.32-.49.83-.51.94-.6.18-.14.2-.4.29-.62.14-.42.44-.76.68-1.14.27-.42.55-.85.84-1.2a.7.7 0 0 0 .05-.36c-.32-.51-1.3-1.12-1.69-1.5-.4-.37-4.2-3.25-4.68-4.51a2.6 2.6 0 0 1-.15-1.02c-.23-.13-.64-.06-.75.08-.25.3.26.58.13.97-.05.15-.25.2-.41.15-.28-.1-.34-.66-.2-1 .04-.1.18-.22.07-.3-.14-.05-.23.09-.23.3a.32.32 0 0 1-.11-.34c.07-.27.4-.28.52-.35-.02-.12-.2-.18-.33-.06-.2-.31.03-.43.07-.44.23-.04.48.16.62.18.07-.15-.04-.2-.28-.27.38-.46.72.33 1.14.24.13-.03 1.32-1.15 1.12-2a.77.77 0 0 0-.08-.2c-.27-.32-.7-.58-1-.89-.63-.4.59-2.9.49-4.17-.08-.5.43-.41.72-1.22-.3 0-.6-.08-.76-.31l-.05-.07a.62.62 0 0 1 .54-.93c.35 0 .63.27.63.62v.09c.13 0 .3-.02.5-.1l.55-.3s-1.94-1.64-5.1-.7c0 0-1.43.47-1.03 1.74 0 0 .07.21.26.34a.72.72 0 0 1 .7-.56.72.72 0 0 1 .52 1.21l-.1.09-.02.02c-.21.14-.54.23-1.03.1 0 0-1.38-.4-.88-1.89 0 0-.93.21-1.29-.21 0 0-.12-.14-.1-.36v-.01c0-.09.03-.2.09-.3a.53.53 0 0 1 .87-.03c.04.05.13.1.32-.06 0 0 1.3-1.44 3.2-1.25 0 0 .05-.99.71-1.16l.1-.02c.18 0 .33.15.33.33 0 .19-.15.33-.33.33h-.04c0 .03-.08.32-.04.53a8 8 0 0 0 3.48 1.41s.96-.27 1.6-.3c0 0 .09-.22-.34-.26 0 0-.55 0-.53-.17 0 0-.04-.2.4-.19 0 0-.06-.2.29-.4 0 0 .22-.11.1-.26 0 0-.41-.23-.29-.5 0 0 .11-.33.7-.24 0 0 .2 0 .03-.16 0 0-.29-.31.2-.56 0 0 .38-.21.63.19 0 0 .06.15.29.03 0 0 1.24-.56 1.88.36 0 0 .03.15.22-.1 0 0 .64-.76 2.38-.82a.65.65 0 0 1 1.22.19c.2 0 .97.06 1.79.6 0 0 .3.18.61.33a.91.91 0 0 1 1.82.03c0 .45-.32.82-.75.9-.02 0-.6.17-1.45-.35 0 0-.68-.47-.84-.47 0 0 .16.77.29 1.63l-.39.04c-.1-.8-.28-1.73-.6-1.78l-.47-.1a.52.52 0 0 1-.09.17c-.07.1-.21.23-.49.2l-.04-.02a.53.53 0 0 1-.4-.45c-.09-.02-.88-.15-1.29.17 0 0 .77.26.86.53 0 0 .22.45-.53.86 0 0-.56.33-.71-.02 0 0-.06-.16.2-.38 0 0 .26-.29-.25-.24 0 0-.35.04-.47.17 0 0 .1.97.32 1.63l-.6.16a9.67 9.67 0 0 1-.21-.69s-.04-.56-.24-.71c0 0-.74.6-.42 1.65l-.69.23c-.02-.5.1-1.32.76-2.49 0 0-.6-.8-1.22-.38 0 0-.88.57-.32 1.07 0 0 .38.32.55-.08a.37.37 0 1 1 .38-.39.9.9 0 0 1-.3.8s-.32.34-.83.23a2.89 2.89 0 0 0 .57 1.39l-.43.16c-.03-.53-.19-1.5-.91-1.23l.77 1.28-.87.36-.07.03c.04-.22.1-.77-.19-1.09 0 0-.36-.34-.98.15 0 0 .83.7 1.08.97-.17.07-.44.15-.68.15h-.23l-.05-.03s-.54-.4-.91-.56c0 0-.11-.07-.22.05 0 0-.68.8-.15 1.63 0 0 .3.75.97.58 0 0 .19 0 .3-.25 0 0-.64-.03-.57-.47 0 0 .01-.47.58-.44 0 0 .8.08.61 1.04 0 0-.13.58-.59.58 0 0 .26.32.07.45 0 0-.19.18-.61-.12 0 0-.11-.21-.63-.1 0 0-.34.14-.53-.12 0 0-.09-.04-.09-.41 0 0 .04-.14-.2-.53 0 0-.12-.26-.14-.68a1.2 1.2 0 0 1-.53.25c-.26.27-.28 1.54-.55 2.16-.07.14.12.78.12 1.47a3.7 3.7 0 0 1 2.84 2.52c.3 1.06-.1 2.13-.15 2.42 0 .04.03.04.05 0 .08-.16.15-.33.21-.5a4.54 4.54 0 0 1 2.07.27c.03.01.06.03.1.03a3.99 3.99 0 0 1 .3.15c1.34.69 1.95 1.8 2.31 2.43-.19.04-.76.22-.95.51.49-.04.86-.24 1.35-.25.73 0 1.21.4 2.01.3 0-.03.1-.37.62-.58a3.6 3.6 0 0 1 .25-1.36s-.6-.46-.44-.85l.12-.3c-.02 0-.05 0-.08.02-.09.04-.2-.12-.33-.33-.07-.11-.38-.76-.15-.82l.15-.02a3.1 3.1 0 0 1 .45-2.38c.04-.07.9-1.48 3.23-1.48h.03c.23 0 2.28-.04 3-1.4.05-.08.21-.3.39-.3.18 0 .34.22.38.3.73 1.36 2.77 1.4 3 1.4h.04c2.33 0 3.2 1.41 3.23 1.47v.01c.29.42.43.85.48 1.26.46.25.43 1.28.44 1.46.13-.18.4-.7.96-.83-.09-.48-.06-1.28.47-1.39.15-.02.29.22.25.4.45-1.28.07-2.07.41-2.17.43 0 .45.76.5.78.03-.07.17-.3.18-.64 0-.4-.05-.8.13-.87.6-.1.31 1.66.78 1.48-.12-.78 0-1.21.32-1.34-.01-.36-.05-.7-.2-.7-.86-.2-1.65.49-2.4.28l-.08.05c-1.39.75-2.26.18-2.35.26-.39.35-.54-.18-.65-.12-.73.4-1.12-.29-1.31-.32-.17-.02-.48.36-.82-.45-.15-.36-.95-.52-1.02-.54-.32-.04-.4.19-.4.19-.03.09-.06.17-.1.24a.62.62 0 0 1-.1.15.4.4 0 0 1-.34.11.46.46 0 0 1-.33-.73c.02-.02.1.08.2.07.18 0 .32-.14.32-.32.02-.37-.54-.74-.54-.74-.32-.3-.73.11-.73.11-.23.18-.39.2-.39.2-.23 0-.34-.26-.34-.26s-.1.26-.35.26c0 0-.15-.02-.38-.2 0 0-.41-.4-.74-.11 0 0-.56.37-.53.74 0 .18.14.32.32.32.1.01.18-.1.2-.07.06.08.1.17.1.28 0 .24-.2.44-.44.45a.4.4 0 0 1-.32-.1.54.54 0 0 1-.12-.16 1.5 1.5 0 0 1-.1-.24s-.07-.23-.4-.19c-.06.02-.87.18-1.01.54-.34.81-.65.43-.82.45-.19.03-.59.73-1.31.32-.12-.06-.26.47-.65.12-.08-.07-.77.36-1.87-.04-.07.13-.42.2-.51.23-.23.06-.43.24-.57.31-.31.16-.82.06-1.17.1-.14.02-.34.1-.46.17a4.46 4.46 0 0 0-1.46 1.3c-.14.17-.2.3-.32.6-.16.56.09 1.16.17 1.74l.06.54a3.33 3.33 0 0 0-1.73.08c.18-.6.21-1.25.14-1.75.28-.2.44-.55.46-.71.03-.3-.1-.6.07-.82.25-.35.8-.66 1.14-.9.11-.07 1.67-1.27 1.87-1.32.22-.04.36.12.56.09.06-.02.12-.07.17-.1 0 0 .13-.15.32-.28a21.3 21.3 0 0 0-1.5-.86s-.7-.39-.37-.4c0 0 .5.02.54-.08l-.53-.22c.74-.27 1.5-.5 2.26-.71.48.48 1.11 1 1.72 1.22 0 0 .88-.03 1.17.61.09.2.46-.37 1.23.06.07.04.19-.17.4-.23.08-.02-.3-.08-.23-.42.01-.04-.63 0-.84-.36-.06-.1-1.43-.07-2.63-1.1l.68-.15c.4.3.9.5 1.45.47 0 0 .74-.04 1.05-.92l1.41-.18h-.01c.13.07.78.38.49.77 0 0-.16.2-.43-.06 0 0-.17-.16-.24.09 0 0-.02.13-.1.25 0 0-.13.19.13.1 0 0 .24-.07.46-.04.23.01.41.2.41.44s-.17.47-.41.47c-.01 0-.06 0-.06-.03a.17.17 0 0 0 .07-.13c0-.08-.08-.18-.17-.16-.26.08-.19.6.18.61 0 0 .32-.01.59-.34 0 0 .62-.92 1.19-1.12.04-.01-.1-.33.26-.44.04-.01-.01-.3.36-.26.01 0 .08-.13.17-.33a53.1 53.1 0 0 1 1.96 0c.09.2.16.33.17.33.37-.03.32.25.36.26.37.1.22.43.27.44.56.2 1.18 1.12 1.18 1.12.27.33.59.34.59.34.36-.01.44-.53.17-.6-.08-.03-.15.07-.15.15 0 .06.02.1.06.13 0 .02-.05.03-.06.03-.24 0-.4-.23-.4-.47 0-.24.17-.43.4-.44.22-.03.46.04.46.04.25.09.12-.1.12-.1a.66.66 0 0 1-.09-.25c-.07-.25-.24-.1-.24-.1-.27.27-.43.07-.43.07-.29-.39.36-.7.49-.76h-.01c.47.04.94.1 1.4.17.31.88 1.06.92 1.06.92.56.04 1.04-.17 1.44-.47l.7.16c-1.22 1.02-2.58.99-2.64 1.1-.2.35-.86.31-.84.35.08.34-.3.4-.24.42.22.06.34.27.41.23.77-.43 1.14.14 1.23-.06.29-.64 1.17-.6 1.17-.6.6-.23 1.23-.75 1.72-1.23a27.88 27.88 0 0 1 2.06.67l-.04.1-.02.05-.1.18c-.17.3-.43.59-.52.69l-.03.03s.5.77.83.24c.03-.06-.03-.25-.35-.25 0 0 .37-.58.46-.98h.01l.33.12c.03 0 .06 0 .09.02-.2.39-.5.6-.41.74.07.03.35-.1.51.13.04.05.08.34.11.64.2-.11.43-.12.5-.12.53.01.73.8.59 1.06.07.05.38.3.4.23.17-.37 1.02-.77.94.07.14-.41.24-.87.71-.84.35.09.12.67.25.67.1-.17.24-.84.75-.68.16.06.28.18.28.4.03.65-1.82 4.03-1.99 5.5l-.08.02c-.18.1-.2.39-.17.6v.04c-.21.04-.57.24-.62.85 0 .56.24.83.3.83.02 0 .02-.03.01-.05-.14-.43-.24-.96.08-1.25a.63.63 0 0 1 .32-.12c.1.18.23.28.25.27.02 0 .02-.03.01-.04-.17-.3-.16-.71 0-.9a.54.54 0 0 1 .33-.15c.52.18.78 1.17.9 1.47.34-.07-.56-2.05.13-2.48.29.03.45.35.55.64.23-.58-.73-1.81-.04-2.09.42-.1.57.97.58.83.12-1.64-.74-2.44-.19-2.69.46-.22.63 1.12.63.95-.02-1.75-.9-2.24-.52-2.55.43-.17.74.9.73.64-.04-1.57-.82-1.99-.47-2.48.4-.57 1.16 1.02 1.2.72.04-.36-.86-2.18-.34-2.3.44-.11.58.5.62.64a33.26 33.26 0 0 1 1.31 10.4m25.06 8.93c-.06 2.19-.12 4.38-.2 6.58h-.04c-.2-1.02-.42-1.9-.62-2.56l-1.02-4.02h-2.15l-1.22 5.13c-.1.47-.24.97-.33 1.45h-.06l-.15-6.58h-1.46l.32 8.26h2.68c.2-.63 1-4.1 1.47-6.74h.06a92.3 92.3 0 0 0 1.73 6.74h2.5l.31-8.26zm3.63 8.38h1.6v-1.45h-1.6zm.05-8.38v4.79l-.68.14v1.02h2.26v-5.95zm6.7 0v3.53c0 .9-.34 1.33-1.07 1.33-.41 0-.76-.18-1.04-.37v-4.49h-1.6v5.95h1.1l.24-.68c.34.4 1 .8 1.89.8 1.5 0 2.1-.88 2.1-2.39v-3.68zm3.35 8.38h1.6v-1.45h-1.6zm.05-8.38v4.79l-.68.14v1.02h2.26v-5.95zm4.37 4.38c0-.92 2.57-.64 2.57-2.58 0-1.08-.8-1.92-2.34-1.92-.71 0-1.38.2-1.78.44l.32 1.1c.28-.2.87-.41 1.41-.41.52 0 .88.3.88.66 0 1.06-2.54.71-2.54 2.74 0 .87.67 1.66 2.27 1.66.62 0 1.26-.12 1.67-.29l-.21-1.15c-.4.18-.91.3-1.44.3-.54 0-.81-.2-.81-.55m6.06-4.5c-1.06 0-1.8.62-1.8 2.11v2.83h-.87v1.13h.9v1.03l1.55.51v-1.54h1.59v-1.13h-1.59v-2.91c0-.41.2-.68.62-.68.34 0 .68.13.92.25l.24-1.16c-.35-.2-.93-.44-1.56-.44m4.78 5.03c-.79 0-1.1-.72-1.1-1.42h2.17c0 .76-.24 1.42-1.07 1.42m-1.1-2.36c0-.94.53-1.47 1.53-1.47.62 0 1.21.26 1.73.51l.3-1.11c-.5-.27-1.28-.6-2.23-.6-1.85 0-2.94 1.14-2.94 3.1 0 1.84.88 3.1 2.79 3.1 1.8 0 2.5-1.34 2.5-2.84v-.69zm8.27 2.07c-.2.07-.47.1-.75.1-.42 0-.8-.18-1.06-.4v-4.32h-1.58v5.95h1.1l.17-.8h.05c.18.43.72.91 1.42.91.32 0 .55-.05.68-.08l-.03-1.35m1.39 3.75h1.6v-1.45h-1.6zm.05-8.38v4.79l-.68.14v1.02h2.26v-5.95zm6.73 2.99c0 1.43-.43 1.93-1.17 1.93s-1.15-.51-1.15-1.93c0-1.38.37-1.94 1.15-1.94.78 0 1.17.52 1.17 1.94m1.62 0c0-2.03-1.02-3.11-2.79-3.11-1.78 0-2.8 1.07-2.8 3.1 0 1.76.98 3.1 2.8 3.1 1.8 0 2.8-1.34 2.8-3.1m7.56 1.61c-.25.15-.62.3-1.08.3-.76 0-1.23-.52-1.23-1.9 0-1.42.45-1.96 1.2-1.96.4 0 .8.2 1.1.51zm.14.9c-.1.34-.14.64-.14 1.1v1.79h1.58v-8.38h-1.3l-.18.66a1.92 1.92 0 0 0-1.57-.78c-1.35 0-2.43.97-2.43 3.1 0 1.96 1.12 3.1 2.56 3.1.65 0 1.15-.23 1.48-.59m5.34-.58c-.79 0-1.1-.72-1.1-1.42h2.17c0 .76-.24 1.42-1.07 1.42m-1.1-2.36c0-.94.53-1.47 1.53-1.47.62 0 1.21.26 1.73.51l.3-1.11a4.68 4.68 0 0 0-2.23-.6c-1.85 0-2.93 1.14-2.93 3.1 0 1.84.87 3.1 2.78 3.1 1.8 0 2.5-1.34 2.5-2.84v-.69zm-64.99-14.69V117h5.04v-1.35h-3.45v-2.05h2.63l-.12-1.41h-2.5v-2.13h3.44v-1.32zm10.99.4a4.62 4.62 0 0 0-2.04-.52c-1.78 0-2.84 1-2.84 3.1 0 1.94 1.06 3.1 2.82 3.1.8 0 1.47-.17 2.04-.5l-.4-1.07c-.43.25-.98.36-1.5.36-.83 0-1.35-.56-1.35-1.9 0-1.34.5-1.89 1.36-1.89.62 0 1.23.23 1.62.45zm4.76 2.59c0 1.43-.42 1.93-1.16 1.93s-1.15-.51-1.15-1.93c0-1.39.38-1.94 1.15-1.94.78 0 1.17.52 1.17 1.94m1.63 0c0-2.03-1.03-3.11-2.8-3.11-1.78 0-2.8 1.07-2.8 3.1 0 1.76.98 3.1 2.8 3.1 1.8 0 2.8-1.34 2.8-3.1m4.87-2.98v3.53c0 .9-.33 1.33-1.06 1.33-.42 0-.77-.18-1.05-.37v-4.49h-1.59v5.95h1.1l.24-.68c.34.4 1 .8 1.88.8 1.5 0 2.1-.89 2.1-2.39v-3.68zm6.64 2.99c0 1.43-.43 1.93-1.17 1.93s-1.15-.51-1.15-1.93c0-1.39.37-1.94 1.15-1.94.78 0 1.17.52 1.17 1.94m1.62 0c0-2.03-1.02-3.11-2.8-3.11-1.78 0-2.78 1.07-2.78 3.1 0 1.76.97 3.1 2.79 3.1 1.8 0 2.8-1.34 2.8-3.1m6.44.7v-3.68h-1.6v3.53c0 .9-.33 1.33-1.07 1.33a1.8 1.8 0 0 1-1.01-.37v-4.49h-1.6v5.95h1.08l.27-.7c.34.42.92.82 1.75.82.98 0 1.56-.29 1.86-.84.36.43.97.84 1.8.84 1.7 0 2.2-.89 2.2-2.39v-3.68h-1.62v3.53c0 .9-.37 1.33-1.12 1.33a1.8 1.8 0 0 1-1-.37c.05-.24.06-.52.06-.81m5.45-3.68v4.78l-.68.15v1.02h2.26v-5.95zm-.67 6.87l-.16.91 3.08.86.2-1.16zm6.97-4.27h-.98c-.68 0-.97-.32-.97-.77 0-.54.3-.87.9-.87.37 0 .76.17 1.05.4zm.45-2.6l-.22.7c-.3-.4-.9-.82-1.73-.82-1.2 0-2 .76-2 1.9 0 1.11.82 1.77 2.25 1.77h1.25v.3c0 .76-.45 1-1.05 1-.7 0-1.33-.17-1.81-.4l-.4 1.14a6.2 6.2 0 0 0 2.36.48c1.69 0 2.43-.77 2.43-2.3v-3.77zm2.28 1.71h1.6v-1.8c0-1.03-.58-1.45-1.6-1.56v.82c.22.05.38.26.38.83l-.38.18zm-49.86-6.95v-2.27h2.64l-.13-1.41h-2.51V96.6h-1.59v8.26h5.04v-1.35zm7.75-3.91c0 1.43-.43 1.93-1.17 1.93s-1.15-.51-1.15-1.93c0-1.39.37-1.95 1.15-1.95.78 0 1.17.53 1.17 1.95m1.62 0c0-2.03-1.02-3.11-2.79-3.11-1.78 0-2.8 1.07-2.8 3.1 0 1.75.98 3.1 2.8 3.1 1.8 0 2.8-1.35 2.8-3.1m6.44.7V96.6h-1.6v3.53c0 .9-.33 1.33-1.07 1.33-.41 0-.73-.19-1-.37V96.6h-1.6v5.95h1.07l.27-.7c.34.42.92.82 1.76.82.97 0 1.55-.29 1.85-.84.36.43.98.84 1.8.84 1.7 0 2.2-.89 2.2-2.4V96.6h-1.62v3.53c0 .9-.37 1.33-1.11 1.33-.39 0-.74-.19-1.01-.37.05-.24.06-.52.06-.81m7.44 1.22c-.79 0-1.1-.71-1.1-1.42h2.17c0 .77-.24 1.42-1.07 1.42m-1.1-2.35c0-.95.53-1.47 1.53-1.47.62 0 1.21.26 1.73.51l.3-1.12a4.8 4.8 0 0 0-2.23-.6c-1.85 0-2.94 1.15-2.94 3.12 0 1.83.88 3.08 2.79 3.08 1.8 0 2.51-1.33 2.51-2.83v-.69zm8.58-2.55v3.53c0 .9-.34 1.33-1.07 1.33-.4 0-.76-.19-1.04-.37V96.6h-1.6v5.95h1.1l.24-.68c.34.4 1 .8 1.89.8 1.5 0 2.1-.89 2.1-2.4V96.6zm5.15-.12c-1.06 0-1.8.62-1.8 2.11v2.83h-.87v1.13h.9v1.03l1.55.51v-1.54h1.6v-1.13h-1.6v-2.91c0-.42.2-.68.62-.68.34 0 .68.13.92.25l.25-1.16a3.25 3.25 0 0 0-1.57-.44m6.3 3.11c0 1.43-.42 1.93-1.16 1.93s-1.16-.51-1.16-1.93c0-1.39.38-1.95 1.16-1.95.77 0 1.16.53 1.16 1.95m1.63 0c0-2.03-1.02-3.11-2.8-3.11-1.78 0-2.79 1.07-2.79 3.1 0 1.75.97 3.1 2.8 3.1 1.8 0 2.79-1.35 2.79-3.1m6.26-2.85l-1.04-.2-1.84 6.02h1.79l1.26-4.99h.03c.24.87 1.03 4.12 1.27 4.99h1.58l-1.85-6.1c-.53-1.7-1.4-2.34-2.6-2.34-.66 0-1.4.38-1.66.6l.5 1.08h.15c.05-.04.53-.43 1.09-.43.63 0 1.05.44 1.27 1.2zm-48.66-5.36v-6.91h-1.65v6.9h-1.98v1.36h5.67v-1.35zm6.61-6.91l-.25.73a2.34 2.34 0 0 0-1.85-.85c-1.49 0-2.17.82-2.17 2.46v3.6h1.58v-3.6c0-.92.34-1.25 1.06-1.25.41 0 .78.16 1.05.35v4.5h1.62v-5.94zm5.73 4.62c-.19.07-.45.1-.73.1-.43 0-.8-.18-1.07-.4v-4.32h-1.58v5.95h1.1l.18-.8h.04c.19.42.72.9 1.43.9.31 0 .54-.04.67-.08 0-.45 0-.9-.03-1.35m1.39 3.76h1.6v-1.45h-1.6zm.05-8.38v4.78l-.68.15v1.02h2.26v-5.95zm4.37 4.38c0-.92 2.58-.64 2.58-2.58 0-1.08-.8-1.92-2.35-1.92-.71 0-1.38.2-1.78.43l.33 1.11c.28-.2.86-.41 1.4-.41.53 0 .88.29.88.65 0 1.07-2.54.72-2.54 2.75 0 .87.67 1.66 2.27 1.66.62 0 1.27-.12 1.68-.3l-.22-1.15c-.4.19-.91.31-1.43.31-.55 0-.82-.2-.82-.55m9.08-.7v-3.68h-1.6v3.53c0 .9-.33 1.33-1.07 1.33-.4 0-.73-.19-1-.37v-4.49h-1.6v5.95h1.07l.27-.7c.34.42.92.82 1.76.82.97 0 1.55-.3 1.86-.84.35.43.97.84 1.8.84 1.7 0 2.2-.89 2.2-2.4v-3.67h-1.62v3.53c0 .9-.38 1.33-1.12 1.33a1.8 1.8 0 0 1-1-.37c.04-.24.06-.52.06-.81m8.68-.69c0 1.43-.43 1.93-1.17 1.93s-1.15-.51-1.15-1.93c0-1.39.37-1.95 1.15-1.95.78 0 1.17.53 1.17 1.95m1.62 0c0-2.03-1.02-3.11-2.8-3.11-1.77 0-2.78 1.07-2.78 3.1 0 1.75.97 3.09 2.79 3.09 1.8 0 2.8-1.34 2.8-3.08M168.21 7.42a5.5 5.5 0 0 0-2.4-.59c-1.97 0-2.98 1.38-2.98 3.48 0 2.01 1.01 3.35 3.07 3.35 1 0 1.67-.25 2.18-.58l-.54-.98c-.37.25-.95.42-1.62.42-1.2 0-1.73-.88-1.73-2.2 0-1.55.58-2.39 1.71-2.39.43 0 .8.06 1.12.2v1.24h-.9l-.08.95h2.17zm4.05 1.93c0 1.16-.34 1.56-.94 1.56-.6 0-.93-.41-.93-1.56 0-1.12.3-1.57.93-1.57.63 0 .94.42.94 1.57m1.32 0c0-1.64-.83-2.52-2.26-2.52-1.44 0-2.26.87-2.26 2.52 0 1.41.79 2.49 2.26 2.49 1.45 0 2.26-1.08 2.26-2.5m2.24-1.07c.2-.27.53-.5.87-.5.56 0 .97.42.97 1.58 0 1.15-.36 1.55-.95 1.55-.32 0-.68-.17-.9-.39zm-.1 2.98c.22.3.74.59 1.28.59 1.13 0 1.95-.8 1.95-2.5 0-1.65-.98-2.5-2.1-2.5-.7 0-1.1.26-1.4.67l-.23-.58h-.7v6.78h1.3v-1.68zm4.55 2.45h1.3v-1.16h-1.3zm.04-6.77v3.89l-.56.12v.8h1.84V6.93zm4.45 3.97c-.64 0-.9-.58-.9-1.15h1.75c0 .62-.18 1.15-.85 1.15m-.9-1.9c0-.77.43-1.2 1.23-1.2.5 0 1 .2 1.42.4l.24-.9a3.95 3.95 0 0 0-1.82-.47c-1.48 0-2.36.93-2.36 2.52 0 1.48.71 2.49 2.26 2.49 1.45 0 2.02-1.08 2.02-2.29V9zm6.69 1.67c-.16.05-.39.08-.6.08-.35 0-.65-.15-.87-.32v-3.5h-1.27v4.81h.89l.14-.65h.03c.15.35.58.74 1.15.74.25 0 .45-.04.56-.07zm3.75-3.74v2.86c0 .72-.27 1.07-.86 1.07-.33 0-.62-.15-.84-.3V6.93h-1.29v4.81h.88l.2-.55c.28.33.8.65 1.52.65 1.22 0 1.7-.72 1.7-1.93V6.93zm5.36 2.42c0 1.16-.34 1.56-.94 1.56-.6 0-.93-.41-.93-1.56 0-1.12.3-1.57.93-1.57.63 0 .94.42.94 1.57m1.32 0c0-1.64-.83-2.52-2.26-2.52-1.44 0-2.26.87-2.26 2.52 0 1.41.79 2.49 2.26 2.49 1.46 0 2.26-1.08 2.26-2.5m6.12 1.3c-.2.12-.5.24-.88.24-.6 0-1-.42-1-1.53 0-1.15.37-1.59.98-1.59.32 0 .65.16.9.42zm.11.73c-.08.27-.12.52-.12.88v1.46h1.28V6.93h-1.04l-.15.53c-.2-.3-.66-.63-1.27-.63-1.1 0-1.97.79-1.97 2.5 0 1.6.9 2.51 2.07 2.51.52 0 .94-.18 1.2-.47m4.32-.47c-.64 0-.9-.58-.9-1.15h1.75c0 .62-.18 1.15-.85 1.15m-.9-1.9c0-.77.43-1.2 1.23-1.2.5 0 1 .2 1.42.4l.24-.9a3.95 3.95 0 0 0-1.81-.47c-1.49 0-2.37.93-2.37 2.52 0 1.48.72 2.49 2.26 2.49 1.45 0 2.02-1.08 2.02-2.29V9zm8.84-2.17c-1.87 0-2.87 1.24-2.87 3.45 0 2.06 1 3.38 2.87 3.38.9 0 1.72-.2 2.26-.56l-.5-1.04c-.34.26-.94.46-1.62.46-1.1 0-1.65-.78-1.65-2.23 0-1.53.55-2.32 1.63-2.32.65 0 1.3.28 1.74.6l.42-1.03c-.66-.45-1.4-.7-2.28-.7m3.13.09v6.78h1.3v-1.78c0-.34-.07-.6-.13-.75.26.34.7.66 1.38.66 1.38 0 1.76-.72 1.76-1.93V6.93h-1.3V9.8c0 .68-.28 1.06-.86 1.06a1.5 1.5 0 0 1-.86-.3V6.93zm5.7 6.77h1.3v-1.16h-1.3zm.04-6.77v3.89l-.56.12v.8h1.84V6.93zm2.46 1.27v5.5h1.26V8.29c0-.4.25-.47.78-.47v-.9s-.38-.08-.71-.08c-.98 0-1.34.52-1.34 1.38m4.88 2.68c-.64 0-.9-.58-.9-1.15h1.76c0 .62-.19 1.15-.86 1.15m-.9-1.9c0-.77.43-1.2 1.24-1.2.49 0 .99.2 1.41.4l.24-.9a3.94 3.94 0 0 0-1.81-.47c-1.48 0-2.37.93-2.37 2.52 0 1.48.72 2.49 2.26 2.49 1.45 0 2.02-1.08 2.02-2.29V9z"/>
  </g>
</svg>