<?xml version="1.0" encoding="UTF-8" standalone="no"?>
<svg xmlns="http://www.w3.org/2000/svg" width="200" height="120">
  <path fill="#fff" d="M19.9 37.5a24.5 24.5 0 0 1 15 1A18.5 18.5 0 0 1 45 49a31 31 0 0 1 1.6 13c0 1-1 1.7-2 1.6H20.8c-1.3 0-2.6 0-4 .2a8.4 8.4 0 0 0 2.8 7.3 10.8 10.8 0 0 0 7 2.6 15 15 0 0 0 6.7-1.1c1.4-.6 2.6-1.6 3.8-2.4.5-.4 1.2-.6 1.6 0 1.8 1.7 3.8 3.3 5.6 5.2.5.6-.3 1.4-.8 1.8-5.3 4-12 6.6-18.7 6a21 21 0 0 1-13.7-5.3 21.3 21.3 0 0 1-5.8-13.2 30 30 0 0 1 2.9-18.2 18.5 18.5 0 0 1 11.7-8.9m-1.3 12a11.5 11.5 0 0 0-1.9 6.3h18.1a11.7 11.7 0 0 0-2-6.3c-3.2-4.4-11-4.4-14.2 0zm121.7-5.8c0-.5 0-1.4.8-1.4h5c.4 0 .9.3.8.8v4.6h4.3c.5 0 1 .5 1 1v4c0 .4-.3.9-.7 1.1-1.3.2-2.7 0-4 .1-.4.2-.5.8-.5 1.2V65c0 1.1 0 2.5 1 3.2 1 .9 2.3.4 3.5.6.3.1.6.4.6.8v4c0 .5-.3 1-.8 1-2.7 0-5.6.3-7.9-1.2-2.1-1.4-3-4-3-6.6v-23zm43.3-1.4c1.7-.2 3.4 0 5 0 .7 0 1 .6 1 1.1V65c0 1.2 0 2.6 1.2 3.4 1.2.8 2.8-.1 4 .7.4.9 0 2 .2 3 0 .8.3 1.9-.5 2.4-2.8 0-6 .5-8.4-1-2.2-1.5-3.1-4.2-3.1-6.6v-23c0-.6 0-1.3.6-1.5zM87.2 50a13.1 13.1 0 0 1 11.6-3.2c3 .5 6 2.2 7.7 4.9 2 3 2.5 6.9 2.2 10.4-.2.6-.8.8-1.3.7H91.7c-.4 0-.9 0-1 .4a5.3 5.3 0 0 0 2.3 4.7 9 9 0 0 0 6.4.8c1.6-.3 2.8-1.4 4.2-2.2 1.3 1.2 2.7 2.3 3.9 3.7 0 .6-.6 1-1 1.2A17 17 0 0 1 96 74.8a12.7 12.7 0 0 1-9.4-3.8 15.4 15.4 0 0 1-3.2-10.4c0-3.8 1-7.8 3.8-10.6m4.7 4.1a7 7 0 0 0-1.3 4h11c0-2-1-4.4-3-5.3-2.2-1-5.1-.6-6.7 1.3zm27.3-5a10.9 10.9 0 0 1 8.4-2.4 9 9 0 0 1 6.8 4c1.5 2.4 1.5 5.4 1.5 8v14.5c0 .6-.3 1.3-1 1.3h-5.5a.8.8 0 0 1-.8-1v-15c0-2-.6-4.1-2.4-5.1a5.5 5.5 0 0 0-5.1 0 4.5 4.5 0 0 0-2.1 4.1v15.7c0 .5-.3 1.3-.9 1.2h-5.5c-.7.1-1-.7-1-1.2V48c0-.6.4-1.1 1-1.2h3.7c.8 0 1.7-.1 2.4.4 0 .7 0 1.5.5 2zm45.8-2.3a14 14 0 0 1 9.7 1.7 11.9 11.9 0 0 1 5 7.5c.5 2 .4 4 .4 6 0 .5-.7 1-1.2.9h-13.5c-1.2 0-2.3-.2-3.5.2a6 6 0 0 0 1.7 4.2c1.9 1.8 4.7 2 7.1 1.4 1.6-.2 2.8-1.4 4.2-2.1.4 0 .7.5 1.1.8 1 1 2.2 1.8 3 3a16.6 16.6 0 0 1-12.4 4.4A12.3 12.3 0 0 1 158 71a15 15 0 0 1-3.2-10c0-3.8.8-7.6 3.2-10.5a11.5 11.5 0 0 1 7-3.7m-2 7.8a7.5 7.5 0 0 0-1 3.5h11c-.2-1.3-.4-2.6-1.2-3.7-2-2.9-7-2.8-8.8.2z"/>
  <path fill="#f57917" d="M55.6 39.6a2.4 2.4 0 0 1 2.5.6 25 25 0 0 1 8 13.5 28 28 0 0 1-4 22.5 21.8 21.8 0 0 1-4.6 4.9c-.8.6-2 .6-2.8 0l-4-3.7a1.3 1.3 0 0 1 0-2.1 20.5 20.5 0 0 0 6.7-14.7 19 19 0 0 0-6-14.6c-.5-.4-1.2-1-.8-1.7.5-1 1.5-1.5 2.2-2.3 1-.8 1.8-1.8 2.8-2.4z"/>
</svg>