<?xml version="1.0" encoding="UTF-8" standalone="no"?>
<svg xmlns="http://www.w3.org/2000/svg" width="200" height="181" version="1.2" viewBox="0 0 150 135.75">
  <path fill="#eb3a45" d="M61.328 136.059h88.906V0H61.328z"/>
  <path fill="#0c68b3" d="M0 136.059h61.328V0H0z"/>
  <path fill="#fff" d="M36.277 26.21v2.117a2.589 2.589 0 0 0 0-2.118m4.157-11.5c.054-.019-.024-.293.25-.316.25-.012.62.203.668.441.054.27-.168.926.691 1.02 0 0-.004.137-.016.273h-.004c-.015.153-.05.317-.125.457a1.098 1.098 0 0 1 .16 0c1.149.051 1.801-.039 2.13-.382 0 0 .199-.211.296-.418.293-.602.336-1.145.18-1.586a.758.758 0 0 1-.031-.086 1.46 1.46 0 0 0-.074-.156c-.262-.457-.93-1.04-1.762-1.32a.77.77 0 0 0-.172-.02.018.018 0 0 1-.012-.004c0-.012.012-.02.032-.02v-.004h.003c.02-.003.18.004.18.004.617.075 1.664.688 1.875 1.313.2-.121.38-.473.406-.774h.004c.016-.054-.027-.433.133-.761a.196.196 0 0 0-.082-.258c-.086-.043-.203-.004-.25.094-.156.316-.516.144-.363-.176a.198.198 0 0 0-.082-.258.197.197 0 0 0-.254.09c-.149.312-.496.14-.356-.168a.188.188 0 0 0-.082-.254.192.192 0 0 0-.25.094c-.152.316-.511.14-.363-.18a.199.199 0 0 0-.086-.258.196.196 0 0 0-.25.098c-.113.234-.203.375-.305.48.696.141 1.414.516 1.883 1a2.769 2.769 0 0 0 .215.258l-.004-.004c.02.035.024.063.02.07-.004.008-.02.005-.024-.003-.07-.09-.14-.16-.215-.215-.77-.645-1.445-.91-2-.988-.37.043-.261.46-.222.73-.621-.137-1.098.328-1.137.758 0 .164.035.324.117.508.008.007.008.027-.004.03-.027.016-.117-.058-.164-.187a1.344 1.344 0 0 1-.082-.316c-.508.027-.972.297-.933.766.015.28.34.62.46.629m1.794-.711c.128-.157.171.52.707.328-.383.453-.891-.016-.707-.328m-.04-.336c.204-.121.383-.528.692-.328.144.078.289.226.445.343.164.117.344.215.418.364.09.183-.152.62-.426.23-.183-.289-.441-.816-.851-.61-.328.169-.559.407-.645.18-.023-.113.239-.109.367-.18m-1.453.087c-.086.191-.363.191-.398.43-.23-.204.195-.673.398-.43m13.625 22.53c-.355-.429-1.289-.218-1.289-.218.504-1.492-.879-1.89-.879-1.89-.492-.13-.82-.036-1.027.109-.008.004-.012.004-.016.008s-.007.004-.011.011c-.035.028-.07.047-.098.082a.723.723 0 0 0-.203.496.72.72 0 0 0 .723.715.71.71 0 0 0 .41-.129.744.744 0 0 0 .285-.425.69.69 0 0 1 .266.336c.402 1.273-1.032 1.73-1.032 1.73-3.16.95-5.097-.68-5.097-.68l.554-.3a1.197 1.197 0 0 1 .5-.11.7.7 0 0 0-.007.094c0 .344.28.621.624.621a.623.623 0 0 0 .626-.621.57.57 0 0 0-.087-.309l.008-.004-.043-.066c-.375-.562-1.652-.191-1.652-.191.43-1.051.047-1.805.047-1.805-.234-.387-.188-.527-.188-.527 0-.375-.093-.41-.093-.41-.188-.262-.535-.122-.535-.122-.516.114-.626-.097-.626-.097-.425-.301-.613-.117-.613-.117-.183.125.07.44.07.44-.449 0-.585.58-.585.58-.188.964.609 1.042.609 1.042.566.031.574-.437.574-.437.074-.442-.558-.465-.558-.465.105-.262.297-.258.297-.258.664-.164.968.582.968.582.528.84-.152 1.633-.152 1.633-.11.113-.219.047-.219.047-.37-.16-.91-.563-.91-.563l-.05-.027h-.223a1.98 1.98 0 0 0-.688.148c.254.27 1.086.969 1.086.969-.625.488-.984.152-.984.152-.301-.324-.23-.87-.188-1.093a.897.897 0 0 1-.066.03 15.85 15.85 0 0 1-.875.36 254.38 254.38 0 0 0 .765 1.29c-.718.265-.879-.704-.914-1.231a18.574 18.574 0 0 1-.422.16.935.935 0 0 1 .04.207c.046.535.535 1.176.535 1.176a.918.918 0 0 0-.832.226.897.897 0 0 0-.305.801.375.375 0 0 0 .37.352c.2 0 .364-.164.364-.368a.37.37 0 0 0-.351-.37c.16-.395.543-.079.543-.079.558.5-.317 1.067-.317 1.067-.625.418-1.218-.38-1.218-.38.66-1.167.78-1.984.757-2.488a35.055 35.055 0 0 1-.683.227c.312 1.05-.418 1.652-.418 1.652-.211-.14-.242-.707-.242-.707a7.576 7.576 0 0 0-.215-.691 14.92 14.92 0 0 1-.598.16c.223.66.32 1.625.32 1.625-.117.14-.472.176-.472.176-.512.047-.242-.242-.242-.242.254-.22.199-.371.199-.371-.156-.356-.719-.028-.719-.028-.75.418-.523.86-.523.86.093.273.851.535.851.535-.41.312-1.195.183-1.293.16a.526.526 0 0 0-.386-.45l-.051-.011c-.274-.027-.414.086-.489.195a.674.674 0 0 0-.09.164l-.46-.097c-.325-.051-.508-.973-.606-1.778-.129.016-.254.032-.387.047.125.86.282 1.625.282 1.625-.157 0-.836-.472-.836-.472-.848-.516-1.43-.352-1.45-.34a.908.908 0 0 0 .16 1.8.907.907 0 0 0 .907-.882c.324.152.617.336.617.336.813.543 1.578.601 1.785.605a.655.655 0 0 0 .649.531c.25 0 .465-.136.574-.343 1.742-.059 2.379-.828 2.379-.828.183-.243.226-.102.226-.102.637.926 1.871.363 1.871.363.239-.117.29.04.29.04.254.394.632.187.632.187.493-.254.2-.563.2-.563-.16-.168.039-.16.039-.16.582.082.695-.25.695-.25.117-.265-.3-.492-.3-.492-.114-.145.112-.262.112-.262.344-.199.29-.398.29-.398.433.008.398-.192.398-.192.012-.171-.531-.164-.531-.164-.43-.043-.34-.261-.34-.261.637-.028 1.594-.309 1.594-.309 1.402 1.14 3.484 1.418 3.484 1.418.039.207-.031.492-.043.531-.012-.004-.023-.004-.035-.004a.33.33 0 0 0-.332.332c0 .176.148.328.332.328a.553.553 0 0 0 .094-.015c.668-.18.718-1.16.718-1.16 1.903.183 3.196-1.25 3.196-1.25.187-.16.28-.11.32-.059l.004.004a.546.546 0 0 0 .868-.031.78.78 0 0 0 .097-.305v-.012c.008-.218-.11-.355-.11-.355m-22.875 2.44c.18-.09.215-.297.215-.297.035-.52-.34-.753-.351-.761a37.867 37.867 0 0 1-.68.015h-.004a40.132 40.132 0 0 1-.68-.015c-.007.008-.382.242-.347.761 0 0 .035.207.215.297 0 0-.48.203-.485.535 0 0-.058.247.367.59 0 0 .309.344.399.61 0 0 .027.367.535.367s.531-.367.531-.367c.094-.266.403-.61.403-.61.421-.343.37-.59.37-.59-.007-.332-.488-.535-.488-.535m3.547-2.105l.25-.028-.16-.293zm-8.394.012l.246.027-.098-.32zm-.98-.688c-.012-.008-.024-.008-.04-.008l-.05.383a.53.53 0 0 0 .171.008.141.141 0 0 0 .075-.051.23.23 0 0 0 .043-.113c.011-.074 0-.125-.032-.16-.027-.032-.082-.051-.168-.059m3.614.297c-.086-.004-.153.027-.196.094-.047.066-.07.168-.074.316-.008.16.012.274.05.344a.19.19 0 0 0 .18.11c.09.003.157-.024.203-.087.051-.062.075-.172.083-.336a.669.669 0 0 0-.051-.324.213.213 0 0 0-.195-.117m3.144-.004a.213.213 0 0 0-.187.11c-.04.066-.055.171-.047.316.004.16.03.273.078.34a.213.213 0 0 0 .191.101.234.234 0 0 0 .192-.105c.043-.067.062-.18.054-.34-.007-.14-.03-.254-.078-.324a.204.204 0 0 0-.203-.098m-8.594-.016l.246.043-.074-.32zm-4.797-1.898l-.136.375.047.02c.074.027.132.03.168.003a.27.27 0 0 0 .086-.117.273.273 0 0 0 .019-.129.164.164 0 0 0-.055-.086.47.47 0 0 0-.129-.066m.993.45c-.063.05-.114.144-.157.284-.046.153-.062.266-.046.344a.225.225 0 0 0 .152.16c.082.024.156.016.215-.035.062-.047.117-.144.168-.3a.703.703 0 0 0 .039-.329.222.222 0 0 0-.156-.164c-.086-.023-.157-.012-.215.04m1.375.312c-.008-.004-.02-.004-.04-.012l-.101.375c.082.027.14.035.176.031a.199.199 0 0 0 .082-.039.255.255 0 0 0 .055-.113c.019-.07.015-.121-.012-.156-.028-.036-.078-.063-.16-.086"/>
  <path fill="#fff" d="M40.207 35.096c-.039-.02-.098-.015-.18.008-.007 0-.023.008-.039.012l.102.37a.62.62 0 0 0 .164-.062.113.113 0 0 0 .05-.074.22.22 0 0 0-.007-.12c-.016-.075-.05-.114-.09-.134m2.09-.117l.234-.09-.226-.242zm0 0"/>
  <path fill="#fff" d="M42.902 33.573a.72.72 0 0 0-.234.039c-.465.125-4.813 2.043-12 2.047-7.191-.004-11.531-1.922-12-2.047 0 0-.102-.04-.238-.04a.587.587 0 0 0-.352.11l-1.473 1.152h.008c.434 0 .91.227.922.235 3.832 1.676 8.227 2.367 13.133 2.41 4.91-.043 9.297-.734 13.129-2.41.016-.008.496-.235.926-.235h.004l-1.47-1.152a.583.583 0 0 0-.355-.11m-13.648 2.259l.309.015-.364.227h-.062zm-9.797-1.137a.242.242 0 0 1-.113.14.324.324 0 0 1-.18.036 1.454 1.454 0 0 1-.238-.063l-.07-.027-.086.23c-.016.043-.02.075-.012.102a.183.183 0 0 0 .082.059l.023.007-.027.075-.523-.188.027-.082.02.008c.046.02.081.02.105.012a.186.186 0 0 0 .055-.09l.207-.57c.015-.04.02-.07.011-.094-.007-.024-.039-.043-.086-.063l-.02-.008.028-.078.39.133c.102.04.173.067.227.094.051.02.094.058.13.094a.24.24 0 0 1 .066.132.22.22 0 0 1-.016.141m1.188.625a.515.515 0 0 1-.254.309c-.133.07-.278.074-.45.023a.677.677 0 0 1-.28-.168.48.48 0 0 1-.13-.254.632.632 0 0 1 .024-.262.487.487 0 0 1 .156-.234.425.425 0 0 1 .254-.125.665.665 0 0 1 .289.027.565.565 0 0 1 .36.274c.062.133.077.27.03.41m1.036.512c.03.11.062.168.082.199.02.023.043.043.074.047l-.023.082-.31-.086c-.023-.035-.05-.133-.089-.293a.633.633 0 0 0-.047-.156.099.099 0 0 0-.035-.051.245.245 0 0 0-.101-.035l-.067.23c-.012.047-.016.082 0 .106.008.02.035.039.09.046l.016.008-.024.082-.531-.144.02-.082.023.008c.047.011.078.011.101-.008.02-.008.04-.04.047-.086l.157-.582c.011-.047.015-.078.003-.106-.015-.02-.039-.035-.09-.047l-.019-.007.02-.082.398.11.094.019c.082.027.148.043.187.058.04.02.078.043.11.074a.303.303 0 0 1 .07.118.255.255 0 0 1 0 .132c-.031.121-.121.184-.266.192.032.031.067.113.11.254m1.683.672l-.914-.196.016-.082h.015c.051.012.086.012.106-.004.016-.011.031-.043.039-.09l.129-.593c.008-.043.008-.078-.004-.102-.016-.023-.043-.035-.094-.047l-.015-.004.02-.078.534.114-.015.078-.02-.004c-.05-.008-.082-.008-.105.011-.016.012-.032.04-.043.086l-.117.575c-.012.043-.012.07-.012.09 0 .011.012.027.027.038a.28.28 0 0 0 .11.04c.086.02.156.011.21-.024a.32.32 0 0 0 .13-.16l.077.02zm1.121.203l-.5-.09.02-.082a.2.2 0 0 0 .082.004.049.049 0 0 0 .023-.032c0-.011 0-.027-.004-.05l-.007-.02-.016-.082-.309-.058-.027.05a.21.21 0 0 0-.039.067c-.004.027 0 .043.016.058a.17.17 0 0 0 .082.024l-.016.086-.332-.059.012-.082c.062.012.129-.035.191-.137l.45-.726.085.015.18.844c.016.082.035.133.059.152a.123.123 0 0 0 .066.036zm1.727.246l-.313-.043a1.662 1.662 0 0 1-.128-.285.91.91 0 0 0-.067-.145c-.012-.027-.027-.039-.043-.043-.016-.016-.05-.023-.11-.031l-.027.242c-.004.047-.004.082.008.098.012.027.047.039.094.047h.02l-.012.082-.551-.07.012-.087.023.004c.05.008.082 0 .106-.015.015-.016.027-.051.03-.094l.083-.602c.004-.043 0-.078-.012-.097-.016-.024-.043-.035-.094-.04l-.023-.003.016-.086.406.054.094.012c.09.012.152.024.195.035a.411.411 0 0 1 .117.059.227.227 0 0 1 .082.11.236.236 0 0 1 .016.128c-.016.121-.094.196-.235.219.032.035.078.113.137.242.05.102.086.164.11.184.019.023.05.039.078.039zm1.129.113l-.512-.05.012-.083c.047.004.074.004.086-.004a.032.032 0 0 0 .02-.03c0-.017 0-.032-.008-.056l-.012-.02-.016-.077-.316-.032-.024.047c-.02.04-.031.059-.031.075 0 .023.004.039.02.05a.19.19 0 0 0 .086.024l-.012.086-.336-.035.008-.086c.062.007.125-.04.175-.145l.395-.762.086.012.242.824c.023.078.047.13.074.149.02.02.047.027.07.031zm1.101-.879l-.644.824.238.016a.394.394 0 0 0 .145-.008c.03-.008.062-.035.09-.058a.336.336 0 0 0 .07-.13l.09.008-.043.305-.918-.07.004-.063.632-.828-.164-.011c-.105-.008-.175 0-.21.02-.036.019-.07.065-.102.14l-.078-.008.035-.266.86.063zm1.22.88a.562.562 0 0 1-.423.132.613.613 0 0 1-.32-.086.442.442 0 0 1-.184-.215.533.533 0 0 1 .036-.52.433.433 0 0 1 .214-.187.64.64 0 0 1 .286-.055c.183.012.32.063.418.172a.543.543 0 0 1-.028.758m1.504-.793c-.027 0-.05.008-.074.016-.024.015-.04.035-.043.058-.012.02-.016.051-.016.098v.785h-.097l-.664-.754v.469c-.004.078.011.125.039.148a.17.17 0 0 0 .105.032v.082h-.387v-.082a.157.157 0 0 0 .086-.024c.028-.02.043-.035.047-.058.004-.02.012-.051.012-.098v-.523c0-.106-.047-.157-.145-.157v-.086l.348.004.559.63.004-.376c0-.113-.047-.168-.145-.168v-.086l.371.004zm1.707.75a.58.58 0 0 1-.41.176.69.69 0 0 1-.32-.067.44.44 0 0 1-.207-.195.63.63 0 0 1-.075-.254.549.549 0 0 1 .07-.273.446.446 0 0 1 .2-.2.582.582 0 0 1 .277-.078c.184-.007.328.04.434.141a.53.53 0 0 1 .168.375.508.508 0 0 1-.137.375m.871.082l-.008-.082.012-.004c.05-.004.086-.015.098-.035.02-.023.02-.055.02-.102l-.055-.601c-.004-.047-.016-.082-.036-.098-.015-.015-.05-.023-.101-.02l-.012.005-.008-.086.547-.047.008.086h-.02c-.05.004-.086.015-.101.035a.19.19 0 0 0-.012.101l.051.582c.004.043.008.079.016.086.007.016.02.028.043.036.02.007.058.007.109.004.09-.004.156-.036.195-.086a.317.317 0 0 0 .078-.188l.082-.008.024.34zm1.563-.152l-.008-.082c.047-.004.074-.012.086-.028a.044.044 0 0 0 .011-.03.109.109 0 0 0-.019-.044l-.012-.023-.039-.074-.312.035-.012.054c-.012.04-.02.063-.016.078.004.028.016.04.032.047.015.012.043.012.078.008l.015.082-.336.04-.007-.083c.062-.011.109-.066.136-.183l.227-.828.086-.008.41.754c.043.066.074.117.102.132a.271.271 0 0 0 .078.012l.007.082zm1.765-1.012a.496.496 0 0 0-.066-.105.147.147 0 0 0-.067-.043.17.17 0 0 0-.097.004l-.168.023.055.352.082-.016c.035-.008.066-.02.074-.035.015-.02.02-.055.015-.106L36.98 36l.055.351-.082.012c-.012-.055-.027-.09-.047-.102-.015-.015-.047-.02-.082-.011l-.078.011.043.278c.008.043.02.074.04.09.015.02.05.023.105.015l.02-.008.015.086-.551.086-.008-.082.012-.004c.05-.003.082-.023.094-.043.015-.023.015-.054.007-.097l-.097-.602c-.008-.047-.016-.074-.035-.094-.02-.011-.055-.02-.106-.011l-.016.004-.015-.082.851-.137.047.27zm1.188-.254l.066.34a.807.807 0 0 1 .02.18.31.31 0 0 1-.04.144.365.365 0 0 1-.117.13.65.65 0 0 1-.199.081.684.684 0 0 1-.218 0 .32.32 0 0 1-.157-.07.373.373 0 0 1-.093-.113c-.024-.043-.036-.098-.051-.157l-.078-.402a.15.15 0 0 0-.04-.094c-.019-.012-.058-.012-.109 0l-.02-.082.532-.105.015.082-.015.004c-.05.007-.078.023-.09.043-.016.023-.016.058-.004.101l.074.399a.6.6 0 0 0 .055.164.184.184 0 0 0 .098.09.208.208 0 0 0 .152.02.25.25 0 0 0 .148-.079.216.216 0 0 0 .06-.129.98.98 0 0 0-.017-.195l-.066-.336c-.02-.102-.082-.145-.176-.125l-.023-.082.375-.074.02.085a.106.106 0 0 0-.067.032c-.024.015-.035.035-.035.058a.173.173 0 0 0 0 .09m.469.703l-.024-.082.024-.008c.046-.011.074-.027.085-.046.016-.028.016-.055.004-.106l-.14-.59c-.012-.047-.028-.074-.047-.086-.02-.015-.055-.015-.102-.007l-.023.007-.012-.082.848-.199.074.254-.078.02a.565.565 0 0 0-.078-.098.17.17 0 0 0-.067-.04.247.247 0 0 0-.097.012l-.188.043.082.344.094-.02c.043-.011.07-.023.082-.042a.221.221 0 0 0 .004-.106l.082-.02.078.34-.082.016c0-.008 0-.012-.004-.012a.12.12 0 0 0-.035-.074c-.016-.023-.05-.027-.102-.011l-.097.023.062.246c.008.047.016.078.028.086.007.016.023.027.05.027.028.004.063 0 .118-.007a.508.508 0 0 0 .136-.059.247.247 0 0 0 .059-.106.448.448 0 0 0 .023-.144l.082-.02.07.332zm1.902-.484a1.985 1.985 0 0 1-.23-.215 2.163 2.163 0 0 0-.114-.11c-.023-.011-.043-.023-.058-.023a.397.397 0 0 0-.11.02l.07.234c.004.043.024.074.043.086.024.016.055.016.106 0l.016-.004.023.082-.531.145-.024-.082h.02c.047-.016.078-.032.086-.055.012-.023.008-.055-.004-.102l-.164-.582c-.012-.046-.024-.074-.047-.09-.02-.011-.05-.011-.098 0l-.023.005-.024-.082.395-.11.09-.023c.086-.024.152-.04.199-.047a.37.37 0 0 1 .129.011.235.235 0 0 1 .117.067.23.23 0 0 1 .066.11c.036.116-.011.218-.132.296.043.016.12.07.226.164.082.078.14.117.172.133a.13.13 0 0 0 .086.004l.023.082zm.48-.14l-.02-.067.278-1.004-.16.05c-.098.036-.164.067-.188.098-.027.032-.039.09-.039.168l-.078.032-.07-.27.824-.266.016.067-.278 1.004.22-.074a.605.605 0 0 0 .136-.059.24.24 0 0 0 .059-.09.539.539 0 0 0 .02-.144l.081-.028.078.297zm1.54-.528l-.036-.082c.047-.016.07-.027.078-.04a.046.046 0 0 0 .004-.038.129.129 0 0 0-.03-.04l-.013-.019-.058-.058-.293.109-.004.055c0 .039.004.066.008.078.011.027.023.035.043.043a.265.265 0 0 0 .082-.016l.027.078-.313.117-.03-.074c.058-.027.09-.097.093-.215l.012-.851.086-.035.582.629c.05.066.097.097.129.105.027 0 .05 0 .078-.008l.027.082zM25.511 19.065c-.125.082-.336.211-.535.344h1.109a5.81 5.81 0 0 1-.574-.344m7.219.316c-.165-.09-.364-.175-.462-.218-.027-.008-.042-.02-.054-.024a5.012 5.012 0 0 0-.606-.203h-2.261a5.298 5.298 0 0 0-.61.203c-.007.004-.027.016-.05.024-.098.043-.297.129-.457.218-.008 0-.032.012-.067.028h4.633a.59.59 0 0 0-.066-.028m2.94-.293c-.003-.007-.015-.015-.019-.02-.007.005-.011.005-.015.013-.094.07-.254.199-.477.328h.969c-.172-.121-.344-.238-.457-.32m-10.774 9.23v-2.395c-.187.457-.468 1.45 0 2.395m5.559-8.598h-5.902l-.004.012c-.004.059.031.117.066.156.031.035.117.145.235.309h5.46zm-.238.79h-5.164c.082.14.172.296.254.476h4.765zm-.383 1.265l.145-.477h-4.532a4.869 4.869 0 0 1 .16.477zm-.098.316h-4.05a3.674 3.674 0 0 1 .066.477h3.84zm-4.082 2.051h2.157l-.66-.473h-1.399c-.023.141-.05.301-.098.473m.117-1.266v.044c.012.058.024.21.012.437h.93l-.664-.48zm4.704 1.422l2.644 3.73v1.852c.184-.02.316-.02.367-.02.04 0 .074-.007.106-.007v-4.922h.316v4.907c.168-.016.332-.04.477-.07v-4.837h.312v4.75c.18-.054.336-.12.477-.191v-4.559h.316v4.383c.18-.125.332-.25.438-.36a.667.667 0 0 0 .035-.054v-3.242a7.2 7.2 0 0 1-.367-.727c-.07-.168-.137-.324-.184-.476h-2.71l-.606.433-1.184-.433-.43-.157 4.434-1.43h-3.469l-.09-.3h3.903a3.673 3.673 0 0 1 .09-.477h-4.137l-.094-.316h4.316a6.105 6.105 0 0 1 .176-.477h-4.64l-.094-.316h4.883c.082-.172.172-.328.258-.473h-5.286l-.093-.312h5.582a4.35 4.35 0 0 1 .316-.414.215.215 0 0 0 .035-.063h-6.078l-.02-.066zm2.332.633h.312v2.973l-.312-.922zm0 0"/>
  <path fill="#fff" d="M31.543 30.39c.152-.106.309-.184.476-.25v-2.95l-.476-.36zm-.805.972c.074-.117.14-.23.18-.29l.023-.042c.078-.137.168-.262.274-.371v-4.074l-.477-.368zm-.789-.805c.149.133.281.29.383.477l.023.039c.016.027.04.062.067.11v-5.118l-.473.355zm-.789-.453c.16.055.32.133.477.223v-3.664l-.477.359zm3.172-.074c.168-.047.324-.082.477-.11v-2.129l-.477-.363zm-3.961-.125c.145.023.305.054.473.097V27.26l-.473.36zm0 0"/>
  <path fill="#fff" d="M25.688 29.245v-4.313H26v4.508a3.418 3.418 0 0 0 .477.207v-4.715h.312v4.813a4.008 4.008 0 0 0 .477.082v-4.895h.316v4.922c.066 0 .133.008.203.008.04 0 .133 0 .274.008v-2.008l-.278.207 2.692-3.77h.004l-.004-.004h.004-.004l-.97-1.421H26.04l4.43 1.422-1.613.593-.606-.433h-2.684a6.202 6.202 0 0 1-.183.476c-.051.121-.11.239-.168.364v3.511c.098.121.254.278.473.438m2.37-4.313h.313v1.39l-.312.93zm5.083-.789h2.183a3.333 3.333 0 0 1-.086-.473h-1.437zm2.097-1.266h-.336l-.664.481h.977c-.004-.16.012-.274.016-.332 0-.05.007-.098.007-.148M22.895 13.9c.863.476 1.968.414 2.363.351.21-.046.433-.12.668-.28.027-.02.058-.04.086-.063a.273.273 0 0 1 .039-.032c.347-.3.558-.765.531-1.37-.004-.012.012-.036.027-.036.035 0 .086.16.086.367a2.112 2.112 0 0 1-.156.747c0 .035.004.078.008.117a.498.498 0 0 0 .097.238c.164.184.575.238.891.113.016-.007.04-.004.04.008 0 .043-.212.27-.61.27a.995.995 0 0 1-.239-.024c.215.367.836.63 1.47.59.011 0 .034.012.034.027 0 .036-.156.094-.367.094-.293 0-.64-.074-.902-.21.305.366.82.695 1.71.82.028.105-.667.023-.87-.047.414 1.609 1.273 1.425 1.289 1.535-.254.086-.434.394-.25.742.914-.328 1.594-.352 1.797-.352.207 0 .91.028 1.843.371a.412.412 0 0 0 .055-.418c-.137-.402-1.379-.714-2.535-.375a.872.872 0 0 0-.156.082s-.008 0-.012-.003c-.004-.004.004-.016.016-.032.02-.02.152-.097.152-.097.508-.27 1.562-.371 2.14-.082.005 0 .005-.004.008 0 .496.215.934-.39.782-.703.363.023.64-.203.66-.57a1.199 1.199 0 0 1-.192.093l.004.004c-.129.062-.258.066-.27.055v-.02s.005-.004.009-.004l.004-.004a2.903 2.903 0 0 0 .156-.078c.68-.394 1.008-1.16.941-1.394-.058.132-.273.25-.472.254-.11.007-.172-.012-.176-.032-.008-.011.007-.02.02-.02a.482.482 0 0 0 .23-.097c.238-.168.457-.484.558-.742-.418-.399-.566-.875-.812-1.5-.09-.235-.29-.477-.578-.5-.016 0-.102-.004-.125 0a.842.842 0 0 0-.106.02c-.004.003-.015 0-.02-.005.321-.269.68.02.887.141.036-.597.25-.75.266-.742.012.004.012.027.008.027-.414 1.223.398 2.383 1.039 2.758.851.457 2.398.527 3.43-.348h-.004a2.155 2.155 0 0 1-.555.09c-.207.008-.367-.047-.367-.082 0-.015.023-.031.035-.027.14.008.266-.004.387-.02 1.472-.382 1.535-2.203 1.293-2.32-.016.016-.02.016-.028-.016a2.68 2.68 0 0 1-.12.317c-.09.187-.212.305-.247.289-.012-.008-.012-.031-.004-.043.32-.566.313-1.012.145-1.562-.114-.297-.29-.594-.57-.793-.747-.524-2.243-.61-3.048.019a2.887 2.887 0 0 0-1.058-.644c-.102.457-.602 1.066-1.047 1.379-.086.058-.336.226-.441.226 0 0-.102-.02-.012-.098.793-.492 1.18-1.093 1.191-1.84v-.015c-.023-.375-.12-1.074-.578-1.574-.719-.786-2.66-.891-3.55-.153a1.88 1.88 0 0 0-.458.918c.094-.27.301-.547.715-.676.395-.125 1.149-.039 1.258.418-.664-.683-1.875-.18-2.043.98v-.01c-.016.077-.058.081-.058.081h-.004c-.035-.004-.078-.008-.063-.523.016-.324.117-.727.262-1.063-1.492-.27-3.278.457-3.246 2.68.02.309.133.598.418.93.054.062.011.09.011.09-.043.023-.226-.102-.34-.254a2.093 2.093 0 0 1-.34-.73c-.937-.333-1.515-.34-2.042-.294-.551.055-1.278.54-1.528.875a3.789 3.789 0 0 0-.336.535 2.367 2.367 0 0 0-.265 1.325c.082.867.512 1.593 1.14 1.94m14.778-4.546c.34.11.605.387.8.813a1.17 1.17 0 0 1-.019.976c-.004.004-.008.004-.02.004-.007-.004-.015-.012-.007-.023.039-.215-.024-.586-.152-.88-.07-.16-.223-.429-.457-.495.14.207.242.37.304.52.086.194.09.312.09.402.012.433-.2.921-.398 1.105-.008 0-.012 0-.024-.004-.008-.008-.008-.016-.008-.023.227-.524.243-.98.059-1.395-.02-.039-.04-.082-.066-.129-.165-.293-.442-.633-.864-.62.203.144.375.354.489.612.242.551.195 1.176-.106 1.43-.008.004-.02.004-.023 0l-.008-.016c0-.078.008-.16.02-.23a1.705 1.705 0 0 0-.028-.574c-.227-.969-1.023-1.309-1.598-.739 0 0 .621-1.16 2.016-.734m-5.852 6.86c-.129-.06-.132-.317-.117-.438.051-.316.422-.461.586-.633.043-.008.016.504-.469 1.07m-.117-.886c-.183-.328.309-.739.422-1.059.598-.094-.16.965-.422 1.059m1.567-7.614c.03.497-.243.649-.293.622-.02-.004-.028-.04-.016-.06.137-.327.078-.85-.176-1.155-.183-.223-.515-.34-.543-.375-.027-.04.867.175 1.028.968m-1.332 4.829c.43.18-.22 1.046-.27 1.21.102-.043.45-.418.594-.304.219.183-.465 1.078-.64 1.14-.966-1.253.269-1.628.316-2.046m-.633 2.128c.074.598.183 1.391-.102 1.914-.156-.046-.07-.32-.07-.44 0-.677-.02-1.329-.184-1.892-.082-.28-.308-1.175-.906-2.312.23.266 1.133 1.668 1.262 2.73m-4.02-3.023c.442.7 1.602 1.64 3.047 2.035.492.14.73 1.719.332 2.5-.453.016-.508-.308-.594-.652.203.164.485.375.461.012-.168-.145-1.187-.41-.922-.856.168-.242.715.734.872.406.093-.656-1.954-.859-1.891-1.425.008-.305 1.613.78 1.84.757-.02-.351-2.383-1.312-3.106-2.601-.05-.094-.078-.172-.058-.184.004-.008.015 0 .02.008m-3.65 1.805c.552-.137 1.028-.426.887-.942-.039-.144-.168-.261-.37-.28-.31-.032-.512.194-.669.425.036-.48.336-.793.825-.742.254.03.597.27.652.539.148.757-.543 1.07-1.324 1m.062-3.586c.668-.246 1.36.02 1.715.367 1.098 1.078.496 2.601.16 2.68.235-.63.352-1.582-.644-1.828-.778-.192-1.477.386-1.832.707.23-.711 1.004-1.243 2.035-1.016-.215-.598-.98-.848-1.867-.356-.219.118-.375.258-.524.383.16-.449.531-.777.957-.937"/>
  <path fill="#fff" d="M27.816 38.198c-.02-.008-.601-.168-1.449.344 0 0-.676.472-.84.472 0 0 .16-.765.285-1.625-.132-.02-.261-.031-.386-.05-.102.808-.281 1.73-.606 1.78l-.465.098a.66.66 0 0 0-.086-.164c-.074-.105-.214-.222-.488-.195l-.05.012a.527.527 0 0 0-.387.453c-.098.02-.887.148-1.293-.164 0 0 .762-.266.851-.535 0 0 .227-.442-.527-.86 0 0-.559-.328-.715.024 0 0-.05.16.2.375 0 0 .269.289-.243.242 0 0-.355-.035-.472-.172 0 0 .093-.969.316-1.629-.2-.05-.395-.105-.594-.156a7.147 7.147 0 0 0-.215.687s-.03.563-.238.711c0 0-.734-.601-.422-1.656-.23-.07-.457-.148-.683-.223-.024.504.097 1.317.757 2.485 0 0-.597.797-1.218.379 0 0-.875-.567-.317-1.067 0 0 .38-.316.54.082a.366.366 0 0 0 .019.73.364.364 0 0 0 .363-.343.892.892 0 0 0-.3-.805s-.317-.336-.833-.226c0 0 .489-.64.532-1.176 0 0 .007-.09.043-.207-.145-.05-.282-.106-.426-.16-.031.527-.192 1.496-.91 1.23 0 0 .464-.777.761-1.285-.289-.117-.578-.234-.86-.36-.022-.007-.046-.019-.081-.03.047.222.117.765-.18 1.09 0 0-.363.34-.988-.153 0 0 .832-.7 1.086-.969a1.956 1.956 0 0 0-.68-.152h-.23c-.016.012-.035.023-.047.035 0 0-.547.399-.918.555 0 0-.106.074-.215-.043 0 0-.68-.793-.152-1.633 0 0 .308-.746.968-.582 0 0 .188-.008.297.258 0 0-.629.023-.562.464 0 0 .012.465.582.438 0 0 .793-.078.605-1.043 0 0-.136-.578-.59-.578 0 0 .254-.317.075-.442 0 0-.192-.183-.617.118 0 0-.106.21-.621.097 0 0-.348-.14-.536.121 0 0-.09.036-.09.41 0 0 .04.141-.191.528 0 0-.129.258-.152.68a1.231 1.231 0 0 0-.528-.246c-.261-.27-.28-1.54-.554-2.16-.063-.141.125-.786.129-1.473a3.727 3.727 0 0 0 2.836-2.52c.293-1.055-.102-2.133-.149-2.418-.004-.035.031-.035.05 0 .083.156.15.324.208.496.922.07 1.558-.074 2-.238a.521.521 0 0 1 .07-.027 1.631 1.631 0 0 1 .094-.04c.078-.035.156-.07.23-.105l.075-.039c1.34-.691 1.945-1.797 2.312-2.43-.187-.039-.762-.222-.953-.511.492.039.863.246 1.355.246.727.008 1.211-.399 2.008-.3 0 .042.106.378.621.585.016.457.047.848.188 1.207.039.11.066.148.066.148s-.601.465-.441.856c.039.101.082.207.12.3a.223.223 0 0 1-.085-.015c-.09-.039-.195.117-.328.324-.07.11-.387.766-.148.82a.662.662 0 0 0 .148.016c-.125.68-.113 1.563.445 2.383l.004.012c.035.054.902 1.472 3.227 1.472h.035c.23 0 2.277.04 3.008 1.403.039.078.203.304.379.304.18 0 .34-.226.382-.304.73-1.364 2.774-1.403 3.008-1.403h.031c2.329 0 3.196-1.418 3.23-1.472l.005-.012a2.89 2.89 0 0 0 .48-1.258c.457-.25.43-1.281.434-1.465.129.184.398.696.965.828-.09.489-.063 1.29.46 1.395.157.016.294-.219.255-.402.449 1.285.074 2.078.41 2.175.437.004.457-.761.496-.78.035.066.176.296.187.644.008.398-.054.797.125.863.602.102.317-1.656.782-1.48-.114.78-.004 1.214.32 1.343-.012.356-.047.7-.2.7-.859.195-1.648-.485-2.398-.282a2.26 2.26 0 0 1-.082-.054c-1.383-.743-2.262-.176-2.344-.25-.394-.36-.543.18-.652.117-.726-.414-1.125.285-1.312.316-.172.024-.485-.363-.817.453-.152.364-.957.516-1.023.535-.32.04-.399-.183-.399-.183a1.785 1.785 0 0 0-.093-.238.583.583 0 0 0-.118-.16.424.424 0 0 0-.328-.11.46.46 0 0 0-.336.734c.028.024.102-.078.207-.074.176.012.32.145.32.32v.008c.024.367-.542.739-.542.739-.325.289-.73-.114-.73-.114-.235-.183-.387-.199-.387-.199-.235.008-.344.258-.344.258s-.11-.25-.348-.258c0 0-.152.016-.387.2 0 0-.406.402-.734.113 0 0-.559-.371-.535-.739v-.007c0-.176.144-.309.316-.32.114-.005.184.097.207.073a.457.457 0 0 0 .094-.277.46.46 0 0 0-.43-.457.412.412 0 0 0-.324.11.512.512 0 0 0-.117.16 1.37 1.37 0 0 0-.098.238s-.074.223-.398.183c-.067-.019-.875-.171-1.024-.535-.336-.816-.644-.43-.812-.453-.191-.031-.586-.73-1.313-.316-.113.062-.261-.477-.652-.117-.074.062-.762-.364-1.867.039-.067-.13-.414-.2-.512-.235-.23-.066-.43-.242-.57-.312-.309-.16-.817-.059-1.172-.102a1.431 1.431 0 0 1-.453-.164c-.457-.285-.985-.633-1.274-1.043-.05-.066-.164-.226-.187-.25-.137-.176-.211-.308-.316-.605-.16-.563.086-1.168.171-1.743.032-.269.043-.382.055-.543-.441.114-1.023.125-1.734-.074.18.606.21 1.246.144 1.746.278.207.438.551.461.715.031.285-.105.59.067.82.246.344.8.66 1.136.891.117.074 1.676 1.278 1.88 1.324.218.04.359-.12.554-.09.066.02.117.067.168.11 0 0 .129.14.324.266-.473.296-1.062.652-1.5.867 0 0-.703.383-.371.39 0 0 .492-.015.535.09 0 0-.21.082-.523.219a28.533 28.533 0 0 0 2.254.711c.488-.48 1.117-1 1.726-1.23 0 0 .88.038 1.164-.602.09-.2.461.367 1.235-.059.07-.039.187.168.406.227.07.023-.313.078-.238.418.015.043-.63.008-.836.363-.063.102-1.43.07-2.633 1.098.226.05.453.105.683.156.403-.305.887-.508 1.446-.477 0 0 .742.047 1.058.93.461.067.934.121 1.403.172-.004-.004-.008-.008-.012-.008.129-.055.781-.375.488-.762 0 0-.156-.195-.426.063 0 0-.171.156-.246-.086 0 0-.02-.14-.09-.254 0 0-.128-.191.13-.101 0 0 .234.074.453.043a.444.444 0 0 0 .414-.442c0-.246-.168-.476-.418-.476-.004 0-.051.011-.051.035a.157.157 0 0 1 .062.125c0 .09-.078.183-.16.16-.265-.07-.191-.59.176-.61 0 0 .32.02.59.34 0 0 .617.93 1.187 1.121.04.016-.101.336.258.45.047.007-.004.285.367.261.008 0 .082.121.168.32a40.605 40.605 0 0 0 1.961 0c.086-.199.156-.32.168-.32.371.024.32-.254.363-.261.364-.114.22-.434.262-.45.567-.19 1.184-1.12 1.184-1.12.27-.32.59-.34.59-.34.367.02.445.539.18.609-.087.023-.16-.07-.16-.16 0-.051.023-.094.058-.125-.004-.024-.047-.035-.055-.035-.242 0-.41.23-.41.476 0 .234.18.426.41.442.219.03.453-.043.453-.043.258-.09.13.101.13.101a.728.728 0 0 0-.09.254c-.071.242-.247.086-.247.086-.27-.258-.426-.063-.426-.063-.293.387.36.707.489.762 0 0-.008.004-.012.008.473-.05.945-.105 1.406-.172.313-.883 1.05-.93 1.05-.93.563-.03 1.048.172 1.45.477.23-.05.461-.105.688-.156-1.207-1.028-2.57-.996-2.633-1.098-.207-.355-.856-.32-.84-.363.078-.34-.309-.395-.242-.418.223-.059.34-.266.414-.227.77.426 1.14-.14 1.23.059.286.64 1.164.601 1.164.601.61.23 1.239.75 1.727 1.23a29.538 29.538 0 0 0 2.066-.644c0-.007-.007-.015-.007-.023-.012-.04-.028-.074-.043-.113a.096.096 0 0 0-.016-.036v-.003a2.03 2.03 0 0 0-.098-.18c-.175-.297-.437-.586-.52-.688-.003 0-.003 0-.007-.004-.016-.015-.023-.027-.023-.027-.004 0 .507-.773.824-.246.027.066-.028.25-.348.25 0 0 .371.582.461.98h.016c.156-.062.265-.097.324-.117.027-.007.059-.007.09-.015-.203-.39-.496-.614-.414-.742.078-.032.355.105.515-.13.036-.058.078-.34.11-.64.199.11.433.113.508.121.523-.016.718-.805.574-1.062.078-.047.386-.301.414-.23.16.37 1.015.769.937-.071.137.41.239.875.711.836.344-.082.121-.668.246-.668.098.168.243.84.75.676a.398.398 0 0 0 .282-.399c.027-.644-1.825-4.023-1.989-5.488-.031-.012-.058-.02-.09-.035-.175-.09-.195-.383-.164-.594a.114.114 0 0 1 .008-.039c-.222-.043-.574-.238-.629-.856 0-.55.246-.828.297-.828.02 0 .024.035.016.055-.14.434-.238.957.078 1.25.062.05.18.105.324.121.094-.187.223-.277.254-.277.016.004.012.031.004.047-.172.296-.164.71-.004.898a.536.536 0 0 0 .336.152c.512-.183.777-1.172.89-1.476.344.074-.554 2.058.137 2.484.286-.027.45-.355.551-.644.227.586-.73 1.816-.043 2.093.422.106.574-.968.582-.836.121 1.649-.742 2.442-.191 2.696.465.219.629-1.121.629-.953-.016 1.754-.899 2.242-.524 2.55.434.172.742-.886.739-.636-.04 1.57-.825 1.984-.477 2.48.406.57 1.16-1.023 1.195-.722.047.367-.851 2.183-.336 2.312.442.105.586-.52.625-.648 1.352-4.516 1.399-8.914 1.313-10.391-.137-2.313-.32-4.379-.88-6.281-.343-1.168-1.003-3.559-2.55-3.883-.723-.156-1.273.52-1.262 1.125.012.523.375.773.215 1.297-.195.336-.386.703-.484 1.078-.09.375.242.527.133.93-.465-.07-.711.316-1.403.175-.636.262-1.273.149-1.277.13-.004-.009.016-.02.031-.016.692-.02 1.32-.25 1.45-.551.14-.465.054-1.16-.29-1.418-.398.086-.597.426-1.976.344-1.137-.067-1.418.144-1.578.836a.463.463 0 0 1-.059-.329c.043-.378.422-.609.879-.66.098-.164.113-.289.113-.472a2.027 2.027 0 0 0-.566.02c-.543.081-1.29.39-1.473.933a.91.91 0 0 0-.043.281c.008.086.02.168.043.242.02.055.043.113.055.176.176.371.602.582 1.516.621.015-.004.035.012.035.031-.004.035-.188.07-.418.047 0 0-.848.008-1.223-.437a2.08 2.08 0 0 1-.07.078c-.23.238-.649.46-1.024.484-.414.02-.867-.246-1.03-.469-.552-.734.163-2.011.151-2.484-.035-1.27-1.761-.7-2.39-.367-.758.398-1.356 1.035-1.86 1.66-.27.332-.57.746-.73 1.102.223.105.879.39 1.379.402h.027c.024.004.086.008.172.008.262 0 .754-.043 1.117-.348.035-.027.184-.148.399-.148.16 0 .308.062.433.18.09.074 1.176.94 1.535 1.187a.408.408 0 0 1 .172.277c.016.086-.004.227-.136.38a6.277 6.277 0 0 0-.985 1.605 4.3 4.3 0 0 0-.14.394c-.133.465-.227 1.203.418 1.43 0 0 .714.183.66-.996 0 0 .117.758.672.734.234-.012.449-.246.406-.754h.004a6.394 6.394 0 0 1 .05-1.664l.012-.066c.008.011.024.062.051.304.035.309-.18 3.047 2.07 4.907 0 0-.949-.465-1.605-1.63-.38.223-.902.708-.664 1.74.125.347.367.679.558.784.008.008.024.027.024.047.004.047-.125.137-.324-.07h-.004l-.094-.11a2.27 2.27 0 0 1-.184-.343c-.257-.223-.492-.47-.73-.711v-.004c-.18-.367-.082-1.465-1.152-1.465 0 0-.043-.004-.102 0a.874.874 0 0 0-.184.023.133.133 0 0 0-.039.004c-.28-.957-.203-1.57-.187-1.66.219-1.387 1.2-2.539 1.308-2.668.043-.043.09-.113.079-.18a.153.153 0 0 0-.059-.097l-.004-.004c-.371-.246-1.437-1.098-1.555-1.195l-.011-.012a.39.39 0 0 0-.262-.117c-.133 0-.23.09-.23.09-.434.359-.989.414-1.282.414-.101 0-.175-.008-.207-.016h-.02c-.616-.016-1.39-.387-1.542-.461-1.063-.445-1.88-.46-2.035-.46-.149 0-.97.015-2.032.46-.152.074-.93.445-1.547.461h-.011a1.325 1.325 0 0 1-.211.016c-.293 0-.852-.055-1.274-.41l-.007-.008s-.098-.086-.235-.086c-.09 0-.18.043-.258.117l-.007.012c-.121.097-1.192.949-1.56 1.195l-.003.004a.153.153 0 0 0-.059.097c-.007.067.036.137.07.18.118.13 1.098 1.281 1.317 2.668.008.051.035.262.012.598-.09-.293-.176-.547-.246-.735a1.18 1.18 0 0 0-.153-.402l-.003-.004c-.149-.234-.371-.406-.61-.543-.191-.11-.406-.137-.586-.27-.285-.195-.586-.398-.773-.765-.008-.715-.375-1.242-.375-1.242.101-.05.535.262.57 1.031.504-.531.762-1.312.945-2.172.387-.527 1.47-.32 1.88-.25.105.016.284.055.363.117.117.086.14.27.304.336.168.07.364.02.57 0 .067.075.106.176.153.274.07 0 .117-.004.14-.008h.028c.582-.012 1.379-.398 1.453-.434l.016-.011.086-.036c-.227-.285-.586-.37-.907-.421-.402-.063-.62-.407-1.004-.489-.101-.02-.437-.074-.55-.03-.852.108-1.453-.212-2.246-.27-.758-.051-.782.46-1.055.89-.106.16-.227.348-.352.469-.21.203-.453.207-.703.402a35.768 35.768 0 0 1-.035-.023c-.05-.266-.16-.684-.352-.973-.007-.008-.011-.008-.011-.015-.02-.032-.035-.063-.055-.094-.414-.649-.879-1.14-1.793-1.356a.979.979 0 0 1-.32-.172c-.149-.117-.04-.253 0-.265.265-.153.71-.098 1.008-.238.726-.336.472-.95.187-1.004-.371-.063-1.031-.243-1.16-.317-.176-.113-.285-.418-.574-.52a1.26 1.26 0 0 0-.598-.034c-.176.023-.289.156-.418.132.164-.234.45-.347.817-.382-.317-.086-.207-.606-.504-.723-.125-.024-.309.035-.516.14-.023-.164-.117-.71-.418-.89-.246-.14-.332.082-.32.223.011.12.37.277.433.84-.062.038-.125.085-.187.128-.047-.23-.156-.59-.395-.726-.242-.14-.328.074-.316.218.012.118.328.258.422.735-.086.07-.164.14-.242.21-.493-.132-.598-.476-.72-.503-.14-.027-.366.043-.25.3.118.255.481.4.704.466-.05.058-.106.113-.149.171-.57-.109-.687-.496-.812-.523-.14-.027-.367.043-.25.3.152.325.71.473.855.509-.093.156-.14.293-.117.398-.441-.055-1.222.184-1.074.7.145.109.668-.317 1.145-.079.316.488.82.508.94.598.173.14.204.39.282.625.14.422.438.761.688 1.136.27.414.55.848.836 1.207a.696.696 0 0 1 .047.352c-.32.516-1.29 1.121-1.688 1.492-.402.375-4.2 3.266-4.676 4.524a2.703 2.703 0 0 0-.148 1.023c-.23.121-.64.047-.754-.082-.254-.297.258-.578.133-.976-.059-.153-.254-.207-.422-.153-.277.102-.336.668-.2 1.008.04.098.188.219.079.293-.14.055-.23-.086-.23-.289-.075.058-.153.191-.114.328.07.277.41.285.52.355-.016.125-.2.18-.329.067-.21.308.024.426.075.433.23.043.476-.164.62-.183.063.16-.046.207-.284.27.378.46.718-.329 1.14-.235.133.027 1.324 1.145 1.121 1.996a.919.919 0 0 1-.082.2c-.265.324-.703.577-1.008.89-.625.395.594 2.89.497 4.176-.075.5.43.406.718 1.219-.304.003-.61.078-.761.312l-.047.066h.008a.63.63 0 0 0-.082.313.62.62 0 0 0 .625.621.623.623 0 0 0 .625-.621c0-.031-.008-.066-.008-.094.136 0 .308.028.5.11l.554.296s-1.937 1.633-5.097.684c0 0-1.434-.453-1.032-1.73 0 0 .07-.215.262-.336a.72.72 0 0 0 .29.425.71.71 0 0 0 .41.13.716.716 0 0 0 .519-1.212c-.031-.035-.063-.054-.098-.086-.004-.004-.008-.004-.015-.007 0-.004-.004-.004-.008-.008-.215-.145-.54-.242-1.035-.11 0 0-1.38.399-.875 1.895 0 0-.934-.215-1.29.215 0 0-.12.133-.109.355v.016a.765.765 0 0 0 .098.3.55.55 0 0 0 .445.231.534.534 0 0 0 .422-.199c0-.004.004-.004.004-.004.039-.05.129-.102.32.059 0 0 1.297 1.433 3.192 1.25 0 0 .054.98.718 1.16 0 0 .067.015.098.015a.334.334 0 0 0 .332-.332.328.328 0 0 0-.332-.328c-.012 0-.023 0-.039.004-.008-.039-.078-.324-.043-.531 0 0 2.086-.277 3.488-1.414 0 0 .957.277 1.594.3 0 0 .09.22-.336.266 0 0-.547-.008-.535.164 0 0-.039.196.398.192 0 0-.054.199.29.398 0 0 .222.113.109.262 0 0-.418.226-.297.492 0 0 .117.332.695.25 0 0 .196-.012.04.16 0 0-.294.309.195.563 0 0 .383.207.636-.188 0 0 .051-.156.286-.039 0 0 1.238.563 1.879-.36 0 0 .035-.144.222.098 0 0 .637.77 2.375.825a.65.65 0 0 0 .578.347c.32 0 .586-.226.64-.53.212-.005.977-.063 1.794-.606 0 0 .293-.184.613-.336a.91.91 0 0 0 1.82-.028.913.913 0 0 0-.75-.894m-5.808-6.824a.074.074 0 0 1-.02.05c-.004.008-.011.012-.02.02-.011.008-.015.016-.027.02a.444.444 0 0 1-.18.035c-.12 0-.25-.02-.335-.04-.012.087.031.141.094.184v.004h.007c.028.016.055.035.09.05.047.024.098.048.14.071.009.113-.187.184-.284.184-.2 0-.332-.223-.399-.356a.432.432 0 0 0-.062-.043c-.016-.008-.028-.02-.043-.027-.176-.098-.438-.133-.692-.145.043-.46 1.305-.144 1.34-.136.13.035.293.035.399.105a.056.056 0 0 1-.008.024m19.086 1.097h-.004a.427.427 0 0 0-.02.067c-.238-.004-.746-.356-.754-.36-.07-.047-.293-.172-.48-.105h-.004v.004c-.203.09-.297.297-.41.402a.95.95 0 0 1-.035-.117c-.004-.008-.004-.012-.004-.016-.004-.035-.008-.066-.008-.097v-.036a.584.584 0 0 1 .008-.082c.004-.007.008-.023.016-.035.011-.031.023-.066.046-.094.008-.015.02-.03.032-.046.011-.012.023-.02.035-.032.02-.015.039-.035.062-.043a.05.05 0 0 1 .024-.015.747.747 0 0 1 .39-.075h-.004a.908.908 0 0 1 .532.207c.172.153.515.196.726.204a1.292 1.292 0 0 0-.148.27M46.258 16.9c.09-.375.617-.836.613-1.047-.004-.23-.254-.496-.281-.809-.043-.492.324-.964.812-.863.313.063.52.332.715.563.074.09.184.168.246.25.563.691 1.008 1.925 1.282 2.918.804 2.921 1.175 7.515.218 12.593-.082.438-.297 1.547-.336 1.453.93-8.382.418-10.457.262-10.43-.133.052-.285 1.036-.75.735-.453-.289 1.043-2.14.445-3.16-.136-.164-.257.23-.5.16-.617-.203.336-1.797.16-1.969-.132-.12-.601-.214-.617-.808-.004-.266.18-.485-.039-.711-.172-.164-.14.16-.32.078-.289-.309-.023-.652-.168-.883-.078-.058-.277.188-.434.063-.171-.137.094-.407-.117-.504-.27.035-.676.336-.593.781.043.23.316.387.296.645-.011.226-.289.496-.343.613-.399.906.273 1.094.18 1.41-.044.148-.329.242-.516.168-.246-.102-.297-.91-.215-1.246m-1.211 1.793a3.65 3.65 0 0 0 .414-.078c.133-.047.23-.172.367-.172.05.05-.055.113-.101.152a2.127 2.127 0 0 1-.7.344c-.437.11-.843-.047-1.027-.313.324-.101.606.121 1.047.067m-7.676-3.156c-.02.02-.062.02-.078.007-.355-.18-1.031-.168-1.512.086-.351.188-.636.543-.691.57-.059.028.578-.945 1.629-1.046.633.004.699.328.652.383m2.277 2.922c-.144.257-.359.558-.683.636-.598.145-1.203-.344-1.219-.418-.031-.07.492.246.996.211.375-.027.668-.289.883-.46.023-.036.047 0 .023.03m.942 9.414c.5.196 1.18.086 1.523-.187.02-.016.059-.02.082 0 .051.05 0 .418-.636.547-1.063.082-1.758-.887-1.696-.863.055.015.364.363.727.504m-2.719-1.922c.008.007.012.015.02.027.004.008.004.02.007.027.004.016.008.028.008.043a.195.195 0 0 1 .008.043c0 .024.004.043.004.067v.035c0 .098-.008.219-.004.355v.063h.004c0 .082.008.168.02.262a1.05 1.05 0 0 1-.13.628.462.462 0 0 1-.05.07.342.342 0 0 1-.055.052s-.004 0-.004.007c-.02.008-.035.02-.054.028-.004.004-.008.004-.016.004a.272.272 0 0 1-.05.02h-.02c-.02.003-.04 0-.059 0h-.023c-.02-.009-.04-.013-.06-.02l-.03-.012a.278.278 0 0 1-.059-.031c-.012-.012-.027-.016-.039-.02-.023-.02-.047-.043-.07-.062a.17.17 0 0 1-.028-.024s-.136-.226.067-.254a.631.631 0 0 0 .082.074.087.087 0 0 0 .02.016c.019.016.035.02.05.027l.016.004c.02.008.035.008.05 0 .005 0 .008-.004.008-.004.012-.007.024-.011.032-.027a.021.021 0 0 0 .011-.02.074.074 0 0 0 .024-.038l.008-.02a.458.458 0 0 0 .02-.078c.003-.008.003-.024.003-.031l.012-.067c0-.015 0-.031.004-.05 0-.016.004-.036.004-.055.027-.36.007-.852.109-1.016a.092.092 0 0 1 .031-.035c.004-.004.008-.004.012-.008a.06.06 0 0 1 .039-.016h.004c.023 0 .039.008.055.02.007 0 .011.012.019.016m-1.23-1.457c0-.004 0-.004.004-.004a.873.873 0 0 1 .316-.13c.055-.01.113-.01.172-.01h.015a.76.76 0 0 1 .184.023c.035 0 .16.226.215.453.012.054.113.402.23.52.118.112.07.343-.215.304h-.015c-.301-.05-.645-.52-.504-.988a.59.59 0 0 0-.215-.012h-.008a.413.413 0 0 0-.105.031c-.012.004-.02.004-.031.012-.02.008-.04.02-.06.031a.29.29 0 0 0-.046.027c-.07.063-.101.172-.203.176a.556.556 0 0 1 .266-.433m-11.797 1.054c.832-1.437.75-2.422.726-2.605 0-1.586-.996-2.79-1.11-2.918-.112-.129-.124-.242-.112-.317.02-.148.129-.234.164-.246.226-.152.71-.457.914-.582l.094-.062a.15.15 0 0 1 .07-.024c.066 0 .113.043.207.11.195.156.562.441 1.203.441.113 0 .23-.012.352-.027.332-.05.882-.332.89-.332.168-.094.38-.184.477-.227l.043-.02a5.1 5.1 0 0 1 1.875-.402c.21 0 .969.028 1.863.403l.047.015c.094.04.312.137.484.23.004 0 .555.282.887.333.121.015.238.027.352.027.64 0 1.007-.285 1.203-.441.093-.067.144-.11.207-.11.027 0 .07.016.09.036-.008-.004.035.023.097.058.215.137.676.43.914.586.012 0 .125.086.14.23.013.079 0 .192-.112.32-.114.13-1.106 1.333-1.106 2.895-.023.207-.105 1.192.723 2.63.039.074.933 1.734-.055 3.18-.078.132-.855 1.335-2.883 1.335-.183 0-1.812.031-2.363 1.066-.004 0-.016.02-.035.047-.067.114-.27.442-.363.625a.107.107 0 0 1-.09.055.114.114 0 0 1-.094-.055c-.09-.183-.297-.511-.36-.625a.19.19 0 0 1-.03-.047c-.56-1.035-2.184-1.066-2.368-1.066-2.031 0-2.808-1.203-2.887-1.34-1.011-1.484-.062-3.16-.054-3.176m-.512-1.797c.11.098.188.36.223.696.004.023.004.05.008.078.003.039.007.07.007.11a.693.693 0 0 1 .004.09v.296c-.004.027-.004.055-.004.082l-.011.094c-.004.023-.004.047-.004.07-.004.047-.012.09-.016.137-.004.031-.012.054-.016.086-.003.031-.011.058-.015.09a.37.37 0 0 1-.016.07.558.558 0 0 1-.015.086l-.036.125c-.007.027-.015.05-.023.074-.008.023-.016.05-.027.078a1.278 1.278 0 0 0-.024.067c-.015.039-.035.078-.05.113-.012.02-.02.035-.032.05-.012.024-.027.048-.043.075-.008.015-.02.027-.031.047a1.559 1.559 0 0 1-.074.093.058.058 0 0 1-.024.02.375.375 0 0 1-.07.066c-.008.008-.02.016-.027.024a1.425 1.425 0 0 1-.102.062c-.004 0-.008 0-.012.004a.511.511 0 0 1-.11.035c-.007 0-.015.004-.026.004-.043.012-.086.016-.13.012a.163.163 0 0 1-.023-.09c0-.129.137-.242.196-.39.058-.141.043-.23.125-.332.136-.016.246.035.285-.09-.2-.164-.215-.492.043-.758.37-.375-.004-1.176.07-1.274m-.121-1.238c-.16.035-.191-.68-1.063-.512-.468.211-.82.082-1.113-.043 1.235-.695 2.27.012 2.176.555m-7.203-7.105c-.195-.442.515-1.047.687-1.102.403-.148.7.098 1.137.164.258.04.531-.004.738.016.477.043.348.387.27.437-.395.114-.621-.187-.957-.238-.242-.027-.508.11-.75.086-.215-.016-.375-.152-.57 0-.02.012-.297.223-.235.484.02.18-.238.262-.32.153m.457-.09c.531.2.574-.477.703-.32.184.308-.32.777-.703.32m1.004 1.496c.828.066 1.648.078 2.172.371a.314.314 0 0 1 .066.04c.16.112.598.452.785 1.097-.703-.442-.957-.543-1.55-.75-.575-.203-1.231-.293-1.473-.758m-4.18 18.332c-.004 0-.012-.004-.023-.008-.11-.05-.215-.12-.293-.172-.094.141.086.29.175.41-.015.047-.062.07-.12.079l-.005-.004a.366.366 0 0 1-.199-.024.017.017 0 0 1-.011-.004c-.18-.082-.211-.343-.215-.488a.6.6 0 0 0-.305-.476c.355-.23.89.34.945.386v.004c.082.059.184.117.258.188a.448.448 0 0 1 .063.07c-.043.102-.141.094-.27.039"/>
  <path fill="#fff" d="M36.273 26.21v2.117c.387-.903.211-1.649 0-2.118m4.457-12.46c-.085.187-.359.187-.394.433-.23-.21.195-.676.395-.433m1.456-.09c.2-.121.383-.528.692-.328.144.078.289.23.45.347s.343.219.413.364c.09.183-.152.62-.43.23-.18-.289-.437-.816-.847-.613-.332.172-.559.41-.645.183-.023-.113.239-.109.367-.183m.036.34c.132-.16.175.523.707.324-.383.457-.887-.012-.707-.324m-1.79.71c.06-.019-.027-.296.25-.316.247-.012.622.203.665.441.058.27-.164.926.699 1.02 0 0-.008.133-.02.273h-.004a1.348 1.348 0 0 1-.125.457.551.551 0 0 1 .16 0c1.153.055 1.798-.039 2.13-.382 0 0 .199-.215.296-.418.293-.606.336-1.145.18-1.586h-.004c-.008-.028-.02-.059-.027-.09-.024-.05-.047-.106-.074-.152-.262-.457-.93-1.04-1.762-1.317a.61.61 0 0 0-.172-.023c-.008 0-.016-.004-.016-.004 0-.008.016-.016.036-.024h-.004.007c.02-.004.18.008.18.008.621.07 1.664.684 1.875 1.305.2-.117.375-.473.41-.77.016-.054-.027-.43.133-.765a.196.196 0 0 0-.082-.254c-.086-.043-.203-.004-.254.094-.152.316-.515.144-.36-.176a.196.196 0 0 0-.085-.258.192.192 0 0 0-.25.09c-.149.308-.496.14-.356-.168a.194.194 0 0 0-.082-.258.204.204 0 0 0-.254.094c-.148.324-.511.144-.359-.176a.199.199 0 0 0-.086-.258c-.086-.035-.203-.004-.246.094a1.922 1.922 0 0 1-.309.484c.692.141 1.415.516 1.883 1 0 0 .192.211.211.25l.004.004h-.004c.016.035.024.063.02.07-.004.008-.02.005-.02-.003a1.422 1.422 0 0 0-.222-.215c-.766-.645-1.442-.914-1.996-.988-.372.042-.266.46-.223.73-.621-.137-1.098.328-1.137.758 0 .16.035.324.121.508.004.011 0 .027-.008.03-.027.016-.117-.058-.168-.187a1.63 1.63 0 0 1-.078-.316c-.507.027-.972.297-.933.762.02.285.34.625.46.632M54.36 36.28c-.355-.429-1.289-.218-1.289-.218.504-1.492-.879-1.89-.879-1.89-.496-.13-.82-.036-1.03.105-.005.008-.009.008-.009.012-.007 0-.011.004-.015.008-.035.03-.067.05-.098.085a.724.724 0 0 0-.203.496c0 .395.324.715.719.715a.714.714 0 0 0 .414-.129.744.744 0 0 0 .285-.425.719.719 0 0 1 .266.336c.402 1.273-1.032 1.73-1.032 1.73-3.16.95-5.097-.68-5.097-.68l.55-.3a1.221 1.221 0 0 1 .5-.11c0 .028-.003.059-.003.094 0 .344.28.621.625.621a.623.623 0 0 0 .625-.621.63.63 0 0 0-.082-.312h.003a1.769 1.769 0 0 0-.046-.07c-.371-.56-1.649-.188-1.649-.188.43-1.051.047-1.805.047-1.805-.234-.387-.191-.527-.191-.527 0-.375-.09-.41-.09-.41-.188-.262-.535-.122-.535-.122-.516.114-.625-.097-.625-.097-.426-.301-.614-.117-.614-.117-.183.125.07.44.07.44-.449 0-.585.58-.585.58-.188.96.605 1.038.605 1.038.57.031.578-.43.578-.43.075-.445-.558-.468-.558-.468.105-.262.297-.258.297-.258.664-.164.968.582.968.582.528.84-.152 1.633-.152 1.633-.11.113-.219.043-.219.043-.37-.157-.914-.555-.914-.555a.326.326 0 0 0-.047-.031h-.222a2.06 2.06 0 0 0-.692.148c.258.27 1.09.969 1.09.969-.629.488-.984.148-.984.148-.301-.32-.23-.87-.188-1.09a.897.897 0 0 1-.066.032c-.285.125-.578.242-.875.36a254.38 254.38 0 0 0 .765 1.288c-.722.266-.879-.703-.914-1.23a18.574 18.574 0 0 1-.422.16.935.935 0 0 1 .04.207c.046.535.535 1.176.535 1.176a.912.912 0 0 0-.832.226.897.897 0 0 0-.305.801c.016.195.172.348.371.348s.36-.164.36-.364a.37.37 0 0 0-.348-.37c.164-.4.543-.079.543-.079.558.5-.317 1.067-.317 1.067-.625.418-1.218-.38-1.218-.38.66-1.167.78-1.984.757-2.488a35.055 35.055 0 0 1-.683.227c.312 1.05-.422 1.652-.422 1.652-.207-.144-.238-.71-.238-.71-.063-.243-.141-.47-.215-.688-.2.055-.395.11-.598.16.223.66.32 1.625.32 1.625-.117.14-.472.176-.472.176-.512.047-.242-.242-.242-.242.254-.215.195-.375.195-.375-.152-.352-.715-.024-.715-.024-.75.414-.523.86-.523.86.09.27.851.535.851.535-.41.312-1.195.183-1.293.16a.53.53 0 0 0-.39-.45l-.047-.011c-.274-.027-.414.086-.489.195a.672.672 0 0 0-.09.164l-.46-.097c-.325-.051-.504-.973-.606-1.778-.129.012-.258.032-.387.043.125.864.282 1.63.282 1.63-.157 0-.836-.473-.836-.473-.848-.516-1.43-.352-1.45-.34a.91.91 0 0 0-.75.89c0 .504.41.91.91.91a.91.91 0 0 0 .907-.882c.324.152.617.336.617.336.813.543 1.578.601 1.785.605a.655.655 0 0 0 .649.531c.25 0 .465-.136.57-.343 1.742-.059 2.383-.828 2.383-.828.183-.243.223-.102.223-.102.636.926 1.875.363 1.875.363.238-.117.289.035.289.035.254.399.632.192.632.192.489-.254.2-.563.2-.563-.16-.168.039-.16.039-.16.582.086.695-.25.695-.25.117-.265-.297-.492-.297-.492-.117-.145.11-.266.11-.266.343-.195.289-.394.289-.394.43.004.398-.192.398-.192.012-.175-.531-.164-.531-.164-.43-.047-.34-.261-.34-.261.633-.028 1.594-.309 1.594-.309 1.402 1.14 3.48 1.418 3.48 1.418.043.207-.027.492-.039.527-.012-.004-.023-.004-.035-.004a.332.332 0 0 0-.332.332c0 .18.148.332.332.332a.553.553 0 0 0 .094-.015c.668-.176.718-1.16.718-1.16 1.903.183 3.196-1.25 3.196-1.25.187-.16.28-.11.32-.059l.004.004a.546.546 0 0 0 .868-.031.852.852 0 0 0 .097-.305v-.012c.008-.218-.11-.355-.11-.355m-22.875 2.437c.18-.086.215-.293.215-.293.04-.52-.34-.753-.351-.761a19.416 19.416 0 0 1-.68.011h-.004a19.309 19.309 0 0 1-.676-.011c-.011.008-.386.242-.355.761 0 0 .039.207.219.293 0 0-.48.207-.485.54 0 0-.058.246.367.59 0 0 .309.343.399.605 0 0 .027.37.535.37.504 0 .535-.37.535-.37.09-.262.399-.606.399-.606.421-.343.37-.59.37-.59-.007-.332-.488-.539-.488-.539m3.547-2.101l.25-.028-.16-.293zm-8.394.012l.246.027-.098-.32zm-.98-.688c-.012-.008-.02-.008-.044-.008l-.047.383c.082.008.141.016.172.008a.151.151 0 0 0 .078-.055c.024-.023.032-.062.04-.11.011-.073 0-.124-.032-.155-.027-.036-.082-.055-.168-.063m3.614.297c-.086-.004-.153.027-.196.094-.047.066-.074.168-.074.316-.008.16.012.274.05.344a.19.19 0 0 0 .18.11c.09.003.157-.024.204-.087.05-.062.07-.172.078-.336.008-.144-.008-.257-.047-.324a.21.21 0 0 0-.195-.117m3.144-.004a.218.218 0 0 0-.187.105c-.04.07-.055.176-.047.325.004.156.027.27.074.336s.11.101.195.097a.225.225 0 0 0 .192-.105c.043-.063.062-.176.054-.336-.007-.14-.03-.254-.078-.324a.204.204 0 0 0-.203-.098m-8.594-.012l.243.04-.07-.321zm-4.797-1.902l-.14.375.05.02c.075.027.133.03.169.003a.25.25 0 0 0 .086-.117.282.282 0 0 0 .019-.133.179.179 0 0 0-.055-.082.54.54 0 0 0-.129-.066m1.208.41a.218.218 0 0 0-.22.04c-.058.05-.109.144-.155.284-.047.153-.06.266-.043.344a.22.22 0 0 0 .152.156.22.22 0 0 0 .215-.031c.062-.047.117-.144.168-.3a.646.646 0 0 0 .035-.329.21.21 0 0 0-.152-.164m1.16.352c-.008-.004-.024-.008-.04-.012l-.101.375a.492.492 0 0 0 .172.027.147.147 0 0 0 .086-.035.26.26 0 0 0 .05-.11c.02-.07.02-.128-.007-.16-.027-.038-.082-.062-.16-.085"/>
  <path fill="#fff" d="M40.207 35.092c-.043-.015-.102-.011-.18.008-.011.004-.023.016-.039.016l.102.37a.507.507 0 0 0 .164-.062.113.113 0 0 0 .05-.074.218.218 0 0 0-.007-.12.194.194 0 0 0-.09-.138m2.094-.113l.23-.09-.226-.242zm0 0"/>
  <path fill="#fff" d="M42.645 35.233l-.032-.078c.047-.016.07-.028.078-.04a.055.055 0 0 0 .004-.042.203.203 0 0 0-.03-.035l-.017-.02-.054-.059-.293.11v.055c0 .039 0 .066.004.074.007.031.023.039.043.047a.246.246 0 0 0 .078-.016l.035.078-.32.117-.028-.074c.059-.023.09-.098.094-.215l.012-.851.082-.035.586.628c.05.067.097.098.125.106.031 0 .054 0 .082-.008l.027.082zm-1.536.531l-.02-.066.278-1.004-.156.05a.487.487 0 0 0-.191.098c-.028.032-.044.09-.04.172l-.078.028-.066-.27.816-.266.02.067-.278 1.004.223-.075a.76.76 0 0 0 .133-.058.357.357 0 0 0 .059-.09.526.526 0 0 0 .02-.148l.081-.024.078.293zm-.48.14a3.077 3.077 0 0 1-.23-.214.802.802 0 0 0-.118-.11.093.093 0 0 0-.054-.023.397.397 0 0 0-.11.02l.07.234c.004.047.02.074.044.086.019.016.054.016.105 0l.012-.004.027.078-.531.149-.02-.082h.012c.05-.016.082-.032.094-.055.008-.023.004-.055-.004-.102l-.164-.582c-.012-.046-.028-.074-.051-.09-.02-.015-.055-.015-.102 0l-.02.005-.023-.082.395-.11.09-.023a2.597 2.597 0 0 1 .195-.047.354.354 0 0 1 .129.012.197.197 0 0 1 .121.066.23.23 0 0 1 .067.11c.035.116-.012.218-.133.296a.92.92 0 0 1 .222.164.69.69 0 0 0 .176.133.11.11 0 0 0 .086 0l.024.086zm-1.906.485l-.016-.086.016-.004c.05-.015.078-.027.09-.047.015-.023.015-.054 0-.105l-.137-.59c-.016-.047-.028-.074-.051-.09-.016-.011-.047-.011-.102-.004l-.02.004-.015-.082.852-.195.078.254-.082.02c-.027-.04-.05-.079-.078-.098a.152.152 0 0 0-.07-.04c-.016 0-.051 0-.094.012l-.188.043.082.344.094-.02c.043-.011.066-.023.082-.042a.159.159 0 0 0 0-.106l.086-.02.078.34-.078.016c-.004-.008-.004-.012-.004-.012-.012-.03-.02-.054-.039-.074-.02-.02-.05-.027-.105-.012l-.094.024.058.246c.016.047.024.074.032.086.007.016.023.027.05.027.032.008.067 0 .114-.008a.489.489 0 0 0 .14-.058.227.227 0 0 0 .059-.106.448.448 0 0 0 .023-.144l.082-.02.067.328zm-.465-.699l.066.336a.807.807 0 0 1 .02.18.27.27 0 0 1-.04.144.309.309 0 0 1-.12.125.457.457 0 0 1-.2.082.481.481 0 0 1-.21 0 .347.347 0 0 1-.165-.066.446.446 0 0 1-.09-.117.586.586 0 0 1-.046-.153l-.078-.402a.19.19 0 0 0-.043-.094c-.02-.012-.059-.012-.114 0l-.015-.082.535-.105.015.082-.02.004c-.05.007-.077.023-.089.043-.015.023-.015.058-.004.101l.074.399a.6.6 0 0 0 .055.164c.016.039.05.07.094.093a.216.216 0 0 0 .156.012.232.232 0 0 0 .207-.203.925.925 0 0 0-.012-.195l-.07-.336c-.023-.102-.082-.145-.18-.125l-.02-.082.376-.07.02.081a.117.117 0 0 0-.067.032c-.023.015-.035.035-.035.058a.186.186 0 0 0 0 .094m-1.188.25a.496.496 0 0 0-.066-.105.139.139 0 0 0-.07-.044.228.228 0 0 0-.098.005l-.16.023.05.351.083-.015c.039-.008.066-.02.078-.035.012-.02.012-.055.012-.106l.082-.012.054.348-.078.016c-.016-.059-.031-.094-.05-.102-.016-.02-.048-.023-.083-.015l-.078.015.043.27c.008.047.02.078.04.094.019.015.054.023.105.015l.023-.008.008.082-.543.09-.012-.082.012-.008c.055-.004.082-.02.098-.039a.202.202 0 0 0 0-.097l-.094-.606c-.004-.043-.016-.07-.04-.09-.019-.015-.05-.02-.1-.015l-.02.007-.012-.082.848-.136.054.27zm-1.765 1.012l-.008-.078c.047-.012.074-.016.082-.032a.044.044 0 0 0 .012-.03.06.06 0 0 0-.02-.044l-.008-.023-.035-.075-.316.036-.012.054a.291.291 0 0 0-.016.078c.004.024.016.04.032.047.015.012.043.012.082.008l.011.082-.34.04-.003-.083c.062-.012.109-.07.136-.183l.227-.825.086-.011.414.75c.039.07.07.12.098.136a.292.292 0 0 0 .078.012l.008.082zm-1.563.152l-.008-.086h.012c.055-.004.086-.016.102-.035a.19.19 0 0 0 .011-.102l-.05-.601c-.004-.047-.02-.082-.035-.094-.016-.02-.051-.027-.098-.023l-.02.004-.008-.086.551-.047.008.086h-.02c-.054.004-.085.015-.101.035a.19.19 0 0 0-.012.101l.051.582a.255.255 0 0 0 .016.086c.004.016.02.028.043.032.023.015.054.015.113.007.09-.007.156-.035.195-.086a.372.372 0 0 0 .074-.187l.082-.008.024.34zm-.87-.082a.587.587 0 0 1-.411.176.68.68 0 0 1-.32-.067.468.468 0 0 1-.211-.195.622.622 0 0 1-.07-.258c0-.086.019-.18.07-.27a.476.476 0 0 1 .199-.202.624.624 0 0 1 .277-.075c.184-.007.328.04.434.137.105.102.164.23.168.38a.509.509 0 0 1-.137.374m-1.707-.754c-.027 0-.05.012-.074.016a.097.097 0 0 0-.043.062.255.255 0 0 0-.016.094l-.004.785h-.093l-.668-.75v.469c0 .074.015.125.039.144a.175.175 0 0 0 .11.036v.082h-.384v-.082a.144.144 0 0 0 .082-.024c.024-.02.043-.039.047-.058.008-.02.008-.051.012-.098l.004-.52c0-.109-.051-.16-.145-.16v-.086l.344.008.563.625v-.375c0-.113-.051-.168-.145-.168v-.082h.371zm-1.504.793a.549.549 0 0 1-.422.137.623.623 0 0 1-.32-.086.467.467 0 0 1-.187-.215.542.542 0 0 1-.047-.254.5.5 0 0 1 .086-.27.444.444 0 0 1 .214-.183.64.64 0 0 1 .286-.055c.183.008.324.063.418.172a.54.54 0 0 1 .144.39.551.551 0 0 1-.172.364m-1.219-.875l-.64.824.234.016c.063 0 .114 0 .145-.008a.261.261 0 0 0 .094-.062.406.406 0 0 0 .07-.125l.086.007-.043.305-.918-.07.004-.063.633-.824-.164-.016c-.106-.007-.176 0-.211.02-.036.02-.067.066-.098.14l-.082-.007.035-.266.86.063zm-1.101.875l-.508-.047.008-.082c.047.004.074.004.086-.004a.035.035 0 0 0 .015-.031c.008-.016 0-.035-.004-.055l-.011-.02-.016-.077-.316-.032-.028.047a.676.676 0 0 0-.027.074c0 .024.008.04.02.051.015.012.043.02.086.024l-.012.086-.336-.036.008-.086c.062.008.12-.039.175-.144l.395-.762.09.008.238.828c.024.078.047.13.07.149a.169.169 0 0 0 .075.031zm-1.13-.11l-.315-.042a1.972 1.972 0 0 1-.125-.285c-.028-.079-.055-.125-.063-.149-.02-.023-.031-.039-.047-.043a.423.423 0 0 0-.11-.027l-.03.242c-.004.047 0 .078.015.098.008.023.04.039.09.046h.02l-.012.082-.55-.07.015-.09.02.004c.05.008.085 0 .105-.015.015-.012.027-.047.03-.09l.083-.602c.004-.043 0-.078-.012-.097-.015-.024-.047-.036-.094-.043h-.019l.012-.086.406.054.09.012c.093.012.156.02.199.035a.411.411 0 0 1 .117.059.3.3 0 0 1 .086.105.322.322 0 0 1 .016.137c-.016.113-.094.188-.242.215a.8.8 0 0 1 .14.242.744.744 0 0 0 .11.184.11.11 0 0 0 .078.035zm-1.722-.245l-.504-.09.016-.082c.043.008.074.008.086 0 .008-.004.02-.012.02-.028a.11.11 0 0 0 0-.05l-.012-.024-.012-.078-.309-.059-.027.051c-.023.028-.035.055-.035.067-.004.023 0 .043.012.054.02.016.043.024.078.032l-.012.082-.336-.059.016-.086c.062.016.125-.031.187-.137l.453-.722.086.015.176.84c.016.086.04.137.059.156a.17.17 0 0 0 .07.036zm-1.129-.204l-.914-.199.02-.074h.015c.051.008.086.008.106-.008.016-.015.027-.043.039-.09l.129-.593c.008-.043.008-.079-.004-.102-.012-.023-.043-.035-.094-.05h-.015l.02-.079.538.113-.02.079-.019-.004c-.05-.008-.082-.008-.105.011-.016.012-.032.043-.043.086l-.117.575c-.012.043-.012.07-.012.09 0 .011.012.027.027.038a.28.28 0 0 0 .11.04c.086.02.156.011.207-.024a.303.303 0 0 0 .129-.16l.082.02zm-1.68-.671c.036.109.063.171.079.199a.166.166 0 0 0 .078.047l-.024.082-.308-.086c-.024-.035-.05-.133-.086-.293a1.198 1.198 0 0 0-.05-.156c-.009-.024-.02-.043-.036-.051a.285.285 0 0 0-.102-.035l-.066.23c-.012.047-.012.082 0 .102.008.023.035.043.09.054l.012.004-.016.082-.539-.144.023-.082.02.007c.055.012.082.012.105-.003a.139.139 0 0 0 .047-.09l.156-.582c.012-.047.016-.078.004-.102-.011-.023-.043-.039-.09-.05l-.019-.012.023-.078.395.109.09.023a3.315 3.315 0 0 1 .191.055.492.492 0 0 1 .11.074.21.21 0 0 1 .066.117.308.308 0 0 1 .004.133c-.035.121-.121.184-.266.192a.816.816 0 0 1 .11.254m-1.035-.512a.514.514 0 0 1-.258.312.596.596 0 0 1-.446.02.616.616 0 0 1-.277-.168.46.46 0 0 1-.133-.254.638.638 0 0 1 .024-.262.439.439 0 0 1 .156-.234.425.425 0 0 1 .254-.125.66.66 0 0 1 .289.027.565.565 0 0 1 .36.274.55.55 0 0 1 .03.41m-1.183-.625a.287.287 0 0 1-.121.14.3.3 0 0 1-.176.036c-.066-.004-.144-.032-.238-.063l-.07-.027-.09.23c-.012.043-.016.074-.008.098.008.02.035.047.086.062l.02.008-.028.078-.523-.191.03-.082.016.008c.051.02.082.023.106.011a.195.195 0 0 0 .055-.09l.207-.57c.015-.039.02-.07.007-.097-.007-.02-.035-.04-.078-.059l-.023-.012.027-.074.395.133c.097.039.172.066.218.09a.379.379 0 0 1 .133.098.22.22 0 0 1 .063.132.247.247 0 0 1-.008.14m9.793 1.138l.305.015-.36.227h-.066zm14.004-2.153a.607.607 0 0 0-.356-.105.72.72 0 0 0-.234.039c-.465.125-4.809 2.043-12 2.047-7.191-.004-11.535-1.922-12.004-2.047 0 0-.101-.04-.234-.04a.59.59 0 0 0-.348.106l-1.476 1.157h.011c.426 0 .906.226.918.234 3.832 1.676 8.223 2.367 13.133 2.41 4.91-.043 9.297-.734 13.129-2.41.02-.008.496-.234.926-.234h.004zm-17.176-14.27a6.17 6.17 0 0 1-.57-.343c-.125.082-.336.211-.535.344zm2.606-.245c-.102.047-.297.129-.457.218a.377.377 0 0 0-.067.028h4.629c-.035-.016-.059-.028-.063-.028-.167-.09-.367-.172-.46-.218a.139.139 0 0 1-.055-.028 5.789 5.789 0 0 0-.606-.203h-2.265a6.09 6.09 0 0 0-.602.203.356.356 0 0 1-.054.028m6.96-.094c-.007.004-.007.008-.011.012-.098.07-.258.199-.477.328h.969c-.172-.121-.344-.238-.453-.32-.008-.008-.02-.012-.028-.02m-10.75 9.25v-2.395c-.183.461-.468 1.446 0 2.395m5.579-4.02l-4.438-1.43h3.465zm-.02-4.578h-5.906s0 .012-.004.012c-.004.059.035.117.066.152.036.036.121.149.239.313h5.46zm-.238.79h-5.164c.082.14.168.296.254.472h4.761zm-.238.788h-4.536a3.997 3.997 0 0 1 .164.477h4.223zm-.243.793h-4.054c.03.153.058.313.07.477h3.84zm-2.586 1.579H25.75a4.566 4.566 0 0 1-.094.472h2.156zm-.437-.313l-.664-.48h-.278v.043c.012.062.02.214.012.437zm0 0"/>
  <path fill="#fff" d="M30.496 19.721l-.02-.066v4.644l4.438-1.425h-3.46l-.095-.305h3.903c.02-.164.05-.324.086-.477h-4.133l-.094-.316h4.316a5.1 5.1 0 0 1 .176-.477h-4.636l-.098-.316h4.879c.086-.172.176-.328.261-.473h-5.28l-.098-.312h5.582c.156-.23.277-.38.312-.418.028-.028.035-.047.035-.059zm1.047 7.11v3.554c.152-.101.313-.18.473-.246V27.19zm-.805-.614v5.145a8.598 8.598 0 0 1 .18-.29l.023-.042a1.548 1.548 0 0 1 .274-.371V26.58zm-.793.207v4.133c.153.133.285.285.39.477l.017.039c.02.027.043.062.07.105v-5.117zm-.785.594v3.086a2.5 2.5 0 0 1 .473.227v-3.668zm3.168 3.012a4.4 4.4 0 0 1 .477-.11v-2.132l-.477-.36zm-3.957-.125c.145.023.305.055.473.098V27.26l-.473.36zm0 0"/>
  <path fill="#fff" d="M28.055 24.932h.316v1.39l-.316.93zm2.422-.636l-1.621.593-.606-.433h-2.684a6.202 6.202 0 0 1-.183.476 7.253 7.253 0 0 1-.168.364v3.511c.098.121.254.278.473.438v-4.313H26v4.508a3.572 3.572 0 0 0 .473.207v-4.715h.316v4.809a4.148 4.148 0 0 0 .477.086v-4.895h.316v4.918c.066.004.129.012.203.012.035 0 .133 0 .27.008v-2.008l-.274.207zm0 0"/>
  <path fill="#fff" d="M33.117 27.905l-.308-.926v-2.047h.308zm2.48-2.973c-.07-.172-.136-.324-.183-.476h-2.71l-.606.433-1.184-.433-.437-.16 2.64 3.734v1.848a5.16 5.16 0 0 1 .371-.02c.035 0 .07-.004.106-.004v-4.922h.316v4.906c.172-.02.328-.039.477-.07v-4.836h.312v4.75c.18-.054.332-.12.477-.187v-4.563h.312v4.38c.184-.122.332-.247.442-.356a.235.235 0 0 1 .035-.055v-3.246a7.45 7.45 0 0 1-.367-.723m-2.457-.789h2.183a3.388 3.388 0 0 1-.09-.473h-1.433zm1.761-1.266l-.664.477h.973c0-.156.012-.27.016-.328 0-.05.007-.098.011-.148zm2.387-11.234c-.004.008-.016.008-.016 0-.011-.008-.011-.012-.011-.012 0-.078.011-.16.02-.23a1.952 1.952 0 0 0-.028-.578c-.227-.961-1.023-1.309-1.598-.735 0 0 .617-1.16 2.016-.734.344.106.605.387.797.813.164.375.097.757-.016.972-.004.008-.012.008-.023.008-.004-.008-.012-.016-.004-.023.039-.215-.024-.586-.157-.88-.066-.16-.218-.433-.452-.5.144.208.242.376.304.52.086.2.09.317.09.407.012.437-.195.925-.399 1.105-.003 0-.015 0-.023-.004-.008-.008-.008-.016-.004-.023.223-.528.238-.98.055-1.399-.02-.035-.043-.082-.067-.125-.164-.293-.441-.633-.863-.62.207.14.375.355.488.612.243.551.192 1.176-.109 1.426m-5.047-4.898c-.027-.04.867.176 1.028.968.03.497-.247.645-.294.625-.019-.007-.027-.043-.015-.062.137-.328.082-.855-.176-1.16-.183-.219-.515-.34-.543-.371m-.539 8.578c-.183-.324.309-.735.418-1.059.598-.09-.156.969-.418 1.059m.117.89c-.129-.058-.136-.316-.117-.433.047-.32.418-.465.586-.64.043-.005.016.507-.469 1.073m.118-3.671c.43.18-.22 1.046-.27 1.21.102-.046.45-.421.586-.304.223.183-.453 1.078-.637 1.14-.957-1.257.27-1.628.32-2.046m-.734 4.043c-.156-.047-.07-.325-.07-.442 0-.676-.016-1.328-.184-1.89-.082-.282-.308-1.176-.906-2.313.23.266 1.133 1.668 1.262 2.734.074.594.183 1.387-.102 1.91m-.539-.402c-.453.016-.508-.308-.594-.648.203.156.48.37.461.004-.172-.145-1.187-.407-.922-.856.168-.238.715.739.871.41.094-.656-1.953-.859-1.89-1.425.008-.305 1.61.78 1.84.754-.02-.348-2.383-1.31-3.106-2.598-.05-.094-.078-.172-.062-.188.011-.004.02 0 .023.008.442.703 1.598 1.645 3.043 2.04.496.14.734 1.718.336 2.5m-5.086-3.266c.227-.633.348-1.586-.652-1.832-.774-.196-1.469.382-1.832.707.234-.711 1.011-1.246 2.035-1.016-.211-.598-.977-.848-1.867-.355a2.68 2.68 0 0 0-.516.382c.156-.453.527-.781.953-.937a1.679 1.679 0 0 1 1.711.367c1.098 1.078.5 2.602.168 2.684m-1.941.539c.547-.141 1.027-.43.886-.946-.043-.144-.168-.265-.375-.285-.304-.023-.511.196-.664.426.035-.48.336-.79.82-.734.258.027.606.265.653.535.152.758-.539 1.07-1.32 1.004m13.863.07a2.365 2.365 0 0 0 .383-.02c1.476-.382 1.535-2.203 1.293-2.316-.012.012-.016.008-.024-.02a2.972 2.972 0 0 1-.12.317c-.095.187-.208.305-.243.289-.016-.008-.02-.035-.008-.043.32-.57.313-1.012.145-1.562-.114-.297-.29-.594-.57-.793-.747-.524-2.239-.614-3.048.019a2.823 2.823 0 0 0-1.062-.644c-.098.457-.602 1.066-1.043 1.379-.086.058-.34.226-.445.226 0 0-.098-.02-.008-.102.793-.492 1.18-1.09 1.187-1.84v-.011c-.019-.375-.117-1.074-.574-1.574-.719-.785-2.66-.891-3.55-.153a1.868 1.868 0 0 0-.462.918c.098-.27.305-.547.72-.675.39-.125 1.148-.04 1.257.418-.664-.684-1.875-.18-2.047.98v-.012c-.015.074-.054.082-.054.082h-.004c-.036-.004-.078-.008-.059-.523.012-.324.11-.727.254-1.063-1.488-.27-3.273.461-3.242 2.676.02.313.129.602.422.934.05.062.008.09.008.09-.044.019-.231-.102-.34-.25a2.239 2.239 0 0 1-.34-.731c-.938-.336-1.516-.348-2.047-.297-.547.05-1.27.54-1.524.871a3.835 3.835 0 0 0-.336.54 2.367 2.367 0 0 0-.265 1.324c.082.867.508 1.593 1.137 1.94.867.478 1.968.415 2.363.353.215-.047.437-.122.672-.282a.69.69 0 0 0 .086-.062.153.153 0 0 1 .039-.031c.347-.301.558-.766.531-1.372-.004-.011.012-.035.027-.035.035 0 .09.16.086.367a2.202 2.202 0 0 1-.156.747c0 .035.004.074.004.117.016.086.05.176.098.234.168.184.574.246.898.117.012-.007.035-.004.035.008.004.043-.215.27-.61.27a1.302 1.302 0 0 1-.241-.024c.218.367.836.63 1.468.59.012 0 .04.012.04.023 0 .04-.157.094-.368.094-.289 0-.644-.07-.902-.207.3.367.82.696 1.71.82.024.106-.671.024-.87-.046.414 1.609 1.273 1.422 1.289 1.535-.254.086-.43.39-.254.742.918-.328 1.598-.352 1.8-.352.204 0 .91.028 1.844.371a.421.421 0 0 0 .055-.417c-.14-.403-1.375-.715-2.539-.375a.562.562 0 0 0-.148.082h-.016c-.004-.008 0-.02.016-.036a.958.958 0 0 1 .152-.097c.508-.27 1.562-.371 2.14-.082h.008c.496.215.938-.39.778-.703.367.023.64-.203.664-.57a1.413 1.413 0 0 1-.192.093l.004.004c-.133.062-.258.07-.27.055-.003-.008 0-.016 0-.016l-.003-.004c.004 0 .008-.004.008-.004.007 0 .007-.004.007-.004a1.904 1.904 0 0 0 .157-.082c.68-.39 1.004-1.156.937-1.39-.054.133-.27.25-.472.254-.106.007-.168-.012-.176-.032 0-.011.011-.02.023-.02a.515.515 0 0 0 .23-.097c.235-.172.458-.484.563-.742-.426-.402-.57-.875-.816-1.5-.094-.23-.29-.477-.578-.5h-.125a.842.842 0 0 0-.106.02c-.004.003-.02 0-.023-.008.328-.266.68.023.89.144.036-.597.25-.75.266-.742.012.004.012.023.008.027-.414 1.223.394 2.383 1.039 2.754.852.465 2.398.532 3.43-.343-.188.05-.383.086-.559.09-.207.007-.363-.047-.367-.083 0-.015.02-.031.035-.027"/>
  <path fill="#fff" d="M49.867 30.506c-.09.438-.297 1.547-.34 1.453.926-8.382.418-10.46.262-10.43-.133.052-.285 1.036-.75.735-.45-.289 1.043-2.144.445-3.16-.132-.164-.257.23-.5.156-.62-.199.336-1.797.157-1.965-.133-.117-.598-.214-.61-.808-.004-.266.172-.484-.043-.707-.172-.168-.14.156-.32.074-.289-.305-.024-.656-.168-.883-.078-.058-.277.188-.434.063-.172-.137.094-.41-.117-.508-.27.039-.676.34-.593.781.039.23.316.387.296.652-.011.223-.289.493-.347.61-.399.902.273 1.09.183 1.406-.043.156-.328.246-.515.172-.242-.101-.297-.91-.215-1.242.09-.38.617-.84.617-1.05-.008-.231-.258-.497-.285-.813-.043-.489.328-.965.812-.86.313.063.52.332.715.563.074.09.184.168.246.246.563.695 1.008 1.93 1.281 2.922.805 2.918 1.18 7.515.223 12.593m-4.14-11.91a2.127 2.127 0 0 1-.7.344c-.437.11-.843-.047-1.027-.313.324-.101.61.118 1.047.067a3.045 3.045 0 0 0 .418-.082c.125-.043.223-.168.363-.168.05.05-.055.113-.101.152m-4.633 13.875h-.004a.33.33 0 0 0-.02.067c-.238-.004-.746-.36-.754-.36-.07-.043-.293-.168-.48-.105h-.004v.004c-.203.086-.297.297-.41.402a.827.827 0 0 1-.035-.121c0-.004 0-.008-.004-.012-.004-.035-.008-.066-.008-.097v-.036c0-.03.004-.054.008-.078a.117.117 0 0 1 .015-.039.236.236 0 0 1 .047-.094c.008-.015.02-.03.032-.05.011-.008.023-.02.035-.028.02-.015.035-.035.062-.043.008-.011.012-.011.024-.015a.74.74 0 0 1 .386-.074.906.906 0 0 1 .532.207c.172.152.515.195.726.207a1.12 1.12 0 0 0-.148.265m-19.086-1.097c0 .023-.008.035-.016.05-.012.008-.015.012-.023.02-.008.004-.016.015-.028.02a.442.442 0 0 1-.18.035c-.12 0-.25-.02-.335-.036-.012.079.031.137.093.176v.004a.012.012 0 0 0 .008.004c.028.02.059.035.086.05l.145.067c.011.117-.192.184-.285.184-.2 0-.336-.215-.403-.352a.333.333 0 0 0-.054-.043c-.02-.012-.032-.02-.047-.027-.176-.098-.438-.129-.692-.145.043-.457 1.305-.144 1.336-.136.133.035.297.035.403.101 0 .012-.004.02-.008.028m19.55-3.141c-1.062.082-1.757-.887-1.699-.863.059.015.364.363.73.504.5.191 1.18.086 1.524-.188.016-.012.059-.02.082 0 .051.05 0 .418-.636.547m-3.75-.73l-.047.07a.678.678 0 0 1-.059.05s-.004 0-.004.004c-.02.012-.035.024-.058.032-.004 0-.004.004-.012.004-.016.011-.035.015-.05.02h-.024c-.016.003-.035 0-.055 0h-.023c-.02-.009-.04-.013-.059-.024a.121.121 0 0 1-.031-.008c-.02-.008-.04-.024-.059-.035-.012-.008-.023-.012-.039-.02a.466.466 0 0 1-.07-.058c-.012-.012-.02-.016-.032-.024 0 0-.136-.23.075-.254a.663.663 0 0 0 .078.074.429.429 0 0 0 .07.043.03.03 0 0 0 .016.004c.023.008.039.008.05 0 .004 0 .004 0 .008-.004a.105.105 0 0 0 .032-.027c.004-.004.007-.012.011-.02a.315.315 0 0 0 .024-.038c0-.008.004-.012.004-.02a.26.26 0 0 0 .023-.078c.004-.012.004-.02.004-.031l.012-.063c0-.02 0-.035.004-.05 0-.024.004-.04.004-.063.027-.356.004-.848.109-1.012a.092.092 0 0 1 .031-.035c.004-.004.008-.004.012-.012a.091.091 0 0 1 .039-.012h.004c.023 0 .039.008.058.02l.016.012.02.031c0 .012.004.02.007.027.004.016.008.028.008.047.004.012.004.024.008.04v.1c0 .098-.004.22 0 .356v.063c.004.082.008.164.024.258.023.195-.02.46-.13.632m-1.437 1.227c-.078.133-.855 1.336-2.879 1.336-.187 0-1.816.031-2.37 1.066 0 0-.013.02-.032.043-.067.117-.27.446-.363.63a.106.106 0 0 1-.09.05c-.04 0-.078-.016-.094-.05-.086-.184-.293-.513-.36-.63-.023-.023-.03-.043-.03-.043-.56-1.035-2.184-1.066-2.368-1.066-2.031 0-2.808-1.203-2.89-1.336-1.008-1.484-.06-3.164-.047-3.18.828-1.437.746-2.425.718-2.605.004-1.586-.992-2.79-1.105-2.918-.113-.129-.125-.246-.117-.317a.336.336 0 0 1 .168-.246c.226-.152.707-.457.914-.582l.094-.062a.152.152 0 0 1 .074-.024c.062 0 .11.04.203.11.2.156.566.441 1.203.441.113 0 .23-.008.352-.027.332-.05.882-.332.89-.332.168-.094.38-.184.477-.227l.047-.02a5.072 5.072 0 0 1 1.87-.402c.212 0 .97.028 1.86.399l.05.02c.095.042.31.136.485.23.008 0 .555.281.887.332.121.02.238.027.351.027.641 0 1.008-.285 1.204-.441.093-.07.148-.11.207-.11.027 0 .07.016.09.036-.008-.004.035.02.097.062.215.133.672.426.914.582.012 0 .125.086.14.23.013.075 0 .192-.112.317-.11.133-1.106 1.336-1.106 2.898-.023.204-.11 1.192.727 2.63.035.074.93 1.73-.059 3.18m-11.98-2.72l-.024.067c-.02.043-.039.082-.054.117-.008.015-.016.035-.028.05-.012.024-.027.048-.043.075-.008.015-.02.027-.031.047a1.559 1.559 0 0 1-.074.093.04.04 0 0 1-.024.02.375.375 0 0 1-.07.066.17.17 0 0 1-.027.024c-.035.027-.067.043-.102.062-.004 0-.008 0-.012.004-.035.012-.07.028-.109.035a.081.081 0 0 1-.023.008.517.517 0 0 1-.133.008c-.02-.031-.02-.062-.02-.09 0-.125.133-.242.192-.394.058-.137.047-.227.125-.328.136-.016.246.03.28-.09-.194-.164-.21-.496.044-.758.375-.379 0-1.176.07-1.27.113.094.195.356.227.688.004.027.004.058.008.082.003.035.003.074.007.11a.662.662 0 0 1 .004.09v.296c-.004.027-.004.055-.008.082 0 .031-.004.063-.007.094-.004.023-.004.047-.008.066 0 .051-.008.094-.012.14-.004.028-.008.056-.016.087-.003.031-.011.062-.015.09a.453.453 0 0 1-.016.07c-.004.031-.011.059-.015.086a5.306 5.306 0 0 1-.036.125c-.007.027-.015.05-.023.074-.008.027-.02.047-.027.074m12.57-1.648a.828.828 0 0 1 .172-.016h.012c.062 0 .125.008.183.024.04.004.16.23.219.457.012.054.11.402.23.52.114.113.07.343-.214.304h-.016c-.3-.05-.645-.52-.504-.992a.678.678 0 0 0-.215-.008h-.008a.279.279 0 0 0-.105.031c-.012 0-.02.004-.031.012-.024.008-.04.02-.059.031a.184.184 0 0 0-.047.028c-.074.062-.101.171-.203.175.008-.18.113-.328.262-.433l.008-.008a.941.941 0 0 1 .316-.125m-12.75-1.848c-.164.035-.191-.683-1.063-.508-.468.207-.82.075-1.113-.046 1.235-.696 2.27.011 2.176.554m-4.27-4.945c-.57-.2-1.234-.293-1.472-.754.828.066 1.648.074 2.172.367.023.016.039.031.066.043.16.113.594.457.785 1.098-.707-.442-.96-.543-1.55-.754m-1.81-2.797c-.214-.016-.374-.156-.57 0-.019.012-.296.223-.234.484.02.18-.238.262-.32.149-.195-.438.512-1.047.687-1.098.403-.148.7.098 1.137.164.254.04.531-.004.742.016.473.039.344.387.266.437-.395.114-.621-.187-.957-.238-.242-.027-.508.106-.75.086m-.668.547c.531.2.574-.477.703-.324.184.312-.32.785-.703.324m-3.227 19.527h.004v.004c.074.063.176.117.254.188.02.023.047.043.067.07-.047.098-.149.09-.27.043a.193.193 0 0 0-.027-.012 1.934 1.934 0 0 1-.293-.172c-.094.141.086.29.175.414-.015.043-.066.067-.12.075l-.005-.004a.367.367 0 0 1-.199-.024h-.004c-.004 0-.007-.004-.007-.004-.18-.082-.211-.343-.215-.488a.616.616 0 0 0-.301-.48c.352-.223.887.343.941.39M39.645 18.46c-.141.257-.356.558-.68.636-.602.145-1.203-.347-1.219-.418-.031-.07.496.246.992.211.38-.031.672-.289.887-.46.02-.036.05 0 .02.03m-2.274-2.925c-.02.023-.062.023-.082.015-.351-.183-1.027-.171-1.508.082-.351.188-.636.543-.695.57-.055.028.582-.945 1.633-1.046.633.004.699.328.652.379m13.43 8.277c-.14-2.308-.324-4.371-.883-6.277-.34-1.168-1-3.559-2.543-3.887-.727-.152-1.281.524-1.266 1.129.012.523.375.777.215 1.297-.195.332-.386.703-.484 1.078-.09.375.242.531.133.93-.465-.07-.711.316-1.403.175-.636.262-1.273.149-1.277.13-.004-.008.02-.02.031-.016.692-.02 1.32-.246 1.45-.551.14-.465.054-1.16-.294-1.418-.394.086-.593.426-1.972.344-1.137-.07-1.418.144-1.578.832-.067-.11-.07-.2-.059-.324.043-.38.422-.614.883-.66a.84.84 0 0 0 .11-.473c-.208-.016-.305-.024-.567.02-.543.081-1.29.39-1.473.933a.907.907 0 0 0-.043.281c.008.086.02.164.043.242.02.055.043.114.055.172.176.375.602.586 1.516.625.015 0 .035.012.035.031-.008.036-.184.07-.418.047 0 0-.848.008-1.223-.441-.027.035-.055.062-.07.082-.23.234-.649.457-1.02.484-.414.016-.875-.25-1.035-.468-.547-.735.16-2.016.149-2.485-.032-1.27-1.758-.7-2.387-.367-.758.395-1.356 1.035-1.86 1.66-.27.332-.574.746-.73 1.102.219.105.879.39 1.375.398l.027.004a1.602 1.602 0 0 0 .176.008c.262 0 .754-.043 1.117-.348a.61.61 0 0 1 .395-.148.63.63 0 0 1 .437.18c.09.074 1.176.94 1.532 1.187.05.031.156.125.18.273.01.09-.009.227-.141.383-.078.09-.625.73-.985 1.606-.05.125-.101.257-.14.394-.137.461-.227 1.2.418 1.43 0 0 .714.187.66-.996 0 0 .117.758.672.73.234-.008.445-.242.406-.754l.004.004a6.393 6.393 0 0 1 .05-1.664l.012-.066c.008.011.024.062.055.304.031.305-.184 3.047 2.066 4.907 0 0-.949-.465-1.605-1.63-.38.223-.902.708-.664 1.739.125.348.367.68.555.785.011.008.027.028.027.047.004.047-.125.137-.328-.07a.907.907 0 0 1-.094-.11 1.82 1.82 0 0 1-.18-.343 11.42 11.42 0 0 1-.734-.707l-.004-.008c-.176-.367-.078-1.465-1.148-1.469h-.102c-.05.004-.113.008-.184.027-.015.004-.027.004-.039.004-.28-.96-.203-1.57-.191-1.66.223-1.387 1.203-2.539 1.312-2.668.043-.043.086-.113.079-.18a.173.173 0 0 0-.059-.097l-.004-.004c-.371-.246-1.437-1.098-1.558-1.195l-.012-.012a.358.358 0 0 0-.258-.117.383.383 0 0 0-.23.086c-.434.363-.989.414-1.282.414a1.24 1.24 0 0 1-.21-.012h-.016c-.617-.016-1.391-.387-1.543-.465-1.063-.441-1.883-.46-2.035-.46-.153 0-.97.019-2.032.46-.152.078-.93.45-1.547.465h-.011a1.564 1.564 0 0 1-.211.012c-.293 0-.848-.051-1.278-.406l-.003-.008s-.102-.086-.235-.086a.372.372 0 0 0-.258.117l-.008.012c-.12.097-1.19.949-1.558 1.195l-.008.004c-.008.008-.05.043-.055.098-.007.066.036.136.07.18.118.128 1.098 1.28 1.317 2.667.008.05.035.258.012.598a17.59 17.59 0 0 0-.246-.734 1.18 1.18 0 0 0-.153-.403c-.148-.238-.375-.41-.613-.547-.191-.11-.402-.14-.586-.27-.285-.195-.586-.402-.773-.765a2.448 2.448 0 0 0-.375-1.246c.101-.047.535.266.57 1.035.508-.531.766-1.312.945-2.172.387-.527 1.47-.32 1.875-.25.11.016.286.055.368.118.117.085.144.265.304.335.168.067.364.016.57 0 .067.075.106.176.153.274.07-.004.117-.004.137-.008l.011-.004h.016c.582-.008 1.387-.398 1.453-.43l.02-.011c.03-.012.054-.024.086-.04-.23-.28-.586-.366-.907-.417-.402-.067-.62-.403-1.004-.485-.101-.023-.437-.078-.55-.035-.852.11-1.457-.21-2.246-.27-.758-.054-.786.466-1.055.891-.11.16-.227.348-.352.465-.21.203-.453.211-.703.406-.011-.007-.023-.02-.039-.023-.047-.266-.156-.684-.347-.973-.008-.008-.012-.008-.012-.015-.02-.032-.035-.063-.055-.094-.414-.649-.879-1.14-1.793-1.356a.98.98 0 0 1-.32-.171c-.149-.118-.043-.254 0-.27.262-.148.71-.094 1.008-.234.726-.336.472-.953.187-1.004-.371-.063-1.031-.242-1.16-.317-.176-.113-.285-.418-.574-.523a1.306 1.306 0 0 0-.598-.031c-.176.023-.289.156-.422.132.168-.234.453-.351.82-.382-.316-.09-.21-.606-.504-.723-.125-.02-.308.035-.515.14-.023-.16-.117-.714-.418-.89-.246-.14-.332.078-.32.219.008.125.37.28.433.843l-.191.13c-.043-.231-.153-.587-.39-.727-.243-.14-.329.074-.317.215.008.12.328.261.422.738a3.122 3.122 0 0 0-.243.21c-.492-.132-.597-.48-.722-.503-.137-.027-.363.039-.246.297.113.258.48.402.703.469-.05.054-.106.113-.149.171-.574-.109-.687-.5-.812-.523-.14-.027-.367.043-.25.297.152.328.71.476.855.508-.093.156-.14.293-.117.398-.441-.05-1.222.188-1.078.703.148.11.668-.32 1.145-.082.32.492.828.516.945.602.172.144.203.394.281.625.14.422.438.762.688 1.133.27.418.55.851.832 1.207.035.101.074.207.05.355-.32.516-1.293 1.121-1.687 1.492-.402.375-4.2 3.262-4.676 4.524-.11.285-.168.644-.152 1.023-.227.125-.637.05-.754-.086-.25-.293.262-.578.133-.972-.055-.153-.254-.204-.414-.153-.281.102-.34.668-.203 1.008.043.094.191.219.078.293-.14.055-.23-.086-.23-.289a.318.318 0 0 0-.114.328c.074.277.41.281.52.356-.016.125-.2.183-.333.062-.203.309.032.43.079.438.23.039.476-.164.617-.184.066.156-.043.207-.282.273.383.457.72-.332 1.141-.238.133.027 1.324 1.145 1.121 1.996a1.01 1.01 0 0 1-.082.2c-.265.324-.703.578-1.008.89-.625.395.594 2.895.496 4.172-.074.5.43.41.72 1.223-.305.007-.606.078-.763.308 0 0-.015.027-.046.07h.008a.644.644 0 0 0-.086.313c0 .344.28.621.625.621a.624.624 0 0 0 .629-.621c0-.035-.008-.066-.012-.094.14 0 .316.024.508.11l.55.3s-1.937 1.63-5.097.68c0 0-1.434-.457-1.032-1.73 0 0 .07-.215.262-.336a.72.72 0 0 0 .29.425.714.714 0 0 0 .413.13.715.715 0 0 0 .715-.715.703.703 0 0 0-.2-.497.408.408 0 0 0-.1-.082s-.008-.011-.012-.011c0-.004-.008-.004-.008-.012-.215-.14-.54-.238-1.035-.105 0 0-1.38.398-.875 1.894 0 0-.934-.211-1.29.215 0 0-.12.133-.109.355v.012a.78.78 0 0 0 .098.305.55.55 0 0 0 .445.23c.168 0 .32-.074.418-.199.004-.004.008-.004.008-.004.039-.05.129-.102.32.059 0 0 1.293 1.433 3.192 1.25 0 0 .054.984.718 1.16 0 0 .067.015.098.015a.334.334 0 0 0 .332-.332.328.328 0 0 0-.332-.328h-.039c-.008-.035-.078-.32-.043-.527 0 0 2.086-.277 3.488-1.418 0 0 .957.281 1.594.305 0 0 .09.218-.336.265 0 0-.547-.011-.535.164 0 0-.039.196.395.192 0 0-.051.199.293.394 0 0 .222.121.105.266 0 0-.414.226-.293.492 0 0 .113.336.691.25 0 0 .204-.008.04.16 0 0-.29.309.199.563 0 0 .383.207.633-.192 0 0 .058-.152.289-.035 0 0 1.238.563 1.879-.363 0 0 .035-.14.222.101 0 0 .637.77 2.38.828a.644.644 0 0 0 .573.344c.32 0 .586-.226.64-.53.212-.005.977-.067 1.794-.61 0 0 .293-.18.613-.332a.911.911 0 1 0 1.824-.023.92.92 0 0 0-.754-.9c-.02-.007-.605-.171-1.449.345 0 0-.676.472-.84.472 0 0 .16-.765.286-1.629-.133-.011-.262-.03-.387-.043-.102.805-.281 1.727-.606 1.778l-.464.097a.66.66 0 0 0-.086-.164c-.07-.11-.215-.226-.493-.195l-.047.012a.535.535 0 0 0-.39.449c-.094.023-.883.152-1.29-.16 0 0 .763-.266.852-.535 0 0 .223-.446-.523-.86 0 0-.566-.328-.715.024 0 0-.058.16.195.375 0 0 .27.289-.246.242 0 0-.351-.035-.468-.172 0 0 .093-.969.316-1.629-.2-.05-.395-.105-.594-.156a8.445 8.445 0 0 0-.215.687s-.03.563-.238.711c0 0-.734-.605-.422-1.656-.23-.07-.457-.148-.683-.223-.024.5.101 1.317.761 2.485 0 0-.601.797-1.222.379 0 0-.88-.567-.32-1.067 0 0 .382-.32.542.082a.366.366 0 0 0-.347.367.365.365 0 0 0 .363.364c.2 0 .36-.153.367-.344a.892.892 0 0 0-.3-.805s-.317-.336-.829-.226c0 0 .485-.64.532-1.176 0 0 0-.09.035-.207-.141-.05-.278-.106-.422-.16-.031.527-.192 1.496-.914 1.23l.77-1.289c-.294-.113-.583-.23-.864-.355a.538.538 0 0 1-.078-.032c.043.22.11.766-.184 1.086 0 0-.363.344-.988-.148 0 0 .832-.7 1.086-.969a1.977 1.977 0 0 0-.68-.152h-.23c-.016.012-.035.023-.047.035 0 0-.547.398-.914.555 0 0-.113.07-.219-.047 0 0-.68-.79-.152-1.63 0 0 .308-.745.968-.585 0 0 .188 0 .297.258 0 0-.632.027-.562.472 0 0 .008.461.582.43 0 0 .793-.078.605-1.039 0 0-.136-.578-.59-.578 0 0 .258-.317.07-.442 0 0-.187-.183-.612.118 0 0-.11.21-.625.097 0 0-.344-.14-.536.121 0 0-.086.036-.086.41 0 0 .04.141-.195.528 0 0-.125.258-.148.68a1.168 1.168 0 0 0-.528-.246c-.261-.27-.28-1.543-.554-2.157-.063-.144.125-.789.125-1.48a3.704 3.704 0 0 0 2.836-2.516c.3-1.058-.098-2.133-.145-2.418-.004-.039.031-.039.047 0 .086.16.156.328.21.496.923.07 1.556-.074 2-.242.024-.008.048-.02.071-.023a1.631 1.631 0 0 1 .094-.04c.082-.035.152-.07.227-.105a.685.685 0 0 0 .078-.043c1.336-.687 1.945-1.797 2.312-2.426-.187-.043-.765-.222-.957-.515.492.043.867.25 1.36.25.722.008 1.21-.399 2.007-.301 0 .04.106.379.621.586.016.457.047.844.188 1.207.039.11.066.148.066.148s-.601.461-.441.856l.117.297a.319.319 0 0 1-.082-.012c-.09-.039-.195.117-.328.324-.066.11-.387.762-.149.82.051.012.098.012.153.016-.13.676-.117 1.563.441 2.383l.004.008c.035.062.899 1.476 3.227 1.476h.035c.23 0 2.277.043 3.004 1.403.043.078.207.304.383.304.18 0 .34-.226.382-.304.73-1.36 2.774-1.403 3.008-1.403h.031c2.329 0 3.196-1.414 3.23-1.476v-.008a2.85 2.85 0 0 0 .485-1.258c.453-.25.43-1.281.434-1.465.129.184.398.696.965.832-.09.485-.063 1.286.46 1.391.16.02.294-.219.255-.402.449 1.285.074 2.078.41 2.172.437.007.457-.758.492-.782.039.07.18.301.187.649.008.398-.05.793.13.863.597.098.316-1.656.78-1.48-.117.777 0 1.218.32 1.343-.01.356-.046.703-.198.703-.864.192-1.649-.492-2.403-.289-.05-.03-.078-.05-.078-.05-1.387-.743-2.258-.176-2.347-.254-.387-.356-.536.183-.649.12-.726-.413-1.125.282-1.316.317-.168.024-.48-.363-.813.453-.152.36-.957.516-1.023.535-.324.04-.399-.183-.399-.183a1.595 1.595 0 0 0-.093-.238.674.674 0 0 0-.118-.16.41.41 0 0 0-.328-.11.463.463 0 0 0-.43.457c0 .102.036.2.094.281.028.02.098-.086.203-.078.18.008.32.145.32.32v.008c.024.367-.538.739-.538.739-.325.289-.73-.114-.73-.114-.235-.183-.387-.199-.387-.199-.235.008-.344.258-.344.258s-.11-.25-.348-.258c0 0-.152.016-.387.2 0 0-.406.402-.73.113 0 0-.563-.371-.54-.739v-.008c0-.175.145-.312.321-.32.106-.008.18.098.203.078a.486.486 0 0 0 .094-.28.463.463 0 0 0-.43-.458.398.398 0 0 0-.324.11.582.582 0 0 0-.117.16 1.254 1.254 0 0 0-.098.238s-.074.222-.398.183c-.067-.02-.875-.175-1.024-.535-.336-.816-.644-.43-.812-.453-.191-.035-.586-.73-1.316-.316-.114.062-.258-.477-.649-.121-.074.066-.762-.356-1.867.043-.067-.13-.418-.196-.512-.235-.23-.062-.43-.242-.57-.312-.313-.16-.817-.059-1.172-.102a1.495 1.495 0 0 1-.453-.164c-.461-.285-.98-.633-1.274-1.039-.05-.07-.164-.23-.187-.254-.137-.176-.211-.308-.316-.605-.16-.563.082-1.168.168-1.743.039-.269.046-.382.058-.543-.445.114-1.023.122-1.734-.074.18.606.21 1.246.144 1.746.278.211.442.551.461.715.028.29-.105.59.063.82.25.344.8.66 1.14.891.114.074 1.672 1.278 1.88 1.324.218.043.359-.12.554-.09.062.016.117.067.168.11 0 0 .129.14.328.266-.477.293-1.07.652-1.504.867 0 0-.703.386-.371.39 0 0 .492-.015.535.09 0 0-.207.082-.523.219.738.266 1.488.504 2.254.711.488-.48 1.117-1 1.726-1.227 0 0 .88.035 1.164-.605.094-.2.465.371 1.235-.055.07-.043.187.164.406.223.07.02-.317.078-.238.418.015.043-.63.004-.836.363-.063.102-1.43.07-2.633 1.094.226.055.453.11.683.16.403-.305.887-.512 1.446-.477 0 0 .742.047 1.054.93.465.063.938.121 1.41.172-.007-.004-.011-.008-.015-.008.129-.058.777-.375.488-.758 0 0-.156-.199-.426.059 0 0-.171.156-.246-.086 0 0-.02-.14-.09-.254 0 0-.132-.191.13-.101 0 0 .234.07.452.043a.441.441 0 0 0 .415-.442c0-.246-.172-.473-.418-.473-.008 0-.051.008-.051.032a.17.17 0 0 1 .062.125c0 .09-.074.183-.16.16-.265-.07-.191-.59.172-.61 0 0 .324.02.594.34 0 0 .617.926 1.187 1.121.04.016-.101.336.258.45.047.007-.008.285.367.257.008 0 .082.13.168.325.325.004.649.011.98.011.325 0 .653-.007.981-.011.086-.196.156-.325.168-.325.371.028.32-.25.363-.257.364-.114.22-.434.262-.45.567-.195 1.188-1.12 1.188-1.12.27-.32.586-.34.586-.34.367.02.445.539.18.609-.087.023-.16-.07-.16-.16 0-.051.023-.094.058-.125-.004-.024-.047-.032-.051-.032-.242 0-.414.227-.414.473 0 .238.18.426.41.442.219.027.457-.043.457-.043.254-.09.125.101.125.101a.663.663 0 0 0-.09.254c-.07.242-.242.086-.242.086-.273-.258-.426-.059-.426-.059-.293.383.356.7.485.758-.004 0-.008.004-.012.008a53.179 53.179 0 0 0 1.406-.172c.309-.883 1.05-.93 1.05-.93.563-.035 1.048.172 1.45.477.23-.05.461-.105.688-.16-1.207-1.024-2.575-.992-2.637-1.094-.203-.36-.852-.32-.836-.363.078-.34-.309-.399-.238-.418.219-.059.336-.266.41-.223.77.426 1.14-.144 1.226.055.29.64 1.168.605 1.168.605.61.227 1.239.746 1.727 1.227.703-.188 1.39-.406 2.066-.645-.004-.007-.007-.02-.011-.023-.008-.039-.024-.074-.035-.113l-.016-.036-.004-.003a2.03 2.03 0 0 0-.098-.18c-.18-.293-.437-.59-.52-.688h-.003a.236.236 0 0 1-.027-.03c-.004 0 .504-.774.824-.247.027.066-.031.25-.348.25 0 0 .371.582.461.98.008 0 .008-.003.012-.003.16-.059.27-.094.328-.11.027-.011.059-.015.09-.02-.2-.39-.496-.613-.414-.741.078-.036.359.105.515-.13.04-.054.078-.34.11-.64.203.11.433.113.508.117.519-.012.718-.8.578-1.058.074-.047.383-.301.41-.23.164.37 1.012.769.937-.071.137.406.239.87.711.836.344-.086.121-.668.242-.668.102.168.246.84.754.676.157-.059.278-.172.278-.399.03-.644-1.82-4.023-1.985-5.488-.031-.012-.058-.02-.09-.031-.175-.094-.195-.387-.164-.598a.115.115 0 0 1 .008-.039c-.222-.043-.574-.238-.629-.856 0-.554.246-.828.297-.828.02 0 .028.035.016.055-.14.434-.242.957.078 1.246.066.055.18.113.32.125.098-.184.227-.277.254-.277.02.004.016.031.008.043-.172.3-.164.715-.008.902a.555.555 0 0 0 .34.152c.516-.183.777-1.168.89-1.476.344.074-.554 2.058.137 2.48.285-.023.446-.347.551-.64.223.586-.726 1.816-.043 2.093.418.106.574-.972.582-.832.121 1.645-.742 2.438-.191 2.692.465.219.625-1.121.625-.953-.012 1.754-.895 2.242-.516 2.55.43.172.742-.89.735-.636-.04 1.566-.825 1.984-.477 2.48.406.57 1.16-1.023 1.2-.726.042.37-.856 2.187-.34 2.312.44.11.585-.512.624-.644 1.352-4.52 1.403-8.914 1.313-10.395m22.73 104.527c-.894.403-1.582.59-2.398.59-1.973 0-2.985-1.375-2.985-3.476 0-2.016 1.012-3.348 3.075-3.348 1 0 1.66.242 2.18.578l-.54.98c-.375-.253-.953-.421-1.62-.421-1.2 0-1.74.875-1.74 2.191 0 1.559.579 2.395 1.72 2.395.422 0 .804-.059 1.12-.207v-1.227h-.905l-.079-.953h2.172zm4.051-1.925c0-1.157-.344-1.559-.941-1.559-.602 0-.934.41-.934 1.559 0 1.12.305 1.57.934 1.57s.941-.422.941-1.57m1.316 0c0 1.64-.824 2.515-2.257 2.515-1.446 0-2.258-.863-2.258-2.515 0-1.414.785-2.493 2.258-2.493 1.453 0 2.257 1.078 2.257 2.493m2.235 1.082c.199.265.531.492.875.492.558 0 .973-.414.973-1.574 0-1.149-.364-1.551-.954-1.551-.324 0-.675.168-.894.383zm-.086-2.985c.215-.297.734-.59 1.277-.59 1.13 0 1.942.805 1.942 2.493 0 1.66-.98 2.515-2.102 2.515-.687 0-1.09-.265-1.39-.68l-.239.583h-.687v-6.778h1.285v1.68zm4.543-2.457h1.297v1.168H85.59zm.039 6.778v-3.891l-.559-.117v-.805h1.836v4.813zm4.445-3.97c-.636 0-.902.579-.902 1.15h1.758c0-.618-.188-1.15-.856-1.15m-.902 1.907c0 .766.434 1.188 1.238 1.188.492 0 .992-.188 1.414-.403l.246.903c-.402.214-1.062.472-1.816.472-1.484 0-2.367-.926-2.367-2.515 0-1.48.715-2.493 2.258-2.493 1.453 0 2.023 1.078 2.023 2.29v.558zm6.695-1.68a2.101 2.101 0 0 0-.601-.078c-.34 0-.645.145-.864.325v3.496H93.13v-4.813h.89l.141.649h.028a1.29 1.29 0 0 1 1.148-.739c.258 0 .453.04.563.07zm3.758 3.743v-2.86c0-.726-.273-1.07-.863-1.07-.336 0-.621.148-.844.297v3.633h-1.285v-4.813h.883l.195.55c.273-.323.805-.648 1.523-.648 1.215 0 1.7.715 1.7 1.934v2.977zm5.36-2.418c0-1.157-.344-1.559-.942-1.559-.602 0-.934.41-.934 1.559 0 1.12.305 1.57.934 1.57.625 0 .941-.422.941-1.57m1.317 0c0 1.64-.824 2.515-2.258 2.515-1.445 0-2.262-.863-2.262-2.515 0-1.414.79-2.493 2.262-2.493 1.453 0 2.258 1.078 2.258 2.493m6.113-1.293a1.675 1.675 0 0 0-.871-.239c-.61 0-.992.414-.992 1.532 0 1.148.36 1.582.969 1.582.324 0 .652-.157.894-.41zm.117-.73a2.962 2.962 0 0 1-.117-.884v-1.453h1.277v6.778h-1.043l-.144-.532c-.195.293-.66.63-1.277.63-1.09 0-1.965-.786-1.965-2.505 0-1.59.906-2.504 2.074-2.504.52 0 .93.176 1.195.47m4.32.472c-.64 0-.906.578-.906 1.148h1.762c0-.617-.187-1.148-.855-1.148m-.907 1.906c0 .766.434 1.188 1.239 1.188.492 0 .992-.188 1.414-.403l.246.903c-.403.214-1.059.472-1.817.472-1.484 0-2.367-.926-2.367-2.515 0-1.48.719-2.493 2.262-2.493 1.45 0 2.02 1.078 2.02 2.29v.558zm8.844 2.16c-1.863 0-2.867-1.238-2.867-3.445 0-2.066.992-3.379 2.867-3.379.906 0 1.719.195 2.258.559l-.488 1.039c-.344-.266-.942-.461-1.63-.461-1.1 0-1.652.777-1.652 2.23 0 1.531.551 2.317 1.633 2.317.649 0 1.293-.274 1.746-.606l.414 1.04a3.956 3.956 0 0 1-2.28.706m3.14-.097v-6.778h1.285v1.778c0 .336-.067.597-.125.746a1.712 1.712 0 0 1 1.383-.657c1.375 0 1.758.715 1.758 1.934v2.977h-1.305v-2.868c0-.687-.278-1.062-.856-1.062-.332 0-.636.137-.855.297v3.633zm5.691-6.778h1.297v1.168h-1.297zm.04 6.778v-3.891l-.56-.117v-.805h1.837v4.813zm2.456-1.278v-5.5h1.266v5.43c0 .402.242.465.777.465v.902s-.375.078-.71.078c-.981 0-1.333-.52-1.333-1.375m4.879-2.691c-.64 0-.906.578-.906 1.148h1.758c0-.617-.188-1.148-.852-1.148m-.906 1.906c0 .766.433 1.188 1.238 1.188.492 0 .992-.188 1.414-.403l.246.903c-.402.214-1.062.472-1.816.472-1.484 0-2.367-.926-2.367-2.515 0-1.48.718-2.493 2.258-2.493 1.453 0 2.023 1.078 2.023 2.29v.558zM71.602 7.944h-1.079v5.512c.278.086.825.172 1.407.172 1.066 0 1.926-.618 1.926-2.97 0-1.976-.618-2.714-2.254-2.714m.242 7.016c-1.188 0-2.156-.22-2.906-.438V6.659h2.726c2.371 0 3.875.969 3.875 4.012 0 2.652-1.152 4.289-3.695 4.289m5.308-8.301h1.586v8.18h-1.586zm5.742 1.238h-.8v2.617h.8c1.043 0 1.477-.472 1.477-1.406 0-.91-.52-1.211-1.476-1.211m-.801 6.941h-1.575v-8.18h2.63c1.613 0 2.921.755 2.921 2.462 0 1.101-.632 1.926-1.55 2.351.566 1.137 1.16 2.227 1.73 3.367h-1.867l-1.344-3.09c-.363.012-.605.012-.945.012zm5.261 0v-8.18h5.028v1.348H88.94v2.008h2.63l-.122 1.407H88.94v2.097h3.442v1.32zm9.305.121c-2.305 0-3.539-1.527-3.539-4.253 0-2.543 1.223-4.168 3.54-4.168 1.112 0 2.12.242 2.784.691l-.605 1.285c-.426-.328-1.164-.57-2.012-.57-1.355 0-2.035.957-2.035 2.75 0 1.89.68 2.86 2.012 2.86.8 0 1.597-.34 2.156-.75l.508 1.284a4.84 4.84 0 0 1-2.809.872m6.942-7.051c-1.43 0-1.805 1.297-1.805 2.762 0 1.625.363 2.957 1.805 2.957 1.406 0 1.816-1.31 1.816-2.957 0-1.493-.387-2.762-1.816-2.762m0 7.05c-2.7 0-3.477-2.046-3.477-4.277 0-2.144.75-4.144 3.477-4.144 2.777 0 3.503 1.976 3.503 4.144 0 2.192-.8 4.278-3.504 4.278m8.762-.122l-2.547-6.433h-.047l.11 6.433h-1.43v-8.18h2.438l2.578 6.567h.047l-.11-6.566h1.47v8.18zM73.41 26.956l-.113-4.602h-.031c-.098.582-.192 1-.266 1.317l-.777 3.285h-1.555l-.742-3.285a24.446 24.446 0 0 1-.278-1.317h-.03l-.071 4.602h-.969l.207-5.45h1.817s.597 2.747.914 4.504h.023c.363-1.75 1.074-4.504 1.074-4.504h1.785l.207 5.45zm2.281-5.57h1.067v.96H75.69zm.036 5.57v-3.2l-.461-.093v-.664h1.507v3.957zm4.343 0v-2.352c0-.594-.226-.879-.71-.879-.274 0-.508.121-.696.242v2.989h-1.058v-3.957h.726l.164.453c.227-.266.66-.532 1.25-.532 1 0 1.399.586 1.399 1.59v2.446zm2.11-5.57h1.062v.96H82.18zm.03 5.57v-3.2l-.456-.093v-.664h1.508v3.957zm2.806-2.914c0 .613 1.71.425 1.71 1.718 0 .72-.535 1.274-1.558 1.274-.477 0-.922-.137-1.188-.29l.22-.734c.183.13.573.274.937.274.343 0 .578-.192.578-.434 0-.71-1.688-.476-1.688-1.824 0-.582.446-1.106 1.512-1.106.41 0 .84.079 1.113.192l-.144.77a2.359 2.359 0 0 0-.953-.204c-.364 0-.54.137-.54.364m3.883 2.992c-.703 0-1.16-.328-1.16-1.325v-1.96h-.59v-.75h.59v-.684l1.04-.34V23h1.058v.75h-1.059v1.937c0 .277.137.453.422.453.215 0 .442-.062.606-.144l.16.773a2.272 2.272 0 0 1-1.067.266m3.07-3.34c-.527 0-.741.476-.741.945h1.445c0-.512-.156-.945-.703-.945m-.742 1.566c0 .63.355.977 1.015.977.403 0 .817-.153 1.164-.332l.2.742c-.329.18-.872.387-1.493.387-1.218 0-1.945-.758-1.945-2.067 0-1.218.59-2.05 1.855-2.05 1.196 0 1.665.89 1.665 1.882v.461zm5.386-1.379a1.713 1.713 0 0 0-.496-.066c-.281 0-.531.121-.707.266v2.875h-1.05V23h.734l.113.535h.024c.12-.285.476-.606.945-.606.21 0 .37.031.46.055zm.809-2.496h1.062v.961h-1.062zm.031 5.57v-3.199l-.46-.093V23h1.51v3.957zm4.36-1.988c0-.949-.282-1.28-.774-1.28-.492 0-.77.339-.77 1.28 0 .922.25 1.293.77 1.293.516 0 .774-.347.774-1.293m1.081 0c0 1.348-.68 2.067-1.855 2.067-1.187 0-1.86-.707-1.86-2.067 0-1.16.65-2.047 1.86-2.047 1.195 0 1.855.887 1.855 2.047m4.793-1.062a1.418 1.418 0 0 0-.718-.196c-.5 0-.817.34-.817 1.258 0 .946.297 1.301.801 1.301.266 0 .531-.129.734-.34zm.094-.598a2.524 2.524 0 0 1-.094-.726v-1.196h1.047v5.57h-.855l-.121-.437c-.16.242-.54.516-1.047.516-.899 0-1.617-.645-1.617-2.055 0-1.309.742-2.062 1.703-2.062.43 0 .77.148.984.39m3.434.387c-.524 0-.742.476-.742.945h1.445c0-.512-.152-.945-.703-.945m-.742 1.566c0 .63.355.977 1.02.977.402 0 .812-.153 1.16-.332l.203.742c-.332.18-.872.387-1.497.387-1.214 0-1.941-.758-1.941-2.067 0-1.218.586-2.05 1.855-2.05 1.196 0 1.66.89 1.66 1.882v.461zM70.266 30.41h-.535v1.742h.535c.691 0 .984-.317.984-.938 0-.605-.348-.804-.984-.804m-.535 4.625h-1.047v-5.45h1.75c1.074 0 1.945.5 1.945 1.637 0 .735-.422 1.285-1.035 1.567.383.757.777 1.484 1.156 2.246h-1.242l-.899-2.059c-.242.008-.402.008-.629.008zm4.695-3.262c-.528 0-.746.477-.746.945h1.445c0-.511-.152-.945-.7-.945m-.745 1.566c0 .63.355.977 1.02.977.402 0 .816-.152 1.16-.332l.203.742a3.22 3.22 0 0 1-1.493.387c-1.218 0-1.945-.758-1.945-2.067 0-1.218.59-2.05 1.856-2.05 1.195 0 1.664.89 1.664 1.882v.461zm3.152.645v-4.52h1.043v4.461c0 .332.2.383.637.383v.742s-.309.063-.582.063c-.805 0-1.098-.426-1.098-1.13m4.387-.679h-.656c-.434 0-.637.211-.637.512 0 .363.195.578.59.578.25 0 .507-.113.703-.266zm.297 1.73l-.145-.468c-.203.273-.598.547-1.156.547-.79 0-1.32-.508-1.32-1.266 0-.734.539-1.172 1.492-1.172h.832v-.199c0-.512-.293-.672-.696-.672a2.88 2.88 0 0 0-1.187.266l-.266-.75a4.02 4.02 0 0 1 1.559-.324c1.121 0 1.605.52 1.605 1.527v2.512zm4.668-.269a3.06 3.06 0 0 1-1.356.348c-1.18 0-1.89-.668-1.89-2.059 0-1.289.71-2.058 1.882-2.058.524 0 .977.105 1.356.324l-.274.719c-.28-.172-.644-.242-.992-.242-.55 0-.898.37-.898 1.257 0 .899.332 1.262.906 1.262.41 0 .813-.156 1.074-.3zm.875-5.3h1.066v.96h-1.066zm.03 5.57v-3.2l-.456-.093v-.664h1.508v3.957zm4.364-1.988c0-.95-.285-1.282-.777-1.282-.492 0-.766.34-.766 1.281 0 .922.25 1.293.766 1.293s.777-.347.777-1.293m1.082 0c0 1.348-.68 2.067-1.86 2.067-1.187 0-1.855-.711-1.855-2.067 0-1.16.645-2.05 1.856-2.05 1.195 0 1.86.89 1.86 2.05m3.124 1.989v-2.352c0-.598-.226-.879-.71-.879-.274 0-.509.121-.696.242v2.989h-1.059v-3.957h.727l.164.453c.227-.266.66-.535 1.25-.535 1 0 1.398.59 1.398 1.59v2.449zm3.465-3.262c-.523 0-.742.477-.742.945h1.445c0-.511-.152-.945-.703-.945m-.742 1.566c0 .63.355.977 1.015.977.407 0 .817-.152 1.165-.332l.203.742a3.23 3.23 0 0 1-1.493.387c-1.222 0-1.949-.758-1.949-2.067 0-1.218.59-2.05 1.86-2.05 1.191 0 1.66.89 1.66 1.882v.461zm4.055-1.218c0 .613 1.71.426 1.71 1.718 0 .72-.53 1.274-1.558 1.274-.477 0-.918-.137-1.184-.29l.215-.734c.188.13.574.274.938.274.347 0 .582-.195.582-.438 0-.707-1.688-.472-1.688-1.82 0-.582.445-1.11 1.508-1.11.414 0 .84.083 1.117.196l-.148.766a2.358 2.358 0 0 0-.953-.2c-.36 0-.54.137-.54.364m4.137 2.914v-5.45h3.352v.895h-2.293v1.34h1.75l-.082.937h-1.668v1.395h2.293v.883zm5.258-1.254l-.695 1.254H110l1.371-2.082-1.289-1.875h1.395l.566 1.129.555-1.13h1.148l-1.227 1.997 1.313 1.96h-1.34zm3.91 1.332c-.703 0-1.164-.328-1.164-1.324v-1.961h-.59v-.75h.59v-.688l1.043-.336v1.024h1.059v.75h-1.059v1.937c0 .278.137.453.418.453.219 0 .445-.066.606-.144l.164.773a2.285 2.285 0 0 1-1.067.266m3.07-3.34c-.527 0-.745.477-.745.945h1.445c0-.511-.153-.945-.7-.945m-.745 1.566c0 .63.355.977 1.019.977.402 0 .816-.152 1.16-.332l.203.742a3.22 3.22 0 0 1-1.492.387c-1.219 0-1.945-.758-1.945-2.067 0-1.218.59-2.05 1.855-2.05 1.196 0 1.664.89 1.664 1.882v.461zm5.39-1.382a1.871 1.871 0 0 0-.496-.063c-.281 0-.531.121-.707.266v2.875h-1.05v-3.957h.734l.113.535h.023a1.06 1.06 0 0 1 .946-.61c.21 0 .37.036.46.06zm.809-2.493h1.062v.961h-1.062zm.03 5.57v-3.199l-.46-.093v-.664h1.512v3.957zm4.36-1.988c0-.949-.281-1.28-.773-1.28s-.77.34-.77 1.28c0 .922.25 1.293.77 1.293.515 0 .773-.347.773-1.293m1.082 0c0 1.348-.68 2.067-1.855 2.067-1.188 0-1.86-.711-1.86-2.067 0-1.16.649-2.05 1.86-2.05 1.195 0 1.855.89 1.855 2.05m2.918-1.09a1.842 1.842 0 0 0-.492-.062c-.285 0-.535.121-.71.266v2.875h-1.052v-3.957h.735l.113.535h.023a1.06 1.06 0 0 1 .946-.61c.21 0 .37.036.46.06zm1.965-.183c-.527 0-.746.477-.746.945h1.445c0-.511-.152-.945-.699-.945m-.746 1.566c0 .63.356.977 1.02.977.402 0 .816-.152 1.16-.332l.203.742a3.22 3.22 0 0 1-1.492.387c-1.22 0-1.946-.758-1.946-2.067 0-1.218.59-2.05 1.856-2.05 1.195 0 1.664.89 1.664 1.882v.461zm4.055-1.218c0 .613 1.71.425 1.71 1.718 0 .72-.53 1.274-1.554 1.274-.477 0-.922-.137-1.188-.29l.215-.734c.188.13.575.274.938.274.347 0 .582-.195.582-.438 0-.707-1.688-.472-1.688-1.82 0-.582.446-1.11 1.512-1.11.41 0 .84.083 1.113.196l-.144.766c-.27-.121-.606-.2-.953-.2-.364 0-.543.137-.543.364"/>
</svg>