<?xml version="1.0" encoding="UTF-8" standalone="no"?>
<svg xmlns="http://www.w3.org/2000/svg" width="200" height="120">
  <path fill="#fff" d="M182 35.2a6 6 0 0 0-4.4-1.8c-1.8 0-3.3.6-4.5 1.8a6.3 6.3 0 0 0-1.7 4.5c0 1.8.6 3.3 1.7 4.5a5.8 5.8 0 0 0 4.4 1.7c1.8 0 3.3-.6 4.5-1.7a6 6 0 0 0 1.8-4.5c0-1.8-.6-3.3-1.8-4.5M33.8 69.5c-2.7 2.5-6 3.8-10 3.8-3.9 0-7.1-1.2-9.7-3.7-2.7-2.5-4-5.6-4-9.3 0-3.9 1.3-7 4-9.5a14 14 0 0 1 10-3.7c3.8 0 7 1.2 9.7 3.7v.1-5.6c-4.1-1.9-8-2.8-11.3-2.8A17.3 17.3 0 0 0 5 60.3a17.6 17.6 0 0 0 8.2 15.2c2.5 1.5 5.6 2.3 9.2 2.3 4.5 0 8.4-1 11.8-3v-5.7l-.4.4m122.1 0a11.3 11.3 0 0 1-8.7 3.8c-3.4 0-6.3-1.2-8.6-3.7a13.1 13.1 0 0 1-3.5-9.3c0-3.9 1.2-7 3.5-9.5s5.2-3.7 8.8-3.7c3.3 0 6.2 1.2 8.5 3.7a13 13 0 0 1 3.5 9.3c0 3.7-1.2 6.9-3.5 9.4m3.8-22c-3.3-3.4-7.5-5-12.5-5s-9.2 1.6-12.4 5c-3.3 3.4-5 7.6-5 12.8 0 5 1.7 9.2 5 12.5 3.2 3.3 7.2 5 12.1 5 5.1 0 9.4-1.7 12.7-5a17 17 0 0 0 5-12.6c0-5.1-1.6-9.3-5-12.7m-95 22a11.3 11.3 0 0 1-8.7 3.8 11 11 0 0 1-8.6-3.7 13.1 13.1 0 0 1-3.5-9.3c0-3.9 1.1-7 3.4-9.5s5.3-3.7 8.8-3.7c3.4 0 6.3 1.2 8.6 3.7a13 13 0 0 1 3.5 9.3c0 3.7-1.2 6.9-3.5 9.4m3.8-22c-3.4-3.4-7.5-5-12.6-5-5 0-9.1 1.6-12.4 5a17.5 17.5 0 0 0-4.9 12.8 17 17 0 0 0 17.1 17.5c5.1 0 9.3-1.7 12.7-5a17 17 0 0 0 5-12.6c0-5.1-1.6-9.3-5-12.7m39.6-4.6h17.3v4.9H113v8.7h12.2v4.8H113v16.1h-5zM90.1 57c-.8.4-2.6.6-4.7.6h-1.6v-9.9H85c2.1 0 3.9.2 4.8.5a4 4 0 0 1 2 1.7c.6.8.8 1.7.8 2.7a5 5 0 0 1-.7 2.7c-.4.8-1 1.4-1.8 1.7M102 75c-.7-1-1.6-2.4-2.7-4.4A60 60 0 0 0 95 64c-1-1.3-2-2.3-3-3a9.3 9.3 0 0 0 4.3-3.3c1-1.4 1.4-3.2 1.4-5.2 0-3-1-5.2-2.9-7a12 12 0 0 0-8-2.6h-8.2v34.5h5v-15h.4a7 7 0 0 1 3.3.6c.6.3 1.3 1 2.1 1.8s1.7 2 2.7 3.3l1.5 2.7 1.4 2.5 1 1.4.2.4 1.4 2.3h6zm63.2 2.9A31.3 31.3 0 0 0 195 45.6c0-8.5-2.4-15.8-7.6-21.6a1 1 0 0 0-.7-.3.8.8 0 0 0-.8 1.1c3.9 10.3 1.6 20.6-5.1 23.3-4.7 2-10.5-.4-15-5.4a.9.9 0 0 0-1.2 0 1 1 0 0 0-.1 1.2c4 4.5 6 10 6 16.3 0 6.4-2 11.8-6 16.1l-.2.6c0 .5.4.9.9.9"/>
</svg>