<?xml version="1.0" encoding="UTF-8" standalone="no"?>
<svg width="110px" height="31px" viewBox="0 0 110 31" version="1.1" xmlns="http://www.w3.org/2000/svg" xmlns:xlink="http://www.w3.org/1999/xlink">
    <!-- Generator: Sketch 42 (36781) - http://www.bohemiancoding.com/sketch -->
    <title>logo-corfo</title>
    <desc>Created with Sketch.</desc>
    <defs>
        <polygon id="path-1" points="42.9999 31 57.4299 31 57.4299 11.0004 42.9999 11.0004 42.9999 31"></polygon>
        <polygon id="path-3" points="92.5718 5.68434189e-14 110 5.68434189e-14 110 31 92.5718 31 92.5718 0"></polygon>
        <polygon id="path-5" points="92.7834 31 72.5844 31 72.5844 10.6442 92.7834 10.6442 92.7834 31"></polygon>
        <polygon id="path-7" points="17.0466086 31 0.2308 31 0.2308 10.6722 17.0466086 10.6722 17.0466086 31"></polygon>
        <polygon id="path-9" points="39.8407 31 19.6427 31 19.6427 10.6442 39.8407 10.6442 39.8407 31"></polygon>
    </defs>
    <g id="Symbols" stroke="none" stroke-width="1" fill="none" fill-rule="evenodd">
        <g id="logo-corfo">
            <path d="M87.7054,26.3322 C86.3584,27.7952 84.6784,28.5282 82.6644,28.5282 C80.6604,28.5282 78.9904,27.8092 77.6564,26.3752 C76.3224,24.9402 75.6564,23.1422 75.6564,20.9812 C75.6564,18.7532 76.3204,16.9212 77.6504,15.4872 C78.9804,14.0532 80.6774,13.3352 82.7424,13.3352 C84.7034,13.3352 86.3584,14.0602 87.7054,15.5082 C89.0524,16.9582 89.7254,18.7442 89.7254,20.8672 C89.7254,23.0472 89.0524,24.8682 87.7054,26.3322 M89.8864,13.5742 C87.9564,11.6212 85.5394,10.6442 82.6364,10.6442 C79.7344,10.6442 77.3324,11.6212 75.4334,13.5742 C73.5344,15.5292 72.5844,17.9992 72.5844,20.9812 C72.5844,23.8892 73.5274,26.3072 75.4134,28.2382 C77.2994,30.1672 79.6584,31.1322 82.4884,31.1322 C85.4544,31.1322 87.9114,30.1672 89.8604,28.2382 C91.8084,26.3072 92.7834,23.8682 92.7834,20.9252 C92.7834,17.9772 91.8174,15.5292 89.8864,13.5742" id="Fill-421" fill="#FFFFFF"></path>
            <path d="M16.8898,26.3322 C15.3588,27.7952 13.4498,28.5282 11.1618,28.5282 C8.8828,28.5282 6.9858,27.8092 5.4708,26.3752 C3.9548,24.9402 3.1968,23.1422 3.1968,20.9812 C3.1968,18.7532 3.9518,16.9212 5.4628,15.4872 C6.9738,14.0532 8.9028,13.3352 11.2498,13.3352 C13.4788,13.3352 15.3898,14.0602 16.9208,15.5082 C16.9378,15.5252 16.9998,15.5402 16.9998,15.5572 L16.9998,15.3912 L16.9998,12.6042 L16.9998,12.3162 C13.9998,11.2202 12.3658,10.6722 10.3928,10.6722 C7.5338,10.6722 5.1128,11.6642 3.1628,13.6472 C1.2128,15.6292 0.2308,18.0742 0.2308,20.9812 C0.2308,22.8112 0.6528,24.5122 1.5038,26.0842 C2.3558,27.6582 3.5098,28.8932 4.9718,29.7892 C6.4318,30.6852 8.1418,31.1322 10.2388,31.1322 C12.8218,31.1322 14.9998,30.5612 16.9998,29.4162 L16.9998,29.1332 L16.9998,26.2712 L16.9998,26.0912 C16.9998,26.0912 17.0538,26.1002 17.0458,26.1052 C16.9718,26.1812 16.9668,26.2582 16.8898,26.3322" id="Fill-424" fill="#FFFFFF"></path>
            <path d="M102.8261,6.4237 C102.1391,5.7287 101.2791,5.3807 100.2461,5.3807 C99.2131,5.3807 98.3591,5.7287 97.6841,6.4237 C97.0071,7.1197 96.6701,7.9977 96.6701,9.0587 C96.6701,10.0937 97.0051,10.9527 97.6761,11.6407 C98.3481,12.3277 99.1871,12.6707 100.1941,12.6707 C101.2491,12.6707 102.1231,12.3277 102.8171,11.6407 C103.5101,10.9527 103.8571,10.0867 103.8571,9.0387 C103.8571,7.9907 103.5131,7.1197 102.8261,6.4237" id="Fill-427" fill="#FFFFFF"></path>
            <path d="M34.7627,26.3322 C33.4157,27.7952 31.7357,28.5282 29.7217,28.5282 C27.7177,28.5282 26.0477,27.8092 24.7147,26.3752 C23.3807,24.9402 22.7137,23.1422 22.7137,20.9812 C22.7137,18.7532 23.3787,16.9212 24.7077,15.4872 C26.0377,14.0532 27.7347,13.3352 29.7997,13.3352 C31.7617,13.3352 33.4157,14.0602 34.7627,15.5082 C36.1097,16.9582 36.7827,18.7442 36.7827,20.8672 C36.7827,23.0472 36.1097,24.8682 34.7627,26.3322 M36.9447,13.5742 C35.0147,11.6212 32.5977,10.6442 29.6947,10.6442 C26.7917,10.6442 24.3907,11.6212 22.4917,13.5742 C20.5917,15.5292 19.6427,17.9992 19.6427,20.9812 C19.6427,23.8892 20.5857,26.3072 22.4717,28.2382 C24.3567,30.1672 26.7157,31.1322 29.5467,31.1322 C32.5127,31.1322 34.9687,30.1672 36.9187,28.2382 C38.8667,26.3072 39.8407,23.8682 39.8407,20.9252 C39.8407,17.9772 38.8757,15.5292 36.9447,13.5742" id="Fill-418" fill="#FFFFFF"></path>
            <path d="M49.5399,18.8544 C49.0789,19.0804 48.0499,19.0004 46.8079,19.0004 L45.9999,19.0004 L45.9999,14.0004 L46.6119,14.0004 C47.8129,14.0004 48.8489,13.9154 49.3689,14.1064 C49.8879,14.2974 50.2899,14.5354 50.5749,15.0004 C50.8619,15.4654 51.0049,15.9394 51.0049,16.5124 C51.0049,17.0954 50.8769,17.4954 50.6189,17.9514 C50.3609,18.4074 50.0009,18.6284 49.5399,18.8544 L49.5399,18.8544 Z M56.4349,29.5224 C56.0399,28.9494 55.5159,28.0734 54.8609,26.9384 C53.8209,25.1364 53.0149,23.8624 52.4409,23.1374 C51.8669,22.4144 51.2799,21.8354 50.6799,21.4154 C51.7009,20.9964 52.6619,20.3604 53.2079,19.5124 C53.7549,18.6624 54.0289,17.6564 54.0289,16.4934 C54.0289,14.7874 53.4709,13.4684 52.3539,12.4674 C51.2389,11.4674 49.5529,11.0004 47.6539,11.0004 L42.9999,11.0004 L42.9999,31.0004 L45.9999,31.0004 L45.9999,22.0004 L46.0849,22.0004 C46.9649,22.0004 47.5909,22.2124 47.9639,22.4264 C48.3359,22.6414 48.7529,23.0434 49.2159,23.5284 C49.6779,24.0134 50.1859,24.6924 50.7409,25.5134 L51.6409,27.0864 L52.4739,28.5514 L52.9979,29.3404 C53.0779,29.4554 53.1319,29.5864 53.1589,29.6344 L53.9779,31.0004 L57.4299,31.0004 L56.4349,29.5224 Z" id="Fill-413" fill="#FFFFFF"></path>
            <polygon id="Fill-416" fill="#FFFFFF" points="60 11 70 11 70 14 63 14 63 19 70 19 70 22 63 22 63 31 60 31"></polygon>
            <mask id="mask-2" fill="white">
                <use xlink:href="#path-1"></use>
            </mask>
            <g id="Clip-414"></g>
            <mask id="mask-4" fill="white">
                <use xlink:href="#path-3"></use>
            </mask>
            <g id="Clip-411"></g>
            <path d="M93.0608,31.1316 C97.7878,30.8136 101.7808,29.0616 104.9968,25.8766 C108.5688,22.3366 110.3568,17.8666 110.3568,12.4686 C110.3568,7.5466 108.9518,3.3256 105.9498,-0.0294 C105.8628,-0.1264 105.7128,-0.1994 105.5728,-0.1994 C105.3038,-0.1994 105.0838,0.0196 105.0838,0.2896 C105.0838,0.3366 105.0898,0.3816 105.1018,0.4246 C107.3158,6.3756 106.0278,12.3576 102.1198,13.9406 C99.3818,15.0486 96.0658,13.7106 93.4478,10.8116 C93.2508,10.6146 92.9168,10.6096 92.7198,10.8056 C92.5408,10.9836 92.5248,11.2626 92.6698,11.4586 C92.6698,11.4586 92.7228,11.5206 92.7238,11.5216 C94.9858,14.0736 96.1408,17.2356 96.1408,20.9476 C96.1408,24.6536 95.0018,27.7666 92.7268,30.2876 C92.6318,30.3766 92.5718,30.5026 92.5718,30.6426 C92.5718,30.9126 92.7908,31.1316 93.0608,31.1316" id="Fill-410" fill="#FFFFFF" mask="url(#mask-4)"></path>
            <mask id="mask-6" fill="white">
                <use xlink:href="#path-5"></use>
            </mask>
            <g id="Clip-422"></g>
            <mask id="mask-8" fill="white">
                <use xlink:href="#path-7"></use>
            </mask>
            <g id="Clip-425"></g>
            <mask id="mask-10" fill="white">
                <use xlink:href="#path-9"></use>
            </mask>
            <g id="Clip-419"></g>
        </g>
    </g>
</svg>