<svg id="Capa_1" xmlns="http://www.w3.org/2000/svg" viewBox="0 0 335 92"><style>.st0{opacity:.8}.st1{opacity:.9}.st2{fill:#fff}.st3{fill:none}</style><g class="st0"><g class="st1"><path class="st2" d="M22.6 71.7V31.6h15.5c2.7 0 5.2.5 7.5 1.4 2.3.9 4.3 2.2 5.9 3.9 1.6 1.7 2.9 3.7 3.8 6.2.9 2.4 1.4 5.1 1.4 8.2 0 3.1-.4 5.8-1.2 8.4-.8 2.5-2 4.7-3.5 6.5-1.5 1.8-3.4 3.2-5.5 4.2s-4.5 1.5-7.1 1.5H22.6zm15.1-6.8c3.7 0 6.3-1.1 8-3.4 1.6-2.3 2.5-5.7 2.5-10.2 0-2.3-.2-4.2-.6-5.8-.4-1.6-1.1-2.9-2-4-.9-1-2.1-1.8-3.5-2.2-1.4-.5-3.1-.7-5.1-.7h-6.2v26.3h6.9zM85 71.7c-.2-.8-.4-1.6-.5-2.7-.9 1-2.2 1.9-3.7 2.5-1.5.6-3.3.9-5.3.9-3.4 0-5.9-.8-7.5-2.3-1.6-1.5-2.4-3.5-2.4-5.9 0-2.1.3-3.8 1-5.1.7-1.3 1.6-2.3 2.8-3 1.2-.7 2.6-1.3 4.3-1.6 1.7-.3 3.5-.7 5.5-.9 2-.3 3.3-.7 4-1.1.7-.5 1-1.2 1-2.3 0-1-.5-1.7-1.4-2.3-.9-.5-2.1-.8-3.6-.8-1.8 0-3.1.4-3.9 1.2-.8.8-1.3 1.9-1.5 3.2h-7.3c0-1.5.3-2.9.8-4.2.5-1.3 1.2-2.4 2.2-3.3 1-.9 2.4-1.6 4-2.1s3.7-.8 6-.8 4.3.3 5.9.8c1.6.5 2.9 1.3 3.9 2.3 1 1 1.7 2.2 2.1 3.7.4 1.5.7 3.1.7 5v18.8H85zm-.6-14.5c-.4.4-1 .7-1.8 1s-1.9.5-3.3.8c-2.3.4-3.8 1-4.6 1.7-.8.7-1.3 1.7-1.3 3 0 2.2 1.3 3.3 3.8 3.3 1 0 1.9-.2 2.8-.5.9-.3 1.6-.8 2.2-1.4.6-.6 1.1-1.3 1.5-2.1.4-.8.6-1.6.6-2.5l.1-3.3zm35.1-5h7.3v8.4c0 1.6-.2 3.1-.7 4.5-.5 1.4-1.2 2.7-2.2 3.8-1 1.1-2.2 2-3.7 2.6-1.5.6-3.3 1-5.4 1-2.2 0-4-.3-5.6-1-1.5-.6-2.8-1.5-3.8-2.6a9.5 9.5 0 0 1-2.1-3.8c-.4-1.4-.7-3-.7-4.6V34h7.7v8h16.4v5.6h-16.4v12.2c0 1.9.4 3.3 1.1 4.4.7 1 1.9 1.5 3.5 1.5s2.7-.5 3.5-1.5c.7-1 1.1-2.4 1.1-4.3v-7.7zm35.9 19.5c-.2-.8-.4-1.6-.5-2.7-.9 1-2.2 1.9-3.7 2.5-1.5.6-3.3.9-5.3.9-3.4 0-5.9-.8-7.5-2.3-1.6-1.5-2.4-3.5-2.4-5.9 0-2.1.3-3.8 1-5.1.7-1.3 1.6-2.3 2.8-3 1.2-.7 2.6-1.3 4.3-1.6 1.7-.3 3.5-.7 5.5-.9 2-.3 3.3-.7 4-1.1.7-.5 1-1.2 1-2.3 0-1-.5-1.7-1.4-2.3-.9-.5-2.1-.8-3.6-.8-1.8 0-3.1.4-3.9 1.2-.8.8-1.3 1.9-1.5 3.2H137c0-1.5.3-2.9.8-4.2.5-1.3 1.2-2.4 2.2-3.3 1-.9 2.4-1.6 4-2.1s3.7-.8 6-.8 4.3.3 5.9.8c1.6.5 2.9 1.3 3.9 2.3 1 1 1.7 2.2 2.1 3.7.4 1.5.7 3.1.7 5v18.8h-7.2zm-.5-14.5c-.4.4-1 .7-1.8 1s-1.9.5-3.3.8c-2.3.4-3.8 1-4.6 1.7-.8.7-1.3 1.7-1.3 3 0 2.2 1.3 3.3 3.8 3.3 1 0 1.9-.2 2.8-.5.9-.3 1.6-.8 2.2-1.4.6-.6 1.1-1.3 1.5-2.1.4-.8.6-1.6.6-2.5l.1-3.3zm51.4 1.8c-.4 2.3-1.1 4.4-2.1 6.2-1 1.8-2.2 3.4-3.6 4.8-1.5 1.3-3.2 2.4-5.1 3.1-1.9.7-4.1 1.1-6.4 1.1-2.6 0-5.1-.4-7.3-1.3-2.3-.9-4.2-2.2-5.9-4s-2.9-4-3.9-6.5c-.9-2.6-1.4-5.6-1.4-9.1 0-3.4.4-6.4 1.3-9.1.9-2.7 2.1-5 3.7-6.9 1.6-1.9 3.6-3.3 5.9-4.3 2.3-1 4.9-1.5 7.8-1.5 2.5 0 4.8.4 6.8 1.1 2 .7 3.8 1.8 5.2 3.1 1.5 1.3 2.6 2.8 3.5 4.6.9 1.8 1.4 3.7 1.6 5.7H198c-.6-2.3-1.6-4.1-3.3-5.3-1.6-1.3-3.4-1.9-5.4-1.9-3.5 0-6.1 1.3-7.7 3.8s-2.5 6-2.5 10.3c0 4.5.8 7.9 2.4 10.4 1.6 2.5 4.1 3.7 7.3 3.7 2.5 0 4.5-.7 6-2s2.5-3.3 3.1-5.8h8.4zm27.8 13.7V54.3c0-2.3-.4-3.8-1.2-4.6s-2.1-1.2-3.9-1.2c-1 0-1.8.2-2.6.6-.8.4-1.4.9-1.9 1.6-.5.7-.9 1.4-1.2 2.3-.3.9-.4 1.8-.4 2.8v17h-7.8V32.2h7.8v14.7c.3-.6.7-1.3 1.3-1.8.6-.6 1.3-1.1 2-1.5.8-.4 1.6-.7 2.5-1s1.9-.4 2.9-.4c3.1 0 5.5.8 7.4 2.5 1.9 1.7 2.9 4 2.9 7v21h-7.8zm18.5-33.2v-7.3h7.8v7.3h-7.8zm0 33.2V43h7.8v29.7h-7.8zm43.7-12.8c.1 2.3.8 4 2 5.4 1.2 1.3 2.7 2 4.7 2 1.3 0 2.4-.3 3.4-.9 1-.6 1.6-1.4 1.9-2.4h8.1c-.9 3.1-2.5 5.4-4.8 7.1-2.3 1.6-5 2.5-8.2 2.5-9.9 0-14.8-5.4-14.8-16.2 0-2.3.3-4.4 1-6.2.6-1.8 1.6-3.4 2.8-4.8 1.2-1.3 2.7-2.3 4.5-3 1.8-.7 3.8-1.1 6.1-1.1 4.6 0 8.1 1.5 10.4 4.4 2.4 2.9 3.5 7.4 3.5 13.3h-20.6zm12.4-4.9c0-1.1-.2-2-.6-2.9-.3-.8-.8-1.5-1.4-2-.6-.5-1.2-.9-1.9-1.2-.7-.3-1.5-.4-2.2-.4-1.6 0-2.9.6-4.1 1.7-1.1 1.1-1.8 2.7-2 4.8h12.2z"/></g><g id="g2202_7_" transform="translate(75.411 .05)"><path id="AricaParinacota_3_" class="st2" d="M205 13.4l-.4.2h-.2l-.1.1v.3l.1.1v.2l-.1.1-.1.1-.2.1h-.2l-.2.1h-.1c-.2 0-.3 0-.4.1.1.1.2.1.1.3 0 0 0 .1-.1.1 0 0 .1 0 0 .1v.8l.1.1v.3c.2-.1.3-.1.4-.2.1 0 .2-.1.3-.1h1.3c.1 0 0 .1.1.1h.4s.1 0 .1-.1c.1 0 0-.1.1-.1 0 0 0-.1.1-.1 0 0 0-.1-.1-.1-.1-.1-.1-.1-.1-.2s-.1-.1 0-.1c0-.1.1-.2 0-.2 0-.1-.1-.2 0-.2 0 0-.1 0 0-.1s-.1-.1-.1-.1c-.1-.1.1-.1.1-.1.1 0 0-.1 0-.1 0-.1-.2 0-.2-.1-.1 0-.1-.1-.1 0h-.1v-.1c0-.1-.1-.1 0-.2l-.2-.2v-.8zm1.1 2.1z"/><path id="Tarapaca_3_" class="st2" d="M206 15.6c-.1 0-.1 0 0 0-.2 0-.1.1-.2.1 0 0-.1 0-.1.1h-.4s0-.1-.1-.1h-1.3c-.1 0-.1.1-.3.1-.1 0-.2.1-.4.2v.2h.1v.4h-.1l.1.1v.1h.1v.2s.1 0 0 .1v.3c0 .1 0 0-.1.1 0 .1.1 0 .1.2 0 0-.1 0-.1.1v.1s-.1 0-.1.1v.5h.1c0 .1.1.2 0 .2v.2s.1 0 0 .1v.2s.1.1 0 .1h.7l.1.1v.1l.1.1v.1l.5-.4.9-.2.7-.3.1-.2s-.1 0-.1-.1v-.4h.1l.1-.1h-.4l-.2-.1v-.1h.3v-.3h-.1v-.1h.3l.1-.2-.1-.1V17h-.1l-.1-.1h-.1.2l.1-.1.2-.2h.1l-.3-.2h-.2c-.1-.1-.2-.1-.3-.2 0-.1-.2-.1-.3-.1.5-.4.5-.4.4-.5z"/><path id="Antofagasta_3_" class="st2" d="M207 18.6l-.1.2-.6.3h-.1l-.8.2-.5.4h-.1v-.1s-.1 0-.1-.1v-.1l-.1-.1h-.8v.1c0 .1 0 .1-.1.1v.2c.1.1 0 .2-.1.2 0 0 .1 0 0 .1v.2c-.1.1-.1.1-.1.2v.3c-.1.1 0 .1 0 .2 0 0 0 .1-.1.1v.4c-.1.1 0 .1 0 .1 0 .1-.1.3-.4.3-.1 0-.1-.1-.1-.1-.1 0-.2.1-.1.2.1 0 0 .1 0 .1v.3c0 .1 0 .2-.1.2h.2v-.1h.1c.1.1.1.2.1.3 0 0-.1 0-.1.1l-.1.1s-.1 0 0 .1v.1h.1v.4c0 .1-.1.1-.1.2 0 0 .1.1 0 .1 0 .1 0 .1-.1.2v.1s.1.1 0 .2c0 .1 0 .2.1.3 0 .1 0 .1.1.2v.1l.1.1.1.1v.2h-.1c-.1 0-.1.1-.1.1s-.2 0-.2.1 0 .1-.1.1l-.1.1c.1.1-.1.1-.1.1s-.1.1 0 .1l.1.1v.2c.1 0 .1 0 .1-.1.1 0 .2 0 .3-.1.1 0 .2.1.2-.1.1 0 .1 0 .1.1h.6s.1 0 .1.1V26h.7v-.1h.3l.2-.1c.3 0 .3 0 .3-.1.1 0 .1-.1.1-.1.1 0 0-.1 0-.1s0-.1-.1-.1l.1-.1c.1-.1.1-.1 0-.2.1 0 0 0 0-.1h.5c.1.1.2-.1.3-.1h.2s0-.1.1-.1c0 0-.1-.1 0-.1 0-.1.1 0 .2 0s.1-.1 0-.1l-.1-.1s0-.1-.1-.1-.1-.1-.1-.1c-.1 0 .1-.1.1-.1s0-.1.1-.2c.1 0 .1 0 .1-.1 0 0 0-.1.1-.1h.2s0-.1.1-.1l.3-.1 1.6-.4.7-1.6-.3-.3-.7.1h-.5s-.2 0-.1-.1v-.2s.2-.1 0-.2c-.1 0 0-.2-.1-.2l-.1-.1v-.2c0-.1-.1-.1 0-.2.1 0 0-.1 0-.1l-.1-.1-.1-.1v-.3l-.1-.1v-.1l-.1-.1v-.5l-.3-.3-.3-.3-.1.4z"/><path id="Atacama_3_" class="st2" d="M206.8 25.1zm0 .1h-.2c-.1.1-.2.2-.3.1h-.5s.1.1 0 .1c.1.1 0 .1 0 .2l-.1.1c.1 0 .1.1.1.1s.1.1 0 .1c0 0 0 .1-.1.1 0 .1-.1.1-.3.1l-.2.1c0-.1-.1 0-.1 0h-.1s0 .1-.1 0v.1h-.7v.1c-.1 0-.1-.1-.1-.1h-.6c0-.1-.1 0-.1-.1 0 .2-.1.1-.2.1-.1.1-.1.1-.3.1 0 .1-.1.1-.1.1-.1.1 0 .1 0 .1s.1 0 0 .1c0 0 .1 0 0 .1 0 0 .1.1 0 .1 0 0-.1 0 0 .1 0 0 .1 0 .1.1 0 0-.1 0-.1.1 0 0-.1 0 0 0v.5s-.1.1 0 .1h-.1c0 .1-.1.1-.1.2-.1 0 .1.1 0 .1s.1 0 0 0 0 .1-.1.1 0 .1-.1.1c0 .1-.1-.1-.2 0 0 0-.1.1 0 .1s0 .1 0 .1c.1 0 .1.1 0 .1s.1.1.1.1l.1.1v.2c-.1 0 0 .1-.1.1h-.1s-.1-.1-.1 0v.1s-.1.1-.1.2c-.1 0 0 .1-.1.1v.3s-.1 0-.1.1c0 0 .1 0 0 0v.3s.1.1 0 .1 0 0 0 .1v.1s-.1 0-.1.1c0 0 0 .1-.1.1v.1-.1s-.1 0-.1.1c0 0 0 .1-.1.1 0 0 0 .1-.1.1h-.1s-.1 0-.1.1c0 0-.1.1 0 .1v.1s.1.1 0 .1v.1c.1 0 .1 0 0 .1-.1 0-.1 0 0 .1.1 0 0 0 0 0h.3c0 .1.1 0 .2 0 0 .1 0 .2.1.2h.1s.1 0 0 .1c.1 0 .2 0 .2-.1.1 0 0-.1.1-.1-.1-.1 0 0 .1-.1h.2c.2-.1.2 0 .2-.1-.1 0 .1-.1.1 0h.3v.1c0 .1.1.1.1.2.1 0 0 .1.1.1s0 0 0 .1c0 0 .2.1.2 0h.2c.1 0 .1.1.1.2h.4v-.2c0-.1 0 0 0 0-.1 0 0-.1 0-.2v-.2c.1 0 .1-.1.2-.1s.1 0 .1-.1v-.3s0-.1.1-.1v-.2c0-.1 0-.1.1-.1 0 0 .1-.1 0-.2h.2s.1-.1.1-.2h.2c.1 0 .1-.1.1-.1v-.1h.1c.1 0 .1 0 .1-.1 0 0 .1-.2.1-.3v-.3h.1l.1-.1v-.1l.1-.1s0-.1.1-.1.1 0 0-.1v-.1s0-.1.1-.1c0 0 .1 0 .1-.1h.2l.1.1h.3c.1 0 .2-.1.3-.1h.1c0-.1 0-.1.1-.1v-.1l-.2-.2-.4-.5v-.3l.2-.1.2-.1-.2-.8c0-.1-.1 0-.1-.1v-.1s0-.1-.1-.1v-.1h.1c.1-.8.2-.8.1-.9z"/><path id="Coquimbo_3_" class="st2" d="M202.9 30.9s-.1 0 0 0c-.1 0-.3 0-.2.1 0 .1 0 0-.2.1h-.2s-.1 0-.1.1c-.1.1 0 .1-.1.1 0 .1-.1.1-.2.1v-.1h-.1c-.1 0-.1-.1-.1-.2h-.3c0 .1-.1 0-.2 0v.1s.1 0 .2.1l.1.1v.3c.1 0 .1 0 0 .1v.3h-.2c.1 0 0 .1 0 0 0 0-.1 0 0 .1v.3h-.1s-.1 0 0 0v.1s-.1 0-.1.1h-.1v1.7s0 .1.1.2v.4s.1.1 0 .1c0 0-.1.1 0 .1s0 0 0 .1v.5h.4s.1 0 .1-.1h.2l.1-.1v-.1c0-.1.1 0 .1 0s.1.1.1 0h.4s.1 0 0 0c0 0 .1 0 0 0 0 0 .1.1 0 .1h.4v.1h.1v.1h.1c.1 0 .1 0 .1-.1v-.2c-.1 0-.1-.1 0-.1h-.1.2s.1 0 .1-.1v-.2h-.1s0-.1-.1 0h-.3v-.2s0-.1-.1-.1l-.1-.1c-.1 0-.1 0 0-.1-.1-.2.1-.1 0-.2l.1-.1v-.2c0-.1 0-.1.1-.2 0 0 0-.1 0 0 0 0 0 .1.1.1s0 0 .1-.1l.1-.1h.1v-.1s-.1 0 0-.1v-.4s0-.1.1-.1l.1-.1c.1 0 .1-.1.1-.1s-.1-.1 0-.1h.5l.1-.1h.1v-.2h.1v-.2h-.2c-.1.1-.1 0-.1 0v-.2c.1 0 0-.1 0-.1v-.4l-.1-.1v-.2c-.1 0-.2.1-.3 0h-.1c0-.1-.1-.1-.1-.2-.1-.1-.1-.1-.2 0 0 .1-.2 0-.2 0s.1 0 0-.1c-.1 0 0-.1-.1-.1.1-.1-.1-.1-.1-.2v-.1c.1.3.1.3 0 .3zm-1.8.3c.1 0 .1 0 0 0zm0 .1z"/><path id="Valparaiso_3_" class="st2" d="M202.7 35.4h-.5s-.1 0-.1.1h-.1c-.1 0-.1.1-.1.1s-.1 0-.1.1h-.4c-.1.1-.1 0-.1 0v.1c.1 0 .1 0 .1.1v.1h.1l.1.1v.4s0 .1-.1.1v.3h-.1v.1h-.1v.2h-.1v.1h.2v.2c0 .1-.1.2-.3.2h.2s.1 0 .1-.1v-.2h.1s-.1 0 0 0v-.3h.4V37h.3s.1 0 0 0h.1v.1h.2s.1 0 .1-.1v-.2l-.1-.1h-.2v-.3s0-.1-.1-.1h-.2v-.2h-.2V36h-.1v-.1h-.2c0 .1 0 0-.1 0h-.1s-.1 0 0-.1c1.7-.4 1.5-.4 1.4-.4.1.1.1 0 0 0 .1 0 .1 0 0 0z"/><path id="Metropolitana_3_" class="st2" d="M202.8 36.8c-.1 0-.1 0 0 0h-.1c-.1 0 0 0 0 0v.1h-.4v.3s-.1 0 0 0h-.2v.2s-.1 0-.1.1h-.1s-.1 0 0 0h.8s.1 0 .1.1c0 0 0 .1.1.1h.2s.1.1.1 0h.3s.1 0 0 0v-.1c.1 0 0-.1 0-.1h.7s.1 0 0 0v-.1l-.1-.1c-.1 0 0 0 0-.1V37c.1-.1 0-.1 0-.1v-.3s0-.1.1-.1h-.2v-.3c0 .1 0 0-.1.1h-.1c-.1 0 0 0 0 0v-.1h-.5c-.4.7-.5.7-.5.6 0 .1 0 0 0 0z"/><path id="OHiggins_3_" class="st2" d="M203.4 38.3c-.1 0-.1 0 0 0-.1 0-.1 0 0 0h-.5v.1c-.1 0-.1 0 0 .1h-.6c-.1 0 0 0-.1-.1l-.1-.1h-.8v.5h.2s.1 0 .1.1h.5v-.3h-.1.2v-.2h.1v-.2h-.1s.1 0 0 0h-.1c1.4.1 1.4.1 1.3.1z"/><path id="Maule_3_" class="st2" d="M200.4 39.6s0 .1-.1.1c0 .1-.1.1-.1.1h-.1v.4l-.2.1s-.1 0-.1.1v.1s-.1 0-.1.1-.1 0-.1.1h-.1v.2s-.1 0-.1.1h-.1s.1.1.1.2v.2s-.1 0 0 0h-.2s-.1 0 0 .1h.5v-.2s.1 0 0 0h-.1.1s-.1 0 0 0h.1c.1 0 0 0 0 0s-.1 0 0 0h-.4v-.1h.2V41h-.1s-.1 0 0 0h-.1s-.1 0 0 0h-.3l-.1-.1h-.1c1.6-1.3 1.6-1.3 1.5-1.3.1 0 .1 0 0 0 .1 0 .1 0 0 0 .1 0 0 0 0 0z"/><path id="Biobio_3_" class="st2" d="M199.3 41.7c-.1 0-.1 0 0 0-.1 0-.1 0 0 0-.1 0-.1 0 0 0-.1 0-.1 0 0 0-.1 0-.1.1 0 0-.1.1 0 .1-.1.1v.2c-.1.1 0 .1 0 .2 0 0 0 .1-.1.1v.2h-.2v-.1.2h.1l.1.1v.2h-.1v.2h-.4.1s.1 0 .1.1h.1v.1c.1 0 .1.1.2.1l.1.1c0 .1.1.1.1.2s.1.1.1.2v.4h.1v.2h.1c0-.1 0 0 0 0h.2v-.1s-.1 0 0 0h.5v.1h.5v-.1h.5v-.3h-.1v-.2c-.1 0 0 0 0 0h.1v-.1s0-.1-.1-.1h-.1.1v-.3h.1s0 .1.1 0v-.1h-.2c-1.8-1.6-1.8-1.6-1.9-1.6zm-.5 1zm-.8.6c-.1 0-.1 0 0 0-.1 0-.1 0 0 0-.1 0-.1 0 0 0v.1c.1-.1.1-.1 0-.1zm-.7 2.1s-.1 0 0 0 .1 0 0 0c.1 0 .1 0 0 0zm.1.2z"/><path id="Araucania_3_" class="st2" d="M199.4 44.2s-.1 0 0 0c-.1 0-.1 0 0 0h-.3v.2h-.1s-.1 0 0 0v.1h.3v.1s0 .1.1.1v.3s0 .1.1.1c0 0 0 .1.1.1v.1s0 .1.1.1v.3h-.1.2s0-.1.1-.1c0 0 0-.1.1-.1 0 0 .1.1.1 0 .1-.1.1 0 .1 0h.7v-.1h1l.1-.1v-.2s0-.1-.1-.1h-.3v-.5h-.8v.1h-.4c-.9-.4-1-.4-1-.4zm-.5.9zm-.1 1.7zm2.5.3s.1 0 0 0z"/><path id="Los_Rios_3_" class="st2" d="M199.3 46.9c-.1 0-.1 0 0 0-.1 0-.1 0 0 0h-.1c.1 0 .1.1 0 0 0 0 .1 0 0 0h1.6s.1 0 0 0h.1s.1 0 0 0c0 0 .1 0 0 0h1.9v-.1h-.1.2v-.3h-.7c-2.8.5-2.8.5-2.9.4l.1.1c-.1 0-.1 0-.1-.1 0 .1 0 .1 0 0 0 .1 0 .1 0 0 .1.1.1.1 0 0 .1.1.1 0 0 0zm-.6.7s0 .1 0 0zm0 .1s.1 0 0 0zm0 .1zm-.2 0zm2.9.7z"/><path id="Los_Lagos_3_" class="st2" d="M198 48.4s0 .1 0 0l-.1.1c.1 0 0 0 0 0h.5v-.1s.1 0 0 0v.1h-.7s.1 0 0 0h.4s.1 0 0 0h.1v.2h-.1v-.2h-.1v-.3h-.4s.1 0 0 0h-.1.1v.1h.1v.2h.3s.1 0 0 0c0 0 .1 0 0 0h-.6v.5h.2s0 .1 0 0h-.1v.2h-.3v.4h-.3v.2s-.1 0 0 0v.2s0 .1 0 0h.2v.1h-.2s0 .1 0 0h.4V50v.2h.8v-.1h.7v-.2h-.1s.1 0 0 0h-.5s-.1 0 0 0v-.1h-.2v-.4h.1v-.1s.1 0 0 0v-.1h-.2v-.3h.2s.1 0 0 0h.8s.1 0 0-.1v-.1h-.1v-.3s.1 0 0 0v-.7s0-.1 0 0h.1v-.2s0-.1 0 0v-.2h-.1s-.1 0 0 0h.1v-.2h-.1V47h-.1l.1-.1h-.8c.2 1.6.2 1.6 0 1.5.1.1.1.1 0 0 .1 0 .1 0 0 0 .1 0 .1 0 0 0 .1 0 0 0 0 0zm-.2 1.3zm1.6.6zm.2 0zm-.2.1c-.1 0-.1 0 0 0-.1 0-.1 0 0 0-.1 0-.1.1 0 0 0 .1 0 .1 0 0 0 .1 0 .1 0 0zm0 .2zm0 0c0 .1 0 .1 0 0v.1c.1-.1 0-.1 0-.1.1 0 .1 0 0 0 .1 0 .1 0 0 0l.1.1c0-.1 0-.1-.1-.1.1 0 .1 0 0 0 .1 0 .1 0 0 0l.1.1c0-.1 0-.1-.1-.1.1 0 .1 0 0 0 .1 0 .1 0 0 0 .1 0 0 0 0 0s.1 0 0 0c.1 0 .1 0 0 0zm.9 0c-.1 0 0 0 0 0zm-1 0zm-.1 0zm.7 0s0 .1 0 0zm-.6.1zm-.3 0s0 .1 0 0c0 .1 0 .1 0 0v.1c.1 0 .1 0 0-.1.1 0 .1 0 0 0 .1 0 0 0 0 0zm.3 0s-.1 0 0 0c-.1 0-.1 0 0 0-.1 0-.1 0 0 0-.1 0-.1 0 0 0-.1 0-.1 0 0 0-.1 0 0 0 0 0s-.1 0 0 0c-.1 0-.1 0 0 0-.1.1-.1.1 0 0 0 .1 0 .1 0 0v.1c-.1 0-.1 0 0-.1-.1.1-.1.1 0 0-.1.1-.1.1 0 .1v-.1zm-1.3 0zm1.2 0zm-.1 0c0 .1 0 .1 0 0 0 .1 0 .1 0 0 0 .1 0 .1 0 0 0 .1 0 .1 0 0 0 .1 0 .1 0 0 0 .1 0 .1 0 0 0 .1.1.1 0 0 .1 0 .1.1 0 0 .1 0 .1 0 0 0zm-.6.1zm-.6 0s-.1 0 0 0h-.1v.1h-.1s.1 0 0 0h.3s.1 0 0 0c0 0 .1 0 0 0h.7v-.1h.2s.1 0 0 0h-.1.1v-.1h-.2s.1 0 0 0h-.1c-.8.2-.8.2-.7.1-.1.1-.1.1 0 0 0 .1 0 .1 0 0v.1c.1 0 .1 0 0-.1.1.1.1.1 0 0 .1.1 0 .1 0 0 0 .1 0 0 0 0 .1 0 0 0 0 0zm-.2 2.5s.1 0 0 0zm1.1-2.5zm.4 0c0 .1 0 .1 0 0 0 .1 0 .1 0 0zm-.1 0s0 .1 0 0c0 0 .1 0 0 0zm-.7 0s0 .1 0 0zm.4 0zm0 0s0 .1 0 0zm0 0s0 .1 0 0zm.9.1zm-.2 0s.1 0 0 0c.1 0 .1 0 0 0 .1 0 0 0 0 0 .1 0 0 0 0 0zm-.4 0s.1 0 0 0h.1c0 .1 0 .1-.1 0 0 0 0 .1 0 0 0 .1 0 .1 0 0l.1.1c0-.1 0-.1-.1-.1.1 0 .1 0 0 0 .1 0 .1 0 0 0 .1 0 0 0 0 0zm-1 0zm2.2.1c0 .1 0 .1 0 0 0 .1-.1.1 0 0l-.1.1h.1V51c0 .1 0 .1 0 0 0 .1 0 .1 0 0zm-.3.2s.1 0 0 0zm.1 0zm-.1 0c.1 0 0 0 0 0zm.2 0c-.1 0-.1 0-.1.1h.2l-.1-.1s.1 0 0 0c.1 0 .1 0 0 0zm-1.4.1c-.1 0-.1 0 0 0-.1 0-.1 0 0 0-.1.1-.1.1 0 0-.1.1-.1.1 0 0-.1.1 0 .1 0 0 0 .1 0 .1 0 0 0 .1 0 .1 0 0v.1s.1 0 0-.1c0 .1 0 .1 0 0 0 .1 0 0 0 0zm1.3.1zm-1 .1s.1 0 0 0c.1 0 .1 0 0 0 .1 0 .1 0 0 0 .1 0 .1 0 0 0 .1 0 .1 0 0 0 .1 0 0 0 0 0zm.2 0c-.1 0-.1 0 0 0-.1 0-.1 0 0 0 0 .1 0 0 0 0-.1 0-.1 0 0 0 0 .1 0 .1 0 0-.1.1-.1.1 0 0-.1.1-.1.1 0 0-.1.1-.1.1 0 0-.1.1-.1.1 0 0-.1.1-.1.1 0 0-.1.1-.1.1 0 0 0 .1 0 .1 0 0 0 .1.1.1 0 0 .1.1.1.1 0 0 .1 0 0 0 0 0zm-.1 0s0 .1 0 0c0 .1 0 .1 0 0 0 .1 0 .1 0 0zm-.2 0c0 .1 0 .1 0 0 0 .1.1.1 0 0 .1.1.1.1 0 0 .1.1.1.1 0 0 .1.1.1.1 0 0 .1 0 0 .1 0 0zm-.1.1zm.1 0c-.1 0-.1 0 0 0s.1 0 0 0c.1 0 0 0 0 0zm.1 0zm0 0zm-.1 0s0 .1 0 0zm.1 0s-.1 0 0 0c-.1.1 0 .1 0 0 0 .1 0 0 0 0s0 .1 0 0zm.2.1s-.1 0 0 0c-.1 0-.1 0 0 0-.1 0-.1 0 0 0-.1 0 0 0 0 0zm-.6 0c0 .1 0 .1 0 0 0 .1.1.1 0 0 .1.1.1.1 0 0 .1.1.1.1 0 0 .1 0 .1 0 0 0 .1 0 .1 0 0 0zm.3 0c0 .1 0 .1 0 0 0 .1 0 .1 0 0-.1.1-.1.1 0 0-.1.1-.1.1 0 0-.1.1-.1.1 0 0-.1.1-.1.1 0 0-.1.1-.1.1 0 0 0 .1 0 .1 0 0 0 .1 0 .1 0 0 0 .1 0 .1 0 0 0 .1 0 .1 0 0 0 .1 0 0 0 0zm-.5.1c-.1 0-.1 0 0 0-.1 0-.1 0 0 0-.1 0-.1 0 0 0-.1 0-.1 0 0 0-.1 0-.1 0 0 0-.1 0-.1 0 0 0-.1 0-.1 0 0 0-.1 0 0 0 0 0s-.1 0 0 0c-.1 0-.1.1 0 0-.1.1-.1.1 0 0-.1.1 0 .1 0 .1-.1 0-.1 0 0-.1 0 .1 0 .1 0 0 0 .1 0 .1 0 0 0 .1 0 .1 0 0l.1.1c-.1 0 0 0-.1-.1.1.1.1.1 0 0l.1.1c0-.1 0-.1-.1-.1.1 0 0 0 0 0s0-.1 0 0c0-.1 0 0 0 0zm.2 0c.1 0 .1 0 0 0 .1 0 .1 0 0 0 .1 0 .1 0 0 0zm.1 0zm.1 0c-.1 0 0 .1 0 0-.1.1-.1.1 0 0 0 .1 0 .1 0 0 0 .1 0 .1 0 0 0 .1 0 .1 0 0 0 .1 0 .1 0 0 .1.1.1 0 .1 0 0 .1 0 .1-.1 0 .1 0 .1 0 0 0zm.2 0s0 .1 0 0zm-.1 0c0 .1 0 .1 0 0 0 .1 0 .1 0 0 0 .1 0 .1 0 0 0 .1 0 .1 0 0 0 .1 0 .1 0 0 0 .1 0 .1 0 0 0 .1.1.1 0 0 .1.1.1.1 0 0 .1.1.1.1 0 0 .1.1.1.1 0 0 0 .1 0 .1 0 0 0 .1 0 .1 0 0 0 .1 0 .1 0 0 0 .1 0 0 0 0zm-.3.2c-.1 0-.1 0 0 0-.1 0-.1 0 0 0-.1 0-.1 0 0 0-.1.1-.1.1 0 0-.1.1-.1.1 0 0-.1.1-.1.1 0 0 0 .1-.1 0 0 0-.1 0 0 0 0 0zm.4 0s0 .1 0 0c0 .1 0 .1 0 0 0 .1 0 .1 0 0 0 .1 0 .1 0 0 0 .1 0 .1 0 0 0 .1 0 .1 0 0 0 .1 0 .1 0 0 .1.1.1.1 0 0 0 .1.1.1 0 0 0 .1 0 .1 0 0zm-.6 0s0 .1 0 0c0 .1 0 .1 0 0 0 .1 0 .1 0 0 0 .1-.1.1 0 0-.1.1-.1.1 0 0h-.1c.1.1.1.1.1 0 0 .1.1.1 0 0 .1.1.1.1 0 0 0 .1.1.1 0 0 .1.1.1.1 0 0 0 .1 0 .1 0 0 0 .1 0 .1 0 0 0 .1 0 .1 0 0 0 .1 0 0 0 0zm.5 0c0 .1-.1.1 0 0-.1.1-.1.1 0 0-.1.1 0 .1 0 0 0 .1 0 .1 0 0 0 .1 0 .1 0 0 0 .1 0 .1 0 0 0 .1 0 .1 0 0 0 .1 0 .1 0 0 .1.1 0 .1 0 0 0 .1 0 0 0 0zm.1 0c0 .1 0 .1 0 0 0 .1 0 .1 0 0 0 .1 0 0 0 0zm.3 0c0 .1 0 .1 0 0 0 .1 0 .1 0 0 0 .1.1.1 0 0 .1.1.1.1 0 0 .1 0 .1.1 0 0 0 .1 0 0 0 0zm1.4.1zm-2.1 0c-.1 0 0 0 0 0-.1 0-.1 0 0 0-.1 0-.1 0 0 0-.1 0-.1 0 0 0-.1.1-.1 0 0 0zm.2 0c.1 0 .1 0 0 0 .1 0 .1 0 0 0 .1.1.1 0 0 0 .1 0 .1.1.1.1 0-.1 0-.1-.1-.1.1 0 .1 0 0 0 .1 0 .1 0 0 0 .1 0 0 0 0 0zm.4 0c0 .1 0 .1 0 0 .1.1.1 0 0 0zm0 .1c.1 0 0 0 0 0zm.1 0c.1 0 .1.1 0 0l.1.1s-.1 0 0 0-.1 0 0 0c0 0 0-.1-.1-.1.1 0 .1 0 0 0zm0 0c0 .1 0 .1 0 0 0 .1 0 .1 0 0zm-.1 0c0 .1 0 .1 0 0 .1.1.1.1 0 0 0 .1 0 0 0 0zm-.6.4s0-.1 0 0zm.1 0zm-.2 0c-.1 0-.1 0 0 0-.1 0 0 0 0 0 .1 0 .1 0 0 0 .1 0 .1 0 0 0l.1.1c0-.1 0-.1-.1-.1.1 0 0 0 0 0zm1.3 0s.1 0 0 0zm-1.1.2c-.1 0 0 0 0 0zm-.4.2c-.1 0 0 0 0 0zm.2-.1c0 .1 0 .1 0 0 .1.1.1.1 0 0 .1.1.1.1 0 0 .1.1.1.1 0 0 .1.1 0 .1 0 0zm.1.1c0-.1 0-.1 0 0zm-.3 0zm.1 0v.1h.1l-.1-.1c.1 0 .1 0 0 0 0 0 .1 0 0 0 .1 0 0 0 0 0zm-1.1 0zm1 0c-.1 0 0 .1 0 0 0 .1 0 .1 0 0l.1.1-.1-.1c.1.1.1 0 0 0 .1 0 0 0 0 0zm-.1.2c-.1 0 0 .1 0 0 0 .1 0 .1 0 0 0 .1 0 .1 0 0v.1c.1-.1.1-.1 0-.1.1 0 .1 0 0 0zm-.8.1s0 .1 0 0v.1c.1 0 .1 0 0-.1.1.1.1.1 0 0 .1 0 .1 0 0 0zm.1 0s.1 0 0 0zm.2.1zm-1 .1c0 .1 0 .1 0 0 0 .1 0 .1 0 0-.1.1-.1.1 0 0l-.1.1h.3s.1 0 0 0-.1 0-.2-.1c0 .1 0 .1 0 0 0 .1 0 0 0 0zm.1.1zm2.7 0s0 .1 0 0zm0 .1c-.1 0 0 0 0 0-.1 0 0 0 0 0zm-2.6 0"/><path id="Aisen_3_" class="st2" d="M199.9 53.6c-.1.1 0 .1 0 0v.2h-.1v-.1h-.2.2s.1 0 0 0h.2v-.1c-.1.2-.1.1-.1 0 0 .1 0 .1 0 0v.2h.1c.1 0 0 0 0 0s-.1-.1-.1 0h-.3v.1h.1c.1 0 0 .1 0 0h.1l.1.1h.2c.1 0 0 0 0 0h-.2s-.1 0-.1-.1h-.3v-.1s0-.1 0 0v.1s0 .1 0 0h-.1s.1 0 0 0h-.1v.1s0 .1-.1 0c0 0-.1 0 0 0v.1s.1.1 0 0V54s-.1 0 0 0v.2s.1 0 0 .1h-.2v.1s0 .1.1 0h-.1s0-.1-.1 0c0 0-.1 0 0 0s-.1 0 0 0h.2s.1 0 .1-.1c0 0 0-.1.1-.1v.1c.1 0 0 0 0 0s.1 0 0 0h-.1v.1c-.1 0 0-.1-.1 0h-.1v.1h.2s0-.1 0 0h.4c.1 0 0 0 0 0-.1 0 0 .1-.1.1v.1h.3s.1 0 0 0h.1v-.3s0-.1 0 0v.3l.1.1s.1 0 0 0h-.2v.2c.1 0 0 0 0 0s-.1 0 0 .1v.2h-.3l-.1.1h-.2s-.1 0-.1.1c0 0 0 .1-.1.1h-.5v.2s0 .1.1 0c0 0 .1 0 0 0 .1 0 0 0 0 0l.1.1h-.1s.1 0 0 .1h-.2v.1h.2c.1 0 .1 0 .1-.1h.3s.1 0 .1.1c0 0 .1 0 .1.1h.4v.1h-.5s-.1 0-.1-.1c-.1 0-.1 0-.1-.1h-.1c.1 0-.1 0 0 0h-.1v.1h-.1c-.1 0 0 .1 0 .1h-.1l-.1.1v.4s-.1.1 0 .1c0 0 .1 0 .1-.1h.1c.1 0 .1-.1.1-.1s0-.1.1-.1h.1s.1 0 .1-.1c0 0 .1 0 0 0s0 0-.1.1h.3s0 .1 0 0h-.3s-.1 0-.1.1c0 0-.1 0-.1.1l-.1.1c.1 0 0 .1 0 .1h-.1v.1h-.1s-.1 0-.1.1v.4s0 .1 0 0c-.1 0 0 .1-.1.1v.1h.1s0-.1.1-.1c0 0-.1 0 0-.1h.1c0-.1.1-.1.1-.1s.1 0 .1-.1l.1-.1s0-.1.1 0c.1 0 0 0 0 0-.1 0 0 0-.1.1 0 0 0 .1-.1.1h-.1l-.1.1v.2s0 .1 0 0h.2s.1 0 0 0h-.1c-.1 0 0 0 0 0h-.2l-.1.1s0-.1 0 0c0 0 0 .1-.1.1 0 0-.1 0-.1.1 0 0-.1 0 0 0v.1l.1.1h-.1c0-.1-.1 0-.1 0l-.1.1-.1.1s-.1-.1 0 0c0 0 0 .1 0 0h.1v.1c-.1 0 0 .1 0 .1s0 .1-.1.1h-.1c-.1 0 0 0 0-.1v-.1s.1 0 0-.1c0 0 .1 0 0 0 0 0 .1 0 0-.1 0 0 0-.1 0 0v-.1s.1 0 0-.1l.1-.1v-.2h-.1s-.1 0 0-.1h-.1c-.1 0-.1 0-.1.1v.2s-.1 0-.1.1l.1-.1V58s.1 0 0-.1c0-.1-.1 0-.1 0-.1 0-.1.1-.2.1h-.5v-.1.1h.5s.1 0 .2-.1h.1s.1 0 .1-.1v-.1c-.1 0-.1 0-.1-.1 0 0-.1.1 0 .1v.1s.1 0 0 0h-.6.3s.1 0 .1-.1v-.1h-.4s-.1 0 0 0h.4s0-.1-.1 0h-.4.2-.2v.1s-.1 0 0-.1h-.3s-.1 0 0 0l.1.1s0 .1.1.1c0 0 .1 0 0 0h-.1v.2h-.1l.1-.1v-.1s0 .1-.1 0c0 0 .1 0 0-.1h-.1c-.1 0 0 0 0-.1v-.1h-.1c-.1 0 0 0 0-.1h-.1s-.1 0-.1.1l-.1.1v-.2h-.2s0 .1.1.1h-.2c-.1 0 .1 0 0 0h-.1s-.1 0 0 0l-.1-.1h-.1s-.1 0 0 .1v.1h.1c-.1 0 0 0 0 0h.1c.1 0-.1 0 0 0h.1s.1 0 0 0h-.2.4s.1 0 0 0h-.3c-.1 0 0 0 0 .1v.1h.3l.1-.1c-.1 0 0 0 0 0 .1 0 .1 0 .1-.1v-.1s.1 0 .1-.1c0 0 .1 0 0 0v.2h-.2s-.1.1 0 .1h.1c-.1 0 0 .1 0 0v-.1h-.2c-.1 0 0 0 0 0s0 .1 0 0h-.1c.1 0 0 0 0 0v.1h-.2s-.1 0 0 0v.1s.1 0 0 0h-.1s-.1 0 0 .1h.3-.4s-.1 0-.1-.1c0 0-.1 0 0 0v.1s-.1 0 0 .1c0 0 .1 0 0 0l-.1-.1v-.1h-.3v.1s-.1 0 0 0c0 0 0-.1 0 0 0 0 0 .1 0 0h-.2.1s.1 0 .1.1h-.1s-.1 0 0 0h-.2.2v.1h.3s.1 0 .1-.1v-.1s-.1 0 0-.1c-.1 0 0 0 0 0h-.1.1s.1 0 .1-.1c0 0 0-.1-.1 0h-.1c-.1 0 0 0 0 0v-.1h-.1l-.1.1s.1 0 0 0l-.1.1.1-.1c.1 0 0 0 0-.1h.2s.1 0 .1-.1c0 .1.1 0 0 0 0 0 .1 0 0 0h.1s.1 0 0 0c0 0 .1 0 0 0v.1h.2s0-.1.1 0v-.1c0 .1 0 0 .1 0 0 0 .1 0 0-.1h.1c-.1 0 0 .1 0 .1h-.1s-.1 0-.1.1h-.1v.1s0 .1.1.1c0 0 .1 0 .1.1h.1s0 .1 0 0h.2s.1 0 0 0h.3v-.1h.1s-.1 0 0 0h.4s.1 0 0 0c0 0 0-.1 0 0h.1s.1 0 0 0c0 0 .1 0 0 0h-.1c-.1 0 0 0 0 0l.1.1s0 .1 0 0h.1s0 .1 0 0h-.1s.1 0 .1.1h.4c-.1 0 0 0 0 0s.1 0 0 0v.1s0 .1-.1.1c0 0-.1.1 0 .1h.1l.1.1s.1 0 0 0h-.1s0-.1-.1 0h-.1c-.1 0-.1 0 0 .1v.1s.1 0 0 0h.2c.1 0 0 0 0 0h-.2s0 .1.1.1c0 .1 0 .1 0 0 0 0-.1 0-.1-.1h-.1s.1 0 0 0v-.1s0-.1-.1-.1h-.1c0 .1.1 0 0 .1v.2-.1s.1-.1 0-.1v-.1s-.1 0 0 0 0 0 0 .1v-.1s0 .1-.1.1c0 0 0 .1-.1.1h-.1v.1s-.1 0 0 .1v.2c0 .1.1 0 0 0 0 0 .1 0 .1-.1 0 0 0 .1 0 0h.2l.1-.1h.1s-.1 0-.1.1c0 0-.1.1-.1 0h-.1.2c.1 0 0 0 0 0s-.1 0 0 0h.5s-.1 0-.1.1h-.2v.1h.4s0-.1.1-.1h.1s.1 0 0 0h-.4s0 .1 0 0h.2c.1 0 0 0 0 0h-.4s-.1 0 0 0h-.1s0 .1.1.1-.1 0-.1-.1v-.1s0 .1-.1 0h-.4.1s0 .1 0 0h.1s.1 0 .1-.1c0 0 .1-.1 0-.1 0-.1 0-.1-.1-.1s0 0-.1.1v-.1h-.3v.1s-.1 0 0 .1h-.1v.1h.2s-.1 0-.1.1c0 0 .1.1 0 0-.1 0 0 0 0 0h.2s.1 0 .1-.1h-.1s-.1.1 0 0h.1s.1 0 0 0l-.1.1s-.1 0 0 .1c.1 0 .1-.1.1-.1h.2s-.1 0 0 0h.9c.1 0 .1 0 .1-.1v-.2s.1 0 .1-.1c0 0 0-.1-.1-.1v-.1s0-.1.1-.1c0 0 .1 0 0 0h-.1c.1 0 0 0 0 0h.1v.1s0 .1 0 0-.1 0-.1.1v.2h.3s.1 0 .1.1c0 0 .1 0 0 0v.1c-.1 0 0 0 0 0h.3-.3s-.1 0-.1-.1v-.1h-.2v.2c.1 0 0 .1.1.1h.1c-.1 0 0 .1 0 .1.1 0 0 .1.1.1 0 0 0 .1.1.1s.1 0 .2.1h.1s.1 0 0-.1v-.2.2s-.1 0-.1.1c-.1 0 0 0 0 .1h-.1c-.1 0 0-.1-.1-.1h-.1s0 .1-.1.1v-.1.1l.1-.1v-.1h-.2s0-.1-.1 0c-.1 0-.1.1-.1.1v-.1s.1 0 .1-.1h-.1s-.1 0-.1.1c0 0-.1.1 0 0v-.1l-.1-.1h-.3s-.1 0 0 0c0 0 .1 0 0 0h-.2v.1s.1 0 0 .1h-.1v-.1h-.1s0 .1 0 0h-.1s0 .1.1.1c0 0 .1.1 0 .1 0 0 .1 0 0 0 0 0 .1 0 .1.1h.1s.1 0 0 0h-.2s0-.1-.1 0v-.1s-.1 0-.1-.1v-.1c-.1 0 0 0 0 0h-.4s0 .1-.1.1h-.1v.2h.2s.1 0 0 0c0 0-.1 0 0 0h.1s0-.1.1-.1c0 0 .1 0 0 0 0 0-.1 0 0 .1 0 0 .1 0 0 0h-.1c-.1 0 0 0 0 .1l.1.1h.2s0-.1 0 0v.1s.1 0 0 0c0 0-.1 0 0 .1h.4-.3s-.1 0 0 0h.4s-.1 0 0 .1v.1c-.1 0 0 0 0 0s.1 0 .1.1l-.1-.1h-.4s-.1.1 0 .1h-.1l-.1.1s-.1 0 0 .1c0 0 .1 0 0 .1-.1 0 0 0 0 0h.1c0-.1.1 0 0 0h.1s.1 0 0 0h-.1s.1.1.1 0h.3l.1.1c.1.1.3.1.4.2.1 0 .2.1.3.1l.8.4v-.1h.2V61l-.1-.1-.1-.1v-.1.2-.1.2h.1v-.1h-.2.2-.1c-.2 0 0 0 0 0-.2 0 0 0 0 0h.1v-.1s-.1-.1 0-.1v-.1h.1s0-.1.1-.1v-.2l-.1-.1s0-.1.1 0h.3v-.1s0-.1.1 0h.1s0-.1.1-.1v-.2h.2v-.1s.1 0 0-.1v-.1h-.1s0-.1 0 0c.1 0 0 0 .1-.1v-.1h-.2V59s-.1 0 0-.1h.2c.1 0 .1-.1.1-.1h.1v-.6s.1-.1 0-.1c0 0 0-.1-.1-.1h-.1v-.1h-.1.2c.1 0 0-.1.1 0l.1-.1.1-.1s0-.1 0 0v-.2h-.2s.1-.1 0-.1v-.1s-.1-.1 0-.1V57s.1 0 0-.1c0 0-.1 0 0 0h.5s-.1 0-.1-.1c0 0-.1 0 0-.1h.1v-.1c.1 0 .1 0 .1-.1v-.2l-.1-.1h-.1s0-.1-.1-.1V56s-.1 0-.1-.1v-.1h-.4s-.1 0-.1.1h-.1c-.1 0 0-.1-.1 0h-.1s-.1 0 0-.1h-.1v-.1s-.1 0 0-.1h.2s.1 0 0 0h.2c.1 0 0 0 0 0h1.3v-.2h-.1s.1 0 0-.1c.1 0 0-.1 0 0h.1s.1 0 0 0v-.1h-.1s-.1 0 0 0h-1.1v-.1h.1V55s-.1 0 0 0v-.2l-.1-.1v-.1h.1v-.4s-.1 0 0 0h-.5v-.1h-.2V54h-.1s-.1 0 0 0c0 0 .1 0 0 0h-.1v-.1s-.1 0 0-.1h-.1v.1h-.1v.1h-.6v-.1c1.7-.2 1.6-.2 1.6-.3 0 .1 0 0 0 0zm-.4.2zm-1.4.2s-.1 0 0 0c-.1 0 0 0 0 0s-.1 0 0 0c-.1 0-.1 0 0 0-.1 0-.1 0 0 0-.1 0-.1 0 0 0-.1 0-.1 0 0 0-.1 0-.1 0 0 0-.1 0-.1.1-.1 0-.1.1 0 .1.1 0-.1.1-.1 0 0 0-.1.1-.1.1 0 0 0 .1 0 0 0 0zm-.3 0zm.4 0s0 .1 0 0c0 .1-.1.1 0 0 0 .1 0 0 0 0-.1.1-.1 0 0 0-.1.1-.1.1 0 0l-.1.1h.2c-.1 0 0 0-.1-.1 0 .1.1.1 0 0 .1.1 0 .1 0 0 0 .1 0 0 0 0zm1.1 0c-.1.1-.1.1 0 0-.1.1-.2.1-.2.1v.1h.2c-.1 0 0 0 0 0h.1v-.1c-.1.1-.1.1-.1-.1 0 .1 0 .1 0 0 0 .1 0 0 0 0zm-1.1.1s0 .1 0 0c-.1.1-.1 0 0 0h-.1c0 .1 0 .1.1 0-.1.1-.1.1 0 0-.1.1-.1.1 0 0 0 .1 0 .1 0 0 0 .1 0 .1 0 0 0 .1 0 .1 0 0 0 .1 0 0 0 0zm.1.1c0 .1 0 .1 0 0v.2c.1-.1.1-.2 0-.2.1 0 .1 0 0 0 .1 0 .1 0 0 0zm-.3 0s-.1 0 0 0c0 .1 0 .1 0 0 0 .1 0 .1 0 0 0 .1 0 .1 0 0 0 .1 0 .1 0 0l.1.1c0-.1 0-.1-.1-.1.1 0 .1 0 0 0zm1.1.1c-.1 0 0 0 0 0s0 .1 0 0zm-1.7 0c0 .1.1 0 0 0zm-.1 0c0 .1 0 .1 0 0 0 .1 0 .1 0 0 .1.1.1.1.1 0 0 0 .1 0 0 0 .1.1 0 .1-.1 0 .1.1.1 0 0 0 .1 0 0 0 0 0zm.3.1h-.2.2c0 .1 0 0 0 0s.1 0 0 0zm.4 0c0 .1 0 0 0 0 .1.1.1.1 0 0 .1 0 .1 0 0 0 .1 0 0 0 0 0zm-.3 0s-.1 0 0 0c-.1.1-.1.1 0 0-.1.1-.1.1 0 0 0 .1 0 .1 0 0zm1 .1s-.1 0 0 0c-.1 0-.1 0 0 0-.1 0-.1 0 0 0 0 0-.1 0 0 0 .1.1.1.1.1 0h-.1c.1 0 0 0 0 0zm-1.3 0h-.2.2c-.1 0 0 0 0 0s.1 0 0 0c.1 0 .1 0 0 0 .1 0 0 0 0 0zm.6 0c-.1 0-.1 0 0 0l-.1.1h.4c-.1 0 0 0 0 0h-.1c-.1-.1-.1-.1-.2-.1.1 0 0 0 0 0zm.6 0c-.1 0-.1 0 0 0-.1 0-.1.1 0 0 0 .1 0 0 0 0zm-1.3 0s-.1 0 0 0h-.1c0 .1 0 .1.1 0 0 .1 0 .1 0 0 .1.1.1 0 .1.1h.1c-.1-.1-.1-.1-.2-.1zm.3 0c-.1 0 0 0 0 0-.1.1-.1.1 0 0 0 .1 0 0 0 0zm.1 0c-.1 0-.1.1-.1.1l.1-.1c0 .1 0 .1 0 0 0 .1.1 0 0 0zm.7 0c0 .1 0 .1 0 0-.1.1-.1.1 0 0-.1.1-.1.1 0 0 0 .1 0 .1 0 0 0 .1 0 .1 0 0 0 .1 0 0 0 0zm-.6.1s-.1 0 0 0c-.1 0 0 0 0 0-.1 0 0 0 0 0-.1 0-.1 0 0 0-.1.1-.2.1-.1.1v.1c.1 0 0 0 0 0h.2c-.1 0 0 0 0 0h.1v-.1h-.1.3s.1 0 0 0h-.1c-.2 0-.2-.1-.3-.1.1 0 0 0 0 0s0-.1 0 0zm-.5 0h-.1.1c0 .1-.1 0-.1.1.1 0 .1 0 .1-.1 0 0 .1 0 0 0 .1 0 .1 0 0 0 .1 0 .1 0 0 0zm1.8 0c0 .1.1.1 0 0zm.1.1c-.1 0 0 0 0 0zm-.9 0s-.1 0 0 0zm-.8 0c.1 0 .1 0 0 0 .1 0 .1 0 0 0zm.6 0s.1 0 0 0c.1 0 0 0 0 0zm1 0c-.1 0 .1 0 0 0zm-.7 0c-.1 0-.1 0-.1.1l.1-.1c-.1.1 0 .1 0 0 0 .1 0 0 0 0 .1 0 .1 0 0 0zm-1.1 0c.1 0 .1 0 .1.1.1 0 0 0 0 0 0-.1 0-.1-.1-.1.1 0 0 0 0 0zm1.4 0s0 .1 0 0c.1.1.1 0 0 0zm-.7 0c-.1 0 0 .1 0 0 0 .1 0 .1 0 0 .1.1.1.1.1 0h-.1zm-.4 0s0 .1 0 0h-.1c0 .1 0 .1.1 0-.1.1 0 .1 0 .1h.1s-.1 0-.1-.1c.1.1 0 .1 0 0zm-.3 0c0 .1-.1.1 0 0h-.1s-.1 0 0 0c0 0 .1 0 0 0h.3c-.1.1-.1.1-.2 0 .1.1 0 .1 0 0zm.9 0c0 .1-.1.1 0 0l-.1.1h-.2s-.1 0 0 0v.1h.3c0-.1.1-.1 0-.2 0 .1.1.1 0 0 0 0 0 .1 0 0zm1.1.1s-.1-.1 0 0c0 0 .1 0 0 0 .1 0 0 0 0 0zm.2 0s-.1 0 0 0c-.1 0-.1 0 0 0-.1 0-.2.1-.1.1l.1-.1c-.1 0-.1 0 0 0 0 .1 0 0 0 0l.1.1c0-.1 0-.1-.1-.1zm-.3 0s-.1 0 0 0c-.1 0-.1 0 0 0l-.1.1h.1s.1 0 0 0h.1c-.1 0 0-.1-.1-.1zm-.8 0s-.1 0 0 0c0 .1 0 0 0 0zm.1 0c.1.1 0 0 0 0zm-.8 0c0 .1 0 .1 0 0 0 .1 0 .1.1.1h.3v-.2s.1 0 0 0h-.1s-.1 0 0 0h-.1c0 .2-.1.2-.2.1.1.1.1.1 0 0zm.6 0c0 .1 0 .1 0 0 0 .1 0 .1 0 0 0 .1 0 .1 0 0zm1.2.1c.1 0 0 0 0 0h-.1.1c0 .1 0 .1 0 0h-.1c.1 0 0 0 0 0 0-.1 0 0 0 0v-.1h-.2v.2h.2c.1 0 0 0 0 0h-.3v.1h.1s.1 0 0 0h-.2s-.1 0 0 .1v.1c0 .1 0-.1 0 0v.2h.1s0 .1.1.1h.1s.1 0 .1-.1h-.3.2s0 .1 0 0h.5v-.1h.1c.1 0 0 0 0-.1h.2v-.1h-.2c-.1 0 0 0 0 0h.1s0 .1 0 0h.3s0-.1.1-.1V55h-.1s0-.1-.1 0c0 0 0-.1 0 0h-.2v.3s0 .1-.1.1v-.2l.1-.1V55s-.1 0 0 0c-.4-.1-.4-.1-.5-.1.1 0 .1 0 0 0 .1 0 0 0 0 0zm-1.9 0c-.1 0 0 0 0 0l-.1.1h.2s.1 0 0 0v-.1h-.1zm.8 0c.1 0 0 0 0 0s-.1 0 0 0c-.1 0-.2.1-.2.1s-.1 0 0 0h.2c-.1 0-.1-.1 0-.1 0 .1 0 0 0 0s.1 0 0 0c.1 0 .1 0 0 0zm-1 0s-.1 0 0 0c-.1 0 0 0 0 0zm-.1 0c-.1 0-.1 0 0 0-.1.1 0 .1 0 0-.1.1 0 .1 0 .1v-.1l.1.1s0-.1 0 0c0-.1-.1-.1-.1-.1zm.8 0s-.1 0 0 0c0 .1-.1.1 0 0-.1.1 0 .1-.1.1h.2c.1 0 0 0 0 0s-.1 0 0 0l-.1-.1v.1c-.1 0 0 0 0-.1 0 .1 0 .1 0 0 .1.1.1 0 0 0 0 0 0 .1 0 0 0 .1 0 0 0 0zm-1 .1c.1 0 0 0 0 0s.1 0 0 0c.1 0 .1 0 0 0 .1 0 .1 0 0 0zm1.4 0c.1.1 0 0 0 0-.1.1 0 .1 0 0v.1c.1 0 .1 0 0-.1.1.1.1 0 0 0 .1 0 .1 0 0 0zm-1.1 0s-.1 0 0 0c-.1 0-.1 0-.1.1V55h-.3v.1h.3s.1 0 0 0h-.1s-.1 0 0 0h.4c-.1 0-.1 0-.2-.1 0 .1 0 0 0 0zm.2 0c0 .1 0 .1 0 0 0 .1 0 .1 0 0 .1.1.2.1.2.1h-.2.4V55h-.3c0 .1 0 .1-.1 0zm.8.1c.1.1 0 0 0 0s0 .1 0 0c.1.1.1.1 0 0 .1.1.2.1.2.1-.1-.1-.1-.1-.2-.1zm-.2 0s-.1 0 0 0c0 .1 0 .1 0 0 0 .1 0 .1 0 0zm-.1 0s-.1 0 0 0c-.1 0-.1.1 0 0 0 .1 0 .1 0 0 .1.1 0 .1 0 0zm.2 0c0 .1 0 .1 0 0 .1 0 0 0 0 0zm.7 0s-.1 0 0 0c0 .1-.1.1 0 0 0 .1-.1.1 0 .1v-.1c-.1.1 0 .1 0 0zm-1.5 0c0 .1 0 .1 0 0-.1.1-.1 0-.1 0h-.2.4c.1 0 0 0 0 0 0 .1 0 .1-.1 0 .1.1.1.1 0 0 .1.1.1.1 0 0zm.9.1s-.1 0 0 0h-.2s.1 0 0 .1c0 0 0-.1-.1 0 0 0-.1 0 0 0 0 0 .1 0 0 0h.5s.1 0 0 0c0 0-.1 0 0 0h-.2.1s.1 0 0 0c0 0 .1 0 0 0h-.1c.1 0 0-.1 0-.1l.1.1c0-.1 0-.1-.1-.1zm-.4.1c-.1 0-.1 0 0 0-.1 0 0 0 0 0s0 .1 0 0zm-1.5 0c0 .1 0 .1 0 0v.1h.1s-.1 0 0 0v-.1c0 .1 0 0-.1 0 .1 0 .1 0 0 0zm1.4 0s-.1 0 0 0h-.8s-.1 0 0 0h-.1.3s.1 0 0 0h-.3v.1h.6v-.1.1h.2s.1 0 0 0c.2 0 .2 0 .1-.1.1 0 0 0 0 0zm-1.1.1c0 .1 0 .1 0 0-.1.1-.1.1 0 0-.1.1 0 .1 0 .1s.1 0 0 0c0 0 .1 0 0 0h.2v-.1h-.2c.1 0 .1 0 0 0 0 0 .1 0 0 0zm1.3.1s-.1 0 0 0c-.1 0-.1 0 0 0 0 .1 0 0 0 0 .1 0 .1 0 0 0 .1 0 0 0 0 0zm.4 0h-.2v.1h.3c-.1 0 0 0-.1-.1.1.1.1 0 0 0zm-1.4.1h-.1.1c-.1.1 0 .1 0 .1h.3s.1 0 0 0h-.2c0-.1 0-.1-.1-.1.1 0 .1 0 0 0zm1.1 0s-.1 0 0 0c-.1 0-.1 0-.1.1h.1s.1 0 0 0h-.2v.1h.3c-.1-.1-.1-.1-.1-.2 0 .1 0 0 0 0zm-.3 0s-.1 0 0 0c-.1 0-.1.1-.1.1h-.2.4c-.1 0-.1 0-.1-.1.1.1.1.1.1 0h-.1zm.4.1s.1 0 0 0c0 0 .1 0 0 0 .1.1.2.1 0 0 .1 0 .1 0 0 0zm-2.3 0s0 .1 0 0c0 .1-.1.1 0 0v.1h.2v-.1h-.1c0 .1 0 .1-.1 0 .1 0 0 0 0 0zm1.6.1c-.1 0-.1.1-.1.1v.1h-.2s.1 0 0 0h.7s.1 0 0 0h-.1.3c-.5-.2-.5-.2-.6-.2zm-.2 0c0 .1 0 .1 0 0 .1.1 0 0 0 0zm1.3 0s0 .1 0 0c0 .1.1 0 0 0zm-1.3.1s-.1 0 0 0h-.2s-.1 0 0 0c0 0 .1 0 0 0h.2c-.1 0 0 0 0 0zm1.4 0s0 .1 0 0c0 .1 0 .1 0 0zm-.4 0c-.1 0 0 .1 0 0 0 .1 0 .1 0 0 .1.2 0 .1 0 0 .1.1 0 .1 0 0 .1 0 0 0 0 0zm-1.6 0c0 .1 0 .1 0 0 .1.1.1.1 0 0 0 .1 0 0 0 0zm1.4 0c0 .1 0 0 0 0h-.2c-.1 0 0 .1-.1 0h-.4v.1c0 .1 0 .1.1.1s0-.1 0-.1c0-.1 0-.1 0 0v.1s0 .1.1.1h.2s-.1.1 0 .1h.2c-.1 0-.2 0-.1.1h.3l.1.1s.1 0 0 0h.1v-.1s.1 0 0 0h.1c0-.1-.1 0 0 0v-.2c0-.1 0 0 0 0-.3-.1-.3-.2-.4-.3.1.1.1.1 0 0 0 .1 0 .1 0 0 0 .1 0 0 0 0zm.5.1c-.1 0 0 0 0 0 .1 0 0 0 0 0zm-1.8 0zm1.9 0s0 .1 0 0c.1.1 0 0 0 0s.1 0 0 0zm.1 0s0 .1 0 0c0 .1-.1.1 0 0-.1 0-.1.1 0 .1h.1c0 .1 0 0-.1-.1.1.1.1.1 0 0 0 .1.1.1 0 0zm-.2.1s-.1 0 0 0c0 .1.1 0 0 0 0-.1 0 0 0 0zm-1.4 0s0 .1 0 0c-.1 0-.1 0 0 0 0 .1-.1.1-.1.1h.3v-.1s0-.1-.1 0c0 0 0 .1 0 0 0 .1-.1.1-.1 0 0 .1.1.1 0 0 .1 0 .1.1.1.1s.1 0 0 0c0-.1 0-.1-.1-.1zm1.4.2c.1 0 0 .1 0 0 0 .1.1.1.1.1.1-.1 0-.1-.1-.1.1 0 0 0 0 0zm-1.4 0v.2s.1 0 .1.1h.1s0-.1-.1-.1h.1c.1 0 0-.1 0-.1.1 0 0 0 0 .1 0 0-.1.1 0 .1v.1s.1 0 .1-.1v-.1c-.1 0 0 0 0 0v-.1h-.3c.1-.1 0-.1 0-.1zm-.3 0c-.1.1 0 .1 0 .1.1 0 .1 0 0-.1.1 0 .1 0 0 0 .1 0 .1 0 0 0zm.8.1h-.1s-.1 0 0 0v.1s.1 0 0 0v.1c0-.1 0 0 .1 0h.4s.1 0 0-.1v-.1h-.4c.1 0 .1 0 0 0zm.9 0s-.1 0 0 0c0 .1-.1.1-.1.1.1 0 .1 0 .1-.1 0 .1.1 0 0 0 .1 0 0 0 0 0zm.2 0s-.1.1 0 0c0 .1 0 .1 0 0 .1.1.1.1 0 0 .2 0 .1 0 0 0 .1 0 .1 0 0 0zm-.1 0c-.1.1 0 .1 0 0zm-1.9.1c.1 0 .1 0 0 0 .1 0 0 0 0 0 .1 0 .1 0 0 0zm1.8 0h-.1c0 .1.1 0 .1 0 .1.1.1 0 0 0 .1 0 .1 0 0 0zm-1.5 0h-.1s-.1 0-.1.1h.4s0-.1-.1-.1v-.1c0 .1 0 .1-.1.1.1 0 .1 0 0 0zm.4 0c0 .1 0 .1 0 0-.1.1 0 .1 0 0 .1.1.1.1 0 0 .1.1.1 0 0 0zm-.2.1s.1 0 0 0l.1.1c0-.1 0-.1-.1-.1.1 0 .1 0 0 0zm-.5 0c.1 0 0 0 0 0zm.9 0c.1.1.1.1.1 0h-.1zm.4 0h-.3s-.1 0 0 0h.1c.1 0 .1.1.1 0 .1 0 0 0 0 0 0 .1.1.1.1 0 .1.1.1 0 0 0 .1 0 .1 0 0 0zm-.5.1c-.1 0-.1 0 0 0zm.8 0c-.1 0-.1 0 0 0l-.1.1v.4h.1l.1.1h.1s.1 0 .1-.1v-.1h-.1s-.1-.1 0 0h.1s.1 0 0 0v-.4h-.3zm-.6 0s-.1 0 0 0c.1.1 0 0 0 0l-.1.1h-.1s.1 0 0 0c0 0 0 .1.1 0-.1 0 0 0 0 0s0-.1 0 0h.1c.1 0 0 0 0 0h.1s.1-.1 0 0c0 0-.1 0 0 .1h.1s0-.1.1-.1v-.1h-.3c.2 0 .1 0 0 0zm-.7.1s-.1 0-.1.1v.1c.1 0 0 0 0 0l.1.1s.1.1.1 0V57c-.1-.1-.1-.1-.1-.2 0 0 .1 0 0 0zm.1 0c-.1 0-.1 0 0 0-.1.1-.1.1-.1.2 0 0 0 .1.1.1h-.1c.1 0 0 0 .1.1 0 0-.1 0 0 .1 0 0-.1 0 0 0 0 0 0 .1.1 0 .1 0 0-.1 0 0h.2v-.1s-.1 0 0-.1h-.2c-.1 0 0 0 0 0h.1s-.1 0 0-.1c0-.1 0 0-.1 0s-.1 0 0 0c0 0 .1 0 0-.1 0-.1 0-.1-.1-.1zm.3 0c-.1 0 0 .1 0 0l.1.1c0 .1 0 0-.1-.1 0 0 .1.1 0 0 0 .1 0 0 0 0zm.4.1c-.1 0-.1 0 0 0-.1 0-.1.1-.2.1v.1s0 .1.1.1h.1c.1 0 .1-.1.1 0v-.3c0 .1-.1 0-.1 0zm-1 .1c-.1.1-.2.1-.2.1v.2h.2v-.2s.1 0 0-.1c.1 0 .1 0 0 0zm-.5.1s.1 0 0 0c.1 0 .2 0 0 0 .1 0 .1 0 0 0zm.6 0s.1 0 0 0c.1 0 0 0 0 0zm1.2 0c0 .1.1.1.1.1h.1s-.1 0 0 0c-.1-.1-.2-.1-.2-.1zm-1.8 0c.1.1.1.1 0 0 .1.1.1.1.2.1v-.1l-.1-.1c0 .1 0 .1-.1.1zm-.1 0c0 .1.1 0 0 0 .1 0 0 0 0 0zm.8 0c-.1 0-.1.1 0 0-.1.1 0 .1 0 0 0 .1 0 0 0 0zm.3.1s0 .1 0 0c-.1.1-.1.2 0 .2h.2c.1 0 0 0 0-.1h-.1l-.1-.1c0 .1 0 .1 0 0 .1 0 .1.1.1 0h-.1zm-.4 0s-.1.1 0 0c0 .1 0 0 0 0zm.8 0s0 .1 0 0c0 .1 0 .2 0 0 0 .1-.1 0-.1.1v.1c0 .1 0-.1.1 0 .1 0 0 0 0 0v.1s0 .1.1 0v-.3h-.1zm.3.1c-.1 0-.1.1 0 0 0 .1-.1.1-.1.1.1 0 .1 0 .1-.1.1.1.1.1.1 0h-.1zm-1.1 0s-.1 0 0 0l-.1.1c.1 0 .2 0 .1-.1.1 0 0 0 0 0zm.3 0h-.1c0 .1 0 0 .1 0zm1 0s-.1 0 0 0c-.1.1-.2.1-.2.1h-.1c-.1 0-.1 0-.1.1 0 0 0 .1.1.1h.1v-.1h.1s.1-.1 0-.1h.2c.1 0 0 .1-.1-.1.1.1.1 0 0 0 .1 0 0 0 0 0zm-.5.1h-.1c0 .1 0 .1.1 0 0 .1 0 .1 0 0zm.5.1c-.1.1-.1.1-.1.2h.2v-.2h-.1c.1 0 0 0 0 0-.1.1 0 0 0 0s.1 0 0 0zm-.4.1c.1.1.1 0 0 0zm.2 0c-.1 0-.1.1 0 0-.1.1-.1.2 0 .2h.1c0 .1.1 0 .1 0h-.1.1s.1.1.1 0c0 0 .1 0 0-.1-.1 0 .1 0 0 0v-.1l-.1-.1c-.1 0-.1-.1-.1 0 0 0 0 .1 0 0h-.1c.1.1 0 .2 0 .1zm3.2.1zm-3.3.1s0 .1 0 0c0 .1.1.1 0 0zm-2.1 1.1l.1.1c0-.1 0-.1-.1-.1zm0 .1c-.1 0 0 0 0 0l.1.1c0-.1 0-.1-.1-.1zm.9.1c-.1 0 0 0 0 0 .1 0 .1.1.1.1h.2-.2c0-.1 0-.1-.1-.1zm1 .3s.1 0 0 0c0 .1 0 0 0 0h-.2v.2h.2s.1 0 .1-.1l-.1-.1c.1.1.1 0 .1 0h-.1c.1-.1.1 0 0 0zm-.4 0s-.1 0 0 0c-.1 0-.2 0-.2.1 0 0-.1 0 0 .1 0 0 .1 0 .1.1v.1h.1s0-.1.1-.1c0 0 0-.1.1-.1-.2-.1-.2-.1-.2-.2.1 0 .1 0 0 0zm.2.2c-.1 0-.1 0 0 0zm-.2.7c0 .1-.1.1 0 .1 0 0-.1 0 0 0v-.1c0 .1 0 0 0 0zm-1.2.2c0 .1-.1.1 0 0 0 .1 0 .1 0 0-.1.1-.2.1 0 0 0 .1-.2.1-.2.1s-.1 0 0 0h-.1s-.1 0 0 0h-.2v.1h.3s.1 0 0 0c0 0-.1-.1 0-.1h.1v.1h.2s.1 0 0 0h-.3.1c.2-.1.1-.1.1-.2 0 .1 0 .1 0 0 0 .1 0 0 0 0zm.1 0c-.1.1-.1.1 0 0v.1h.2v-.1h-.1s-.1 0 0-.1c0 .1-.1.2-.1.1zm.2.1c0 .1 0 .1 0 0 .1 0 0 .1 0 0zm1.3 0c-.1.1-.1.1 0 0 .1 0 .1.1.1.1.1 0 0 0-.1-.1 0 .1 0 .1 0 0h-.3c-.1 0 0 0 0 0s.1 0 .1.1h-.2s-.1 0-.1.1c0 0-.1 0 0 0h-.1.2c.1 0 .1 0 .1.1h.7s-.1.1 0 0h.1s.1 0 .1-.1v-.1h-.5c0-.1 0-.1-.1-.1zm-.5 0c0 .1 0 .1 0 0l-.1.1v.1s.1 0 .1-.1h.1c-.1 0 0 0-.1-.1.1.1 0 .1 0 0zm1.2 0c.1.1 0 .1 0 0-.1.1-.1.1 0 0 0 .1 0 .1 0 0 .1.1.1.1 0 0 .1 0 .1 0 0 0zm.2.1c-.1 0-.1 0 0 0 0 0 .1.1 0 0 0 0 .1 0 0 0zm-1.9 0s.1 0 0 0c.1 0 .1 0 0 0zm1.4 0s-.1 0 0 0c0 0 .1 0 0 0zm-1.3 0c0 .1-.1 0 0 0l-.1.1s.1.1 0 0c0-.1 0 0 .1 0h.1c-.1 0 0 0-.1-.1.1 0 .1.1 0 0l.1.1h.1v-.1h-.2zm-.3 0c0 .1-.1.1 0 0 0 .1.1.1 0 0 0 .1 0 .1 0 0 0 .1-.1.2 0 0 0 .1-.1.1 0 0 0 .1-.1.1-.1.1.1 0 0 0 0 0v.1h.3v-.1h-.1s.1 0 .1-.1c-.1 0 0 0 0 0v-.1c-.1.2-.1.1-.2.1.1.1 0 .1 0 0zm1.8.1c-.1.1 0 .1 0 .1s.1 0 0 0h-.1.2s.1 0 0 0v-.1c.1 0 0 0 0-.1 0 .1 0 .1-.1.1zm-1.9 0s-.1 0 0 0zm-.1 0s0 .1 0 0c.1.1 0 0 0 0zm-.1 0s0 .1 0 0c0 .1 0 .1 0 0 0 .1 0 .1 0 0zm0 0c-.1.1-.1 0 0 0-.1.1-.1 0-.1 0-.1.1 0 .1.1 0-.1.1 0 .1 0 0 0 .1 0 0 0 0zm.6.1c-.1 0 0 0 0 0 0 .1.1 0 0 0zm-.5 0s-.1 0 0 0v.1c.1 0 .1-.1 0-.1zm.7 0c-.1 0-.1 0 0 0-.1 0-.1.1 0 0-.1.1 0 .1 0 .1-.1-.1 0-.1 0-.1zm-.8 0c-.1 0-.1 0 0 0-.1.1-.1.1-.2.1h-.1.1s.1 0 .2-.1c-.1.1-.1 0 0 0zm1.8 0s.1 0 0 0c.1.1.1 0 0 0 .1.1.1 0 0 0zm-1.4 0v.1s.1 0 .1.1c0 0-.1 0 0 0h.1V61l-.2-.1c.1.1.1 0 0 0 .1.1.1 0 0 0zm-.4 0c-.1.1 0 .1 0 0-.1 0-.2.1-.2.1h-.1c.1 0 0 0 0 0-.1 0 0 0 0 0h.1s.1 0 0 0h-.2s-.1 0 0 0h.5s.1 0 0 0c0 0 .1 0 0 0h-.3s-.1 0 0 0c0 0 .1 0 0 0h.4s-.1 0-.1-.1h-.1.4s0-.1-.1-.1h-.2c0 .2.1.2-.1.1.1.1.1.1 0 0zm-.1.1zm2.4 0c0 .1 0 .1 0 0 0 .1 0 .1 0 0 .1.1.2.1.2.1V61c-.2.1-.2 0-.2 0zm-1.8.1s-.1.1 0 0c0 .1 0 .1.1.1l-.1-.1zm-.9 0c-.1 0-.1 0 0 0-.1.1-.1.1-.1.2l-.1.1v-.1c0-.1 0 0 0 0 0-.1-.1.1 0 0h-.1v.2s0 .1 0 0c.1 0 0 0 0 .1l.1.1-.1.1v.1s.1 0 0 0c.1 0 0 0 0 0h.1s.1 0 0 0c.1 0 0 0 0 0h-.2c-.1 0 0 .1 0 .1h.1s.1 0 .1-.1h.1v-.1s.1 0 0 0c0 0-.1.1 0 .1s.1.1 0 .1v.3h.1s-.1 0 0 0h.1s-.1.1 0 0v.1h.2s.1 0 .1-.1v-.2h-.1c0-.1 0 0 0 0l-.1-.1s0-.1-.1 0l-.1.1s-.1 0 0 0V62s0-.1 0 0v-.1h-.1s.1 0 .1-.1v-.1s0-.1-.1 0v-.1s0-.1 0 0c0 0-.1 0 0 0v-.1s-.1 0 0 0c0-.1-.1 0 0 0l-.1-.1c.2-.2.2-.2.2-.3 0 0-.1.1 0 0zm.3 0s-.1 0 0 0c-.1 0-.2.1-.2.1.1 0 .1 0 .2-.1 0 .1 0 .1 0 0-.1.1-.1.1 0 0 0 .1 0 .1 0 0 .1 0 0 0 0 0zm.5.1s.1 0 0 0c.1.1.1 0 0 0 .1 0 .1 0 0 0zm-1 0zm.4 0c-.1 0-.1.1 0 0 0 .1 0 .1 0 0 0 .1 0 .1.1.1 0 0 .1 0 0 0s-.1.1 0 0c0 0 .1 0 0 0 .1 0-.1 0 0 .1.1 0 0 0 0 0h.1s.1 0 0 0c0 0-.1 0 0 0 0 0 .1 0 0 0h-.1.2c-.1 0 .1 0 0 0h-.2v.1s0 .1.1 0c0 0 .1 0 0 0s0 0 0 .1h.1s-.1 0 0 .1c0 0 0 .1.1.1 0 0 .1 0 .1-.1h.1l.1-.1h.1v-.2c-.1 0 0 0 0 0h-.1s-.1.1 0 0c0 0 0-.1.1-.1h.1s-.1 0 0 0c0 0 .1 0 0 0h-.1l-.1.1s-.1 0-.1.1h.2l.1-.1h-.1v.1l-.1.1h-.3.1s.1 0 0 0h-.2c-.3-.3-.3-.4-.3-.4zm1 0c0 .1 0 0 0 0s.2.1.1.1-.1 0-.1-.1c0 .1 0 .1 0 0 0 .1.1.1.1.1h-.1v.1s0-.1.1-.1c0 0 .1 0 0 0h-.1v.3h.2l.1-.1s-.1 0 0-.1h-.1v-.1h-.1s0-.1-.1-.1c0 .1 0 0 0 0zm-.5.1s.1.1 0 0c.1 0 .1 0 0 0 .1 0 .1 0 0 0zm.3 0s-.1 0 0 0v.2c-.1 0 0 0 0 0s-.1 0 0 .1v.1l.1.1s.1 0 0 .1h.1v.1h-.1v.1s0-.1-.1 0v-.2h-.1v.1c0-.1 0 0-.1 0l-.1.1s0 .1-.1.1v.3h.1v-.1.1h.4l.1.1h.3c.1 0 .1 0 .1-.1v-.1h-.1c0 .1 0 0 0 0s0 .1 0 0c0 0 0 .1 0 0h-.1s-.1 0 0 0v-.3s0-.1-.1 0c0 0-.1 0 0 0h.2V62c0-.1-.1 0 0 0h-.1v-.1s-.1 0 0 0h.1c-.5-.6-.4-.6-.5-.6zm.6.2l-.1.1h.2c.1 0 0 .1 0 0h-.3s-.1 0 0 0h.3c.1 0 0 0 0 0h.1c.1 0 .1 0 .1-.1h-.1v-.1c-.1.2-.1.2-.2.1.1 0 .1 0 0 0zm.3.1c-.1 0-.1 0 0 0-.1.1-.1.1 0 0v.1h.2v-.2h-.1l-.1.1zm-.5.1c0 .1.1.1.1.1v.1s.1.1.1 0h.1s.1 0 0-.1h-.2c0-.1-.1-.1-.1-.1zm-1.8 0c0 .1 0 .1 0 0 .1.1 0 0 0 0zm1.8.1s-.1 0 0 0c0 .1 0 0 0 0zm-1.4 0s0 .1 0 0c0 .1-.1.1 0 0h-.1c-.1 0-.1 0 0 0h-.2v.1s-.1 0 0 0v.1s-.1 0 0 0v.1h.2s.1 0 .1-.1c0 0 .1 0 .1-.1-.1 0-.1 0-.1.1h.1l.1-.1s.1-.1 0 0l-.1.1s-.1 0 0 0h-.2.3c.1 0 0 0 .1-.1 0 0 .1 0 .1-.1v-.1s-.1 0 0 0c0 0-.1 0 0 0h.1c-.4.3-.4.2-.5.1.1.1.1 0 0 0v.1s-.1 0 0 0v-.1c.1 0 0 0 0 0zm1.3.1c-.1.1-.1.1 0 0 0 .1 0 0 0 0zm-1.2.2c-.1 0-.1.1-.1.1s-.1 0-.1.1h-.2v.2s0 .1.1 0h.1s.1 0 .1-.1c0 0 .1-.1 0 0 0 0 .1 0 0-.1l.1-.1v-.1c0 .1 0 0 0 0zm.1.1c-.1 0-.1 0 0 0-.1.1-.1.1-.1.2h.1v-.2z"/><path id="Magallanes_3_" class="st2" d="M196.8 62.1c-.1.1 0 .1 0 0l.1.1-.1-.1c0 .1 0 .1 0 0-.1.1-.1.1 0 0v.2h.1c.1 0 .1-.1.1-.1h.1c-.2 0-.2 0-.3-.1 0 .1 0 .1 0 0 0 .1 0 .1 0 0 0 .1 0 .1 0 0zm-.1 0s0 .1 0 0c-.1 0-.1.1-.1.1-.1 0 0 0 0 .1h-.1c-.2 0-.1.1 0 .1h.1v-.2c.1 0 .1-.1.1-.1zm.4.1c-.1.1 0 .1 0 .1h-.1v-.1c.1.1 0 .1.1 0h-.2s-.1 0 0 0h-.1v.1h.1l.1-.1h-.5.1l-.1.1h.4s-.1 0-.1-.1h-.1.3s-.1 0 0 0v.1h.1v.1h-.8.6-.2s.1 0 0 0h-.2s.1 0 .1-.1l-.1-.1c-.1 0-.1-.1-.1 0l-.1-.1s-.1.1-.1 0c0 0 .1 0 .1-.1h-.1s-.1.1 0 .1v.1s0 .1.1.1c0 0 0-.1.1-.1v.1s-.1.1 0 0h.1v.1h-.2.3l.1-.1h.1s-.1 0-.1.1c0 0 .1 0 0 0h-.1.2v.1s-.1 0 0 0l.1.1v.1h-.1v.2h.1s.1 0 .1-.1v.2h-.1.1v-.4c-.1 0-.1 0-.1-.1v-.2.2s0 .1 0 0v-.2h-.2s-.1 0 0 0h.2v-.1h.1v-.1.1s0 .1 0 0v-.1h.1V62h-.1.2l.1-.1h-.2v.1h-.1l-.1.1v.1h.1c0-.1 0 0 0 0h-.4.1v.1s.1.1.1 0v-.1h.1v.1h-.1.2s-.1 0-.1.1c0 0-.1 0-.1.1h-.2v.1h.4c-.1 0-.1-.1-.1 0 0 0-.1 0-.1.1h-.1.2s0-.1 0 0c0 0-.1 0 0 0 0 0 .1 0 .1-.1h-.1s-.1 0-.1-.1v.1h.2s.1 0 .1-.1h.1v-.2h-.1.2v-.2h-.2v.1s-.1 0 0 0c0 0 .1 0 0 0v-.1h.1v-.2h-.1s.1 0 0 0v-.4c0-.1.1 0 0 0s0-.1 0-.1v-.2l-.1-.1V61h-.1.1v-.1h-.1v-.4c.3 1.7.3 1.7.2 1.7.1 0 .1 0 0 0zm.9 0h-.3l.1.1h.2s-.1 0-.1-.1c0 0-.1 0-.1-.1v.1s-.1 0 0 0v.1h.1s-.1 0 0 0v.1h-.1v.1l.1.1h.1v.1s-.1 0 0 0v.4h.1l.1.1v.1h.1s.1 0 0 0v-.4s0-.1-.1-.1c.1 0 0 .1.1 0 .1 0 .1-.1.1-.1s.1 0 .1.1h.1c.1 0 .1 0 .1.1 0 0-.1-.1-.2-.1s-.1 0-.1-.1h-.1v.3h.4v.1c0 .1.1 0 .1.1 0 0 .1 0 .1.1h.1c-.1 0-.1 0-.1.1v.1s0-.1-.1-.1c0-.1-.1 0-.1 0l-.1-.1c-.1 0-.1-.1-.1-.1v-.1h-.1s0 .1-.1.1v-.1s0-.1-.1-.1h-.3v.1h-.1s.1 0 0 0v.1h.5s0 .1-.1.1c0 0 .1 0 0 0h-.3v.1h-.1.3v-.1s-.1 0 0 0h.3s0 .1-.1.1h-.1s0-.1-.1-.1c0 0-.1-.1-.1 0 0 0 0-.1 0 0h-.1v-.1h-.1s.1 0 0 .1c0 0 0 .1.1.1h.2s0 .1-.1.1h.6s.1 0 0 0h-.3v-.1h-.1s-.1 0 0 0c0 0 .1 0 0 0s-.1-.1 0-.1c0 0-.1 0-.1-.1h-.1s.1 0 .1-.1c0 0-.1 0-.1-.1 0 0-.1 0 0 0 0 0-.1 0-.1-.1h-.3.3-.1s.1 0 0 .1c-.1 0 .1-.1 0-.1s-.1.1-.2.1v.1c0 .1.1 0 .1 0 .1 0 0 .1 0 .1h.1c-.1.1 0 .1.1.1h-.1.1c0 .1.1 0 .1.1.1 0 0 0 .1-.1.1 0 0-.1 0-.1h-.1v.1s.1 0 0 0h.2s0-.1.1 0c0 .1 0-.1.1-.1h.1c.1 0 .1 0 0 0 0 0-.1 0-.2.1 0 0-.1 0 0 0 0 0 .1 0 .1.1 0-.1 0 0 0 0s0 .1.1.1h.1-.1l-.1-.1h-.1v-.1h-.1v.1h.2v.1h-.1s-.1 0 0 0v.1s.1 0 .1.1c0 0 0 .1.1.1 0 0 .1 0 0 0v-.1h.1s-.1 0-.1.1c0 0 .1 0 0 .1h.2s0-.1.1-.1h.1c.1 0 0 0 .1-.1v-.2s-.1-.1 0-.1v-.2h.1v-.1h.1V63v.3h-.2l.1.1s0 .1.1.1h.3s.1 0 0 0h-.2v.1s-.1 0-.1-.1h-.1s0-.1-.1-.1h-.2v.3h-.1v.1h.1v.1h-.1v-.1h-.7c-.1 0 0 .1 0 .1v.2h.1V64s.1 0 .1-.1c0 0 .1 0 0 0 0 0 .1 0 0 .1h-.2s0-.1 0 0v.3h.1v-.1h.1s.1 0 0 0v.2s.1.1.1 0l.1-.1s.1 0 .1-.1l-.1-.1V64s.1 0 .1.1c.1 0 0 0 0 .1 0 0-.1 0 0 .1.1 0 0 .1 0 .1.1.1-.1.1 0 .1v.2h-.1s.1 0 .1.1c0 0 .1.1 0 0-.1 0 0-.1-.1-.1 0-.1-.1-.1-.1-.1s-.1-.1 0 0c-.1 0 0-.1-.1-.1 0 0-.1-.1-.1 0 0 0 0-.1-.1 0v.1c.1 0-.1 0 0 0s0 .1 0 .1c-.1 0 0 .1 0 0 0 0 0 .1.1 0h.1c-.1 0-.2 0-.1.1h-.1s0 .1.1.1h.1c0 .1.1 0 .1 0 .1 0-.1 0 0 .1 0 0-.1 0 0 0 0 0 .1 0 0 0 0 0 .1.1.1 0v-.2.1h.2s-.1 0-.1.1h-.1v.1s.1 0 0 0c0 0 .1 0 .1.1-.1.1.1.1.1.1v.1l.1.1v.1h-.1s0-.1-.1-.1 0 0 0-.1c-.1 0 0-.1-.1-.1v-.1s0-.1-.1 0c-.1 0 0 .1 0 .2v.1c0 .1.1.1.2.1s.1 0 .1.1l.1.1s.1 0 .1-.1v-.1s-.1-.1 0-.1v-.2s-.1-.1 0-.1v-.1s0-.1-.1-.1v-.1.1c0 .1.1.1.1.2v.1s.1.1 0 .1v.1c.1 0 0 0 0 0h.1v-.3h.3s.1 0 0-.1c0 0-.1-.1-.1 0v.1h-.3.1c.1 0 .1 0 .1-.1V65s-.1-.1-.1 0h-.1s.1-.1.1 0l.1.1V65h-.3s.1 0 0-.1h-.1v-.1l.1.1v.1l.1.1h.1l.1.1s.1 0 .1.1h.2l.1.1.1.1h.2l.1-.1v-.1h-.2l-.1-.1h-.1c-.1 0 0 0 0 0h-.1c0-.1-.1 0-.1 0v.1s-.1.1-.1 0c0 0 .1 0 .1-.1v-.1h-.1c-.1.1-.1 0-.1 0s-.1.1-.1 0V65h.3v.1h.1c.1 0 .1.1.1.1h.2s0 .1.1.1c0 0 0 .1.1.1h.1l.1.1s-.1 0 0 .1c0 0 .1 0 0 .1 0 0-.1.1-.1 0-.1 0 0 0 0 0h-.1v.2l.1.1.1.1s.1 0 .1.1h-.1v.2s0 .1-.1.1h.1s0-.1-.1-.1h-.2c-.1 0-.1.1-.2.1h-.1.3l.1-.1.1.1v-.4l-.1-.1s0-.1-.1-.1v-.1l-.1-.1h-.1v.2h-.1v.2h.1s.1 0 .1-.1-.1 0 0-.1v-.1h.1v.3h-.2V66h-.2c-.1 0-.1 0 0 0h.1c.1 0 0-.1 0-.1v-.1s-.1 0-.1.1h-.2v.2h-.1c0-.1-.1-.1-.2-.1.1 0 0 .1-.1.1V66h-.1v-.1c-.1 0 0-.1-.1-.1 0 0 .1 0 0 0h-.1v.2l.1.1h.1v.1h-.1l.1.1c-.1 0 0 0 0 0h-.1v.1h.1c0 .1.1-.1.1 0 0 0-.1 0 0 .1h-.1c-.1.1.1.1.1.1h-.1v.1s-.1 0-.1.1c0 0 .1 0 0 0v.1c.1 0 .1 0 0-.1h.1s-.1 0 0 0v-.1h.1c.1 0 0-.1.1 0 .1 0 0 0 0 0s0 .1.1.1c0 0 .1 0 .1-.1h-.1v-.2s0 .1.1.1h.1s0 .1-.1.1c0 0 .1.1.1 0v.1h-.2s0-.1 0 0c0 0 0 .1 0 0-.1 0 0 0 0 0h-.1v.1h.5v.1h-.2.1s.1 0 0 0h-.3.3s.1 0 0 0c0 0 .1 0 0 0 0 0-.1 0 0 .1 0 0 .1 0 .1.1h.1s.1 0 0-.1c0 0 .1.1.1 0 0 0 .1 0 0-.1v-.3h-.1.1s.1 0 .1-.1h.1s.1 0 .1-.1l.1-.1.1-.1v-.1h-.2l-.1.1s0 .1-.1.1c0 0 0-.1.1-.1V66h.3c.1 0 .1 0 .2-.1 0 0 0 .1-.1.1h.2l.1-.1h.1v.1s-.1 0 0 0h.2c.1 0 .1-.1.1-.1h.9l.1.1s.1 0 .1.1l.1.1v.1s.1 0 .1.1h.2s.1 0 .1.1v.2h-.1l-.1.1s0 .1-.1.1h-.1l-.1.1h-.3c-.1 0 0 .1-.1.1h-.1v.1s0 .1.1.1v.2l-.1.1c-.1 0-.1 0-.2.1 0 0-.1 0 0 0l.1-.1h.1c.1 0 .1 0 .1-.1.1 0 0-.1 0-.1v-.3h-.2v.2s-.1 0-.1.1h-.2.1v-.1c.1 0 0 0 0 0v-.2h-.2s-.1.1-.2.1v.1c.1 0-.1 0 0 .1 0 .1.2.2.3.3.1 0 .1.1.2.1s.1-.1.1 0c0 0 .2-.1.1 0 0 0 0 .1.1.1 0 0 .1.1.2.1s.2.1.3.1c.1 0 .1.1.2.1h.3c.1 0 .1-.1.1-.2v-.3c-.1 0 0-.1-.1-.1v-.3c0-.1.1-.1.1-.1s.1 0 0-.1V67c.1 0 .1-.1.1-.1v-.1s-.1 0-.1-.1h.1v-.1s-.1-.1 0 0l.1-.1h-.1v-.1l.1.1s0-.1.1-.1.1-.1.1-.1h.1v.1s.2 0 .2-.1c.1 0 .1-.1.2-.1h.1s0-.1.1-.1.2-.1.3-.1c.1.1.2.1.3 0 0 0 .2-.1.1-.1-.1-.1.2-.1.1-.1.1 0 0-.1.1-.2.1 0 .1 0 .2-.1h.1c.1 0 .2 0 .2.1.1.1.2.1.3.1.1-.1.2 0 .2 0 .1 0 .2 0 .2.1v-.1h.2-.4l-.2-.1-.2-.1h-.4l-.6-.2h-2.7l-.1-.1c-.1 0 .2 0 0-.2 0-.1-.2-.1-.2-.2s-.2 0-.2-.1c-.1 0 0-.1-.1-.2-.1 0-.1 0-.1-.1s.2-.1.1-.1.1-.1 0-.1.1-.1.1-.2c.1-.1-.1-.1-.2-.2s0-.2.1-.2c.2 0 .1-.1.1-.2.1 0-.1-.1 0-.1 0-.1-.2-.1-.1-.2.1 0 0-.2-.1-.2h-.1c-.1 0-.1.1-.2.1h-.4c-.1 0 0 .1-.1.1h-.1s0 .1-.1.1h-.1v-.3s-.1-.1-.2-.1c-.1-.1-.1-.2-.1-.3 0-.1-.1 0-.1-.1s.1 0 .1-.1c-.1 0-.1-.1-.1-.1v-.1h-.1v-.2s0-.1-.1-.1h-.1.1v-.2l.6-.9c-.1 0-.2 0-.2-.1l-1.5 1.6c.1 0 0 0 0 0zm2.6 4.9c0-.1 0-.1 0 0 0-.1 0-.1 0 0zm-4.4-4.7c-.1 0-.1 0-.1.1.1 0 .1-.1.1-.1.1 0 .1 0 0 0zm.1 0c-.1 0-.1 0 0 0 0 0 0 .1 0 0l.1.1s0-.1-.1-.1zm.1 0s0 .1.1.1l.1.1v-.1h-.1.1s0-.1-.1-.1h-.2.1zm-.2.1l-.1.1h-.1s.1 0 .1-.1h.1-.3v.1h.3s-.1 0-.1.1c0 0-.1 0 0 0h.2v-.1h.1v.2s.1 0 .1-.1h.1v-.1s-.1 0 0 0v.3l.1-.1v-.4c-.3.1-.4.1-.5.1.1 0 .1 0 0 0 .1 0 .1 0 0 0 .1.1.1.1.1.2h-.1c.1-.1.1-.2 0-.2zm.6.2s-.1 0 0 0h-.1.1c-.1 0 0 0 0 0s0 .1 0 0c0 .1-.1.1-.1.1h.1c-.1 0-.1 0 0-.1l-.1.1-.1.1h.2s.1 0 .1.1c0 0 .1 0 0 0v-.2s-.1 0 0 0v-.1s-.1 0-.1-.1c.1.1.1.1 0 .1.1.1.1.2.1.2v-.1c-.1 0-.1 0-.1-.1.1 0 0 0 0 0zm-.8 0s0 .1 0 0c-.1.1-.1.1 0 0-.1.1-.1.1 0 0h-.1v.1c0 .1 0 0 .1-.1-.1.1-.1.1 0 0-.1.1-.1.1 0 0-.1.1-.1.1 0 0v.1c.1 0 .1 0 0-.1 0 .1 0 .1 0 0 0 .1 0 .1 0 0zm.4.1s-.1 0 0 0c-.1 0-.1.1-.1.1h-.1v.1h.3v-.1s-.1 0 0 0c0 0 .1 0 0 0h-.1v.1s.1 0 0 0c0-.1.1-.1 0-.2zm.2.1c.1 0 .1 0 0 0zm-.1.1c-.1 0-.1 0 0 0-.1 0-.1 0 0 0zm0 0s0 .1 0 0c0 .1 0 .1.1.1 0-.1 0-.1-.1-.1.1 0 .1 0 0 0 .1 0 .1 0 0 0zm.2 0s-.1 0 0 0c-.1 0-.1 0 0 0zm.1 0zm-.2.1s0 .1 0 0c0 .1.1.1 0 0 .1.1.1 0 0 0 .1 0 0 0 0 0zm1.1.2s0 .1 0 0v.3h.1c.1-.3 0-.3-.1-.3.1 0 0 0 0 0zm-1.6 0c0 .1 0 .1 0 0 0 .1 0 .1 0 0 0 .1.1.1 0 0 .1.1.1.1 0 0 .1.1.1.1 0 0 .1.1.1.1 0 0 .1.1 0 0 0 0zm0 .1s0 .1 0 0c0 .1 0 .1 0 0 0 .1.1.1.1.1-.1 0 0 0 0 0l-.1-.1c.1 0 0 0 0 0zm.2.2s.1 0 0 0c.1 0 .1 0 0 0zm.2 0s-.1 0 0 0zm-.2.1h-.1c-.1 0 0 .1-.1 0v.1s0 .1.1.1c0 0 .1 0 0 0h-.1v.1h.1s.1 0 .1-.1c0 0 .1 0 .1-.1v-.1.1h-.1v.1s.1 0 .1.1h.1v-.1c.1 0 0 .1.1.1 0 0 .1 0 0 0l-.1-.1s0-.1-.1-.1c0 0 0-.1-.1-.1 0 0-.1 0 0 0l-.1-.1c.3.1.2.1.1.1.1 0 .1 0 0 0 .1 0 0 0 0 0zm.3.6s-.1 0 0 0h-.1v.1h.3s0-.1 0 0c.1 0 0 .1 0 .1s-.1.1 0 .1c0 0 .1 0 0 0h-.4v.1s-.1.1 0 .1v.2c.1 0 .1 0 .1-.1h.1v-.1l.1.1s.1 0 0-.1v.1s-.1 0-.1.1c0 0-.1 0-.1.1h.2V65h.1c.1 0 0 0 0 0h.2s.1 0 .1-.1h.3l-.1-.1s0-.1-.1 0c0 0-.1.1-.2.1 0 0 0 .1-.1 0-.1 0 0 0 0-.1 0 0 .1 0 .1-.1.1 0 0 0 0-.1 0 0-.1 0-.1.1h-.1c-.1 0 0 0 0 0 .1 0 0 0-.1-.1h-.1c.1-.3.1-.2 0-.3zm.3 0s-.1.1 0 .1c.1-.1.1-.1 0-.1zm.6 0h-.1c0 .1 0 .1.1 0-.1.1 0 .1 0 0zm-.4.1c0 .1 0 0 0 0zm.3.1c0 .1 0 .1 0 0 .2.2.1 0 0 0zm-.2.1c0 .1 0 .1 0 0 .1 0 .1 0 0 0 .1 0 0 0 0 0zm.4 0zm0 0s.1.1 0 0c.1 0 0 0 0 0zm-.2 0s0 .1 0 0c.1.1.1.1 0 0h.2-.2zm-.3.1c0-.1 0 0 0 0-.1.1-.1.1-.2.1s0 .1.1.1.1-.1 0-.1 0-.1 0 0c.1 0 .2-.1.1-.1.1 0 .1 0 0 0zm.5 0s-.1.1 0 0c-.1 0-.2.1-.1.1v.1s-.1 0-.1.1h.2l.1-.1c.1 0 0 0 0-.1l-.1-.1c0 .1 0 0 0 0zm.2.1s.1 0 0 0zm-.4 0s0 .1 0 0c0 .1 0 .1 0 0zm-.5 0c0 .1 0 .1 0 0 0 .1 0 .1 0 0 .1 0 0 .1 0 0zm.8 0c-.1 0-.1.1-.1.1-.1 0 0 0 0 0h.2c0 .1 0 0-.1-.1.1.1.1.1 0 0 .1.1.1.1.1.2h.1s0 .1 0 0h-.2v.1h-.1c-.1.1 0 0 0 0h.1s.2 0 0 0h.1s.1-.1.1 0c0 0-.1 0 0 .1v.1c.1.1 0 0 0-.1 0 0 0 .1.1 0 0 0 0-.1 0 0v.1s.1.1.1 0v-.1l-.1-.1h-.2c-.1 0-.1 0-.2-.1 0 0-.1 0 0 0h.2c.1 0 0 0 0-.1h-.1v-.1s0-.1-.1-.1c0-.1 0-.1-.1 0 .4.2.3.2.2.1 0 .1 0 0 0 0zm-.7.1s0 .1 0 0c0 0 .1 0 0 0 .1 0 0 0 0 0zm-.5.1s.1 0 0 0-.1.1 0 0c-.1.1 0 .1-.1.1h.1l.1.1h-.1s-.1 0-.1.1h.2v.1c-.1 0 0 0 0 .1h.1v-.1.1h.1s.1 0 .1-.1h-.1.1s-.1 0 0 0v-.1s-.1 0 0 0c0 0 .1 0 0 0l-.1-.1s-.1 0-.1-.1h.1v.1h.1s-.1 0 0 0h.1s.1-.1 0-.1h-.2s-.1 0 0 0c0 0-.1 0 0 0-.2-.1-.2-.1-.3-.1.1 0 .1 0 0 0 .1 0 .1 0 0 0 .1 0 0 0 0 0zm1.1 0c-.1 0-.1 0 0 0-.1.1 0 .1 0 0 0 .1-.1.1 0 .1V65c.1.1.1 0 0 0 .1 0 0 0 0 0zm.2 0s-.1 0 0 0v.1c-.1 0 0 0 0-.1zm-.5 0c.1.1 0 0 0 0zm-.1.2s.1 0 0 0zm.2 0s.1 0 0 0c.1 0 .1 0 0 0zm.1 0s0 .1 0 0c0 .1 0 0 0 0zm-.3 0c-.1 0-.1.1 0 0-.1.1-.1.1 0 0l-.1.1h-.1s.1 0 .2-.1l-.1.1h-.1.1c.1 0 .1 0 .1-.1 0 .1 0 .1 0 0 0 .1 0 0 0 0zm.2 0c-.1 0-.1 0 0 0 0 0 0 .1 0 0 0 .1 0 .1 0 0 0 .1 0 .1 0 0-.1.1-.1 0 0 0-.1.1-.1 0-.1.1l.1-.1c-.1.1-.1.1 0 0v.1h-.1c0 .1 0 0 .1-.1l-.1.1h-.1.5v-.1.1h-.2.1c-.1 0-.1 0-.2-.1zm.2.1zm.1 0s-.1 0 0 0c-.2 0-.1 0 0 0v.1s.1 0 0 0h.1s-.1 0 0 0v.1h.1s.1 0 0 0h-.5.1s0 .1.1.1c0 0 0 .1-.1.1h.1v-.1s-.1 0 0 0l.1-.1v-.1h.2c0-.1.1 0 .1 0l.1.1v-.2c0-.1 0-.1 0 0h-.1l.1-.1v-.1s-.1.1-.1 0l.1-.1v-.1h-.1s.1 0 .1-.1v-.1h-.1c-.2.7-.2.7-.3.6.1.1 0 .1 0 0 .1.1.1 0 .1 0h-.1c-.1.1 0 0 0 0zm.6.1s.1.1 0 0c.1 0 .1 0 0 0zm-.2.2s0 .1 0 0c.1.1 0 0 0 0 .1 0 0 0 0 0zm0 .1v.4h.1s-.1-.1 0-.1v-.1c0-.1 0-.2-.1-.2zm-.9 0c-.1 0 0 0 0 0zm.2 0s-.1 0-.1.1c0 0 0 .1.1 0v-.1zm-.2 0c-.1 0-.1.1 0 0 0 .1 0 .1 0 0 0 .1 0 .1 0 0zm.7.1c-.1 0-.1.1-.1.1h.2s.1 0 0 0v-.1h-.2c.1.1.1 0 .1 0s.1 0 0 0c.1 0 .1 0 0 0zm-.6 0s-.1 0 0 0c0 .1 0 0 0 0zm0 .1s.1 0 0 0-.1.1-.1.1v.1h.2c0-.2 0-.2-.1-.2zm.4 0c-.1 0 0 .1 0 0-.1.1-.1.1-.2.1s0 0 0 .1c0 0 0-.1 0 0 0 0 .1.1.1 0 .1-.1.1-.1.1-.2.1.1.1.1 0 0 .1.1.1.1 0 0 .1 0 .1 0 0 0zm-.2 0c-.1.1 0 .1 0 0 0 .1 0 0 0 0zm1.5.1c-.1 0-.1 0 0 0zm-1.9 0s-.1 0 0 0c0 0-.1 0 0 0zm.4 0c0 .1 0 .1 0 0 .1 0 0 0 0 0zm-.1 0h-.2c0 .1.1.1.2 0-.1.1-.1.1 0 0 0 .1 0 .1 0 0 0 .1.1.1 0 0 .1.1.1.1 0 0zm.4 0c-.1 0-.1 0 0 0 0 0-.1.1-.1 0h-.3s0 .1-.1.1v.1s0-.1 0 0h.1s0-.1.1-.1l-.1.1h-.2s-.1 0 0 0c0 .1 0 0 0 0h.2s.1 0 0 0h-.1.1v.1h.1s0 .1-.1 0v-.1h.1s-.1 0 0-.1c0 0 .1 0 .1.1h.1s-.1 0 0 0h-.1c.2-.1.1-.1.2-.2v.1c.1 0 0 0 0 0 .1 0 0 0 0-.1 0 .1 0 0 0 0 0 .1 0 0 0 0zm.7 0c-.1.1 0 .1 0 .1s.1 0 0 0v.1c.1.1.1-.2.1 0 .1.1 0-.1 0-.1.1-.1 0-.1-.1-.1zm-.6 0s0 .1 0 0c0 .1 0 .1 0 0 0 0 .1 0 .1.1V66c0 .1 0 .1-.1 0 .1.1 0 0 0 0zm.9.1c-.1 0-.1.1-.1.1v.1h.1c-.2.1 0 .1.1.1v-.1c.1-.2 0-.2-.1-.2zm-1.5 0s0 .1 0 0c0 0-.1.1 0 0 0 .1 0 .1 0 0-.1.1-.1 0-.2 0h.1c.1.1.1.1.1 0 0 .1.1.1 0 0 .1 0 0 0 0 0zm.8 0c0 .1 0 0 0 0zm.2 0c0 .1-.1 0 0 0-.1.1 0 .1 0 .2l.1.1c0-.1.1.1.1 0 0 0 .1 0 0-.1s0 0-.1 0c-.1-.1.1-.1 0-.1 0-.1-.1 0-.1-.1zm-.4 0c0 .1 0 0 0 0 0 .1 0 .1 0 0 .1.1 0 .1 0 0 .1.1.1.1 0 0 .1.1.1.1 0 0 .1 0 .1 0 0 0zm-.8.1s-.1 0 0 0c0 0-.1 0 0 0-.1.1-.2.1-.1.1v.2s.1 0 0 .1v.1l.1-.1h.1v-.1s.1 0 0 0v-.1s0-.1 0 0c0 0 0 .1.1.1 0 0 0 .1.1.1-.2-.3-.2-.3-.3-.4.1 0 0 0 0 0 0 .1.1.1.1.1h-.1v-.1zm1.1.1s-.1 0 0 0c-.2 0 0 .1 0 0-.1 0 0 0 0 0zm.7 0c.1 0 0 0 0 0zm-1.4.1s0 .1 0 0c0 .1 0 .1 0 0 .1.1 0 0 0 0zm0 .1s-.1.1 0 0zm-.1 0c-.1 0-.1.1-.1.1l.1-.1c-.1.1 0 .1 0 0 0 .1 0 .1 0 0 .1.1 0 .1 0 0zm-.3 0c.1.1 0 .1 0 0 .1.1.1.1 0 0 .1 0 .1 0 0 0zm1.4 0s0 .1 0 0c0 .1 0 .1 0 0 0 .1-.1.1-.1.1v.1s.1 0 0 0h-.1v.1s-.1 0 0 0h.4l-.1-.1h-.1v-.1c.1.1.1 0 0-.1.1.1.1.1 0 0 0 0 0 .1 0 0 .1.1.1.1 0 0 .1 0 .1 0 0 0zm-.4.1c.1 0 .1 0 0 0zm-.4 0s-.2 0 0 0zm.2 0c-.1 0-.1.1 0 0-.1.1 0 .1 0 0 0 .1 0 0 0 0zm.8.1s.1.1 0 0c0 .1.1.1 0 0l.1.1c.1 0 0-.1-.1-.1.1.1.1 0 0 0 .1 0 .1 0 0 0zm-1.2 0c-.1 0-.1 0 0 0-.1.1 0 .1 0 0 0 .1.2.2 0 .2-.1 0 0 .1 0 .1.1 0 0 .1 0 .1 0 .1-.1 0-.1 0 0 .1 0 0-.1.1 0 0-.1.1 0 0v-.1c0-.1-.1 0-.1 0s0 .1-.1.1c0 .1.1 0 .1 0h-.2c-.1 0 0 0 0 .1.1 0 0 0 0 0h.1c.1-.1 0 .1 0 .1h-.1c.1 0 .1 0 .1-.1v-.1c.1 0 .1 0 0 0 0 0 .1 0 0-.1.1 0 0-.1.1-.1s0-.1 0-.1c.1 0-.1 0 0 0 0 0 .1 0 0-.1-.1 0 .1 0 0-.1-.1 0 0 0 0-.1.3.1.3.2.3.1zm.4.1s.1 0 0 0c.1.1.2.1.1 0h-.1zm-.1 0c-.1 0-.1 0 0 0-.1 0 0 .1 0 .1v-.1c-.1 0-.1 0 0 0-.1 0 0 0 0 0zm1.1 0c-.1.1 0 .1 0 0 .1.2 0 0 0 0 .1.1.1.1 0 0 .1 0 0 0 0 0zm.1.1zm-1-.1c0 .1.1.1 0 0 0 .1.1.2.1.1s.1 0 0 0 0 .1 0 .1h.2s0 .1.1 0c0 0 0-.1.1-.1 0-.1-.1 0-.1 0-.1 0 0 0 0-.1h-.2c.1 0-.1 0 0-.1h-.1c-.1 0 0 0 0 0 0 .2-.1.1-.1.1zm1.2 0s0 .1 0 0c-.1.1-.1.1 0 0 0 .1 0 .1 0 0 0 .1 0 .1 0 0zm-1.3 0c0 .1-.1.1 0 0 0 .1 0 .1 0 0zm2.2 0c0 .1 0 .1 0 0 .1.1 0 0 0 0zm-2.8.1c-.1 0-.1.1-.1.1-.1.1.1 0 .1 0-.1 0 0 0 0 .1h.1s.1-.1.1-.2h-.2zm1.2 0c.1.1.1.1 0 0 .1.1.1.1.1 0h-.1zm.3 0c-.1 0-.1.1 0 0-.1.1-.1.1 0 0 0 .1-.1.1 0 .1h.1s.1 0 .1-.1c-.1.1-.1.1-.2 0 .1 0 0 0 0 0zm-1 0s-.1 0 0 0c-.2.1 0 .1 0 0 0 .2 0 .1 0 0 0 .1 0 .1 0 0 0 .1 0 0 0 0zm1.2.1s-.1 0 0 0v.1c.1 0 .1 0 0-.1.1 0 0 0 0 0zm1.4 0zm-.2 0s-.1 0-.1.1c0 0-.1 0-.1.1v.2h.1s.1 0 .1-.1c-.1-.2-.1-.2 0-.3 0 .1 0 0 0 0zm-2.5 0c0 .1-.1.1 0 0 0 .1-.1.1-.1.2 0 0 .1-.1 0 0 0 0-.1 0-.1.1v.1s0 .1-.1.1h.2l.1-.1s.1 0 .1-.1h-.1s0-.1.1-.1v-.1s.1 0 .1-.1c-.1.1-.1.1-.2 0 0 .1.1.1 0 0zm.2 0zm0 0s0 .1 0 0c0 .1-.1.1-.1.2l.1-.1V67c.1.1.1 0 0 0zm1.1.1c-.1 0-.1 0 0 0l-.1.1.1.1c0 .1 0 0 .1 0 0-.1 0-.1-.1-.2.1.1 0 .1 0 0 0 0-.1 0 0 0zm-.4 0s-.1 0 0 0c0 .1 0 .1 0 0-.1.1 0 .1.1.2h-.2l.1.1h.3l.2.2s0-.1-.1-.1v-.1s-.1 0-.1-.1v-.1c-.1 0-.1-.1-.2-.1 0 0 0-.1-.1-.1v.1c.1.1.1.1 0 0 .1 0 0 0 0 0zm-.6.1c-.1 0-.1 0 0 0-.1.1 0 .1-.1.1h.1v.1h.1c-.1-.1 0-.1-.1-.2.1 0 0 .1 0 0 .1 0 0 0 0 0zm.3 0zm0 0s-.1 0 0 0c0 .1 0 0 0 0zm0 0s0 .1 0 0c0 .1 0 0 0 0zm-.1.1zm-.1 0c.1 0 .1 0 0 0 .1 0 .1 0 0 0zm0 0c-.1 0-.1 0 0 0-.1 0-.1.1-.1.1l.1-.1c-.1.1 0 0 0 0zm.5 0c-.1 0 0 0 0 0zm0 0c0 .1.1.1 0 0 0 .1.1.1.1.1v-.1c0 .1 0 .1-.1 0zm-.4.1s.1 0 0 0zm.2 0s.1 0 0 0l.1.1s.1 0 .1-.1h-.2zm-.1 0c-.1.1-.1 0-.2.1-.1 0 0 0 .1.1.1-.1.2-.1.1-.2l.1.1h.1l.1.1s-.1 0-.1-.1h-.1c.1 0 0 .1 0 .1.1 0-.1 0-.1.1h.1s0 .1-.1.1h.2s.1-.1 0-.1c0 0 .1 0 0 0s0-.1-.1-.1l-.1-.1s-.1 0-.1-.1h.1c.1 0 0 0 0 0zm-.4 0c0 .1 0 0 0 0zm.9 0s0 .1 0 0c0 .1 0 .1 0 0l.1.1-.1-.1c0 .1 0 0 0 0zm-1 .1l-.1.1v.1h.1v-.2c.1 0 .1 0 0 0zm.9 0s-.1 0 0 0c-.1 0-.1 0 0 0 0 .1 0 .1.1.2l.1.1h.1s.1.1.1 0v-.1s-.1 0-.1-.1c0 0 0-.1-.1-.1h-.2zm-.7 0c-.1 0-.1 0 0 0zm.1 0s0 .1 0 0c0 0 .1 0 0 0 .1 0 .1 0 0 0 .1 0 .1 0 0 0zm.3 0c-.1 0 0 0 0 0zm-.1.1s0 .1 0 0c.1 0 .1 0 0 0zm.7 0s.1.1 0 0c.1.1.1 0 0 0 .1 0 .1 0 0 0zm-.6 0c-.1 0-.1.1 0 0 0 0 .1 0 0 0zm-.8 0c-.1 0 0 0 0 0-.1.1-.1.1 0 0 0 .1.1.1.1.2h.1c0-.1.1 0 .1 0v-.1s.1-.1 0 0h-.2c0-.1 0 0 0 0-.1 0-.1-.1-.1-.1zm.7 0s-.1.1 0 0c-.1.1-.1.1 0 0 0 .1 0 0 0 0zm0 .1zm0 0s.1 0 0 0zm-.4 0v.1s.1.1 0 0c0-.1.1-.1 0-.1.1 0 .1 0 0 0zm.5 0c-.1 0-.1 0 0 0zm.7 0zm-1.6 0s.1.1 0 0c.1.1.1 0 0 0zm.6 0c-.1 0-.1.1 0 0-.1.2-.1 0 0 0zm6.8.1c-.1.1-.2.1-.2.1 0 .1.1.2 0 .2s0 .1-.1.1c0 0 0 .1-.1.1s-.1.1-.2.1c-.1.1-.2 0-.2-.1-.1 0 0-.1-.1-.1h-.3c-.1.1.1 0 .2.1 0 0 .1.1 0 .1 0 .1.1 0 .1 0 .1 0 .2 0 .1.1v.2c-.1 0-.2 0-.3.1 0 0 .1-.1 0-.1v-.1s-.1 0-.1.1c-.1 0 0 .1 0 .1v.4c0 .1.1.1.2.1 0 0 0 .1.1.1h.2c.1 0 .1-.1.2-.1.1-.1.3-.1.4-.1h.3s.1.1.1.2 0 .1-.1.1-.1.1-.2.1h-.4s-.1 0-.2.1c0 .1-.1.1-.2.1s-.1.1-.1.1c0 .1 0 .1.1.2 0 .1.1.1.1.1s.1.1 0 .1c0 0 0 .1.1 0h.1s.1 0 .2.1h.2s.1 0 .1.1c.1 0 .1.1.1.1.1 0 .2 0 .2.1l.1.1s0 .1.1 0c.1 0 .1 0 .2.1 0 0 .1 0 0 .1-.1 0-.1-.1-.2 0 0 0-.1.1 0 .1v.1s-.1 0 0 0c0 0-.1-.1-.1 0 0 0 0 .1-.1.1v.1l-.1-.1s-.1.1-.1 0c0 0 .1 0 .1-.1-.1 0 .1 0 .1-.1 0 0 .1 0 .1-.1 0 0 .1 0 .1-.1s-.1-.1-.1-.1h-.1l-.1-.1c-.1 0 0 .1 0 .1l.1.1c-.1 0-.1 0-.1-.1-.1 0 0 0 0-.1l-.1-.1c-.1 0-.1-.1-.1 0v.1s0 .1.1.1l.1.1v.1s0 .1 0 0h-.1c-.1 0 0 0 0 0 .1 0 0-.1 0-.1s0 .1-.1.1c.1 0 .1-.1 0-.1 0 0 0 .1 0 0 0 0 0-.1-.1 0 0 .1 0-.1 0 0h-.1s.1 0 0 0h-.1c-.1 0-.1 0-.1.1h-.1s0 .1.1 0 .1 0 .1.1c-.1 0-.1 0-.1-.1 0 0 0-.1 0 0-.1 0-.1 0-.1-.1h-.3l-.1-.1h-.2s-.1 0 0 0l.1.1h-.1v.1s0 .1.1.1h.4v.1h.1v.1h.1c.1 0 .1 0 .2.1h.1s-.1 0 0 0c-.1 0-.2-.1-.2-.1h.1s-.1 0-.1-.1h-.3l-.1-.1h-.1s-.1 0 0 .1v.2l-.1-.1V71s.1 0 0-.1l.1-.1h-.4s-.1 0-.1.1v.2s0-.1-.1-.1h-.1l.1.1h-.1l-.1-.1c-.1 0 0 0 0 0h-.1s-.1 0-.1-.1h-.1s.1.1.1 0h-.3s-.1-.1-.1 0c-.1 0 0 0 0 0s.1 0 .1.1c.1 0 0 0 0 0s-.1 0 0 0h-.1c-.1 0-.1-.1-.1-.1h-.1c-.1 0 0 0 0 0h.2c.1 0 .1.1.2.1h-.1l-.1-.1c-.1 0 0 0 0 0v.1h-.1s-.1 0-.1-.1h-.1c-.1 0 0-.1-.1-.1s-.1 0 0 .1v.1h.1s.1.1 0 .1h-.1.3s0-.1 0 0h.1s.1 0 0 0c0 0 .1 0 0-.1h-.1c.1 0 .1.1.1 0v.1s.1.1.1 0c0 0 0-.1 0 0 0 0 0 .1-.1.1l.1.1c-.1 0 .1 0 .1-.1.1.1.1 0 .1-.1s.1.1.1 0-.1-.1-.1-.1.1 0 0 0c0 0 .1.1.1 0l.1.1c0 .1.1 0 .1 0 .1 0 .1 0 0 0 0 0 .1 0 0 0s0 .1 0 .1.1 0 0 0h-.2c-.1 0 0 .1.1.1h.1v-.1s.1 0 .1-.1h.1s-.1.1 0 .1c0 0 0 .1-.1.1h.1s0-.1.1-.1c0 .1.1 0 .2 0h-.2.2c0 .1.1 0 .1 0s.1-.1 0-.1c0 0 .1 0 0 0h.2s-.1 0-.1.1c0 0-.1 0-.1.1h-.3c.1 0 0 0 0 0s.1.1.1 0h.2s0-.1 0 0h.2c.1 0 .1 0 .1.1v-.1s.1 0 0 0v-.1s.1 0 0 0 0 .1-.1.1c0 0-.1.1 0 .1 0 .1.1 0 .1 0 .1 0-.1-.1 0 0h.2c0-.1 0 0 0 0h.1c.1 0 0-.1 0-.1v-.1s.1-.1.1 0v.1s0 .1.1.1h.2v-.1c.1 0 0 0 0 .1s.1.1.1 0v-.2c.1 0 0 .1 0 .1.1 0 .1 0 .1-.1v.2c-.1 0-.1.1 0 .1s.1.1.2.1.1-.1.1 0l.1.1h.7c.1 0 0-.1 0-.1h-.1l-.1-.1h-.1.1s.1 0 .1.1h.1s.1 0 .1.1h.1v-3.4c-.1 0-.1-.1-.2-.1 0 0 0-.1-.1 0v.1s-.1 0-.2.1c0 0-.2 0-.1.1h-.3s0-.1-.1-.1c-.4-.5-.4-.5-.5-.6.1 0 0 0 0 0zm-6.1 0zm.2 0c-.1 0-.1 0 0 0-.1 0 0 0 0 0s0 .1 0 0l.1.1s.1 0 0 0l-.1-.1zm-.8 0c-.1 0 .1 0 0 0zm-.5 0s-.1 0 0 0zm.4 0c0 .1 0 0 0 0zm-.2 0c-.1 0-.1.1 0 0 0 .1 0 .1 0 0zm.3.1c.1 0 0 0 0 0zm.7 0s-.1 0 0 0c-.1.1-.2.1-.1.1s.2-.1.1-.1zm.2 0h-.1l-.1.1h-.1c0 .1 0 0 0 0-.1 0 0 .1-.1.1h.2c0-.1.1 0 .1 0 .1 0-.1.1-.1.1-.1 0-.1.1 0 .1h.1l.1-.1-.1.1c-.1 0 0 .1.1 0h.1v-.1c0 .1.1-.1 0-.1 0 0-.1 0 0 0s0 0 .1-.1h.1c-.3-.1-.2-.1-.3-.1zm-.4 0c-.1 0 0 .1 0 0 0 0 .1 0 0 0 .1 0 .1 0 0 0zm-.3 0s-.1 0 0 0zm-.3 0c-.1 0-.1 0 0 0 0 0 .1.1 0 0 .1 0 0 0 0 0zm-.1.1s-.1 0 0 0c.1.1 0 0 0 0 .1 0 .1.1 0 0 .1 0 .1 0 0 0 .1 0 .1 0 0 0 .1 0 .1 0 0 0zm3.1 0c-.1 0 0 0 0 0-.1 0 0 .1 0 0zm-2.3 0c-.1.1-.1.1 0 0 0 .1 0 0 0 0zm.4 0c0 .1 0 .1 0 0 .1 0 0 0 0 0zm1.4.1s.1 0 0 0zm-2.4 0s-.1 0 0 0c-.1.1 0 0 0 0 .1 0 0 0 0 0zm3.9 0h-.5s-.1-.1-.1 0-.1 0-.1 0h-.1c-.1 0 0 .1-.1.1s-.1 0-.1.1c-.1 0-.1.1-.2.1v.1c0 .1-.1 0-.1 0-.1 0-.1.1-.2.1l.1-.1h-.2v.1h-.1l.1-.1h.1l.1-.1h-.1v.1s-.1 0-.1.1h-.3s.1 0 0 .1v.2s-.1 0 0 0h.1l-.1.1h-.1.1s.1.1.1 0c.1 0 0 0 0 0s-.1 0 0 0h-.2c.1 0 .1.1.2.1 0 0 .1 0 0 0 0 0 0 .1 0 0V69l-.1-.1h-.2c.1 0 0-.1 0-.1h-.4s-.1 0 0 0h-.1v.1s.1 0 .1.1c0 0 .1 0 0 0h.1v.1h.1l.1.1h.1s0 .1 0 0h.1s0 .1.1.1v-.1s0 .1.1.1.1.1.1 0c0 0 .1 0 0 0s0 .1 0 .1h.3s0-.1-.1-.1c0 0-.1 0-.1-.1 0 0-.1-.1-.1 0 0 0-.1 0 0 0 0 0-.1 0-.1-.1h.2v-.2h.1v.1h-.2.3s.1 0 0 0h-.1s.1 0 0 0h-.1.1s.1 0 0 0h.2s0-.1-.1 0h-.1c-.1 0 0 0 0 0h-.3c-.1 0 0 0 0 0h.2c.1 0 .1.1.2.1 0 0 0-.1-.1-.1h.1c.1 0 .1.1.2.1h.1s.1 0 .1-.1v-.1h.1c0-.1.1 0 .1-.1.1-.1.2-.1.4-.2 0-.1.2 0 .2-.1.1 0 0 0 0-.1 0 0-.1-.1 0-.1.3-.1.3-.2.2-.2zm-3.4 0h-.2c.1.1.2.1.2 0zm2.3 0c-.1.2.1.1 0 0zm-2.7.1c-.1 0 0 .1 0 0zm.2 0s0 .1 0 0c.1 0 .1 0 0 0zm2.4.1c-.1 0-.1 0-.1.1.1 0 .2-.1.1-.1.1 0 .1 0 0 0zm-.2 0c.1 0 0 0 0 0zm-2 0s-.1 0 0 0c-.2 0-.1 0 0 0zm.7 0c0 .1 0 .1 0 0 0 .1 0 .1 0 0zm3.9.1s-.3.1-.2.1c.1 0 .2-.1.2-.1zm-5.4 0s0 .1 0 0c-.1 0 0 .1 0 0v.1s0 .1.1 0c.1 0 0 .1.1.1h-.1c-.1 0 .1 0 0 .1 0 0 0 .1.1.1s0 0 0 .1h.1s0 .1.1.1v.2s0 .1.1.1 0 0 0-.1c.1 0 0 0 0-.1 0 0 0 .1.1.1h.1v-.1h.2s-.1 0-.1-.1h.1c.1 0 0 .1.1.1v-.2h-.2s0 .1 0 0c-.1 0 0-.1-.1-.1h-.1v.1c-.1 0 0 0 0 0s-.1 0 0 0c-.1 0 0 0 0 0h-.1c-.1 0 .1 0 0 .1-.1 0 0-.1-.1 0v-.1h-.1v-.1c-.1 0 0 0 0 0h-.1c0-.4-.1-.3-.2-.4.1.1.1 0 0 0zm1.4.1s-.1 0 0 0c-.1.1-.1.1-.2.1v.1h.3s0-.1.1 0c-.1 0 0 0 0 0h.1v-.1h-.2c.1-.1 0-.1-.1-.1.1 0 .1 0 0 0zm-.3.1c.1 0 .1 0 0 0zm.4 0c0 .1 0 .1 0 0 0 .1-.1.1 0 .1v-.1c.1.1.1.1 0 0 .1.1.1 0 0 0zm-.3.3v.1h.1v.1s.1.1.1 0c0 0 .1 0 0 .1 0 0-.1.1 0 .1s0 .1.1.1h.2v-.1s0 .1.1.1h.1l.1.1h.1s.1 0 0 0h-.2.1s0-.1-.1 0h-.2s.1 0 0 0c0 0 .1 0 0 0h-.1s.1 0 0 0h-.1v.2h-.1v-.2s.1 0 0 0c0 0-.1 0-.1-.1-.1 0 0 0 0 0v.2s0-.1-.1 0c.1-.7.1-.7 0-.7zm-.1 0c-.1 0 0 0 0 0-.1 0-.1.1 0 0-.1.1-.1.1 0 0 0 .1-.1.1 0 0 0 .1 0 .1 0 0l.1.1h.1c-.1 0-.1 0-.2-.1 0 .1 0 0 0 0zm-.1.1h-.1s0 .1.1 0c-.1.1-.1 0 0 0-.1 0-.1 0 0 0 0 0 0 .1 0 0zm-.5 0s0 .1 0 0c.1.1.1 0 0 0zm.1 0c0 .1 0 .1 0 0zm.2.2c-.1 0-.1.1-.2.1h.1c.1 0 .2-.1.1-.1 0 0 .1 0 0 0 .1 0 .1 0 0 0zm.5 0c-.1 0 0 0 0 0zm-.7 0s0 .1 0 0c.1 0 0 0 0 0zm.5 0s0 .1 0 0c.1.1.1 0 .1 0 .1.1 0 .1-.1 0zm.3.1s.1 0 0 0c.1 0 0 0 0 0zm.5 0c-.1 0 0 0 0 0 0 .1.1 0 0 0zm.3 0s-.1 0 0 0h-.1c-.1 0 0 .1.1 0-.1.1 0 .1-.1.1 0 0 .1 0 .1.1h-.1s-.1 0-.1-.1h-.1s-.1 0 0 0l-.1-.1h-.1v.1l.1.1h.1s-.1 0-.1.1l.1.1s.1.1 0 0c0 0-.1 0-.1-.1 0 0 0-.1-.1-.1h-.2s-.1 0 0 .1c0 0 0 .1.1 0h.1v.1s-.1 0-.1.1c.1 0 .3-.1.4-.1.1 0-.1 0 0 .1 0 0-.1 0-.1.1 0 0 0 .1.1.1v.1h-.1.3c.1 0 .1 0 .1.1l.1-.1s-.1 0-.1-.1v-.2h.1v.1h.2c.1 0 .1 0 .1-.1h.2s0 .1.1 0l-.1.1s0 .1 0 0c0 0 .1 0 0 0h-.4.5c.1 0-.1 0 0-.1h.1v-.1c.1 0 0 .1 0 .1h.1v-.1c.1 0 0 0 0-.1.1 0 0-.1 0 0 .1 0 0 0 .1-.1 0 0 .1 0 0 .1v.1h.1c.1 0 0-.1 0-.1s-.1 0-.1-.1c.1 0 0-.1 0-.1h.1v-.1l-.1-.1h.2c-.1 0 0 0 0 0h.1s-.1 0-.1-.1h-.2s.1 0 .1-.1h-.1s-.1-.1-.1 0v.1c-.1 0 0 0 0 0s-.1 0-.1-.1h.1s-.1 0-.1-.1h-.2s-.1 0-.1-.1v.2c.1 0 0 0-.1-.1v-.1h-.2v.2c.1 0 0 0 0 .1h-.1s.1 0 0 0h-.1V69h-.1c.1.3.1.4 0 .3l.1.1s-.1 0 0 0c0 0-.1 0-.1-.1 0 0 .1 0 0 0zm-.8 0s0 .1 0 0c.1.1 0 0 0 0zm.3 0s-.1 0 0 0c-.1 0-.1.1 0 0-.1.1-.1 0-.2 0 0 .1.1.1.2 0-.1.1-.2.1-.2.1h-.1s.1 0 .2.1h-.3s.1 0 0 .1h.4s.1.1 0 .1c0 0 .1 0 .1-.1h.1s-.1 0-.1-.1c0 0 0-.1-.1-.1v-.1c.1.1 0 .1 0 0zm-.5.1h-.1.1zm.1 0s.1 0 0 0c.1 0 0 0 0 0zm-.2.1c.1 0 .1 0 0 0 .1 0 .1 0 0 0v.1h.1l-.1.1h.1s.1 0 .1-.1h.1s-.1 0-.1-.1h-.2c.1 0 .1 0 0 0zm4.5 0c-.1 0-.1 0 0 0l-.2.2c0 .1-.1.1-.1.1.1 0-.1.1 0 .1s.1 0 .1.1h-.3s-.1 0 0 .1c0 0 .1.1 0 0v.1s-.1.1 0 .1h.1s-.1 0 0 .1h.1c.1 0 .1 0 .2.1 0 0 .1.1.2.1s.1.1.1.1h.1v-.1s-.1 0 0 0c0-.1-.1 0-.1-.1h-.2s-.1 0 0-.1l-.1-.1-.1-.1s0-.1 0 0l.1.1s0 .1.1.1h.1s0-.1-.1-.1c0 0-.1-.1 0-.1v-.7zm-2.5 0s0 .1.2.2c.1 0 .1-.1 0-.1s-.1 0-.2-.1zm-1.6.2c-.1 0 0 .1 0 0 0 .1 0 0 0 0zm-.1.1c.1 0 0 0 0 0zm2.1 0s.1.1.1 0h-.1zm0 .1s0 .1 0 0c-.1.1 0 .1 0 0-.1.1-.1.1 0 .1h.1c-.1 0 0 0-.1-.1.1.1.1 0 .1 0h-.1zm.3.1c-.1 0-.1 0 0 0-.1 0 0 0 0 0 0 .1-.1 0-.1.1s-.1 0-.1.1c0 0 .1.1 0 0 0 0-.1 0 0 0 0 0 .1.1 0 0-.1 0-.1-.1-.2-.1h-.1l.1.1c-.1 0-.1.1 0 .1 0 0 .1.1.1 0 0 0 0-.1 0 0 0 0 .1 0 .1.1h-.1c0 .1.1 0 .1 0h-.1l.1.1h.2s-.1.1 0 .1c0 0-.1.1 0 .1h.1c0 .1.1 0 .1 0s-.1 0-.1-.1h.1c.1 0 .2.1.1 0 0 0-.1 0-.1-.1 0 0-.1-.1-.2-.1l-.1-.1s0-.1.1 0c0 0 .1 0 .1.1l.1.1c.1.1.1 0 .2-.1 0 0 0-.1 0 0 0 0-.1-.1 0 0h.1c0-.1-.2 0-.1 0 0 0 .1 0 .1-.1.1 0 0-.1-.1-.1 0 0-.1 0 0 0v.1c-.1 0 0-.1 0-.1-.4-.2-.3-.2-.4-.2zm-1.2 0s-.1 0 0 0c-.1.1-.1.1 0 0-.1.1-.1.1 0 .1V70zm-.2.1s-.1 0 0 0c-.1 0-.1 0 0 0zm1.8 0v.2s.1 0 .1.1c0 0-.1 0-.1.1v.1s0 .1.1.1v-.1h.1c-.1 0-.1 0-.1.1l.1.1v-.1l.1-.1s0-.1-.1-.1h.1s-.1 0-.1.1c0 0 .1 0 .1.1h.1s0 .1.1 0v-.1.1h-.2c-.1 0 0 .1 0 .1s.1 0 .1.1v.1s.1 0 .1-.1c-.1 0-.1-.1-.1 0h.1s.1.1.1 0v-.2c.1 0 0 0 0-.1s0 0-.1 0h-.1c.1 0 0 0 .1-.1.1 0 0 0 0-.1 0 0-.1 0-.1-.1h-.1v.1s-.1-.1 0-.1v-.1h-.1v.1c-.1 0 0-.1 0-.1h-.1s-.1 0 0 0v-.1h-.3v.1h-.1c.4-.1.3-.1.3-.1zm-1.9 0c0 .1 0 .1 0 0 .1.1 0 0 0 0zm.1 0s0 .1 0 0c0 .1 0 .1 0 0 .1.1 0 .1 0 0zm2.3.1c0 .1 0 .1 0 0 .1.1 0 0 0 0zm1.2 0c-.1 0-.1 0 0 0-.1.1-.2 0-.2 0-.1 0 0 .1 0 .1s.1.1.2.1v-.2zm-4 .1s-.1 0 0 0c-.1.1 0 .1 0 0 0 .1.1.1 0 0l.1.1h.1s.1 0 0 0v-.1.1c-.1 0 0-.1 0-.1h-.2zm1.4 0c-.1 0-.1 0-.1.1-.1 0 0 0 .1-.1 0 .1 0 .1 0 0 0 .1-.1.1 0 0l-.1.1h-.2.2s0-.1.1-.1l.1.1v-.1h.1v-.1c-.1.2-.2.1-.2.1zm-.4.1c-.1 0-.1 0 0 0-.1 0 0 0 0 0 .1.1.1.1.1 0h-.1zm.2 0c-.1 0-.1 0 0 0-.1 0-.1 0 0 0 0 .1 0 0 0 0zm-.8 0s-.1 0 0 0c-.1 0-.1.1 0 0-.1.1-.1.1 0 0 0 .1 0 .1 0 0 0 .1-.1 0 0 0zm0 .1s.1 0 0 0zm0 0zm.1 0c-.1 0 0 0 0 0zm.1 0zm0 0s-.1.1 0 0c-.1.1-.1.1 0 0 0 .1 0 .1 0 0 0 .1 0 .1 0 0zm1 0c-.1 0-.1 0 0 0v.1h.1c-.1 0-.2 0-.1-.1zm.2 0c0 .1.1.1 0 0zm.7 0l-.1.1h.1c.1.1 0 0 0-.1.1.1.1.1 0 0 .1.1.1.1 0 0zm-.7.1c-.1 0-.1 0 0 0-.1 0-.1 0 0 0zm-.8 0s-.1 0 0 0c-.1 0-.1 0 0 0 0 0-.1 0 0 0zm1.2 0c-.1 0 0 .1 0 0 0 .1.1.1.1.1l-.1-.1c0 .1 0 0 0 0zm-3.9 0c0 .1 0 .1 0 0zm3.1 0c-.1.1 0 .1 0 0 .1.1.1.1 0 0zm-3 .1zm-.3 0s-.1 0 0 0c-.1 0-.1 0 0 0-.1 0 0 0 0 0zm2.8 0c.1 0 .1 0 0 0 .1 0 .1 0 0 0zm-2.9 0c-.1 0-.1 0 0 0-.1 0-.1 0 0 0-.1 0 0 0 0 0zm3.3 0c-.1 0-.1 0 0 0-.1.1-.2.1-.2 0l.1.1.1-.1c0 .1-.1.1 0 0 0 .1.1.1 0 0 0 0 .2.1 0 0zm-.2 0zm-3.3 0c0 .1.1.1 0 0 .1 0 0 0 0 0zm4.1 0c-.1 0-.1 0 0 0-.1.1 0 .1 0 0 .1.1 0 .1 0 0zm-.3.1c-.1 0 0 0 0 0 0 .1 0 .1.1.1-.1 0-.1 0-.1-.1l.1.1c0-.1 0-.1-.1-.1zm-3.9 0zm0 0zm3.7 0c0 .1-.1.1 0 .1s0-.1.1 0l-.1-.1c.1 0 0 0 0 0zm-3.3 0c0 .1 0 .1 0 0 .1.1.1.1 0 0 .1.1.1 0 0 0zm-.2 0c-.1.1-.1 0-.1.1-.1.1-.2 0-.3.1 0 0 0 .1-.1.1v.1c-.1.1-.1 0-.1 0v.2c0 .1-.1.1-.1.1 0 .1-.1 0-.1 0h-.1v.1h-.2c-.1 0 .1.1.1.1s-.1.1 0 0c0 0 .1 0 0 .1-.1 0 0 .1 0 .1.1 0 .1 0 .1.1s0-.1-.1 0h-.2v.1c-.1-.1-.3 0-.4 0h-.2l.9 1.8.7-1.4s-.2-.2-.2-.3c.1-.1 0-.1.1-.2s.1-.2.1-.3c0-.1 0-.2.1-.2s.1 0 .1-.1-.1-.2 0-.2c0-.1 0-.1.1-.1-.1-.2-.1-.2-.1-.3zm-.2 0s0 .1 0 0zm0 0c-.1.1 0 .1 0 0 0 .1 0 .1 0 0zm-.1.1s-.1 0 0 0c-.1 0-.1 0 0 0zm3.7 0c-.1 0 0 0 0 0 .1 0 0 0 0 0zm-3.3 0s-.1 0 0 0zm2.6.1h-.1.1zm-3.2 0zm4.4 0s-.1.1 0 0v.1h.1l-.1-.1zm-4.5.1zm4.4 0v.1c.1.1.1 0 0-.1.1.1.1.2.2.2v.1c.1 0 .1 0 0-.1l-.1-.1-.1-.1zm-4.5 0s-.1.1 0 0c0 .1 0 .1 0 0 0 .1 0 0 0 0 .1 0 0 0 0 0zm4.9.1s0 .1.1.1c.1-.1 0-.1-.1-.1zm0 0c0 .1 0 .1 0 0 .1.1.1.1 0 0zm.7.1c-.1 0 0 0 0 0 .1 0 .1 0 0 0 .1 0 .1 0 0 0zm-.5 0v.1c.1 0 .1-.1 0-.1.2 0 .2 0 0 0 .1 0 .1 0 0 0zm.6 0c.1 0 .1 0 0 0 .1 0 0 0 0 0zm-.8 0c-.1 0-.1 0 0 0-.1 0-.1 0 0 0-.1.1 0 .1 0 0 0 .1 0 0 0 0zm1.5.1s0 .1 0 0l-.1.1s0 .1 0 0h.4c.1 0 0 0 0 0h-.1c0-.1-.1-.1-.2-.1.1.1.1 0 0 0 .1 0 0 0 0 0zm-.4 0zm0 0s0 .1 0 0c.1.1 0 0 0 0zm-.3 0c0 .1-.1 0-.1 0h-.3c-.1 0 0 0 0 .1v.1c.1 0 0 0 0-.1.1 0 0 0 .1.1v-.1c.2 0 .2 0 .3-.1v.1h.3s.1 0 0 0h-.1v-.1c0 .1 0 .1-.2 0 .1.1.1.1 0 0 .1.1.1.1 0 0 .1 0 0 0 0 0zm1.9.1c-.1 0-.1 0 0 0-.1 0-.1 0 0 0v.1h-.1s0-.1.1-.1h-.3.1s0-.1.1 0h.5c.1 0 0 0 0-.1h-.2s.1-.1 0-.1h-.1c0 .2-.1.2-.1.2zm2.1 0h-.4c0 .1.1.1.2.1 0 0 0-.1 0 0 0 0 .1.1 0 .1 0 .1 0 .1.1.1 0 0 .1 0 0 0 0 0-.1 0-.1.1h.1s.1 0 .1-.1h.1s0 .1.1.1c0 0 .2.1.1.1 0 0-.1-.1-.1 0s.1 0 .2 0h.1v-.1h.2s.1 0 0 0v.1h.2l.1-.1.1-.1s0-.1.1-.1v-.2l-.1-.1c0-.1-.1-.1-.1-.1h-.8c-.1.3-.1.2-.2.2zm-3 0c-.1 0-.1 0 0 0-.1 0-.2.1-.2.1h-.3s-.1.1-.1 0v-.1h-.2s.1 0 0 0 0 0 0 .1l.1.1h.1s.1 0 .1.1c0 0 .1 0 0 0v.1s0-.1.1 0h.2v.1h.1s0 .1.1.1h.2c.1 0 .1 0 .1.1h-.4c-.1 0 0 0 0-.1h.3c-.4-.5-.3-.5-.2-.6 0 .1 0 .1 0 0h.2-.2zm.4 0h-.1c-.1.1 0 .1.1 0-.1.1.1.1 0 0zm.1 0c0 .1-.1.1 0 0h-.2s-.1.1 0 .1h.1v-.1c0 .1.1.1.1 0-.1.1 0 .2 0 0 0 .1 0 .1 0 0 0 .1 0 0 0 0zm1.8.1h-.5c-.1 0-.1.1-.1 0h-.2s.1 0 0 0h-.1s-.1 0-.2.1h-.1v.1h-.4v.1h-.1.2v.1h.3s-.1 0 0 0 .1 0 .2-.1c0 0 .1 0 0 0h-.1c-.1 0-.1.1-.1.1h-.1.3c.1 0 0 0 0 .1h.1V72c.1 0 .2-.1.1 0v-.1c0-.1 0 0 .1.1 0 0-.1.1 0 .1s.2-.1.1 0h.1V72s.1 0 0 0h-.2s.1-.1 0-.1h-.4s.1 0 0 0h-.1.3l-.1-.1s.1 0 .1-.1l.1.1.1.1v-.1s.1 0 .1.1v.1h.1c0-.1 0-.1.1-.1h.1l-.1.1v.1c-.1 0 0 0-.1.1h.2c.1 0 0 0 0 0h-.2v.1h.1s0 .1-.1.1h.2c.1 0-.1 0 0-.1s.1 0 .1.1h.1c.1 0 0 0 0 0h.2s.1 0 .1.1h.2s.1 0 .1.1c0 0 0 .1-.1.1 0 0 .1.1.1 0h.1l.1.1.1-.1c.1 0-.1 0 0-.1 0 0-.1 0-.1-.1l-.1-.1s0-.1.1-.1c0 0 .1 0 0 0h-.1c-.1 0 0 0 0 0s.1-.1 0-.1h-.1s-.1.1-.1 0c0 0 .1-.1 0-.1h-.3s-.1.1-.1 0h-.1V72h-.1.1l.1.1h.3c.1 0 .1-.1.1 0 .1 0 0-.1-.1-.1 0 0-.1 0 0 0h-.1v-.1h-.5c-.1 0-.1-.1-.2-.1s-.1-.1-.1-.1h-.1.2c.1.1.2.1.3.1h.1s0-.1-.1-.1h.1s-.1 0 0 0h.1c.1 0 .1 0 .1-.1.1 0 0 0 0 .1h.1v-.1l-.1-.1c.1.1.1.1-.1.1.1 0 .1 0 0 0zm.7 1.1zm-2.9-1.1c-.1 0-.1 0-.2.1-.1 0 0 0 0 0 .1 0 .1 0 .2-.1 0 0 0 .1 0 0 .1 0 0 0 0 0zm-1.2 0c-.1 0-.1 0 0 0-.1 0-.1 0 0 0zm.1 0c-.1 0-.1.1 0 0 0 .1 0 0 0 0zm0 0c0 .1 0 .1 0 0 .1.1.1 0 .1 0 .1.1 0 .1-.1 0zm1.2.1c-.1 0-.1 0 0 0-.1 0-.1 0 0 0zm4 0l.1.1h.1s.1 0 0 0v-.1h-.2zm-3.7 0c0 .1 0 0 0 0 .1 0 .1 0 0 0zm0 0s-.1 0 0 0c-.2 0-.1.1 0 0-.1.1 0 0 0 0zm-.5 0s-.1 0 0 0c0 .1 0 0 0 0zm2.4.1s0 .1 0 0c0 .1.1.1 0 0 .1.1.1.1 0 0zm-3 .1zm3.2 0v.1h.1l-.1-.1c.1 0 .1 0 0 0 .1 0 0 0 0 0zm-2.9 0c-.1.1 0 0 0 0zm.1.1c.1 0 .1 0 0 0zm5 0h-.1.1c.1 0 .1 0 0 0zm-4.4 0c.1 0 .1 0 0 0zm2.7 0s-.1 0 0 0c0 .1 0 0 0 0zm-1.2 0c-.1 0 0 .1 0 0l-.1.1h.1V72zm2.4 0s-.1.1 0 0c-.1.1-.2.1-.2.1v.1h.2v-.1c.1 0 .1 0 0-.1.1 0 .1 0 0 0zm-2.9.1c-.1 0-.1 0 0 0-.1 0 0 0 0 0 .1 0 .1.1.1.1 0-.1 0-.1-.1-.1zm-1.1 0s.1 0 0 0zm1.4 0c0 .1 0 .1 0 0 .1 0 .1 0 0 0zm-1.2 0c-.1 0-.1 0 0 0-.1 0-.2.1 0 0-.1.1 0 .1 0 0-.1.1-.1.1 0 0 0 .1 0 .1 0 0 0 .1.1.1 0 0 0 .1 0 .1 0 0 .1 0 .1.1.1.1s0-.1-.1-.1c0 .1 0 0 0 0zm1 0s0 .1 0 0c0 .1.1.1 0 0zm-.8.1s.1 0 0 0c.1 0 .1 0 0 0l.1.1h.1c.1 0 0 0 0 0h-.1c0-.1-.1-.1-.1-.1zm.9 0s0 .1 0 0c0 .1 0 .1 0 0zm-.6.1v.1h.1v-.1h-.1zm.6 0zm0 0c.1 0 .1 0 0 0zm.1 0s-.1 0 0 0c0 0 .1 0 0 0zm.4.1zm.1 0c0 .1 0 .1 0 0 0 .1 0 0 0 0zm-.9 0c0 .1 0 .1 0 0 0 .1.1 0 0 0zm2.1.1v.1h-.1.2s0-.1-.1-.1c.1 0 .1 0 0 0 .1 0 0 0 0 0zm-1.1 0c-.1 0 0 0 0 0zm-.3 0c.1 0 0 0 0 0 0 .1 0 .1.1.1 0-.1 0-.1-.1-.1.1 0 .1 0 0 0zm.4 0c.1 0 .1 0 0 0zm-.6 0c.1 0 .1 0 0 0 .1 0 .1 0 0 0 .1 0 .1 0 0 0zm1.2 0c0 .1 0 0 0 0zm-1.3 0c-.1 0-.1 0 0 0-.1 0-.1.1 0 0zm-.2 0c0 .1 0 .1 0 0 0 .1 0 .1 0 0zm2.3 0s0 .1 0 0h-.1v.1h.1-.1s0-.1 0 0v.1s0 .1.1 0h.2v-.1s.1 0 0 0h-.2l.1-.1s-.1 0 0 0c0 .1-.1.1-.1 0 0 .1 0 .1 0 0zm-.3.1c0 .1 0 .1 0 0 0 .1 0 .1 0 0l-.1.1h.1v-.1c0 .1.1.1 0 0 0 .1.1.1 0 0 .1.1.1 0 0 0 .1 0 .1 0 0 0zm0 .2s.1 0 0 0c.1 0 0 0 0 0zm.5.1s-.1 0 0 0c-.1 0-.1 0 0 0 0 .1 0 0 0 0zm-.5 0c0 .1 0 0 0 0h-.4.2c.1.1.1.1.2 0 0 .1 0 .1-.1.1h.1c.1 0 .1 0 0-.1.1.1.1.1 0 0 .1.1.1 0 0 0 .1.1 0 0 0 0zm.1 0s0 .1 0 0c.1 0 .1 0 0 0zm.2 0s-.1 0 0 0c-.1.1 0 .1 0 0 0 .1 0 .1 0 0 0 .1 0 .1.1.1h.1s.1 0 0 0-.1 0-.2-.1c.1 0 0 0 0 0zm.3 0s0 .1 0 0c-.1.1-.1.1 0 0l-.1.1h.1s.1 0 0 0v-.1c0 .1 0 .1 0 0 0 .1.1.1 0 0 0 .1 0 0 0 0zm-.4.1zm.1.1c.1 0 .1.1 0 0 0 .1.1.1 0 0 .1.1.2.1.1.1 0-.1 0-.1-.1-.1.1 0 0 0 0 0zm-1.7.8s0 .1 0 0z"/><path id="Arica-Tarapaca_3_" class="st3" d="M203.3 16c.2-.1.3-.1.4-.2.1 0 .2-.1.3-.1h1.3c.1 0 0 0 .1.1h.4s.1 0 .1-.1c.1 0 0-.1.1-.1"/><path id="Tarapaca-Antofagasta_3_" class="st3" d="M206.9 18.6l-.1.2-.7.3-.9.2-.5.4v-.1l-.1-.1v-.1l-.1-.1h-.7"/><path id="Antofagasta-Atacama_3_" class="st3" d="M206.8 25.1h-.2c-.1.1-.2.2-.3.1h-.5s.1.1 0 .1c.1.1 0 .1 0 .2l-.1.1c.1 0 .1.1.1.1s.1.1 0 .1c0 0 0 .1-.1.1 0 .1-.1.1-.3.1l-.2.1c0-.1-.1 0-.1 0h-.1s0 .1-.1 0v.1h-.7v.1c-.1 0-.1-.1-.1-.1h-.6c0-.1-.1 0-.1-.1 0 .2-.1.1-.2.1-.1.1-.1.1-.3.1 0 .1-.1.1-.1.1"/><path id="Atacama-Coquimbo_3_" class="st3" d="M204.1 31.6c-.1 0-.2.1-.3 0h-.1c0-.1-.1-.1-.1-.2-.1-.1-.1-.1-.2 0 0 .1-.2 0-.2 0s.1 0 0-.1c-.1 0 0-.1-.1-.1.1-.1-.1-.1-.1-.2v-.1h-.4c0 .1 0 0-.2.1h-.2s-.1 0-.1.1c-.1.1 0 .1-.1.1 0 .1-.1.1-.2.1v-.1h-.1c-.1 0-.1-.1-.1-.2h-.3c0 .1-.2 0-.2 0"/><path id="Coquimbo-Valparaiso_3_" class="st3" d="M203.5 35.7s0 .1 0 0c-.1.1-.2.1-.2.1v-.1h-.1v-.1h-.2c0 .1 0 0-.1 0h-.1s-.1 0 0-.1c.1 0-.1-.1 0 0h-.6s-.1 0-.1.1h-.1c-.1 0-.1.1-.1.1h-.1s-.1 0-.1.1h-.4c-.1.1-.1 0-.1 0"/><path id="Valparaiso-Metropolitana_3_" class="st3" d="M204 37c-.1.1-.1 0 0 0l-.1.1h-.1c-.1 0 0 0 0 0V37h-.5c-.1 0 0 0 0 0v.1h-.4v.3s-.1 0 0 0h-.1v.2s-.1 0-.1.1h-.1s-.1 0 0 0"/><path id="Valparaiso-OHiggins_3_" class="st3" d="M200.8 38.4c.1 0 .1 0 0 0 .1.1.1 0 .1 0"/><path id="Metropolitana-OHiggins_3_" class="st3" d="M201 38.4c.1 0 0 .1 0 0 .1.1.1.1 0 0 .1.1.1.1 0 0l.1.1h.6s.1 0 .1.1c0 0 0 .1.1.1h.2s.1.1.1 0h.3s.1 0 0 0c0 0 0-.1.1-.1s0-.1 0-.1h.6"/><path id="OHiggins-Maule_3_" class="st3" d="M200.4 39.6s.1 0 0 0c.1 0 .1 0 0 0 .1 0 .1 0 0 0h.3s.1 0 .1.1h.6m1.4.1z"/><path id="Maule-Biobio_3_" class="st3" d="M202.4 42.4c-.1 0-.1 0 0 0-.1-.1-.1-.1 0 0-.1-.1-.1-.1 0 0-.1-.1-.1-.1 0 0-.1-.1-.1-.1 0 0l-.1-.1h-.3"/><path id="Biobio-Araucania_3_" class="st3" d="M198.1 45.6c.1 0 .1 0 0 0 .1 0 .1 0 0 0 .1 0 .1 0 .1-.1h.1v.2h.1c0-.1 0 0 0 0h.2v-.1s-.1 0 0 0h.5v.1h.6v-.1h.7"/><path id="Araucania-Los_Rios_3_" class="st3" d="M201.4 47.2c0-.1 0 0 0 0 0-.1 0-.1-.1-.1h-.9"/><path id="Los_Rios-Los_Lagos_3_" class="st3" d="M198 48.4s.1 0 0 0c.1 0 .1 0 0 0l.1.1h1.7s.1 0 0 0h.1s.1 0 0 0c0 0 .1 0 0 0h2"/><path id="Los_Lagos-Aisen_3_" class="st3" d="M201.6 54.3s0-.1 0 0l-.1-.1h-.6v.1h-.1c-.1 0 0 0 0 0v.1h-.7v-.2.2h-.4"/><path id="Aisen-Magallanes_3_" class="st3" d="M199.6 62.9l-1.5-.7h-.1"/><path id="Aisen-Magallanes_agua_3_" class="st3" d="M195.8 62.5h.2c.1 0 .1-.1.1-.1.1 0 .2 0 .2-.1.1 0 .1-.1.1-.1s.1-.1.2-.1h.4c.1 0 .1.1.2.1h.6"/><path id="Internacional_5_" class="st3" d="M204.1 31.6s0-.1 0 0v-.1c-.1 0 0-.1 0-.2v-.2c.1 0 .1-.1.2-.1s.1 0 .1-.1v-.3s0-.1.1-.1v-.2c0-.1 0-.1.1-.1 0 0 .1-.1 0-.2h.2s.1-.1.1-.2h.2c.1 0 .1-.1.1-.1v-.1c0-.1 0 0 0 0h.1c.1 0 .1 0 .1-.1 0 0 .1-.2.1-.3v-.3h.1l.1-.1v-.1l.1-.1s0-.1.1-.1.1 0 0-.1v-.1s0-.1.1-.1c0 0 .1 0 .1-.1h.2l.1.1h.3c.1 0 .2-.1.3-.1h.1c0-.1 0-.1.1-.1v-.1l-.2-.2-.4-.5v-.3l.2-.1.2-.1-.2-.8c0-.1-.1 0-.1-.1v-.1s0-.1-.1-.1v-.1h.1c.1 0 .1-.1.1-.1-.1 0 0-.1 0-.1s0-.1.1-.1c0 0-.1-.1 0-.1 0-.1.1 0 .2 0s.1-.1 0-.1l-.1-.1s0-.1-.1-.1-.1-.1-.1-.1c-.1 0 .1-.1.1-.1s0-.1.1-.2c.1 0 .1 0 .1-.1 0 0 0-.1.1-.1h.2s0-.1.1-.1l1.8-.5.7-1.6-.3-.3-.7.1h-.5s-.2 0-.1-.1c0-.1-.1-.1-.1-.1s.1-.1 0-.1c0 0 .2-.1 0-.2-.1 0 0-.2-.1-.2v-.2c0-.1-.1-.1 0-.2.1 0 0-.1 0-.1l-.1-.1-.1-.1v-.3l-.1-.1v-.1l-.1-.1v-.5l-.3-.3-.3-.3h-.2s-.1 0-.1-.1v-.4h.1l.1-.1h-.4l-.2-.1v-.1h.3v-.3h-.1v-.1h.3l.1-.2-.1-.1v-.1h-.1l-.1-.1h-.1l.1-.1h.1l.1-.1.2-.2h.1l-.3-.2h-.2c-.1-.1-.2-.1-.3-.2 0-.1-.2-.1-.3-.1 0-.1-.1-.1-.1-.2l.1-.1s0-.1-.1-.1c-.1-.1-.1-.1-.1-.2s-.1-.1 0-.1c0-.1.1-.2 0-.2 0-.1-.1-.2 0-.2 0 0-.1 0 0-.1s-.1-.1-.1-.1c-.1-.1.1-.1.1-.1.1 0 0-.1 0-.1 0-.1-.2 0-.2-.1-.1 0-.1-.1-.1 0-.1 0-.1-.1-.1-.2s-.1-.1 0-.2l-.2-.2v-.2l-.4.2h-.2l-.1.1v.1-.1l.1.1v.1l-.1.2-.1.1-.2.1h-.2l-.2.1h-.1c-.2 0-.3 0-.4.1m2.7 52.9v-.1h-.6l-.2-.1-.2-.1h-.4l-.6-.2-2.7.1-.1-.1c-.1 0 .2 0 0-.2 0-.1-.2-.1-.2-.2s-.2 0-.2-.1c-.1 0 0-.1-.1-.2-.1 0-.1 0-.1-.1s.2-.1.1-.1.1-.1 0-.1c-.2 0 0-.1.1-.1.1-.1-.1-.1-.2-.2s0-.2.1-.2c.2 0 .1-.1.1-.2.1 0-.1-.1 0-.1 0-.1-.2-.1-.1-.2.1 0 0-.2-.1-.2h-.1c-.1 0-.1.1-.2.1h-.4c-.1 0 0 .1-.1.1h-.1s0 .1-.1.1h-.1V65s-.1-.1-.2-.1c-.1-.1-.1-.2-.1-.3 0-.1-.1 0-.1-.1s.1 0 .1-.1c-.1 0-.1-.1-.1-.1v-.1h-.1V64s0-.1-.1-.1h-.1.1v-.2l.6-.9c-.1 0-.2 0-.2-.1v-.1h.2v-.2l-.1-.1-.1-.1v-.1.2-.1.2h.1v-.1h-.2.2-.2.2s.1-.1 0-.1c0 0-.1-.1 0-.1V62h.1s0-.1.1-.1v-.2l-.1-.1s0-.1.1 0h.3v-.1s0-.1.1 0h.1s0-.1.1-.1v-.2h.2v-.1s.1 0 0-.1v-.1h-.1s0-.1 0 0c.1 0 0 0 .1-.1v-.1h-.1v-.3s-.1 0 0-.1h.2c.1 0 .1-.1.1-.1h.1v-.4s0-.1-.1-.1v-.1s.1-.1 0-.1c0 0 0-.1-.1-.1h-.1v-.1h-.1.2c.1 0 0-.1.1 0l.1-.1.1-.1s0-.1 0 0v-.2h-.2s.1-.1 0-.1v-.1s-.1-.1 0-.1v-.2s.1 0 0-.1c0 0-.1 0 0 0h.5s-.1 0-.1-.1c0 0-.1 0 0-.1h.1V58c.1 0 .1 0 .1-.1v-.2l-.1-.1h-.1s0-.1-.1-.1v-.1s-.1 0-.1-.1v-.1h-.4s-.1 0-.1.1h-.1c-.1 0 0-.1-.1 0h-.1s-.1 0 0-.1v-.1s-.1 0 0-.1h.2s.1 0 0 0h.2c.1 0 0 0 0 0h1.3v-.2h-.1s.1 0 0-.1c.1 0 0-.1 0 0h.1s.1 0 0 0v-.1h-.1s-.1 0 0 0h-1.1v-.1h.1v-.1s-.1 0 0 0v-.2l-.1-.1V56h.1v-.2h-.1s.1 0 0 0h-.5s-.1 0 0 0v-.1h-.2v-.3s0-.1-.1-.1h.1v-.1s.1 0 0 0v-.1h-.2v-.3h.2s.1 0 0 0h.8s.1 0 0-.1v-.1h-.1v-.3s.1 0 0 0v-.2s.1 0 0 0v-.5s0-.1 0 0h.1v-.2s0-.1 0 0v-.2h-.1s-.1 0 0 0h.1V53h-.1v-.1h-.1l.1-.1h.1v-.1h-.1.2v-.3h.1c.1 0 0 .1.1.1h.2v-.1h-.1v-.1h.1v-.2c.1 0 0 0 0-.1h.1v-.9h.1s.1 0 .1-.1h.1c.1 0 0-.1 0-.1h.5c.1 0 0-.1.1-.1v-.1s0-.1.1-.1c0 0 .1 0 .1-.1v-.1h-.1s-.1 0-.1-.1h-.1v-.8h-.1v-.3c-.1 0 0 0 0 0h.1v-.1s0-.1-.1-.1h-.1.1v-.3h.1s0 .1.1 0v-.2h.2v-.2s.1 0 0 0h-.1.1s-.1 0 0 0h.1c.1 0 0 0 0 0h-.5v-.2h.2v-.5h-.1.2v-.2h.1v-.2s.1 0 0 0l-.1-.1v-.4s0-.1.1-.1h-.2v-.2c-.1 0 0 0 0 0v-.1s.1 0 .1-.1V46l-.1-.1h-.2v-.3s0-.1-.1-.1h-.1s-.1 0-.1-.1v-.2h-.1V45c-.1 0-.1-.1 0-.1h-.1.2s.1 0 .1-.1v-.2h-.1s0-.1-.1 0h-.3v-.2s0-.1-.1-.1l-.1-.1c-.1 0-.1 0 0-.1-.1-.2.1-.1 0-.2l.1-.1v-.2c0-.1 0-.1.1-.2 0 0 0-.1 0 0 0 0 0 .1.1.1s0 0 .1-.1l.1-.1h.1v-.1s-.1 0 0-.1v-.4s0-.1.1-.1l.1-.1c.1 0 .1-.1.1-.1s-.1-.1 0-.1h.5l.1-.1h.1V42h.1v-.2h-.2c-.1.1-.1 0-.1 0v-.2c.1 0 0-.1 0-.1v-.4l-.1-.1v-.2m3.5 27.3v3.5"/></g></g></svg>