<?xml version="1.0" encoding="UTF-8" standalone="no"?>
<svg width="190px" height="56px" viewBox="0 0 190 56" version="1.1" xmlns="http://www.w3.org/2000/svg" xmlns:xlink="http://www.w3.org/1999/xlink">
    <!-- Generator: Sketch 42 (36781) - http://www.bohemiancoding.com/sketch -->
    <title>logo-asech</title>
    <desc>Created with Sketch.</desc>
    <defs></defs>
    <g id="Symbols" stroke="none" stroke-width="1" fill="none" fill-rule="evenodd">
        <g id="logo-asech">
            <path d="M82.2912,28.3245 L75.5242,13.5955 L68.7222,28.3245 L82.2912,28.3245 Z M63.2412,35.9265 L74.2372,12.3585 C74.4952,11.8135 74.8632,11.4505 75.5242,11.4505 L75.5992,11.4505 C76.2602,11.4505 76.6272,11.8135 76.8862,12.3585 L87.8442,35.8525 C87.9532,36.0715 87.9892,36.2525 87.9892,36.4375 C87.9892,36.9065 87.5852,37.3085 87.0692,37.3085 C86.6302,37.3085 86.2972,36.9795 86.1162,36.5815 L83.1012,30.0355 L67.9122,30.0355 L64.8962,36.6155 C64.7132,37.0535 64.4182,37.3085 63.9762,37.3085 C63.4952,37.3085 63.0952,36.9445 63.0952,36.5085 C63.0952,36.3625 63.1292,36.1435 63.2412,35.9265 L63.2412,35.9265 Z" id="Fill-1" fill="#FFFFFF"></path>
            <path d="M92.2893,33.9629 C92.1083,33.8159 91.9223,33.5639 91.9223,33.2349 C91.9223,32.7249 92.3633,32.2889 92.8813,32.2889 C93.1383,32.2889 93.3593,32.3979 93.5063,32.5079 C96.0793,34.7989 98.6533,35.8179 102.1843,35.8179 C106.0453,35.8179 108.6923,33.6719 108.6923,30.7599 L108.6923,30.6899 C108.6923,27.9969 107.2593,26.4339 101.4093,25.2709 C95.2333,24.0329 92.7313,21.9609 92.7313,18.1039 L92.7313,18.0329 C92.7313,14.2489 96.2283,11.3419 101.0063,11.3419 C104.4633,11.3419 106.8553,12.2129 109.2073,13.9589 C109.3923,14.1029 109.6123,14.3589 109.6123,14.7229 C109.6123,15.2329 109.1703,15.6679 108.6553,15.6679 C108.4373,15.6679 108.2143,15.5959 108.0303,15.4499 C105.7873,13.7399 103.5463,13.0499 100.9343,13.0499 C97.1473,13.0499 94.6453,15.1969 94.6453,17.8519 L94.6453,17.9229 C94.6453,20.6149 96.0423,22.2519 102.1473,23.4869 C108.1043,24.6869 110.6033,26.7979 110.6033,30.5069 L110.6033,30.5789 C110.6033,34.6869 107.0363,37.5259 102.0723,37.5259 C98.2123,37.5259 95.1953,36.3249 92.2893,33.9629" id="Fill-3" fill="#FFFFFF"></path>
            <path d="M116.8922,36.217 L116.8922,12.649 C116.8922,12.14 117.3342,11.704 117.8492,11.704 L134.4692,11.704 C134.9482,11.704 135.3522,12.104 135.3522,12.577 C135.3522,13.05 134.9482,13.449 134.4692,13.449 L118.8052,13.449 L118.8052,23.452 L132.8152,23.452 C133.2922,23.452 133.6992,23.851 133.6992,24.324 C133.6992,24.797 133.2922,25.198 132.8152,25.198 L118.8052,25.198 L118.8052,35.417 L134.6552,35.417 C135.1322,35.417 135.5372,35.818 135.5372,36.29 C135.5372,36.763 135.1322,37.162 134.6552,37.162 L117.8492,37.162 C117.3342,37.162 116.8922,36.725 116.8922,36.217" id="Fill-5" fill="#FFFFFF"></path>
            <path d="M140.3885,24.5056 L140.3885,24.4316 C140.3885,17.2326 145.8325,11.2676 153.2595,11.2676 C157.5275,11.2676 160.2115,12.7226 162.7115,14.8316 C162.8945,15.0136 163.0775,15.2686 163.0775,15.5966 C163.0775,16.1046 162.5995,16.5426 162.0885,16.5426 C161.8275,16.5426 161.5725,16.4316 161.4255,16.2876 C159.2905,14.3586 156.8265,12.9756 153.2245,12.9756 C147.0455,12.9756 142.3765,17.9606 142.3765,24.3616 L142.3765,24.4316 C142.3765,30.8706 147.1195,35.8896 153.2595,35.8896 C156.7525,35.8896 159.2195,34.6526 161.6435,32.3616 C161.7935,32.2166 162.0145,32.0726 162.3055,32.0726 C162.7835,32.0726 163.2255,32.5066 163.2255,32.9796 C163.2255,33.2696 163.0775,33.4896 162.9315,33.6356 C160.3215,36.0346 157.4885,37.5996 153.1855,37.5996 C145.8325,37.5996 140.3885,31.8166 140.3885,24.5056" id="Fill-7" fill="#FFFFFF"></path>
            <path d="M168.6682,12.5037 C168.6682,11.9957 169.1102,11.5587 169.6222,11.5587 C170.1402,11.5587 170.5812,11.9957 170.5812,12.5037 L170.5812,23.4877 L187.0542,23.4877 L187.0542,12.5037 C187.0542,11.9957 187.4962,11.5587 188.0092,11.5587 C188.5272,11.5587 188.9652,11.9957 188.9652,12.5037 L188.9652,36.3627 C188.9652,36.8717 188.5272,37.3087 188.0092,37.3087 C187.4962,37.3087 187.0542,36.8717 187.0542,36.3627 L187.0542,25.2337 L170.5812,25.2337 L170.5812,36.3627 C170.5812,36.8717 170.1402,37.3087 169.6222,37.3087 C169.1102,37.3087 168.6682,36.8717 168.6682,36.3627 L168.6682,12.5037 Z" id="Fill-9" fill="#FFFFFF"></path>
            <path d="M65.9296,45.008 L64.8966,42.756 L63.8566,45.008 L65.9296,45.008 Z M63.0186,46.17 L64.6976,42.568 C64.7376,42.483 64.7926,42.431 64.8966,42.431 L64.9056,42.431 C65.0076,42.431 65.0626,42.483 65.1026,42.568 L66.7786,46.158 C66.7966,46.191 66.8006,46.22 66.8006,46.246 C66.8006,46.32 66.7396,46.381 66.6596,46.381 C66.5946,46.381 66.5406,46.33 66.5136,46.27 L66.0516,45.269 L63.7316,45.269 L63.2706,46.276 C63.2436,46.34 63.1986,46.381 63.1286,46.381 C63.0576,46.381 62.9936,46.326 62.9936,46.258 C62.9936,46.236 63.0016,46.202 63.0186,46.17 L63.0186,46.17 Z" id="Fill-11" fill="#FFFFFF"></path>
            <path d="M67.3408,45.8707 C67.3128,45.8467 67.2828,45.8097 67.2828,45.7597 C67.2828,45.6797 67.3508,45.6137 67.4308,45.6137 C67.4698,45.6137 67.5048,45.6297 67.5268,45.6477 C67.9178,45.9967 68.3128,46.1527 68.8528,46.1527 C69.4428,46.1527 69.8468,45.8237 69.8468,45.3807 L69.8468,45.3687 C69.8468,44.9577 69.6258,44.7187 68.7338,44.5407 C67.7868,44.3517 67.4058,44.0347 67.4058,43.4467 L67.4058,43.4347 C67.4058,42.8577 67.9418,42.4127 68.6718,42.4127 C69.1998,42.4127 69.5658,42.5457 69.9268,42.8117 C69.9538,42.8347 69.9878,42.8747 69.9878,42.9297 C69.9878,43.0077 69.9178,43.0737 69.8408,43.0737 C69.8078,43.0737 69.7728,43.0617 69.7428,43.0417 C69.4018,42.7797 69.0608,42.6737 68.6598,42.6737 C68.0828,42.6737 67.7008,43.0017 67.7008,43.4067 L67.7008,43.4197 C67.7008,43.8307 67.9128,44.0797 68.8468,44.2677 C69.7558,44.4527 70.1398,44.7757 70.1398,45.3397 L70.1398,45.3507 C70.1398,45.9807 69.5948,46.4137 68.8348,46.4137 C68.2448,46.4137 67.7848,46.2307 67.3408,45.8707" id="Fill-13" fill="#FFFFFF"></path>
            <path d="M74.4602,44.425 L74.4602,44.415 C74.4602,43.452 73.7522,42.664 72.7822,42.664 C71.8082,42.664 71.1112,43.44 71.1112,44.401 L71.1112,44.415 C71.1112,45.375 71.8172,46.164 72.7912,46.164 C73.7642,46.164 74.4602,45.386 74.4602,44.425 M70.8082,44.425 L70.8082,44.415 C70.8082,43.352 71.6002,42.401 72.7912,42.401 C73.9832,42.401 74.7642,43.341 74.7642,44.401 L74.7642,44.415 C74.7642,45.475 73.9722,46.424 72.7822,46.424 C71.5892,46.424 70.8082,45.486 70.8082,44.425" id="Fill-15" fill="#FFFFFF"></path>
            <path d="M75.4682,44.425 L75.4682,44.415 C75.4682,43.314 76.2992,42.401 77.4322,42.401 C78.0862,42.401 78.4952,42.625 78.8782,42.945 C78.9062,42.973 78.9322,43.012 78.9322,43.062 C78.9322,43.141 78.8612,43.207 78.7832,43.207 C78.7442,43.207 78.7032,43.191 78.6822,43.167 C78.3552,42.874 77.9792,42.664 77.4262,42.664 C76.4842,42.664 75.7712,43.424 75.7712,44.401 L75.7712,44.415 C75.7712,45.398 76.4952,46.164 77.4322,46.164 C77.9672,46.164 78.3442,45.976 78.7152,45.624 C78.7382,45.601 78.7712,45.58 78.8152,45.58 C78.8892,45.58 78.9572,45.648 78.9572,45.718 C78.9572,45.765 78.9322,45.797 78.9112,45.82 C78.5122,46.188 78.0792,46.424 77.4212,46.424 C76.2992,46.424 75.4682,45.541 75.4682,44.425" id="Fill-17" fill="#FFFFFF"></path>
            <path d="M79.7088,42.5888 C79.7088,42.5128 79.7758,42.4458 79.8568,42.4458 C79.9328,42.4458 80.0008,42.5128 80.0008,42.5888 L80.0008,46.2358 C80.0008,46.3138 79.9328,46.3818 79.8568,46.3818 C79.7758,46.3818 79.7088,46.3138 79.7088,46.2358 L79.7088,42.5888 Z" id="Fill-19" fill="#FFFFFF"></path>
            <path d="M83.7555,45.008 L82.7215,42.756 L81.6825,45.008 L83.7555,45.008 Z M80.8455,46.17 L82.5255,42.568 C82.5635,42.483 82.6205,42.431 82.7215,42.431 L82.7315,42.431 C82.8335,42.431 82.8905,42.483 82.9295,42.568 L84.6045,46.158 C84.6205,46.191 84.6265,46.22 84.6265,46.246 C84.6265,46.32 84.5645,46.381 84.4855,46.381 C84.4185,46.381 84.3675,46.33 84.3395,46.27 L83.8785,45.269 L81.5595,45.269 L81.0975,46.276 C81.0685,46.34 81.0235,46.381 80.9585,46.381 C80.8825,46.381 80.8215,46.326 80.8215,46.258 C80.8215,46.236 80.8275,46.202 80.8455,46.17 L80.8455,46.17 Z" id="Fill-21" fill="#FFFFFF"></path>
            <path d="M85.015,44.425 L85.015,44.415 C85.015,43.314 85.846,42.401 86.982,42.401 C87.633,42.401 88.042,42.625 88.426,42.945 C88.453,42.973 88.482,43.012 88.482,43.062 C88.482,43.141 88.41,43.207 88.33,43.207 C88.289,43.207 88.25,43.191 88.229,43.167 C87.903,42.874 87.526,42.664 86.974,42.664 C86.033,42.664 85.318,43.424 85.318,44.401 L85.318,44.415 C85.318,45.398 86.042,46.164 86.982,46.164 C87.514,46.164 87.891,45.976 88.262,45.624 C88.285,45.601 88.319,45.58 88.363,45.58 C88.437,45.58 88.504,45.648 88.504,45.718 C88.504,45.765 88.482,45.797 88.459,45.82 C88.06,46.188 87.627,46.424 86.968,46.424 C85.846,46.424 85.015,45.541 85.015,44.425" id="Fill-23" fill="#FFFFFF"></path>
            <path d="M89.2576,42.5888 C89.2576,42.5128 89.3246,42.4458 89.4046,42.4458 C89.4816,42.4458 89.5496,42.5128 89.5496,42.5888 L89.5496,46.2358 C89.5496,46.3138 89.4816,46.3818 89.4046,46.3818 C89.3246,46.3818 89.2576,46.3138 89.2576,46.2358 L89.2576,42.5888 Z" id="Fill-25" fill="#FFFFFF"></path>
            <path d="M92.3635,42.0166 C92.3635,41.9966 92.3755,41.9726 92.3875,41.9566 L92.7355,41.4386 C92.7825,41.3726 92.8265,41.3406 92.8945,41.3406 C93.0015,41.3406 93.1285,41.4116 93.1285,41.4686 C93.1285,41.5006 93.1005,41.5356 93.0665,41.5676 L92.6185,41.9966 C92.5505,42.0576 92.5115,42.0666 92.4375,42.0666 C92.3995,42.0666 92.3635,42.0456 92.3635,42.0166 M94.1175,44.4246 L94.1175,44.4146 C94.1175,43.4526 93.4095,42.6626 92.4375,42.6626 C91.4675,42.6626 90.7695,43.4406 90.7695,44.4016 L90.7695,44.4146 C90.7695,45.3746 91.4765,46.1636 92.4495,46.1636 C93.4205,46.1636 94.1175,45.3866 94.1175,44.4246 M90.4635,44.4246 L90.4635,44.4146 C90.4635,43.3526 91.2585,42.4016 92.4495,42.4016 C93.6395,42.4016 94.4205,43.3406 94.4205,44.4016 L94.4205,44.4146 C94.4205,45.4746 93.6305,46.4236 92.4375,46.4236 C91.2445,46.4236 90.4635,45.4856 90.4635,44.4246" id="Fill-27" fill="#FFFFFF"></path>
            <path d="M95.2986,42.5952 C95.2986,42.5172 95.3666,42.4512 95.4466,42.4512 L95.4896,42.4512 C95.5506,42.4512 95.5956,42.4832 95.6336,42.5352 L98.2886,45.8632 L98.2886,42.5862 C98.2886,42.5072 98.3496,42.4452 98.4266,42.4452 C98.5056,42.4452 98.5686,42.5072 98.5686,42.5862 L98.5686,46.2522 C98.5686,46.3192 98.5186,46.3752 98.4506,46.3752 L98.4266,46.3752 C98.3736,46.3752 98.3286,46.3362 98.2826,46.2802 L95.5806,42.8912 L95.5806,46.2402 C95.5806,46.3192 95.5186,46.3812 95.4386,46.3812 C95.3606,46.3812 95.2986,46.3192 95.2986,46.2402 L95.2986,42.5952 Z" id="Fill-29" fill="#FFFFFF"></path>
            <path d="M102.4954,46.0922 C103.5934,46.0922 104.2854,45.3512 104.2854,44.4252 L104.2854,44.4152 C104.2854,43.4902 103.5934,42.7352 102.4954,42.7352 L101.4804,42.7352 L101.4804,46.0922 L102.4954,46.0922 Z M101.1884,42.6122 C101.1884,42.5352 101.2554,42.4682 101.3334,42.4682 L102.4954,42.4682 C103.7344,42.4682 104.5874,43.3072 104.5874,44.4012 L104.5874,44.4152 C104.5874,45.5062 103.7344,46.3582 102.4954,46.3582 L101.3334,46.3582 C101.2554,46.3582 101.1884,46.2932 101.1884,46.2142 L101.1884,42.6122 Z" id="Fill-31" fill="#FFFFFF"></path>
            <path d="M105.465,46.2138 L105.465,42.6128 C105.465,42.5348 105.532,42.4688 105.61,42.4688 L108.152,42.4688 C108.227,42.4688 108.287,42.5278 108.287,42.6008 C108.287,42.6748 108.227,42.7358 108.152,42.7358 L105.756,42.7358 L105.756,44.2628 L107.9,44.2628 C107.971,44.2628 108.033,44.3238 108.033,44.3978 C108.033,44.4708 107.971,44.5308 107.9,44.5308 L105.756,44.5308 L105.756,46.0918 L108.179,46.0918 C108.252,46.0918 108.314,46.1528 108.314,46.2258 C108.314,46.2968 108.252,46.3578 108.179,46.3578 L105.61,46.3578 C105.532,46.3578 105.465,46.2928 105.465,46.2138" id="Fill-33" fill="#FFFFFF"></path>
            <path d="M110.681,46.2138 L110.681,42.6128 C110.681,42.5348 110.746,42.4688 110.826,42.4688 L113.366,42.4688 C113.439,42.4688 113.5,42.5278 113.5,42.6008 C113.5,42.6748 113.439,42.7358 113.366,42.7358 L110.972,42.7358 L110.972,44.2628 L113.114,44.2628 C113.186,44.2628 113.248,44.3238 113.248,44.3978 C113.248,44.4708 113.186,44.5308 113.114,44.5308 L110.972,44.5308 L110.972,46.0918 L113.397,46.0918 C113.468,46.0918 113.53,46.1528 113.53,46.2258 C113.53,46.2968 113.468,46.3578 113.397,46.3578 L110.826,46.3578 C110.746,46.3578 110.681,46.2928 110.681,46.2138" id="Fill-35" fill="#FFFFFF"></path>
            <path d="M114.3264,42.5952 C114.3264,42.5172 114.3964,42.4512 114.4734,42.4512 L114.5004,42.4512 C114.5624,42.4512 114.6074,42.4832 114.6484,42.5352 L116.1834,44.7682 L117.7154,42.5352 C117.7494,42.4832 117.8004,42.4512 117.8614,42.4512 L117.8894,42.4512 C117.9704,42.4512 118.0364,42.5172 118.0364,42.5952 L118.0364,46.2362 C118.0364,46.3132 117.9704,46.3812 117.8894,46.3812 C117.8124,46.3812 117.7444,46.3132 117.7444,46.2362 L117.7444,42.9802 L116.2984,45.0572 C116.2674,45.1072 116.2264,45.1312 116.1774,45.1312 C116.1234,45.1312 116.0854,45.1072 116.0524,45.0572 L114.6074,42.9802 L114.6074,46.2402 C114.6074,46.3192 114.5474,46.3812 114.4674,46.3812 C114.3894,46.3812 114.3264,46.3192 114.3264,46.2402 L114.3264,42.5952 Z" id="Fill-37" fill="#FFFFFF"></path>
            <path d="M120.4583,44.6406 C121.1903,44.6406 121.6843,44.2626 121.6843,43.6846 L121.6843,43.6726 C121.6843,43.0556 121.1983,42.7356 120.4923,42.7356 L119.3793,42.7356 L119.3793,44.6406 L120.4583,44.6406 Z M119.0883,42.6126 C119.0883,42.5346 119.1563,42.4686 119.2343,42.4686 L120.5143,42.4686 C121.3803,42.4686 121.9763,42.9066 121.9763,43.6576 L121.9763,43.6686 C121.9763,44.4846 121.2613,44.9076 120.4413,44.9076 L119.3793,44.9086 L119.3793,46.2366 C119.3793,46.3136 119.3123,46.3816 119.2343,46.3816 C119.1563,46.3816 119.0883,46.3136 119.0883,46.2366 L119.0883,42.6126 Z" id="Fill-39" fill="#FFFFFF"></path>
            <path d="M124.3418,44.4851 C124.9968,44.4851 125.4888,44.1571 125.4888,43.5951 L125.4888,43.5861 C125.4888,43.0621 125.0718,42.7361 124.3578,42.7361 L123.0148,42.7361 L123.0148,44.4851 L124.3418,44.4851 Z M122.7218,42.6121 C122.7218,42.5351 122.7908,42.4681 122.8688,42.4681 L124.3738,42.4681 C124.8598,42.4681 125.2468,42.6181 125.4828,42.8521 C125.6658,43.0351 125.7788,43.2971 125.7788,43.5751 L125.7788,43.5861 C125.7788,44.2351 125.2908,44.6091 124.6288,44.6961 L125.7458,46.1321 C125.7748,46.1641 125.7928,46.1961 125.7928,46.2301 C125.7928,46.3091 125.7208,46.3811 125.6398,46.3811 C125.5848,46.3811 125.5448,46.3461 125.5108,46.3021 L124.3028,44.7461 L123.0148,44.7461 L123.0148,46.2361 C123.0148,46.3131 122.9498,46.3811 122.8688,46.3811 C122.7908,46.3811 122.7218,46.3131 122.7218,46.2361 L122.7218,42.6121 Z" id="Fill-41" fill="#FFFFFF"></path>
            <path d="M126.6682,46.2138 L126.6682,42.6128 C126.6682,42.5348 126.7352,42.4688 126.8132,42.4688 L129.3542,42.4688 C129.4252,42.4688 129.4892,42.5278 129.4892,42.6008 C129.4892,42.6748 129.4252,42.7358 129.3542,42.7358 L126.9622,42.7358 L126.9622,44.2628 L129.1012,44.2628 C129.1732,44.2628 129.2382,44.3238 129.2382,44.3978 C129.2382,44.4708 129.1732,44.5308 129.1012,44.5308 L126.9622,44.5308 L126.9622,46.0918 L129.3832,46.0918 C129.4552,46.0918 129.5172,46.1528 129.5172,46.2258 C129.5172,46.2968 129.4552,46.3578 129.3832,46.3578 L126.8132,46.3578 C126.7352,46.3578 126.6682,46.2928 126.6682,46.2138" id="Fill-43" fill="#FFFFFF"></path>
            <path d="M130.3155,42.5952 C130.3155,42.5172 130.3805,42.4512 130.4605,42.4512 L130.5065,42.4512 C130.5675,42.4512 130.6125,42.4832 130.6525,42.5352 L133.3045,45.8632 L133.3045,42.5862 C133.3045,42.5072 133.3665,42.4452 133.4435,42.4452 C133.5235,42.4452 133.5855,42.5072 133.5855,42.5862 L133.5855,46.2522 C133.5855,46.3192 133.5375,46.3752 133.4675,46.3752 L133.4435,46.3752 C133.3885,46.3752 133.3455,46.3362 133.2975,46.2802 L130.5975,42.8912 L130.5975,46.2402 C130.5975,46.3192 130.5335,46.3812 130.4555,46.3812 C130.3775,46.3812 130.3155,46.3192 130.3155,46.2402 L130.3155,42.5952 Z" id="Fill-45" fill="#FFFFFF"></path>
            <path d="M135.9456,46.0922 C137.0436,46.0922 137.7326,45.3512 137.7326,44.4252 L137.7326,44.4152 C137.7326,43.4902 137.0436,42.7352 135.9456,42.7352 L134.9296,42.7352 L134.9296,46.0922 L135.9456,46.0922 Z M134.6366,42.6122 C134.6366,42.5352 134.7036,42.4682 134.7836,42.4682 L135.9456,42.4682 C137.1836,42.4682 138.0376,43.3072 138.0376,44.4012 L138.0376,44.4152 C138.0376,45.5062 137.1836,46.3582 135.9456,46.3582 L134.7836,46.3582 C134.7036,46.3582 134.6366,46.2932 134.6366,46.2142 L134.6366,42.6122 Z" id="Fill-47" fill="#FFFFFF"></path>
            <path d="M138.9146,46.2138 L138.9146,42.6128 C138.9146,42.5348 138.9816,42.4688 139.0586,42.4688 L141.5996,42.4688 C141.6736,42.4688 141.7346,42.5278 141.7346,42.6008 C141.7346,42.6748 141.6736,42.7358 141.5996,42.7358 L139.2056,42.7358 L139.2056,44.2628 L141.3476,44.2628 C141.4206,44.2628 141.4826,44.3238 141.4826,44.3978 C141.4826,44.4708 141.4206,44.5308 141.3476,44.5308 L139.2056,44.5308 L139.2056,46.0918 L141.6276,46.0918 C141.6996,46.0918 141.7626,46.1528 141.7626,46.2258 C141.7626,46.2968 141.6996,46.3578 141.6276,46.3578 L139.0586,46.3578 C138.9816,46.3578 138.9146,46.2928 138.9146,46.2138" id="Fill-49" fill="#FFFFFF"></path>
            <path d="M143.8726,46.0922 C144.9646,46.0922 145.6566,45.3512 145.6566,44.4252 L145.6566,44.4152 C145.6566,43.4902 144.9646,42.7352 143.8726,42.7352 L142.8516,42.7352 L142.8516,46.0922 L143.8726,46.0922 Z M142.5576,42.6122 C142.5576,42.5352 142.6276,42.4682 142.7076,42.4682 L143.8726,42.4682 C145.1076,42.4682 145.9606,43.3072 145.9606,44.4012 L145.9606,44.4152 C145.9606,45.5062 145.1076,46.3582 143.8726,46.3582 L142.7076,46.3582 C142.6276,46.3582 142.5576,46.2932 142.5576,46.2142 L142.5576,42.6122 Z" id="Fill-51" fill="#FFFFFF"></path>
            <path d="M150.3155,44.425 L150.3155,44.415 C150.3155,43.452 149.6095,42.664 148.6365,42.664 C147.6625,42.664 146.9675,43.44 146.9675,44.401 L146.9675,44.415 C146.9675,45.375 147.6745,46.164 148.6475,46.164 C149.6185,46.164 150.3155,45.386 150.3155,44.425 M146.6635,44.425 L146.6635,44.415 C146.6635,43.352 147.4555,42.401 148.6475,42.401 C149.8395,42.401 150.6185,43.34 150.6185,44.401 L150.6185,44.415 C150.6185,45.475 149.8285,46.424 148.6365,46.424 C147.4455,46.424 146.6635,45.486 146.6635,44.425" id="Fill-53" fill="#FFFFFF"></path>
            <path d="M153.1142,44.4851 C153.7732,44.4851 154.2602,44.1571 154.2602,43.5951 L154.2602,43.5861 C154.2602,43.0621 153.8472,42.7361 153.1322,42.7361 L151.7892,42.7361 L151.7892,44.4851 L153.1142,44.4851 Z M151.4972,42.6121 C151.4972,42.5351 151.5652,42.4681 151.6422,42.4681 L153.1502,42.4681 C153.6322,42.4681 154.0192,42.6181 154.2552,42.8521 C154.4412,43.0351 154.5532,43.2971 154.5532,43.5751 L154.5532,43.5861 C154.5532,44.2351 154.0642,44.6091 153.4002,44.6961 L154.5212,46.1321 C154.5482,46.1641 154.5642,46.1961 154.5642,46.2301 C154.5642,46.3091 154.4932,46.3811 154.4112,46.3811 C154.3562,46.3811 154.3172,46.3461 154.2852,46.3021 L153.0752,44.7461 L151.7892,44.7461 L151.7892,46.2361 C151.7892,46.3131 151.7222,46.3811 151.6422,46.3811 C151.5652,46.3811 151.4972,46.3131 151.4972,46.2361 L151.4972,42.6121 Z" id="Fill-55" fill="#FFFFFF"></path>
            <path d="M155.4413,46.2138 L155.4413,42.6128 C155.4413,42.5348 155.5093,42.4688 155.5863,42.4688 L158.1263,42.4688 C158.1993,42.4688 158.2633,42.5278 158.2633,42.6008 C158.2633,42.6748 158.1993,42.7358 158.1263,42.7358 L155.7333,42.7358 L155.7333,44.2628 L157.8743,44.2628 C157.9453,44.2628 158.0073,44.3238 158.0073,44.3978 C158.0073,44.4708 157.9453,44.5308 157.8743,44.5308 L155.7333,44.5308 L155.7333,46.0918 L158.1563,46.0918 C158.2283,46.0918 158.2903,46.1528 158.2903,46.2258 C158.2903,46.2968 158.2283,46.3578 158.1563,46.3578 L155.5863,46.3578 C155.5093,46.3578 155.4413,46.2928 155.4413,46.2138" id="Fill-57" fill="#FFFFFF"></path>
            <path d="M158.9254,45.8707 C158.8984,45.8467 158.8684,45.8097 158.8684,45.7597 C158.8684,45.6797 158.9354,45.6137 159.0154,45.6137 C159.0544,45.6137 159.0884,45.6297 159.1104,45.6477 C159.5044,45.9967 159.8984,46.1527 160.4354,46.1527 C161.0244,46.1527 161.4334,45.8237 161.4334,45.3807 L161.4334,45.3687 C161.4334,44.9577 161.2114,44.7187 160.3204,44.5407 C159.3734,44.3517 158.9934,44.0347 158.9934,43.4467 L158.9934,43.4347 C158.9934,42.8577 159.5274,42.4127 160.2564,42.4127 C160.7824,42.4127 161.1504,42.5457 161.5094,42.8117 C161.5384,42.8347 161.5724,42.8737 161.5724,42.9297 C161.5724,43.0077 161.5024,43.0737 161.4264,43.0737 C161.3914,43.0737 161.3584,43.0617 161.3294,43.0417 C160.9874,42.7797 160.6464,42.6737 160.2454,42.6737 C159.6674,42.6737 159.2854,43.0017 159.2854,43.4067 L159.2854,43.4197 C159.2854,43.8307 159.4974,44.0797 160.4324,44.2677 C161.3424,44.4527 161.7224,44.7757 161.7224,45.3397 L161.7224,45.3507 C161.7224,45.9807 161.1794,46.4137 160.4214,46.4137 C159.8304,46.4137 159.3714,46.2307 158.9254,45.8707" id="Fill-59" fill="#FFFFFF"></path>
            <path d="M165.4426,46.0922 C166.5406,46.0922 167.2306,45.3512 167.2306,44.4252 L167.2306,44.4152 C167.2306,43.4902 166.5406,42.7352 165.4426,42.7352 L164.4276,42.7352 L164.4276,46.0922 L165.4426,46.0922 Z M164.1336,42.6122 C164.1336,42.5352 164.2016,42.4682 164.2826,42.4682 L165.4426,42.4682 C166.6816,42.4682 167.5336,43.3072 167.5336,44.4012 L167.5336,44.4152 C167.5336,45.5062 166.6816,46.3582 165.4426,46.3582 L164.2826,46.3582 C164.2016,46.3582 164.1336,46.2932 164.1336,46.2142 L164.1336,42.6122 Z" id="Fill-61" fill="#FFFFFF"></path>
            <path d="M168.4102,46.2138 L168.4102,42.6128 C168.4102,42.5348 168.4782,42.4688 168.5582,42.4688 L171.0992,42.4688 C171.1702,42.4688 171.2342,42.5278 171.2342,42.6008 C171.2342,42.6748 171.1702,42.7358 171.0992,42.7358 L168.7042,42.7358 L168.7042,44.2628 L170.8462,44.2628 C170.9182,44.2628 170.9802,44.3238 170.9802,44.3978 C170.9802,44.4708 170.9182,44.5308 170.8462,44.5308 L168.7042,44.5308 L168.7042,46.0918 L171.1262,46.0918 C171.2002,46.0918 171.2592,46.1528 171.2592,46.2258 C171.2592,46.2968 171.2002,46.3578 171.1262,46.3578 L168.5582,46.3578 C168.4782,46.3578 168.4102,46.2928 168.4102,46.2138" id="Fill-63" fill="#FFFFFF"></path>
            <path d="M173.4522,44.425 L173.4522,44.415 C173.4522,43.314 174.2832,42.401 175.4202,42.401 C176.0732,42.401 176.4822,42.625 176.8632,42.945 C176.8922,42.973 176.9192,43.012 176.9192,43.062 C176.9192,43.141 176.8452,43.207 176.7672,43.207 C176.7292,43.207 176.6872,43.191 176.6672,43.167 C176.3402,42.874 175.9632,42.664 175.4142,42.664 C174.4672,42.664 173.7552,43.424 173.7552,44.401 L173.7552,44.415 C173.7552,45.398 174.4792,46.164 175.4202,46.164 C175.9522,46.164 176.3282,45.976 176.6992,45.624 C176.7232,45.601 176.7572,45.58 176.8022,45.58 C176.8742,45.58 176.9432,45.648 176.9432,45.718 C176.9432,45.765 176.9192,45.797 176.8982,45.819 C176.4972,46.188 176.0672,46.424 175.4072,46.424 C174.2832,46.424 173.4522,45.541 173.4522,44.425" id="Fill-65" fill="#FFFFFF"></path>
            <path d="M177.6563,42.5888 C177.6563,42.5128 177.7233,42.4458 177.8033,42.4458 C177.8803,42.4458 177.9483,42.5128 177.9483,42.5888 L177.9483,44.2678 L180.4653,44.2678 L180.4653,42.5888 C180.4653,42.5128 180.5323,42.4458 180.6103,42.4458 C180.6913,42.4458 180.7573,42.5128 180.7573,42.5888 L180.7573,46.2358 C180.7573,46.3138 180.6913,46.3818 180.6103,46.3818 C180.5323,46.3818 180.4653,46.3138 180.4653,46.2358 L180.4653,44.5348 L177.9483,44.5348 L177.9483,46.2358 C177.9483,46.3138 177.8803,46.3818 177.8033,46.3818 C177.7233,46.3818 177.6563,46.3138 177.6563,46.2358 L177.6563,42.5888 Z" id="Fill-67" fill="#FFFFFF"></path>
            <path d="M181.8483,42.5888 C181.8483,42.5128 181.9163,42.4458 181.9963,42.4458 C182.0733,42.4458 182.1393,42.5128 182.1393,42.5888 L182.1393,46.2358 C182.1393,46.3138 182.0733,46.3818 181.9963,46.3818 C181.9163,46.3818 181.8483,46.3138 181.8483,46.2358 L181.8483,42.5888 Z" id="Fill-69" fill="#FFFFFF"></path>
            <path d="M183.2301,42.5888 C183.2301,42.5128 183.2971,42.4458 183.3771,42.4458 C183.4551,42.4458 183.5251,42.5128 183.5251,42.5888 L183.5251,46.0918 L185.7181,46.0918 C185.7931,46.0918 185.8551,46.1528 185.8551,46.2258 C185.8551,46.2968 185.7931,46.3578 185.7181,46.3578 L183.3771,46.3578 C183.2971,46.3578 183.2301,46.2928 183.2301,46.2138 L183.2301,42.5888 Z" id="Fill-71" fill="#FFFFFF"></path>
            <path d="M186.5907,46.2138 L186.5907,42.6128 C186.5907,42.5348 186.6577,42.4688 186.7387,42.4688 L189.2767,42.4688 C189.3507,42.4688 189.4117,42.5278 189.4117,42.6008 C189.4117,42.6748 189.3507,42.7358 189.2767,42.7358 L186.8817,42.7358 L186.8817,44.2628 L189.0227,44.2628 C189.0957,44.2628 189.1587,44.3238 189.1587,44.3978 C189.1587,44.4708 189.0957,44.5308 189.0227,44.5308 L186.8817,44.5308 L186.8817,46.0918 L189.3057,46.0918 C189.3777,46.0918 189.4397,46.1528 189.4397,46.2258 C189.4397,46.2968 189.3777,46.3578 189.3057,46.3578 L186.7387,46.3578 C186.6577,46.3578 186.5907,46.2928 186.5907,46.2138" id="Fill-73" fill="#FFFFFF"></path>
            <path d="M13.0003,27.8458 C13.0003,24.3678 10.0903,21.5518 6.4983,21.5518 C2.9083,21.5518 0.0003,24.3678 0.0003,27.8458 C0.0003,31.3218 2.9083,34.1418 6.4983,34.1418 C10.0903,34.1418 13.0003,31.3218 13.0003,27.8458" id="Fill-75" fill="#E04327"></path>
            <path d="M24.0243,28.0134 C24.0243,36.7334 20.1453,42.6364 19.8973,42.9984 C18.4153,45.1964 15.3763,45.8174 13.1023,44.3794 C10.8443,42.9474 10.1973,40.0234 11.6573,37.8284 C11.9363,37.3904 17.3823,28.6764 11.4233,17.4704 C10.1853,15.1334 11.1293,12.2664 13.5393,11.0634 C15.9533,9.8634 18.9103,10.7804 20.1543,13.1174 C23.0473,18.5614 24.0243,23.6424 24.0243,28.0134" id="Fill-77" fill="#E04327"></path>
            <path d="M28.7475,43.088 C25.1595,43.088 22.2495,45.907 22.2495,49.381 C22.2495,52.86 25.1595,55.68 28.7475,55.68 C32.3395,55.68 35.2495,52.859 35.2495,49.381 C35.2495,45.907 32.3395,43.088 28.7475,43.088" id="Fill-79" fill="#5C9FB9"></path>
            <path d="M44.5344,27.8458 C44.5344,31.3218 47.4444,34.1418 51.0344,34.1418 C54.6224,34.1418 57.5334,31.3218 57.5334,27.8458 C57.5334,24.3678 54.6224,21.5518 51.0344,21.5518 C47.4444,21.5518 44.5344,24.3678 44.5344,27.8458" id="Fill-81" fill="#E67B1F"></path>
            <path d="M28.7834,12.592 C32.3724,12.592 35.2814,9.771 35.2814,6.296 C35.2814,2.819 32.3724,0 28.7834,0 C25.1954,0 22.2854,2.819 22.2854,6.296 C22.2854,9.771 25.1954,12.592 28.7834,12.592" id="Fill-83" fill="#FED83B"></path>
            <path d="M46.6093,40.6432 C46.6033,40.7132 46.6003,40.7872 46.5913,40.8552 C46.6013,40.7852 46.6033,40.7132 46.6093,40.6432" id="Fill-85" fill="#5C9FB9"></path>
            <path d="M46.5555,41.1168 C46.5455,41.1798 46.5385,41.2388 46.5265,41.2968 C46.5385,41.2388 46.5455,41.1798 46.5555,41.1168" id="Fill-87" fill="#5C9FB9"></path>
            <path d="M46.6093,40.1645 C46.6153,40.2475 46.6153,40.3275 46.6153,40.4085 C46.6153,40.3275 46.6153,40.2475 46.6093,40.1645" id="Fill-89" fill="#5C9FB9"></path>
            <path d="M46.5574,39.6774 C46.5734,39.7744 46.5854,39.8664 46.5954,39.9624 C46.5854,39.8664 46.5734,39.7714 46.5574,39.6774" id="Fill-91" fill="#5C9FB9"></path>
            <path d="M46.4518,39.1725 C46.4848,39.2895 46.5118,39.4065 46.5318,39.5215 C46.5118,39.4065 46.4848,39.2895 46.4518,39.1725" id="Fill-93" fill="#5C9FB9"></path>
            <path d="M46.455,41.6 C46.442,41.642 46.429,41.685 46.419,41.729 C46.429,41.685 46.442,41.642 46.455,41.6" id="Fill-95" fill="#5C9FB9"></path>
            <path d="M46.2694,42.1446 C46.2774,42.1276 46.2844,42.1106 46.2894,42.0956 C46.2844,42.1106 46.2774,42.1276 46.2694,42.1446" id="Fill-97" fill="#5C9FB9"></path>
            <path d="M46.4294,39.095 C46.3274,38.744 46.1874,38.406 46.0034,38.084 C46.0274,38.131 46.0484,38.175 46.0734,38.221 C46.2244,38.506 46.3424,38.8 46.4294,39.095" id="Fill-99" fill="#5C9FB9"></path>
            <path d="M37.344,42.5747 C35.521,39.1427 34.456,35.8557 33.922,32.7997 C32.388,32.5617 30.712,32.4117 28.921,32.4117 C24.407,32.4117 19.16,33.3547 13.539,36.1577 C11.129,37.3617 10.181,40.2267 11.423,42.5627 C12.662,44.8957 15.624,45.8127 18.035,44.6147 C28.943,39.1707 37.56,43.5427 38.89,44.2887 C38.259,43.8617 37.722,43.2847 37.344,42.5747" id="Fill-101" fill="#5C9FB9"></path>
            <path d="M46.4192,41.7293 C46.3812,41.8493 46.3392,41.9753 46.2882,42.0963 C46.3392,41.9753 46.3812,41.8523 46.4192,41.7293" id="Fill-103" fill="#E67B1F"></path>
            <path d="M39.0547,44.3853 C39.0287,44.3703 38.9727,44.3353 38.8907,44.2883 C40.3367,45.2713 42.2787,45.4643 43.9557,44.6263 C45.0577,44.0773 45.8487,43.1813 46.2697,42.1443 C46.1507,42.4333 46.0037,42.7123 45.8197,42.9873 C44.3447,45.1753 41.3207,45.7943 39.0547,44.3853" id="Fill-105" fill="#E67B1F"></path>
            <path d="M46.4294,39.095 C46.4374,39.12 46.4414,39.146 46.4514,39.172 C46.4414,39.146 46.4374,39.12 46.4294,39.095" id="Fill-107" fill="#E67B1F"></path>
            <path d="M46.535,39.5251 C46.544,39.5751 46.553,39.6271 46.56,39.6771 C46.553,39.6271 46.544,39.5751 46.535,39.5251" id="Fill-109" fill="#E67B1F"></path>
            <path d="M46.5958,39.9622 C46.6038,40.0292 46.6058,40.0952 46.6088,40.1642 C46.6058,40.0952 46.6038,40.0292 46.5958,39.9622" id="Fill-111" fill="#E67B1F"></path>
            <path d="M46.615,40.4083 C46.615,40.4873 46.612,40.5643 46.609,40.6433 C46.612,40.5643 46.615,40.4873 46.615,40.4083" id="Fill-113" fill="#E67B1F"></path>
            <path d="M46.5914,40.8557 C46.5854,40.9437 46.5704,41.0307 46.5554,41.1157 C46.5704,41.0307 46.5854,40.9467 46.5914,40.8557" id="Fill-115" fill="#E67B1F"></path>
            <path d="M46.6093,40.1645 C46.6063,40.0975 46.6013,40.0295 46.5963,39.9625 C46.5853,39.8685 46.5733,39.7715 46.5573,39.6775 C46.5533,39.6275 46.5443,39.5755 46.5323,39.5255 C46.5083,39.4065 46.4843,39.2905 46.4523,39.1725 C46.4443,39.1475 46.4373,39.1205 46.4293,39.0955 C46.3413,38.7965 46.2243,38.5065 46.0733,38.2215 C46.0483,38.1745 46.0273,38.1305 46.0043,38.0865 C40.1643,26.9445 45.5583,18.2975 45.8383,17.8635 C45.8933,17.7815 45.9413,17.7085 45.9783,17.6345 C45.5253,18.4135 44.8403,19.0785 43.9563,19.5205 C40.4183,21.2855 37.0293,22.3115 33.8773,22.8325 C33.6283,24.3235 33.4763,25.9425 33.4763,27.6785 C33.4763,29.2965 33.6103,31.0095 33.9223,32.8005 C34.4563,35.8585 35.5213,39.1415 37.3443,42.5745 C37.7223,43.2845 38.2593,43.8635 38.8933,44.2885 C38.9733,44.3355 39.0293,44.3705 39.0563,44.3855 C41.3203,45.7975 44.3453,45.1755 45.8193,42.9865 C46.0043,42.7125 46.1503,42.4335 46.2693,42.1445 C46.2763,42.1285 46.2843,42.1125 46.2883,42.0965 C46.3393,41.9755 46.3803,41.8495 46.4163,41.7295 C46.4293,41.6855 46.4413,41.6425 46.4563,41.6005 C46.4813,41.5005 46.5053,41.3995 46.5263,41.2975 C46.5363,41.2375 46.5453,41.1775 46.5553,41.1165 C46.5703,41.0315 46.5853,40.9445 46.5913,40.8555 C46.6003,40.7855 46.6033,40.7145 46.6093,40.6435 C46.6093,40.5635 46.6153,40.4875 46.6153,40.4085 C46.6153,40.3275 46.6153,40.2475 46.6093,40.1645" id="Fill-117" fill="#E67B1F"></path>
            <path d="M46.5261,41.2979 C46.5061,41.3999 46.4821,41.4999 46.4551,41.5999 C46.4821,41.4999 46.5061,41.4019 46.5261,41.2979" id="Fill-119" fill="#E67B1F"></path>
            <path d="M46.0736,13.1174 C44.8326,10.7794 41.8726,9.8654 39.4616,11.0654 C27.8916,16.8354 18.8926,11.5644 18.4386,11.2944 C16.1736,9.8814 15.5426,11.7694 14.0656,13.9574 C12.5836,16.1584 10.8326,17.8404 13.1026,19.2744 C13.2776,19.3834 14.6786,20.2494 17.0296,21.1474 C19.7496,22.1854 23.7436,23.2694 28.5766,23.2694 C30.2476,23.2694 32.0196,23.1344 33.8776,22.8294 C37.0296,22.3104 40.4196,21.2854 43.9546,19.5204 C44.8406,19.0784 45.5236,18.4154 45.9806,17.6334 C46.0156,17.5694 46.0456,17.5114 46.0696,17.4544 C46.7636,16.1374 46.8256,14.5334 46.0736,13.1174" id="Fill-121" fill="#FED83B"></path>
            <path d="M18.3174,11.2237 C18.2404,11.1787 18.1564,11.1317 18.0764,11.0887 C18.0054,11.0537 17.9304,11.0217 17.8574,10.9867 C17.7884,10.9567 17.7234,10.9277 17.6554,10.8977 C17.5694,10.8637 17.4804,10.8317 17.3884,10.8027 C17.3354,10.7837 17.2724,10.7657 17.2164,10.7477 C17.1214,10.7197 17.0264,10.6957 16.9294,10.6717 C16.8714,10.6607 16.8154,10.6457 16.7554,10.6367 C16.6624,10.6137 16.5674,10.6017 16.4714,10.5897 C16.4094,10.5797 16.3454,10.5717 16.2784,10.5637 C16.1954,10.5557 16.1064,10.5517 16.0174,10.5457 C15.9444,10.5457 15.8684,10.5397 15.7974,10.5397 C15.7144,10.5397 15.6404,10.5437 15.5614,10.5457 C15.4784,10.5517 15.3934,10.5547 15.3124,10.5637 C15.2394,10.5697 15.1694,10.5797 15.0954,10.5897 C15.0094,10.6017 14.9244,10.6137 14.8414,10.6297 C14.7684,10.6457 14.6964,10.6607 14.6224,10.6777 C14.5434,10.6967 14.4644,10.7157 14.3864,10.7397 C14.3014,10.7627 14.2204,10.7927 14.1384,10.8207 C14.0734,10.8427 14.0094,10.8637 13.9454,10.8897 C13.8444,10.9277 13.7444,10.9727 13.6424,11.0217 C13.6014,11.0407 13.5574,11.0627 13.5094,11.0827 C13.3974,11.1397 13.2964,11.2007 13.1904,11.2617 C13.1564,11.2827 13.1204,11.3017 13.0864,11.3227 C12.9904,11.3857 12.8944,11.4527 12.8044,11.5207 C12.7644,11.5467 12.7294,11.5767 12.6884,11.6057 C12.6154,11.6637 12.5464,11.7277 12.4734,11.7907 C12.4264,11.8347 12.3714,11.8767 12.3224,11.9257 C12.2704,11.9737 12.2254,12.0277 12.1764,12.0777 C12.1114,12.1457 12.0504,12.2077 11.9934,12.2807 C11.9544,12.3247 11.9184,12.3717 11.8804,12.4177 C11.8184,12.4977 11.7584,12.5777 11.7024,12.6607 C11.6654,12.7147 11.6324,12.7697 11.5984,12.8237 C11.5474,12.9027 11.5004,12.9807 11.4574,13.0597 C11.4174,13.1317 11.3814,13.2047 11.3454,13.2777 C11.3134,13.3417 11.2854,13.4047 11.2574,13.4677 C11.2194,13.5557 11.1854,13.6427 11.1544,13.7347 C11.1354,13.7897 11.1144,13.8407 11.0964,13.8967 C11.0664,13.9887 11.0434,14.0857 11.0194,14.1827 C11.0064,14.2347 10.9914,14.2887 10.9814,14.3447 C10.9634,14.4357 10.9454,14.5287 10.9304,14.6237 C10.9214,14.6847 10.9124,14.7427 10.9064,14.8067 C10.8974,14.8927 10.8934,14.9747 10.8894,15.0617 C10.8854,15.1337 10.8824,15.2047 10.8824,15.2747 C10.8804,15.3507 10.8854,15.4277 10.8894,15.5037 C10.8904,15.5827 10.8944,15.6647 10.9034,15.7437 C10.9094,15.8117 10.9184,15.8827 10.9304,15.9507 C10.9404,16.0347 10.9544,16.1187 10.9704,16.2037 C10.9894,16.2707 11.0044,16.3397 11.0194,16.4077 C11.0404,16.4867 11.0614,16.5677 11.0864,16.6447 C11.1084,16.7247 11.1354,16.7997 11.1644,16.8757 C11.1884,16.9447 11.2124,17.0117 11.2404,17.0787 C11.2764,17.1677 11.3194,17.2567 11.3664,17.3457 C11.7404,18.1037 12.3224,18.7817 13.1024,19.2747 C13.2824,19.3897 14.6344,23.5797 17.0914,24.4967 C18.7784,25.1277 21.4364,25.9377 23.5674,22.8737 C23.0364,19.8237 21.9734,16.5427 20.1544,13.1177 C19.7194,12.3017 19.0734,11.6637 18.3174,11.2237" id="Fill-123" fill="#E04327"></path>
        </g>
    </g>
</svg>