<?xml version="1.0" encoding="UTF-8" standalone="no"?>
<svg width="85px" height="16px" viewBox="0 0 85 16" version="1.1" xmlns="http://www.w3.org/2000/svg" xmlns:xlink="http://www.w3.org/1999/xlink">
    <!-- Generator: Sketch 41 (35326) - http://www.bohemiancoding.com/sketch -->
    <title>Group 2</title>
    <desc>Created with Sketch.</desc>
    <defs></defs>
    <g id="Page-1" stroke="none" stroke-width="1" fill="none" fill-rule="evenodd">
        <g id="profile-viz-section" transform="translate(-22.000000, -19.000000)" fill="#424859">
            <g id="profile-nav" transform="translate(-1.000000, -1.000000)">
                <g id="Group-2" transform="translate(23.000000, 20.000000)">
                    <path d="M0.501023126,15.372073 L0.501023126,1.59152793 L4.73172619,1.59152793 C6.53633041,1.59152793 7.98440892,2.14520501 9.07600518,3.25257578 C10.1676014,4.35994654 10.7133914,5.79067336 10.7133914,7.54479913 L10.7133914,9.42826649 C10.7133914,11.1887021 10.1676014,12.6194289 9.07600518,13.7204899 C7.98440892,14.8215508 6.53633041,15.372073 4.73172619,15.372073 L0.501023126,15.372073 Z M2.36556117,3.05855024 L2.36556117,13.9145154 L4.73172619,13.9145154 C6.00630679,13.9145154 7.01112816,13.4949196 7.74622044,12.6557156 C8.48131271,11.8165115 8.84885334,10.7407059 8.84885334,9.42826649 L8.84885334,7.52586981 C8.84885334,6.22604999 8.48131271,5.1565541 7.74622044,4.31735004 C7.01112816,3.47814598 6.00630679,3.05855024 4.73172619,3.05855024 L2.36556117,3.05855024 Z M19.2126562,15.372073 C19.1495581,15.0628926 19.1006578,14.7899976 19.0659539,14.5533799 C19.03125,14.3167623 19.0107434,14.0785707 19.0044336,13.8387981 C18.6573944,14.3309629 18.2046726,14.7426715 17.6462549,15.0739362 C17.0878372,15.405201 16.4868373,15.5708309 15.8432372,15.5708309 C14.7768801,15.5708309 13.9645049,15.2979359 13.4060872,14.7521378 C12.8476694,14.2063397 12.5684648,13.4539067 12.5684648,12.4948164 C12.5684648,11.5167966 12.9643991,10.7517442 13.7562796,10.1996363 C14.5481601,9.64752836 15.6223883,9.37147853 16.9789964,9.37147853 L19.0044336,9.37147853 L19.0044336,8.3587599 C19.0044336,7.75932843 18.821452,7.28452273 18.4554833,6.93432856 C18.0895147,6.58413438 17.5721184,6.40903992 16.9032791,6.40903992 C16.3038476,6.40903992 15.8164225,6.5620504 15.4409891,6.86807594 C15.0655557,7.17410148 14.8778418,7.5416421 14.8778418,7.97070884 L13.0984857,7.97070884 L13.0795564,7.91392088 C13.0416976,7.16936389 13.3934639,6.48791518 14.134866,5.86955429 C14.8762681,5.25119341 15.8337666,4.9420176 17.0073903,4.9420176 C18.1683945,4.9420176 19.1022316,5.23699656 19.8089297,5.82696332 C20.5156279,6.41693009 20.8689717,7.26716355 20.8689717,8.37768922 L20.8689717,13.3087771 C20.8689717,13.6747458 20.8879008,14.0280896 20.9257596,14.3688191 C20.9636185,14.7095485 21.0330253,15.0439632 21.1339822,15.372073 L19.2126562,15.372073 Z M16.1177123,14.009162 C16.7928614,14.009162 17.4017485,13.835645 17.9443917,13.4886057 C18.4870349,13.1415664 18.8403787,12.7440547 19.0044336,12.2960585 L19.0044336,10.6302783 L16.9127437,10.6302783 C16.161877,10.6302783 15.5608771,10.8195696 15.109726,11.1981579 C14.6585749,11.5767462 14.4330028,12.0215808 14.4330028,12.532675 C14.4330028,12.986981 14.5749713,13.3466345 14.8589125,13.6116463 C15.1428537,13.8766581 15.5624495,14.009162 16.1177123,14.009162 Z M26.0366761,2.66103452 L26.0366761,5.13131081 L27.9769314,5.13131081 L27.9769314,6.51315118 L26.0366761,6.51315118 L26.0366761,12.7314329 C26.0366761,13.210978 26.136054,13.5485475 26.3348129,13.7441515 C26.5335717,13.9397555 26.7970021,14.037556 27.125112,14.037556 C27.2323787,14.037556 27.3506858,14.0249365 27.4800368,13.9996973 C27.6093878,13.9744581 27.72454,13.9429096 27.8254968,13.9050507 L28.071578,15.1827798 C27.9327623,15.2963563 27.7292741,15.3894246 27.4611074,15.4619873 C27.1929407,15.5345501 26.9232006,15.5708309 26.651879,15.5708309 C25.8947024,15.5708309 25.2921251,15.3421039 24.8441289,14.884643 C24.3961328,14.4271822 24.172138,13.7094526 24.172138,12.7314329 L24.172138,6.51315118 L22.5442165,6.51315118 L22.5442165,5.13131081 L24.172138,5.13131081 L24.172138,2.66103452 L26.0366761,2.66103452 Z M36.5708428,15.372073 C36.5077447,15.0628926 36.4588445,14.7899976 36.4241406,14.5533799 C36.3894366,14.3167623 36.3689301,14.0785707 36.3626203,13.8387981 C36.015581,14.3309629 35.5628593,14.7426715 35.0044415,15.0739362 C34.4460238,15.405201 33.8450239,15.5708309 33.2014238,15.5708309 C32.1350668,15.5708309 31.3226915,15.2979359 30.7642738,14.7521378 C30.2058561,14.2063397 29.9266514,13.4539067 29.9266514,12.4948164 C29.9266514,11.5167966 30.3225857,10.7517442 31.1144662,10.1996363 C31.9063468,9.64752836 32.9805749,9.37147853 34.337183,9.37147853 L36.3626203,9.37147853 L36.3626203,8.3587599 C36.3626203,7.75932843 36.1796387,7.28452273 35.81367,6.93432856 C35.4477013,6.58413438 34.930305,6.40903992 34.2614657,6.40903992 C33.6620342,6.40903992 33.1746091,6.5620504 32.7991757,6.86807594 C32.4237423,7.17410148 32.2360285,7.5416421 32.2360285,7.97070884 L30.4566724,7.97070884 L30.437743,7.91392088 C30.3998842,7.16936389 30.7516506,6.48791518 31.4930526,5.86955429 C32.2344547,5.25119341 33.1919533,4.9420176 34.365577,4.9420176 C35.5265811,4.9420176 36.4604182,5.23699656 37.1671164,5.82696332 C37.8738145,6.41693009 38.2271583,7.26716355 38.2271583,8.37768922 L38.2271583,13.3087771 C38.2271583,13.6747458 38.2460874,14.0280896 38.2839463,14.3688191 C38.3218051,14.7095485 38.3912119,15.0439632 38.4921688,15.372073 L36.5708428,15.372073 Z M33.4758989,14.009162 C34.1510481,14.009162 34.7599351,13.835645 35.3025783,13.4886057 C35.8452216,13.1415664 36.1985653,12.7440547 36.3626203,12.2960585 L36.3626203,10.6302783 L34.2709304,10.6302783 C33.5200636,10.6302783 32.9190637,10.8195696 32.4679126,11.1981579 C32.0167616,11.5767462 31.7911894,12.0215808 31.7911894,12.532675 C31.7911894,12.986981 31.9331579,13.3466345 32.2170991,13.6116463 C32.5010404,13.8766581 32.9206361,14.009162 33.4758989,14.009162 Z" id="Data"></path>
                    <path d="M53.2082625,10.6870663 L53.2271918,10.7438542 C53.252431,12.2266584 52.7997093,13.401842 51.8690131,14.2694401 C50.9383169,15.1370383 49.6464037,15.5708309 47.9932348,15.5708309 C46.3337561,15.5708309 44.9866329,15.0376604 43.9518249,13.9713033 C42.9170169,12.9049463 42.3996207,11.5325843 42.3996207,9.8541762 L42.3996207,7.11888943 C42.3996207,5.44679112 42.9043975,4.07442912 43.9139663,3.00176228 C44.9235351,1.92909544 46.2359548,1.39277006 47.8512649,1.39277006 C49.5549122,1.39277006 50.8862611,1.8297175 51.8453515,2.70362549 C52.8044418,3.57753348 53.2713604,4.7684913 53.2461211,6.27653468 L53.2271918,6.33332264 L50.5392284,6.33332264 C50.5392284,5.42471073 50.3215434,4.72906517 49.8861668,4.24636509 C49.4507903,3.76366501 48.7724964,3.52231859 47.8512649,3.52231859 C47.0246804,3.52231859 46.3684706,3.85831066 45.8826156,4.53030489 C45.3967606,5.20229912 45.1538368,6.05884229 45.1538368,7.09996011 L45.1538368,9.8541762 C45.1538368,10.9079136 45.40938,11.7707665 45.9204742,12.4427607 C46.4315684,13.114755 47.1224817,13.450747 47.9932348,13.450747 C48.8576781,13.450747 49.4965362,13.2188652 49.9098285,12.7550945 C50.3231207,12.2913239 50.5297637,11.601988 50.5297637,10.6870663 L53.2082625,10.6870663 Z M57.6661174,6.42796924 C57.9879175,5.96104367 58.3822744,5.5966579 58.8491999,5.334801 C59.3161255,5.07294409 59.8335217,4.9420176 60.4014042,4.9420176 C61.4677612,4.9420176 62.3053753,5.29693881 62.9142714,6.00679187 C63.5231676,6.71664492 63.8276111,7.81295709 63.8276111,9.29576125 L63.8276111,15.372073 L61.0639304,15.372073 L61.0639304,9.27683193 C61.0639304,8.48179651 60.9235393,7.91865486 60.642753,7.5873901 C60.3619667,7.25612534 59.9439484,7.09049545 59.3886856,7.09049545 C59.0100973,7.09049545 58.6756826,7.15832483 58.3854316,7.29398564 C58.0951806,7.42964645 57.8554116,7.62051518 57.6661174,7.86659758 L57.6661174,15.372073 L54.9024367,15.372073 L54.9024367,0.607203276 L57.6661174,0.607203276 L57.6661174,6.42796924 Z M68.815487,15.372073 L66.0518063,15.372073 L66.0518063,5.13131081 L68.815487,5.13131081 L68.815487,15.372073 Z M68.815487,2.67996384 L66.0518063,2.67996384 L66.0518063,0.607203276 L68.815487,0.607203276 L68.815487,2.67996384 Z M73.9926561,15.372073 L71.2289753,15.372073 L71.2289753,0.607203276 L73.9926561,0.607203276 L73.9926561,15.372073 Z M80.7977467,15.5708309 C79.3212524,15.5708309 78.1413365,15.0976026 77.2579638,14.1511319 C76.3745911,13.2046611 75.9329114,12.0026613 75.9329114,10.5450964 L75.9329114,10.16651 C75.9329114,8.64584699 76.3509297,7.39336949 77.1869789,6.40903992 C78.023028,5.42471035 79.144579,4.9357078 80.5516656,4.9420176 C81.9335128,4.9420176 83.0061636,5.35845848 83.76965,6.19135274 C84.5331364,7.02424699 84.9148739,8.15053028 84.9148739,9.5702364 L84.9148739,11.0751174 L78.8007034,11.0751174 L78.7817741,11.1319053 C78.8322526,11.8070544 79.0578247,12.3623089 79.4584973,12.7976855 C79.8591699,13.233062 80.4033824,13.450747 81.0911512,13.450747 C81.7032023,13.450747 82.2111339,13.3892274 82.6149615,13.2661862 C83.018789,13.143145 83.4604687,12.9491214 83.9400139,12.6841096 L84.687722,14.3877484 C84.2712749,14.7284779 83.7254849,15.0108374 83.0503358,15.2348355 C82.3751867,15.4588335 81.6243312,15.5708309 80.7977467,15.5708309 Z M80.5516656,7.07156613 C80.0405713,7.07156613 79.6367499,7.26716715 79.3401891,7.65837505 C79.0436282,8.04958296 78.8606466,8.56382435 78.7912388,9.20111465 L78.8196328,9.24843795 L82.2079811,9.24843795 L82.2079811,9.00235679 C82.2079811,8.41554493 82.0707449,7.94704894 81.7962684,7.59685476 C81.5217918,7.24666059 81.1069284,7.07156613 80.5516656,7.07156613 Z" id="Chile"></path>
                </g>
            </g>
        </g>
    </g>
</svg>