<?xml version="1.0" encoding="UTF-8" standalone="no"?>
<svg width="190px" height="46px" viewBox="0 0 190 46" version="1.1" xmlns="http://www.w3.org/2000/svg" xmlns:xlink="http://www.w3.org/1999/xlink">
    <!-- Generator: Sketch 42 (36781) - http://www.bohemiancoding.com/sketch -->
    <title>logo-antofagasta-minerals</title>
    <desc>Created with Sketch.</desc>
    <defs>
        <polygon id="path-1" points="0 45 189.065916 45 189.065916 0.55 0 0.55"></polygon>
    </defs>
    <g id="Symbols" stroke="none" stroke-width="1" fill="none" fill-rule="evenodd">
        <g id="logo-antofagasta-minerals">
            <path d="M73.0746963,10.0199 L71.3875759,5.1529 L69.6338063,10.0199 L73.0746963,10.0199 Z M70.6126545,3.5169 L72.2888325,3.5169 L76.2668953,14.5349 L74.6404555,14.5349 L73.4954817,11.2349 L69.1961099,11.2349 L68.0073665,14.5349 L66.485377,14.5349 L70.6126545,3.5169 Z" id="Fill-1" fill="#FCFCFC"></path>
            <polygon id="Fill-2" fill="#FCFCFC" points="78.7518168 3.5174 80.5006126 3.5174 85.9668429 12.4194 85.9668429 3.5174 87.3833874 3.5174 87.3833874 14.5354 85.7161623 14.5354 80.169356 5.6434 80.169356 14.5354 78.7518168 14.5354"></polygon>
            <polygon id="Fill-3" fill="#FCFCFC" points="98.9002723 3.5174 98.9002723 4.8294 95.206712 4.8294 95.206712 14.5354 93.7076021 14.5354 93.7076021 4.8294 90.0140419 4.8294 90.0140419 3.5174"></polygon>
            <g id="Group-116" transform="translate(0.000000, 0.450500)">
                <path d="M108.861147,11.6644 C109.445073,10.7214 109.737534,9.6364 109.737534,8.4104 C109.737534,7.1144 109.400309,6.0714 108.726853,5.2804 C108.053398,4.4904 107.131251,4.0944 105.962403,4.0944 C104.828372,4.0944 103.903241,4.4864 103.18701,5.2694 C102.47078,6.0524 102.112665,7.2064 102.112665,8.7334 C102.112665,9.9544 102.420047,10.9844 103.034812,11.8224 C103.648581,12.6604 104.64434,13.0794 106.022089,13.0794 C107.330204,13.0794 108.27722,12.6074 108.861147,11.6644 Z M110.170257,4.6424 C110.896435,5.6164 111.259524,6.8644 111.259524,8.3844 C111.259524,10.0294 110.844707,11.3964 110.014079,12.4874 C109.039209,13.7674 107.648529,14.4074 105.843031,14.4074 C104.156906,14.4074 102.83188,13.8474 101.866958,12.7264 C101.006487,11.6464 100.575754,10.2824 100.575754,8.6314 C100.575754,7.1424 100.943817,5.8664 101.679942,4.8074 C102.624969,3.4474 104.022613,2.7674 105.872874,2.7674 C107.807691,2.7674 109.240152,3.3924 110.170257,4.6424 Z" id="Fill-4" fill="#FCFCFC"></path>
                <polygon id="Fill-6" fill="#FCFCFC" points="114.315639 3.0669 121.918623 3.0669 121.918623 4.4169 115.800822 4.4169 115.800822 7.7619 121.179513 7.7619 121.179513 9.0749 115.800822 9.0749 115.800822 14.0849 114.315639 14.0849"></polygon>
                <path d="M129.477838,9.5694 L127.790717,4.7024 L126.036948,9.5694 L129.477838,9.5694 Z M127.015796,3.0664 L128.691974,3.0664 L132.670037,14.0844 L131.043597,14.0844 L129.898623,10.7844 L125.599251,10.7844 L124.410508,14.0844 L122.888518,14.0844 L127.015796,3.0664 Z" id="Fill-8" fill="#FCFCFC"></path>
                <path d="M142.45056,3.3819 C143.523911,3.9569 144.18145,4.9649 144.421188,6.4049 L142.950927,6.4049 C142.775848,5.5989 142.412759,5.0129 141.862654,4.6459 C141.31255,4.2779 140.618204,4.0949 139.780613,4.0949 C138.786843,4.0949 137.950246,4.4769 137.270822,5.2419 C136.591398,6.0069 136.251188,7.1469 136.251188,8.6619 C136.251188,9.9719 136.531712,11.0379 137.092759,11.8609 C137.652812,12.6829 138.567,13.0949 139.83433,13.0949 C140.804225,13.0949 141.607,12.8059 142.243649,12.2279 C142.879304,11.6509 143.204592,10.7169 143.219513,9.4269 L139.788571,9.4269 L139.788571,8.1899 L144.600246,8.1899 L144.600246,14.0839 L143.645272,14.0839 L143.287157,12.6669 C142.792759,13.2219 142.355063,13.6069 141.973073,13.8219 C141.332445,14.1919 140.517733,14.3769 139.528937,14.3769 C138.252654,14.3769 137.15344,13.9549 136.234277,13.1099 C135.231555,12.0499 134.729199,10.5949 134.729199,8.7449 C134.729199,6.8999 135.219618,5.4319 136.200455,4.3419 C137.131555,3.3019 138.337209,2.7819 139.818414,2.7819 C140.833073,2.7819 141.710455,2.9819 142.45056,3.3819" id="Fill-10" fill="#FCFCFC"></path>
                <path d="M153.846084,9.5694 L152.158963,4.7024 L150.405194,9.5694 L153.846084,9.5694 Z M151.384042,3.0664 L153.06022,3.0664 L157.038283,14.0844 L155.411843,14.0844 L154.267864,10.7844 L149.967497,10.7844 L148.778754,14.0844 L147.256764,14.0844 L151.384042,3.0664 Z" id="Fill-12" fill="#FCFCFC"></path>
                <path d="M160.493099,10.5294 C160.526921,11.1544 160.668178,11.6614 160.916869,12.0514 C161.391372,12.7824 162.226974,13.1464 163.42467,13.1464 C163.961843,13.1464 164.450272,13.0674 164.890953,12.9074 C165.744461,12.5974 166.171215,12.0414 166.171215,11.2414 C166.171215,10.6424 165.990168,10.2144 165.628073,9.9594 C165.262,9.7094 164.689016,9.4914 163.908126,9.3064 L162.470691,8.9694 C161.530639,8.7494 160.865141,8.5064 160.475194,8.2414 C159.800743,7.7824 159.463518,7.0944 159.463518,6.1794 C159.463518,5.1894 159.794775,4.3774 160.458283,3.7414 C161.121791,3.1064 162.059853,2.7894 163.275455,2.7894 C164.393571,2.7894 165.343571,3.0684 166.124461,3.6254 C166.906346,4.1834 167.297288,5.0744 167.297288,6.2994 L165.901634,6.2994 C165.83001,5.7094 165.677812,5.2564 165.444042,4.9414 C165.010325,4.3664 164.273204,4.0794 163.233675,4.0794 C162.395089,4.0794 161.791267,4.2644 161.424199,4.6344 C161.057131,5.0044 160.873099,5.4344 160.873099,5.9244 C160.873099,6.4644 161.089958,6.8594 161.523675,7.1094 C161.808178,7.2694 162.451791,7.4694 163.454513,7.7094 L164.943675,8.0624 C165.660901,8.2314 166.215979,8.4644 166.605927,8.7594 C167.280377,9.2744 167.617602,10.0214 167.617602,11.0024 C167.617602,12.2224 167.187864,13.0944 166.326398,13.6194 C165.465927,14.1444 164.465194,14.4074 163.325194,14.4074 C161.996188,14.4074 160.955665,14.0564 160.203623,13.3564 C159.451581,12.6614 159.083518,11.7194 159.09844,10.5294 L160.493099,10.5294 Z" id="Fill-14" fill="#FCFCFC"></path>
                <polygon id="Fill-16" fill="#FCFCFC" points="178.828597 3.0669 178.828597 4.3789 175.136031 4.3789 175.136031 14.0849 173.635927 14.0849 173.635927 4.3789 169.943361 4.3789 169.943361 3.0669"></polygon>
                <path d="M185.873518,9.5694 L184.186398,4.7024 L182.432628,9.5694 L185.873518,9.5694 Z M183.411476,3.0664 L185.087654,3.0664 L189.065717,14.0844 L187.439277,14.0844 L186.295298,10.7844 L181.994932,10.7844 L180.806188,14.0844 L179.284199,14.0844 L183.411476,3.0664 Z" id="Fill-18" fill="#FCFCFC"></path>
                <path d="M67.3771832,21.4989 L69.5039895,21.4989 L72.6554031,30.8139 L75.7849319,21.4989 L77.8968168,21.4989 L77.8968168,32.5169 L76.4792775,32.5169 L76.4792775,26.0139 C76.4792775,25.7889 76.4842513,25.4159 76.494199,24.8969 C76.5041466,24.3769 76.5091204,23.8189 76.5091204,23.2239 L73.3805864,32.5169 L71.9093298,32.5169 L68.7499581,23.2239 L68.7499581,23.5619 C68.7499581,23.8319 68.7579162,24.2429 68.7728377,24.7949 C68.7877592,25.3479 68.7947225,25.7539 68.7947225,26.0139 L68.7947225,32.5169 L67.3771832,32.5169 L67.3771832,21.4989 Z" id="Fill-20" fill="#FCFCFC"></path>
                <mask id="mask-2" fill="white">
                    <use xlink:href="#path-1"></use>
                </mask>
                <g id="Clip-23"></g>
                <polygon id="Fill-22" fill="#FCFCFC" mask="url(#mask-2)" points="81.6243979 32.517 83.1245026 32.517 83.1245026 21.499 81.6243979 21.499"></polygon>
                <polygon id="Fill-24" fill="#FCFCFC" mask="url(#mask-2)" points="86.6795916 21.4989 88.4283874 21.4989 93.8946178 30.4009 93.8946178 21.4989 95.3111623 21.4989 95.3111623 32.5169 93.6439372 32.5169 88.0971309 23.6249 88.0971309 32.5169 86.6795916 32.5169"></polygon>
                <polygon id="Fill-25" fill="#FCFCFC" mask="url(#mask-2)" points="99.0017382 21.4989 106.95488 21.4989 106.95488 22.8489 100.44912 22.8489 100.44912 26.1939 106.462471 26.1939 106.462471 27.4689 100.44912 27.4689 100.44912 31.2039 107.066293 31.2039 107.066293 32.5169 99.0017382 32.5169"></polygon>
                <path d="M115.198492,26.5464 C115.875927,26.5464 116.41111,26.4064 116.806031,26.1264 C117.199958,25.8464 117.396921,25.3414 117.396921,24.6114 C117.396921,23.8264 117.121372,23.2914 116.570272,23.0064 C116.274827,22.8564 115.880901,22.7814 115.387497,22.7814 L111.861058,22.7814 L111.861058,26.5464 L115.198492,26.5464 Z M110.376869,21.4984 L115.358649,21.4984 C116.178335,21.4984 116.854775,21.6214 117.387969,21.8664 C118.398649,22.3364 118.90399,23.2044 118.90399,24.4694 C118.90399,25.1294 118.768702,25.6684 118.497131,26.0884 C118.226555,26.5084 117.84755,26.8464 117.360115,27.1014 C117.787864,27.2764 118.109173,27.5064 118.326031,27.7914 C118.541895,28.0764 118.663257,28.5394 118.688126,29.1794 L118.739853,30.6564 C118.754775,31.0764 118.789592,31.3884 118.844304,31.5944 C118.933832,31.9444 119.092995,32.1684 119.321791,32.2694 L119.321791,32.5164 L117.501372,32.5164 C117.451634,32.4214 117.411843,32.2994 117.382,32.1484 C117.352157,31.9984 117.327288,31.7094 117.307393,31.2784 L117.217864,29.4414 C117.184042,28.7214 116.925403,28.2394 116.441948,27.9934 C116.166398,27.8584 115.73467,27.7914 115.144775,27.7914 L111.861058,27.7914 L111.861058,32.5164 L110.376869,32.5164 L110.376869,21.4984 Z" id="Fill-26" fill="#FCFCFC" mask="url(#mask-2)"></path>
                <path d="M128.037916,28.0014 L126.350796,23.1334 L124.597026,28.0014 L128.037916,28.0014 Z M125.575874,21.4984 L127.252052,21.4984 L131.230115,32.5164 L129.603675,32.5164 L128.459696,29.2164 L124.15933,29.2164 L122.970586,32.5164 L121.448597,32.5164 L125.575874,21.4984 Z" id="Fill-27" fill="#FCFCFC" mask="url(#mask-2)"></path>
                <polygon id="Fill-28" fill="#FCFCFC" mask="url(#mask-2)" points="133.715037 21.4989 135.20022 21.4989 135.20022 31.2039 140.698283 31.2039 140.698283 32.5169 133.715037 32.5169"></polygon>
                <path d="M144.328675,28.9614 C144.362497,29.5864 144.503754,30.0944 144.752445,30.4844 C145.226948,31.2144 146.06255,31.5794 147.260246,31.5794 C147.797419,31.5794 148.285848,31.4994 148.726529,31.3394 C149.580037,31.0294 150.005796,30.4744 150.005796,29.6744 C150.005796,29.0744 149.825743,28.6464 149.463649,28.3914 C149.097576,28.1414 148.524592,27.9244 147.743702,27.7394 L146.305272,27.4014 C145.366215,27.1814 144.700717,26.9394 144.31077,26.6744 C143.636319,26.2144 143.299094,25.5264 143.299094,24.6114 C143.299094,23.6214 143.630351,22.8094 144.293859,22.1744 C144.957366,21.5394 145.895429,21.2214 147.111031,21.2214 C148.229147,21.2214 149.178152,21.5004 149.960037,22.0574 C150.741921,22.6154 151.132864,23.5064 151.132864,24.7314 L149.737209,24.7314 C149.665586,24.1414 149.513387,23.6894 149.279618,23.3744 C148.845901,22.7994 148.10878,22.5114 147.069251,22.5114 C146.230665,22.5114 145.626843,22.6964 145.259775,23.0664 C144.892707,23.4364 144.708675,23.8664 144.708675,24.3564 C144.708675,24.8964 144.925534,25.2914 145.359251,25.5414 C145.643754,25.7014 146.287366,25.9014 147.290089,26.1414 L148.779251,26.4944 C149.496476,26.6644 150.051555,26.8964 150.441503,27.1914 C151.115953,27.7064 151.453178,28.4544 151.453178,29.4344 C151.453178,30.6544 151.02344,31.5264 150.161974,32.0514 C149.301503,32.5764 148.30077,32.8394 147.16077,32.8394 C145.831764,32.8394 144.791241,32.4894 144.039199,31.7894 C143.287157,31.0944 142.918099,30.1514 142.933021,28.9614 L144.328675,28.9614 Z" id="Fill-29" fill="#FCFCFC" mask="url(#mask-2)"></path>
                <path d="M40.4871099,31.5173 C39.8216126,32.3753 39.486377,33.4613 38.6497801,34.2013 C38.0151204,34.1563 37.7922932,33.7023 37.8211414,33.1813 C38.0429738,29.1943 37.9514555,25.2113 37.7196754,21.2293 C37.7206702,20.9923 37.7564817,20.7603 37.8290995,20.5353 C38.3225026,19.6953 38.7015079,18.7733 39.4774241,18.1243 C39.7529738,17.9423 40.0424503,17.8403 40.372712,17.9633 C40.6422932,18.1243 40.8104084,18.3483 40.8133927,18.6773 C40.8571623,22.9613 40.921822,27.2453 40.4871099,31.5173" id="Fill-30" fill="#A4CFD4" mask="url(#mask-2)"></path>
                <path d="M37.1912565,36.3325 C36.6351832,37.4265 36.0442932,38.4965 35.1102094,39.3245 C34.3462304,38.9365 34.5730366,38.2295 34.5919372,37.6145 C34.6924084,34.3385 34.6227749,31.0625 34.6297382,27.7875 C34.630733,27.1955 34.6187958,26.5945 34.3800524,26.0315 C34.3959686,24.7475 34.9560209,23.8705 36.2323037,23.5275 C37.0052356,23.6915 37.2579058,24.2895 37.256911,24.9575 C37.2479581,28.7495 37.5036126,32.5425 37.1912565,36.3325" id="Fill-31" fill="#9CC8D0" mask="url(#mask-2)"></path>
                <path d="M40.4871099,31.5173 C40.0663246,30.6553 40.0036545,29.7133 40.1588377,28.8153 C40.6870576,25.7493 40.372712,22.6703 40.3309319,19.6003 C40.3239686,19.1403 41.1317173,18.3053 40.0086283,18.0203 C39.9469529,16.8213 40.5219267,16.0593 41.6161675,15.6523 C42.1762199,15.9913 42.370199,16.5643 42.5592042,17.1403 C42.3592565,17.9663 42.3920838,18.7903 42.4597277,19.6373 C42.6755916,22.3513 42.7312984,25.0703 42.3274241,27.7763 C42.2677382,28.1753 42.3015602,28.5653 42.3642304,28.9583 C42.3791518,29.5453 42.2090471,30.0303 41.6300942,30.2863 C41.2490995,30.6963 40.8681047,31.1073 40.4871099,31.5173" id="Fill-32" fill="#A8D3D6" mask="url(#mask-2)"></path>
                <path d="M34.5192199,25.8289 C35.185712,26.1769 35.0892199,26.8079 35.0733037,27.3929 C34.9728325,31.0919 35.3001099,34.7979 34.8882775,38.4929 C34.8584346,38.7579 35.0305288,39.0459 35.1091152,39.3239 C34.696288,39.8939 34.5739319,40.6539 33.9661309,41.0979 C33.4707382,41.2039 33.4080681,40.8049 33.2976492,40.4949 C32.9455026,39.5039 32.867911,38.4759 32.8450314,37.4279 C32.7813665,34.5619 33.0519424,31.6889 32.6808953,28.8309 C32.5147696,27.3499 33.3991152,26.5169 34.5192199,25.8289" id="Fill-33" fill="#98C5CE" mask="url(#mask-2)"></path>
                <path d="M20.481801,35.4147 C19.9187644,34.9597 19.460178,34.4307 19.2791309,33.7047 C18.8434241,32.6187 18.8852042,31.4767 18.8931623,30.3397 C18.9130576,27.7177 18.8285026,25.0947 18.9438953,22.4737 C18.9777173,21.7017 18.9299686,20.8317 19.9346806,20.5367 C20.6837382,20.5017 21.0398639,20.9807 21.2994974,21.5877 C21.3800733,21.8437 21.3949948,22.1067 21.3890262,22.3717 C21.7003874,26.1177 21.5054136,29.8697 21.5392356,33.6187 C21.5452042,34.2577 21.5342618,34.9167 20.9821675,35.3907 C20.8200209,35.4977 20.6529005,35.5057 20.481801,35.4147" id="Fill-34" fill="#1F94A4" mask="url(#mask-2)"></path>
                <path d="M30.9009634,44.5826 C30.2772461,45.0716 29.5560419,44.9926 28.8388168,44.9446 C28.542377,43.9656 29.0586597,43.0526 29.0686073,42.0796 C29.0984503,39.3796 28.753267,36.6996 28.7612251,34.0036 C28.7582408,33.7586 28.787089,33.5176 28.8457801,33.2796 C29.2615916,32.3686 29.7012775,31.4796 30.8402827,31.3046 C31.5515393,31.4796 31.4958325,32.0726 31.5276649,32.6056 C31.7236335,35.8556 31.6520105,39.1086 31.5903351,42.3616 C31.5754136,43.1766 31.3406492,43.9086 30.9009634,44.5826" id="Fill-35" fill="#91BCC8" mask="url(#mask-2)"></path>
                <path d="M21.0361832,21.6761 C20.7536702,21.3701 20.4711571,21.0651 20.188644,20.7591 C19.5480157,20.2941 18.8268115,19.8911 18.8138796,18.9451 C19.1322042,18.2251 19.2923613,17.5411 19.0844555,16.6981 C18.8855026,15.8951 18.6825707,14.9481 19.4047696,14.2051 C19.4704241,14.1381 19.6604241,14.1991 19.4654503,14.0161 C18.533356,13.1351 19.3719424,12.3101 19.567911,11.4651 C19.6892723,10.9431 19.9886963,10.5571 20.4542461,10.2991 C20.7178586,10.0321 20.9745079,9.7511 21.4092199,9.8621 C22.1294293,10.0731 22.1970733,10.6491 22.1881204,11.2701 C22.1443508,14.2231 22.2249267,17.1781 22.1344031,20.1301 C22.1145079,20.7891 22.4069686,21.8931 21.0361832,21.6761" id="Fill-36" fill="#F7CB9E" mask="url(#mask-2)"></path>
                <path d="M54.0841466,44.9586 C53.4415288,45.0626 52.8387016,44.9786 52.3055079,44.5736 C51.4639372,43.5526 51.7245654,42.2886 51.6638848,41.1416 C51.5276021,38.5706 51.5136754,35.9896 51.7544084,33.4186 C51.8210576,32.7056 51.7544084,31.8486 52.8426806,31.8096 C53.4813194,32.5226 54.0513194,33.2826 54.4253508,34.1756 C54.0284398,35.1336 54.2423141,36.1356 54.2084921,37.1216 C54.1199581,39.7336 54.4094346,42.3506 54.0841466,44.9586" id="Fill-37" fill="#1D8C9E" mask="url(#mask-2)"></path>
                <path d="M37.1912565,36.3325 C36.5884293,35.1745 36.9365969,33.9195 36.8888482,32.7195 C36.7893717,30.2035 36.8570157,27.6805 36.86,25.1615 C36.86,24.5015 36.8987958,23.8245 35.9826178,23.7395 C35.7796859,23.2845 36.1775916,22.9325 36.1905236,22.5135 C36.2601571,22.4075 36.3427225,22.3125 36.4352356,22.2265 C36.9893194,21.8405 37.1564398,20.9775 37.9960209,20.9425 C38.4864398,24.8755 38.4924084,28.8165 38.1601571,32.7605 C38.1124084,33.3285 38.2059162,33.8175 38.6505759,34.2015 C38.4207853,35.0895 37.7443455,35.6685 37.1912565,36.3325" id="Fill-38" fill="#A0CBD2" mask="url(#mask-2)"></path>
                <path d="M9.18853927,41.0326 C8.80356545,41.5356 8.41859162,42.0376 8.0336178,42.5406 C6.96026702,42.9266 6.87770157,42.1636 6.81204712,41.4436 C6.66382723,39.8086 6.75435079,38.1676 6.73843455,36.5296 C6.72351309,35.0396 6.77325131,33.5486 6.70759686,32.0606 C6.65984817,30.9846 6.86775393,29.9896 7.43775393,29.0756 C7.46859162,28.6946 7.66456021,28.4066 7.94508377,28.1666 C8.82644503,28.0576 8.85131414,28.7316 8.9418377,29.3046 C9.09901047,30.2886 9.08309424,31.2866 9.05424607,32.2786 C8.96770157,35.1986 9.23429843,38.1136 9.18853927,41.0326" id="Fill-39" fill="#9AC6CF" mask="url(#mask-2)"></path>
                <path d="M49.9303089,41.9381 C49.283712,41.3541 48.7455445,40.6921 48.4401518,39.8601 C48.1178482,38.9701 47.9994712,38.0541 48.0034503,37.1041 C48.0163822,34.0461 47.9716178,30.9871 48.034288,27.9291 C48.0482147,27.2101 47.7965393,26.3271 48.6779005,25.8451 C49.1215654,26.4141 49.6676911,26.9111 49.8984764,27.6261 C50.7838168,31.9691 50.1471675,36.3651 50.3491047,40.7321 C50.3709895,41.1941 50.3172723,41.6231 49.9303089,41.9381" id="Fill-40" fill="#239EAB" mask="url(#mask-2)"></path>
                <path d="M32.0905026,2.0219 C32.6764188,2.2479 32.8902932,2.7509 33.0385131,3.3049 C33.6880942,4.3619 33.6880942,5.5619 33.7099791,6.7319 C33.7627016,9.5489 33.7517592,12.3669 33.7109738,15.1849 C33.7000314,15.9379 33.8392984,16.7959 33.017623,17.3049 C31.9860524,17.0959 31.3772565,16.5159 31.3762618,15.4039 C31.670712,14.6259 31.4608168,13.8359 31.4379372,13.0489 C31.3444293,9.8739 31.3931728,6.6989 31.4130681,3.5239 C31.4170471,2.9509 31.3663141,2.2939 32.0905026,2.0219" id="Fill-41" fill="#E3722E" mask="url(#mask-2)"></path>
                <path d="M6.27427749,44.3695 C5.94799476,44.7185 5.54710471,44.9015 5.07061257,44.9165 C4.2678377,44.4725 4.35637173,43.6875 4.34343979,42.9545 C4.29370157,39.9875 4.41506283,37.0185 4.28474869,34.0525 C4.25192147,33.7655 4.32851832,33.5025 4.46380628,33.2535 C4.86469634,32.6665 5.26459162,32.0785 5.66548168,31.4915 C6.35584817,31.5315 6.61050785,32.0205 6.62443455,32.5925 C6.71396335,36.4355 6.83333508,40.2805 6.41851832,44.1145 C6.40857068,44.2055 6.32898953,44.2865 6.27427749,44.3695" id="Fill-42" fill="#A4CED4" mask="url(#mask-2)"></path>
                <path d="M29.0967592,33.8117 C29.3991675,36.9827 29.4508953,40.1617 29.4608429,43.3457 C29.4618377,44.0267 28.898801,44.3597 28.8391152,44.9447 C27.9945602,44.9787 27.235555,44.8037 26.7123089,44.0577 C27.6255026,42.1837 27.0853455,40.1797 27.2176492,38.2357 C27.2683822,37.4997 27.2037225,36.7597 27.1112094,36.0257 C27.0972827,35.8677 27.1102147,35.7097 27.1440366,35.5537 C27.6593246,34.8217 28.1656597,34.0767 29.0967592,33.8117" id="Fill-43" fill="#8DBAC6" mask="url(#mask-2)"></path>
                <path d="M49.9303089,41.9381 C49.7054921,37.5341 50.2406754,33.1191 49.7194188,28.7211 C49.6726649,28.3241 49.5274293,27.9411 49.8984764,27.6261 C49.9979529,28.5991 51.2523508,28.7551 51.3617749,29.7211 C51.7228743,30.6761 51.5567487,31.6571 51.5617225,32.6421 C51.5776387,36.0661 51.3219843,39.4921 51.6154398,42.9141 C51.6452827,43.2611 51.6880576,43.6151 51.3677435,43.8721 C50.5679529,43.4681 50.1909372,42.7461 49.9303089,41.9381" id="Fill-44" fill="#1F98A7" mask="url(#mask-2)"></path>
                <path d="M32.7246649,28.5153 C33.543356,28.6833 33.2807382,29.3473 33.2847173,29.8393 C33.3056073,32.5713 33.3095864,35.3053 33.2877016,38.0383 C33.2787487,39.1193 33.5592723,40.1183 33.9661309,41.0973 C33.4389058,41.8583 32.9116806,42.6183 32.3844555,43.3783 C31.765712,43.1563 31.5966021,42.6663 31.6473351,42.0743 C31.9358168,38.7073 31.4453979,35.3263 31.8343508,31.9623 C31.8930419,31.4543 31.6513141,31.1113 31.2922042,30.8123 C30.917178,29.5113 31.765712,28.9783 32.7246649,28.5153" id="Fill-45" fill="#96C1CB" mask="url(#mask-2)"></path>
                <path d="M19.0328272,18.9646 C19.417801,19.5626 19.8037696,20.1616 20.1887435,20.7596 C19.5660209,20.8096 19.4735079,21.1356 19.4376963,21.7506 C19.2268063,25.4046 19.3392147,29.0566 19.4018848,32.7086 C19.4078534,33.0626 19.4257592,33.3846 19.2795288,33.7046 C18.7194764,33.0516 18.1325654,32.4186 17.7983246,31.6056 C17.4998953,30.6316 17.7684817,29.6466 17.7595288,28.6676 C17.7286911,25.5766 17.5953927,22.4846 17.8122513,19.3936 C17.8500524,18.8436 17.8152356,18.3826 18.5563351,18.4716 C18.8090052,18.5446 18.9393194,18.7366 19.0328272,18.9646" id="Fill-46" fill="#1F99A8" mask="url(#mask-2)"></path>
                <path d="M15.778356,16.8874 L16.6666806,15.6454 C17.5032775,15.7464 17.6425445,16.3614 17.6922827,17.0454 C17.5251623,20.7024 17.7489843,24.3624 17.6007644,28.0194 C17.572911,28.7044 17.6733822,29.4254 17.1202932,29.9824 C15.9405026,30.1534 15.5525445,29.3504 15.2461571,28.4454 C16.0290366,25.6384 15.5963141,22.7694 15.6082513,19.9274 C15.6132251,18.9044 15.5256859,17.8914 15.778356,16.8874" id="Fill-47" fill="#26A1AD" mask="url(#mask-2)"></path>
                <path d="M36.5589843,22.5404 C36.4983037,22.5854 36.4306597,22.6154 36.3560524,22.6304 C35.5463141,22.4134 35.3045864,21.7724 35.1822304,21.0414 C35.259822,17.6704 35.2508691,14.2994 35.276733,10.9284 C35.2866806,9.6354 35.1553717,8.2724 35.6726492,7.0074 C36.2088272,7.5114 36.5749005,8.1304 36.8613927,8.8024 C37.261288,9.6724 37.3269424,10.5824 37.3070471,11.5364 C37.2543246,14.0594 37.3080419,16.5834 37.2801885,19.1064 C37.2672565,20.2924 37.2095602,21.4824 36.5589843,22.5404" id="Fill-48" fill="#E88729" mask="url(#mask-2)"></path>
                <path d="M54.0841466,44.9586 C53.4823141,42.5066 53.9100628,40.0136 53.7966597,37.5416 C53.7518953,36.5586 53.7936754,35.5726 53.7737801,34.5876 C53.7638325,34.0526 54.0284398,34.0246 54.4253508,34.1756 C55.0321571,34.9476 55.8289634,35.5846 56.1084921,36.5876 C55.4837801,38.1026 55.7215288,39.6976 55.6956649,41.2646 C55.6767644,42.3966 55.6548796,43.5296 55.6359791,44.6616 C55.1704293,45.0326 54.6352461,45.0386 54.0841466,44.9586" id="Fill-49" fill="#148398" mask="url(#mask-2)"></path>
                <path d="M9.18853927,41.0326 C8.54890576,39.5056 8.73691623,37.8786 8.65435079,36.2916 C8.531,33.9296 8.75084293,31.5606 8.54194241,29.1936 C8.49618325,28.6706 8.40963874,28.3576 7.94607853,28.1666 C8.07042408,27.9786 8.1957644,27.7916 8.32209948,27.6036 C8.95675916,27.5566 9.47702094,26.6786 10.2111571,27.3446 C10.2648743,27.4926 10.2877539,27.6426 10.2837749,27.7986 C10.1544555,30.8106 10.2867592,33.8216 10.2618901,36.8316 C10.2559215,37.4986 10.6677539,38.0446 10.7513141,38.6816 C10.4538796,39.6146 9.34073822,40.0016 9.18853927,41.0326" id="Fill-50" fill="#95C1CB" mask="url(#mask-2)"></path>
                <path d="M36.5589843,22.5404 C37.1051099,17.9704 36.7718639,13.3814 36.8613927,8.8024 C37.387623,9.2904 37.784534,9.8704 38.0740105,10.5264 C38.6509738,11.7284 38.5853194,13.0074 38.5097173,14.2844 C38.3863665,16.3774 38.8379895,18.5114 38.0859476,20.5624 C38.0561047,20.6894 38.0262618,20.8164 37.9964188,20.9434 C37.5169424,21.4754 37.0384607,22.0074 36.5589843,22.5404" id="Fill-51" fill="#E98F28" mask="url(#mask-2)"></path>
                <path d="M26.0759581,43.4944 C24.7976859,42.1394 23.8397277,40.5574 22.8937068,38.9664 C22.9046492,38.7684 22.8857487,39.0184 22.8976859,38.8194 C23.0309843,36.6354 23.0309843,36.6354 25.2144921,36.3994 C25.3637068,36.3944 25.5089424,36.4204 25.650199,36.4694 C26.3067435,36.8464 26.6728168,37.4904 26.6559058,38.1764 C26.6141257,39.8424 26.6340209,41.5094 26.5594136,43.1744 C26.5484712,43.4164 26.4111937,43.6544 26.0759581,43.4944" id="Fill-52" fill="#87B4C3" mask="url(#mask-2)"></path>
                <path d="M6.27427749,44.3695 C6.00469634,41.4355 6.40459162,38.5015 6.27029843,35.5665 C6.22951309,34.6805 6.22254974,33.7885 6.27825654,32.9035 C6.31705236,32.2945 6.08427749,31.8685 5.66548168,31.4915 C6.24642408,30.6785 6.66323037,29.7445 7.43815183,29.0755 C6.89998429,31.3355 7.18846597,33.6325 7.17254974,35.9125 C7.16061257,37.8335 7.11286387,39.7555 7.2322356,41.6825 C7.27799476,42.4255 7.65799476,42.3645 8.03401571,42.5405 C7.67689529,43.3725 7.21532461,44.1045 6.27427749,44.3695" id="Fill-53" fill="#9EC9D1" mask="url(#mask-2)"></path>
                <path d="M13.0464346,35.3654 C12.6733979,36.0444 12.3033455,36.7254 11.6746545,37.2134 C11.0598901,37.2994 10.8808325,36.8254 10.8340785,36.4064 C10.5167487,33.5084 10.4510942,30.6014 10.7246545,27.6944 C10.743555,27.4984 10.8808325,27.3364 11.022089,27.1934 C12.4963298,26.8954 12.8813037,27.1664 12.9260681,28.6904 C12.9907277,30.9144 12.8852827,33.1424 13.0464346,35.3654" id="Fill-54" fill="#8DBAC6" mask="url(#mask-2)"></path>
                <path d="M11.0165183,27.3196 C11.0523298,30.1506 10.9508639,32.9816 11.1329058,35.8126 C11.1707068,36.3906 11.1856283,36.8636 11.6750524,37.2136 C11.4711257,37.7686 11.2662042,38.3236 10.751911,38.6816 C10.2525393,38.4156 9.84170157,38.0676 9.83772251,37.4476 C9.81882199,34.4486 9.80091623,31.4496 9.8158377,28.4506 C9.81782723,28.0756 10.0177749,27.7016 10.1262042,27.3276 C10.4206545,27.0636 10.7170942,27.0646 11.0165183,27.3196" id="Fill-55" fill="#92BDC8" mask="url(#mask-2)"></path>
                <path d="M51.367445,43.8717 C50.814356,39.7157 51.1068168,35.5487 51.2968168,31.3897 C51.3216859,30.8407 50.7884921,30.2407 51.3614764,29.7207 C51.9643037,30.3387 52.4338325,31.0527 52.8426806,31.8097 C52.4974974,32.0697 52.2259267,32.2767 52.1821571,32.8387 C51.8797487,36.7567 51.9304817,40.6657 52.3055079,44.5727 C51.9066073,44.4557 51.6151414,44.1937 51.367445,43.8717" id="Fill-56" fill="#1F93A3" mask="url(#mask-2)"></path>
                <path d="M31.2013822,30.6 C32.0379791,30.524 32.5572461,30.745 32.3652565,31.75 C31.8300733,34.552 32.0698115,37.385 32.2170366,40.193 C32.2727435,41.249 31.413267,42.382 32.3841571,43.378 C31.8469843,43.726 31.5714346,44.4 30.9009634,44.583 C31.5137382,40.413 31.100911,36.222 31.1735288,32.041 C31.1804921,31.651 30.9397592,31.539 30.6184503,31.499 C30.4950995,30.991 30.5707016,30.614 31.2013822,30.6" id="Fill-57" fill="#94BFCA" mask="url(#mask-2)"></path>
                <path d="M16.9313874,30.0556 C17.4327487,27.7736 17.2298168,25.4556 17.2397644,23.1526 C17.2467277,21.3756 17.3959424,19.5916 17.1333246,17.8176 C17.0796073,17.4486 17.228822,17.1426 17.4635864,16.8706 C18.3449476,17.1396 18.9079843,17.6306 18.7010733,18.6596 C18.4931675,18.7066 18.1081937,18.5536 18.1270942,18.8866 C18.2116492,20.4406 18.0504974,21.9846 18.0246335,23.5276 C17.9947906,25.3376 18.1469895,27.1636 18.1479843,28.9856 C18.1489791,29.8766 18.1181414,30.7596 17.7978272,31.6056 C17.3840052,31.2766 17.093534,30.8586 16.9065183,30.3656 C16.8388743,30.2906 16.8199738,30.2196 16.8498168,30.1526 C16.8786649,30.0876 16.9065183,30.0556 16.9313874,30.0556" id="Fill-58" fill="#239DAA" mask="url(#mask-2)"></path>
                <path d="M47.242555,23.7398 C47.5270576,23.9818 47.782712,24.2418 47.8026073,24.6488 C48.2044921,28.3078 47.9249634,31.9788 47.9707225,35.6448 C47.9846492,36.7588 48.3019791,37.9018 47.8354346,39.0018 C47.402712,38.4108 46.9699895,37.8188 46.5362723,37.2268 C46.0388901,36.1498 46.2030262,35.0298 46.2298848,33.8928 C46.2955393,31.1098 46.2647016,28.3248 46.2467958,25.5408 C46.2428168,24.8248 45.9622932,23.8028 47.242555,23.7398" id="Fill-59" fill="#34AAB3" mask="url(#mask-2)"></path>
                <path d="M35.6729476,7.0073 C35.6590209,10.8823 35.6759319,14.7583 35.6072932,18.6323 C35.5923717,19.4303 35.8679215,20.2893 35.3685497,21.0503 C34.2832618,20.9623 34.261377,20.1683 34.2534188,19.3613 C34.4871885,15.4433 34.3190733,11.5213 34.3847277,7.6023 C34.3956702,7.0053 34.0286021,6.2903 34.7706963,5.8433 C35.0711152,6.2313 35.3725288,6.6193 35.6729476,7.0073" id="Fill-60" fill="#E7822C" mask="url(#mask-2)"></path>
                <path d="M32.7450576,17.1654 C33.4125445,17.0674 33.2503979,16.4324 33.2503979,16.1134 C33.2533822,11.8434 33.482178,7.5674 33.0385131,3.3044 C33.4423874,3.8344 33.8462618,4.3654 34.2501361,4.8954 C34.6928063,8.6924 34.4948482,12.5004 34.3804503,16.3024 C34.3565759,17.1084 34.8867853,18.1274 33.8363141,18.7314 C32.9300838,18.5914 32.549089,18.0824 32.7450576,17.1654" id="Fill-61" fill="#E6792C" mask="url(#mask-2)"></path>
                <path d="M47.8356335,39.0021 C47.2745864,35.1511 47.6446387,31.2761 47.5730157,27.4131 C47.5551099,26.4971 47.2855288,25.5301 47.8028063,24.6481 C48.1101885,25.0361 48.5518639,25.3241 48.678199,25.8451 C48.2255812,30.3781 48.4444293,34.9181 48.542911,39.4561 C48.5458953,39.5901 48.4762618,39.7261 48.4404503,39.8601 C48.2385131,39.5741 48.0375707,39.2881 47.8356335,39.0021" id="Fill-62" fill="#29A4B0" mask="url(#mask-2)"></path>
                <path d="M32.0905026,2.0219 C31.7492984,2.5029 31.8040105,3.0569 31.8099791,3.5989 C31.8517592,7.3519 31.6866283,11.1089 31.958199,14.8569 C31.9920209,15.3239 32.0855288,15.6639 31.4439058,15.3979 C30.581445,15.2909 30.4740105,14.6739 30.4899267,13.9729 C30.4551099,9.7679 30.5894031,5.5629 30.5018639,1.3569 C30.4978848,1.2009 30.564534,1.0719 30.6441152,0.9469 C31.3056335,1.0609 31.6637487,1.5879 32.0905026,2.0219" id="Fill-63" fill="#E26B2F" mask="url(#mask-2)"></path>
                <path d="M30.6436178,0.9465 C31.1519424,1.9005 30.9897958,2.8915 30.9579634,3.9265 C30.862466,7.0295 30.9221518,10.1385 30.9768639,13.2445 C30.9838272,13.6785 31.0604241,14.0145 30.5859215,14.1925 C29.7214712,13.9535 29.3325183,13.3755 29.3742984,12.4845 C29.739377,10.5885 29.6001099,8.6685 29.6140366,6.7585 C29.6239843,5.2845 29.6508429,3.8105 29.6966021,2.3375 C29.7145079,1.7645 29.6458691,1.1245 30.3143508,0.8025 C30.4237749,0.8505 30.5341937,0.8985 30.6436178,0.9465" id="Fill-64" fill="#E16530" mask="url(#mask-2)"></path>
                <path d="M26.9966126,1.3199 C27.4054607,0.8409 27.9436283,0.7009 28.544466,0.7269 C28.860801,1.2309 29.0935759,1.7319 29.0448325,2.3779 C28.8558272,4.8849 28.9373979,7.3969 28.9970838,9.9069 C29.0060366,10.2999 29.118445,10.6959 28.751377,10.9949 C27.9048325,11.2949 27.4790733,10.8299 27.1826335,10.1259 C26.7638377,7.1999 26.9995969,4.2569 26.9966126,1.3199" id="Fill-65" fill="#E05531" mask="url(#mask-2)"></path>
                <path d="M18.7011728,18.6599 C18.5211204,17.9009 17.9322199,17.4279 17.4636859,16.8709 C17.1980838,16.4629 16.9324817,16.0539 16.6668796,15.6459 C17.4776126,14.1419 18.5459895,12.8199 19.5676126,11.4659 C19.5705969,12.4969 19.1179791,13.5799 19.9108063,14.5209 C18.7320105,15.0599 19.1886073,16.2809 19.460178,16.7939 C19.9953613,17.8049 19.5507016,18.3219 19.0324293,18.9649 C18.9220105,18.8629 18.8115916,18.7619 18.7011728,18.6599" id="Fill-66" fill="#F8D3A2" mask="url(#mask-2)"></path>
                <path d="M26.0759581,43.4944 C26.8568482,42.9634 26.1714555,42.2244 26.1465864,41.7024 C26.0670052,40.0004 26.9722408,38.1334 25.5726073,36.5844 C25.5984712,36.3714 25.7138639,36.2154 25.878,36.0884 C26.3385759,35.8564 26.7523979,35.4654 27.3373194,35.6404 C28.0127644,38.1624 27.5183665,40.7294 27.6148586,43.2734 C27.6357487,43.8014 27.2000419,44.0104 26.7126073,44.0574 C26.5007225,43.8694 26.2878429,43.6824 26.0759581,43.4944" id="Fill-67" fill="#8AB7C4" mask="url(#mask-2)"></path>
                <path d="M42.2055654,29.1108 C41.1928953,27.9628 42.2990733,26.7928 42.2105393,25.6048 C42.0434188,23.3488 42.3438377,21.0618 41.9409581,18.7978 C41.8295445,18.1708 41.7738377,17.4728 42.5587068,17.1398 C42.7367696,17.3508 42.9138377,17.5628 43.0909058,17.7738 C43.7643613,19.9018 43.4748848,22.0878 43.4589686,24.2548 C43.453,25.1048 43.4500157,25.9368 43.7723194,26.7368 C43.8280262,26.8838 43.8509058,27.0358 43.8459319,27.1928 C43.4609581,27.9708 43.2431047,28.8948 42.2055654,29.1108" id="Fill-68" fill="#ABD9DA" mask="url(#mask-2)"></path>
                <path d="M30.3144503,0.8022 C29.8498953,3.2362 30.0886387,5.6972 30.0309424,8.1472 C30.0050785,9.2762 30.0130366,10.4062 30.0269634,11.5362 C30.0329319,12.0122 29.9603141,12.4242 29.4957592,12.6642 C29.416178,12.6532 29.3375916,12.6422 29.2580105,12.6322 C28.6890052,12.2942 28.4930366,11.8252 28.7596335,11.1932 C29.2301571,10.4912 28.7755497,9.7562 28.825288,9.0352 C28.9824607,6.7342 28.5984817,4.4142 29.0759686,2.1172 C29.1744503,1.6392 28.8232984,1.1772 28.7417277,0.6932 C29.2898429,0.3862 29.7981675,0.6432 30.3144503,0.8022" id="Fill-69" fill="#E06030" mask="url(#mask-2)"></path>
                <path d="M38.0863455,20.5622 C38.0823665,17.2172 38.0783874,13.8722 38.0744084,10.5272 C38.6265026,11.0172 38.9448272,11.6652 39.2651414,12.3122 C40.0510052,14.2982 39.5257696,16.3512 39.5675497,18.3752 C39.0741466,19.1042 38.5797487,19.8332 38.0863455,20.5622" id="Fill-70" fill="#EC9728" mask="url(#mask-2)"></path>
                <path d="M43.6537435,27.0176 C43.3871466,26.8686 43.1324869,26.6636 43.1295026,26.3536 C43.1046335,23.4936 43.1006545,20.6336 43.0907068,17.7736 C43.7840576,18.4396 44.2824346,19.2326 44.6176702,20.1336 C44.4475654,21.8866 44.7062042,23.6246 44.7967277,25.3696 C44.8375131,25.5996 44.8355236,25.8296 44.7847906,26.0586 C44.5908115,26.5946 44.310288,27.0306 43.6537435,27.0176" id="Fill-71" fill="#B0DADB" mask="url(#mask-2)"></path>
                <path d="M46.0395864,36.3409 L45.1472827,35.1499 C45.027911,34.8279 44.7792199,34.5399 44.7881728,34.1859 C44.871733,30.9859 44.4459738,27.7639 45.1860785,24.5889 C45.4506859,24.2569 45.6207906,23.6829 46.2126754,24.1779 C46.3688534,28.2359 46.636445,32.2949 46.0395864,36.3409" id="Fill-72" fill="#45B1B8" mask="url(#mask-2)"></path>
                <path d="M4.46380628,33.2535 C4.46977487,33.4655 4.47574346,33.6765 4.48270681,33.8885 C4.22605759,37.3405 4.31757592,40.7965 4.37527225,44.2525 C4.37925131,44.5115 4.33647644,44.7385 4.18427749,44.9445 C3.8878377,44.9315 3.59139791,44.9195 3.29495812,44.9065 C3.03234031,44.6315 2.59464398,44.4705 2.6135445,44.0045 C2.72993194,41.1265 2.14302094,38.2175 2.99254974,35.3725 C3.59040314,34.7415 3.71773298,33.7805 4.46380628,33.2535" id="Fill-73" fill="#AAD5D8" mask="url(#mask-2)"></path>
                <path d="M55.636377,44.6621 C55.4045969,44.6031 55.175801,44.5871 55.1827644,44.2261 C55.226534,42.2101 55.2703037,40.1931 55.2623455,38.1771 C55.260356,37.4571 55.4990995,36.9421 56.1088901,36.5871 L56.7544921,37.4731 C56.6739162,39.6091 57.0937068,41.7421 56.8032356,43.8811 C56.552555,44.3511 55.9716126,44.3211 55.636377,44.6621" id="Fill-74" fill="#107E92" mask="url(#mask-2)"></path>
                <path d="M15.778356,16.8874 C16.2230157,17.8314 15.9315497,18.8534 16.0101361,19.8284 C16.1872042,22.0254 16.0558953,24.2484 16.0718115,26.4604 C16.0767853,27.2144 15.7624398,27.8564 15.4719686,28.5144 C15.0621257,28.6264 14.8422827,28.4074 14.6920733,28.0634 C14.6473089,27.8944 14.6363665,27.7234 14.655267,27.5494 C14.8950052,25.2354 14.7358429,22.9154 14.7487749,20.5984 C14.7537487,19.6994 14.8203979,18.8304 15.136733,17.9874 C15.2720209,17.5744 15.3685131,17.1384 15.778356,16.8874" id="Fill-75" fill="#2BA5B0" mask="url(#mask-2)"></path>
                <path d="M4.18477487,44.9449 C3.83959162,41.2469 3.38896335,37.5469 4.48220942,33.8889 C4.96765445,34.3289 4.76571728,34.9119 4.76969634,35.4339 C4.78959162,38.0169 4.78063874,40.5999 4.77765445,43.1829 C4.77765445,43.7789 4.72990576,44.3799 5.07110995,44.9159 C4.77566492,44.9259 4.4802199,44.9349 4.18477487,44.9449" id="Fill-76" fill="#A6D1D5" mask="url(#mask-2)"></path>
                <path d="M33.676555,18.6561 C34.436555,17.3781 34.0674974,15.9391 34.1381257,14.5951 C34.3062408,11.3691 34.2286492,8.1291 34.250534,4.8951 C34.5618953,5.1351 34.694199,5.4731 34.7707958,5.8431 C34.7737801,9.8751 34.7857173,13.9071 34.7688063,17.9381 C34.7668168,18.4971 35.0075497,19.1451 34.4047225,19.5831 C33.8615812,19.5121 33.4427853,19.3431 33.676555,18.6561" id="Fill-77" fill="#E67D2C" mask="url(#mask-2)"></path>
                <path d="M11.3606073,27.3196 C11.0641675,27.3226 10.8144817,27.3246 10.8144817,27.3246 L10.8144817,27.3106 C10.8144817,26.7166 10.9368377,26.7636 11.3019162,26.6566 C11.6948482,26.6256 11.9156859,26.6266 12.3106073,26.6406 C12.7851099,26.6596 13.1571518,26.7666 13.6018115,26.9326 C13.8316021,27.0136 13.9917592,27.1336 14.1459476,27.3266 C14.220555,27.4686 14.237466,27.6216 14.2434346,27.7816 C13.7112356,29.7176 13.4834346,31.6536 14.2533822,33.5856 C13.8554764,34.1786 13.4506073,34.7726 13.0517068,35.3656 C12.4518639,35.0556 12.5025969,34.4946 12.5035916,33.9486 C12.5065759,32.2216 12.599089,30.4906 12.7015497,28.7706 C12.7731728,27.5536 12.4817068,27.1546 11.3606073,27.3196" id="Fill-78" fill="#89B6C4" mask="url(#mask-2)"></path>
                <path d="M46.0395864,36.3409 C46.0375969,32.2169 46.0346126,28.0929 46.032623,23.9689 C45.7670209,23.4889 45.9848743,23.1599 46.3678586,22.8819 C46.8383822,22.9829 47.101,23.2999 47.2422565,23.7399 C46.5160785,24.0389 46.5558691,24.7389 46.5707906,25.3009 C46.6603194,28.6869 46.8781728,32.0769 46.4215759,35.4469 C46.3350314,36.0859 47.1994817,36.6019 46.5369686,37.2269 C46.2405288,37.0059 46.0913141,36.7009 46.0395864,36.3409" id="Fill-79" fill="#3DADB5" mask="url(#mask-2)"></path>
                <path d="M56.8029372,43.8808 C56.4647173,41.7468 56.1394293,39.6138 56.7551885,37.4728 C58.758644,39.7768 58.7765497,42.1078 56.8029372,43.8808" id="Fill-80" fill="#117A90" mask="url(#mask-2)"></path>
                <path d="M14.2430366,33.5858 C13.8013613,33.5518 13.4163874,33.3198 13.435288,32.8878 C13.5138743,31.1208 12.9309424,29.2778 13.988377,27.6148 C14.076911,27.5178 14.1863351,27.4638 14.317644,27.4528 C14.613089,27.4778 14.7553403,27.6848 14.874712,27.9218 C14.8856545,28.0078 14.8926178,28.0948 14.8946073,28.1808 C15.4685864,29.3258 15.0587435,30.6218 15.4457068,31.7948 C15.2646597,32.5408 14.7195288,33.0398 14.2430366,33.5858" id="Fill-81" fill="#85B3C2" mask="url(#mask-2)"></path>
                <path d="M39.5680471,18.3756 C39.2885183,18.2466 39.0965288,18.0806 39.1094607,17.7186 C39.1721309,15.9166 39.2149058,14.1146 39.264644,12.3116 C40.3091466,13.2406 40.8841204,14.5026 41.616267,15.6526 C40.9497749,16.3526 40.4305079,17.1526 40.0087277,18.0206 C39.8615026,18.1386 39.7152723,18.2576 39.5680471,18.3756" id="Fill-82" fill="#EEA12A" mask="url(#mask-2)"></path>
                <path d="M2.99304712,35.3725 C2.97315183,38.2525 2.94231414,41.1315 2.94828272,44.0115 C2.94927749,44.3105 3.17409424,44.6085 3.2954555,44.9065 C2.81299476,44.9015 2.41707853,44.7105 2.09875393,44.3505 C1.33974869,41.9815 1.70482723,39.5655 1.80131937,37.1615 C1.9515288,36.3985 2.55833508,35.9435 2.99304712,35.3725" id="Fill-83" fill="#AEDADB" mask="url(#mask-2)"></path>
                <path d="M46.3678586,22.8816 C46.256445,23.2446 46.1450314,23.6076 46.032623,23.9696 C45.8495864,24.1986 45.6665497,24.4286 45.4835131,24.6576 C45.1741414,24.9346 45.340267,25.6976 44.5981728,25.5326 C44.3723613,23.7316 43.541733,21.9296 44.6180681,20.1336 C45.4546649,20.8866 46.1599529,21.7236 46.3678586,22.8816" id="Fill-84" fill="#B1DDDD" mask="url(#mask-2)"></path>
                <path d="M1.80112042,37.1613 C2.37509948,38.2903 2.0418534,39.5013 2.09358115,40.6743 C2.14729843,41.8973 2.10153927,43.1253 2.09855497,44.3503 C1.59321466,44.0683 1.20227225,43.6593 0.902848168,43.1653 C0.379602094,42.0143 0.402481675,40.7433 0.322900524,39.5433 L0.322900524,39.5433 C0.722795812,39.5433 0.88295288,38.8413 0.920753927,38.3623 C1.21420942,37.9593 1.50766492,37.5643 1.80112042,37.1613" id="Fill-85" fill="#B0DDDD" mask="url(#mask-2)"></path>
                <path d="M26.9966126,1.3199 C27.163733,1.4049 27.4840471,1.5099 27.476089,1.5709 C27.1000681,4.3819 27.5894921,7.2109 27.2970314,10.0209 C26.7190733,10.1209 26.3937853,9.8599 26.2793874,9.2999 C26.0197539,7.6479 25.9958796,5.9809 26.1112723,4.3199 C26.1570314,3.6499 26.0366649,3.0689 25.7621099,2.4889 C26.0873979,2.0069 26.4763508,1.5939 26.9966126,1.3199" id="Fill-86" fill="#DF4E30" mask="url(#mask-2)"></path>
                <path d="M43.6537435,27.0176 C43.9541623,26.7016 44.2545812,26.3856 44.555,26.0696 C45.0812304,26.6016 44.8564136,27.2766 44.8663613,27.8896 C44.8912304,29.4106 44.9359948,30.9356 44.8355236,32.4526 C44.8066754,32.8816 45.1070942,33.6426 44.1859424,33.6356 C43.9223298,33.3196 43.6587173,33.0036 43.3960995,32.6886 C42.7485079,30.8516 42.9404974,29.0606 43.6786126,27.2976 C43.6825916,27.2036 43.6736387,27.1096 43.6537435,27.0176" id="Fill-87" fill="#57B9BD" mask="url(#mask-2)"></path>
                <path d="M28.7416283,0.693 C29.7692199,0.837 29.4329895,1.811 29.3643508,2.2 C28.877911,4.944 29.2728325,7.696 29.1365497,10.437 C29.1176492,10.824 29.1942461,11.237 28.8023089,11.505 C28.392466,11.499 28.3576492,11.259 28.4521518,10.938 C29.0798482,10.324 28.4591152,9.658 28.5118377,9.01 C28.6988534,6.708 28.3128848,4.383 28.738644,2.084 C28.8261832,1.612 28.1248743,1.249 28.5446649,0.727 C28.599377,0.653 28.6650314,0.642 28.7416283,0.693" id="Fill-88" fill="#E15B30" mask="url(#mask-2)"></path>
                <path d="M14.8745131,27.9216 C14.6795393,27.8156 14.4845654,27.7096 14.2895916,27.6036 C14.055822,25.7836 14.2189634,23.9566 14.2030471,22.1336 C14.1990681,21.6436 14.3124712,21.1456 14.0737277,20.6776 C13.9354555,20.3036 13.8180733,19.9256 13.9702723,19.5246 C14.2219476,18.9076 14.6855079,18.4526 15.1371309,17.9876 C15.0844084,21.2996 15.4892775,24.6246 14.8745131,27.9216" id="Fill-89" fill="#32A9B2" mask="url(#mask-2)"></path>
                <path d="M13.3962932,27.2875 C13.000377,27.1965 12.6044607,27.1055 12.2085445,27.0145 C11.6186492,25.4045 11.535089,23.7915 12.1757173,22.1725 C12.3338848,21.6705 12.620377,21.2615 13.0590681,20.9655 C14.157288,23.0195 13.9235183,25.1455 13.3962932,27.2875" id="Fill-90" fill="#47B1B8" mask="url(#mask-2)"></path>
                <path d="M44.1855445,33.6357 C44.7644974,32.6057 44.5536073,31.4747 44.5735026,30.3807 C44.5993665,28.9447 44.563555,27.5077 44.5546021,26.0707 C44.5695236,25.8907 44.5834503,25.7117 44.5983717,25.5327 C44.8938168,25.2407 45.188267,24.9487 45.4827173,24.6577 C44.9316178,28.1407 45.2718272,31.6527 45.1474817,35.1507 C44.5953874,34.7937 44.4193141,34.1967 44.1855445,33.6357" id="Fill-91" fill="#51B5BB" mask="url(#mask-2)"></path>
                <path d="M11.0238796,27.008 C10.6995864,27.035 10.3454503,26.971 10.1256073,27.31 C9.45712565,26.99 9.03236126,28.185 8.32209948,27.604 C9.29199476,26.453 9.86895812,25.013 10.9741414,23.962 C11.9649267,24.933 11.9868115,26.288 11.0238796,27.008" id="Fill-92" fill="#57B9BD" mask="url(#mask-2)"></path>
                <path d="M13.3962932,27.2875 C13.0152984,26.5705 13.3236754,25.8415 13.4092251,25.1365 C13.5833089,23.7125 13.0869215,22.3615 13.0590681,20.9655 C13.2600105,20.4195 13.4778639,19.8845 13.9702723,19.5245 C14.0747225,19.8335 14.1791728,20.1425 14.283623,20.4515 C14.2617382,22.2365 14.3065026,24.0215 14.2756649,25.8065 C14.2677068,26.3345 14.4278639,26.9115 13.9692775,27.3545 C13.7782827,27.3325 13.587288,27.3095 13.3962932,27.2875" id="Fill-93" fill="#3EAEB6" mask="url(#mask-2)"></path>
                <path d="M43.6786126,27.2977 C43.5841099,29.0947 43.4896073,30.8917 43.3960995,32.6877 C42.807199,31.8877 42.2182984,31.0867 41.6303927,30.2867 C41.8213874,29.8947 42.013377,29.5027 42.2053665,29.1107 C42.6967801,28.5067 43.187199,27.9017 43.6786126,27.2977" id="Fill-94" fill="#61C1C3" mask="url(#mask-2)"></path>
                <path d="M25.2760681,36.5972 C23.5372199,36.4272 23.4616178,37.9472 22.8946021,38.9672 C22.0301518,37.8242 21.0383717,36.7692 20.4822984,35.4152 C20.5907277,35.4112 20.6991571,35.4072 20.8085812,35.4032 C21.6849686,35.5552 22.4161204,36.1852 23.3442356,36.1672 C23.4914607,36.1652 23.6366963,36.1722 23.7829267,36.1802 C24.3081623,36.2222 24.8721937,36.1242 25.2760681,36.5972" id="Fill-95" fill="#82B0C0" mask="url(#mask-2)"></path>
                <path d="M24.7489424,4.0328 C24.8384712,3.6818 24.9528691,3.3448 25.2771623,3.1338 C25.671089,2.8828 26.0311937,3.0598 26.0630262,3.4278 C26.2281571,5.3508 26.5245969,7.2928 25.7397277,9.1658 C25.5258534,9.3378 25.2771623,9.4248 25.0095707,9.4658 C24.3192042,9.5178 23.6218743,9.6178 22.9812461,9.2288 C22.6619267,8.7668 23.0707749,8.6788 23.340356,8.5188 C23.6338115,8.4258 23.940199,8.3928 24.2426073,8.3558 C24.9071099,8.2318 24.8613508,7.6848 24.8673194,7.2158 C24.8812461,6.1538 24.9717696,5.0868 24.7489424,4.0328" id="Fill-96" fill="#DE4532" mask="url(#mask-2)"></path>
                <path d="M24.7489424,4.0328 C25.7069005,5.1408 25.4711414,8.2128 24.3838639,8.7828 C23.5970052,7.6898 24.0257487,6.4128 23.8506702,5.2278 C24.1500942,4.8288 24.4495183,4.4308 24.7489424,4.0328" id="Fill-97" fill="#DD3D31" mask="url(#mask-2)"></path>
                <path d="M25.567534,9.1208 C26.0460157,7.3238 25.9883194,5.4988 25.8530314,3.6688 C25.8271675,3.3128 25.5983717,3.1718 25.2770628,3.1338 C25.3297853,2.8358 25.5058586,2.6318 25.7625079,2.4888 C26.1862775,2.7248 26.6110419,2.9108 26.5632932,3.5568 C26.4299948,5.3558 26.2917225,7.1578 26.6965916,8.9488 C26.7254398,9.0788 26.5205183,9.2628 26.4250209,9.4208 C26.3225602,9.5208 26.201199,9.5808 26.0609372,9.6058 C25.7734503,9.5708 25.4949162,9.5268 25.567534,9.1208" id="Fill-98" fill="#DE4931" mask="url(#mask-2)"></path>
                <path d="M15.4460052,31.7949 C14.3129686,30.7369 14.9874188,29.3999 14.8949058,28.1819 C15.0868953,28.2919 15.2798796,28.4029 15.4718691,28.5139 C15.8528639,29.1289 16.359199,29.6229 16.9311885,30.0549 C16.9232304,30.1589 16.9142775,30.2619 16.9063194,30.3649 C16.2378377,30.6539 15.9175236,31.3029 15.4460052,31.7949" id="Fill-99" fill="#80AFC0" mask="url(#mask-2)"></path>
                <path d="M11.0238796,27.008 C11.4257644,25.986 11.6396387,24.967 10.9741414,23.962 C11.2685916,23.294 11.6187487,22.664 12.1758168,22.173 C12.1867592,23.786 12.1977016,25.4 12.208644,27.014 C11.8137225,27.012 11.418801,27.01 11.0238796,27.008" id="Fill-100" fill="#51B5BB" mask="url(#mask-2)"></path>
                <path d="M23.4865864,8.7884 C23.289623,8.8834 23.0926597,8.9784 22.8956963,9.0744 C22.8668482,9.3144 22.7345445,9.4824 22.5355916,9.6064 C22.0561152,9.8264 21.5746492,10.0244 21.0533927,9.7254 C20.9608796,9.5074 20.9439686,9.2984 21.1180524,9.1084 C21.7099372,8.3104 22.301822,7.5124 22.8937068,6.7144 C23.7561675,7.1914 23.7561675,7.1914 23.4865864,8.7884" id="Fill-101" fill="#DD3336" mask="url(#mask-2)"></path>
                <path d="M23.4865864,8.7884 C22.8966911,8.2104 23.8944398,7.1734 22.8937068,6.7144 C23.1105654,6.1524 23.4020314,5.6394 23.8506702,5.2274 C23.9819791,5.2844 24.2336545,5.3594 24.2286806,5.3954 C24.0545969,6.5374 24.4186806,7.6514 24.3838639,8.7834 C24.0844398,8.7844 23.7860105,8.7864 23.4865864,8.7884" id="Fill-102" fill="#DC3532" mask="url(#mask-2)"></path>
                <path d="M0.322900524,39.5609 C1.0779267,40.6739 0.828240838,41.9499 0.902848168,43.1739 C-0.0650575916,42.0959 -0.248094241,40.8889 0.322900524,39.5609" id="Fill-103" fill="#B8E1E0" mask="url(#mask-2)"></path>
                <path d="M0.920455497,38.3714 C1.31040314,39.0674 1.14029843,39.4784 0.322602094,39.5614 C0.370350785,39.0874 0.535481675,38.6734 0.920455497,38.3714" id="Fill-104" fill="#B8E1E0" mask="url(#mask-2)"></path>
                <path d="M21.1178534,9.1082 C21.1258115,9.3322 21.1337696,9.5562 21.1427225,9.7802 C21.2342408,9.8362 21.263089,9.8882 21.229267,9.9372 C21.1964398,9.9842 21.1636126,10.0082 21.1307853,10.0082 C20.9049738,10.1052 20.6801571,10.2022 20.4543455,10.2992 C20.6751832,9.9022 20.8970157,9.5052 21.1178534,9.1082" id="Fill-105" fill="#E34C3D" mask="url(#mask-2)"></path>
                <path d="M21.8972513,22.9063 C22.4234817,23.7813 23.1297644,24.5463 23.4749476,25.5313 C23.3724869,25.8733 22.9278272,25.9163 23.0213351,26.5263 C23.4431152,29.2673 23.4152618,32.0403 23.0979319,34.7963 C23.0282984,35.4053 23.3277225,35.9573 23.1894503,36.5463 C22.3011257,36.3633 21.3929058,36.2233 20.8079843,35.4023 C21.1710733,34.8233 21.1282984,34.1753 21.1153665,33.5343 C21.0407592,29.8873 21.2785079,26.2363 20.9820681,22.5913 C20.9731152,22.4763 21.0924869,22.3503 21.151178,22.2293 C21.6555236,22.1713 21.8345812,22.4743 21.8972513,22.9063" id="Fill-106" fill="#1E8C9E" mask="url(#mask-2)"></path>
                <path d="M21.8972513,22.9063 C21.6485602,22.6803 21.3998691,22.4553 21.151178,22.2293 C21.113377,22.0453 21.0745812,21.8603 21.0357853,21.6763 C21.7231675,21.5983 21.7092408,21.0943 21.7112304,20.5813 C21.7281414,17.3263 21.7261518,14.0703 21.7937958,10.8163 C21.805733,10.2353 21.4287173,10.2093 21.130288,10.0083 C21.1382461,9.9323 21.1422251,9.8563 21.1422251,9.7803 C21.5958377,9.6403 22.0484555,9.5013 22.5020681,9.3613 C23.465,9.0603 23.4421204,9.8323 23.5177225,10.3743 C23.6808639,11.5543 23.7335864,12.7683 23.5575131,13.9293 C23.2431675,16.0083 23.4530628,18.0713 23.4640052,20.1423 C23.1944241,21.2083 22.274267,21.9023 21.8972513,22.9063" id="Fill-107" fill="#F7C79E" mask="url(#mask-2)"></path>
                <path d="M27.2728586,30.9232 C27.8935916,31.7172 28.5143246,32.5102 29.1350576,33.3042 C29.1221257,33.4732 29.1101885,33.6432 29.0972565,33.8122 C28.5541152,34.3692 28.2308168,35.1662 27.3882513,35.3952 C27.2231204,35.5352 26.9983037,35.6092 26.8630157,35.4442 C26.0373613,34.4292 26.2770995,31.9112 27.2728586,30.9232" id="Fill-108" fill="#107A90" mask="url(#mask-2)"></path>
                <path d="M27.2728586,30.9232 C26.9406073,32.4232 26.1517592,33.9352 27.3872565,35.3952 C27.3633822,35.4752 27.3464712,35.5572 27.3375183,35.6412 C26.8520733,35.8572 26.4501885,36.2662 25.878199,36.2842 C25.1589843,36.2422 25.2037487,35.6492 25.1758953,35.1972 C25.0794031,33.6652 25.1291414,32.1282 25.0177277,30.5942 C24.966,29.8952 25.1778848,29.1862 26.1119686,29.1322 C26.7068377,29.5932 26.9236963,30.3012 27.2728586,30.9232" id="Fill-109" fill="#117E93" mask="url(#mask-2)"></path>
                <path d="M26.1117696,29.1325 C25.4671623,29.6255 25.2920838,30.1905 25.4333403,31.0545 C25.6293089,32.2615 25.5248586,33.5155 25.5785759,34.7485 C25.6014555,35.2695 25.3845969,35.8515 25.878,36.2845 C25.776534,36.3845 25.6740733,36.4845 25.5726073,36.5845 C25.4731309,36.5885 25.3746492,36.5925 25.2761675,36.5975 C24.683288,36.5845 24.0914031,36.5705 23.4985236,36.5575 C23.7123979,33.9975 23.7004607,31.4335 23.7173717,28.8675 C23.7213508,28.2805 23.2359058,27.0805 24.6186283,27.0235 C25.1160105,27.7265 25.6143874,28.4295 26.1117696,29.1325" id="Fill-110" fill="#148397" mask="url(#mask-2)"></path>
                <path d="M29.4275183,12.694 C28.3850052,12.657 28.3730681,13.827 27.680712,14.201 C27.0987749,14.306 26.7953717,13.904 26.7854241,13.468 C26.7545864,12.102 26.2979895,10.814 26.1666806,9.472 C26.2522304,9.453 26.3387749,9.436 26.4253194,9.421 C26.7157906,9.621 27.0062618,9.821 27.296733,10.021 C27.5971518,10.435 27.951288,10.781 28.4526492,10.938 C28.5690366,11.127 28.6854241,11.316 28.8028063,11.504 C29.010712,11.901 29.2186178,12.297 29.4275183,12.694" id="Fill-111" fill="#F2B599" mask="url(#mask-2)"></path>
                <path d="M13.9688796,27.3549 C13.9310785,25.2939 14.1330157,23.2289 13.8544817,21.1709 C13.8166806,20.8859 13.7042723,20.4239 14.2832251,20.4509 C15.0979372,21.0279 14.5746911,21.8269 14.5528063,22.4959 C14.4980942,24.1989 14.8940105,25.9309 14.2891937,27.6039 C14.1887225,27.6079 14.0882513,27.6119 13.9877801,27.6149 C13.9808168,27.5289 13.9748482,27.4419 13.9688796,27.3549" id="Fill-112" fill="#37ABB4" mask="url(#mask-2)"></path>
                <path d="M24.6182304,27.0233 C23.9497487,27.5953 24.0273403,28.4593 24.0512147,29.1433 C24.1248272,31.2773 24.0551937,33.4043 24.0154031,35.5353 C24.0064503,35.9933 23.6204817,36.1933 23.4991204,36.5573 C23.3956649,36.5543 23.2932042,36.5503 23.1897487,36.5463 C22.7013194,35.9943 22.5590681,35.4803 22.690377,34.6403 C23.0723665,32.2033 23.0226283,29.7253 22.7251937,27.2633 C22.6406387,26.5653 22.3422094,25.7193 23.4752461,25.5313 C23.9318429,25.9693 24.3924188,26.4053 24.6182304,27.0233" id="Fill-113" fill="#19879A" mask="url(#mask-2)"></path>
                <path d="M23.4637068,20.142 C22.7484712,18.536 22.7763246,16.842 23.0369529,15.174 C23.2916126,13.549 23.1792042,11.936 23.1314555,10.319 C23.1215079,9.964 23.1931309,9.354 22.5027644,9.361 C22.6330785,9.266 22.7643874,9.17 22.8956963,9.074 C23.5890471,9.098 24.2814031,9.121 24.9747539,9.145 C25.4154346,10.203 25.0433927,11.292 25.0493613,12.36 C25.0583141,13.92 25.1985759,15.424 25.8292565,16.859 C25.1040733,18 24.4783665,19.213 23.4637068,20.142" id="Fill-114" fill="#F3C19B" mask="url(#mask-2)"></path>
                <path d="M25.8292565,16.8594 C24.5111937,16.7664 24.8464293,15.4124 24.7996754,14.9084 C24.6236021,13.0074 24.412712,11.0464 24.9747539,9.1454 C25.172712,9.1374 25.3696754,9.1284 25.5676335,9.1204 C25.7675812,9.2374 25.966534,9.3544 26.1664817,9.4714 C26.9573194,10.4124 27.1980524,11.4984 27.0657487,12.7074 C27.0020838,13.2914 27.001089,13.9014 27.6805131,14.2004 C26.9871623,15.0334 26.6986806,16.1504 25.8292565,16.8594" id="Fill-115" fill="#F2BB9A" mask="url(#mask-2)"></path>
            </g>
        </g>
    </g>
</svg>