<?xml version="1.0" encoding="UTF-8" standalone="no"?>
<svg xmlns="http://www.w3.org/2000/svg" xmlns:xlink="http://www.w3.org/1999/xlink" width="200" height="120">
  <defs>
    <path id="a" d="M189 .6H0V45h189z"/>
  </defs>
  <g fill="none" fill-rule="evenodd">
    <path fill="#fcfcfc" d="M78.5 46.8L77 41.9l-2 4.9zm-2.4-6.5h1.7l4 11H80L79 48h-4.3l-1.2 3.3H72zm9.5 11h-1.4v-11H86l5.4 8.9v-9H93v11.1h-1.7l-5.6-8.9zm18.8-11v1.3h-3.7v9.7h-1.5v-9.7h-3.7v-1.3z"/>
    <g transform="translate(5.5 37.2)">
      <path fill="#fcfcfc" d="M108.9 11.7c.5-1 .8-2 .8-3.3 0-1.3-.3-2.3-1-3.1A3.4 3.4 0 0 0 106 4c-1.2 0-2.1.4-2.8 1.2-.7.8-1 2-1 3.4a5 5 0 0 0 .8 3.1c.6.9 1.6 1.3 3 1.3 1.3 0 2.3-.5 2.9-1.4zm1.3-7c.7 1 1 2.2 1 3.7 0 1.6-.4 3-1.2 4a5 5 0 0 1-4.2 2 5 5 0 0 1-4-1.7c-.8-1-1.2-2.4-1.2-4s.3-2.8 1-3.9c1-1.4 2.4-2 4.3-2 2 0 3.3.6 4.3 1.8zm5.6 9.3h-1.5V3h7.6v1.4h-6.1v3.4h5.4V9h-5.4zm13.7-4.4l-1.7-4.9-1.8 4.9zM127 3h1.7l4 11H131l-1.1-3.3h-4.3l-1.2 3.3H123zm15.5.4c1 .6 1.7 1.6 2 3H143c-.2-.8-.6-1.4-1.1-1.8-.6-.3-1.3-.5-2.1-.5-1 0-1.8.4-2.5 1.1-.7.8-1 2-1 3.5 0 1.3.2 2.3.8 3.2.6.8 1.5 1.2 2.7 1.2 1 0 1.8-.3 2.4-.9.7-.5 1-1.5 1-2.8h-3.4V8.2h4.8V14h-1l-.3-1.4c-.5.5-1 1-1.3 1.1-.7.4-1.5.6-2.5.6-1.2 0-2.3-.4-3.3-1.3-1-1-1.5-2.5-1.5-4.4 0-1.8.5-3.3 1.5-4.4 1-1 2.1-1.5 3.6-1.5 1 0 2 .2 2.7.6m11.3 6.3l-1.6-4.9-1.8 4.9zM151.4 3h1.7l4 11h-1.7l-1.1-3.3H150l-1.2 3.3h-1.5zm9.1 7.5c0 .7.2 1.2.4 1.6.5.7 1.3 1 2.5 1 .6 0 1 0 1.5-.2.8-.3 1.3-.9 1.3-1.7 0-.6-.2-1-.6-1.2-.3-.3-1-.5-1.7-.7l-1.4-.3c-1-.3-1.6-.5-2-.8-.7-.4-1-1.1-1-2 0-1 .3-1.8 1-2.5a4 4 0 0 1 2.8-1c1 0 2 .4 2.8 1 .8.5 1.2 1.4 1.2 2.6h-1.4c0-.6-.2-1-.5-1.4-.4-.5-1.1-.8-2.2-.8a3 3 0 0 0-1.8.5c-.3.4-.5.8-.5 1.3 0 .6.2 1 .6 1.2.3.2 1 .4 2 .6l1.4.4c.8.1 1.3.4 1.7.7.7.5 1 1.2 1 2.2 0 1.2-.4 2-1.3 2.6-.8.5-1.8.8-3 .8-1.3 0-2.3-.3-3.1-1a3.6 3.6 0 0 1-1.1-2.9zM178.8 3v1.4h-3.7V14h-1.5V4.4H170V3zm7.1 6.6l-1.7-4.9-1.8 4.9zM183.4 3h1.7l4 11h-1.7l-1.1-3.3H182l-1.2 3.3h-1.5zm-116 18.5h2.1l3.2 9.3 3-9.3H78v11h-1.4V26a66.7 66.7 0 0 1 0-2.8l-3.1 9.3H72l-3.2-9.3v.4a51 51 0 0 0 0 2.4v6.5h-1.3z"/>
      <mask id="b" fill="#fff">
        <use width="100%" height="100%" xlink:href="#a"/>
      </mask>
      <path fill="#fcfcfc" d="M81.6 32.5h1.5v-11h-1.5zm6.5 0h-1.4v-11h1.7l5.5 8.9v-8.9h1.4v11h-1.7l-5.5-8.9zm12.3-1.3h6.7v1.3H99v-11h8v1.3h-6.6v3.4h6v1.3h-6zm14.8-4.7c.7 0 1.2 0 1.6-.4.4-.3.6-.8.6-1.5 0-.8-.3-1.3-.8-1.6l-1.2-.2h-3.5v3.7zm-4.8-5h5a4 4 0 0 1 2 .4c1 .4 1.5 1.3 1.5 2.6a3 3 0 0 1-.4 1.6 3 3 0 0 1-1.1 1l1 .7c.1.3.3.7.3 1.4v1.5l.1.9c.1.3.3.6.5.7v.2h-1.8l-.1-.4v-.8l-.2-1.9c0-.7-.3-1.2-.8-1.4l-1.3-.2H112v4.7h-1.5zM128 28l-1.6-4.9-1.8 4.9zm-2.4-6.5h1.7l4 11h-1.7l-1.1-3.3h-4.3l-1.2 3.3h-1.6zm9.6 9.7h5.5v1.3h-7v-11h1.5zm9.1-2.2c0 .6.2 1 .5 1.5.4.7 1.3 1 2.5 1 .5 0 1 0 1.4-.2.9-.3 1.3-.8 1.3-1.6 0-.6-.2-1-.5-1.3-.4-.3-1-.5-1.8-.7l-1.4-.3c-1-.2-1.6-.5-2-.7-.7-.5-1-1.2-1-2 0-1 .3-1.9 1-2.5a4 4 0 0 1 2.8-1 5 5 0 0 1 2.9.9c.7.5 1.1 1.4 1.1 2.6h-1.4c0-.6-.2-1-.4-1.3-.5-.6-1.2-.9-2.2-.9-.9 0-1.5.2-1.8.6-.4.3-.6.8-.6 1.3s.2.9.7 1.1c.2.2.9.4 1.9.6l1.5.4a4 4 0 0 1 1.6.7c.7.5 1 1.3 1 2.2 0 1.3-.4 2.1-1.2 2.7a6 6 0 0 1-3 .7c-1.4 0-2.4-.3-3.2-1a3.6 3.6 0 0 1-1-2.8z" mask="url(#b)"/>
      <path fill="#a4cfd4" d="M40.5 31.5c-.7.9-1 2-1.9 2.7-.6 0-.8-.5-.8-1a105 105 0 0 0 0-12.7c.5-.8.9-1.7 1.7-2.4.3-.2.5-.3.9-.1.2.1.4.3.4.7 0 4.3.1 8.5-.3 12.8" mask="url(#b)"/>
      <path fill="#9cc8d0" d="M37.2 36.3a13 13 0 0 1-2 3c-.9-.4-.6-1-.6-1.7v-9.8c0-.6 0-1.2-.2-1.8 0-1.3.6-2.1 1.8-2.5.8.2 1 .8 1 1.5 0 3.7.3 7.5 0 11.3" mask="url(#b)"/>
      <path fill="#a8d3d6" d="M40.5 31.5c-.4-.8-.5-1.8-.3-2.7.5-3 .2-6.1.1-9.2 0-.5.8-1.3-.3-1.6 0-1.2.5-2 1.6-2.3.6.3.8.9 1 1.4-.2.9-.2 1.7-.1 2.5.2 2.8.2 5.5-.2 8.2V29c0 .5 0 1-.7 1.3l-1.1 1.2" mask="url(#b)"/>
      <path fill="#98c5ce" d="M34.5 25.8c.7.4.6 1 .6 1.6-.1 3.7.2 7.4-.2 11l.2 1c-.4.5-.5 1.3-1.1 1.7-.5.1-.6-.3-.7-.6-.4-1-.4-2-.5-3 0-3 .3-5.8-.1-8.7-.2-1.5.7-2.3 1.8-3" mask="url(#b)"/>
      <path fill="#1f94a4" d="M20.5 35.4a3 3 0 0 1-1.2-1.7c-.5-1-.4-2.2-.4-3.4v-7.8c0-.8 0-1.7 1-2 .8 0 1.1.5 1.4 1v.9c.4 3.7.2 7.5.2 11.2 0 .7 0 1.3-.5 1.8h-.5" mask="url(#b)"/>
      <path fill="#91bcc8" d="M30.9 44.6c-.6.5-1.3.4-2 .3-.4-1 .2-1.8.2-2.8l-.3-8.1v-.7c.5-1 .9-1.8 2-2 .8.2.7.8.7 1.3.2 3.3.2 6.5 0 9.8 0 .8-.2 1.5-.6 2.2" mask="url(#b)"/>
      <path fill="#f7cb9e" d="M21 21.7l-.8-1c-.7-.4-1.4-.8-1.4-1.8.3-.7.5-1.4.3-2.2-.2-.8-.4-1.8.3-2.5 0 0 .3 0 0-.2-.9-.9 0-1.7.2-2.5 0-.6.4-1 .9-1.2.2-.3.5-.5 1-.4.6.2.7.7.7 1.4V20c0 .7.2 1.8-1.2 1.6" mask="url(#b)"/>
      <path fill="#1d8c9e" d="M54 45c-.6 0-1.2 0-1.7-.4-.8-1-.6-2.3-.6-3.5-.2-2.5-.2-5.1 0-7.7.1-.7 0-1.6 1.1-1.6.7.7 1.3 1.5 1.6 2.4-.4 1-.2 2-.2 3 0 2.5.2 5.2-.1 7.8" mask="url(#b)"/>
      <path fill="#a0cbd2" d="M37.2 36.3c-.6-1.1-.3-2.4-.3-3.6v-7.5c0-.7 0-1.4-1-1.5-.1-.4.3-.8.3-1.2l.2-.3c.6-.4.8-1.2 1.6-1.3.5 4 .5 8 .2 11.9 0 .5 0 1 .5 1.4-.3.9-1 1.5-1.5 2.1" mask="url(#b)"/>
      <path fill="#9ac6cf" d="M9.2 41L8 42.5c-1 .4-1.1-.3-1.2-1v-9.4c-.1-1.1 0-2.1.6-3 0-.4.3-.7.5-1 1 0 1 .6 1 1.2.2 1 .2 2 .2 3-.1 2.9.1 5.8 0 8.7" mask="url(#b)"/>
      <path fill="#239eab" d="M50 42a5.2 5.2 0 0 1-1.6-2.1 9 9 0 0 1-.4-2.8v-9.2c0-.7-.2-1.6.7-2 .4.5 1 1 1.2 1.7.9 4.4.2 8.8.4 13.1 0 .5 0 1-.4 1.2" mask="url(#b)"/>
      <path fill="#e3722e" d="M32 2c.7.2.9.8 1 1.3.7 1 .7 2.3.7 3.4v8.5c0 .7.1 1.6-.7 2.1-1-.2-1.6-.8-1.6-1.9.3-.8 0-1.6 0-2.4V3.5c0-.5 0-1.2.7-1.5" mask="url(#b)"/>
      <path fill="#a4ced4" d="M6.3 44.4a2 2 0 0 1-1.2.5c-.8-.4-.7-1.2-.8-2v-8.8c0-.3 0-.6.2-.8l1.2-1.8c.7 0 1 .5 1 1 0 4 .1 7.8-.3 11.6l-.1.3" mask="url(#b)"/>
      <path fill="#8dbac6" d="M29.1 33.8c.3 3.2.4 6.4.4 9.5 0 .7-.6 1-.7 1.6-.8 0-1.6-.1-2-.8.8-2 .3-4 .4-5.9V36c-.1-.1 0-.3 0-.4.5-.8 1-1.5 1.9-1.8" mask="url(#b)"/>
      <path fill="#1f98a7" d="M50 42c-.3-4.5.2-8.9-.3-13.3 0-.4-.2-.8.2-1 .1.9 1.4 1 1.5 2 .3 1 .2 2 .2 3 0 3.4-.3 6.8 0 10.2 0 .4 0 .7-.2 1-.8-.4-1.2-1.2-1.5-2" mask="url(#b)"/>
      <path fill="#96c1cb" d="M32.7 28.5c.8.2.6.8.6 1.3V38c0 1.1.3 2.1.7 3.1l-1.6 2.3c-.6-.2-.8-.7-.8-1.3.3-3.4-.2-6.8.2-10.1 0-.5-.1-.9-.5-1.2-.4-1.3.5-1.8 1.4-2.3" mask="url(#b)"/>
      <path fill="#1f99a8" d="M19 19l1.2 1.8c-.6 0-.7.3-.8 1-.2 3.6 0 7.3 0 11l-.1.9a7 7 0 0 1-1.5-2c-.3-1 0-2 0-3 0-3.1-.2-6.2 0-9.3 0-.6 0-1 .8-1 .2.1.3.3.4.6" mask="url(#b)"/>
      <path fill="#26a1ad" d="M15.8 16.9l.9-1.3c.8.1 1 .8 1 1.4-.2 3.7 0 7.4-.1 11 0 .7 0 1.4-.5 2-1.2.2-1.5-.6-1.9-1.6.8-2.8.4-5.6.4-8.5 0-1 0-2 .2-3" mask="url(#b)"/>
      <path fill="#e88729" d="M36.6 22.5l-.2.1c-.9-.2-1.1-.8-1.2-1.6V11c0-1.4 0-2.7.5-4 .5.5.9 1.1 1.2 1.8.4.9.4 1.8.4 2.7v7.6c0 1.2 0 2.4-.7 3.4" mask="url(#b)"/>
      <path fill="#148398" d="M54 45c-.5-2.5 0-5-.2-7.5v-3c0-.4.2-.5.6-.3.6.7 1.4 1.4 1.7 2.4-.6 1.5-.4 3.1-.4 4.7v3.4c-.5.3-1 .3-1.6.3" mask="url(#b)"/>
      <path fill="#95c1cb" d="M9.2 41c-.7-1.5-.5-3.1-.5-4.7-.2-2.4 0-4.7-.2-7.1 0-.5 0-.8-.6-1l.4-.6c.7 0 1.2-1 2-.3v9.5c0 .7.4 1.2.5 1.9-.3 1-1.5 1.3-1.6 2.3" mask="url(#b)"/>
      <path fill="#e98f28" d="M36.6 22.5c.5-4.5.2-9.1.3-13.7.5.5.9 1 1.2 1.7.6 1.2.5 2.5.4 3.8-.1 2 .3 4.2-.4 6.3l-.1.3-1.4 1.6" mask="url(#b)"/>
      <path fill="#87b4c3" d="M26 43.5c-1.2-1.4-2.2-3-3.1-4.5v-.2c.1-2.2.1-2.2 2.3-2.4h.5c.6.4 1 1 1 1.8l-.1 5c0 .2-.2.5-.5.3" mask="url(#b)"/>
      <path fill="#9ec9d1" d="M6.3 44.4c-.3-3 .1-5.9 0-8.8v-2.7c0-.6-.2-1-.6-1.4.5-.8 1-1.8 1.7-2.4-.5 2.2-.2 4.5-.2 6.8v5.8c0 .7.5.7.8.8-.3.9-.8 1.6-1.7 1.9" mask="url(#b)"/>
      <path fill="#8dbac6" d="M13 35.4c-.3.6-.7 1.3-1.3 1.8-.6.1-.8-.4-.9-.8a43 43 0 0 1 0-8.7c0-.2 0-.4.2-.5 1.5-.3 1.9 0 2 1.5v6.7" mask="url(#b)"/>
      <path fill="#92bdc8" d="M11 27.3l.1 8.5c0 .6 0 1 .6 1.4-.2.6-.4 1.1-1 1.5-.4-.3-.9-.6-.9-1.3v-9l.3-1c.3-.3.6-.3 1 0" mask="url(#b)"/>
      <path fill="#1f93a3" d="M51.4 43.9c-.6-4.2-.3-8.4-.1-12.5 0-.6-.5-1.2 0-1.7.7.6 1.1 1.4 1.5 2.1-.3.3-.6.5-.6 1-.3 4-.3 7.9.1 11.8-.4-.1-.7-.4-1-.7" mask="url(#b)"/>
      <path fill="#94bfca" d="M31.2 30.6c.8 0 1.4.1 1.2 1.1-.6 2.9-.3 5.7-.2 8.5 0 1-.8 2.2.2 3.2-.6.3-.8 1-1.5 1.2.6-4.2.2-8.4.3-12.6 0-.3-.3-.5-.6-.5-.1-.5 0-.9.6-.9" mask="url(#b)"/>
      <path fill="#239daa" d="M17 30c.4-2.2.2-4.5.2-6.8 0-1.8.2-3.6 0-5.4-.1-.4 0-.7.3-1 .8.3 1.4.8 1.2 1.9-.2 0-.6-.1-.6.2V29c0 .9 0 1.8-.3 2.6-.4-.3-.7-.7-.9-1.2v-.3" mask="url(#b)"/>
      <path fill="#34aab3" d="M47.2 23.7c.3.3.6.5.6 1 .4 3.6.1 7.3.2 11 0 1 .3 2.2-.2 3.3l-1.3-1.8c-.5-1-.3-2.2-.3-3.3v-8.4c0-.7-.2-1.7 1-1.8" mask="url(#b)"/>
      <path fill="#e7822c" d="M35.7 7v11.6c-.1.8.2 1.7-.3 2.5-1.1-.1-1.1-1-1.1-1.7.2-4 0-7.9 0-11.8.1-.6-.3-1.3.5-1.8l.9 1.2" mask="url(#b)"/>
      <path fill="#e6792c" d="M32.7 17.2c.7-.1.6-.8.6-1 0-4.4.2-8.6-.3-12.9l1.3 1.6c.4 3.8.2 7.6 0 11.4 0 .8.6 1.8-.5 2.4-.9-.1-1.3-.6-1-1.5" mask="url(#b)"/>
      <path fill="#29a4b0" d="M47.8 39c-.5-3.8-.2-7.7-.2-11.6 0-.9-.3-1.9.2-2.8.3.4.8.7.9 1.2-.5 4.6-.3 9.1-.2 13.7v.4l-.7-.9" mask="url(#b)"/>
      <path fill="#e26b2f" d="M32 2c-.3.5-.2 1-.2 1.6 0 3.8-.1 7.5.2 11.3 0 .4 0 .8-.6.5-.8-.1-1-.7-1-1.4 0-4.2.2-8.4.1-12.6l.1-.5c.7.2 1 .7 1.5 1.1" mask="url(#b)"/>
      <path fill="#e16530" d="M30.6 1c.6.9.4 1.9.4 3v9.2c0 .5 0 .8-.4 1-.9-.2-1.3-.8-1.2-1.7.3-2 .2-3.8.2-5.7l.1-4.5c0-.5 0-1.2.6-1.5l.3.1" mask="url(#b)"/>
      <path fill="#e05531" d="M27 1.3c.4-.5 1-.6 1.5-.6.4.5.6 1 .5 1.7v7.5c0 .4.1.8-.2 1-.9.4-1.3 0-1.6-.8-.4-2.9-.2-5.8-.2-8.8" mask="url(#b)"/>
      <path fill="#f8d3a2" d="M18.7 18.7c-.2-.8-.8-1.3-1.2-1.8l-.8-1.3c.8-1.5 1.8-2.8 2.9-4.1 0 1-.5 2 .3 3-1.2.6-.7 1.8-.4 2.3.5 1 0 1.5-.5 2.2l-.3-.3" mask="url(#b)"/>
      <path fill="#8ab7c4" d="M26 43.5c.9-.5.2-1.3.1-1.8 0-1.7.9-3.6-.5-5.1 0-.2.1-.4.3-.5.4-.2.9-.6 1.4-.5.7 2.6.2 5.1.3 7.7 0 .5-.4.7-.9.8l-.6-.6" mask="url(#b)"/>
      <path fill="#abd9da" d="M42.2 29.1c-1-1.1.1-2.3 0-3.5-.2-2.3.1-4.5-.3-6.8 0-.6-.1-1.3.7-1.7l.5.7c.7 2.1.4 4.3.4 6.5 0 .8 0 1.6.3 2.4v.5c-.3.8-.6 1.7-1.6 2" mask="url(#b)"/>
      <path fill="#e06030" d="M30.3.8c-.5 2.4-.2 4.9-.3 7.3v3.4c0 .5 0 1-.5 1.2h-.2c-.6-.4-.8-.9-.5-1.5.4-.7 0-1.4 0-2.2.2-2.3-.2-4.6.3-6.9 0-.5-.3-1-.4-1.4.6-.3 1.1 0 1.6.1" mask="url(#b)"/>
      <path fill="#ec9728" d="M38 20.6v-10c.6.4 1 1 1.3 1.7.8 2 .2 4 .3 6L38 20.7" mask="url(#b)"/>
      <path fill="#b0dadb" d="M43.7 27c-.3-.1-.6-.3-.6-.6v-8.6c.7.6 1.2 1.4 1.5 2.3-.2 1.8.1 3.5.2 5.3v.7c-.2.5-.5 1-1.1 1" mask="url(#b)"/>
      <path fill="#45b1b8" d="M46 36.3l-.9-1.2c0-.3-.3-.6-.3-1 0-3.1-.4-6.3.4-9.5.3-.3.4-1 1-.4.2 4 .4 8-.2 12.1" mask="url(#b)"/>
      <path fill="#aad5d8" d="M4.5 33.3v.6c-.3 3.4-.2 6.9-.1 10.4 0 .2 0 .4-.2.6h-1c-.2-.3-.6-.4-.6-.9.1-2.9-.5-5.8.4-8.6.6-.7.7-1.6 1.5-2.1" mask="url(#b)"/>
      <path fill="#107e92" d="M55.6 44.7c-.2-.1-.4-.1-.4-.5v-6c0-.7.3-1.3 1-1.6l.6.9c-.1 2.1.3 4.2 0 6.4-.2.5-.8.4-1.2.8" mask="url(#b)"/>
      <path fill="#2ba5b0" d="M15.8 16.9c.4 1 .1 2 .2 3 .2 2.1 0 4.3 0 6.6 0 .7-.2 1.4-.5 2-.4.1-.7 0-.8-.4v-.6c.2-2.3 0-4.6 0-6.9 0-.9.1-1.8.4-2.6.2-.4.3-.9.7-1.1" mask="url(#b)"/>
      <path fill="#a6d1d5" d="M4.2 45c-.4-3.8-.8-7.5.3-11.1.5.4.3 1 .3 1.5v7.8c0 .6 0 1.2.3 1.7H4" mask="url(#b)"/>
      <path fill="#e67d2c" d="M33.7 18.7c.7-1.3.4-2.8.4-4.1.2-3.2.1-6.5.2-9.7.3.2.4.6.5 1v12c0 .6.2 1.2-.4 1.7-.5 0-1-.3-.7-1" mask="url(#b)"/>
      <path fill="#89b6c4" d="M11.4 27.3h-.6c0-.6.1-.5.5-.6h1c.5 0 .9 0 1.3.2l.5.4.1.5c-.5 2-.7 3.9 0 5.8l-1.1 1.8c-.6-.3-.6-1-.6-1.5l.2-5.1c0-1.2-.2-1.6-1.3-1.5" mask="url(#b)"/>
      <path fill="#3dadb5" d="M46 36.3V24c-.2-.5 0-.8.4-1.1.4 0 .7.4.8.8-.7.3-.6 1-.6 1.6 0 3.4.3 6.8-.2 10.1 0 .7.8 1.2.1 1.8-.3-.2-.4-.5-.5-.9" mask="url(#b)"/>
      <path fill="#117a90" d="M56.8 43.9c-.3-2.2-.7-4.3 0-6.4 2 2.3 2 4.6 0 6.4" mask="url(#b)"/>
      <path fill="#85b3c2" d="M14.2 33.6c-.4 0-.8-.3-.8-.7.1-1.8-.5-3.6.6-5.3l.3-.1c.3 0 .5.2.6.4v.3c.6 1.1.2 2.4.5 3.6-.1.7-.7 1.2-1.2 1.8" mask="url(#b)"/>
      <path fill="#eea12a" d="M39.6 18.4c-.3-.2-.5-.3-.5-.7l.2-5.4c1 1 1.6 2.2 2.3 3.4-.7.7-1.2 1.5-1.6 2.3l-.4.4" mask="url(#b)"/>
      <path fill="#aedadb" d="M3 35.4V44l.3 1c-.5-.1-.9-.3-1.2-.6-.8-2.4-.4-4.8-.3-7.2.2-.8.8-1.3 1.2-1.8" mask="url(#b)"/>
      <path fill="#b1dddd" d="M46.4 22.9l-.4 1-.5.8c-.3.2-.2 1-.9.8-.2-1.8-1-3.6 0-5.4.9.8 1.6 1.6 1.8 2.8" mask="url(#b)"/>
      <path fill="#b0dddd" d="M1.8 37.2c.6 1 .2 2.3.3 3.5v3.7c-.5-.3-.9-.7-1.2-1.2-.5-1.2-.5-2.5-.6-3.7.4 0 .6-.7.6-1.1l.9-1.2" mask="url(#b)"/>
      <path fill="#df4e30" d="M27 1.3l.5.3c-.4 2.8 0 5.6-.2 8.4-.6.1-1-.1-1-.7a21 21 0 0 1-.2-5c0-.7 0-1.2-.3-1.8.3-.5.7-1 1.2-1.2" mask="url(#b)"/>
      <path fill="#57b9bd" d="M43.7 27l.9-1c.5.6.3 1.3.3 1.9v4.6c0 .4.2 1.1-.7 1.1l-.8-1c-.7-1.7-.5-3.5.3-5.3V27" mask="url(#b)"/>
      <path fill="#e15b30" d="M28.7.7c1 .1.7 1.1.7 1.5-.5 2.7-.1 5.5-.3 8.2 0 .4 0 .8-.3 1.1-.4 0-.4-.2-.3-.6.6-.6 0-1.2 0-1.9.2-2.3-.2-4.6.2-7 .1-.4-.6-.8-.2-1.3h.2" mask="url(#b)"/>
      <path fill="#32a9b2" d="M14.9 28l-.6-.4c-.2-1.8 0-3.6-.1-5.5 0-.5.1-1-.1-1.4-.2-.4-.3-.8-.1-1.2.2-.6.7-1 1.1-1.5 0 3.3.4 6.6-.2 10" mask="url(#b)"/>
      <path fill="#47b1b8" d="M13.4 27.3l-1.2-.3a6.6 6.6 0 0 1 0-4.8c.1-.5.4-1 .9-1.2 1 2 .8 4.1.3 6.3" mask="url(#b)"/>
      <path fill="#51b5bb" d="M44.2 33.6c.6-1 .4-2.1.4-3.2v-5l.9-.8c-.6 3.4-.2 7-.4 10.5-.5-.4-.7-1-1-1.6" mask="url(#b)"/>
      <path fill="#57b9bd" d="M11 27c-.3 0-.7 0-.9.3-.6-.3-1 .9-1.8.3C9.3 26.5 10 25 11 24c1 1 1 2.3 0 3" mask="url(#b)"/>
      <path fill="#3eaeb6" d="M13.4 27.3c-.4-.7 0-1.5 0-2.2.2-1.4-.3-2.7-.3-4.1.2-.6.4-1.1.9-1.5l.3 1v5.3c0 .5.1 1.1-.3 1.6l-.6-.1" mask="url(#b)"/>
      <path fill="#61c1c3" d="M43.7 27.3l-.3 5.4-1.8-2.4.6-1.2 1.5-1.8" mask="url(#b)"/>
      <path fill="#82b0c0" d="M25.3 36.6c-1.8-.2-1.8 1.3-2.4 2.4-.9-1.2-1.9-2.2-2.4-3.6h.3c.9.2 1.6.8 2.5.8h.5c.5 0 1 0 1.5.4" mask="url(#b)"/>
      <path fill="#de4532" d="M24.7 4c.1-.3.3-.7.6-.9.4-.2.7 0 .8.3.1 2 .4 3.9-.4 5.8l-.7.3c-.7 0-1.4.1-2-.3-.3-.4 0-.5.3-.7l1-.1c.6-.2.6-.7.6-1.2 0-1 0-2.1-.2-3.2" mask="url(#b)"/>
      <path fill="#dd3d31" d="M24.7 4c1 1.1.8 4.2-.3 4.8-.8-1.1-.4-2.4-.5-3.6l.8-1.2" mask="url(#b)"/>
      <path fill="#de4931" d="M25.6 9.1c.4-1.8.4-3.6.3-5.4 0-.4-.3-.5-.6-.6 0-.3.2-.5.5-.6.4.2.8.4.8 1-.2 1.9-.3 3.7.1 5.4 0 .2-.2.4-.3.5l-.3.2c-.3 0-.6 0-.5-.5" mask="url(#b)"/>
      <path fill="#80afc0" d="M15.4 31.8c-1-1-.4-2.4-.5-3.6l.6.3 1.4 1.6v.3c-.7.3-1 .9-1.5 1.4" mask="url(#b)"/>
      <path fill="#51b5bb" d="M11 27c.4-1 .6-2 0-3a5 5 0 0 1 1.2-1.8V27H11" mask="url(#b)"/>
      <path fill="#dd3336" d="M23.5 8.8l-.6.3c0 .2-.2.4-.4.5-.4.2-1 .4-1.4.1-.1-.2-.2-.4 0-.6L23 6.7c.9.5.9.5.6 2" mask="url(#b)"/>
      <path fill="#dc3532" d="M23.5 8.8c-.6-.6.4-1.6-.6-2 .2-.6.5-1.2 1-1.6l.3.2c-.1 1.1.2 2.3.2 3.4h-1" mask="url(#b)"/>
      <path fill="#b8e1e0" d="M.3 39.6c.8 1 .5 2.3.6 3.6-1-1.1-1.1-2.3-.6-3.6m.7-1.2c.3.7.1 1-.7 1.2 0-.5.2-1 .6-1.2" mask="url(#b)"/>
      <path fill="#e34c3d" d="M21.1 9.1v.7c.1 0 .2 0 .1.1v.1l-.7.3.6-1.2" mask="url(#b)"/>
      <path fill="#1e8c9e" d="M21.9 23c.5.8 1.2 1.5 1.6 2.5-.1.4-.6.4-.5 1a31 31 0 0 1 .1 8.3c0 .6.2 1.2 0 1.7-.8-.1-1.7-.3-2.3-1.1.4-.6.3-1.2.3-1.9 0-3.6.2-7.3-.1-11l.2-.3c.5 0 .6.3.7.7" mask="url(#b)"/>
      <path fill="#f7c79e" d="M21.9 23l-.7-.8-.2-.5c.7-.1.7-.6.7-1.1v-9.8c.1-.6-.3-.6-.6-.8v-.2l1.4-.4c1-.3 1 .4 1 1 .2 1.2.2 2.4 0 3.5-.3 2.1 0 4.2 0 6.2-.3 1.1-1.2 1.8-1.6 2.8" mask="url(#b)"/>
      <path fill="#107a90" d="M27.3 31l1.8 2.3v.5c-.5.6-.9 1.4-1.7 1.6-.2.1-.4.2-.5 0-.9-1-.6-3.5.4-4.5" mask="url(#b)"/>
      <path fill="#117e93" d="M27.3 31c-.4 1.4-1.1 3 0 4.4v.2c-.4.3-.8.7-1.4.7-.7 0-.7-.7-.7-1.1-.1-1.5 0-3-.2-4.6 0-.7.2-1.4 1.1-1.5.6.5.8 1.2 1.2 1.8" mask="url(#b)"/>
      <path fill="#148397" d="M26.1 29.1c-.6.5-.8 1-.7 2 .2 1.2.1 2.4.2 3.6 0 .6-.2 1.2.3 1.6l-.3.3h-2.1c.2-2.6.2-5.2.2-7.7 0-.6-.5-1.8 1-1.9l1.4 2.1" mask="url(#b)"/>
      <path fill="#f2b599" d="M29.4 12.7c-1 0-1 1.1-1.7 1.5-.6.1-.9-.3-1-.7 0-1.4-.4-2.7-.5-4h.2l.9.5c.3.4.7.8 1.2 1l.3.5.6 1.2" mask="url(#b)"/>
      <path fill="#37abb4" d="M14 27.4c0-2.1.1-4.2-.1-6.2 0-.3-.2-.8.4-.7.8.5.3 1.3.3 2-.1 1.7.3 3.4-.3 5.1H14v-.2" mask="url(#b)"/>
      <path fill="#19879a" d="M24.6 27c-.7.6-.6 1.5-.5 2.1v6.4c0 .5-.5.7-.6 1h-.3c-.5-.5-.6-1-.5-1.9.4-2.4.3-4.9 0-7.3 0-.7-.4-1.6.8-1.8.4.5.9 1 1.1 1.5" mask="url(#b)"/>
      <path fill="#f3c19b" d="M23.5 20.1a8.7 8.7 0 0 1-.5-5c.3-1.6.2-3.2.1-4.8 0-.3 0-1-.6-1l.4-.2h2c.5 1.1.1 2.2.1 3.3 0 1.5.2 3 .8 4.5-.7 1.1-1.3 2.3-2.3 3.2" mask="url(#b)"/>
      <path fill="#f2bb9a" d="M25.8 16.9c-1.3-.1-1-1.5-1-2-.2-1.9-.4-3.9.2-5.8h.6l.6.4c.8 1 1 2 .9 3.2-.1.6-.1 1.2.6 1.5-.7.8-1 2-1.9 2.7" mask="url(#b)"/>
    </g>
  </g>
</svg>