<?xml version="1.0" encoding="UTF-8" standalone="no"?>
<svg xmlns="http://www.w3.org/2000/svg" id="Capa_1" width="400" height="140">
  <g fill="#fff">
  <g id="g20" transform="translate(2.8 -5.9)">
    <path class="st0" d="M11.1 61.5h15.2c20.7 0 31 12 31 28.6 0 16.8-10.8 29.2-31.5 29.2H11.1zm14.7 51.2c17.2 0 23.3-10.4 23.3-22.8 0-12.8-7.5-21.7-23.3-21.7H19v44.5z" id="path4"/>
    <path class="st0" d="M88.8 114.8c-3.2 3-7.2 5.3-12.4 5.3-7.6 0-13.3-5-13.3-13 0-5.5 2.8-9.2 7.1-11.2 2.9-1.4 6.3-1.9 10.4-2.1l7.7-.3v-2.2c0-5.9-3.6-8.4-8.6-8.4-4.8 0-8.4 1.5-11.3 3.2l-2.7-5.3a29 29 0 0 1 15-4.1c9.4 0 15.3 4.5 15.3 14.5v15.1c0 7.1.3 10.9.8 13h-6.7zm-7.2-15.4a17 17 0 0 0-7.3 1.5c-2.2 1.2-3.2 3.3-3.2 5.9 0 4.3 2.8 7.1 7.2 7.1 4.8 0 8.3-2.9 10.1-4.8v-10z" id="path6"/>
    <path class="st0" d="M110.2 110V84H103v-6.3h7.1v-9.5l7.7-2.4v12h12.5l-2.1 6.3h-10.4v24.5c0 3.7 1.5 5.3 4.2 5.3s5-1.2 6.7-2.2l2.5 5.3a19.8 19.8 0 0 1-10.9 3.2c-6.3 0-10.1-3.7-10.1-10.2z" id="path8"/>
    <path class="st0" d="M161.8 114.8c-3.2 3-7.2 5.3-12.4 5.3-7.6 0-13.3-5-13.3-13 0-5.5 2.8-9.2 7.1-11.2 2.9-1.4 6.3-1.9 10.4-2.1l7.7-.3v-2.2c0-5.9-3.6-8.4-8.6-8.4-4.8 0-8.4 1.5-11.3 3.2l-2.7-5.3a29 29 0 0 1 15-4.1c9.4 0 15.3 4.5 15.3 14.5v15.1c0 7.1.3 10.9.8 13h-6.7zm-7.3-15.4a17 17 0 0 0-7.3 1.5c-2.2 1.2-3.2 3.3-3.2 5.9 0 4.3 2.8 7.1 7.2 7.1 4.8 0 8.3-2.9 10.1-4.8v-10z" id="path10"/>
    <path class="st0" d="M224 116a35.2 35.2 0 0 1-16.9 4.2C189.4 120.2 179 108 179 91c0-16.8 11.7-30.1 29.3-30.1a31 31 0 0 1 14.5 3.1v7.3a29.2 29.2 0 0 0-14.4-3.7c-13.2 0-21.2 10.4-21.2 23.1 0 13.5 8 22.8 20.7 22.8a29 29 0 0 0 13.9-3.7z" id="path12"/>
    <path class="st0" d="M233 57.1h7.7v25.6c4.1-3.5 8.8-6 14.1-6 6.5 0 12.7 3.9 12.7 14.8v27.9h-7.7V94.1c0-5.9-1.5-10.4-7.2-10.4-4.2 0-8.3 2.4-11.9 5.6v30.1H233z" id="path14"/>
    <path class="st0" d="M278.3 64.3c0-2.7 2-4.9 4.9-4.9 3 0 5.1 2.1 5.1 4.9a5 5 0 0 1-5.1 5 4.8 4.8 0 0 1-4.9-5zm1.1 13.5h7.7v41.5h-7.7z" id="path16"/>
    <path class="st0" d="M334.3 100.3c.1 7.8 4.9 13.6 13.1 13.6 4 0 7.5-1.2 10.4-2.8l2.4 5.3a26.7 26.7 0 0 1-13.6 3.7c-13.8 0-20.1-10.1-20.1-22 0-12.7 6.9-21.5 17.6-21.5 10.9 0 17.1 8.4 17.1 21.6v1.9zm18.8-5.9c-.1-5.8-2.9-11.6-9.1-11.6-6 0-9.6 5.3-9.6 11.6z" id="path18"/>
  </g>
  <g id="g6345" transform="matrix(1.04047 0 0 1 -16.3 -3.6)">
    <path id="CHL2691" d="M321.2 8c-.9.3-.6.6-.8 1.4-.3.7-1.5.2-1 1-.2 1.3.4 2.4.4 3.7-.2 1-.2 1.9.1 2.8 0 1.3-.5 2.7-.5 4-.2.8-.7 0-.6.7-.1.7-.2.9.4.8a13 13 0 0 0-.4 3.2c.3.7.5 1.5-.2 1.8-.3.6 0 1 0 1.7-.1.6-.1 1.7-.5 2.3-.4.1.2 1.4-.4 1.5-.4 1-.2 2.2-1 3-.2.6.5 1 .4 1.8 0 .4.1 1-.2 1.1.2.4-.3.8-.5.6-.5 1.8.4 3.6.3 5.2.4.8 0 1.4-.2 2.1-.9.3.5 1.7-.5 2.1-.6 1-.3 2-.9 3 .1 1-1.3 1.5-.8 2.4-.8.5-.5 1.8-1 2.3.2.8-.2.7-.3.3-.1.2 0 1.9-.7 1.5-.9-.4 0 .8-.5 1.2.5.7.5 1.6.3 2.4l.6 1.7c.2.5.2 1 0 1.6-.5.1 0 1.1-.4.7-.5.2-.6.4-.5.8-.3.8-.1 1.5-.5 2.2-.1.4 0 1.6.3 2 .5.2.8-.1.2.3-.4.7 1 .5 1.3.3 0-.4.2-1 .8-.6.3 1.2 1-.1 1-.5.1.8-.3 1-1 1.2-.8.6.4 1 .6.6v1.5c.4-1.2-1.4-.8-.5-.2.3.5.5.5-.2.3-.5.5.3 1.4 0 1.8-.5-.7-.1 2-.7 1-.1.6.7.5.1 1 .4.3.6-.4.5.3-.5-.5-.6.5-.7.8-.3-.2-.4.6 0 .2-.4.5.7.5.8 1 .3.5.5-1 .4.1-.3.5-.2 1-1 1.3-.4.3-1 .2-.6.8-.6.3 0 .5.3.4.2.4 1.3.5.4.5-.4-.5-.8-.4-.9 0-.4-.3-.6 1.9 0 .7 1 0 0 0-.3.6-.2.3-.2 1-.3 1.6.2-.5 1.1-1.5.4-.6 0 .7-.3.4-.6 1.1.3 0-.8.7-.3 0 .8-.4-.2-1.6-.2-.9.7.6-.5.4-.1 0-.8.3-1.4-.1-.4 0 .9 0 .3-1.3.2-.3-.2-.2.2-.6 0-.7 0-.3-1.2-.3-.7-.3v.4c-.3-.3-.6-.6-.7.2 0 .1-.2.5-.1.7-.5-.4-.2.4-.7 0-.1.5.3.5-.2.3 0 .3-.5.3-.6.7-.6 0-.8 1.3 0 1.4.6-.3-.2-.5 0-.7-.7.3-.3-.1.1-.3.5.2 1-.6 1-.5-.5.3 0 1.2.4 1 .2.6 1.2.1.3.2.6-.5.2-.3.5-.3s.7.3.5.4c.4.4.6.5.5 1.1.1-.1-.5-.2-.3.4 0-1-.9 0-.8.4.2-.3 0 .7.7.4.2-.4.3.4 0 .1-.3.1 0 .7-.4.3-.5 0 .3-.3-.3-.5-.1.1-.4 0-.2.5-.4-.4-.5.4 0 .3.5-.1.6 0 1.2.2 1 .2.5-1.6.8-.8-.3.6.4 1.2.3 1-.1.2 1.3.4.3.3-.4-.3-.7-.4-.4.1.1.8 1 0 .7.4-.2.1-.8.5-.7 0-.3-.3-.5 0-.4-.4-.3.4-.2-.1-.6 0-.9-.5-.5.3-.4.7 0-.4-.8-1.4-.9-.5.5-.4.1.5.7.6 0 .5.8 0 .2.3.5.3.9 0 .4.6.3.6-.5-.6-.7 0-.4.7.5.6.6.7-.6-.2-1 .3-.7.7-.3.4.1.9 0 1.6.5 1 .6-.4.5-.7.2 0 .5-1.1.7-.5-.7-.3 0 1.2-.1 1-.5-.9-.8 1 0 .6 0 .4.8 1.2.2.6-.4-.6-.5-.3-.5-.5-.8-.2-.8 1 0 .7-1 0-.6.7 0 .8.7-.7-.2.2.2.2.4.3-.7-.2-.9-.4-.1.7.7 1 .8 1.2.5.2-.7-.1-.7-.3 0-.6-.5 0-.6-.3-.6.6.4.4.2.8.2.4.7-.6.4.2.1.4.9-.4.4.2.3.1.8.7 0 .2.3 2.6.2.3-.3 0 .1.4.2.9.4.9 0 .8.9 0 .7-.6.2-.6.7-.6 0 0 .5.2.8.6.2.3-.5.1.1.8-.4.6.6 1-.6-.4-.9.4 0 .8.8-.4.2.5.1 1 .4-.2.4.4.4.5.6-.7.7 0 .2.6-.4-.2-.1.3.1.8.3.6.2 1.3 0-.6-.9-1.3-.6-.4.3 0-.2.6.4.4-.4.6.3.3.3.3.5-.3-.2.3.3.7.4 1.2-.7-1-.3 0-.3.4 1 1.5.6.4-.1-1.2-.1-1.6.1-.2.2 1.2.2-.4.8-.4-.6-.1-.6.5-.3-.3l-.4-.4c-.3-.5.3.3.6.3 0 .2 1.2.5.8 0-.2-.6-1.2-.7-1-.7 0-.3-1 0 0-.5.2.7 1.5.7 1.3 1.7.2.5-.9 0-.2.8.6.5-.4 1.3 0 1.3-.3-.4-1.2.3-.5-.2.3 0 .8-.8.4-1-.2-.6-.6-.7-.7-.3-.2 1 .3.4.4.2-.2.5-.3.7-.6.4-.4.4.5-1-.3-.3-.1.4-.9.1-.8.1-.1.5-.7-1.1-.4 0 .4.3.2.8 0 1 .7 0 0 .3.2.5-.5.3.3.3-.2.6.2.2.7-.3.7-.6.1.4.4.5.4-.2-.3-.3.4 0 .7 0-1-.3 0 .4-.6.2 0 .4-.6.6-.2.9-.5 0-1-.2-.2.3.6 0 0 .3-.2.4-.2.3.8.5.6.2.2.6.7-.5.3-.8.4 0 1.1-1 .3-.8-.4 1.1 0-.8.2-.2.4 0 1.3-.4.6 0 .3.9.5-.8 1 0 .9-.3 2 .5.5.5-.5-.5-1.1.3-1.4.6-.1-.4-.5-.3-.5 0 .7-.9-.9-.2-.5.2.1.5-.1.6.2.9.6-.3.2.1.1.2.4.6 0 .2-.3-.1-1.3-.2-.5.4.2.8l.7.6c.9 0-.3-1.2-.3-.9.2.5 0-.3.4-.3-.1-.2.5-.3.4-.2.6.2-1-.1-.6-.3.7 0 .6-.4 1 .2.5-.5 1.4-1 1.6-1.4.2 0 1 .4.3 1-.4.6-1.4.6-1 1.6-.5.6-1 .3-.2 0 .3-.8-.6-1.4-.4-.3-.6.3-.5.1-.2-.1-.4-1.2-1.3.6-.3 1 .5.5.6 0 1.1.7.9.6 2 .1 1.8-1-.4-.9.4-2 .2-2.5.5-.4-.4-.6.3-.6.2.3.5-.5.4 0 .6-.3 1-.7 1.6-.8 1 .4.5-1.6 1.6-1 .5.6 2.3.4.8 0-2.2-1-4.7-.9-7.1-.9 0-.9-1.6-1.2-1-2 .5-.6-.5-1.1.2-1.5 0-.7 0-2-1-1.3-.5-.3-1.2 1-1.3-.3.4-1-.8-1.3-.5-2-.2-.5.2-1.1-.2-1.6.1-.7.5-.9 1.1-1-.5-.5 1.5-1.9 1-1.5 0-.7.2-1.4.8-1.7.2-1-1-1.3-.2-2.2.2-.5 0-.8.6-1 0-.7.7-.3.5-.9-.2-.1-.3-1 .2-1 .6-.5 0-1.7-.2-2.1 1-.3.2-1 .3-1.5-.2-.7.8-.3.6-.9 1-.3-.2-1.6-.8-1.5-.8 0-.5-.7.2-.6.6 0 1.3.4 1.3-.5.7-.8-1.7-.4-1.4-.8-.3-.6.5-1 .2-1.5-.5-.3.4-.7-.3-1-.2-.2-.3-.7.2-.8 0-.7-1.4-.6-.8-1.7-.1-.6.3-1 0-1.5.2-.5 1.1 0 .8-.9-.6-1 0-2.2-.3-3.3-.3-.6.6-1.2.4-1.6-.4-.1-.2-.8.1-.7.3-.4-.6-1.7.4-1.3l.3-2.1c.6-.3 1.7-.6.9-1.4 0-1-.6-1.9-.4-2.8-.3-.4.3-1 0-1.3 0-.1-.2-.9.2-.8-.2-1 1-.5.8-1.2.3-.3 1-.5.6-1 .1-.5.2-1.5-.3-1.8.8-.5.4-1.7 1.2-2.4-.1-.5.7-.1.4-.7-.2-.8 0-1.5.1-2.2-.4 0-1-.5-.5-.9 0-.4-.4-.9-.3-1.4-.3-.3-.7-1-.2-1.3-.4-.3-.9-1-.7-1.7 0-.7.4-.4.7-.8-.5-.5.3-1.3.3-1.7.5.4.8-.8.3-.8.4-.9-.6-2 .4-2.6 0-.9.4-2 1-2.4.6-.7.8-1.7 1.3-2.5.6.2 1.7-.5.7-1.2-.7-.8.7-1.4 0-2.4-.5-.5 0-1.3.2-1.6-.3-.3-.5-1-.1-1.2.7-1 3-.8 2.9-2.7 1-1.6-.5-1.5-1.5-1.6-.3-.6 0-1.6-.6-2.1-.2-1-.2-2.2-1.1-2.6.5-.8-.7-.9-.3-1.5-.5-.6.8-.5.2-1-.6-.5 1.1-1.1-.1-1.4-1-.6-.8-1.8-1-2.7.1-.4-.8-.3-.7-1-.1 0-.3-.3-.2-.5zm-9 49.6c-.2.4.3.3 0 0zm-1 3.8c0 .5.4.3 0 0zm2 10c-.3.5.4.8 0 0zm-2.2.2c.2.8-.6 1.8-.2 2.7 0 .8-.5 1.2-.6 1.9.5.3 1 .4 1.3.4.5 0 0-.5.2-1 .7.3.4-.6.3-.3-.5-.4 0-.2.2-.5-.4-.2-1-1-.6-1 .6.5-.2-.7.6-.5.6-.2 0-.6 0-1-.2-.3.1-.8-.6-.5 0 .4-1 0-.3-.1 0-.1-.1.1-.3-.1zm3.3.8c-.4.4.5.3 0 0zm-1.2.6c-.5 0 .2.5 0 0zm-1.2.4c0 .4 1 .9.2 0h-.2zm0 .6c-.8.1.3.4 0 0zm.7.2c0 .2.4 0 0 0zm.7.2c0 .6.5.3 0 0zm-1.3.7c.8.5 0 0 0 0zm0 .7c-.2.3.4.1 0 0zm-.3.1c0 .4.4 0 0 0zm-1.2.5c-.2.3.1.3 0 0zm-1 .6c-.7.3.4.7.2.1l-.3-.1zm1.9.7c-.2.2-1.1.2-.4.5.4.1.1-.5.4 0 .4 0 0-.4 0-.5zm1.5.4c-.7.4.5.6 0 0zm-1.2.1c-.2.4.5 1 .2.2-.1 0-.2 0-.2-.2zm-1.3.3c-.1.1.5 0 0 0zm.9.3c0 .7 0 0 0 0zm-.9.1c-.5 0 .3.3 0 0zm.5 0c-.2.1 0 .9.2.3.6 0-.2 0-.2-.3zm.9.3c-.4.1.2.3 0 0zm-1.5 0c-.5.2.6.3 0 0zm1.2 0c-.9.1.2.6 0 0zm1.3.2c-.5.3.6.3 0 0zm-2 0c0 .7 1 .3 0 0zm1 .1c-.5.2.2.5 0 0zm1.5 0c-.2.6-.1 0-.6.4.7.5-.2 0 .1.5-.6-.5-.6.8 0 .5-.3-.1-.5.5.1.5.6-.4.8-.8.7-1 1-.5.2-1-.2-.7zm-2 .1c-.2.5.6.3 0 0zm-1 0c-.5 0-.4.8 0 .4.3 0 .4-.2 0-.3zm.4.2c-.1.6 1 .3.1 0zm-.1.2c-1.2.2.7.5 0 0zm1.2.1c-.8.1.2 1 0 .5V80zm-2.5 0c-.3.8.4.4 0 0zm1.2.2c-.5.1-.3.5 0 .7.8-.3 1.4-.7 0-.7zm-.8.1c-.4.4.9.2.1 0zm.3.3c-.4.4.7.6.2.1 0 0-.1-.1-.2 0zm1.9 0c-.8.3.3.7 0 0zm-3.4.2c-.4.7.8.5 0 0zm2.8 0v.5c.5.4.2-.5 0-.5zm-.2 0c-1.1 0 .4.5 0 0zm-.4.3c-.9.5.5 0 .3.3.6.1 0-.4-.3-.3zm.6.4c-.4 0-1.1.5-.5.5.2.1 1.2.8.9-.2-.1-.1-.1-.3-.4-.3zm-1.1.5c-.3.9.7.2 0 0zm.7.2c-.8.4 1.2.7.5.1-.3.2-.4 0-.5-.1zm-.8.2c-.7.1.7.7.1 0zm1.1.3c-.7.3 1 0 0 0zm-1.2.1c-.5.5 0 .9 0 0zm1 0c-.4.8-.1.2.4.5.3-.5-.2-.2-.5-.4zm.8.1c-.5.2-.1 1.4.1.8-.3 0 .5-.6 0-.8zm-1.6 0c-.3.3-.3 1.5.1.8.3.1.4-.6-.1-.8zm.8.3c-.8.7 1 .8 0 0zm-1.2.1c-.9.7.4.9 0 0zm-.7.1c-.2.5.8.4 0 0zm1.9.5c-.3.5.3.5.2 0h-.2zm.7.2c-.7.1-.4.9-.1.2.2.1.2 0 0-.2zm-2.5 0c-.3.2-.5.2-.3.3-.8-.2.3.5.1.4-1 .3.7.3.5-.6 0-.3-.2 0-.3-.1zm2.4.3c-.5.6.5.5 0 0zm-.2.4c-.5.5.7.7.2 0 0 .1-.1-.1-.2 0zm-3 2.1c-.9.1.7.6 0 0zm2.3 1.1c-.5.8.8.3.2 0-.2.3 0 0-.2 0zm-.4.1c-.9.4.2.7 0 0zm-1.5 2.1c-.4.5.9.4 0 0zm-.2 0c-1 .3-.3 1-.3.6 1-.2.1 0 .3-.5zm1 .4c-.4.8.8.1 0 0zm1 0c.1.3-1 .2-.3.6a5 5 0 0 1 1.2 0c.2-.5-.8-.2-1-.5zm-1.4 0c-.2.2-1.4.7-.8.8.3-.3 1.4.7.8 0 0-.1.3-.7 0-.7zm-1.2.7c-.3 0-.7.5-.3.8 0 0-.1.4.2.3.3-.1-.7.5 0 .3.5-.5.1.8.4.9.5.2.3-.9.1-1l-.4-1.3zm.3.3c.2.4.1 1 .5 1.2.9-.4.2-1.4-.4-1.2zm1.5.1c-.2.6.1.2.1.8.6-.2.2-.5 0-.8zm-.4 0c-.3.4.3 1.8-.2 1-1 .3-.1.8.4 1 .7 0 .1-.7.1-.6a3 3 0 0 0-.3-1.3zm1 .6c-.8.1.3.9 0 .3v-.3zm.2.3c.5.7 0 0 0 0zm-.6 0c-.3.6 1 .5 0 0zm-2 .2c-.3 0-1 0-.5.7.3-.2-.4.3 0 .2.7.2.6-1 .4-1zm0 .6c-.4.2-1 .8-.2.4.1-.1.5 0 .3-.3zm.6 0c-.7.5.1 1 .1.2v-.1zm.2 0c-.3.7.8.2.2.1h-.1zm.6.2c0 .2-.6.2-.5.5-.4.1.3 0 0 .4.3.3.2 0 .3.6-.1.3 0 1.4-.5.4.2.2-.6.2 0 .5-.5-.4-.8-.4-.3.2.2.7-.8-1.2-.5-.1.2.4.4.3.3.8.1.3.6 1.4.6.6 0-.1-.2-.3 0-.5 0-.4 0-.7.2-.5.4-.1.1-.5.6-.5-.1.1 0 .4-.3.4-.6.4.5.4 0 .5-.4 0-.3.7-.2.5.3 0 .6.4.3.3-.6.1-.3.4.1.2 0 0-.6.3-.1.5.2 0 .4-.4.4-.4.3-.1 0-.4.3-.4-.4-.4.3-.2-.1-.7-.5.6 0 0-.1-.4.4-.8 0-1.9 0-2.2.1-1.3-.4.3-.2-.2 0-.4 0-.4-.3-.5zm-1.3.4c0 .4.4.2.5.5 0 0 .1-.4-.5-.5zm-.2.1c-.4.6 0-.2-.5.2-.3.7.6 0 .3.5.3-.3.4-.3.6.2.1-.5-.4-.3-.4-.6v-.3zm.1.6c-.2.5-.6.4-.6.8.4.5.4-.6.6-.2.3-.1 0-.4 0-.6zm.5.1c-.3.6 0 .2.3.7.5.3.2-.9-.2-.7zm-.9 1.2c-.1.3.4.7.2.1h-.2zm2.5.2c-.3.7.6.8 0 0zm-2.4.5c-.4.2.2.5-.3.7.1.7.8-.8.7.4.1-.3.5.3.2-.4-.2-.3-.3-.7-.6-.7zm.4 1.5c-.6.4 1 .6.2.9-.5 0 .2-.5-.4-.3 0 .4-.1.8.3.5.3 0 .4.7 0 .4.3-.5 1-.6 1-1-.1 0-.8.3-.3-.2-.3.3-.4-.4-.7-.2l-.1-.1zm.9 1c-1.3.8 0 1 0 0zm.5.3c-.6.6.4.4.3 0h-.3zm.3.2c-.7.3.8.2 0 .6 0 .4.5 1 .7.7.5.3-.3-.6-.3-.5.6.3-.7-.8-.3-.8zm-1.9.1c-.2.3.3.5-.2.7.3.1 0 .5.4.4.4 0-.3-1 .3-.7.5-.5 0 0-.5-.4zm1.7.2c-.2.5.5 0 0 0zm-.9.5s-.1.6.1.5c.2-.4 0-.5 0-.5zm.5 0c-.2.2.1.8-.1.6-.5.3 1 0 .4.1-.2-.2 0-.4-.3-.7zm.4.3c.2.4-.2 1 0 .7-.5-.5-1 .2-.4.1-.3.9.5-.3.2.4 0 .3.7-.7.8 0 0-.3.1-1.1-.6-1.2zm.7.7c0 .2.3 1.7.3.7-.1-.2-.1-.5-.3-.7zm-.3.3c-.9.5.7.9 0 .3-.4-.1.3-.1 0-.3zm-1 .3c-.6.4.6.2 0 0zm.5.3c-.6.3-.6.7-.3.6-1 .6.5.5.2-.2 0 0 .5.7.4 0-.3 0 .4-.3-.3-.4zm2 .2c-.3.2-.2.4 0 .4.1-.1.2-.3 0-.4zm-3 0a6 6 0 0 0-.4 1.4c.5 0 .3-.8.5-.6.3-.1.2-.7 0-.5-.2.4 0-.2-.1-.2zm2.2.2c-.7.1.6 1.1 0 0zm-.5.1c-.3.6.6.3 0 0zm-1.2.5c-.4.4.3.4 0 0zm1.9.3c0 .4-.8.6.2 1 .2-.2 0-.8-.2-1zm-1.5 0c-.1.1.3.1 0 0zm.8 0c-.3.3.3.2 0 0zm-.4.2c-.1.1.3.2 0 0zm-.7 0c-.2.2.3 1-.1 1-.1-.2 0 .8-.2.6 0 .4.1.3.3-.3.2-.4.4-1 0-1.2zm2.1.2c.1.7.6.6.2.1l-.2-.1zm-1.2.2c0 .3.6 1.3.9.6-.2.1-.5-.5-1-.6zm-1.2 0c-.7 1 .3.8 0 0zm2.5.3c-.4.3.7 1.2.4.3 0-.5-.2.3-.4-.3zm-1.9.1c-.2.4-.2.8-.2 1 .4-.3.3-.6.5-1-.2.2-.3.2-.3 0zm1.6.3c-.4.4.4.6.8 1.2 0-.5-.5-.9-.8-1.2zm-1.1 0c-.6.5-.4 1 0 .2v-.1zm.3.5c0 .3.3 0 0 0zm-.5 0c-.9.5-.1.9 0 0zm.7.2c-.7.3.6.2.2.4.4.1-.4.4.2.7.8-.3.1-.7-.4-1.1zm.6.2c-.2.4.6.6.5.9.4-.2-.3-.8-.5-1zm-1.9.1c0 .5.5 1 .7.6.3-.9-.5-.2-.7-.6zm.8.5c-.2.5.4.8 0 0zm1.7.3c-.7.1-.4.4-1 1 .5.2.9-.7.6 0 .3.6.4-.4.6-.6 0-.1 0-.3-.2-.4zm-1.8.2c-.2.2.5.3 0 0zm11.6 0c-.7.3-.3 1.5-1.3 1.5-.7-.9-1.1-.2-.6.2.8-.6-.2 1.3-.1.3-.4.2-.6 1.5 0 1.8.6 0 2.2-1.1 2.2.1-.6.8-2.6.6-1.7 2 .3 1 2.1.9 2.4 1.8-.6-.3-.2.5-.6.3-.4.9-.3 0 .1-.4-.6-.8-.8-.4-.8-.2-.3-.7-.9-.4-.4.1.2.5-.2-.2-.1.2-.3 0-.2-.9-.7-.9-.3.4.4.9-.4.4-.6-.5-1.6-1.1-1.3-.6.6.2.8.7 1.4 1.1.3.3 0 .4-.6-.2-.6-.5 0 1.2-.5.5-.4.3.7-1.3 0-.8-.6-.5-.3.8-.9.4.5.4-1-.8-.4 0-.3 0-.6-.3-.6 0 .6.6-.7-.7-.5 0 .3.1 1 .7 0 .3-.4-.5-.4-.2-.4.1.5-.2-.2.6.4.3.3-.4.3.3.5-.2 0 .5.2-.2.2.3l.3-.4c0-.4.6.3.2.4.5.3.4-.4.7-.2-.2.7-.2.6.2.3.2 0-.2.4.5.1.9-.7-.2.8-.3.5.3-.5 1 .3 1-.4.4-.7-.2 1 .5.2 0 0 .4.4.3-.4-.1 1 .6.1.5.2.1.5.3-.6.3.1-.2.5 1.7 1 2 .5-1.1-1 .7.4.1-.4.3-1.8 0-4.4.2-6.5 0-.8.1-2.6-1-1.6-.4.4-.5-.6-.8-.8zm-11.3.2c-.4.4.6.8 0 0zm2.5.7c-.2 0-.1.3 0 0zm-3 .1c-.3.3.3.6.3 1 .4 0 .5.7.7.2.4.5.5-.2 1 .3 0 .2.4.2.5.6-.2.3.2 0 .5.3.8.2.2-.3 0-.4 0-.4-.5-.5-.4 0 0-.4-.3-1-.3-.4-.5-.5-.6-.5-.9-.6-.2-.2-.3 0-.7-.1-.1-.4-.4-.6-.8-.9zm2.4.4c0 .1-1 .4-.1.2.4-.2.4.6.6 0-.2-.1-.4 0-.5-.2zm6.7 0c-.8.3 0 .5 0 0zm-7.8 1.5c-1 .6.3.4 0 0zm2.3.6c-.6.1.3.8-.5.4-.7-.4.2 1 .6.4.4.3-.4.5-.8 0-.5-.2-.8.3-.3.4-.4.5.9-.4.6.4-.3.2 0 .5-.2.6.8.5.4-.1.6-.6.2.5.8-.2.7.3.4-.2-.3.4-.3.5.2.3-.5.2 0 .4.2.3.5-.7.8 0 0-1 .3 0 .5-.5-.5-.2-.1-.8-.1-.6.6.4.3-.6-.1-.5-.4.4.3-.7-.4-.4-.4-.7-.1.9-.3 0-.3-.6-.4-.6-.3 0-.2.7 0-.4-.2-.4 0-.8-.2.4-.2-.3zm-1.2 0c.2.5 0 .4-.5.2.4.4 1.1.7.7.1 1-.2-.7-.4-.2-.3zm-.6.2c-.1.5.1.7.3.3-.2 0-.2-.2-.3-.3zm7.5.5c-.5.4-.4.8-.3 1-1.1-.4-.2 1.8.3 1.4 0-.5-.7-1.5.2-.5.3-.4-.2-1.2 0-2h-.1zm-3.2 1c-.2.3-.1.8-.6.4 0 .7.2.5.3.6-.3.2.6.3.2.9.5.2.2-.3.5-.4-.5-.3-.5-1.4 0-.3.6-.2-.1-.3.1-.6-.1.3.2-.8-.2 0-.1 0 0-.5-.3-.5zm.8.4c0 .4-.2.7-.1 1.1.3-.4 0 .5.3-.2.3-.5.1.1.3.3 0-.2.2 0 .3 0-.3 0-.2.5.1.3.4.5 0-.4.3 0 .1-.2.2-.7 0-.6.2-.9-.4.2-.3-.3-.1 1-.3-1.3-.5-.1-.2-1 0 0-.4-.5zm-4 .3c-.4.3.2.3.4.4 0-.3-.1-.2-.4-.4zm6.9.1c-1.2 0 .3.9 0 0zm-4.5 0c-.3.4.2.3-.5.6.2.6 1-.2.5-.5zm4 .4c-.1.7 1.3.3.3.2l-.1-.2zm-4.3.6c-.5.2.2-.2.1.2.5 0 0-.2 0-.2zm-1.2.6c-.7.1.2.3 0 0zm2 .7c-.2.1.3.1.2.5.3-.2 0-.4-.1-.5zm1.6.7c-.4.4.1.3 0 .5.2-.6.6-.1.7 0 .8-.2-.3-.4-.7-.5zm1.7 0c-1.2.5 1.5.2 0 0zm2 .2c0 .2 0 .5-.3 0-.2.3-.2 1-.1.7l1.7-.4c-.7-.3-.7.2-1.2-.3zm-1.4.1c-.6.2-.6.3-1 .2 0 0-.7-.1-.3.2-.5.3.5.3.4.4 0 .3.6-.5.4.1 0 .5.9.1.5.2-.6-.6.4 0 0-.4.2-.2-.6-.2-.5-.2-1.2 0 .8-.2.5-.5zm5.4 0c-1 0-1 .2-.5.6-.2.7.4.8.6.5.3.4.3.5 1 0 0 .7 1 .6 1-.3-.3-1-1.4-.5-2-.8zm-1.3.1c-.8.3-1.4.3-2 .4.3.3-.5-.3-.3.5.2-.6-1.2-.4-1 0 .6 0-.1.7.7.3.9-.4-.4.1.3.2-1 0 .1.4.1.3 0 0 .1.9.4.2 0 .7.8.1 0 .1.4-.5-.3-.3-.3-.8.9.2-.1-.4.3-.3.3-.2.5.9.5 0-.1 1 .9-.2.6.4-.5.8.2.8.2.5-1 0 .2 1-.1.2.5.3.3-.3.8.3.5-.2 1 .5.7.5.2.7.5-.2 0-.5 0-.1-.7-.5-.4-.5 0-.3-.7 0-.7-.2-.7-.6.7.3.9-.3-.1-.4-1.7-.1-1.9-1 .2.4 1.3 1 1 .3.4.3.6-.4.6-.3-.1-.1-.2-.3-.4-.3zm3.3.3c0 .6 1 .3 0 0zm1.2.7c-1 .7.7.3 0 0zm-1 .2c-.7.8 1 .2 0 0zm-7 .2c0 .6 0 .3.2.1h-.2zm.6.2c0 .6.8 0 0 0zm4.8.7c-.2.3 0 .7.2.1l-.2-.1zm.7.3c-.2.5 0 .3-.5.6.4.2 1 .3.5-.2.2-.1 0-.3 0-.4zm.4.7c-.4.3.3.1 0 0zm-.9.2c.2.2-1.2 0-.5.4.2-.4.4 0 .5 0 .2-.1.5-.4 0-.4zm1.1 0c-.4.3.3.8 0 0zm-.6 0c-.1.4.8.3 0 0z" stroke-width=".1"/>
    <path id="path5880" d="M311.2 116h-.1c-.1 0-.1 0 0 0 0 0 0 .2 0 0z" stroke-width=".9"/>
    <path id="path5876" d="M311 116c0 .2 0 .2 0 0z" stroke-width=".9"/>
    <path id="path5870" d="M310.7 116s0 .2 0 0c.1.2.2.2 0 0 .1.2 0 .2 0 0z" stroke-width=".9"/>
    <path id="path5856" d="M311 116.3h-.4l-.4.2h-.1l-.1.2h-.1v.4h-.2c0 .3 0 .2 0 0 0-.1-.1-.1-.2 0h-.1c0 .2 0 .2-.3.2-.2 0 0 0 0 0 0 .2-.1.2 0 .2s.1 0 0 0c-.2 0-.1.2 0 .2s.3 0 .1.2h.1s0 .2 0 0h-.2v-.1h-.1v.2l-.5-.1h-.4l1.5 3.4 1-2.5-.4-.5c.2-.1 0-.2.2-.3v-.5c0-.2.2-.4.2-.3v-.5l.2-.3.1-.1.2-.1v.1z" stroke-width=".9"/>
    <path id="path5850" d="M310.3 116.5c.1 0 .1 0 0 0z" stroke-width=".9"/>
    <path id="path5834" d="M309.8 116.9c.1 0 .1 0 0 0z" stroke-width=".9"/>
    <path class="st0" d="M236.8 30.3l-.4.8.1.3.3-.2c.2-.1.3-.3.7-.2l.4-.3-.4-.1-.7-.3z" id="path56"/>
    <path class="st0" d="M285.2 36l-.2.3c-.2 0-.3.2-.4.3l-.1.2.4-.2.4-.2.4.2h.5c.1-.1-.1-.3-.2-.3-.1.1-.3 0-.2-.2l-.6-.1c.1 0 0 0 0 0z" id="path58"/>
    <path class="st0" d="M284.5 36.9c-.1.1 0 .2.1.1l-.1-.1z" id="path60"/>
    <path class="st0" d="M283.5 37l-.3.3c0 .2 0 .4.2.5.1.1.3.1.3-.1v-.3l-.1-.2-.1-.2z" id="path62"/>
  </g>
  <g id="g76" transform="translate(-25.9 -11.6)">
    <g id="g74" transform="translate(14.4 -4.3)">
      <path class="st0" d="M357.2 145.3c0 3.6-2.8 6.3-6.2 6.3a5.8 5.8 0 0 1-5.2-3v2.8h-1.2v-16.8h1.2v7.6c1-1.8 2.8-3 5.2-3a6 6 0 0 1 6.2 6.1zm-1.2 0a5 5 0 0 0-5.1-5.1 5 5 0 0 0-5.1 5.1 5 5 0 0 0 5.1 5.1 5 5 0 0 0 5.1-5.1z" id="path66"/>
      <path class="st0" d="M372.6 145.4v.6h-10.9a5 5 0 0 0 5.1 4.5c2 0 3.5-.9 4.1-2.2l1.1.6a6 6 0 0 1-5.2 2.7 6 6 0 0 1-6.3-6.3 6 6 0 0 1 6.2-6.3c3.7.1 5.9 3.1 5.9 6.4zm-10.8-.6h9.6c-.3-2.9-2.3-4.6-4.7-4.6a4.8 4.8 0 0 0-4.9 4.6z" id="path68"/>
      <path class="st0" d="M378.9 140.5v7.8c0 2.1 1.1 2.2 3.6 1.9v1.1c-3.1.5-4.8-.3-4.8-3v-7.8H375v-1.2h2.6v-3l1.2-.4v3.4h3.6v1.2z" id="path70"/>
      <path class="st0" d="M397.6 139.3v12h-1.2v-2.7c-1 1.8-2.9 3-5.2 3a6.2 6.2 0 0 1-6.2-6.3c0-3.5 2.8-6.3 6.2-6.3 2.3 0 4.2 1.2 5.2 3v-2.7zm-1.2 6a5 5 0 0 0-5.1-5.1 5 5 0 0 0-5.1 5.1 5 5 0 0 0 5.1 5.1 5 5 0 0 0 5.1-5.1z" id="path72"/>
    </g>
  </g>
  </g>
</svg>