<?xml version="1.0" encoding="UTF-8" standalone="no"?>
<svg xmlns="http://www.w3.org/2000/svg" width="200" height="120">
  <path fill="#fff" fill-rule="evenodd" d="M87.85 59.4466l-6.8-14.7-6.8 14.7zm-19 7.6l11-23.5c.2-.6.6-1 1.2-1h.1c.7 0 1 .4 1.3 1l11 23.5v.5c0 .5-.3 1-.8 1s-.8-.4-1-.8l-3-6.6h-15.2l-3 6.6c-.2.5-.5.7-1 .7a.9.9 0 0 1-.8-.8l.1-.6zm29-1.9a1 1 0 0 1-.4-.8 1 1 0 0 1 1.6-.7 12 12 0 0 0 8.7 3.3c3.8 0 6.5-2.1 6.5-5v-.1c0-2.7-1.4-4.3-7.3-5.4-6.2-1.3-8.7-3.3-8.7-7.2 0-3.9 3.5-6.8 8.3-6.8 3.5 0 5.9 1 8.2 2.7.2.1.4.4.4.7a1 1 0 0 1-1.6.7 11 11 0 0 0-7-2.4c-3.9 0-6.4 2.2-6.4 4.9s1.4 4.4 7.5 5.6c6 1.2 8.5 3.3 8.5 7 0 4.2-3.6 7-8.5 7-3.9 0-6.9-1.2-9.8-3.5m24.6 2.2v-23.6c0-.5.4-.9 1-.9h16.6c.4 0 .9.4.9.9s-.5.8-1 .8h-15.6v10h14c.5 0 .9.5.9 1 0 .4-.4.8-.9.8h-14v10.2h15.9c.4 0 .8.4.8.9s-.4.9-.8.9h-16.9a1 1 0 0 1-1-1m23.6-11.7c0-7.3 5.4-13.2 12.9-13.2 4.2 0 7 1.4 9.4 3.5.2.2.4.5.4.8 0 .5-.5 1-1 1a1 1 0 0 1-.7-.3c-2.1-2-4.6-3.3-8.2-3.3-6.2 0-10.8 5-10.8 11.4 0 6.5 4.7 11.5 10.9 11.5 3.5 0 6-1.2 8.3-3.5.2-.2.4-.3.7-.3.5 0 1 .4 1 .9 0 .3-.2.5-.4.6-2.6 2.4-5.4 4-9.7 4-7.4 0-12.8-5.8-12.8-13m28.3-12.1c0-.5.4-1 1-1 .4 0 .9.5.9 1v11h16.4v-11c0-.5.4-1 1-1 .4 0 .9.5.9 1v23.9c0 .5-.5 1-1 1a1 1 0 0 1-1-1v-11.2h-16.4v11.2c0 .5-.5 1-1 1a1 1 0 0 1-1-1v-23.9zm-102.7 32.5l-1.1-2.2-1 2.2h2zm-3 1.2l1.7-3.6c0-.1 0-.2.2-.2.1 0 .2 0 .2.2l1.7 3.6-.1.2-.2-.1-.4-1h-2.4l-.4 1h-.3zm4.3-.3v-.1a.1414.1414 0 0 1 .2-.2c.4.4.8.6 1.4.6.5 0 1-.4 1-.8s-.3-.7-1.2-.9c-1-.1-1.3-.5-1.3-1 0-.6.5-1 1.3-1 .5 0 .9 0 1.2.3v.3h-.2c-.3-.3-.6-.4-1-.4-.6 0-1 .3-1 .7 0 .4.2.7 1.1.9 1 .2 1.3.5 1.3 1 0 .7-.5 1.1-1.3 1.1-.6 0-1-.2-1.5-.5m7.2-1.5c0-1-.7-1.7-1.7-1.7s-1.7.7-1.7 1.7.7 1.8 1.7 1.8 1.7-.8 1.7-1.8m-3.7 0c0-1 .8-2 2-2s2 1 2 2-.8 2-2 2a2 2 0 0 1-2-2m4.7 0c0-1 .8-2 2-2 .6 0 1 .2 1.4.5v.2l-.1.1h-.1c-.3-.3-.7-.5-1.3-.5-1 0-1.6.7-1.6 1.7s.7 1.8 1.6 1.8c.6 0 1-.2 1.3-.6h.1l.2.1v.1a2 2 0 0 1-1.6.6 2 2 0 0 1-2-2m4.3-1.8s0-.2.2-.2l.1.2v3.6l-.1.2c-.1 0-.2 0-.2-.2zm4.1 2.4l-1-2.2-1.1 2.2h2zm-3 1.2l1.7-3.6.2-.2c.1 0 .2 0 .2.2l1.7 3.6-.1.2-.2-.1-.4-1h-2.3l-.5 1h-.3zm4.2-1.8c0-1 .8-2 2-2 .6 0 1 .2 1.4.5v.3h-.2c-.3-.3-.7-.5-1.2-.5-1 0-1.7.7-1.7 1.7s.7 1.8 1.7 1.8c.5 0 .9-.2 1.3-.6l.2.1v.1a2 2 0 0 1-1.5.6 2 2 0 0 1-2-2m4.3-1.8l.1-.2.1.2v3.6l-.1.2-.1-.2zm3.1-.6l.3-.6h.4v.2l-.5.4h-.2m1.7 2.4c0-1-.7-1.7-1.7-1.7s-1.6.7-1.6 1.7.7 1.8 1.6 1.8c1 0 1.7-.8 1.7-1.8m-3.6 0c0-1 .8-2 2-2 1.1 0 2 1 2 2s-.9 2-2 2a2 2 0 0 1-2-2m4.8-1.8l.1-.1h.2l2.7 3.4v-3.3l.1-.2.2.2v3.7h-.3l-2.7-3.4v3.3c0 .1 0 .2-.2.2l-.1-.2zm7.2 3.4c1 0 1.8-.6 1.8-1.6s-.7-1.7-1.8-1.7h-1v3.4h1zm-1.3-3.4l.1-.1h1.2c1.2 0 2 .8 2 1.9a2 2 0 0 1-2 2h-1.2l-.1-.2zm4.3 3.6v-3.6l.1-.1h2.6a.1.1 0 1 1 0 .2h-2.4v1.6h2.1l.1.1-.1.1h-2.1v1.6h2.4l.1.1-.1.2h-2.6l-.1-.2m5.2 0v-3.6l.1-.1h2.6l.1.1-.1.1h-2.4v1.6h2.1l.1.1v.1h-2.2v1.6h2.4l.1.1-.1.2h-2.6l-.1-.2m3.6-3.6l.2-.1h.1l1.6 2.3 1.5-2.3h.2l.1.1v3.6l-.1.2s-.2 0-.2-.2v-3.2l-1.4 2-.1.1h-.1l-1.5-2.1v3.2l-.1.2c-.1 0-.2 0-.2-.2zm6.2 2c.7 0 1.2-.3 1.2-1 0-.5-.5-.9-1.2-.9h-1.1v2h1zm-1.4-2l.1-.1h1.3c.9 0 1.5.4 1.5 1.2 0 .8-.7 1.2-1.6 1.2h-1v1.3c0 .1 0 .2-.2.2l-.1-.2zm5.2 1.9c.7 0 1.2-.3 1.2-.9 0-.5-.4-.9-1.1-.9h-1.4v1.8zm-1.6-1.9l.2-.1h1.5c.5 0 .8.1 1 .4.3.1.4.4.4.7 0 .6-.5 1-1.2 1.1l1.1 1.4v.3l-.2-.1-1.2-1.6h-1.3v1.5l-.1.2c-.1 0-.2 0-.2-.2zm4 3.6v-3.6l.1-.1h2.6v.2h-2.4v1.6h2.1l.1.1-.1.1h-2.1v1.6h2.4l.1.1-.1.2h-2.6l-.1-.2m3.6-3.6l.2-.1h.2l2.6 3.4v-3.3l.1-.2.2.2v3.7h-.3l-2.7-3.4v3.3a.15.15 0 0 1-.3 0zm5.7 3.4c1 0 1.7-.6 1.7-1.6s-.7-1.7-1.8-1.7h-1v3.4h1zm-1.4-3.4l.2-.1h1.1c1.3 0 2.1.8 2.1 1.9a2 2 0 0 1-2 2h-1.2l-.2-.2zm4.4 3.6v-3.7h2.6l.1.1-.1.1h-2.4v1.6h2.1l.2.1-.2.1h-2v1.6h2.3l.2.1-.2.2h-2.5l-.2-.2m5-.2c1 0 1.8-.6 1.8-1.6s-.7-1.7-1.8-1.7h-1v3.4h1zm-1.3-3.4l.1-.1h1.2c1.2 0 2 .8 2 1.9a2 2 0 0 1-2 2h-1.2l-.1-.2zm7.7 1.8c0-1-.7-1.7-1.7-1.7s-1.6.7-1.6 1.7.7 1.8 1.6 1.8c1 0 1.7-.8 1.7-1.8m-3.6 0c0-1 .8-2 2-2 1.1 0 2 1 2 2s-.9 2-2 2a2 2 0 0 1-2-2m6.4.1c.7 0 1.2-.3 1.2-.9 0-.5-.5-.9-1.2-.9h-1.3v1.8zm-1.6-1.9l.1-.1h1.6c.4 0 .8.1 1 .4.2.1.4.4.4.7 0 .6-.5 1-1.2 1.1l1.1 1.4v.3l-.2-.1-1.2-1.6h-1.3v1.5c0 .1 0 .2-.2.2l-.1-.2zm3.9 3.6v-3.6l.2-.1h2.5l.2.1-.2.1h-2.4v1.6h2.2l.1.1-.1.1h-2.2v1.6h2.5v.3h-2.6l-.2-.2m3.6-.3l-.1-.1a.1414.1414 0 0 1 .2-.2c.4.4.8.6 1.3.6.6 0 1-.4 1-.8s-.2-.7-1-.9c-1-.1-1.4-.5-1.4-1 0-.6.5-1 1.3-1 .5 0 .9 0 1.2.3v.3h-.2c-.3-.3-.7-.4-1-.4-.6 0-1 .3-1 .7 0 .4.2.7 1.1.9 1 .2 1.3.5 1.3 1 0 .7-.5 1.1-1.3 1.1-.6 0-1-.2-1.5-.5m6.5.1c1.1 0 1.8-.6 1.8-1.6s-.7-1.7-1.8-1.7h-1v3.4h1zm-1.3-3.4l.2-.1h1.1c1.3 0 2.1.8 2.1 1.9a2 2 0 0 1-2 2h-1.2l-.2-.2zm4.3 3.6v-3.6l.2-.1h2.5l.1.1-.1.1h-2.4v1.6h2.1l.2.1-.2.1h-2.1v1.6h2.4l.2.1-.2.2h-2.5l-.2-.2m5.1-1.8c0-1 .8-2 2-2 .6 0 1 .2 1.4.5v.2l-.1.1h-.1c-.4-.3-.7-.5-1.3-.5-1 0-1.6.7-1.6 1.7s.7 1.8 1.6 1.8c.6 0 1-.2 1.3-.6h.1l.1.1v.1a2 2 0 0 1-1.5.6 2 2 0 0 1-2-2m4.3-1.8l.1-.2.1.2v1.7h2.6v-1.7l.1-.2.2.2v3.6l-.2.2-.1-.2v-1.7h-2.6v1.7l-.1.2-.1-.2zm4.1 0l.2-.2.1.2v3.6l-.1.2s-.2 0-.2-.2zm1.4 0l.2-.2.1.2v3.4h2.2l.2.1-.2.2h-2.3l-.2-.2v-3.6zm3.4 3.6v-3.6l.1-.1h2.6l.1.1-.1.1h-2.4v1.6h2.1l.2.1-.2.1h-2v1.6h2.4l.1.1v.2h-2.7l-.1-.2"/>
  <g stroke-linecap="round" stroke-linejoin="round" transform="translate(70.956 -11.3437)">
    <path fill="#5c9fb9" stroke-width="10" d="M-35.9062 86.1759a24.99 24.99 0 0 1 10.5576 2.3433c2.5149 1.237 5.5552.166 6.7394-2.3743 1.1841-2.5402.0497-5.5574-2.5148-6.6882a34.9873 34.9873 0 0 0-14.781-3.2774z" color="#000" font-family="sans-serif" font-weight="400" overflow="visible" paint-order="markers fill stroke" white-space="normal" style="line-height:normal;font-variant-ligatures:normal;font-variant-position:normal;font-variant-caps:normal;font-variant-numeric:normal;font-variant-alternates:normal;font-feature-settings:normal;text-indent:0;text-align:start;text-decoration-line:none;text-decoration-style:solid;text-decoration-color:#000;text-transform:none;text-orientation:mixed;shape-padding:0;isolation:auto;mix-blend-mode:normal"/>
    <path fill="#e67b1f" stroke-width="10" d="M-30.969 71.3102c0 5.0525 1.0918 10.1043 3.2773 14.791a5.0007 5.0007 0 1 0 9.0645-4.2265 24.99 24.99 0 0 1 0-21.1309 5.0005 5.0005 0 1 0-9.0645-4.2246c-2.1855 4.6868-3.2773 9.7386-3.2773 14.791z" color="#000" font-family="sans-serif" font-weight="400" overflow="visible" paint-order="markers fill stroke" white-space="normal" style="line-height:normal;font-variant-ligatures:normal;font-variant-position:normal;font-variant-caps:normal;font-variant-numeric:normal;font-variant-alternates:normal;font-feature-settings:normal;text-indent:0;text-align:start;text-decoration-line:none;text-decoration-style:solid;text-decoration-color:#000;text-transform:none;text-orientation:mixed;shape-padding:0;isolation:auto;mix-blend-mode:normal"/>
    <path fill="#fed83b" stroke-width="10" d="M-35.8382 66.4411c5.0525 0 10.1043-1.0919 14.791-3.2773a5.0005 5.0005 0 1 0-4.2246-9.0645 24.99 24.99 0 0 1-21.1308 0 5.0007 5.0007 0 1 0-4.2266 9.0645 34.9885 34.9885 0 0 0 14.791 3.2773z" color="#000" font-family="sans-serif" font-weight="400" overflow="visible" paint-order="markers fill stroke" white-space="normal" style="line-height:normal;font-variant-ligatures:normal;font-variant-position:normal;font-variant-caps:normal;font-variant-numeric:normal;font-variant-alternates:normal;font-feature-settings:normal;text-indent:0;text-align:start;text-decoration-line:none;text-decoration-style:solid;text-decoration-color:#000;text-transform:none;text-orientation:mixed;shape-padding:0;isolation:auto;mix-blend-mode:normal"/>
    <path fill="#e04327" stroke-width="10" d="M-40.7073 71.3102c0-5.0524-1.0919-10.1042-3.2774-14.791a5.0005 5.0005 0 1 0-9.0644 4.2246 24.99 24.99 0 0 1 0 21.1309 5.0007 5.0007 0 1 0 9.0644 4.2266c2.1855-4.6868 3.2774-9.7386 3.2774-14.791z" color="#000" font-family="sans-serif" font-weight="400" overflow="visible" paint-order="markers fill stroke" white-space="normal" style="line-height:normal;font-variant-ligatures:normal;font-variant-position:normal;font-variant-caps:normal;font-variant-numeric:normal;font-variant-alternates:normal;font-feature-settings:normal;text-indent:0;text-align:start;text-decoration-line:none;text-decoration-style:solid;text-decoration-color:#000;text-transform:none;text-orientation:mixed;shape-padding:0;isolation:auto;mix-blend-mode:normal"/>
    <path fill="#5c9fb9" stroke-width="10" d="M-35.8282 76.1794c-5.0525 0-10.1142 1.0919-14.801 3.2773-6.1895 2.7632-1.8683 12.0286 4.2266 9.0625a24.9902 24.9902 0 0 1 10.5732-2.3433c1.8103-3.1355 1.7497-6.9679.0012-9.9965z" color="#000" font-family="sans-serif" font-weight="400" overflow="visible" paint-order="markers fill stroke" white-space="normal" style="line-height:normal;font-variant-ligatures:normal;font-variant-position:normal;font-variant-caps:normal;font-variant-numeric:normal;font-variant-alternates:normal;font-feature-settings:normal;text-indent:0;text-align:start;text-decoration-line:none;text-decoration-style:solid;text-decoration-color:#000;text-transform:none;text-orientation:mixed;shape-padding:0;isolation:auto;mix-blend-mode:normal"/>
    <circle cx="-35.8793" cy="94.9204" r="6.5" fill="#5c9fb9"/>
    <circle cx="-35.8793" cy="47.767" r="6.5" fill="#fed83b"/>
    <circle cx="-12.3026" cy="71.3437" r="6.5" fill="#e67b1f"/>
    <circle cx="-59.456" cy="71.3437" r="6.5" fill="#e04327"/>
  </g>
</svg>