<svg xmlns="http://www.w3.org/2000/svg" width="200" height="120">
  <path d="M70 60.4c0-1.2-.3-2-.9-2.6-.5-.6-1.2-.8-2-.8-1 0-1.6.2-2.2.8a4 4 0 0 0-.8 2.6zm-6 2.4c0 1.1.4 2 1 2.6.6.6 1.4 1 2.4 1a4 4 0 0 0 3.1-1.5l2 1.8a6.5 6.5 0 0 1-5 2.4c-.8 0-1.5-.1-2.2-.3l-1-.5a5 5 0 0 1-1-.7c-.6-.5-1-1.3-1.4-2.3-.5-.9-.7-2.1-.7-3.6 0-1.4.2-2.6.6-3.6.3-1 .8-1.7 1.3-2.3a5 5 0 0 1 2-1.2 5.9 5.9 0 0 1 6 1.3 6 6 0 0 1 1.7 4.5v2.4zm10.8-8.4h3.4l2.8 4.7 2.8-4.7h3.4l-4.8 7.1 5 7.4H84l-3-4.8-3 4.8h-3.4l4.8-7.4zm20.6 11.8c.6 0 1.2-.1 1.5-.4.4-.3.7-.6.9-1l.3-1.5a47.3 47.3 0 0 0 0-3.3c0-.6-.1-1-.3-1.5a2 2 0 0 0-.9-1 3 3 0 0 0-1.5-.4c-.7 0-1.2.2-1.5.4-.4.3-.7.7-.9 1.1-.2.4-.3 1-.3 1.4a16.5 16.5 0 0 0 0 3.2c0 .6.1 1 .3 1.5a2.4 2.4 0 0 0 2.4 1.5m-5.6-11.8h2.8v1.5c1-1 2.1-1.6 3.6-1.7 1.7 0 3 .7 3.8 2 .4.4.6 1 .8 1.7l.2 3.8c0 1.7 0 3-.2 3.7a4 4 0 0 1-.8 1.8c-.4.6-1 1-1.5 1.4-.7.3-1.4.5-2.3.5-.7 0-1.4-.2-2-.5-.5-.3-1.1-.7-1.6-1.2v7.4h-2.8zm14.7-5.9h2.8v16.7c0 .7.4 1 1 1h1v2.7h-1.2a4 4 0 0 1-2.6-.8c-.7-.5-1-1.4-1-2.7zm15.3 13.2l-.1-2.3c-.1-.5-.3-.9-.6-1.2a2 2 0 0 0-.9-.8 3 3 0 0 0-1.4-.3 3 3 0 0 0-1.3.3l-1 .8-.5 1.2-.1 2.3.1 2.2c.1.4.3.9.6 1.2.2.3.5.6 1 .8a2.9 2.9 0 0 0 3.6-.7l.5-1.3.1-2.2m-8.8 0c0-1.6.2-2.8.4-3.6.3-.8.6-1.5 1.2-2 .4-.5.9-1 1.6-1.3.7-.4 1.6-.6 2.6-.6a6 6 0 0 1 2.7.6 5 5 0 0 1 1.6 1.3c.6.5 1 1.2 1.2 2 .2.8.3 2 .3 3.6 0 1.5 0 2.6-.3 3.5a5 5 0 0 1-1.2 2l-.7.7a5.5 5.5 0 0 1-3.6 1.2c-1 0-2-.2-2.6-.6a5.4 5.4 0 0 1-2.8-3.3c-.2-.9-.4-2-.4-3.5m15-7.3h2.8v1.5a4.8 4.8 0 0 1 6.7-.6l-2.1 2.6a3 3 0 0 0-1.9-.8c-.7 0-1.3.3-1.8.8-.6.4-1 1.2-1 2.3v8.7H126zm17.8 8.4h-3.4c-1.6 0-2.4.6-2.4 1.7 0 .5.2 1 .6 1.3.4.4 1.1.6 2 .6 1.2 0 2-.2 2.6-.5.4-.3.6-1 .6-2zm0 4.8c-.3.5-.7.9-1.2 1.1a5 5 0 0 1-2.3.4 5 5 0 0 1-3.6-1.3 4 4 0 0 1-1.4-3.1c0-1.3.4-2.3 1.2-3 .8-.9 2-1.3 3.4-1.3h4v-1.6c0-1.3-1-1.9-3-1.8a5 5 0 0 0-1.6.2 2 2 0 0 0-1 .9l-2.3-1.8a5.4 5.4 0 0 1 4.8-2c1.8-.1 3.2.2 4.2 1 1 .7 1.6 2 1.6 3.7v10h-2.8zm5 3.4h13.9v1.5h-14zm16-22.5h2.8v16.7c0 .7.4 1 1.1 1h1v2.7h-1.3a4 4 0 0 1-2.5-.8c-.7-.5-1-1.4-1-2.7zm14.7 14.3H176c-1.7 0-2.5.6-2.5 1.7 0 .5.2 1 .7 1.3.4.4 1 .6 2 .6a5 5 0 0 0 2.5-.5c.4-.3.7-1 .7-2zm0 4.8c-.4.5-.8.9-1.3 1.1a5 5 0 0 1-2.3.4 5 5 0 0 1-3.6-1.3 4 4 0 0 1-1.3-3.1c0-1.3.3-2.3 1.1-3 .8-.9 2-1.3 3.4-1.3h4v-1.6c0-1.3-1-1.9-3-1.8a5 5 0 0 0-1.6.2 2 2 0 0 0-1 .9l-2.2-1.8c1-1.4 2.6-2.1 4.7-2 1.8-.1 3.2.2 4.3 1 1 .7 1.6 2 1.6 3.7v10h-2.8zm12.4-10.5c-.7 0-1.2.2-1.5.4-.4.3-.7.7-.9 1.1-.2.4-.3 1-.3 1.4a15.4 15.4 0 0 0 0 3.2c0 .6.1 1 .3 1.5a2.4 2.4 0 0 0 2.4 1.5c.6 0 1.2-.1 1.6-.4l.8-1 .3-1.5a47.3 47.3 0 0 0 0-3.3c0-.6-.1-1-.3-1.5a2 2 0 0 0-.8-1 3 3 0 0 0-1.6-.4m-5.6-8.6h2.8V56c.5-.5 1-.9 1.7-1.2a4 4 0 0 1 2-.5c1.6 0 2.9.7 3.7 2 .4.4.7 1 .8 1.7l.2 3.8c0 1.7 0 2.9-.2 3.6a4 4 0 0 1-.8 2c-.4.5-.9 1-1.5 1.3a4.8 4.8 0 0 1-6-1.2V69h-2.7z" fill="#fff"/>
  <path d="M46.1 43.2c-.5-.4-1.5-.4-2 .1l-3.4 3.2a1 1 0 0 0 0 1.6S46 52 46 60.3a17 17 0 0 1-5.5 12.4c-.6.5-.6 1.2 0 1.7l3.3 3.1c.6.5 1.5.6 2 .1 0 0 8-5.4 8-17.3 0-11.8-7.7-17.1-7.7-17.1" fill="#ff8e00"/>
  <path d="M26.3 52.4c-1-2.2-3.2-3.9-6.6-3.9a6.9 6.9 0 0 0-6.6 4 10 10 0 0 0-.9 4h15a10 10 0 0 0-.9-4m-13 10.4s-1 0-1 .7c0 4.5 3.3 7.7 8.6 7.7 3.9 0 5.6-.9 8-2.7.5-.4 1-.8 1.5-.3l4.5 4.2c.5.5.3 1-.2 1.5-.6.5-6.8 5.3-14 5.3-9.2 0-18.2-4-18.2-19.3 0-12.4 7-19.3 17.2-19.3 11 0 17.3 7.7 17.3 18v2.7c0 1-1 1.5-1.6 1.5z" fill="#fff"/>
</svg>