<?xml version="1.0" encoding="UTF-8" standalone="no"?>
<svg width="156px" height="36px" viewBox="0 0 156 36" version="1.1" xmlns="http://www.w3.org/2000/svg" xmlns:xlink="http://www.w3.org/1999/xlink">
    <!-- Generator: Sketch 41 (35326) - http://www.bohemiancoding.com/sketch -->
    <title>Group 3</title>
    <desc>Created with Sketch.</desc>
    <defs></defs>
    <g id="Page-1" stroke="none" stroke-width="1" fill="none" fill-rule="evenodd">
        <g id="splash-+-topic-nav" transform="translate(-84.000000, -46.000000)">
            <g id="global-nav" transform="translate(84.000000, 46.000000)">
                <g id="Group-3">
                    <g id="logo">
                        <g>
                            <g id="Group-46">
                                <g id="Group-44" transform="translate(0.000000, 0.046781)" fill="#E4E6EA">
                                    <polygon id="Triangle-1" points="10.5716035 10.3993963 20.6407108 35.820473 0.502496129 35.820473"></polygon>
                                    <polygon id="Triangle-1-Copy-2" points="33.9000705 0.777005474 43.2511015 35.8241191 23.1040096 35.8241191"></polygon>
                                </g>
                                <polygon id="Triangle-1-Copy" fill-opacity="0.400000006" fill="#CCD0D7" points="33.9004992 0.822222222 38.7060618 32.3005704 15.0475681 32.3005704"></polygon>
                            </g>
                            <g id="Group-42" transform="translate(8.978407, 16.467260)">
                                <polygon id="Rectangle-40" fill-opacity="0.799999952" fill="#3065C4" points="4.13157895 0 15.5555891 0 11.3621324 19.4295924 0 19.4295924"></polygon>
                                <polygon id="Rectangle-40-Copy" fill-opacity="0.800000012" fill="#E80C3B" points="15.5409078 0 27.1873189 0 23.05574 19.4295924 11.3580033 19.4295924"></polygon>
                            </g>
                        </g>
                    </g>
                    <g id="Group-2" transform="translate(58.786692, 10.810765)" fill="#FFFFFF">
                        <path d="M0.302567943,17.2666667 L0.302567943,1.52962441 L5.15798009,1.52962441 C7.22905364,1.52962441 8.89095661,2.16190996 10.1437389,3.42650004 C11.3965211,4.69109011 12.0229029,6.32494481 12.0229029,8.32811313 L12.0229029,10.4789864 C12.0229029,12.4893603 11.3965211,14.123215 10.1437389,15.3805994 C8.89095661,16.6379839 7.22905364,17.2666667 5.15798009,17.2666667 L0.302567943,17.2666667 Z M2.4424252,3.20492767 L2.4424252,15.6021718 L5.15798009,15.6021718 C6.6207663,15.6021718 7.77396042,15.1230038 8.61759702,14.1646535 C9.46123362,13.2063032 9.8830456,11.9777598 9.8830456,10.4789864 L9.8830456,8.30649631 C9.8830456,6.82213417 9.46123362,5.60079627 8.61759702,4.64244595 C7.77396042,3.68409564 6.6207663,3.20492767 5.15798009,3.20492767 L2.4424252,3.20492767 Z M21.777176,17.2666667 C21.7047609,16.9135902 21.64864,16.6019509 21.6088116,16.3317394 C21.5689833,16.0615278 21.5454487,15.7895189 21.5382072,15.5157045 C21.1399238,16.0777446 20.6203528,16.5479056 19.9794787,16.9262018 C19.3386045,17.304498 18.6488605,17.4936432 17.9102259,17.4936432 C16.6864097,17.4936432 15.7540785,17.1820039 15.1132043,16.5587159 C14.4723302,15.9354279 14.1518979,15.0761681 14.1518979,13.9809106 C14.1518979,12.8640362 14.6062962,11.9903652 15.5151064,11.3598716 C16.4239167,10.729378 17.6567663,10.4141359 19.2136922,10.4141359 L21.5382072,10.4141359 L21.5382072,9.25763623 C21.5382072,8.57310029 21.3282064,8.03088391 20.9081985,7.63097081 C20.4881905,7.2310577 19.8943951,7.03110415 19.1267944,7.03110415 C18.4388504,7.03110415 17.8794517,7.20583834 17.4485815,7.55531195 C17.0177113,7.90478556 16.8022795,8.32450788 16.8022795,8.8144915 L14.7601822,8.8144915 L14.7384577,8.74964105 C14.6950086,7.89937536 15.0987171,7.12117775 15.9495952,6.41502489 C16.8004733,5.70887203 17.8993569,5.35580089 19.2462789,5.35580089 C20.5787178,5.35580089 21.6504461,5.69265958 22.4614959,6.36638705 C23.2725456,7.04011453 23.6780644,8.01106015 23.6780644,9.27925305 L23.6780644,14.9104337 C23.6780644,15.3283609 23.6997887,15.7318708 23.7432378,16.1209754 C23.7866869,16.51008 23.8663423,16.8919733 23.9822066,17.2666667 L21.777176,17.2666667 Z M18.2252302,15.7102559 C19.0000724,15.7102559 19.6988682,15.5121037 20.3216386,15.1157934 C20.944409,14.7194832 21.3499278,14.2655346 21.5382072,13.753934 L21.5382072,11.8516542 L19.1376567,11.8516542 C18.2759163,11.8516542 17.5861722,12.0678202 17.0684038,12.5001587 C16.5506355,12.9324972 16.2917551,13.4404873 16.2917551,14.0241442 C16.2917551,14.5429504 16.4546868,14.9536658 16.780555,15.2563028 C17.1064232,15.5589397 17.5879768,15.7102559 18.2252302,15.7102559 Z M29.6088363,2.75097453 L29.6088363,5.57196905 L31.8355913,5.57196905 L31.8355913,7.14999664 L29.6088363,7.14999664 L29.6088363,14.2511208 C29.6088363,14.7987495 29.7228885,15.1842456 29.9509962,15.4076205 C30.179104,15.6309954 30.4814328,15.7426811 30.8579916,15.7426811 C30.9810973,15.7426811 31.1168737,15.7282701 31.2653248,15.6994475 C31.4137759,15.6706249 31.5459316,15.6345973 31.6617958,15.5913634 L31.9442135,17.0504985 C31.7849002,17.1802001 31.5513648,17.2864817 31.2436004,17.3693465 C30.9358359,17.4522114 30.6262658,17.4936432 30.3148806,17.4936432 C29.4458987,17.4936432 28.7543443,17.2324427 28.2401967,16.7100336 C27.726049,16.1876246 27.4689791,15.3679952 27.4689791,14.2511208 L27.4689791,7.14999664 L25.6006773,7.14999664 L25.6006773,5.57196905 L27.4689791,5.57196905 L27.4689791,2.75097453 L29.6088363,2.75097453 Z M41.6984867,17.2666667 C41.6260715,16.9135902 41.5699506,16.6019509 41.5301223,16.3317394 C41.490294,16.0615278 41.4667594,15.7895189 41.4595179,15.5157045 C41.0612345,16.0777446 40.5416635,16.5479056 39.9007894,16.9262018 C39.2599152,17.304498 38.5701712,17.4936432 37.8315365,17.4936432 C36.6077203,17.4936432 35.6753892,17.1820039 35.034515,16.5587159 C34.3936408,15.9354279 34.0732086,15.0761681 34.0732086,13.9809106 C34.0732086,12.8640362 34.5276069,11.9903652 35.4364171,11.3598716 C36.3452274,10.729378 37.578077,10.4141359 39.1350029,10.4141359 L41.4595179,10.4141359 L41.4595179,9.25763623 C41.4595179,8.57310029 41.2495171,8.03088391 40.8295091,7.63097081 C40.4095012,7.2310577 39.8157058,7.03110415 39.0481051,7.03110415 C38.3601611,7.03110415 37.8007624,7.20583834 37.3698922,7.55531195 C36.939022,7.90478556 36.7235901,8.32450788 36.7235901,8.8144915 L34.6814929,8.8144915 L34.6597684,8.74964105 C34.6163193,7.89937536 35.0200278,7.12117775 35.8709059,6.41502489 C36.721784,5.70887203 37.8206676,5.35580089 39.1675895,5.35580089 C40.5000285,5.35580089 41.5717568,5.69265958 42.3828065,6.36638705 C43.1938563,7.04011453 43.5993751,8.01106015 43.5993751,9.27925305 L43.5993751,14.9104337 C43.5993751,15.3283609 43.6210994,15.7318708 43.6645484,16.1209754 C43.7079975,16.51008 43.787653,16.8919733 43.9035173,17.2666667 L41.6984867,17.2666667 Z M38.1465409,15.7102559 C38.9213831,15.7102559 39.6201789,15.5121037 40.2429493,15.1157934 C40.8657197,14.7194832 41.2712385,14.2655346 41.4595179,13.753934 L41.4595179,11.8516542 L39.0589674,11.8516542 C38.197227,11.8516542 37.5074829,12.0678202 36.9897145,12.5001587 C36.4719461,12.9324972 36.2130658,13.4404873 36.2130658,14.0241442 C36.2130658,14.5429504 36.3759975,14.9536658 36.7018657,15.2563028 C37.0277339,15.5589397 37.5092875,15.7102559 38.1465409,15.7102559 Z" id="Data"></path>
                        <path d="M60.778492,11.9165046 L60.8002164,11.9813551 C60.8291825,13.6746808 60.3096115,15.0167114 59.2414879,16.0074871 C58.1733643,16.9982628 56.6906862,17.4936432 54.793409,17.4936432 C52.8888903,17.4936432 51.3428499,16.8847757 50.1552412,15.6670223 C48.9676326,14.4492689 48.3738372,12.8820653 48.3738372,10.9653647 L48.3738372,7.84173476 C48.3738372,5.93223978 48.9531498,4.36503627 50.1117924,3.14007722 C51.2704349,1.91511817 52.7766476,1.30264784 54.6304757,1.30264784 C56.585685,1.30264784 58.1136219,1.80163102 59.2143324,2.79961237 C60.3150428,3.79759371 60.8509069,5.15763813 60.8219409,6.87978644 L60.8002164,6.94463689 L57.7153461,6.94463689 C57.7153461,5.90702452 57.4655175,5.11261446 56.9658529,4.56138289 C56.4661883,4.01015132 55.687737,3.73453967 54.6304757,3.73453967 C53.6818371,3.73453967 52.9287308,4.11823432 52.371134,4.88563514 C51.8135373,5.65303595 51.5347431,6.63118711 51.5347431,7.82011795 L51.5347431,10.9653647 C51.5347431,12.1687068 51.8280201,13.1540635 52.4145829,13.9214643 C53.0011457,14.6888652 53.7940798,15.0725598 54.793409,15.0725598 C55.7854967,15.0725598 56.5186892,14.8077565 56.9930085,14.2781418 C57.4673278,13.7485272 57.7044838,12.9613226 57.7044838,11.9165046 L60.778492,11.9165046 Z M65.8945974,7.05272097 C66.2639147,6.5195035 66.7165027,6.10338395 67.2523748,5.80434983 C67.788247,5.50531571 68.3820424,5.35580089 69.0337788,5.35580089 C70.257595,5.35580089 71.2188919,5.76111214 71.9176981,6.57174681 C72.6165044,7.38238147 72.9659023,8.6343429 72.9659023,10.3276686 L72.9659023,17.2666667 L69.7941342,17.2666667 L69.7941342,10.3060518 C69.7941342,9.398141 69.6330129,8.75504714 69.3107654,8.37675097 C68.988518,7.99845479 68.5087748,7.80930954 67.8715214,7.80930954 C67.4370304,7.80930954 67.0532358,7.88676902 66.7201261,8.04169032 C66.3870163,8.19661161 66.1118429,8.41457899 65.8945974,8.69559901 L65.8945974,17.2666667 L62.7228293,17.2666667 L62.7228293,0.405549961 L65.8945974,0.405549961 L65.8945974,7.05272097 Z M78.690292,17.2666667 L75.5185239,17.2666667 L75.5185239,5.57196905 L78.690292,5.57196905 L78.690292,17.2666667 Z M78.690292,2.77259134 L75.5185239,2.77259134 L75.5185239,0.405549961 L78.690292,0.405549961 L78.690292,2.77259134 Z M84.6319261,17.2666667 L81.460158,17.2666667 L81.460158,0.405549961 L84.6319261,0.405549961 L84.6319261,17.2666667 Z M92.441862,17.4936432 C90.7473473,17.4936432 89.3932041,16.9532282 88.3793919,15.872382 C87.3655797,14.7915358 86.8586812,13.4188817 86.8586812,11.7543785 L86.8586812,11.3220422 C86.8586812,9.5854826 87.3384244,8.15518422 88.2979252,7.03110415 C89.2574261,5.90702409 90.5445863,5.34859525 92.1594443,5.35580089 C93.7453363,5.35580089 94.9763755,5.83136609 95.852599,6.78251077 C96.7288224,7.73365544 97.1669275,9.01984315 97.1669275,10.6411125 L97.1669275,12.3596494 L90.1499337,12.3596494 L90.1282092,12.4244998 C90.1861414,13.1955035 90.4450217,13.8295904 90.9048579,14.3267797 C91.3646942,14.8239689 91.9892656,15.0725598 92.7785908,15.0725598 C93.4810179,15.0725598 94.0639511,15.0023059 94.5274082,14.8617959 C94.9908652,14.7212858 95.4977637,14.4997157 96.0481189,14.1970788 L96.9062343,16.1425922 C96.4282942,16.5316969 95.8019125,16.8541445 95.0270703,17.1099447 C94.2522281,17.365745 93.3905006,17.4936432 92.441862,17.4936432 Z M92.1594443,7.78769272 C91.5728815,7.78769272 91.1094314,8.01106426 90.7690802,8.45781403 C90.4287289,8.9045638 90.2187281,9.49181477 90.1390715,10.2195846 L90.1716581,10.2736266 L94.0603327,10.2736266 L94.0603327,9.99260799 C94.0603327,9.32248333 93.9028321,8.78747248 93.5878262,8.38755938 C93.2728202,7.98764628 92.7966977,7.78769272 92.1594443,7.78769272 Z" id="Chile"></path>
                    </g>
                </g>
            </g>
        </g>
    </g>
</svg>