<?xml version="1.0" encoding="UTF-8" standalone="no"?>
<svg xmlns="http://www.w3.org/2000/svg" width="200" height="120">
  <path fill="#fc6" fill-rule="evenodd" d="M22.6 38.3a21 21 0 0 0-6.1.9l.8 2a19.5 19.5 0 0 1 23 10.3l2.1-.8a21.7 21.7 0 0 0-19.8-12.4zm-9.1 2a21.7 21.7 0 0 0-11.6 26l2-.8a19.5 19.5 0 0 1 10.3-23.1zm9.2 3.4c-5.7 0-11.2 3-14.1 8.2l2 .9A14.1 14.1 0 0 1 33 50.4l1.8-1.3a16.2 16.2 0 0 0-12.2-5.4zm0 5.4A10.9 10.9 0 0 0 18 69.8l.6-2.1a8.7 8.7 0 0 1 5.2-16.3l.6-2.1-1.7-.2zm4.8 1.1l-.6 2.1a8.7 8.7 0 0 1-5.2 16.3l-.6 2.1a10.9 10.9 0 0 0 6.4-20.5zm9.3 1.6L35.1 53a14.1 14.1 0 0 1-9.3 20.7l.3 2.2a16.3 16.3 0 0 0 10.7-24.2zm6.8 2l-2 .7a19.5 19.5 0 0 1-10.3 23.1l.7 2a21.7 21.7 0 0 0 11.6-25.8zm-36.3 1a16.3 16.3 0 0 0 15.5 21.5l-.2-2.2A14 14 0 0 1 9.3 55.8zM5 68.6l-2 .8a21.7 21.7 0 0 0 26 11.4l-.8-2a19.5 19.5 0 0 1-23-10.3z"/>
  <path fill="#fff" fill-rule="evenodd" d="M64 68c4.7 0 8-3.7 8-8.4 0-4.6-3.6-8-8.3-8h-3.4V68zm-6.4-19h7C70 49.1 75 53.6 75 59.7c0 6.2-4.8 10.8-11 10.8h-6.3zm83.4 6.9h2.8l-5.4 14.6h-2.1l-4-11.4-4 11.4h-2L120.7 56h2.7l3.7 10.6 3.7-10.6h2.8l3.6 10.6zm15 6.1c0-2.2-1-4.1-3.4-4.1s-3.8 1.6-3.8 4.4v8.2h-2.6V49.1h2.6v8.5c.8-1.3 2.4-2 4-2 3 0 5.7 1.5 5.7 5.4v9.5H156zm17.5 0a4.7 4.7 0 0 0-4.8-4.1 4.7 4.7 0 0 0-4.9 4.2zm2.2 5.7c-2 2.2-4 3.2-6.6 3.2-5.2 0-8-3.8-8-7.7 0-4.2 3-7.7 7.6-7.7 4.5 0 7.7 3.5 7.7 8.7h-12.6a5.1 5.1 0 0 0 5.3 4.3 6 6 0 0 0 4.7-2.4zm15.6-5.7a4.7 4.7 0 0 0-4.9-4.1 4.7 4.7 0 0 0-4.8 4.2zm2.2 5.7c-2 2.2-4 3.2-6.6 3.2-5.3 0-8-3.8-8-7.7 0-4.2 3-7.7 7.5-7.7 4.6 0 7.7 3.5 7.7 8.7h-12.5a5 5 0 0 0 5.2 4.3 6 6 0 0 0 4.7-2.4zM79.2 63c0 2.9 1.7 5.6 4.7 5.6 3.2 0 4.9-2.6 4.9-5.5 0-3-1.8-5.3-4.9-5.3-2.9 0-4.7 2.5-4.7 5.2zm12 7.5h-2.5v-2a6.1 6.1 0 0 1-5.1 2.3c-4.3 0-7-3.6-7-7.6 0-4.1 2.7-7.7 7-7.7 2 0 3.8 1 5 2.5v-2.1h2.5zm15-7.5c0 2.9 1.6 5.6 4.7 5.6 3.2 0 4.9-2.6 4.9-5.5 0-3-1.8-5.3-5-5.3-2.8 0-4.6 2.5-4.6 5.2zm12 7.5h-2.5v-2h-.1a6.1 6.1 0 0 1-5 2.3c-4.3 0-7-3.6-7-7.6 0-4.1 2.7-7.7 7-7.7 2 0 3.8 1 5 2.5v-2.1h2.5zm-19.2 0h-2.5V58.1H94V56h2.6v-7H99v7h2.6v2H99zm100 0h-2.5V49.1h2.5z"/>
</svg>