<?xml version="1.0" encoding="utf-8"?>
<!-- Generator: Adobe Illustrator 21.0.0, SVG Export Plug-In . SVG Version: 6.00 Build 0)  -->
<svg version="1.1" id="Capa_1" xmlns="http://www.w3.org/2000/svg" xmlns:xlink="http://www.w3.org/1999/xlink" x="0px" y="0px"
	 viewBox="0 0 550 550" style="enable-background:new 0 0 550 550;" xml:space="preserve">
<style type="text/css">
	.st0{fill:#272733;}
	.st1{fill:#ECF0F1;}
	.st2{fill:#687492;}
	.st3{fill:#4482C3;}
	.st4{fill:#BDC3C7;}
	.st5{fill:#E64C3C;}
	.st6{fill:#F0C419;}
	.st7{fill:#24AE5F;}
	.st8{fill:#2D318D;}
	.st9{fill:#2E58A6;}
	.st10{fill:#3575AF;}
	.st11{fill:#B3B3B3;}
	.st12{fill:#CCCCCC;}
	.st13{fill:#1A70AD;}
	.st14{fill:none;stroke:#EE573F;stroke-width:2;stroke-miterlimit:10;}
	.st15{fill:#333333;}
	.st16{fill:#1C4A93;}
	.st17{fill:#FEFEFE;}
	.st18{fill:#2C3880;}
	.st19{fill:#232C57;}
	.st20{fill:#264882;}
	.st21{fill:none;stroke:#EE573F;stroke-miterlimit:10;}
	.st22{fill:#F2F2F2;}
	.st23{fill:#6D86B2;}
	.st24{fill:#232C57;stroke:#232C57;stroke-miterlimit:10;}
	.st25{fill:#FFFFFF;}
</style>
<rect class="st0" width="550" height="550"/>
<g>
	<g>
		<g>
			<path class="st1" d="M306.2,413.9H105.7c-7,0-12.7-5.7-12.7-12.7V234.8h225.8v166.4C318.9,408.2,313.2,413.9,306.2,413.9z"/>
			<path class="st2" d="M318.9,234.8H93.1v-34.1c0-7,5.7-12.7,12.7-12.7h200.5c7,0,12.7,5.7,12.7,12.7V234.8z"/>
			<path class="st3" d="M233.2,398.5h-54.3c-5.9,0-11.1-4.3-11.8-10.2c-0.9-7.1,4.7-13.1,11.6-13.1H233c5.9,0,11.1,4.3,11.8,10.2
				C245.7,392.4,240.2,398.5,233.2,398.5z"/>
			<g>
				<path class="st4" d="M244.9,347.7h-77.7c-1.8,0-3.5-1.2-3.9-3c-0.6-2.6,1.3-4.9,3.8-4.9h77.7c1.8,0,3.5,1.2,3.9,3
					C249.3,345.4,247.4,347.7,244.9,347.7z"/>
				<path class="st4" d="M264.4,363.2H147.7c-1.8,0-3.5-1.2-3.9-3c-0.6-2.6,1.3-4.9,3.8-4.9h116.7c1.8,0,3.5,1.2,3.9,3
					C268.7,360.9,266.8,363.2,264.4,363.2z"/>
			</g>
			<g>
				<path class="st3" d="M151.5,300.9c-0.5,0-1-0.1-1.5-0.3c-2-0.8-2.9-3.1-2-5.1l11.7-27.3c0.8-2,3.1-2.9,5.1-2
					c2,0.8,2.9,3.1,2,5.1l-11.7,27.3C154.4,300,153,300.9,151.5,300.9z"/>
				<path class="st3" d="M179,301h-27.7c-1.8,0-3.5-1.2-3.9-3c-0.6-2.6,1.4-4.9,3.9-4.9h27.7c1.8,0,3.5,1.2,3.9,3
					C183.5,298.7,181.5,301,179,301z"/>
				<path class="st3" d="M163.2,312.8v-23.7c0-1.8,1.2-3.5,3-3.9c2.6-0.6,4.9,1.3,4.9,3.9v23.8c0,2.5-2.3,4.5-4.9,3.9
					C164.4,316.3,163.2,314.6,163.2,312.8z"/>
				<path class="st3" d="M233.2,300.9c-0.5,0-1-0.1-1.5-0.3c-2-0.8-2.9-3.1-2-5.1l11.7-27.3c0.8-2,3.1-2.9,5.1-2
					c2,0.8,2.9,3.1,2,5.1l-11.7,27.3C236.2,300,234.7,300.9,233.2,300.9z"/>
				<path class="st3" d="M260.7,301H233c-1.8,0-3.5-1.2-3.9-3c-0.6-2.6,1.4-4.9,3.9-4.9h27.7c1.8,0,3.5,1.2,3.9,3
					C265.2,298.7,263.2,301,260.7,301z"/>
				<path class="st3" d="M244.8,312.8v-23.7c0-1.8,1.2-3.5,3-3.9c2.6-0.6,4.9,1.3,4.9,3.9v23.8c0,2.5-2.3,4.5-4.9,3.9
					C246,316.3,244.8,314.6,244.8,312.8z"/>
				<path class="st3" d="M190.5,300.8v-19.2c0-7.5,5.3-14.2,12.7-15.5c9.9-1.8,18.6,5.8,18.6,15.4V301c0,9.6-8.7,17.2-18.6,15.4
					C195.8,315,190.5,308.3,190.5,300.8z M198,281.8v18.8c0,4.6,3.8,8.3,8.4,7.9c4-0.3,7.1-3.7,7.1-7.7v-19.3c0-4-3.1-7.4-7.1-7.7
					C201.8,273.5,198,277.2,198,281.8z"/>
			</g>
			<g>
			</g>
			<g>
			</g>
			<g>
			</g>
			<g>
			</g>
			<g>
			</g>
			<g>
			</g>
			<g>
			</g>
			<g>
			</g>
			<g>
			</g>
			<g>
			</g>
			<g>
			</g>
			<g>
			</g>
			<g>
			</g>
			<g>
			</g>
			<g>
			</g>
		</g>
		<circle class="st5" cx="117.1" cy="211.7" r="7.7"/>
		<circle class="st6" cx="140" cy="211.7" r="7.7"/>
		<circle class="st7" cx="163" cy="211.7" r="7.7"/>
	</g>
	<g>
		<path class="st8" d="M116.7,248.6c-3.4-4.2-9.5-4.8-13.7-1.5l-5.8,4.7c-4.2,3.4-4.8,9.5-1.5,13.7h0"/>
		<rect x="100.1" y="240.9" transform="matrix(0.6804 0.7328 -0.7328 0.6804 213.2784 1.7788)" class="st8" width="9" height="9"/>
		<path class="st9" d="M130,129L130,129c3.2-3.7,2.8-9.2-0.9-12.4L97.8,89.9c-3.7-3.2-9.4-2.8-12.6,0.9l0,0
			c-3.2,3.7-2.8,9.2,0.9,12.4l31.3,26.7C121,133.1,126.7,132.7,130,129z"/>
		<path class="st10" d="M139.2,171L139.2,171c1.4,6-2.3,12-8.3,13.4l-49.3,11.7c-6,1.4-12-2.3-13.4-8.3v0c-1.4-6,2.3-12,8.3-13.4
			l49.3-11.7C131.7,161.3,137.8,165.1,139.2,171z"/>
		<polygon class="st11" points="139.2,73.4 123.3,76 117.4,91.9 134.2,95.7 		"/>
		
			<ellipse transform="matrix(0.384 -0.9233 0.9233 0.384 21.099 162.5239)" class="st12" cx="132.4" cy="65.4" rx="20.2" ry="20.2"/>
		<path class="st13" d="M124.6,46.7c4.8-2,10.3-2.1,15.5,0c10.3,4.3,15.2,16.1,10.9,26.5c-2.1,5-6,8.8-10.6,10.8
			c-1.2,0.5-2.4,0.9-3.6,1.2l1.5-6.7"/>
		<path class="st12" d="M127.8,85.1c8-0.9,13.6-10.1,12.4-20.5c-1.1-10.5-8.5-18.2-16.5-17.4"/>
		<ellipse transform="matrix(0.384 -0.9233 0.9233 0.384 16.8166 175.2369)" class="st12" cx="139.7" cy="75" rx="3.7" ry="4.5"/>
		<path class="st14" d="M126.6,72.3c-1.8,1.8-4.5,2.8-6.9,1.9c-2.4-0.9-3.8-4-2.5-6.2"/>
		<path class="st12" d="M120.6,62.6L120.6,62.6c0.6-1.3-0.1-2.9-1.4-3.4l-8.3-3.5c-1.3-0.6-2.9,0.1-3.4,1.4v0
			c-0.6,1.3,0.1,2.9,1.4,3.4l8.3,3.5C118.5,64.5,120,63.9,120.6,62.6z"/>
		
			<ellipse transform="matrix(0.2907 -0.9568 0.9568 0.2907 28.8921 159.8531)" class="st15" cx="122.3" cy="60.4" rx="1.8" ry="1.8"/>
		<path class="st13" d="M124.2,46.5c0.5,4.8,3.3,9.3,7.4,12c2,1.3,4.2,2.1,6.1,3.5c1.9,1.4,3.3,3.7,2.9,6c4.3-4.3,5.8-11.2,1.6-15.7
			C137.9,47.8,130.3,45.8,124.2,46.5z"/>
		<path class="st3" d="M149.1,177.9L149.1,177.9c1.1,6.3-3.1,12.4-9.4,13.5l-62.2,11.3c-6.3,1.1-12.4-3.1-13.5-9.4l0,0
			c-1.1-6.3,3.1-12.4,9.4-13.5l62.2-11.3C141.8,167.4,147.9,171.6,149.1,177.9z"/>
		<rect x="102.3" y="160.4" class="st3" width="46.4" height="21"/>
		<polygon class="st16" points="116.5,89.2 104.5,129.2 97.1,163 153.3,163 135.3,96.2 		"/>
		<path class="st9" d="M135.5,96h-19.5c-1.9,0-3.4-1.5-3.4-3.4v0c0-1.9,1.5-3.4,3.4-3.4h19.5c1.9,0,3.4,1.5,3.4,3.4v0
			C138.9,94.5,137.4,96,135.5,96z"/>
		<path class="st9" d="M118.9,165.5L118.9,165.5c4.4,0.8,8.8-2.8,9.7-8.1l7.5-44.1c0.9-5.2-2-10.2-6.5-11l0,0
			c-4.4-0.8-8.8,2.8-9.7,8.1l-7.5,44.1C111.6,159.7,114.5,164.7,118.9,165.5z"/>
		<path class="st3" d="M73.9,186.3L73.9,186.3c5.9-2.5,12.7,0.2,15.3,6.1l16.4,38c2.5,5.9-0.2,12.7-6.1,15.3h0
			c-5.9,2.5-12.7-0.2-15.3-6.1l-16.4-38C65.3,195.7,68.1,188.9,73.9,186.3z"/>
		<path class="st9" d="M92,103.8L92,103.8c4.9,0.1,8.9-3.8,8.9-8.7l0.2-41c0-4.9-3.9-9-8.8-9.1h0c-4.9-0.1-8.9,3.8-8.9,8.7l-0.2,41
			C83.1,99.6,87.1,103.7,92,103.8z"/>
		<polygon class="st2" points="121.5,56.9 82.9,33.1 43,10.8 38.5,29 118.7,61.4 		"/>
		
			<ellipse transform="matrix(2.308855e-02 -0.9997 0.9997 2.308855e-02 19.8345 58.8852)" class="st17" cx="40" cy="19.3" rx="11" ry="6.5"/>
		
			<ellipse transform="matrix(2.308855e-02 -0.9997 0.9997 2.308855e-02 19.6908 59.0271)" class="st18" cx="40" cy="19.4" rx="2.4" ry="1.3"/>
		<path class="st12" d="M89.3,39.8c2.1-0.1,4.2-0.2,6.3-0.1c1.5,0.1,3.2,0.2,4.4,1.3c1.1,1,1.4,2.5,1.4,4c0,1.5-0.3,3.1-1.1,4.4
			c-0.3,0.4-0.6,0.8-1,1c-0.3,0.1-0.7,0.1-1,0.1C96.5,50.2,95,49.3,94,48c-0.4-0.5-0.7-1-1.1-1.5c-0.6-0.7-1.4-1.2-2.3-1.5
			c-0.8-0.2-1.6-0.3-2.3-0.6c-0.8-0.3-1.5-0.8-1.7-1.6c-0.2-0.7-0.7-1.9-0.3-2.4C86.8,39.9,88.6,39.9,89.3,39.8z"/>
		<path class="st12" d="M85.2,169.9c-6.1,1.7-10.4,8.4-9.1,14.6c0.3,1.2,0.8,2.5,1.8,3.3c1.5,1.1,3.7,0.6,5.1-0.6
			c1.4-1.2,2.2-2.9,3-4.6c1.1-2.3,2.2-4.7,2.2-7.3s-1.3-5.3-3.8-6.1"/>
		<path class="st9" d="M85.4,173.2L85.4,173.2c1.7,4.2,5.9,6.5,9.4,5l29.4-12.1c3.5-1.4,5-6,3.4-10.3l0,0c-1.7-4.2-5.9-6.5-9.4-5
			l-29.4,12.1C85.3,164.4,83.7,169,85.4,173.2z"/>
	</g>
	<g>
		<path class="st12" d="M453.3,391.5c3.8,0.8,7.4,1.9,11.2,2.7c10.1,2.2,20.5,2.1,30.8,2c5.8-0.1,11.7-0.1,17.1-2.2
			c3.7-1.4,7.7-3.8,11.4-2.4c0,4.8-4.5,8.3-8.8,10.5c-16.1,8.2-34.9,8.9-53,8.5c-18.1-0.4-36.5-1.7-54,2.9
			c1.3-0.3,4.1-13.5,4.7-15.2c1.6-4.8,1.8-7.4,6.8-8.2C429.8,388.6,443.1,389.4,453.3,391.5z"/>
		<path class="st11" d="M453.3,406.8c3.8,0.8,7.4,1.9,11.2,2.7c10.1,2.2,20.5,2.1,30.8,2c5.8-0.1,11.7-0.1,17.1-2.2
			c3.7-1.4,7.7-3.8,11.4-2.4c0,4.8-4.5,8.3-8.8,10.5c-16.1,8.2-34.9,8.9-53,8.5s-36.5-1.7-54,2.9c1.3-0.3,4.1-13.5,4.7-15.2
			c1.6-4.8,1.8-7.4,6.8-8.2C429.8,403.9,443.1,404.7,453.3,406.8z"/>
		<g>
			<polygon class="st3" points="420.7,358.2 422.4,316.9 477.8,348.3 477.8,401.2 			"/>
			<polygon class="st19" points="477.8,401.2 430.7,412.8 385.2,368.2 423.2,356.6 			"/>
			<path class="st20" d="M398.6,374.9h-54c-2.4,0-4.4-2-4.4-4.4v-7c0-2.4,2-4.4,4.4-4.4h54c2.4,0,4.4,2,4.4,4.4v7
				C402.9,372.9,401,374.9,398.6,374.9z"/>
			<path class="st20" d="M344.6,424.4c13.4,5.2,28.2,5.2,42.6,5.1c6.5,0,12.9-0.1,19.4-0.1c1.5,0,3-0.1,4.2-0.9
				c0.9-0.7,1.5-1.8,1.9-2.9c4.1-9.5,5.7-20.1,4.6-30.4c-0.1-0.9-0.2-1.9-0.8-2.6c-0.8-1-2.1-1.4-3.4-1.7
				c-28.3-6.2-59.6-9.9-88.6-6.4C297.7,387.6,333.5,420,344.6,424.4z"/>
			<path class="st13" d="M296,258.4c7.4,2.6,14.4,7.9,22.1,6.5c5-0.9,9.1-4.4,13.5-6.8c8.2-4.5,18.7-5.1,26.9-0.5
				c8.2,4.6,13.3,14.6,11,23.7c-2.3,9.4-11.1,15.5-19.7,20.1c-4.8,2.6-9.7,5-15,6.5c-10.7,3-22.1,2.2-33.2,1.3
				c-4.2-0.3-16.4-4.4-18.3-5.6c-5.9-3.9-11.6-8.3-15.4-14.2c-3.8-5.9-5.2-13.8-2.2-20.1C271.5,257.4,284.4,254.3,296,258.4z"/>
			<polygon class="st11" points="334.9,284.8 349.5,292.1 351.7,312.5 334.9,312.5 			"/>
			<path class="st11" d="M363.3,281.9L363.3,281.9c-0.4-1.4,0.5-2.8,1.8-3.1l8.5-2.2c1.4-0.4,2.8,0.5,3.1,1.8h0
				c0.4,1.4-0.5,2.8-1.8,3.1l-8.5,2.2C365.1,284,363.7,283.2,363.3,281.9z"/>
			<circle class="st12" cx="332.8" cy="282.3" r="4.7"/>
			<path class="st20" d="M354.2,316.2h-21.9c-1,0-1.8-0.8-1.8-1.8v-2.9c0-1,0.8-1.8,1.8-1.8h21.9c1,0,1.8,0.8,1.8,1.8v2.9
				C356,315.4,355.2,316.2,354.2,316.2z"/>
			<path class="st20" d="M322.9,331.8c-2.4,8.3-6.1,41.1-6.8,44.2c-1,4.4-1.5,9-1.3,13.5c0.1,3.4,0.6,7,2.4,9.6
				c2.8,3.9,7.7,4.2,12,4.2c14.9-0.1,29.9-0.1,44.8-0.2c2.7,0,5.9-0.4,7.2-3.2c0.6-1.2,0.9-10.8,0.2-14
				c-1.5-6.9-17.8-48.7-23.3-63.5c-1-2.7-2.3-5.6-4.6-6.7c-1.3-0.7-2.7-0.7-4.1-0.7c-5.1-0.1-12.7-1.3-17.6,0.9
				C326.9,318.1,324.5,326.3,322.9,331.8z"/>
			<path class="st9" d="M368.6,403.9L368.6,403.9c-6.4,1.9-13.1-1.9-15-8.4l-15.8-55.3c-1.9-6.6,1.8-13.6,8.2-15.5v0
				c6.4-1.9,13.1,1.9,15,8.4l15.8,55.3C378.6,395,375,402,368.6,403.9z"/>
			<path class="st9" d="M413,403.8h-49.9c-3.5,0-6.4-2.9-6.4-6.4v-10.3c0-3.5,2.9-6.4,6.4-6.4H413c3.5,0,6.4,2.9,6.4,6.4v10.3
				C419.5,400.9,416.6,403.8,413,403.8z"/>
			<ellipse class="st12" cx="352.7" cy="279.2" rx="19" ry="18.6"/>
			<path class="st21" d="M357.9,284.8c0.1,2.5,1.4,5,3.7,5.9s5.4-0.4,5.8-2.8"/>
			<circle class="st15" cx="362.7" cy="277.5" r="1.7"/>
			<path class="st13" d="M358.4,270.5c3.3-1.9,6.7-5.3,5.3-8.8c-1.3-3.2-5.5-3.7-8.9-3.7c-4.4,0-8.8,0.1-13,1.3
				c-4.2,1.2-8.2,3.8-10.2,7.7C323.4,283.2,353.6,273.2,358.4,270.5z"/>
			<polygon class="st22" points="429.6,358.5 430.7,329.5 469.5,351.5 469.5,388.6 			"/>
			<polygon class="st23" points="437.3,343.4 446.4,347.5 446.4,363.2 437.3,356.6 			"/>
			<line class="st24" x1="450.5" y1="352.2" x2="463.5" y2="357.4"/>
			<line class="st24" x1="449.3" y1="354.9" x2="462.3" y2="360.2"/>
			<line class="st24" x1="449.9" y1="358.1" x2="462.9" y2="363.4"/>
			<path class="st12" d="M426.4,368.6c0.2,1.3-0.1,2.7-1.1,3.5c-1,0.8-2.7,0.7-3.3-0.5c-0.3-0.6-0.3-1.3-0.6-2
				c-0.8-1.9-3.5-1.7-5.6-1.2c-3.6,0.9-7.3,2-10.9,2.5C398.9,358.2,425,359.2,426.4,368.6z"/>
			<path class="st12" d="M431.3,384.6c1.1-0.1,2.1-0.2,3.2,0.1c2.4,0.6,3.8,3,5,5.2c0.8,1.4,1.6,3,1.4,4.6c-0.2,1.6-1.9,3.1-3.4,2.5
				c-0.8-0.4-1.3-1.2-2.1-1.6c-0.8-0.4-1.8-0.1-2.7,0.2c-1.9,0.8-3.7,1.9-5.6,2.4c-2,0.6-4.3,0.4-5.8-1c-1.7-1.8-1.4-4.6-1-7
				C421.2,384.2,426.6,385.1,431.3,384.6z"/>
			<path class="st9" d="M419.1,401.5L419.1,401.5c-1.8,0-3.3-1.5-3.3-3.3v-13.1c0-1.8,1.5-3.3,3.3-3.3l0,0c1.8,0,3.3,1.5,3.3,3.3
				v13.1C422.4,400,420.9,401.5,419.1,401.5z"/>
			<path class="st20" d="M402.6,373.3L402.6,373.3c-1.8,0-3.3-1.5-3.3-3.3v-6.9c0-1.8,1.5-3.3,3.3-3.3l0,0c1.8,0,3.3,1.5,3.3,3.3
				v6.9C405.9,371.8,404.4,373.3,402.6,373.3z"/>
		</g>
		<path class="st8" d="M517.7,405.5c1.3-1.1,2.9-2.4,4.6-2.1c1.5,0.3,2.5,1.7,2.6,3.2c0.2,1.5-0.4,2.9-1.1,4.3
			c-2.6,5.1-7.9,9.3-13.6,8.7c-0.5,0-1-0.1-1.4-0.4c-0.7-0.5-0.9-1.3-1-2.1C506.5,408.9,512.2,410.1,517.7,405.5z"/>
		<path class="st8" d="M510.1,394c5.2-1.7,10.1-4.3,14.5-7.5c1.2,0.4,1.9,1.9,1.8,3.2c-0.1,1.3-0.7,2.5-1.4,3.6
			c-2.7,4.3-6.3,8.5-11.2,9.7c-1,0.2-2.2,0.3-2.8-0.6c-0.4-0.6-0.4-1.3-0.3-2c0.2-2.2,0.4-4.4,0.6-6.6"/>
	</g>
</g>
<g>
	<path class="st25" d="M235.1,449.2c0-4.3,3.4-7.6,7.6-7.6s7.6,3.3,7.6,7.6s-3.4,7.6-7.6,7.6S235.1,453.6,235.1,449.2z M247.1,449.2
		c0-2.6-1.9-4.4-4.3-4.4s-4.3,1.7-4.3,4.4s1.9,4.4,4.3,4.4S247.1,451.9,247.1,449.2z"/>
	<path class="st25" d="M255.9,449.2c0-4.3,3.4-7.6,7.6-7.6s7.6,3.3,7.6,7.6s-3.4,7.6-7.6,7.6S255.9,453.6,255.9,449.2z M267.8,449.2
		c0-2.6-1.9-4.4-4.3-4.4s-4.3,1.7-4.3,4.4s1.9,4.4,4.3,4.4S267.8,451.9,267.8,449.2z"/>
	<path class="st25" d="M288,446.9c0,2.8-2.2,5-5.1,5h-2.2v4.6h-3.4v-14.7h5.6C285.7,441.9,288,444.1,288,446.9z M284.6,446.9
		c0-1.1-0.8-1.9-1.8-1.9h-2.2v3.8h2.2C283.9,448.8,284.6,448,284.6,446.9z"/>
	<path class="st25" d="M292.7,453.2l2.9-1.7c0.5,1.2,1.4,2,3.1,2c1.6,0,2-0.6,2-1.2c0-0.9-0.8-1.3-3-1.9c-2.2-0.6-4.3-1.7-4.3-4.5
		c0-2.8,2.4-4.5,4.9-4.5c2.4,0,4.3,1.2,5.4,3.3l-2.8,1.7c-0.5-1-1.2-1.7-2.5-1.7c-1.1,0-1.6,0.5-1.6,1.1c0,0.7,0.4,1.1,2.6,1.8
		c2.2,0.7,4.7,1.4,4.7,4.6c0,2.8-2.3,4.5-5.5,4.5C295.5,456.9,293.5,455.4,292.7,453.2z"/>
	<path class="st25" d="M309.6,454.9c0-1.1,0.9-2,2-2s2,0.9,2,2s-0.9,2-2,2S309.6,456,309.6,454.9z M309.7,446.1v-4.2h3.8v4.2
		l-0.6,5.2h-2.5L309.7,446.1z"/>
	<path class="st25" d="M65.5,487.5v1h-8v-14.7h1.1v13.6H65.5z"/>
	<path class="st25" d="M80.9,484.8h-7.4l-1.4,3.7h-1.2l5.7-14.7h1.2l5.7,14.7h-1.2L80.9,484.8z M80.5,483.8l-3.3-8.5l-3.3,8.5H80.5z
		"/>
	<path class="st25" d="M109.2,478.4c0,2.6-1.9,4.5-4.6,4.5h-3.9v5.6h-1.1v-14.7h5C107.3,473.9,109.2,475.8,109.2,478.4z
		 M108.1,478.4c0-2-1.4-3.5-3.5-3.5h-3.9v7h3.9C106.6,481.9,108.1,480.5,108.1,478.4z"/>
	<path class="st25" d="M123.2,484.8h-7.4l-1.4,3.7h-1.2l5.7-14.7h1.2l5.7,14.7h-1.2L123.2,484.8z M122.8,483.8l-3.3-8.5l-3.3,8.5
		H122.8z M119.6,472.4h-1l1.7-2.7h1.3L119.6,472.4z"/>
	<path class="st25" d="M145.6,482.3c0,3.5-2.7,6.5-7.1,6.5c-4.6,0-7.7-3.4-7.7-7.6s3.2-7.6,7.6-7.6c2.7,0,5.1,1.4,6.3,3.5l-1,0.6
		c-1-1.8-3-3.1-5.3-3.1c-3.9,0-6.5,2.9-6.5,6.5s2.7,6.5,6.6,6.5c3.6,0,5.7-2.2,6-5h-6.2v-1h7.4V482.3z"/>
	<path class="st25" d="M153.7,473.9v14.7h-1.1v-14.7H153.7z"/>
	<path class="st25" d="M172.3,473.9v14.7h-1l-8.7-12.6v12.6h-1.1v-14.7h1l8.7,12.6v-12.6H172.3z"/>
	<path class="st25" d="M188.6,484.8h-7.4l-1.4,3.7h-1.2l5.7-14.7h1.2l5.7,14.7H190L188.6,484.8z M188.2,483.8l-3.3-8.5l-3.3,8.5
		H188.2z"/>
	<path class="st25" d="M219.4,486.7l1.7,1.7l-0.8,0.7l-1.8-1.7c-1.2,0.9-2.8,1.4-4.5,1.4c-4.2,0-7.6-3.4-7.6-7.6s3.4-7.6,7.6-7.6
		s7.6,3.4,7.6,7.6C221.7,483.4,220.8,485.3,219.4,486.7z M217.8,486.6l-3.3-3.2l0.8-0.7l3.3,3.3c1.2-1.2,2-2.9,2-4.7
		c0-3.6-2.9-6.5-6.5-6.5s-6.5,2.9-6.5,6.5s2.9,6.5,6.5,6.5C215.5,487.7,216.7,487.3,217.8,486.6z"/>
	<path class="st25" d="M228.5,483.7v-9.8h1.1v9.8c0,2.4,1.5,4.1,4.3,4.1c2.8,0,4.3-1.7,4.3-4.1v-9.8h1.1v9.8c0,3.1-2.2,5.1-5.4,5.1
		S228.5,486.8,228.5,483.7z"/>
	<path class="st25" d="M255.4,487.5v1h-8.5v-14.7h8.4v1H248v5.7h6.7v1H248v5.8H255.4z"/>
	<path class="st25" d="M280.6,487.5v1h-8.5v-14.7h8.4v1h-7.2v5.7h6.7v1h-6.7v5.8H280.6z"/>
	<path class="st25" d="M286.6,485.4l1-0.6c0.5,1.8,2,3,4.4,3c2.5,0,3.7-1.3,3.7-2.9c0-1.8-1.6-2.4-3.8-3.1c-2.5-0.8-4.7-1.5-4.7-4.1
		c0-2.4,2-3.9,4.5-3.9c2.4,0,4,1.4,4.7,3.1l-0.9,0.5c-0.5-1.3-1.7-2.5-3.8-2.5c-2,0-3.3,1.2-3.3,2.8c0,1.8,1.5,2.3,3.6,3
		c2.6,0.9,4.9,1.7,4.9,4.2c0,2.4-1.9,4-4.8,4C289.2,488.8,287.3,487.4,286.6,485.4z"/>
	<path class="st25" d="M312.3,474.9h-4.6v13.6h-1.1v-13.6h-4.6v-1h10.4V474.9z"/>
	<path class="st25" d="M326.2,484.8h-7.4l-1.4,3.7h-1.2l5.7-14.7h1.2l5.7,14.7h-1.2L326.2,484.8z M325.8,483.8l-3.3-8.5l-3.3,8.5
		H325.8z"/>
	<path class="st25" d="M333.8,485.4l1-0.6c0.5,1.8,2,3,4.4,3c2.5,0,3.7-1.3,3.7-2.9c0-1.8-1.6-2.4-3.8-3.1c-2.5-0.8-4.7-1.5-4.7-4.1
		c0-2.4,2-3.9,4.5-3.9c2.4,0,4,1.4,4.7,3.1l-0.9,0.5c-0.5-1.3-1.7-2.5-3.8-2.5c-2,0-3.3,1.2-3.3,2.8c0,1.8,1.5,2.3,3.6,3
		c2.6,0.9,4.9,1.7,4.9,4.2c0,2.4-1.9,4-4.8,4C336.4,488.8,334.5,487.4,333.8,485.4z"/>
	<path class="st25" d="M371.1,484.6c0,2.2-1.8,4-4,4h-6.3v-14.7h5.9c2.1,0,3.9,1.7,3.9,3.9c0,1.4-0.8,2.6-1.9,3.2
		C370.1,481.5,371.1,482.9,371.1,484.6z M361.9,474.9v5.6h4.7c1.5,0,2.8-1.3,2.8-2.8s-1.2-2.8-2.8-2.8H361.9z M370,484.6
		c0-1.6-1.3-3-2.9-3h-5.2v5.9h5.2C368.7,487.5,370,486.2,370,484.6z"/>
	<path class="st25" d="M377.7,483.7v-9.8h1.1v9.8c0,2.4,1.5,4.1,4.3,4.1c2.8,0,4.3-1.7,4.3-4.1v-9.8h1.1v9.8c0,3.1-2.2,5.1-5.4,5.1
		S377.7,486.8,377.7,483.7z"/>
	<path class="st25" d="M395.3,485.4l1-0.6c0.5,1.8,2,3,4.4,3c2.5,0,3.7-1.3,3.7-2.9c0-1.8-1.6-2.4-3.8-3.1c-2.5-0.8-4.7-1.5-4.7-4.1
		c0-2.4,2-3.9,4.5-3.9c2.4,0,4,1.4,4.7,3.1l-0.9,0.5c-0.5-1.3-1.7-2.5-3.8-2.5c-2,0-3.3,1.2-3.3,2.8c0,1.8,1.5,2.3,3.6,3
		c2.6,0.9,4.9,1.7,4.9,4.2c0,2.4-1.9,4-4.8,4C397.9,488.8,395.9,487.4,395.3,485.4z"/>
	<path class="st25" d="M411.5,481.2c0-4.2,3.2-7.6,7.6-7.6c2.7,0,5.1,1.4,6.3,3.5l-1,0.6c-1-1.8-3-3-5.3-3c-3.9,0-6.5,2.9-6.5,6.5
		s2.7,6.5,6.5,6.5c2.3,0,4.4-1.2,5.4-3.1l1,0.6c-1.2,2.2-3.6,3.6-6.3,3.6C414.6,488.8,411.5,485.4,411.5,481.2z"/>
	<path class="st25" d="M440.5,484.8h-7.4l-1.4,3.7h-1.2l5.7-14.7h1.2l5.7,14.7H442L440.5,484.8z M440.1,483.8l-3.3-8.5l-3.3,8.5
		H440.1z"/>
	<path class="st25" d="M460.2,473.9v14.7h-1l-8.7-12.6v12.6h-1.1v-14.7h1l8.7,12.6v-12.6H460.2z"/>
	<path class="st25" d="M480.5,481.2c0,4.1-2.9,7.3-6.9,7.3h-5.5v-14.7h5.5C477.7,473.9,480.5,477.2,480.5,481.2z M479.5,481.2
		c0-3.5-2.4-6.3-5.8-6.3h-4.4v12.6h4.4C477.1,487.5,479.5,484.7,479.5,481.2z"/>
	<path class="st25" d="M486.7,481.2c0-4.2,3.3-7.6,7.6-7.6s7.6,3.4,7.6,7.6s-3.3,7.6-7.6,7.6S486.7,485.4,486.7,481.2z M500.8,481.2
		c0-3.6-2.8-6.5-6.5-6.5s-6.5,2.9-6.5,6.5s2.8,6.5,6.5,6.5S500.8,484.8,500.8,481.2z"/>
	<path class="st25" d="M225.5,505.9v14.7h-1l-8.7-12.6v12.6h-1.1v-14.7h1l8.7,12.6v-12.6H225.5z"/>
	<path class="st25" d="M232.6,513.2c0-4.2,3.3-7.6,7.6-7.6s7.6,3.4,7.6,7.6s-3.3,7.6-7.6,7.6S232.6,517.4,232.6,513.2z M246.6,513.2
		c0-3.6-2.8-6.5-6.5-6.5s-6.5,2.9-6.5,6.5s2.8,6.5,6.5,6.5S246.6,516.8,246.6,513.2z"/>
	<path class="st25" d="M273,519.5v1h-8.5v-14.7h8.4v1h-7.2v5.7h6.7v1h-6.7v5.8H273z"/>
	<path class="st25" d="M288.4,520.6l-4.2-6.6l-4.2,6.6h-1.3l4.9-7.6l-4.6-7.1h1.3l4,6.2l4-6.2h1.3l-4.6,7.1l4.9,7.6H288.4z"/>
	<path class="st25" d="M297.3,505.9v14.7h-1.1v-14.7H297.3z"/>
	<path class="st25" d="M304,517.4l1-0.6c0.5,1.8,2,3,4.4,3c2.5,0,3.7-1.3,3.7-2.9c0-1.8-1.6-2.4-3.8-3.1c-2.5-0.8-4.7-1.5-4.7-4.1
		c0-2.4,2-3.9,4.5-3.9c2.4,0,4,1.4,4.7,3.1l-0.9,0.5c-0.5-1.3-1.7-2.5-3.8-2.5c-2,0-3.3,1.2-3.3,2.8c0,1.8,1.5,2.3,3.6,3
		c2.6,0.9,4.9,1.7,4.9,4.2c0,2.4-1.9,4-4.8,4C306.7,520.8,304.7,519.4,304,517.4z"/>
	<path class="st25" d="M329.7,506.9h-4.6v13.6h-1.1v-13.6h-4.6v-1h10.4V506.9z"/>
	<path class="st25" d="M344.6,519.5v1h-8.5v-14.7h8.4v1h-7.2v5.7h6.7v1h-6.7v5.8H344.6z"/>
</g>
</svg>
