<?xml version="1.0" encoding="utf-8"?>
<!-- Generator: Adobe Illustrator 21.0.0, SVG Export Plug-In . SVG Version: 6.00 Build 0)  -->
<svg version="1.1" id="Capa_1" xmlns="http://www.w3.org/2000/svg" xmlns:xlink="http://www.w3.org/1999/xlink" x="0px" y="0px"
	 viewBox="0 0 159 156" style="enable-background:new 0 0 159 156;" xml:space="preserve">
<style type="text/css">
	.st0{fill:#999999;}
	.st1{fill:#4B71B5;}
	.st2{fill:#9BAAAB;}
	.st3{fill:#687F82;}
	.st4{fill:#2D4563;}
	.st5{fill:#E6EAEA;}
	.st6{fill:#CDD4D5;}
	.st7{fill:#FFFFFF;}
	.st8{fill:#B3B3B3;}
</style>
<g>
	<path class="st0" d="M127.6,127.3c-0.5,0-1.1-0.2-1.5-0.6L107.4,108c-0.8-0.8-0.8-2.1,0-2.9c0.8-0.8,2.1-0.8,2.9,0l18.8,18.8
		c0.8,0.8,0.8,2.1,0,2.9C128.7,127.1,128.1,127.3,127.6,127.3z"/>
	<path class="st1" d="M112.3,30.4c-10.6-10.6-24.8-16.5-39.8-16.5s-29.2,5.9-39.8,16.5c-21.9,21.9-21.9,57.6,0,79.6
		c10.6,10.6,24.8,16.5,39.8,16.5s29.2-5.9,39.8-16.5c10.6-10.6,16.5-24.8,16.5-39.8S122.9,41,112.3,30.4z"/>
	<path class="st2" d="M146.7,132L131,116.4c-0.8-0.8-2.1-0.8-2.9,0l-9.4,9.4c-0.8,0.8-0.8,2.1,0,2.9l15.6,15.6
		c0.4,0.4,0.9,0.6,1.5,0.6c0.5,0,1.1-0.2,1.5-0.6l9.4-9.4C147.5,134.1,147.5,132.8,146.7,132z"/>
	<path class="st3" d="M123.3,121.2l-4.6,4.6c-0.8,0.8-0.8,2.1,0,2.9l15.6,15.6c0.4,0.4,0.9,0.6,1.5,0.6s1.1-0.2,1.5-0.6l4.6-4.6
		L123.3,121.2z"/>
	<path class="st4" d="M32.6,30.5C10.8,52.4,10.8,88,32.7,109.9c10.6,10.6,24.8,16.5,39.8,16.5c15,0,29-5.8,39.7-16.3L32.6,30.5z"/>
	<path class="st5" d="M101,41.6c-15.7-15.7-41.3-15.7-57.1,0c-7.6,7.6-11.8,17.8-11.8,28.5s4.2,20.9,11.8,28.5
		c7.9,7.9,18.2,11.8,28.5,11.8c10.3,0,20.7-3.9,28.5-11.8C116.8,82.9,116.8,57.3,101,41.6z"/>
	<path class="st6" d="M43.8,41.7c-7.5,7.6-11.7,17.7-11.7,28.4c0,10.8,4.2,20.9,11.8,28.5c7.9,7.9,18.2,11.8,28.5,11.8
		c10.3,0,20.6-3.9,28.4-11.7L43.8,41.7z"/>
	<g>
		<path class="st7" d="M118.4,72.2c-1.1,0-2.1-0.9-2.1-2.1c0-5.9-1.1-11.6-3.4-16.9c-0.4-1.1,0.1-2.3,1.1-2.7
			c1.1-0.4,2.3,0.1,2.7,1.1c2.4,5.8,3.7,12.1,3.7,18.5C120.5,71.3,119.5,72.2,118.4,72.2z"/>
		<path class="st7" d="M109.9,45.7c-0.6,0-1.3-0.3-1.7-0.9c-1.4-2-3-3.9-4.8-5.6c-8.3-8.3-19.3-12.8-31-12.8c-1.1,0-2.1-0.9-2.1-2.1
			c0-1.1,0.9-2.1,2.1-2.1c12.8,0,24.9,5,33.9,14.1c1.9,1.9,3.7,4,5.2,6.2c0.7,0.9,0.4,2.2-0.5,2.9C110.8,45.5,110.4,45.7,109.9,45.7
			z"/>
	</g>
	<path class="st2" d="M56.7,53.7h-9.9c-1.1,0-2.1,0.9-2.1,2.1v27.6c0,1.1,0.9,2.1,2.1,2.1h9.9c1.1,0,2.1-0.9,2.1-2.1V55.8
		C58.8,54.6,57.9,53.7,56.7,53.7z"/>
	<path class="st0" d="M76.7,57h-9.9c-1.1,0-2.1,0.9-2.1,2.1v24.3c0,1.1,0.9,2.1,2.1,2.1h9.9c1.1,0,2.1-0.9,2.1-2.1V59.1
		C78.8,58,77.8,57,76.7,57z"/>
	<path class="st8" d="M96.7,47h-9.9c-1.1,0-2.1,0.9-2.1,2.1v34.3c0,1.1,0.9,2.1,2.1,2.1h9.9c1.1,0,2.1-0.9,2.1-2.1V49.1
		C98.7,48,97.8,47,96.7,47z"/>
	<path class="st2" d="M101,85.4H42.4c-1.1,0-2.1-0.8-2.1-1.9c-0.1-1.2,0.9-2.2,2.1-2.2h58.6c1.1,0,2.1,0.8,2.1,1.9
		C103.1,84.5,102.2,85.4,101,85.4z"/>
	<g>
	</g>
	<g>
	</g>
	<g>
	</g>
	<g>
	</g>
	<g>
	</g>
	<g>
	</g>
	<g>
	</g>
	<g>
	</g>
	<g>
	</g>
	<g>
	</g>
	<g>
	</g>
	<g>
	</g>
	<g>
	</g>
	<g>
	</g>
	<g>
	</g>
</g>
</svg>
