<?xml version="1.0" encoding="utf-8"?>
<!-- Generator: Adobe Illustrator 21.0.0, SVG Export Plug-In . SVG Version: 6.00 Build 0)  -->
<svg version="1.1" id="Capa_1" xmlns="http://www.w3.org/2000/svg" xmlns:xlink="http://www.w3.org/1999/xlink" x="0px" y="0px"
	 viewBox="0 0 200 200" style="enable-background:new 0 0 200 200;" xml:space="preserve">
<style type="text/css">
	.st0{fill:#3C4E76;}
	.st1{fill:#80A8CD;}
	.st2{fill:#3277dc;}
	.st3{fill:#AABECE;}
	.st4{fill:#FFFFFF;}
	.st5{fill:#DCDCDC;}
</style>
<g>
	<g>
		<g>
			<path class="st0" d="M196.7,100c0,44.1-29.5,81.3-69.9,92.9c-4,1.1-8.1,2-12.2,2.7c-4.7,0.7-9.6,1.1-14.5,1.1
				c-7.7,0-15.2-0.9-22.3-2.6c-4.1-1-8-2.2-11.9-3.6C29.4,176.6,3.5,141.4,3.5,100c0-53.4,43.3-96.6,96.6-96.6
				c25.8,0,49.2,10.1,66.5,26.5c0.8,0.7,1.5,1.5,2.3,2.3c6.9,7,12.7,15,17.2,23.8c0.4,0.8,0.8,1.5,1.1,2.3
				C193.4,71,196.7,85.1,196.7,100z"/>
		</g>
	</g>
</g>
<g>
	<g>
		<path class="st1" d="M91.2,113.2l-1.1-1.1l-4.2-4.2l-1.1-1.1l-1.1-1.1L56.3,133c0.6-0.6,1.6-0.6,2.3,0l6.4,6.4
			c0.6,0.6,0.6,1.6,0,2.3l27.3-27.3L91.2,113.2z"/>
		<path class="st1" d="M62.7,141.7l-6.4-6.4c-0.6-0.6-0.6-1.6,0-2.3l-8,8c-0.6,0.6-0.6,1.6,0,2.3l6.4,6.4c0.6,0.6,1.6,0.6,2.3,0l8-8
			C64.4,142.3,63.4,142.3,62.7,141.7z"/>
	</g>
	<g>
		<g>
			<path class="st2" d="M65,139.4l-6.4-6.4c-0.6-0.6-1.6-0.7-2.3,0c-0.6,0.6-0.7,1.6,0,2.3c0,0,0,0,0,0l6.4,6.4
				c0.6,0.6,1.7,0.6,2.3,0C65.6,141,65.6,140,65,139.4z"/>
			<circle class="st2" cx="110.4" cy="87.5" r="33.7"/>
		</g>
	</g>
	<circle class="st3" cx="110.4" cy="87.5" r="22.7"/>
	<path class="st4" d="M96,89.2c-0.9,0-1.6-0.7-1.6-1.6c0-8.9,7.2-16,16.1-16.1c0.9,0,1.6,0.7,1.6,1.6s-0.7,1.6-1.6,1.6
		c-7.1,0-12.8,5.8-12.8,12.8C97.6,88.4,96.9,89.2,96,89.2z"/>
	<g>
		<path class="st5" d="M66.7,76.5c-4.4,0-8-3.6-8-8c0-0.9-0.7-1.6-1.6-1.6c-0.9,0-1.6,0.7-1.6,1.6c0,4.4-3.6,8-8,8
			c-0.9,0-1.6,0.7-1.6,1.6s0.7,1.6,1.6,1.6c4.4,0,8,3.6,8,8c0,0.9,0.7,1.6,1.6,1.6c0.9,0,1.6-0.7,1.6-1.6c0-4.4,3.6-8,8-8
			c0.9,0,1.6-0.7,1.6-1.6C68.3,77.2,67.6,76.5,66.7,76.5z M57.1,81.9c-1-1.6-2.3-2.9-3.9-3.9c1.6-1,2.9-2.3,3.9-3.9
			c1,1.6,2.3,2.9,3.9,3.9C59.4,79,58.1,80.4,57.1,81.9z"/>
		<path class="st5" d="M140.9,148.9c-2.7,0-4.8-2.2-4.8-4.8c0-0.9-0.7-1.6-1.6-1.6s-1.6,0.7-1.6,1.6c0,2.7-2.2,4.8-4.8,4.8
			c-0.9,0-1.6,0.7-1.6,1.6s0.7,1.6,1.6,1.6c2.7,0,4.8,2.2,4.8,4.8c0,0.9,0.7,1.6,1.6,1.6s1.6-0.7,1.6-1.6c0-2.7,2.2-4.8,4.8-4.8
			c0.9,0,1.6-0.7,1.6-1.6S141.8,148.9,140.9,148.9z M134.5,152.2c-0.5-0.6-1-1.2-1.7-1.7c0.6-0.5,1.2-1,1.7-1.7
			c0.5,0.6,1,1.2,1.7,1.7C135.5,151,135,151.5,134.5,152.2z"/>
	</g>
	<g>
	</g>
	<g>
	</g>
	<g>
	</g>
	<g>
	</g>
	<g>
	</g>
	<g>
	</g>
	<g>
	</g>
	<g>
	</g>
	<g>
	</g>
	<g>
	</g>
	<g>
	</g>
	<g>
	</g>
	<g>
	</g>
	<g>
	</g>
	<g>
	</g>
</g>
<circle class="st5" cx="81.1" cy="150.6" r="2.1"/>
<ellipse transform="matrix(0.4468 -0.8947 0.8947 0.4468 -32.2679 206.6583)" class="st5" cx="151" cy="129.4" rx="2.1" ry="2.1"/>
<ellipse transform="matrix(0.4468 -0.8947 0.8947 0.4468 -53.829 73.6703)" class="st5" cx="32.7" cy="80.4" rx="2.1" ry="2.1"/>
<ellipse transform="matrix(0.4468 -0.8947 0.8947 0.4468 -6.9432 92.8922)" class="st5" cx="71.6" cy="52.1" rx="2.1" ry="2.1"/>
</svg>
