<?xml version="1.0" encoding="utf-8"?>
<!-- Generator: Adobe Illustrator 21.0.0, SVG Export Plug-In . SVG Version: 6.00 Build 0)  -->
<svg version="1.1" id="Capa_1" xmlns="http://www.w3.org/2000/svg" xmlns:xlink="http://www.w3.org/1999/xlink" x="0px" y="0px"
	 viewBox="0 0 210 219" style="enable-background:new 0 0 210 219;" xml:space="preserve">
<style type="text/css">
	.st0{fill:#3B4F73;}
	.st1{fill:#C9DDE2;}
	.st2{fill:#A9BECD;}
	.st3{fill:#FFFFFF;}
</style>
<g>
	<circle class="st0" cx="104" cy="110" r="102.4"/>
	<path class="st1" d="M130,136.5H67.6V78.4h97.1L149.4,124C146.9,131.4,139,136.5,130,136.5z"/>
	<path class="st2" d="M106.2,78.4v58.2H130c9,0,17-5.1,19.5-12.5l15.3-45.6L106.2,78.4L106.2,78.4z"/>
	<path class="st2" d="M142.7,160H81.1c-10.4,0-18.9-8.5-18.9-18.9V76.9c0-6.2-5.1-11.3-11.3-11.3H44V58h6.8
		c10.4,0,18.9,8.5,18.9,18.9v64.2c0,6.2,5.1,11.3,11.3,11.3h61.7L142.7,160L142.7,160z"/>
	<rect x="106.2" y="152.5" class="st2" width="36.6" height="7.6"/>
	<g>
		<g>
			<circle class="st3" cx="82.4" cy="161.7" r="5.5"/>
			<path class="st3" d="M82.4,171c-5.1,0-9.3-4.2-9.3-9.3s4.2-9.3,9.3-9.3s9.3,4.2,9.3,9.3C91.7,166.9,87.5,171,82.4,171z M82.4,160
				c-0.9,0-1.7,0.8-1.7,1.7s0.8,1.7,1.7,1.7s1.7-0.8,1.7-1.7S83.3,160,82.4,160z"/>
			<circle class="st3" cx="126.3" cy="161.7" r="5.5"/>
			<path class="st3" d="M126.3,171c-5.1,0-9.3-4.2-9.3-9.3s4.2-9.3,9.3-9.3c5.1,0,9.3,4.2,9.3,9.3C135.6,166.9,131.4,171,126.3,171z
				 M126.3,160c-0.9,0-1.7,0.8-1.7,1.7s0.8,1.7,1.7,1.7s1.7-0.8,1.7-1.7C128,160.8,127.2,160,126.3,160z"/>
		</g>
	</g>
</g>
</svg>
