<?xml version="1.0" encoding="utf-8"?>
<!-- Generator: Adobe Illustrator 21.0.0, SVG Export Plug-In . SVG Version: 6.00 Build 0)  -->
<svg version="1.1" id="Capa_1" xmlns="http://www.w3.org/2000/svg" xmlns:xlink="http://www.w3.org/1999/xlink" x="0px" y="0px"
	 viewBox="0 0 600 600" style="enable-background:new 0 0 600 600;" xml:space="preserve">
<style type="text/css">
	.st0{fill:none;stroke:#FFFFFF;}
	.st1{clip-path:url(#SVGID_2_);}
	.st2{opacity:0.7;}
</style>
<title>Antofagasta</title>
<g id="g14539">
	<path id="Antofagasta" class="st0" d="M330.1,477.5l4.5-0.4c1.5,2.1,4,2.2,7.5,0.4h7.1c5.1,4.5,10.2-3.9,15.3-7.5
		c3.4-0.7,8.5-0.4,8-2.5c-0.2-3.1,1.4-6,4.2-7.4c1.7-2.5-3.1-6.5,1.6-7.4c1.8-3.7,5.3-2,8.2-1c3.5-0.6,3.9-6,1.5-8.2
		c-1.7-3.1-4.2-5.8-4.9-9.3c-1.8-2.8-2.3-6.5-5.8-7.8s-3.3-5.7-5.8-8c-2.5-2.6,3-4.2,3.5-7c2.1-2.5,1.4-7.4,3.3-9.8
		c3.9,1.3,4.9-2.7,5.6-5.7c1-2.5,1.1-6.4,4.7-6.3c2.5-0.8,6.6,1.1,7.3-2.7c1.3-1.5,1.9-3.3,3.2-4.7s13.8-5.5,13.8-5.5l-0.7-12.7
		l-21.3-25h-7.5l-24.2-7.9l-14.6-1.5L326.7,314l-7.9-4.9l-31-0.4l-9.3,2.2l-38.8-5.2l4.9-20.9l-5.6-32.5l-7.5,9.3l-4.5,9.8l-4.5,5.2
		l-20.1-1.5l-9.3,6h-6.3c-0.8,4.5-0.6,12.4-3,12c-0.7,2.8,0.9,1.7,3.4,3s4.4,1.6,5.6-0.8c0.2-0.4,0.3-5.3,1.8-4.1s4,0.2,5.6,1.8
		c5.1,5.3,4.8,9.8,4.5,16.8c-0.9,2.5-2.7,2.6-3,5.2c-1.3,2.5-3.1,6.1-4.9,7.9c-0.7,0.7-2.3,2.9-1.8,4.9c0.4,1.7-2.2,2.6-0.8,4.1
		c1,1,4.3,1.3,2.6,3c-2.1,10.7,0.4,10.7,0.8,15.6c-0.3,0.6-2.1,4-1.8,4.9c0.4,2.9-1.4,6.1-1.8,8.9c-0.8,4.4-2.7,7.7-4.5,12
		c0.5,1.5,2.8,4.2,2.2,6.3c-1,3.7-1.8,7.5-2.6,11.2c-1.2,0.8-0.6,2.2,0.2,4l13.6,6.1l113.1,4.5l3.7,6.3l-0.4,4.9
		c2.7,5.6,4.4,13.3-2.6,15.3c1.8,6.3-1.5,7.4-3.4,10.1l-2.2,16.4l4.5,1.8l0.4,4.1L330.1,477.5z"/>
	<path id="Tocopilla" class="st0" d="M253.7,92.6c-2.7-0.2-3.9-1-5.9-1.6c-1.9,0.1-3.8,0.3-5.6,0.6c-2.6,1.6-2.5,0.6-4.9-0.2
		c-0.9,0-1.8,0.5-2,1.1s-1.3,2-3.9,3c-1.5,1.6-2,3.6-0.2,6.5l-1.7,2.7c-0.6,3.3-0.1,6.8-5.5,8.9c0.1,2.7-0.4,5.9,1.5,6.7l-1.7,3.9
		c2.9,9.4,0.1,12.7-4.6,13.9c1.2,1.9,5.8,3.2,1.2,6.3c-0.2,3.7-2.1,7.9,0.5,11c-2.4,2.8-3.7,6.4-3.9,10.1c0.8,4.2-0.2,9.4-0.5,14.2
		c-0.4,2-1.7,3.6,0.2,6.7c-2.9,3.9-2,7.5,0.9,10.8c-1.5,2.9-1.6,5.8-3,5.5c-1.6,2.4-0.9,3.7,0,4.8c1.5,1.5,0.9,3-0.8,4.6l28.3-23.2
		l0.7-6.3l-2.4-2.7l0.9-0.9v-9.1c-0.1-3.6,4.3-1.5,7.7-5.1l8.9,0.2c2.5,3.7,2.3,0.6,2.4-1.9c-2.9-2.9-1.4-4.4,0-6
		c3.7-2.8,3.4-5.6,0.7-8.4l-3.4-3.4l-1-8.4l-4.3-0.9l-1.5-1.7h-3.9l6.3-12.3L253.7,92.6z"/>
	<path id="María_Elena" class="st0" d="M253.3,92.6c-0.8-0.1-0.1,29.6-0.1,29.6l-6,12.2h3.9l1.5,1.7l4.3,0.9l1,8.4l3.4,3.4
		c2.7,2.8,2.9,5.6-0.7,8.4c-1.4,1.6-2.9,3.2,0,6c-0.1,2.5,0.1,5.6-2.4,1.9l-9-0.1c-3.4,3.6-7.7,1.5-7.7,5.1v9.1l-0.9,0.9l2.4,2.7
		l-0.7,6.3l2.9,4.8h3l0.2,11l-3.1,12l0.2,6.3l-2.1,3.4l1.2,2.1l-0.9,5.6l40.3-2l28.8-27.9l4.6-13.9l-4.3-12.4l6.4-17.4l16.1-31.9
		l-3.6-13.4l1.5-20l5.4-18.2L304,88.4l-21.9,24.2c-1-0.5-1.7-1.3-2-2.3c-0.9-1-1-2.4-1.6-3.5c-1.2-1.3-2.1-2.8-3.2-4.3
		c-0.8-1.3-1.5-2.6-2.1-4c-0.8-1.1-1.3-2.8-2.7-3.3c-1.8-0.4-4.5-0.8-6-2.2c-0.9-0.8-2-1.1-3.2-1c-1.5,1.5-3,1.3-4.9,0.8
		C255.4,92.7,254.3,92.7,253.3,92.6z"/>
	<path id="Calama-2" class="st0" d="M430.5,185.4c1,3,1.5-0.6-1,0.5s-4,3.4-6.6,3.9c-2.5-1.3-7.5-3.5-6.1,2.4
		c-2.3,4.3-3.2,4.1-4,0.2c-1.9-1.4-4.4-1.6-6.5-0.5c-2,1.5-1.6,6.1-4.6,6c-2-0.1-1,3.8-1.3,5.6c0.2,3.4-5.1,2.9-3.3,5.8
		c0.6,4.2-4.9,5-7.2,4.8c-0.3,3.1-1.6,4.2-5.6,7c-1.6,1.1-2.7,3.9-5.4,6.1c3.1,6-3.9,4.8-2.1,10.4c0.1,3.6-2.9,6.5-1.1,9.8
		c-0.9,2.8-4,4.4-6.8,3.5c-0.2-0.1-0.4-0.2-0.6-0.2c-2.9-0.6-3.2,2.9-5.7,3.1c-3.6-0.2-7-1.8-11.8,4.1l-6.7-4.1l1.9-8.4
		c4.2-4.7-2.3-8.2-4-8.2l-1-2.9l-1.9-2.2l-7-12.2c-6.8-4.9-17.2-6.2-19.4-15.6l4.5-13.9l-4.3-12.5l6.6-17.4l16.1-31.9l-3.6-13.4
		l1.5-20l5.2-18.2l4.4-1.5l30.3-18.7l5.3,15.4l-3.8,5.5l1.7,7.5l-1.9,17.7l5.5,6.3l10.1,6.7l3.4,9.4l-2.1,10.9l17.5,5.2l8.4,6
		l0.7,1.3c1.9,1.2,3.6,2.6,5.1,4.2c0.5,0.4,3.4,1.5,4.1,4.2c0.4,1.6,4,3.1,1.5,5.8c-1.8,4.4,3,7.9,2,12.2
		C430.5,178.5,429.4,182.3,430.5,185.4z"/>
	<path id="Ollagüe" class="st0" d="M417.2,147.4l0.2-19.9l-3.6-4.3l-1.2-3.9l-6.3-7.7V80.4l-9.8-18.8l-12.2-17.3l-5.8-0.2l-2.3,0.4
		l-3,12.2l5.3,15.4l-3.8,5.5l1.7,7.5l-1.9,17.8l5.5,6.3l10.1,6.7l3.4,9.4l-2.1,10.9l17.5,5.2L417.2,147.4z"/>
	<path id="San_Pedro_de_Atacama" class="st0" d="M442.7,233.9c-1.8-3.2-9.4-1.7-6.2-7.4c2-4.9-3.2-7.7-2.6-7.3
		c1.8,1.5,2.6-4.6,1.3-8.3c1.3-3.1,6.9-8.4,1.2-10.4c-4.6-3-0.8-9.8-4.8-13.1c-0.5-0.6-1-1.3-1.2-2.1s1.5-0.6-1,0.5s-4,3.4-6.6,3.9
		c-2.5-1.3-7.5-3.5-6.1,2.4c-2.3,4.3-3.2,4.1-4,0.2c-1.9-1.4-4.4-1.6-6.5-0.5c-2,1.5-1.6,6.1-4.6,6c-2-0.1-1,3.8-1.3,5.6
		c0.2,3.4-5.1,2.9-3.3,5.8c0.6,4.2-4.9,5-7.2,4.8c-0.3,3.1-1.6,4.2-5.6,7c-1.6,1.1-2.7,3.9-5.4,6.1c3.1,6-3.9,4.8-2.1,10.4
		c0.1,3.6-2.9,6.5-1.1,9.8c-0.9,2.8-4,4.4-6.8,3.5c-0.2-0.1-0.4-0.2-0.6-0.2c-2.9-0.6-3.2,2.9-5.7,3.1c1.3,3.6,4.6,6.3,1.3,11.7
		c-5.1,2.2-5,11.5-5.2,20.5l-0.4,11.2c-0.6,1.6-0.8,3.2,1.5,4.9v7.8c1.5,2,1.5,3.5,0,4.5l-0.8,16.8l24.3,7.9h7.5l21.3,25l0.8,12.9
		l70.6-28.1l31.3-103.4L499,228.2l-33.2,8.2L442.7,233.9z"/>
	<path id="Sierra_Gorda" class="st0" d="M243.6,234.1l40.3-2l28.8-27.9c2.3,9.4,12.7,10.7,19.4,15.6l7.1,12.2l1.9,2.2l1,2.9
		c1.8,0,8.3,3.5,4,8.2l-1.9,8.5l6.7,4.1c4.8-5.8,8.2-4.4,11.8-4.1c1.3,3.6,4.6,6.3,1.3,11.7c-5.1,2.2-5,11.5-5.2,20.5l-0.4,11.2
		c-0.6,1.6-0.8,3.2,1.5,4.9v7.9c1.5,2,1.5,3.5,0,4.5l-0.8,16.8l-14.6-1.5L326.7,314l-7.9-4.9l-31-0.4l-9.3,2.2l-38.8-5.2l4.9-20.9
		l-5.6-32.5l0.4-7.1l-1.5-3.4v-7.9L243.6,234.1z"/>
	<path id="Mejillones" class="st0" d="M186.8,281.2c0.2-1-0.4-3.5-0.4-4.9s-1.1-3.2-1.1-4.5c-0.1-1.7,0.1-3.3,0.8-4.9
		c1.7-3.3,2.4-6.5-0.4-9.3c-1.1-3,2.9-9.5,6.7-9.7c0.2,2.7-0.7,6.6,3.7,7.1c14.1-4.1,16.7-17,17.5-21.3c-0.8-2.1-4.2-4.3-1.8-8.9
		c3-3.2,2.3-12.2,2.1-12.5l28.3-23.3l2.9,4.8h3.1l0.2,11l-3.1,12l0.2,6.3l-2.1,3.4l1.2,2.1l-0.9,5.6h-5.8v7.8l1.5,3.4l-0.4,7.1
		l-7.5,9.3l-4.5,9.6l-4.5,5.2l-20.1-1.5l-9.3,6L186.8,281.2L186.8,281.2z"/>
	<path id="Taltal" class="st0" d="M330.1,477.5c2,2,3.3,3.9,0.4,4.9c3.2,4.2,1.9,7.9-1.8,11.2l-5.6,3.4c4.4,0.9,4.6,3.5,4.1,6.3
		c2.1,2.8,6.5,6.4,1.1,6.3c0.8,2.1,0.4,4.2-3.7,6.3c-1.8,3.5-3.8,7-15.3,6.7l-11.2,4.5c-1.5-3.4-3-2.7-4.5-2.2
		c0.2,2.3-2.5,1.7-5.2,1.1c0.4,2.7-0.1,4.2-2.6,3l0.8,4.9c-8-2.5-18.3,0.2-19.8-3c-4.5,0.1-10,1.8-12.7-0.8l-1.8,3.4
		c-3.9-2.4-5.8-4.2-6.7-5.6c-3.4,0.8-7.4,1.3-8.9,3l-4.1,3l-10.1-1.5l-5.6-1.1c0.4-5.2-3.7-3-6-3.7c0.1,10.1-5.8,5.5-9.3,6.7
		c-2.9,3.5-6,6.7-12.7,5.2c-1.7,4.4-3.6,9.4-6.3,7.1s-2.7,3-1.1-0.8c1.6-3.3,1.7-7.1,0.4-10.5c-2-2.7-4.1-4.4-6-7.5
		c-4.1-5.8-2.8-8.4-0.8-9.3c-0.6-3.4,7.3-1,3-7.1c-2.9-3.5,1.5-5.8,3.4-8.2c2.3-2.6,2.2-6,3.4-9.3c-0.3-4.4,5.9-4.9,7.1-7.5
		c1.5-2.9,1.8-5.6,4.5-7.5c1.4-0.5,2.5-1.6,3-3c1.1-2.3-0.3-4,0.4-6.7c0.6-2.3,1.6-4,2.2-6.3c0.7-3.2-1.5-6.4-3.4-8.9
		c-1.4-1.8-2.8-3.9-3-4.9c1.5-2.5,3.7-4.9,2.2-8.6c-2.6-3.8-4.3-8.1-4.9-12.7c-2.2-6.3-3.7-12.8-4.5-19.4c4.8-3.7,2.5-7.6,1-10.6
		l13.6,6.1l113.1,4.5l3.7,6.3l-0.4,4.9c2.7,5.6,4.4,13.3-2.6,15.3c1.8,6.3-1.5,7.4-3.4,10.1l-2.2,16.4l4.5,1.8l0.4,4.1L330.1,477.5z
		"/>
	<path id="LÍMITE_TARAPACÁ" class="st0" d="M376.3,44.6l-3,12.2L343,75.6l-39.1,12.7l-21.8,24.2c-1-0.5-1.7-1.3-2-2.3
		c-0.9-1-1-2.4-1.6-3.5c-1.2-1.3-2.1-2.8-3.2-4.3c-0.8-1.3-1.5-2.6-2.1-4c-0.8-1.1-1.3-2.8-2.7-3.3c-1.8-0.4-4.5-0.8-6-2.2
		c-0.9-0.8-2-1.1-3.2-1c-1.5,1.5-3,1.3-4.9,0.8c-4.8,0.1-6-0.9-8.6-1.7c-1.9,0.1-3.8,0.3-5.6,0.6c-2.6,1.6-2.5,0.6-4.9-0.2
		c-0.9,0-1.4,0.9-2,1.1"/>
	<path id="LÍMITE_ATACAMA" class="st0" d="M372.6,467.1c0.3,2.5-4.9,2.2-8.2,2.9c-5.1,3.5-10.2,12-15.3,7.5H342
		c-3.5,1.8-6,1.8-7.5-0.4l-4.5,0.4c2,2,3.3,3.9,0.4,4.9c3.2,4.2,1.9,7.9-1.8,11.2L323,497c4.4,0.9,4.6,3.5,4.1,6.3
		c2.1,2.8,6.5,6.4,1.1,6.3c0.8,2.1,0.4,4.2-3.7,6.3c-1.8,3.5-3.8,7-15.3,6.7l-11.2,4.5c-1.5-3.4-3-2.7-4.5-2.2
		c0.2,2.3-2.5,1.7-5.2,1.1c0.4,2.7-0.1,4.2-2.6,3l0.8,4.9c-8-2.5-18.3,0.2-19.8-3c-4.5,0.1-10,1.8-12.7-0.8l-1.8,3.4
		c-3.9-2.4-5.8-4.2-6.7-5.6c-3.4,0.8-7.4,1.3-8.9,3l-4.1,3l-10.1-1.5l-5.6-1.1c0.4-5.2-3.7-3-6-3.7c0.1,10.1-5.8,5.5-9.3,6.7
		c-2.9,3.5-6,6.7-12.7,5.2c-1.7,4.4-3.6,9.4-6.3,7.1"/>
	<path id="LÍMITE_INTERNACIONAL" class="st0" d="M372.2,467.8c0.1-3.4,1.3-6.1,4.4-7.8c1.7-2.5-3.1-6.5,1.6-7.4
		c1.8-3.7,5.3-2,8.2-1c3.5-0.6,3.9-6,1.5-8.2c-1.7-3.1-4.2-5.8-4.9-9.3c-1.8-2.8-2.3-6.5-5.8-7.8s-3.3-5.7-5.8-8
		c-2.5-2.6,3-4.2,3.5-7c2.1-2.5,1.4-7.4,3.3-9.8c3.9,1.3,4.9-2.7,5.6-5.6c1-2.5,1.1-6.4,4.7-6.3c2.5-0.8,6.6,1.1,7.3-2.7
		c1.3-1.5,1.9-3.3,3.2-4.7s0.8-0.8,0.8-0.8l83.6-32.9l31.3-103.4L499,227.9l-33.2,8.2l-23.2-2.5c-1.8-3.2-9.4-1.7-6.2-7.4
		c2-4.9-3.2-7.7-2.6-7.3c1.8,1.5,2.6-4.6,1.3-8.3c1.3-3.1,6.9-8.4,1.2-10.4c-4.6-3-0.8-9.8-4.8-13.1c-0.5-0.6-1-1.3-1.2-2.1
		c-1-3,0.1-6.8,0.2-10.3c1-4.3-3.9-7.7-2-12.2c2.5-2.7-1.1-4.1-1.5-5.8c-0.8-2.8-3.6-3.9-4.1-4.2c-1.5-1.6-3.2-3.1-5.1-4.2
		c-1.6-0.9-0.7-1.3-0.7-1.3l0.2-19.9l-3.6-4.3l-1.2-3.9l-6.3-7.7V80.4l-9.8-18.8l-12.2-17.3l-5.8-0.2l-2.3,0.4l0,0l-0.6,2.4"/>
</g>
<g>
	<g>
		<defs>
			<circle id="SVGID_1_" cx="301.7" cy="301.9" r="277.6"/>
		</defs>
		<clipPath id="SVGID_2_">
			<use xlink:href="#SVGID_1_"  style="overflow:visible;"/>
		</clipPath>
		<g class="st1">
			<g id="Region_Tarapaca" class="st2">
				<g id="Provincia_Tamarugal">
					<path id="tarapaca" class="region" d="M335.2-150.5c-0.3,0-0.6,0.1-0.8,0.3c-0.3,0.7-0.3,2.5-0.8,2.1c-0.3-0.2-1.1-0.8-2.1,1.2
						c-3.2-0.8-2.9,2.9-5.4,4.1l-0.8-0.1c0.3,1.9-2.4,2.5-3.1,4.1c-0.9,1.7-3.4,0.8-5,1.1c-2.4,0.3-6.6,2.2-9.1,2.8
						c-1.4,0.7-2.5,2-3.9,2.3c-1.8-1.5-1.5-3.9-3.8-4.7c-2.2-0.4-5.4,0.4-6.1-2.3c0-1.4-0.6-3.1-2.5-2.8c-0.9,0.3-1.9,0.1-2.9,0.5
						c-0.1-2.3-5.4-1.2-9.1-1.1c-2.1-0.4-2.1-1.2-8.1-0.8c-5.2,1-7.6-0.1-15.6,2.9c-3.9-1.9-8.3,1.6-12,0.2
						c-3.5,3.2-7.8,5.3-12.5,6.1c-5,3.1-9.4,6.8-19.2,11.9c0.5,1.2,0.7,2.5,0.4,3.7c-0.2,1.3,0,2.7,0.4,3.9l2.9,1.8
						c-0.4,1-0.4,2-0.1,3c1.5,0.8,2.3,2.4,2.1,4.1c0.1,1.7,1.3,3.2,1.8,4.8s0.1,3.5,1.2,4.8c-1.8,8.1,0.7,7.3-0.2,8.3
						c-0.7,1.5-2,1.7-3.4,1.4c2,1.7,3.8,3.6,6.4,5c-0.6,1.1,0.1,2.5,0.9,3.9l-1.2,0.6l2.6,2.4c-0.2,3.5,0,6.9-0.8,10.8
						c0.4,2.2,4.5,1.9,2,6.4c1.1,2.4,0.3,4.8,0.4,7.2l0.9,1l0.1,3.4c0,0.1,1,0.4-1.2,6.5c-1.6,5.9-1.8-1.4-2.8,8.4
						c0.5,9.4,3.9-1,2.4,15.4c0,0.8-4.2,3.2-3.7,4.1s0.1,2,2.1,2.8c0.6,3.2,0.2,7.6-0.6,9.4s-2.4,1.5-2.6,3.3c0,2.6,0.6,4.9-0.5,8.1
						c-0.2,3.4,2,4.1,0.4,6.6c0.9,2,0,2.6-0.4,3.7c1,1.2,2.1,2.5-0.1,4c0.5,1.9,2,3.8-0.3,5.5c0.8,0.6,1.4,1.4,1.7,2.3
						c1.6,0.2,2.4,1.3,3.3,2.4c-0.2,4.3,2.6,10.6-0.2,10.9c-1,0.1-0.5,3.8-1.1,4.8c0.6,2,1.1,4.8,1.8,5c0.9,0.3,4.9,2.3,1.5,5.6
						c0.6,1,1.8,0.9,1.8,3.1c0.5,0.4,0.4,1,0.3,1.6c1.2,0.7,1.8,2.3,1.3,3.6c1.9,2.4,1.2,3.9,0.9,4.3c0.2,0.1,2.9,3.5,2,4.1
						c0.3,1.1-0.2,2.2-1.1,2.8c-0.3,0.3-0.7,0.2-1,0.4s-0.4,0.3-0.6,0.7c1.3,2.5,0.8,1.6,0.8,2.8c0.2,0.8-0.4,0.8,1.8,2.9
						c0,0.4,0,0.9-0.1,1.3c0.1,0.6,0.4,1.1,0.7,1.6c0.6-0.3,1.1-1.2,2-1.2c2.4,0.7,2.4,1.8,5,0.2c1.5-0.3,3.1-0.5,4.6-0.7V90
						l1.2,0.1c2.6,0.8,3.9,1.8,8.7,1.7c2,0.5,3.5,0.7,5-0.9c1.2-0.1,2.3,0.2,3.2,1c1.5,1.4,4.1,1.8,6,2.2c1.3,0.5,1.9,2.2,2.7,3.3
						c0.6,1.4,1.4,2.7,2.1,4c1,1.5,2,3,3.2,4.4c0.7,1.1,0.8,2.5,1.7,3.5c0.3,1,1.1,1.8,2,2.3l22-24.3l39.4-12.8l30.5-18.9l3-12.3
						c-1.9-0.7-2.5-3-4.2-3.9c-1.1-1.1-0.7-2.7-1.4-3.9c-0.4-1.7,0.8-3.2,0.1-4.9c0-1.4,1-2.6,0-4s1.1-3.4-0.1-4.7
						c1.1,0,1.6,0.9,2.5-2.6c0.8-1.4,2-2.6,3.4-3.4c0.3,0.1,3.5-0.7,4.1-2.5c-0.6-0.6-2.5-1-2.8-1.8c-0.5-1.2-0.9-1.4-2.1-1.4
						c-2.3-0.2-1.5-3-3.8-3.1c-4.1,0.7-3-1-5.3-2.5c-0.9-0.6-2.2-2.4-3.4-2.5l-2.1,0.1l-7.6-6.4v-9.3l0.8,0.2l3.2-0.4
						c0.9-0.1,2,0,2.7-0.6c0.9,0.6,0.6-2.9,0.1-4.3c-0.3-0.9-0.9-0.5-1.7-1.5c-0.8-0.4-1.2-1.3-0.9-2.1c0.4-1.2-0.6-2.1-1.2-3
						c-0.7-1.1,1-1.7,0.5-2.8c-0.5-1.2-0.1-2.6,0.9-3.4c-0.9-1.2-0.2-3-1.1-3.8c-1-0.1-3,0-3.5-1.1c-0.2,0.1-1.4,1.1-2.2,0.4
						l1.4-5.2l5.8-0.5l4.6-1.9h6.6l4.1-10.8l-2.6-2.8l1.8-6l-6.3-1.4c-0.1-1.1-3.1-5.9-4.9-6.3c-0.9-1.9-3.3-0.7-4.1-2
						c1.3-1,0.9-1,0.9-1c0.4-0.9,0.3-1.9,3.3-2.8c0.9-0.4,2-0.2,2.9-0.7l0.2-1.7l1.3-0.7l-0.2-1.3l3.2-5.3l1.4-0.6l11.1-14.9
						c2-0.5,3.5-1.2,2.8-2.8l-11.5-10.7l-7.2-2.2c-0.9-0.6-0.6-1.4-0.9-2c-3.9-4-7.7-8.3-11.9-12.1c-2.1-4.7-7.2-6.1-11.8-7.5
						c-2.2-4-2.8-8.4-6.1-11.4C335.8-150.4,335.5-150.5,335.2-150.5z"/>
				</g>
			</g>
			<g id="Region_Atacama" class="st2">
				<g id="Provincia_Chanaral">
					<path id="atacama" class="region" d="M373.2,466.4c0,0.2-0.1,0.5-0.1,0.8C373.3,466.9,373.3,466.7,373.2,466.4z
						 M373.1,467.2c-0.9,1.5-5.2,1.4-8,2c-5.1,3.6-10.2,12-15.3,7.5h-7.1c-3.5,1.9-6,1.8-7.5-0.4l-4.5,0.4c2,2,3.3,3.9,0.4,4.9
						c3.2,4.3,2,8-1.8,11.2l-5.6,3.4c4.4,0.9,4.6,3.4,4.1,6.3c2.1,2.8,6.5,6.4,1.2,6.4c0.8,2.1,0.4,4.3-3.8,6.4
						c-1.8,3.6-3.8,7-15.4,6.7l-11.2,4.5c-1.5-3.4-3-2.7-4.5-2.3c0.2,2.3-2.5,1.7-5.2,1.1c0.4,2.7-0.1,4.3-2.6,3l0.7,4.8
						c-8-2.6-18.3,0.2-19.9-3c-4.5,0.1-10,1.8-12.7-0.8l-1.9,3.4c-3.9-2.4-5.8-4.2-6.7-5.6c-3.4,0.8-7.5,1.3-9,3l-4.1,3l-10.1-1.5
						l-5.6-1.1c0.4-5.2-3.7-3-6-3.8c0.1,10.2-5.8,5.4-9.3,6.7c-2.9,3.5-6,6.7-12.8,5.3c-1.7,4.4-3.6,9.4-6.3,7.1
						c-2.5,3.7-0.6,4.1-0.1,5.6c2,0.8,3.1,2.7,0.7,3.9c-0.5,1.7,2.5,3.1,0.5,4.6c-0.5,2.3,2.8,3.7,1.5,6.1c-1,1-3.3,2.8-0.7,3.4
						c2.1-0.1,3.4,1.3,3.3,3.4c0.9,2.8-4.1,0.8-3.5,3.5c0.8,1.9-2.6,0.7-2.1,3c-1.9,1.6,2,3.1,0.4,5c-1.1,1.5-1.8,3.3-1.8,5.2
						c0.1,1.8,1,3.5,2.3,4.8c1.1,1.6,0.3,3.7-1.7,3.5c-0.3,1.6,0.9,4.5-1.6,4.7c-0.1,0-0.1,0-0.1,0c0.7,0.9,0.6,2.1-0.2,2.8
						c-1.6,1.8-4.4,4.3-1.5,6.5c2.9,3-2.3,1.2-2.5,3c-0.6,3.6-2.7,6.8-4.1,10.1c-2.8,2.6,2.3,5.3,2,8c-2.9,2.2,2.5,0.6,1.1,3
						c-3.4,2.5-1.3,6.8-4.2,9.2c-2.6,1-1.4,3.9-3.4,5.2c-2.3,4.4-5.6-3.9-7.1-0.7c-0.2,2.7-4.9,6.4-1.4,8.4c3.8,1-0.2,3.6,1.3,5.8
						c2.4,2.1,3.8,6.4,0.2,8.2c-3.1,3.1,2.6,5.4,2.5,8.2c0.5,3.1,4.9,5.2,3.7,8.7c-1.1,3.5-1.6,7.1-1.5,10.8
						c-3.4-0.1-0.4,4.2-3.3,4.1c-2.6-0.2-1.8-0.8-1.2,1c-1.2-3-2.8,2.7-3.6,1.5c-2.1-0.9-3.1-5.5-2.9-3.2c-0.5,1.3,0,5.2-0.7,6.5
						c-1.5,2.8-4,7-3.8,10.4c-3.8,1.8-1,5.4-2.9,8.4c1.7,1.9-0.8,3.6-0.9,5c-1.6,1.1-1.2,2-1.4,4.1c1.4,2.8-0.7,5.4,0.1,6.9
						c-0.6,1.6-3.2,2.9-2.8,4.6c1.5,0.4,2.5,0.4,1.8,2c0.4,1.6-1.8,4-0.2,4.8c1.2,1.5-0.1,3.5-0.4,5.2s0,4.2-1.6,5.3
						c-1.8-0.4-1.3,1.1-0.2,1.7c1.1,1.4,4.3,3.8,1.7,5.3c-2.5,0.8-0.6,3.1-1.8,4.7c0.2,1.9-1,2.5-2.1,3.7c-1,1.6-3,2.2-2.8,4.3
						c-1.3,0.1-1.7,0.7-0.5,1.5c1.9,1.8,0.1,5.5-2.6,4.7l-1.6,1.8c0.2,0.4,0.5,0.7,0.9,0.9h0.1v0.1c0.6,0.9,0.7,2.2,1.7,2.9
						c1.7,0.2,0.2,1.6,0.1,2.5c1,2.5-2.5,2.9-2.8,5.5c-1.3,1.7-1.6,3.8-3.1,5.3c-2.2,1.2-2.1,3.9-3.6,5.5c-1.2,2-4.4,0.5-4.9,2.8
						c-0.8,2.2-4.2,1-4.7,3.8c-1.2,1.9-2.5,4.3-1.3,6.6c1.7,0.9,0.8,2.7,0.1,4c-1,2.5,1.3-0.1,2,1.3c0.9,1.5,2.8,3.3,1.6,5.2
						c1.7,1.3,1.8,3.2,0.1,4.4c2.3-0.7,4.6,2.8,1.8,3.9c-2.7-0.5-3.3,3.2-1,4.3s-2.2,1.9,0.4,1.5s8.9,2.3,9.4-1.5
						c1.1-3.1,3.3-2.9,5.6-1.5c2.2,4.5,6.3,1.9,10.3,2.6c1.4,3.3-0.4,11.1,3.7,10.8c0.9,1.4,2.6,0.6,4.1,0.2c1.9-0.5,3,2.5,1.8,5
						c2.7,2.3,7.6-2.5,6.9-6c4.8-1.6-1.2-5.3,3.5-9c-2.3-3.6,0.9-3.1,3.1-4.3c0.9-2.8,2-2.1,4.2-1.6c1.9,0.4,3.9,0.3,5.8-0.3
						c7.4-6.5,7.2-2.5,7.8-6.4c-3.1-2.4,3.3-3.4,4.9-2.6c1.4-0.3,3.7-1.8,4.4-1.8c0.8,0,0.4,1.6,2.5,1.4c1.5-0.4,2.7-0.9,3.5-0.5
						c1.2,0.5,1.1,2.7-0.1,4.5c-0.2,4.3,6.7,6.7,4.1,11.4c4.5,2.5,0.1,6.8,2.7,9.4c2.9,1.7,1,2.3-0.3,4.7c-1.5,2.2,8,8.1,7.3,2.3
						c4.2-2.1,8.1-0.4,10.5,3.1c2.4,3.3,4.7,6.7,6.7,10.2c2.2-0.7,3.8,2.7,5.5,0.7c4.5,1.9,8.5-2.6,13-2.5c1.3,0,1.5-2,0.4-4.2
						c-0.6-1.2-1-2.6-1.2-4c0-1-0.5-2-1.3-2.7c-3.4-2.4-2.2-8.9,2.1-11.1c2-1,2.2-1.4,1.9-3.9s-0.1-3,2.3-5.3
						c3.3-3.1,5.2-4.1,7.9-4.1s3.5-1.4,3.1-5.7c-0.3-2.2,0.1-4.5,1.2-6.5c1.1-2.2,1.6-4.7,1.4-7.1c-0.2-2.7,0.4-5.4,1.7-7.7
						c1.1-2.2,2-4.4,2.8-6.7c0.9-2.9,0.8-3.2-0.7-4.8c-1.3-1.4-1.6-2.3-1.3-4.5c0.5-3.4,2.1-7.7,3.6-9.4c1.9-2.2,2.7-9.1,1.3-11.7
						c-0.5-0.9-0.3-1.7,0.7-3.1c0.7-0.8,1.1-1.9,1-3c-0.3-0.8,0.2-1.4,1.7-1.9c1.2-0.5,2.2-1.3,2.9-2.5c0.7-1.1,1.6-2.1,2.8-2.6
						c2.1-1,6.7-9,6.7-11.6c0-1.9,1.9-2.3,4.1-0.9s3.9,1,3.9-0.6c0-0.6,1-1.7,2.2-2.6c2.3-1.7,5-6.2,5-8.5c0.3-1.3,0.9-2.6,1.8-3.6
						c1-1.2,1.7-2.5,1.5-2.8s0.3-1.8,1.2-3.1c1.1-1.7,2.2-2.4,3.6-2.5c2.4-0.1,3.5-1,5-4.1c2.3-5.6,4-11.5,5.2-17.5
						c0.1-1.5,0.8-2.9,1.9-4c1.3-1,1.4-1.6,1-5.8c-0.5-4.6-0.4-4.7,1.8-6.6c0.8-0.8,1.8-1.5,2.8-2c0.6,0,2.9-3.4,3.9-5.5
						c0,0,0,0,0-0.1c0.3-0.3,0.5-0.7,0.5-1.2c-0.3-1.3-0.8-2.4-1.5-3.6l-1.4-2.7h1.8c1,0,1.8-0.3,1.8-0.7c0.3-0.9,0.8-1.7,1.5-2.3
						c1.1-1.4,1.9-3.1,2.3-4.8c0.7-2.8,1.3-3.6,3.6-4.8c3.2-1.7,3.4-2.6,0.9-4.2c-1.7-1.1-1.8-1.5-1.4-5c0.4-2.9,1-4.2,2.7-5.9
						c1.1-1.1,2.1-2.2,3-3.5c0.4-0.8,1.9-1.4,3.7-1.7c3-0.4,3.1-0.4,5.2,3.1c1.6,2.6,2.9,3.8,4.7,4.4c2.4,0.7,2.6,0.6,4.3-1.7
						s2-2.3,4-1.5s2.3,0.6,4.5-1.7c2.7-2.8,9.3-5.3,13.8-5.3c2.9,0,2.9,0,3-2.9c0-3.9,0.8-5.9,2.6-6.9c1.3-0.7,2-2.2,1.7-3.6
						l-9.8-15l-18.9-29.2l2.1-18.7l7.8-6.1l7.9-5.8l-9.4-49.3c-1.3-3.8-4-2.9-2.8-8.6c0.6-2.9,1.4-2.9-0.8-5.4
						c-1.4-1.9-2.3-4.1-2.6-6.5l-0.8-4.4l2.3-2.3c2.9-3,3.9-5.3,3-7.1C371.5,472.9,372.6,469.5,373.1,467.2z"/>
				</g>
			</g>
		</g>
	</g>
</g>
<circle class="border-circle" cx="298.3" cy="301.9" r="277.6"/>
</svg>
