<?xml version="1.0" encoding="utf-8"?>
<!-- Generator: Adobe Illustrator 21.0.0, SVG Export Plug-In . SVG Version: 6.00 Build 0)  -->
<svg version="1.1" id="Capa_1" xmlns="http://www.w3.org/2000/svg" xmlns:xlink="http://www.w3.org/1999/xlink" x="0px" y="0px"
	 viewBox="0 0 600 600" style="enable-background:new 0 0 600 600;" xml:space="preserve">
<style type="text/css">
	.st0{fill:none;stroke:#FFFFFF;}
	.st1{clip-path:url(#SVGID_2_);}
	.st2{opacity:0.7;}
</style>
<title>Mesa de trabajo 1</title>
<circle class="border-circle" cx="299.9" cy="300" r="277.6"/>
<path id="arica" class="comuna" d="M230.1,211.4c3.8-5.2,10.4-5.2,17.6-3.1l5.1-0.1l9.4-5.4h7.6l11.4-10.3l3.3-4.9l3.9-7.6
	c1.3,0.9,3.4,1.8,1.6,3.3c0,2.2-2.4,2.2,1.1,4.9c1.6,1.5,6.2,0.5,7,2.4c-0.4,0.3-1.6,0.8-1.6,1.3c0.3,2.9,0.3,5.8,0.1,8.8
	c-0.5,1.5-2.3,1.9-2.9,3.4c-0.5,2.4,1.5,2.4,2.9,3.9c0.3,1.8-1.3,3.8,1,5.5c1.3,0.7,2.8,1.8,3.1,3.3c0.8,2.1,3,3.3,3.8,5.4
	c1.6,1.5,0.1,3.2,0.3,5.1c0.6,4.6-2.6,4.3,3.8,8c2.3,1.1,4.4,2.6,6.2,4.4c0.7,1.2,1.3,2.5,1.8,3.9c0.2,0.9,0.2,1.8,0,2.8
	c-0.6,0-2,1.3-2.3,1.6c-1.3,0.9-2.3,0.1-4.2,1.4c-4.6-0.1-6.7,0.8-10.5,3.3c-2.3,0.6-9.5,2-11.6,3.3c-6.1,2-4.6,3.3-7.8,3.1
	c-4,3.5-6.7,1.1-8,2.5c-2.4,0.7-5.1,0.7-7.3,2.1v4.2l-24.8-7.8l-7,1.5c-0.2-1-0.3-2-0.1-3c-0.1-1.9-1.1-0.7-0.1-5.7
	c2.6-0.7,1-3.1,0.4-4.7c1.3-0.9,1.7-2.7,1-4.1c-0.3-1.6-2-3.6-0.3-5.1c2.3-2.7-2.3-5.6-0.6-5.1c1.9-1.4,2.2-3.6,2.9-5.5
	C240.4,220.7,236.1,216.3,230.1,211.4z"/>
<path id="general-lagos" class="comuna" d="M333.8,172.6l0.9-0.2c-1.7-2.8-2-6.1-0.8-9.1c2.3-5.7-4.3-8.7-3.3-13.6l-12.2-12.3v-10.3
	l-19,15.6l-11.9-1.6l-4,4.7v5l2.6,1.5v10.4l4.4,7.3l0.1,5.1l-2.1,4.9c1.3,0.9,3.4,1.8,1.6,3.3c0,2.2-2.4,2.2,1.1,4.9
	c1.6,1.5,6.2,0.5,7,2.4c0.7,0.1,1.4,0.1,2.1,0c1,0.1,1.5-0.6,1-1.5c-0.9-0.4-1.6-1.1-1.9-2c-0.7-1.4,0.5-2.6,1.1-3.8
	s-0.6-1.5-0.7-2.5c0.5-1.4,0.6-2.9,1-4.3c2.6-0.1,5.7-0.8,6.3-2.3c2-1.1,4.3-1.3,6.4-0.5c0.8,0.3,0.7-0.3,1.2-0.4
	c1.8,0,3.5-0.3,5.2,0.2c0.6,0.3,1.1,0.8,1.5,1.4c1.3,0.4,2.3-0.7,4.4-1c1-0.4,1.9,0,3.3-0.8C330.7,172.8,332.3,172.8,333.8,172.6z"
	/>
<path id="camarones" class="comuna" d="M316.6,246.2c-0.6,0-2,1.3-2.3,1.6c-1.3,0.9-2.3,0.1-4.2,1.4c-4.6-0.1-6.7,0.8-10.5,3.3
	c-2.3,0.6-9.5,2-11.6,3.3c-6.1,2-4.6,3.3-7.8,3.1c-4,3.5-6.7,1.2-8,2.5c-2.4,0.7-5.1,0.7-7.3,2.1v4.2l-24.8-7.8l-7,1.5
	c1.4,0.7,0.2,2,0.2,3.4c0,1.4,1.1,2,1.5,3.8c0.5,2.1,1.7,3.7,2.2,5.8c2.2,2.6,0.2,2.5,0.1,4.3c0,0.7,2.2,3,2.5,3.6
	c0.7,1.7,1.3,3.5,1.7,5.3c0.1,0.9,0.5,1.6,1.1,2.2c0.9,1.5,0.1,3.6-1.1,4.6c1.9,1.5-1,4.3-1.1,4.8c10-5.2,14.5-8.9,19.6-12.1
	c5.9-1,9.5-3.6,12.8-6.3c3.8,1.5,8.3-2.1,12.3-0.2c8.2-3.1,10.6-2,15.9-3c6.1-0.4,6.2,0.4,8.3,0.8c3.8-0.1,9.2-1.2,9.3,1.2
	c1-0.3,2-0.2,3-0.5c1.9-0.3,2.5,1.4,2.5,2.8c0.7,2.8,4,2,6.3,2.3c2.3,0.9,2,3.3,3.8,4.8c1.4-0.3,2.6-1.6,4-2.3
	c2.6-0.6,6.8-2.5,9.3-2.8c1.6-0.3,4.2,0.6,5.1-1.2c0.7-1.6,3.5-2.2,3.2-4.2c-1.9-2.3-3.6-4.9-5.1-5.3c-0.8-2.2-2-4.2-3-6.3
	c0.6-1.9,0.2-3.4,0.1-5c0.5-1.9-0.6-4.4-1.5-6c-1-1.1-1.5-0.4-5.6-0.8c-2.3-0.9-4.5,0.4-8,2.3c-1.3,1.7-3.6,1.3-5.3,0.5
	c-3.1-1.2-2.9-3.9-3.5-6c-1.5-1.1-2.3-2.9-3.6-4.3C318.8,247,317.7,246.5,316.6,246.2z"/>
<path id="putre" class="comuna" d="M355.2,278.7c-1.9-2.3-3.6-4.9-5.1-5.3c-0.8-2.2-2-4.2-3-6.3c0.6-1.9,0.2-3.4,0.1-5
	c0.5-1.9-0.6-4.4-1.5-6c-1-1.1-1.5-0.4-5.6-0.8c-2.3-0.9-4.5,0.4-8,2.3c-1.3,1.7-3.6,1.3-5.3,0.5c-3.1-1.2-2.9-3.9-3.5-6
	c-1.5-1.1-2.3-2.9-3.6-4.3c-0.9-0.8-2-1.3-3.2-1.6c0.2-0.9,0.2-1.8,0-2.8c-0.4-1.4-1-2.7-1.8-3.9c-1.8-1.8-3.9-3.3-6.2-4.4
	c-6.3-3.7-3.1-3.4-3.8-8c-0.2-1.9,1.2-3.5-0.3-5.1c-0.7-2-3-3.3-3.8-5.4c-0.4-1.5-1.8-2.5-3.1-3.3c-2.3-1.8-0.7-3.7-1-5.5
	c-1.5-1.5-3.4-1.4-2.9-3.9c0.6-1.5,2.4-1.9,2.9-3.4c0.2-2.9,0.1-5.9-0.1-8.8c0-0.5,1.3-1,1.6-1.3c0.7,0.1,1.4,0.1,2.1,0
	c1,0.1,1.5-0.6,1-1.5c-0.9-0.4-1.6-1.1-1.9-2c-0.7-1.4,0.5-2.6,1.1-3.8s-0.6-1.5-0.7-2.5c0.5-1.4,0.6-2.9,1-4.3
	c2.6-0.1,5.7-0.8,6.3-2.3c2-1.1,4.3-1.3,6.4-0.5c0.8,0.3,0.7-0.3,1.2-0.4c1.8,0,3.5-0.3,5.2,0.2c0.6,0.3,1.1,0.8,1.5,1.4
	c1.3,0.4,2.3-0.7,4.4-1c1-0.4,1.9,0,3.3-0.8c1.5-0.2,3.1-0.2,4.6-0.4l0.9-0.2c0.7,1.1,1.7,1.8,2.9,2.2c0.8-1.9,1.5,3.9,4.3,1.8
	c4.2,1.8,9.2,0.4,11.3,5c3,0.6,5.1,3.9,1,5.3c-1,3.5-8.5,4.7-4.4,8.7c0,5.2,8.5,2.3,6.1,8.7c-1.5,2.6,0,4.2,2.3,5.5
	c-2.9,3.9-1.2,9.9,0.9,14.1c3.8,3,0.1,9.4,0.7,13.7c-4,2.3,2.7,3.1,1.5,6.8c2.6,4.6-0.8,4.4,5.1,13.3c1.4,3.3,2.4,9.1,2.7,8.7
	c1.4-1.5-3.5,3-3.2,5c-0.6-0.2-1.3-0.5-1.7,0.1s-0.4,2.6-0.9,2.1c-0.3-0.3-1-0.8-2.2,1.2c-3.3-0.8-3,3-5.5,4.2
	C355.5,278.6,355.4,278.6,355.2,278.7z"/>
<path id="LÃMITE_INTER" class="limite" d="M366.2,271.2c-0.4-2,4.5-6.5,3.2-5c-0.3,0.3-1.3-5.4-2.7-8.7c-6-8.9-2.5-8.7-5.1-13.3
	c1.1-3.8-5.6-4.6-1.5-6.8c-0.7-4.3,3-10.6-0.7-13.7c-2.1-4.2-3.8-10.1-0.9-14.1c-2.3-1.3-3.8-2.9-2.3-5.5c2.4-6.4-6.1-3.5-6.1-8.7
	c-4.1-4.1,3.3-5.3,4.4-8.7c4.1-1.4,1.9-4.8-1-5.3c-2.1-4.6-7.1-3.2-11.3-5c-2.8,2.1-3.5-3.7-4.3-1.8c-4.2-1.2-5.3-7.8-3.7-11.4
	c2.3-5.7-4.3-8.7-3.3-13.6l-12.2-12.3v-10.3l-19,15.6l-11.9-1.6l-4,4.7v5l2.6,1.5v10.4l4.4,7.3l0.1,5.1l-6,12.5l-3.3,4.9L270,202.7
	h-7.6l-9.4,5.4l-5.1,0.1c-7.2-2.1-13.4-2-17.2,3.3"/>
<path id="path6551" class="limite" d="M240,299.2c10-5.2,14.5-8.9,19.6-12.1c5.9-1,9.5-3.5,12.8-6.3c3.8,1.5,8.3-2.1,12.3-0.2
	c8.2-3.1,10.6-2,15.9-3c6.1-0.4,6.2,0.5,8.3,0.8c3.8-0.1,9.2-1.2,9.3,1.2c1-0.3,2-0.2,3-0.5c1.9-0.3,2.5,1.4,2.5,2.8
	c0.7,2.8,4.1,2,6.3,2.3c2.3,0.9,2,3.3,3.8,4.8c1.4-0.3,2.6-1.6,4-2.3c2.6-0.6,6.8-2.5,9.3-2.8c1.6-0.3,4.2,0.6,5.1-1.2
	c0.7-1.6,3.5-2.2,3.2-4.2c0.3,0,0.6,0.1,0.8,0.1c2.5-1.2,2.2-4.9,5.5-4.2c1.1-2,1.9-1.5,2.2-1.2c0.5,0.5,0.6-1.5,0.9-2.1
	s1.1-0.3,1.7-0.1"/>
<g>
	<defs>
		<circle id="SVGID_1_" cx="300.1" cy="299.2" r="277.6"/>
	</defs>
	<clipPath id="SVGID_2_">
		<use xlink:href="#SVGID_1_"  style="overflow:visible;"/>
	</clipPath>
	<g class="st1">
		<g id="Region_Tarapaca" class="st2">
			<g id="Provincia_Tamarugal">
				<path id="tarapaca" class="region" d="M364.2,272c-0.3,0-0.6,0.1-0.8,0.3c-0.3,0.7-0.3,2.5-0.8,2.1c-0.3-0.2-1.1-0.8-2.1,1.2
					c-3.2-0.8-2.9,2.9-5.4,4.1l-0.8-0.1c0.3,1.9-2.4,2.5-3.1,4.1c-0.9,1.7-3.4,0.8-5,1.1c-2.4,0.3-6.6,2.2-9.1,2.8
					c-1.4,0.7-2.5,2-3.9,2.3c-1.8-1.5-1.5-3.8-3.8-4.7c-2.2-0.4-5.4,0.4-6.1-2.3c0-1.4-0.6-3-2.5-2.8c-0.9,0.3-1.9,0.2-2.9,0.5
					c-0.1-2.3-5.4-1.2-9.1-1.1c-2.1-0.4-2.1-1.2-8.1-0.8c-5.2,1-7.6-0.1-15.6,2.9c-3.9-1.9-8.3,1.6-12,0.2
					c-3.5,3.2-7.8,5.3-12.5,6.1c-5,3.1-9.4,6.8-19.2,11.9c0.5,1.2,0.7,2.5,0.4,3.7c-0.2,1.3,0,2.7,0.4,3.9l2.9,1.8
					c-0.4,1-0.4,2-0.1,3c1.5,0.8,2.3,2.4,2.1,4.1c0.1,1.7,1.3,3.1,1.8,4.8s0.1,3.5,1.2,4.8c-1.8,8.1,0.7,7.3-0.2,8.3
					c-0.7,1.5-2,1.7-3.4,1.4c2,1.7,3.8,3.6,6.4,5c-0.6,1.1,0.1,2.5,0.9,3.9l-1.2,0.5l2.5,2.7c-0.2,3.5,0,7-0.8,10.8
					c0.4,2.2,4.5,1.9,2,6.4c1.1,2.4,0.3,4.8,0.4,7.2l0.9,1l0.1,3.4c0,0.1,1,0.4-1.2,6.5c-1.6,5.9-1.8-1.4-2.8,8.4
					c0.5,9.4,3.8-1,2.4,15.4c0,0.8-4.2,3.2-3.7,4.1c0.5,0.9,0.1,2,2.1,2.8c0.6,3.2,0.2,7.6-0.6,9.4c-0.8,1.8-2.4,1.5-2.6,3.3
					c0,2.6,0.6,4.9-0.5,8.1c-0.2,3.4,2,4.1,0.4,6.6c0.9,2,0,2.6-0.4,3.7c1,1.2,2.1,2.5-0.1,4c0.5,1.9,2,3.8-0.3,5.5
					c0.8,0.5,1.4,1.3,1.7,2.3c1.6,0.2,2.4,1.3,3.3,2.4c-0.2,4.3,2.5,10.6-0.2,10.9c-1,0.1-0.5,3.8-1.1,4.8c0.6,2,1.1,4.8,1.8,5
					c0.9,0.3,4.9,2.3,1.5,5.6c0.6,1,1.8,0.9,1.8,3.1c0.5,0.4,0.4,1,0.3,1.6c1.2,0.7,1.8,2.2,1.3,3.6c1.9,2.4,1.2,3.9,0.9,4.3
					c0.2,0.1,2.9,3.5,2,4.1c0.3,1.1-0.2,2.2-1.1,2.8c-0.3,0.3-0.7,0.2-1,0.4c-0.3,0.3-0.4,0.3-0.6,0.7c1.3,2.5,0.8,1.6,0.8,2.8
					c0.2,0.8-0.4,0.8,1.8,2.9c0,0.4,0,0.9-0.1,1.3c0.1,0.6,0.4,1.1,0.7,1.6c0.6-0.3,1.1-1.2,2-1.2c2.4,0.7,2.4,1.8,5,0.2
					c1.5-0.3,3.1-0.5,4.5-0.7v-0.1l1.2,0.1c2.6,0.8,3.9,1.8,8.7,1.7c2,0.5,3.5,0.7,5-0.9c1.2-0.1,2.3,0.2,3.2,1
					c1.5,1.4,4.1,1.8,6,2.2c1.3,0.5,1.9,2.2,2.7,3.3c0.6,1.4,1.4,2.7,2.1,4c1,1.5,2,3,3.2,4.4c0.7,1.1,0.8,2.5,1.7,3.5
					c0.3,1,1.1,1.8,2,2.3l22-24.3l39.4-12.8l30.5-18.9l3-12.3c-1.9-0.7-2.5-3-4.2-3.9c-1.1-1.1-0.7-2.7-1.4-3.9
					c-0.4-1.6,0.8-3.2,0.1-4.8c0-1.4,1-2.6,0-4s1.1-3.4-0.1-4.7c1.1,0,1.6,0.9,2.5-2.6c0.8-1.4,2-2.6,3.4-3.4
					c0.3,0.1,3.5-0.7,4.1-2.5c-0.6-0.6-2.5-1-2.8-1.8c-0.5-1.2-0.9-1.5-2.1-1.3c-2.3-0.2-1.5-3-3.8-3.1c-4.1,0.7-3-1-5.3-2.5
					c-0.9-0.6-2.2-2.4-3.4-2.5l-2.1,0.1l-7.4-6.4v-9.2l0.8,0.2l3.2-0.4c0.9-0.1,2,0,2.7-0.6c0.9,0.6,0.6-2.9,0.1-4.3
					c-0.3-0.9-0.9-0.5-1.7-1.5c-0.8-0.4-1.2-1.3-0.9-2.1c0.4-1.2-0.6-2.1-1.2-3c-0.7-1.1,1-1.7,0.5-2.8c-0.5-1.2-0.1-2.6,0.9-3.4
					c-0.9-1.2-0.2-3-1.1-3.8c-1-0.1-3,0-3.5-1.1c-0.2,0.1-1.4,1.1-2.2,0.4l1.4-5.2l5.8-0.5l4.6-1.9h6.6l4.1-10.8l-2.6-2.8l1.8-6
					l-6.3-1.4c-0.1-1.1-3.1-5.9-4.9-6.3c-0.9-1.9-3.3-0.7-4.1-2c1.3-1,0.9-1,0.9-1c0.4-0.9,0.3-1.9,3.3-2.8c0.9-0.4,2-0.2,2.9-0.7
					l0.2-1.7l1.3-0.7l-0.2-1.3l3.2-5.3l1.4-0.6l11.1-14.9c2-0.5,3.5-1.2,2.8-2.8L403,307.3l-7.2-2.2c-0.9-0.6-0.6-1.4-0.9-2
					c-3.9-4-7.7-8.3-11.9-12.1c-2.1-4.7-7.2-6.1-11.8-7.5c-2.2-4-2.8-8.4-6.1-11.4C364.8,272.1,364.5,272,364.2,272z"/>
			</g>
		</g>
		<g id="Region_Antofagasta" class="st2">
			<g id="Provincia_El_Loa">
				<path id="antofagasta" class="region" d="M408.2,465.5l-2.3,0.4l-3,12.3L372.6,497l-4.4,1.5v0.1l-34.8,11.2l-21.9,24.2
					c-0.9-0.5-1.7-1.3-2-2.3c-0.9-1-0.9-2.4-1.7-3.4c-1.2-1.4-2.2-2.8-3.2-4.4c-0.8-1.3-1.5-2.6-2.1-3.9c-0.8-1.1-1.3-2.8-2.6-3.3
					c-1.8-0.4-4.5-0.8-6-2.2c-0.9-0.8-2-1.1-3.1-1c-1.5,1.5-3,1.3-5,0.8c-0.9,0-1.8,0-2.8-0.1c-0.1,0-0.2,0-0.4-0.1
					c-2.4-0.3-3.5-1-5.5-1.5c-1.9,0.1-3.8,0.3-5.6,0.7c-2.6,1.6-2.5,0.5-5-0.2c-0.8,0-1.6,0.4-2,1.2c-0.2,0.7-1.3,2-3.9,3
					c-1.5,1.6-2,3.6-0.2,6.5l-1.7,2.6c-0.6,3.3,0,6.8-5.5,8.9c0.1,2.7-0.4,5.9,1.5,6.8l-1.6,3.9c2.9,9.5,0.1,12.7-4.6,14
					c1.2,1.9,5.8,3.2,1.2,6.3c-0.2,3.8-2.2,7.9,0.4,11.1c-2.4,2.8-3.7,6.4-3.8,10.1c0.9,4.2-0.2,9.4-0.5,14.2
					c-0.4,2-1.7,3.6,0.2,6.8c-2.8,4-2,7.5,0.9,10.8c-1.4,2.8-1.6,5.8-3,5.5c-1.6,2.4-0.9,3.6,0,4.8c1.5,1.5,0.9,3.1-0.8,4.6
					c0.2,0.4,1,9.3-2.1,12.5c-2.4,4.7,1.1,6.8,1.8,9c-0.8,4.3-3.4,17.3-17.6,21.3c-4.5-0.4-3.5-4.3-3.8-7.1
					c-3.8,0.2-7.9,6.7-6.7,9.7c2.8,2.8,2.1,6,0.4,9.3c-0.6,1.5-0.9,3.2-0.7,4.8c0,1.2,1.1,3.3,1.1,4.5s0.6,3.9,0.4,4.8
					c-0.8,4.5-0.5,12.4-2.9,12c-0.7,2.8,0.8,1.7,3.3,3s4.5,1.6,5.6-0.7c0.2-0.4,0.3-5.3,1.8-4.1c1.4,1,4,0.3,5.6,1.9
					c5.1,5.2,4.8,9.8,4.5,16.8c-0.9,2.5-2.6,2.6-2.9,5.3c-1.3,2.6-3.2,6.1-4.9,7.8c-0.7,0.7-2.3,2.9-1.8,4.8
					c0.4,1.7-2.2,2.6-0.7,4.1c1,1,4.3,1.3,2.6,3c-2.2,10.7,0.5,10.7,0.8,15.7c-0.3,0.6-2.1,4-1.9,4.8c0.4,2.9-1.4,6.1-1.8,9
					c-0.8,4.4-2.7,7.7-4.5,11.9c0.5,1.5,2.7,4.3,2.2,6.4c-1,3.7-1.8,7.5-2.6,11.2c-1.2,0.8-0.6,2.3,0.2,4c1.5,3,3.9,6.9-1,10.6
					c0.8,6.6,2.3,13.2,4.5,19.5c0.6,4.6,2.2,8.9,4.9,12.7c1.5,3.7-0.7,6-2.3,8.6c0.8,1.7,1.8,3.4,3,4.8c1.8,2.6,4.1,5.7,3.4,9
					c-0.6,2.4-1.7,4-2.3,6.3c-0.7,2.7,0.8,4.5-0.4,6.8c-0.5,1.4-1.6,2.4-3,3c-2.7,1.8-2.9,4.7-4.5,7.5c-1.2,2.6-7.4,3.2-7.1,7.5
					c-1.2,3.3-1,6.7-3.4,9.3c-1.9,2.5-6.2,4.7-3.4,8.2c4.3,6.1-3.6,3.6-2.9,7.1c-2,0.9-3.3,3.6,0.7,9.3c1.9,3,3.9,4.8,6,7.5
					c1.4,3.4,1.2,7.2-0.4,10.4c0.6,0,0.8,0.4,1.1,0.7c2.7,2.3,4.7-2.7,6.4-7.1c6.8,1.4,9.8-1.8,12.7-5.2c3.5-1.3,9.5,3.4,9.4-6.8
					c2.3,0.8,6.4-1.5,6,3.8l5.6,1.1l10.1,1.5l4.1-3c1.6-1.7,5.5-2.2,9-3c0.9,1.4,2.9,3.2,6.8,5.6l1.8-3.3c2.7,2.6,8.2,0.9,12.7,0.7
					c1.5,3.2,11.8,0.5,19.9,3l-0.8-4.9c2.6,1.3,3-0.2,2.6-3c2.7,0.6,5.5,1.2,5.2-1.1c1.5-0.5,3-1.2,4.5,2.2l11.2-4.5
					c11.5,0.3,13.5-3.1,15.3-6.7c4.2-2.1,4.5-4.3,3.8-6.4c5.4,0,1-3.5-1.1-6.3c0.5-2.9,0.3-5.5-4.1-6.4l5.6-3.3
					c3.8-3.3,5-7,1.8-11.2c3-1,1.6-2.9-0.4-4.8l4.5-0.4c1.5,2.1,4,2.2,7.5,0.4h7.1c5.1,4.5,10.2-3.9,15.3-7.5c3.3-0.7,8.5-0.4,8-2.6
					c-0.2-3.1,1.5-6,4.2-7.4c1.7-2.5-3.1-6.4,1.6-7.3c1.8-3.7,5.3-2.1,8.2-1c3.6-0.5,3.9-6,1.5-8.2c-1.7-3.1-4.1-5.8-4.9-9.3
					c-1.8-2.8-2.2-6.5-5.8-7.8c-3.3-1.4-3.3-5.6-5.8-7.9c-2.5-2.6,3-4.2,3.5-7.1c2.2-2.5,1.4-7.4,3.3-9.8c3.9,1.4,4.9-2.7,5.6-5.7
					c1-2.5,1.1-6.4,4.7-6.4c2.6-0.7,6.5,1.1,7.2-2.6c1.3-1.5,1.9-3.3,3.3-4.7s13.8-5.5,13.8-5.5l70.7-28.2l31.4-103.5L529,649.9
					l-33.2,8.2l-23.3-2.5c-1.8-3.2-9.4-1.8-6.3-7.4c1.1-2.6,0.2-5.6-2.2-7.1c1.5,0.3,2.2-5.1,1-8.5c1.4-3.1,6.8-8.4,1.2-10.4
					c-4.6-3-0.7-9.8-4.7-13.2c-0.2-0.3-0.4-0.6-0.5-0.9c0.3,0.2,0.2-0.6-0.4-0.9h-0.1c0-0.1-0.1-0.2-0.1-0.4s0,0,0-0.1
					c0.6-0.4,0-0.5-0.1-0.2c-0.9-3,0.1-6.7,0.2-10c1-4.3-3.9-7.7-2-12.2c2.6-2.7-1-4.1-1.5-5.8c-0.8-2.8-3.6-3.8-4.1-4.2
					c-1.5-1.6-3.2-3.1-5.1-4.2l-0.7-1.3l0.2-20l-3.6-4.3l-1.2-3.9l-6.3-7.7v-31.3l-9.9-18.7L414,465.8L408.2,465.5z"/>
			</g>
		</g>
	</g>
</g>
</svg>
