<?xml version="1.0" encoding="utf-8"?>
<!-- Generator: Adobe Illustrator 21.0.0, SVG Export Plug-In . SVG Version: 6.00 Build 0)  -->
<svg version="1.1" id="Capa_1" xmlns="http://www.w3.org/2000/svg" xmlns:xlink="http://www.w3.org/1999/xlink" x="0px" y="0px"
	 viewBox="0 0 600 600" style="enable-background:new 0 0 600 600;" xml:space="preserve">
<style type="text/css">
	.st0{fill:none;stroke:#FFFFFF;}
	.st1{clip-path:url(#SVGID_2_);}
	.st2{opacity:0.7;}
</style>
<title>Mesa de trabajo 4</title>
<g id="Region_Atacama-2">
	<g id="Provincia_Chanaral-2">
		<path id="Diego_de_Almagro-2" class="st0" d="M424.6,255.6l-18.9-29.2l2.1-18.7l7.9-6.1l7.9-5.8l-9.5-49.3c-1.3-3.8-4-3-2.8-8.7
			c0.6-2.9,1.4-2.8-0.8-5.3c-1.4-1.9-2.3-4.1-2.7-6.5l-0.8-4.3l2.4-2.4c3-3,3.9-5.3,3-7.1c-2.8-0.8-1-5.1-0.7-7.2
			c0.3,2.4-4.9,2.1-8.2,2.8c-5.1,3.6-10.2,12-15.4,7.5H381c-3.5,1.9-6,1.8-7.5-0.4l-4.5,0.4c2,2,3.3,3.9,0.4,4.9
			c3.2,4.3,2,7.9-1.9,11.2l-5.6,3.4c4.4,0.9,4.7,3.5,4.1,6.4c2.2,2.8,6.5,6.4,1.1,6.4c0.8,2.1,0.4,4.3-3.8,6.4
			c-1.8,3.6-3.8,7.1-15.4,6.8l-11.3,4.4c-1.5-3.4-3-2.7-4.5-2.2c0.2,2.4-2.5,1.7-5.3,1.1c0.4,2.7-0.1,4.3-2.6,3l0.7,4.9
			c-8.1-2.6-18.4,0.2-19.9-3c-4.5,0.1-10,1.8-12.8-0.7l-1.9,3.4l-0.1,2.2l-4.7,3.4l-0.1,4.3c-4.3,2.7-2.6,7.1-3.3,10.8l-3.3-0.2
			c-1.6,5.3-4.4,6.1-7.1,7.4c0.1,6-4.7-0.4-7.1,9.2l-2,10.3l3.9,1.9l5.4,1.1l-0.6,3.2l4,3.9l-0.1,2.2c7.4,4.8,2.2,8.9,0.9,11.9
			c0.8,1.3,0.9,2.5-0.2,3.5c-1.7,3.2-4.5,6.9-2.1,8.6l3.8-0.2c2.8,0.6,1.9,3.2,1.4,5.6c1.5,0,2.9,0.3,4.3,0.9
			c1.4,0.7,2.2-0.6,3.2-1.4c1.4,0.4,1.6,2.2,0.9,3.5s-1.5,1.7-0.5,3.1c1.7,1.6,4.2,2.8,6.3,1.5c0.7-1.3,1.2-2.7,1.7-4
			c1.5-0.8,3.4-0.2,5.1-0.6c2.8-1.4,4.7-4.3,4.8-7.4c0.1-0.6,2-0.3,2.5-0.2c1.4,1.1,2.4,2.5,4.1,3.1c1.4,2.5,2.5,6.8,5.9,6.9
			c1.5-0.2,2.6-1.6,2.5-3.1c0.1-1.1,0.3-2.1,0.6-3.2c2.2-2.4,3.7-6.4,3.4-6.6l1.1-5.8l9.2-0.6l3.4-4.5l9.4,0.1
			c-3.2,6.2,6.1,7.9,6.6,11.8c3,0.4,5.9-1.8,8.7-3c1.1-0.6,1,0.4,2,0.9c1.5,0.4,2.7,0.8,3.5,2.1c0.6,0.7,1.2,1.4,1.9,2
			c1.6,0.1,2.7-0.1,3.9,0.9c1.2,0.9,1.9,1.3,3.3,0.6c1.9,1.2,4.8,0.9,6.4,2.3c-0.1,1.6-0.1,4.7,0.7,5.6c2,0.3,0.7-2.9,1.8-5.1
			c0.4-1,0.7-2.1,0.9-3.2c0.1-1.6,0.4-3.1,2.1-3.4c1.4-0.1,2.8,0.4,3.8,1.4c0.2,1,1.6,1.4,2.5,1.9c2,0.2,4.1,0.3,6.1,0.2
			c1.1-0.3,0.5-0.9,2.9-2.2c2.7-1,4.7,0.1,7.6,0.1c1.4,0.2,2.6,0.9,3.4,2c1.2,0.8,2.2,0.8,3-0.4c1.1-0.3,2.3-0.2,3.3,0.3
			C422.5,256.8,423.7,256.4,424.6,255.6z"/>
		<path id="Chanaral" class="st0" d="M290.7,171.5c-3.9-2.4-5.8-4.2-6.8-5.6c-3.5,0.8-7.4,1.3-9,3l-4.1,3l-10.1-1.5l-5.6-1.1
			c0.4-5.3-3.7-3-6-3.8c0.1,10.2-5.8,5.5-9.4,6.8c-2.9,3.5-6,6.7-12.8,5.3c-1.7,4.4-3.7,9.4-6.4,7.1c-2.5,3.8-0.6,4.1-0.1,5.6
			c2,0.7,3,2.7,0.6,3.9c-0.5,1.7,2.5,3.1,0.5,4.6c-0.5,2.2,2.9,3.7,1.6,6.1c-0.9,0.9-3.3,2.7-0.7,3.4c2.2-0.1,3.3,1.4,3.2,3.5
			c0.9,2.8-4,0.8-3.5,3.5c0.8,1.9-2.7,0.7-2.2,3c-1.9,1.6,2,3.1,0.4,5c-1.1,1.5-1.8,3.3-1.8,5.2c0.1,1.8,0.9,3.6,2.2,4.9
			c1.1,1.6,0.3,3.8-1.7,3.5c-0.3,1.6,0.9,4.5-1.5,4.7c0.9,0.5,2,0.5,3,0.2c0.9,0.4,0.7,1.1,0.6,1.9c0.8,0.4,2-0.1,2.7,0.8
			c0.3,1,1,2.2,2.3,1.9s2.2,0.6,2.5,1.7c0.8,1,2.3,0.6,3.5,0.6s2.2,1,3.2,1.6c1,1,2.3,1.5,3.7,1.4c1.1,0.2,2.8-0.4,3.2,0.9
			c0.6,1.1,1.1,1.7,2.7,1.6c2.2,0.3,6,6.6,9,9.8c1.1,0.5,1.1,1.1,4.8,1.2c2,2.2,1.8,3.8,2,5.3l7.9-6.9c3.8-4.6,4,3.2,8.3-2.9l2-0.2
			c0.5-2.3,1.4-4.8-1.4-5.6l-3.8,0.2c-2.3-1.7,0.4-5.3,2.1-8.6c1.1-1,1-2.2,0.2-3.5c1.3-2.9,6.6-7.1-0.9-11.9l0.1-2.2l-4-3.9
			l0.6-3.2l-5.4-1.1l-3.8-1.9l2-10.3c2.4-9.6,7.2-3.2,7.1-9.2c2.7-1.1,5.5-2,7.1-7.4l3.3,0.2c0.7-3.7-0.9-8.1,3.3-10.8l0.1-4.3
			l4.7-3.4L290.7,171.5"/>
	</g>
	<g id="Provincia_Copiapo">
		<path id="Copiapo" class="st0" d="M373.5,326c0,0.4-0.1,2.4-2.3,0.7s-3.7-4.3-5.4-6.4c-4.8-1-0.9-2.4-2.5-5.5
			c2.5-3.9-2.5-5.9-5-8.1c1.1-4.3-1.2-6.3-3.7-9.7c0.1-3.8-3.5-5.5-7.3-4.8c-3.8,3.7-6.4-1.2-7.9-0.7c-3.3,3-5.8,6.6-8.6,10
			c0.7,5.5-5.3,5.2-4.8,10c1.5,4.1-2.7,6.2-1.7,14.7c-3.5,2.9-2.8,9.5-8.5,9.4c-2.6-3.9-5-1.4-7.3,1c-5.5,5-5.9-1.8-9.2,1.5
			c-1.1-1.5-11.2-1.3-6.4-3.2c0.1-3.1,0.9-8.8-4.4-6.9c-3.1-3.3-3.8-2.9-6.6-0.4c-3.9,5.5-5.9,0.9-7.5-0.1c-2.5-1.4-4.9-3-7.1-4.8
			c-0.4-4.3-6-9.4-9.6-4.5c-5.1,2.4-6.5,7.3-7.6,12.2c0.8,4.2,0.9,8.5,0.1,12.8c4.5,1.7-1.3,4.7,1.7,7.6c8,2.6-1.4,9.1,3.5,7.9
			c3,4,1.2,7.7,7,3c6.4,0.6,1.1,5.9,4.7,9c4.8-0.2,4.2,3.8,3.6,7.4c2.8,1.1,0.9,5.7,3.7,5.3c3.7-2.2,3-0.3,2.2,2.4
			c-1.1,2.5,0.4,0.9-1.4,2.9c-4.5-0.2-8.4,3-12.7,3.5c1.8-4.1-3.5-2.9-4.3-3.4c-2.9-2-4.5-0.6-5,0.8c-3.1,3.5-7.3,5.4-11-0.4
			c-4.5,0.1-6.9-5.7-11-7.2c-2.2-1.1-5.7,2-8-2.3c-2,1.4-5.6-6.7-7-0.4c-0.1,1.2-0.7,2.3-1.8,2.8c-1.7,0.9-4.1,0.6-5.4,2.5
			c-2.4,0.4-2.8-4.3-6.1-2.4c-2.6,0.9-4.8,1.4-6.3-1.7c-1.1-6.4-11.4-3.5-13.3-7.9c0.1-1.4,2.7-3.1,0.9-5c1.9-3-0.9-6.6,2.9-8.4
			c-0.3-3.5,2.3-7.6,3.8-10.4c0.7-1.3,0.2-5.2,0.6-6.5c-0.2-2.2,0.8,2.3,2.9,3.2c0.9,1.3,2.7-5.4,3.8-0.8c0.4,2.7,6,5.7,2.4,8.1
			c-0.1,3.3,2.6,6,5.8,6c1.1,0,2.1-0.2,3-0.8c1.9-3.3,6.1,2.5,7.4-2.2c3.9-1.5,0.3-3.5-0.9-5c2.7-4.3-0.4-9-0.5-13.3
			c4.7-3.1-2.7-7,1.1-12.5c0.1-3.6,1.1-5.5,0.8-8.6c-0.2-1.9-0.8-3.8-1.7-5.5l12.2-15.3l16.5-11.4h2.2l14.5-13.5l7.9-6.9
			c3.8-4.6,4,3.2,8.3-2.9l2-0.2c1.5,0,2.9,0.3,4.3,0.9c1.4,0.7,2.2-0.6,3.2-1.4c1.4,0.4,1.6,2.2,0.9,3.5s-1.5,1.7-0.5,3.1
			c1.7,1.6,4.2,2.8,6.3,1.5c0.6-1.3,1.2-2.7,1.6-4.1c1.5-0.8,3.4-0.2,5.1-0.6c2.8-1.4,4.7-4.3,4.8-7.4c0.1-0.6,2-0.3,2.5-0.2
			c1.4,1.1,2.4,2.5,4.1,3.1c1.4,2.5,2.5,6.8,5.9,6.9c1.5-0.2,2.6-1.6,2.5-3.1c0.1-1.1,0.3-2.1,0.6-3.2c2.2-2.4,3.7-6.4,3.4-6.6
			l1.1-5.8l9.2-0.6l3.4-4.5l9.4,0.1c-3.2,6.2,6.1,7.9,6.6,11.8c3,0.4,5.9-1.8,8.7-3c1.1-0.6,1,0.4,2,0.9c1.5,0.4,2.7,0.8,3.5,2.1
			c0.6,0.7,1.2,1.4,1.9,2c1.6,0.1,2.7-0.1,3.9,0.9c1.2,0.9,1.9,1.3,3.3,0.6c1.9,1.2,4.8,0.9,6.4,2.3c-0.1,1.6-0.1,4.7,0.7,5.6
			c2,0.3,0.7-2.9,1.8-5.1c0.4-1,0.8-2.1,0.9-3.1c0.1-1.6,0.4-3.1,2.1-3.4c1.4-0.1,2.8,0.4,3.8,1.4c0.2,1,1.6,1.4,2.5,1.9
			c2,0.2,4.1,0.3,6.1,0.2c1.1-0.3,0.5-0.9,2.9-2.2c2.7-1,4.7,0.1,7.6,0.1c1.4,0.2,2.6,0.9,3.4,2c1.2,0.8,2.2,0.8,3-0.4
			c1.1-0.3,2.3-0.2,3.3,0.3c1.4,0.2,2-0.3,3.1-1l9.8,15.2c0.3,1.4-0.3,2.9-1.7,3.6c-1.8,0.9-2.6,3-2.6,6.9c-0.1,2.9-0.1,2.9-3,2.9
			c-4.5,0-11.1,2.5-13.9,5.4c-2.2,2.3-2.6,2.5-4.5,1.7s-2.2-0.6-4,1.6s-2,2.4-4.3,1.6c-1.9-0.6-3.1-1.7-4.7-4.3
			c-2.2-3.5-2.2-3.5-5.2-3.2c-1.9,0.2-3.3,0.9-3.8,1.7c-0.9,1.3-1.9,2.4-3,3.5c-1.7,1.7-2.4,3-2.7,5.9c-0.4,3.5-0.4,3.8,1.4,5
			c2.5,1.7,2.3,2.6-0.9,4.3c-2.2,1.1-2.8,2-3.5,4.8c-0.4,1.8-1.2,3.4-2.3,4.8c-0.7,0.6-1.2,1.4-1.5,2.2c0,0.4-0.8,0.7-1.8,0.7h-1.8
			l1.4,2.7C372.8,323.8,373.2,324.9,373.5,326z"/>
		<path id="Tierra_Amarilla" class="st0" d="M310.9,434c-0.5,0.4-1.2,0.7-3.1,0.5c-1.1,0.3-2.5,0.1-3.5,0.9
			c-2.1,0.4-4.1,1.3-6.3,0.6c-2.1-0.2-3.7-1.6-5.6-2c-2,0.1-4.1,0.1-5.3-2c-1.1-1.8-2.5-0.5-3.9-0.1c-0.9,0.4-2.1,0.3-2-0.4
			c0.1-1.8-2.1-2,0.3-7.3c1.4-1.6-0.5-2.7-0.4-6c-0.2-2.7-0.7-5.3-1.7-7.9c-1.7-3.4-1.1-4.4-0.1-8.1c0.9-1.8-0.9-3.4-2.2-4.4
			s-2.5-1.4-1.8-9.9c1.8-1.9,0.4-0.3,1.4-2.9c0.9-2.7,1.5-4.6-2.2-2.4c-2.8,0.4-0.8-4.3-3.7-5.3c0.6-3.6,1.1-7.5-3.6-7.4
			c-3.7-3,1.6-8.4-4.7-9c-5.8,4.7-4.1,0.9-7-3c-5,1.3,4.5-5.3-3.5-7.9c-3-2.9,2.7-5.9-1.7-7.6c0.7-4.2,0.7-8.6-0.1-12.8
			c1.1-4.9,2.4-9.7,7.6-12.2c3.6-4.8,9.2,0.2,9.6,4.5c2.2,1.8,4.6,3.4,7.1,4.8c1.6,0.9,3.6,5.5,7.5,0.1c2.7-2.5,3.5-3,6.6,0.4
			c5.3-1.9,4.5,3.8,4.4,6.9c-4.7,2,5.3,1.7,6.4,3.2c3.3-3.3,3.8,3.5,9.2-1.5c2.3-2.4,4.6-4.9,7.3-1c5.7,0.1,5-6.5,8.5-9.4
			c-1-8.5,3.2-10.6,1.7-14.7c-0.5-4.8,5.4-4.4,4.8-10c2.9-3.4,5.3-7.1,8.6-10c1.6-0.5,4,4.4,7.9,0.7c3.9-0.6,7.4,1,7.3,4.8
			c2.5,3.5,4.8,5.4,3.7,9.7c2.6,2.3,7.6,4.3,5,8.1c1.6,3.2-2.3,4.5,2.5,5.5c1.7,2.1,3.2,4.7,5.4,6.4s2.3-0.2,2.3-0.7
			c0,1.1-3.7,6.8-4.4,6.8c-1,0.5-2,1.1-2.8,2c-2.3,2-2.3,2-1.8,6.6c0.4,4.3,0.4,4.8-1,5.8c-1.1,1.1-1.7,2.5-1.9,4
			c-1.2,6-3,11.9-5.3,17.5c-1.5,3.1-2.5,4-5,4c-1.4,0.1-2.5,0.8-3.6,2.5c-0.9,1.4-1.4,2.7-1.2,3.1s-0.4,1.7-1.4,2.9
			c-0.9,1-1.6,2.3-1.9,3.6c0,2.3-2.7,6.9-5,8.6c-1.2,0.9-2.2,2-2.2,2.6c0,1.7-1.9,2-3.9,0.6s-4-0.9-4,0.9c0,2.6-4.6,10.6-6.7,11.6
			c-1.2,0.6-2.2,1.5-2.8,2.7c-0.7,1.1-1.7,2-3,2.5c-1.5,0.5-2,1.1-1.7,1.9c0.1,1.1-0.3,2.2-1,3c-1.1,1.3-1.2,2.2-0.7,3.1
			C313.6,424.9,312.8,431.8,310.9,434z"/>
		<path id="Caldera" class="st0" d="M217.8,241.3c-0.6-0.3,1.2,1-0.4,2.8s-4.3,4.3-1.5,6.4c2.9,3-2.4,1.2-2.6,3
			c-0.6,3.6-2.7,6.8-4.1,10c-2.8,2.6,2.3,5.3,1.9,8c-3,2.2,2.5,0.6,1.1,3c-3.4,2.5-1.3,6.9-4.3,9.2c-2.6,1-1.5,4-3.4,5.3
			c-2.2,4.4-5.6-3.9-7.1-0.7c-0.1,2.7-4.8,6.4-1.3,8.4c3.8,0.9-0.2,3.6,1.3,5.9c2.4,2.1,3.8,6.4,0.2,8.1c-3.2,3.1,2.6,5.5,2.5,8.3
			c0.5,3.1,4.9,5.1,3.7,8.7c-1.1,3.5-1.7,7.1-1.5,10.8c-3.4-0.1-0.4,4.3-3.2,4s-1.4-0.9-1,1.7s6,5.7,2.4,8.1c-0.1,3.3,2.6,6,5.8,6
			c1.1,0,2.1-0.2,3-0.8c1.9-3.3,6.1,2.5,7.4-2.2c3.9-1.5,0.3-3.5-0.9-5c2.7-4.3-0.4-9-0.5-13.3c4.7-3.1-2.7-7,1.1-12.5
			c0.1-3.6,1.1-5.5,0.8-8.6c-0.2-1.9-0.8-3.8-1.7-5.5l12.2-15.3l16.5-11.5h2.2l14.5-13.5c-0.2-1.7,0-3.1-2-5.3
			c-3.8-0.1-3.8-0.7-4.8-1.2c-3-3.2-6.9-9.5-9-9.8c-1.5,0.1-2-0.4-2.7-1.6c-0.4-1.3-2.2-0.6-3.2-0.9c-1.4,0.1-2.7-0.4-3.7-1.4
			c-1-0.6-1.9-1.7-3.2-1.6c-1.1-0.1-2.7,0.4-3.5-0.6c-0.3-1.1-1.4-1.9-2.5-1.7c-1.2,0.3-1.9-0.9-2.3-1.9c-0.6-0.9-1.9-0.3-2.7-0.8
			c0-0.6,0.1-1.4-0.6-1.9C218.9,241.8,218.3,241.6,217.8,241.3z"/>
	</g>
	<g id="Provincia_Huasco">
		<path id="Alto_del_Carmen" class="st0" d="M281.1,431.7l-2.1,1.4c-1.7,0.3-0.6,2.5-2.1,3c-3-1.1-2.8-6.4-6.8-5.5
			c-5.2,1.4-3.7,4.9-7,6.9c-0.6,3.6-3.5,5.5-7.1,4.8c0.2-1.8-1.2-3.4-3-3.6c-0.1,0-0.2,0-0.3,0c-1.1-5-4.3,0.4-6.9,0.6
			c-1.2-1.7-2.7-4.2-5.4-4.8c-3.6-1.1-0.6,3.2-8.4,2.7c0.7,2.1,0.2,4.1-2.4,3.2c-2.4,3.2,4,3.8,4.6,6.7c-0.1,2.5,4.2,4.3,2.4,6.4
			c-3.9-1.1-2.6,5.5-3.6,7.9c4,1.1,6.6,1,8.9,3.6c-1.1,1.7,0.1,5-3.2,5.3c3.6,0.5,0.1,4.4-1.4,5.8l0.4,1.7c1.1,0.6,1.1,2.7-0.1,4.5
			c-0.2,4.3,6.7,6.7,4,11.4c4.5,2.5,0.1,6.8,2.7,9.4c3,1.7,1,2.4-0.3,4.7s7.9,8,7.3,2.3c4.2-2.1,8.1-0.4,10.5,3.2
			c2.4,3.2,4.7,6.6,6.6,10.2c2.2-0.7,3.8,2.7,5.5,0.7c4.5,2,8.6-2.6,13-2.5c1.3,0.1,1.5-2,0.4-4.2c-0.6-1.2-1-2.6-1.1-4
			c0-1.1-0.5-2.1-1.3-2.7c-3.4-2.4-2.2-8.9,2.2-11.1c2-1.1,2.2-1.4,1.9-3.9s-0.1-3,2.2-5.3c3.3-3.2,5.2-4.1,7.9-4.1s3.5-1.4,3.1-5.7
			c-0.3-2.2,0.1-4.5,1.2-6.4c1.1-2.2,1.6-4.7,1.4-7.1c-0.2-2.7,0.4-5.4,1.7-7.7c1.1-2.2,2-4.4,2.7-6.7c0.9-2.9,0.8-3.2-0.7-4.8
			c-1.3-1.4-1.6-2.3-1.3-4.5c0.4-3.5,2-7.7,3.5-9.4c-0.5,0.4-1.2,0.7-3.1,0.5c-1.1,0.3-2.5,0.1-3.5,0.9c-2.1,0.4-4.1,1.3-6.3,0.6
			c-2.1-0.2-3.7-1.6-5.6-2c-2,0.1-4.1,0.1-5.3-2c-1.1-1.8-2.5-0.5-3.9-0.1C282.2,432.5,281,432.4,281.1,431.7z"/>
		<path id="Vallenar" class="st0" d="M211,407.1c1.1,0.7,2.9,4.9-0.1,6.3c0.2,2.5-4.8,2.3-1.7,4.4c1.1,2.6-3.5,4-4.6,6.2
			c-0.9-2-1.1,6.9-3.9,11.6c-1.9,1.1-0.4,6.5-3.6,5.1c-0.7-4-3.5,0.4-5.9-0.3c-1.5,1.4-3.5,2.5-3.1,5.1c-0.4,3.8,5.3,2.8,7.7,2.7
			c3.9,0.7-0.4,5.7-2.1,7c-3.2,2,0.8,6-2.7,7.4c0.4,3,1.9,6,2.1,9.1c1.1,3,3.2,5.8,3.2,9.1c2.2,2.2,1.4,5.5-1.4,5.7
			c2.7,2.9-3.4,4-4.2,6.6c0.4-2.9-5-2.5-6.3-1.5c-0.9,1.3-3.7-1.1-3,1.5c1.4,3.2-0.4,11.2,3.7,10.8c0.9,1.4,2.7,0.6,4.1,0.1
			c1.9-0.5,3,2.6,1.9,5c2.7,2.3,7.6-2.5,6.9-6c4.8-1.7-1.1-5.3,3.5-9c-2.3-3.5,0.9-3.1,3.1-4.3c0.9-2.8,2.1-2.1,4.2-1.6
			c1.9,0.4,3.9,0.3,5.8-0.3c7.4-6.5,7.2-2.5,7.9-6.4c-3.1-2.4,3.3-3.4,4.8-2.6c1.4-0.3,3.8-1.9,4.4-1.9s0.4,1.7,2.5,1.4
			c1.5-0.4,2.7-0.9,3.5-0.5l-0.4-1.7c1.6-1.4,5.1-5.3,1.4-5.8c3.3-0.3,2.1-3.7,3.2-5.3c-2.3-2.6-4.9-2.5-8.9-3.6
			c1-2.5-0.3-8.9,3.6-7.9c1.7-2-2.5-3.9-2.4-6.4c-0.6-2.9-7.1-3.5-4.6-6.7c2.6,0.9,3.1-1.1,2.4-3.2c7.8,0.5,4.8-3.8,8.4-2.7
			c2.7,0.6,4.3,3.2,5.4,4.8c2.5-0.3,5.7-5.6,6.9-0.6c1.8,0,3.3,1.5,3.3,3.3c0,0.1,0,0.2,0,0.3c3.6,0.6,6.6-1.3,7.1-4.8
			c3.3-2,1.7-5.4,7-6.9c4-0.9,3.9,4.3,6.8,5.5c1.4-0.4,0.4-2.7,2.1-3l2.1-1.4c0.1-1.8-2.1-2,0.3-7.3c1.4-1.6-0.5-2.7-0.4-6
			c-0.2-2.7-0.7-5.3-1.7-7.9c-1.7-3.4-1.1-4.4-0.1-8.1c0.9-1.8-0.9-3.4-2.2-4.4s-2.5-1.4-1.8-9.9c-4.5-0.2-8.4,3-12.7,3.5
			c1.8-4.1-3.5-2.9-4.3-3.4c-2.9-2-4.5-0.6-5,0.8c-3.1,3.5-7.3,5.4-11-0.4c-4.5,0.1-6.9-5.7-11-7.2c-2.2-1.1-5.7,2-8-2.3
			c-2,1.4-5.6-6.7-7-0.4c-0.1,1.2-0.7,2.3-1.8,2.8l0.6,24.9C210.7,404.1,212.2,406.8,211,407.1z"/>
		<path id="Freirina" class="st0" d="M194.5,408.1c0.7,0.1,3-2.9,2.7-3.8c0.6-2.7,1.7-1.1,4.5,0c1.6-0.5,3.3-0.8,5-0.9
			c0.5,0.6,0.9,1.3,1.2,1.8c0.9,1.1,1.2,2.1,3,2c1.1,0.7,2.9,4.9-0.1,6.3c0.2,2.5-4.8,2.3-1.7,4.4c1.1,2.6-3.5,4-4.6,6.2
			c-0.9-2-1.1,6.9-3.9,11.6c-1.9,1.1-0.4,6.5-3.6,5.1c-0.7-4-3.5,0.4-5.9-0.3c-1.5,1.4-3.5,2.5-3.1,5.1c-0.4,3.8,5.3,2.8,7.7,2.7
			c3.9,0.7-0.4,5.7-2.1,7c-3.2,2,0.8,6-2.7,7.4c0.4,3,1.9,6,2.1,9.1c1.1,3,3.2,5.8,3.2,9.1c2.2,2.2,1.4,5.5-1.4,5.7
			c2.7,2.9-3.4,4-4.2,6.6c0.4-2.9-5-2.5-6.3-1.5c-0.9,1.3-3.7-1.1-3,1.5c-4-0.7-8.1,2-10.4-2.6c-2.4-1.4-4.5-1.6-5.6,1.5
			c-0.5,3.8-6.9,1.1-9.4,1.5s1.9-0.4-0.4-1.5s-1.7-4.8,1-4.3c2.7-1.1,0.4-4.5-1.9-3.9c1.7-1.3,1.6-3.2,0-4.5
			c1.2-1.8-0.6-3.7-1.6-5.2c-0.7-1.4-3.1,1.2-2-1.3c0.7-1.4,1.7-3.1-0.1-4c-1.1-2.2,0.1-4.7,1.4-6.6c0.5-2.7,4-1.6,4.7-3.8
			c0.5-2.3,3.8-0.9,5-2.8c1.5-1.6,1.4-4.3,3.6-5.5c1.5-1.5,1.8-3.7,3.1-5.3c0.3-2.5,3.8-3,2.8-5.5c0.1-0.9,1.5-2.3-0.1-2.5
			c-1.3-1-1-3.2-2.6-3.8c1,1.5,3.2,1.5,5.2,1.4c2.7,1.4,3.8,0.3,6.3-0.9c1.3,1.7,2.3,2.4,4.5,1.8c1.1-0.6-0.4-2.2-0.5-2.5
			c0.3-1.9-0.4-3.5-0.9-5.3c0.9-1.7,0.8-3.5,1.1-5.3c0.1-0.4,3.2-1.4,3.8-2c1.1-1.1,1.1-2.7,2.5-3c1-0.2,2.9,0.1,3.8,0
			c-1.1-1.1-2-2.3-2.7-3.6C191.5,413.2,195,408.8,194.5,408.1z"/>
		<path id="Huasco" class="st0" d="M211,407.1c-1.8,0.1-2.2-0.9-3-2c-0.4-0.5-0.7-1.1-1.2-1.8c-1.7,0.1-3.4,0.4-5,0.9
			c-2.7-1.1-3.9-2.7-4.5,0c0.3,0.9-1.9,3.8-2.7,3.8c0.4,0.8-3.1,5.1-2.9,5.5c0.7,1.3,1.6,2.5,2.7,3.6c-0.9,0.1-2.7-0.2-3.8,0
			c-1.4,0.4-1.4,1.9-2.5,3c-0.5,0.5-3.7,1.6-3.8,2c-0.3,1.9-0.1,3.7-1.1,5.3c0.4,1.9,1.1,3.5,0.9,5.3c0.1,0.4,1.7,1.9,0.5,2.5
			c-2.2,0.6-3.2-0.1-4.5-1.8c-2.5,1.2-3.5,2.2-6.3,0.9c-2,0.1-4.2,0.1-5.2-1.4l1.6-1.8c2.7,0.8,4.5-2.9,2.7-4.7
			c-1.2-0.9-0.9-1.5,0.4-1.6c-0.1-2.1,1.8-2.8,2.8-4.3c1.1-1.2,2.3-1.7,2.1-3.7c1.2-1.7-0.6-4,1.8-4.8c2.6-1.5-0.6-4-1.7-5.3
			c-1.1-0.6-1.6-2.1,0.2-1.7c1.6-1.1,1.1-3.7,1.7-5.3s1.5-3.7,0.4-5.2c-1.6-0.9,0.6-3.3,0.2-4.9c0.6-1.7-0.4-1.7-1.9-2.1
			c-0.4-1.7,2.2-3,2.8-4.6c-0.8-1.4,1.3-4-0.1-6.9c0.1-2-0.3-3,1.3-4c1.9,4.5,12.3,1.5,13.3,7.9c1.5,3.1,3.7,2.6,6.3,1.7
			c3.3-1.9,3.8,2.7,6.1,2.4c1.3-2,3.7-1.7,5.4-2.5l0.6,24.9C210.7,404.2,212.2,406.8,211,407.1"/>
	</g>
	<g id="Limites">
		<path id="Region_Antofagasta" class="st0" d="M411.8,104.7c0.3,2.5-4.9,2.2-8.2,3c-5.1,3.6-10.2,12-15.4,7.5h-7.1
			c-3.5,1.9-6,1.8-7.5-0.4l-4.5,0.4c2,2,3.3,3.9,0.4,4.9c3.2,4.3,2,7.9-1.9,11.2l-5.7,3.3c4.4,0.9,4.7,3.5,4.1,6.4
			c2.2,2.8,6.5,6.4,1.1,6.4c0.8,2.1,0.4,4.3-3.8,6.4c-1.8,3.6-3.8,7.1-15.4,6.8l-11.2,4.5c-1.5-3.4-3-2.7-4.5-2.2
			c0.2,2.4-2.5,1.7-5.3,1.1c0.4,2.7-0.1,4.3-2.6,3l0.7,4.9c-8.1-2.6-18.4,0.2-19.9-3c-4.5,0.1-10,1.8-12.8-0.7l-1.9,3.4
			c-3.9-2.4-5.8-4.2-6.8-5.6c-3.5,0.8-7.4,1.3-9,3l-4.1,3l-10.1-1.5l-5.6-1.1c0.4-5.3-3.7-3-6-3.8c0.1,10.2-5.8,5.5-9.4,6.8
			c-2.9,3.5-6,6.7-12.8,5.3c-1.7,4.4-3.7,9.4-6.4,7.1"/>
		<path id="Región_Coquimbo" class="st0" d="M287.1,522.1c-4.5-0.1-8.5,4-13.1,2.2c-1.7,2-3.2-1.4-5.5-0.7c-2-3.5-4.2-6.9-6.6-10.2
			c-2.4-3.5-6.4-5.3-10.5-3.2c0.6,5.7-8.7-0.1-7.3-2.3s3.2-3,0.3-4.7c-2.7-2.7,1.7-6.9-2.7-9.4c2.7-4.6-4.3-7.1-4-11.4
			c1.2-1.8,1.2-4,0.1-4.5c-0.8-0.4-2,0.1-3.5,0.5c-2.2,0.2-1.7-1.4-2.5-1.4c-0.6,0-3,1.5-4.4,1.9c-1.5-0.8-7.9,0.2-4.8,2.6
			c-0.6,4-0.4-0.1-7.9,6.4c-1.9,0.6-3.9,0.7-5.8,0.3c-2.2-0.5-3.3-1.2-4.2,1.6c-2.2,1.2-5.5,0.7-3.1,4.3c-4.7,3.7,1.2,7.4-3.5,9
			c0.7,3.5-4.1,8.3-6.9,6c1.1-2.5,0.1-5.5-1.9-5c-1.4,0.4-3.2,1.2-4.1-0.1c-4.1,0.4-2.3-7.5-3.7-10.8c-4-0.7-8.1,2-10.4-2.6
			c-2.4-1.4-4.5-1.6-5.6,1.5c-0.5,3.8-6.9,1.1-9.4,1.5"/>
		<path id="Internacional" class="st0" d="M411.8,105c-0.3,1.9-2.1,6.3,0.7,7.1c0.9,1.8,0,4.1-3,7.1l-2.4,2.4l0.8,4.3
			c0.4,2.3,1.3,4.6,2.7,6.5c2.2,2.5,1.4,2.4,0.8,5.3c-1.1,5.7,1.6,4.8,2.8,8.7l9.5,49.3l-7.9,5.8l-7.8,6.1l-2.1,18.7l18.9,29.2
			l9.8,15.1c0.3,1.4-0.3,2.9-1.7,3.6c-1.8,0.9-2.6,3-2.6,6.9c-0.1,2.9-0.1,2.9-3,2.9c-4.5,0-11.1,2.5-13.9,5.4
			c-2.2,2.3-2.6,2.5-4.5,1.7s-2.2-0.6-4,1.6s-2,2.4-4.3,1.6c-1.9-0.6-3.1-1.7-4.7-4.3c-2.2-3.5-2.2-3.5-5.2-3.2
			c-1.9,0.2-3.3,0.9-3.8,1.7c-0.9,1.3-1.9,2.4-3,3.5c-1.7,1.7-2.4,3-2.7,5.9c-0.4,3.5-0.4,3.8,1.4,5c2.5,1.7,2.3,2.6-0.9,4.3
			c-2.2,1.1-2.8,2-3.5,4.8c-0.4,1.7-1.1,3.4-2.2,4.8c-0.7,0.6-1.2,1.4-1.5,2.2c0,0.4-0.8,0.7-1.8,0.7h-1.8l1.4,2.7
			c0.6,1.1,1.1,2.3,1.4,3.5c0,1.1-3.7,6.8-4.4,6.8c-1,0.5-2,1.1-2.8,2c-2.3,2-2.3,2-1.8,6.6c0.4,4.3,0.4,4.8-1,5.8
			c-1.1,1.1-1.7,2.5-1.9,4c-1.2,6-3,11.9-5.3,17.5c-1.5,3.1-2.5,4-5,4c-1.4,0.1-2.5,0.8-3.6,2.5c-0.9,1.4-1.4,2.7-1.2,3.1
			s-0.4,1.7-1.4,2.9c-0.9,1-1.6,2.3-1.9,3.6c0,2.3-2.7,6.9-5,8.6c-1.2,0.9-2.2,2-2.2,2.6c0,1.7-1.9,2-3.9,0.6s-4-0.9-4,0.9
			c0,2.6-4.6,10.6-6.7,11.6c-1.2,0.6-2.2,1.5-2.8,2.7c-0.7,1.1-1.7,2-3,2.5c-1.5,0.5-2,1.1-1.7,1.9c0.1,1.1-0.3,2.2-1,3
			c-1.1,1.3-1.2,2.2-0.7,3.1c1.4,2.6,0.6,9.6-1.3,11.8c-1.5,1.7-3.1,6-3.5,9.4c-0.3,2.2,0,3.1,1.3,4.5c1.5,1.7,1.6,2,0.7,4.8
			c-0.8,2.3-1.7,4.5-2.7,6.7c-1.3,2.3-1.9,5-1.7,7.7c0.2,2.5-0.3,4.9-1.4,7.1c-1.1,2-1.5,4.2-1.2,6.4c0.4,4.3-0.4,5.7-3.1,5.7
			s-4.7,1-7.9,4.1c-2.3,2.2-2.6,2.8-2.2,5.3s0.1,2.9-1.9,3.9c-4.3,2.2-5.5,8.7-2.2,11.1c0.8,0.7,1.3,1.7,1.3,2.7
			c0.1,1.4,0.5,2.8,1.1,4c1.1,2.2,0.9,4.3-0.4,4.3"/>
	</g>
</g>
<g>
	<g>
		<defs>
			<circle id="SVGID_1_" cx="300" cy="302" r="277.6"/>
		</defs>
		<clipPath id="SVGID_2_">
			<use xlink:href="#SVGID_1_"  style="overflow:visible;"/>
		</clipPath>
		<g class="st1">
			<g id="Region_Antofagasta-2" class="st2">
				<g id="Provincia_El_Loa">
					<path id="antofagasta" class="region" d="M417.1-319.7l-2.3,0.4l-3,12.3l-30.3,18.7l-4.4,1.5v0.1l-34.8,11.2l-21.9,24.2
						c-0.9-0.5-1.7-1.3-2-2.3c-0.9-1-0.9-2.4-1.7-3.4c-1.2-1.4-2.2-2.8-3.2-4.4c-0.8-1.3-1.5-2.6-2.1-3.9c-0.8-1.1-1.3-2.8-2.6-3.3
						c-1.8-0.4-4.5-0.8-6-2.1c-0.9-0.8-2-1.1-3.1-1c-1.5,1.5-3,1.3-5,0.8c-0.9,0-1.8,0-2.8-0.1c-0.1,0-0.2,0-0.4-0.1
						c-2.4-0.3-3.5-1-5.5-1.5c-1.9,0.1-3.8,0.3-5.6,0.7c-2.6,1.6-2.5,0.5-5-0.2c-0.8,0-1.6,0.4-2,1.2c-0.2,0.7-1.3,2-3.9,3
						c-1.5,1.6-2,3.6-0.2,6.5l-1.7,2.6c-0.6,3.3,0,6.9-5.5,8.9c0.1,2.7-0.4,5.9,1.5,6.8l-1.6,3.8c2.9,9.5,0.1,12.7-4.6,13.9
						c1.2,1.9,5.8,3.2,1.2,6.3c-0.2,3.8-2.2,7.9,0.4,11.1c-2.4,2.8-3.7,6.4-3.8,10.1c0.9,4.2-0.2,9.4-0.5,14.2
						c-0.4,2-1.7,3.6,0.2,6.8c-2.8,4-2,7.5,0.9,10.8c-1.4,2.8-1.6,5.8-3,5.5c-1.6,2.4-0.9,3.6,0,4.8c1.5,1.5,0.9,3.1-0.8,4.6
						c0.2,0.4,1,9.3-2.1,12.5c-2.4,4.7,1.1,6.8,1.8,9c-0.8,4.3-3.4,17.3-17.6,21.3c-4.5-0.4-3.5-4.3-3.8-7.1
						c-3.8,0.2-7.9,6.7-6.7,9.7c2.8,2.8,2.1,6,0.4,9.3c-0.6,1.5-0.9,3.2-0.7,4.8c0,1.2,1.1,3.3,1.1,4.5s0.6,3.9,0.4,4.8
						c-0.8,4.5-0.5,12.4-2.9,12c-0.7,2.8,0.8,1.7,3.3,2.9s4.5,1.6,5.6-0.7c0.2-0.4,0.3-5.3,1.8-4.1c1.4,1,4,0.3,5.6,1.9
						c5.1,5.2,4.8,9.8,4.5,16.8c-0.9,2.5-2.6,2.6-2.9,5.3c-1.3,2.6-3.2,6.1-4.9,7.8c-0.7,0.7-2.3,2.9-1.8,4.8
						c0.4,1.7-2.2,2.6-0.7,4.1c1,1,4.3,1.3,2.6,3c-2.2,10.7,0.5,10.7,0.8,15.7c-0.3,0.6-2.1,4-1.9,4.9c0.4,2.9-1.4,6.1-1.8,9
						c-0.8,4.4-2.7,7.7-4.5,11.9c0.5,1.5,2.7,4.3,2.2,6.4c-1,3.7-1.8,7.5-2.6,11.2c-1.2,0.8-0.6,2.3,0.2,4c1.5,3,3.9,6.9-1,10.6
						c0.8,6.6,2.3,13.2,4.5,19.5c0.6,4.6,2.2,8.9,4.9,12.7c1.5,3.7-0.7,6-2.3,8.6c0.8,1.7,1.8,3.4,3,4.8c1.8,2.6,4.1,5.7,3.4,9
						c-0.6,2.4-1.7,4-2.3,6.3c-0.7,2.7,0.8,4.5-0.4,6.8c-0.5,1.4-1.6,2.4-3,2.9c-2.7,1.8-2.9,4.7-4.5,7.5c-1.2,2.6-7.4,3.2-7.1,7.5
						c-1.2,3.3-1,6.7-3.4,9.3c-1.9,2.5-6.2,4.6-3.4,8.2c4.3,6.1-3.6,3.6-2.9,7.1c-2,0.9-3.3,3.6,0.7,9.3c1.9,3.1,3.9,4.9,6,7.5
						c1.4,3.4,1.2,7.2-0.4,10.4c0.6,0,0.8,0.4,1.1,0.7c2.7,2.3,4.7-2.7,6.4-7.1c6.8,1.4,9.8-1.8,12.7-5.2c3.5-1.3,9.5,3.4,9.4-6.8
						c2.3,0.8,6.4-1.5,6,3.8l5.6,1.1l10.1,1.5l4.1-3c1.6-1.7,5.5-2.2,9-3c0.9,1.4,2.9,3.2,6.8,5.6l1.8-3.3c2.7,2.6,8.2,0.9,12.7,0.7
						c1.5,3.2,11.8,0.4,19.9,3l-0.8-4.9c2.6,1.3,3-0.2,2.6-2.9c2.7,0.6,5.5,1.2,5.2-1.1c1.5-0.4,3-1.2,4.5,2.2l11.2-4.5
						c11.5,0.3,13.5-3.1,15.3-6.7c4.2-2.1,4.5-4.3,3.8-6.4c5.4,0,1-3.6-1.1-6.3c0.5-2.9,0.3-5.5-4.1-6.4l5.6-3.3
						c3.8-3.3,5-7,1.8-11.2c3-1,1.6-2.9-0.4-4.8l4.5-0.4c1.5,2.1,4,2.2,7.5,0.4h7.1c5.1,4.5,10.2-3.9,15.3-7.5
						c3.3-0.7,8.5-0.4,8-2.6c-0.2-3.1,1.5-6,4.2-7.4c1.7-2.4-3.1-6.4,1.6-7.3c1.8-3.7,5.3-2.1,8.2-1c3.6-0.5,3.9-6,1.5-8.2
						c-1.7-3.1-4.1-5.8-4.9-9.3c-1.8-2.8-2.2-6.5-5.8-7.8c-3.3-1.4-3.3-5.6-5.8-7.9c-2.5-2.6,3-4.2,3.5-7.1c2.2-2.5,1.4-7.4,3.3-9.8
						c3.9,1.4,4.9-2.7,5.6-5.6c1-2.5,1.1-6.4,4.7-6.4c2.6-0.7,6.5,1.1,7.2-2.6c1.3-1.5,1.9-3.3,3.3-4.7c1.4-1.4,13.8-5.5,13.8-5.5
						l70.7-28.2l31.4-103.5l-15.4-17.1l-33.2,8.2l-23.3-2.5c-1.8-3.2-9.4-1.8-6.3-7.4c1.1-2.6,0.2-5.6-2.2-7.1
						c1.5,0.3,2.2-5.1,1-8.5c1.4-3.1,6.8-8.4,1.2-10.4c-4.6-3-0.7-9.8-4.7-13.1c-0.2-0.3-0.4-0.6-0.5-0.9c0.3,0.2,0.2-0.6-0.4-0.9
						h-0.1c0-0.1-0.1-0.2-0.1-0.4s0,0,0-0.1c0.6-0.4,0-0.5-0.1-0.2c-0.9-3,0.1-6.6,0.2-10c1-4.3-3.9-7.7-2-12.2
						c2.6-2.7-1-4.1-1.5-5.8c-0.8-2.8-3.6-3.8-4.1-4.2c-1.5-1.6-3.2-3.1-5.1-4.2l-0.7-1.3l0.2-20l-3.6-4.3l-1.2-3.9l-6.3-7.7v-31.3
						l-9.9-18.7l-12.3-17.2L417.1-319.7z"/>
				</g>
			</g>
			<g id="Region_Coquimbo" class="st2">
				<g id="Provincia_Elqui">
					<path id="coquimbo" class="region" d="M231.2,475.3c-0.6,0-3,1.5-4.4,1.8c-1.5-0.8-8,0.3-4.9,2.6c-0.6,3.9-0.4-0.1-7.8,6.4
						c-1.9,0.6-3.9,0.7-5.8,0.2c-2.1-0.5-3.3-1.2-4.2,1.6c-2.2,1.2-5.4,0.7-3.1,4.3c-4.7,3.7,1.2,7.4-3.5,9c0.7,3.5-4.1,8.3-6.9,6
						c1.1-2.4,0.1-5.6-1.8-5c-1.5,0.4-3.3,1.2-4.1-0.2c-4.1,0.4-2.3-7.5-3.6-10.8c-4-0.7-8.1,1.9-10.3-2.6c-2.4-1.3-4.6-1.6-5.6,1.5
						c-0.5,3.8-6.8,1.2-9.4,1.5l0.7,2.8c0.7,2.6,1.8,2,0.8,3.6c-0.8,1.3-0.8,1.7-0.2,1.7c0.5,0,1-0.3,1.4-0.6c1.1-1.1,3.4,0,7.4,3.9
						l4,3.9l-0.3,3.1c-0.3,2.9-0.2,3.3,1,4.6c1.2,1.3,1.3,1.6,0.8,2.8c-0.3,0.6-0.4,1.2-0.2,1.8c0.2,0.3-0.1,1-0.6,1.6
						c-0.8,0.9-0.1,3.2,0.3,5.5c0.3,1.8-0.1,3.7,1.2,4.5c3,2.2,2.5,2.7,0,4.5c-0.4,0.5-0.7,1.1-0.8,1.7c-0.6,3-0.3,6.2-1.6,9.1
						c-0.6,1.6-0.6,1.9,0.5,3.1c0.6,0.6,1.1,1.4,1.2,2.3c0,0.5,0.5,2.7,1.8,2.5c2-0.3,1.9,1.5,1.8,4.7c-0.1,2.6,0.9,3.6-0.1,4.4
						c-0.7,0.5-0.6,1.9-0.6,2.7s-3.1,0.9-3.6,0.9c-0.9,0-0.6-1.5,0.2-2.1l-3.4,2.8c3.8,2-0.5,3.7-0.3,1.2c0-0.4-1.1,2.7-2,1.5
						c-0.5-0.7-3.8,2.7-0.1,3.6c1.7,0.4,0.6,5.1,2.1,5.7c0.6,1-0.8,2.8,0.2,4c-0.2,0.3-0.4,5-1.3,5.9s-3.6,1.3-4,0.3s-2.5-2.4-2,0.7
						c-1.2,3.1-0.7-0.2-1.6,5l-1,2.3c-0.2,2.5-2.6,3-5.8,3.7c-1.6,0.4-2.2,0.3-3.1-0.5c-0.6-0.6-0.9-1.3-1-2.1
						c-0.1-0.7-0.3-1.4-0.7-2c-0.7-1-0.9-0.9-2,0.9c-0.8,1.4-1.3,2.9-1.5,4.4c-0.2,1.2-1.1,3.5-0.9,3.9h-0.1
						c-0.6,0.8-0.8,1.6-0.7,1.7c0,1.7-0.1,3.5-0.3,5.2c-0.2,2.7-1.2,7-0.8,9.7c0.4,2.3,0.1,4.7-0.7,6.9c-0.4,1.9-0.4,3.9,0,5.8
						c0.9,3.6,2,5.6,0.4,7.7c-1.2,1.6,1.1,10.9,1.7,12.6c0.4,1.6,0.7,3.2,0.9,4.8c0.3,2.1,0.9,4.1,1.8,6c1,2.2,1.3,3.4,1,4.7
						c-0.8,4.1-1,6-0.5,7.5c0.4,1.5,0.4,3.2,0.1,4.7c-0.5,2.8-0.4,3.7,0.9,7.8c0.7,2.2,1.2,4.5,1.5,6.8c0,1.2-0.1,3.6,0.8,3.6
						c1.3-0.1,1.6,0.4,0.8,2.8s1.1,7.5,3.8,14.4c0.3,0.8-0.3,3.2,0.9,5.5c0.9,1.7-0.5,3.6-1.2,4.6s1.8,2,2.1,2.7
						c0.5,1.1,0.7,4,1,6.6c0.1,1.3,0.4,2.5,0.7,3.8c0.1,0.5,0.3,1,0.6,1.4c2.1,1.5,3.1,3.8,1.4,6.1c-0.5,1.7-4.7,5.5-0.8,5.5
						c3.5,0.3,1.9,3,1,5.1c-1.1,2.5,1.5,4.1,1.7,6.1c-1.5,2.3-1.2,5-1.4,7.6c0.1,2.2-0.9,4.9,0.4,6.9c-0.4,1.2-0.8,2.3-1.4,3.4
						c0.1,1.4-0.4,3.2,1.3,3.9c1.9-0.2,3-2,4.3-3.2c2.2,1,4.5,2,6.8,2.8c3.1,1.3,6.7,0.5,9.5-1.1c0.6-1.8,2.8-2.5,3.7-4.3
						c0.5-2.4,2.4-1.4,2.9,0.4c2,3.1,4.9-0.7,6.6-2.1c1.7-2.4,4.3-3.6,6-5.9c1.7-0.9,1.9-2,0.3-3.3c-0.4-3.3,3.9-1.3,5.8-1.3
						c0.6,0,1.2,0.3,1.7,0.8c1.4,2,2.6,4.2,2.9,1.5c2.7-1,4.7-0.7,5.7-2.3c1.6-0.8,3.3-1.4,5-1.7c0.9,0,1.8-0.3,2.6-0.8
						c1.8-1.3,4.1-0.9,4.2,0.7c0.1,1.2,2.5,2.9,2,1.7c-0.5-1.3,5.4,0.2,1.9,3.1c-1.3,1.1,2.6,4.1,1.1,3.9c-0.4,0,2.2,1.7,4.5,2.9
						c5.4,0.9,6.2,3.2,5.2-1.3c-0.2-0.7,1.7,1,3.3,1.5l2.9,1c1.5,1.3-0.1,4.4-0.2,6.7c0.5,0.4,2.5,0,2.5,0.9
						c0.2,1.7-0.6,4.5,1.2,5.2c0.6-0.2,3.4-1.5,4.1-1.7c2.5-0.6,3.2-1.9,3.8-3.8c0.4-1.2-1.6-2.6-0.9-5.2c1.1-4,1.1-4.9-0.5-5.2
						c-2.4-0.5-2.9-3.3-1.7-5c0.2-0.3-0.3-2.1-3.3-2.5c-1.1-0.2-2.2-2.8,2.4-2.5c0.4,0,0.7,2.2,0.9,2.1c0.6-0.4,2.9,1,3.4,0.9
						c1.2-0.1,2.9-2.1,4.1-3.8c0.3-0.4,0.6-3.2,1.5-3.3c1.6-0.1,2.2-3.2-0.3-5.1c-1-0.8-1.2-1.4-2.7-2.6c-1.8-1.4,0.6-3.3-6-2.2
						c-2.7,0.4-5.4-0.6-7.2-2.8c-0.7-0.9-2-0.7-2.6-1c-1.9-1.1,1-0.9-0.8-6.2c-0.4-1.3-0.4-2.6,0.2-3.9c0.6-2.2-1-5.4-2.6-5.1
						c-0.8,0.1-1.6-0.4-1.7-1.2c0-0.1,0-0.1,0-0.2c0.3-2.6-3.3-5.2-2.3-5.9c-2.9-0.9-2.5,1.3-1.7-6.1c-2.6-11,2.5-8.1-0.6-11.5
						c0.6-1.9,3.1-5.6,2.8-6.2c-1.4-2.7-1.7-5.9-0.8-7.2c1.1-2,1.6-4.2,1.4-6.5c-0.7-6.6,0.8-9.6,3.1-10.7c0.8-0.4,1.8-4,2-2.4
						c0.1,1,1.7,3.9,3.1,4.4s-0.6,2.7,1.5,1.9c4-1.6,1.8-2.2,2.5-4.5c1-2.5,2.5-4.8,4.4-6.8c1.4-0.9,3.5,0.6,3.6-0.8
						c0.1-1.2-0.4-1.2-1.2-1.9c-1.7,1.9-0.6-3.3-2-5.5c-2.1,0-2.4-2.3-0.4-3.9c1.3-1,0.4-4,1.2-6.7c0.5-1.8,1.4-3.2,0.9-4.4
						c-0.3-0.7-0.2-1.4,0.2-2c0.4-0.5,0.6-1.1,0.6-1.7c0.4-1.2,1-2.3,1.8-3.3c0.8-1.4,0.4-2.5,0.3-3.9c0-0.1,0-0.4,0.1-1.4
						c0.2-3.1,0.2-6.2,2.5-8.7c1.8-2.6,2.9-6.7,2.8-7.5s-0.8-1.4-0.2-2.3c0.5-0.7,1.2-1.2,2-1.5c3.9-1.9,4.9-4.4,3.3-8
						c-1.1-1.7-3.1-3.7-1.9-4.7c0.4-0.2,1.2,0,3.1,0.7c0.8,0.8,2.3,2.8,2.7,3.2c0.9,0.9,4,1.8,4.5,1c0.2-0.3,2-1.7,3-1.5
						c1.3,0.3,1,1.8,2.4,0.5c0.9-0.9,2.6-3.4,3.3-3.4c2,0,3.6,0.3,2.5-1.4c-1-1.5-1.6-2.3-0.1-5.6c0.5-1,1.3-1.9,1.2-2.6
						c-0.1-1-1.2-3.7,0-3.8s2.9,1,3.7-0.6c0.6-1.2,1.4-2.8,1.1-3.3c-0.4-0.8-0.9-2.1,0.6-2.2c2-0.1,0.8-4.4-1-3.3
						c-1.3,0.8-3-0.5-3.3-1.6c-0.2-0.8-2.4-1.8-3.8-0.7c-4.5,3.8-2.8-0.6-3.1-1.1c-2.1-2.6-1-1.1,0.7-3.1c1-1.2,2.2-2.9,1.8-4.7
						c-0.4-1.5,0-3.1,1.1-4.3c2.7-2.5-0.7-3.4-0.1-4.2c1.6-2.2,1.9-6.6,2.1-6.8c0.4-0.3-1.1-1.3-1.1-2s0.6-3.4,0-3.3
						c-1.6,0.4-1.9-0.3,0.5-3.9c1.7-2,1.4-5-0.6-6.7c-0.1-0.1-0.2-0.1-0.2-0.2c-4-3.5-3.8-3.7-3.4-7.6c0.3-2.7,0.8-4.3,0.1-5.8
						c-0.5-1.1-1.3-1.1-1.5-2.3s1.1-3.5-0.8-3.3c-4.2,0-8.2,4.1-12.8,2.2c-1.7,2-3.3-1.3-5.5-0.7c-2-3.5-4.2-6.9-6.6-10.1
						c-2.4-3.5-6.4-5.3-10.6-3.2c0.7,5.7-8.7-0.1-7.2-2.3c1.3-2.3,3.2-3,0.3-4.7c-2.6-2.6,1.8-6.8-2.7-9.3c2.7-4.6-4.2-7.1-4.1-11.4
						c1.2-1.8,1.2-4,0.1-4.5c-0.8-0.4-2,0.1-3.5,0.5C231.6,477,232,475.3,231.2,475.3z M152.5,496.7c-0.2,0.6,0.2,1.2,0.7,1.4
						C153.5,497.5,153.1,497,152.5,496.7L152.5,496.7z M151.8,499.1c-0.4,0-0.9,1.1-1.5,2c0,0.5,0.5,1,1,1c0.6,0,1-1.7,0.7-2.6
						C152,499.2,151.9,499.1,151.8,499.1z"/>
				</g>
			</g>
		</g>
	</g>
</g>
<circle class="border-circle" cx="300" cy="302.1" r="277.6"/>
</svg>
