<?xml version="1.0" encoding="utf-8"?>
<!-- Generator: Adobe Illustrator 21.0.0, SVG Export Plug-In . SVG Version: 6.00 Build 0)  -->
<svg version="1.1" id="Capa_1" xmlns="http://www.w3.org/2000/svg" xmlns:xlink="http://www.w3.org/1999/xlink" x="0px" y="0px"
	 viewBox="0 0 600 600" style="enable-background:new 0 0 600 600;" xml:space="preserve">
<style type="text/css">
	.st1{clip-path:url(#SVGID_2_);}
	.st2{clip-path:url(#SVGID_4_);}
	.st3{opacity:0.7;}
	.st4{fill:#FFFFFF;stroke:#FFFFFF;}
	.st5{fill:#FFFFFF;stroke:#FDFCFB;}
</style>
<title>Valparaiso</title>
<g id="g2340">
	<path id="c308" name="Santo Domingo" class="comuna" d="M180.4,526.4c-3.2-0.3-2.8,0.9-4,1.5s0.2-2.1-0.9-3.5s-1.2,0.7-4.3,0.4
		c-0.8-0.1,1.1-4,0.5-4.2c-2-0.3-3.4,6.1-5,1.9c-0.7-2-3.2-1.5-4.5-3.2c-0.6-0.9-0.8-2.2-3.8,1.3c-0.9,1.1-1.6-0.5-2.5-1.1
		c0.9-1.5,3.1-2.4,1.6-5.1c0.4-0.2,0-3.2,0-5c0-2,0.4-4,1.1-5.9c0.6-1.4,0.9-2.9,1.1-4.5c0.1-1.3,0.5-2.5,1.2-3.6
		c0.9-1.5,1.6-3.1,2.1-4.7c0.6-2.3,1.4-3.1,3-3.6c18.1-6.5,24.6-11.4,24-30.9l2-0.3c0.9,1.5,3,1.3,4.1,2.5c0.7,1.1,2.6,0.9,2.8,2.3
		c0.3,3,0.7,5.9,2.1,7.2c1.3,0.9,0.1,3,0.9,4.2c0.6,1,1.5,1.5,1.8,2.5c0.9,1,0.6,4.2,0,5.5c0.3,1.3,2.8,2,4,2.2l0.2,5.2
		c-0.8,0.1-1.5,0.7-2.2,2.1l-0.4,20.8l-2.5,0.1c-0.6,0.6-0.7-0.7-1.8-1.7c-4.1,3.1-8.2,6.2-12.4,9.2c-1.7,1.2-3.3,2.4-4.8,3.8
		C182.3,522.7,178.7,524.3,180.4,526.4z"/>
	<path id="c279" name="San Antonio" class="comuna" d="M193.5,443.1c-2.7-3.9,0.1,0.5,2.5,0.6s5.2-0.1,7.5,0.7c2.1,1.5,5.2-0.4,7.1,2
		c2.2,2.7,6,0.5,8.7,2.4c1.6,1,3.4,1.8,5.2,2.4c2,0.9,4.6,4.2,6.6,1.3c1-2.8,5.4-0.6,6-3.9c1.5-0.8,3.5-1.8,5.2-1.6s3-2.5,2.3-1.2
		c-0.6,1.3-0.4,2.8,0.4,3.9l-1,1.4c-0.4,2.4-0.9,4.4-2.2,4l-2.2,2c-2.6-0.1-6-1-4.3,3.2c-3.5,1.2-2.1,3.8-2.8,5.8l-2.5-2.2l-2.5,2
		l0.1,0.9c-3.7,5-0.4,4.5,1.5,5.1c-0.1,1.5-2,2,1.2,5.1l3,2c0.9,4.3,2.5,2,5.6,5.1l-0.1,3c-0.1,1.6-0.7,3-1.9,4.1
		c-2.5,0.5-5.6-0.6-7.3,1.9c-1.9-1.6-5.1-1.4-5.1-1.4h-4.1l-3.4-2.5h-3.6l-1.4,1c-1.4-1.7-2.8-2.8-4-2.7l-0.2-5.2
		c-1.2-0.3-3.7-0.9-4-2.2c0.6-1.4,0.9-4.5,0-5.5c-0.3-1-1.2-1.5-1.8-2.5c-0.9-1.2,0.4-3.2-0.9-4.2c-1.4-1.2-1.9-4.1-2.1-7.2
		c-0.2-1.5-2.1-1.2-2.8-2.3c-1.2-1.2-3.2-1-4.1-2.5l-2,0.3C193.1,452.5,196.3,447,193.5,443.1z"/>
	<path id="c30" name="Cartagena" class="comuna" d="M194.5,435.5c3.6-0.7,6.2,2.6,9.5,1c1.2-3.3,5.4-1.2,8.1-1.6c0.9-3.2,3.2-6.5,4.8-9.2
		c2,1.7,7.2,5.2,8.3,0.9c3.4-1.2,4.7-6,9.1-4.6c2-0.9,8.3-3.5,8.4-2.5c0,2.8-1.3,5.9-0.1,7c-2.7,2.5-3.1,5-1.2,7.5
		c0.4,1.6-2.4,4.6,1.7,4.6c0.8,1.2,1.4,3.2,1.7,7.2c0.6-1.3-0.6,1.3-2.3,1.2s-3.7,0.9-5.2,1.6c-0.7,3.2-5,1.2-6,3.9
		c-1.9,3-4.5-0.4-6.6-1.3c-1.8-0.6-3.6-1.4-5.2-2.4c-2.7-1.9-6.4,0.3-8.7-2.4c-1.9-2.3-5-0.5-7.1-2c-2.3-0.9-5.1-0.2-7.5-0.7
		l-2.5-0.6C195.3,441.3,196.9,439.7,194.5,435.5z"/>
	<path id="c87" name="El Tabo" class="comuna" d="M181.9,420.5c-1.7-1.2,3.5,0.1,4.9-1.2c2-2,4.2-2.5,6.1-0.4c1.1,1.4,2.4,2.6,4,3.4
		c1.8,0.9,3.8,0.5,5.7,0.3c1.6-0.7,3.5-0.7,5.1,0c2.1,1.1,5.1,4.8,6.7,2.8c-0.9,0.8,2.4-0.6,2.5,0.4c-1.4,2.8-3.8,6-4.8,9.2
		c-2.7,0.4-7-1.7-8.1,1.6c-3.2,1.6-5.9-1.7-9.5-1.1c-1.4-2.5-3.7-4.4-6.5-5.1c0.1-1.3-0.3-2.5-1.1-3.5
		C185.7,422.5,183.6,421.6,181.9,420.5z"/>
	<path id="c86" name="El Quisco" class="comuna" d="M181.9,420.5c-1.7-1.2,3.5,0.1,4.9-1.2c1.7-2.2,4.6-2.3,6.1-0.4c2,0.3,3.2-2,4.2-3.4
		c1.3-1.5,0.6-3.2-0.1-4.8s-1.5,0.4-3-1.2s-1.1,0.6-2,0.6c-1.7,0-1.6,0.5-2.4,0.9c-0.1,0.1-3,0.8-3.3,0.2c-0.2-0.7-0.6-1.3-1.2-1.7
		c-0.9-0.5-1.2-2-3.5-2.5c-1.1-0.6-2-1.4-2.6-2.5c0.6,2.5-0.5,6.5-2.9,10.4c0.8,1.1,1.7,2.1,2.8,2.9
		C180.3,419.4,181.9,420.2,181.9,420.5z"/>
	<path id="c1" name="Algarrobo" class="comuna" d="M197,410.8c-0.7-1.5-1.5,0.4-3-1.2s-1.1,0.6-2,0.6c-1.7,0-1.6,0.5-2.4,0.9
		c-0.1,0.1-3,0.8-3.3,0.2c-0.2-0.7-0.6-1.3-1.2-1.7c-0.9-0.5-1.2-2-3.5-2.5c-1.1-0.6-2-1.4-2.6-2.5c-0.4-1,7-1.1,7.8-5.7
		c-0.9-3.8,0.6-8.2-1.5-11.6c-0.4-0.3-1.2-0.9-2-1.7s3.4,0.3,1.5-1.5c1.4-1.5,3.5-2.1,5.5-1.5c1.4,1.5,1.4-1.2,2.7-1.2
		c1.4-1.3,3.9-2,4.8,0.1c1.7,1.6,2.8-0.9,4.4-1s4.3-0.9,4.9,1.1c0.1,1.8,0,3.6-0.4,5.4c-0.1,2.1,2.8,3,2.7,5.2
		c-0.1,2.4-2.2,4-2.7,6.2c-0.2,2-2,3-2.8,4.7c-1.2,2,1.5,3.6,1,5.4c-1.4,1.2-3.8,0.6-4.9-0.6C198.2,406.3,197.2,409.5,197,410.8z"/>
</g>
<g id="g2358">
	<path id="c138" name="Limache" class="comuna" d="M223,309.3c1.2,1.6-2,0.8-2.2,1.2c0.9,1.2,0.9,4.3,3.1,2.9c0.9,0.6,0.9,1.9,1.2,2.8
		c0.4,0.9,1.5,1.2,2.4,0.8c0.2-0.1,0.5-0.3,0.6-0.5c0.6-0.6,2-0.9,2,0.3c-0.4,1.4,1.4,2,1.2,3.2c-0.2,1-1.1,2.2-2.2,2
		c-1.4-0.1-2.9-0.5-4.2,0.1c-0.9,0.9-1.7,1.8-2.4,2.8c-0.5,0.5,1.5,2,0.3,2l2.5,1.2l3.2,1.1c0.7-0.3,1.5-0.3,2.2-0.1
		c1.8,0.3,3.1,1.7,4.4,2.9c0.6,1.1,2,1.1,3,1.6c1,0.9,2.5,1.6,3.7,0.7c1.3-0.3,1.6-1.5,1.8-2.6c1.5-0.9,1.5-3.4,5.1-2.2
		c0.1,1.2,0.9,2.5,0.4,3.8c-0.3,1.4-1.1,2.8-0.7,4.2c1,0.7,1.6,1.9,1.7,3.1c0.1,1.4,1.2,2.2,1.8,3.3s2.2,1.7,1.7,3
		c-0.2,1.1-1.1,2.3-0.3,3.3c0.4-0.8,0.3,2.3,1.2,2.3s2.7,0.3,1.8,1.6c0.3,1.5,2.4,1.1,2.5,2.5c0.6-0.9,0.5-2.5,2.2-2
		c1.6,0.1,2.9,1.1,3.5,2.5c0.3,0.7,1,3.7,1.8,2c0.1-1.4,0.9-2.4,2.4-2.1c0.2-0.6-1.5-2.5,0.5-2.2c1.5-0.4,2.7,0.8,4,0.6
		c0.8-1.2,2.8-0.5,3.5-1.2c-1.5-1.1-0.1-2.7,0.5-3.8c0.6-1.1-2.4,0.5-2.4,0.5l-0.1-2c0.9-1.2-4.3-2.2-1.6-3.5
		c-0.5-0.3-2.3-1.1-2.8-2.2c-1.9-0.4-2.3-1.7-2.7-3.2c2.5-0.9-1.5-1.6-0.4-2.8c1.5-2.8-1.7-3.8-2.9-5.9c1.3-0.7,0-0.5-0.6-0.8
		c-2.7,0.1-0.7-2.9-2.6-3.5c0.9-0.4-0.9-1.7-0.5-2.9c1.4-0.8-0.8-2.5,0.4-3.5c-0.7-0.9-3.7-0.4-5.2-0.5c-2.5,0.9-3.8-2-5.9-2.3
		c-2.3,1.1-4.3-0.3-5.8-2c-2.1,0-5.1-0.4-5.9-2.4c1.3-2.4-3.3-1.7-3.8-4c-1.7-2.5-2.6,2.2-4.6,0.5
		C227.8,308.6,225.2,309.7,223,309.3z"/>
	<path id="c252" name="Quillota" class="comuna" d="M220.8,310.5l0.3-3.8c-1-0.8-3.8-2.3-2.5-3.5c1.4-0.3,3.2,0.4,4.1-1.2c1.2-0.7,1.9-2.2,3.3-2.5
		c1.7,0.6,2.2-0.8,2.3-2.2c0.5-0.5,1-0.9,1.6-1.2l1.4,0.9c0.9-0.4,2.4,0.4,2.8-1c0.5-1.1,2-1.8,2.6-2.8c0.2-0.5,0.2-1-0.1-1.5
		l3.5,0.1v-0.9c1.4,0.1,8.7-0.6,10.6-0.1c1.1,0.3,2.1,0.9,2.8,1.8c2.5-1.2,2.2,2.5,3.5,3.2c2.9,0.3,5.9-0.4,8.2,2.1
		c1.6,0.3,4-1.7,5.5-0.7l2.5,1.7c0.5,2.5,0.3,5.1-0.6,7.4c-0.4,1.3,0.8,3.4-0.7,3.9c-1.8,0.6,1.8,3.5,4.3,3.7s1.1,3,1.2,1.9
		c0.1-1.1-0.1,1.3-0.7,1.2c-1.2,0.2-1.3,0.6-1.9,1.5c-1.2-0.1-1.9,1.1-3.1,1.1s-2.5,0.1-3.2-0.9c-0.7,0.8-1.7,1.1-2.7,0.9
		c-1.2,0.1-2.5-0.2-3.5,0.3s-0.4-0.4-1.6,0.6c-0.7-0.9-3.7-0.4-5.2-0.5c-2.5,0.9-3.8-2-5.9-2.3c-2.3,1.1-4.3-0.3-5.8-2
		c-2.1,0-5.1-0.4-5.9-2.4c1.3-2.4-3.3-1.7-3.8-4c-1.7-2.5-2.6,2.2-4.6,0.5c-1.9-1.2-4.5-0.2-6.6-0.5
		C224.2,310.9,221.1,310.1,220.8,310.5z"/>
	<path id="c103" name="Hijuelas" class="comuna" d="M286.9,269.9l1.4,1.2c0.2-0.5,1.8,2,2,2.5c0.1,0.7,0.6,1.4,1.2,1.7c0.4,0.3,0.8,1.7,0.9,2
		c0.2,0.5,0.9,0.6,1.2,1.1c0.3,0.5-0.2,1,1.2,1.4c0.7,0.2,1.1,1.1,1.6,1.6s-0.5,1.5-0.5,1.6c-0.2,0.4-0.4,0.8-0.5,1.2
		c0.2,0.7,0.5,1.4,0.9,2c0.4,0.5,0.9,0.9,1.4,1.2v2c-0.3,0.7-0.6,1.4-1.1,2.1c-0.3,0.6-0.6,1.4-1.7,0.9c-1.5-0.6-0.9-1.4-1.6-1.4
		s-2.4-0.4-2.1,0.7c0.2,0.9,0.6,1.7,1.2,2.3c0.6,0.6,1.7,1,1.6,1.6c-0.3,0.9-0.5,1.8-0.7,2.7c-0.1,0.5-0.8,2.5-0.4,3
		c1.2,1.2,0.4,1.3,0.4,2.5c0,1.5-0.4,1.2-0.1,2.1s-0.1,1.5,0.1,2.3c0.5,1.2,1.3,1.7,1.7,2.7s0.2,1.5,1.4,2.1
		c0.9,0.4,2.8,0.6,2.5,1.2s-0.1,2.1-0.9,2.1c-1.7,0-0.9,0.8-0.7,1.6l-0.8,2.4c-0.2,1.1-0.6,2.2-1.2,3.1c-0.9-0.9-1.7,0.2-2.5,0.2
		c-0.8-0.1-1.5-0.4-2.2-0.9c-0.9-0.7-2-0.3-3.1-0.3c-1.3,0.4-2.1-0.6-3.1-1c-1.3,0-2.6-0.4-3.6-1.2c-1.2-0.2-0.6-1.2-1.3-1.8
		c-0.7-0.6-2-1.2-2-2.3c-0.1,1.1,1.3-1.6-1.2-1.9s-6.1-3-4.3-3.7c1.5-0.6,0.3-2.6,0.7-3.9c0.8-2.4,1-5,0.6-7.4l-0.5-2.2
		c0.8-0.9,1.3-3.6,3.5-2.8l-10.4-11.1l3.6-3.1c0.8,0.9,2.8,0.7,4.4,1.6c2.3,1.3,4.2,4.3,6.1,0.7c0.9-1.7,2.3-3,3.2-4.6
		s-0.2-2.6-1.1-3.7C281.8,272.2,286.2,271.2,286.9,269.9z"/>
	<path id="c190" name="Olmue" class="comuna" d="M295.9,343.2c0.1-1.7,0-2,2.1-3.1c0.6-2.8,1.3-3,1.7-4.7c0.6-1.5-1.3-0.9-1.5-4
		c-1.4-2.8-1.5-4.6-2.9-5.4c0.7-0.7,0.7-1.9,0-2.7l-0.1-0.1c-0.9-0.9-1.7,0.2-2.5,0.2c-0.8-0.1-1.5-0.4-2.2-0.9
		c-0.9-0.7-2-0.3-3.1-0.3c-1.3,0.4-2.1-0.6-3.1-1c-1.3,0-2.6-0.4-3.6-1.2c-1.2-0.2-0.6-1.2-1.3-1.8c-0.7-0.6-2-1.2-2-2.3
		s-0.1,1.3-0.7,1.2c-1.2,0.2-1.3,0.6-1.9,1.5c-1.2-0.1-1.9,1.1-3.1,1.1s-2.5,0.1-3.2-0.9c-0.7,0.8-1.7,1.1-2.7,0.9
		c-1.2,0.1-2.5-0.2-3.5,0.3s-0.4-0.4-1.6,0.6s0.9,2.7-0.4,3.5c-0.3,1.1,1.4,2.4,0.5,2.9c1.8,0.6-0.1,3.6,2.6,3.5
		c0.7,0.3,2,0.1,0.6,0.8c1.2,2,4.4,3.1,2.9,5.9c-1.1,1.2,2.9,1.8,0.4,2.8c0.3,1.7,0.8,2.9,2.7,3.2c0.4,1.2,2.2,2,2.8,2.2
		c-2.7,1.4,2.5,2.3,1.6,3.5l0.1,2c0,0,3-1.7,2.4-0.5c0.7-1.1,1.9-2.4,2.8-0.7c1.3,0.3,2.8-1.7,4.3-1.7c1.7-0.5,0.6-1.7,2.4-2.3
		c1.7-1.3,2.1,1.5,3.7,1.2c0.9-0.4,3.2-1.1,3.4-1.4L295.9,343.2z"/>
	<path id="c118" name="La Cruz" class="comuna" d="M240.1,290.9c1.4,0.1,8.7-0.6,10.6-0.1c1.1,0.3,2.1,0.9,2.8,1.8c2.5-1.2,2.2,2.5,3.5,3.2
		c2.9,0.3,5.9-0.4,8.2,2.1c1.6,0.3,4-1.7,5.5-0.7c-0.6-2.5-1.5-4.3-1.7-5.9c-0.2-2-3.2-2.7-4.7-4.2c-1.5,0.1-2.4-2.6-7.2-4.8
		l-2.5,2.7c-1.5,1.2-2.5-1.2-3.2-4.1c-0.5-0.9-1.5-1.4-2.5-1.3l-2.8,0.8c-1.8,1-2,2-1.1,3l-5.2,4.5L240.1,290.9z"/>
	<path id="c22" name="Calera" class="comuna" d="M257.2,282.3c4.8,2.2,5.6,4.9,7.2,4.8c1.5,1.5,4.5,2.2,4.7,4.2c0.1,1.6,1.1,3.3,1.7,5.9l2.5,1.7
		l-0.5-2.2c0.8-0.9,1.3-3.6,3.5-2.8L266,282.8l3.6-3.1c0.8,0.9,2.8,0.7,4.4,1.6c2.3,1.3,4.2,4.3,6.1,0.7c0.9-1.7,2.3-3,3.2-4.6
		s-0.2-2.6-1.1-3.7h-4.9l-0.1,1.6c-2.6,1.3-1.7,2.7-3.6,2.4l-1.2-1.2l-1.8-0.1l-0.5-0.8l-0.9,1.3l-5.7-0.1L257.2,282.3z"/>
	<path id="c183" name="Nogales" class="comuna" d="M288.2,271.1l0.3-0.7c0.4-0.5,0.8-1,1.2-1.5c0.2-0.2-0.2-1.6-0.3-1.7c0.3-1.1,0.4-2.3,0.3-3.4
		c1-1.2,0.4-2.5,0.8-3.9c0.1-0.2,0.9-1.9,1.1-2.5c0.5-1.5-0.4-1.4-1.5-2.5c-0.1-0.5,0.8-1.7-1.4-2.3c-1.6-0.7-0.1-2.8,0.4-4
		c0.4-0.8-0.7-1.2-1.4-1.7c-0.6-0.9-0.8-1.9-0.8-3c0.1-0.6,0.3-1.2,0.6-1.7l-1.4-2.2h-1.7l-1.1,0.8c-0.3,0.9-0.7,1.9,0.4,2.8
		l-1.2,2.3h-4.7c-1.8-0.6,0.7-0.7-5.6-2l-0.1-1.7l-2.7-0.3v-1.6h-2l-4.5,3.5l-1.4-0.8l-5.9-0.1l-1.5,5.3l-3,1.2
		c-3-0.3-4.1,0.9-3.1,3.8c-1.5,0.1-3.1,0.1-2.5,2.7l-3.9,1.9l0.1,3l4.2-0.1c-0.4,1.2,1,1.7,2.3,2.2l0.3,3.6l-5.9,4.3l-0.1,3.4
		l2.8,0.4l0.9,6.1l2.8-0.8c1-0.1,2,0.4,2.5,1.3c0.8,2.9,1.7,5.3,3.3,4.1l2.5-2.7l6-5.6l5.7,0.1l0.9-1.3l0.5,0.8l1.8,0.1l1.2,1.2
		c2,0.2,1.1-1.1,3.6-2.4l0.1-1.6h4.9c-0.2-1.5,4.2-2.5,4.8-3.8L288.2,271.1z"/>
</g>
<g id="g2348">
	<path id="c331" name="Valparaiso" class="comuna" d="M233.7,364.7l-2-0.6c-0.5-0.4-0.9-0.8-1.2-1.3c-2.1-0.2-3.8-1.7-5.9-2.4c-2.9,0.2-5.1-2-7.6-3
		c-0.5-1.8-2.1-2.9-3.4-4.1c1.5-0.4,2.2-2.2-1.1-5.5c-4.6-0.9-4.6-1.5-6.2,0.4c-2.1,2.5-4.6-0.4-3-2.8c0.9-2.4-2.8-3.6-1.2-5.5
		c-0.6-2.3-5.4-1.2-5-4.2l-2.3-1.9c-4,4.5-5.8,2.2-6.2,0c-0.9-3.6-3.1-3-3.2-0.3c-0.4,0.8-2.2,2.5-2.5,4.3c1.1,4.8,0.3,11.1-2.3,9.9
		c0,2-4.4,0.9-7.5-1.1c-1.3-0.8-2.8-1.2-2.7,0c0,2.4,0.4,4.7,1.1,7c0.5,0.9,1.7,1.6,3.7,2.6c-1,0.1,0.3,2.4,1.5,3.5l2.1,0.6
		c2.6-0.4,4.9,0.1,6.4,2.2c1.6,0.1,2.9-2.8,5.1-1.5c4.3,1,7.4,5,11.9,5.7c2.3,1.5,3,5.5,6.7,4.5c2.2,0.1,1.5-3.9,4.2-1.8
		c2.8,0.4,5.5-1.7,8.5-0.9c2.8,1,7.9,3.2,9-1.2C232.3,367,233.1,366.7,233.7,364.7z"/>
	<path id="c31" name="Casablanca" class="comuna" d="M176.6,359.7l2.1,0.6c2.6-0.4,4.9,0.1,6.4,2.2c1.6,0.1,2.9-2.8,5.1-1.5c4.3,1,7.4,5,11.9,5.7
		c2.3,1.5,3,5.5,6.7,4.5c2.2,0.1,1.5-3.9,4.2-1.8c2.8,0.4,5.5-1.7,8.5-0.9c2.8,1,7.9,3.2,9-1.2c1.7-0.5,2.5-0.8,3-2.8
		c0.8-0.7,4-2,2.2-0.3c-0.1,2,4.3,1.4,3.2,3.3c2.8,1.1,6.6-0.7,8.8,2c2.2,1.5,3.5,4.1,6.4,4.8c9.5,4,8.8,1.7,7.6,2.4
		c-1.2,0.7-0.4,1.9,0.2,3c0.2,1.2,0,4.2,0.5,4.4c0.3,1.2,0.8,2.2,1.6,3.2c-0.3,2.1,0.7,4.1,2.5,5.1c0.4,0.1-0.5,0.4-0.7,2.9
		c-1.2,0.2-1.9,0.9-0.9,3.2l-0.9,2.2c-2.3,1.7,0.6,2.9-1.8,5.2c-1-1.2-3.3,1.3-3.8,2c-0.9-0.1-1.7-1.2-2.8,0.1l-3,4.1
		c-0.1,0-0.1,0.1-0.3,0.2c-0.9,1.2-3.4,1.2-6.6,0.5c-1.7-1.3-2.4-0.5-2.8,0.9c-2.8,1.2-0.2,4-0.1,6c-0.1-0.9-6.4,1.6-8.4,2.5
		c-4.4-1.4-5.7,3.4-9.1,4.6c-1.1,4.3-6.2,0.7-8.3-0.9c-0.1-0.9-3.3,0.4-2.5-0.4c-1.6,2-4.6-1.6-6.7-2.8c-1.6-0.7-3.5-0.7-5.1,0
		c-1.9,0.1-3.9,0.5-5.7-0.3c-1.6-0.8-3-2-4-3.4c2,0.2,3.2-2,4.2-3.4c1.3-1.5,0.6-3.2-0.1-4.8c0.2-1.2,1.2-4.4,2.9-2.8
		c1.2,1.2,3.5,1.8,4.9,0.6c0.6-1.8-2.2-3.4-1-5.4c0.8-1.7,2.7-2.8,2.8-4.7c0.5-2.2,2.6-3.8,2.7-6.2c0-2.2-2.8-3.1-2.7-5.2
		c0.3-1.8,0.5-3.6,0.4-5.4c-0.6-2-3.4-1.3-4.9-1.1s-2.7,2.6-4.4,1c-0.9-2.1-3.5-1.5-4.8-0.1c-1.4-0.1-1.2,2.6-2.7,1.2
		c-2-0.6-4.1,0-5.5,1.5c2,1.8-2.3,0.7-1.5,1.5c-1.6-1.6-0.9-3.7-4.2-5.2c-1.5-1.2-1.5-1.2-0.2-3.5l1.3-2.2c0.3-2.5-1.3-2.5-2.6-2.8
		c-0.1-1.2-0.2-2.4-2.2-2.8l1.3-2.5c2.5-0.3,3.5-2,1.9-3.5L176.6,359.7z"/>
	<path id="c339" name="Vina del mar" class="comuna" d="M202.4,316.4l2.4,0.9c1.2,0.7,3.5,0.1,4.6,1c1.2,1.3,2.5,2.5,3.9,3.5
		c1.5,1.3,3.5,1.9,4.9,3.4c1.3,0.9,2.8,1.5,4.4,1.7l2.5,1.2c1.6,0.4,0,2.7-1.1,2c-0.9-0.5-2.3-1.2-3,0s-1.6,0.8-2.5,0.2
		c-1.3-1.1-1.9,0.1-2.4,1.2s-2.5,1.2-2.3,2.6c0.7,1.3,0.1,2.6,0.1,3.9s1.8,1.7,2.5,2.8c0.2,1.3,0.3,2.6,0.1,3.8
		c-0.6,0.9-2.2,0.6-2.8,1.7l-1.1,1.5c-4.6-0.9-4.6-1.5-6.2,0.4c-2.1,2.5-4.6-0.4-3-2.8c0.9-2.4-2.8-3.6-1.2-5.5
		c-0.6-2.3-5.4-1.2-5-4.2l-2.3-1.9c3-2.3,2.4-0.1,4-1.1s2.1-4,3.2-5.6C203.3,324.6,203.4,321.1,202.4,316.4z"/>
	<path id="c63" name="Con Cón" class="comuna" d="M222.6,326.9c1.2,0.1-0.7-1.5-0.3-2s1.7-2.5,2.4-2.8c1.4-0.6,2.8-0.2,4.2-0.1c1.2,0.4,2-0.9,2.2-2
		c0.1-1.2-1.7-1.9-1.2-3.2c0.1-1.2-1.4-1-2-0.3c-0.6,0.8-1.8,0.9-2.5,0.3c-0.2-0.2-0.4-0.3-0.5-0.6c-0.3-0.9-0.2-2.2-1.2-2.8
		c-2.2,1.4-2.2-1.7-3.1-2.9c-1.4,0-2.9-0.3-4.3-0.7c-0.8-0.6-1.9-0.5-2.5,0.3c-0.1,0.1-0.2,0.2-0.2,0.4c-1,0.5-2.2,0.5-3.2-0.1
		c-0.9-0.6-1.4-1.6-1.7-0.8s-1.3-0.1-1.7,0.6c-1,1.9-2,3.6-3.4,1.1l-2.9,1.9c0.3,1.1,1.2,2.2,1.4,3.2l2.4,0.9c1.2,0.7,3.5,0.1,4.6,1
		c1.2,1.3,2.5,2.5,3.9,3.5c1.5,1.3,3.5,1.9,4.9,3.4C219.4,326,221,326.6,222.6,326.9z"/>
	<path id="c337" name="Villa Alemana" class="comuna" d="M228.3,329.2c0.3,1.4,0.4,2.9,0.3,4.3c0.4,1,0.4,2.1,0.7,3.2c1.2,1.4-1.5,2.1-0.6,3.4
		c1,1.1,2.7,1.2,3.9,2c1.2,0.5,2,1.6,2.4,2.8c0.6,1,0.7,2.5,2.2,2.6c1.2,0.3,2.3,0.9,3.5,1.3c1.2,0,2.4,0.4,3.3,1.3
		c1.1,0.4,1.1,1.1,2.5,0.9c1.1,0.1,2.8,0.7,3.7,0.1c0.8-0.8,2.6-0.1,3-0.9c-0.8-1,0-2.2,0.3-3.3c0.5-1.3-1.2-2-1.7-3s-1.7-2-1.8-3.3
		c0-1.3-0.6-2.4-1.7-3.1c-0.3-1.5,0.4-2.8,0.7-4.2c0.5-1.3-0.4-2.5-0.4-3.8c-3.6-1.2-3.6,1.3-5.1,2.2c-0.2,1.1-0.6,2.3-1.8,2.6
		c-1.2,0.9-2.8,0.1-3.7-0.7c-1-0.5-2.2-0.6-3-1.6c-1.2-1.2-2.6-2.6-4.4-2.9C229.8,328.9,229,328.9,228.3,329.2z"/>
	<path id="c253" name="Quilpue" class="comuna" d="M233.7,364.7l-2-0.6c-0.5-0.4-0.9-0.8-1.2-1.3c-2.1-0.2-3.8-1.7-5.9-2.4c-2.9,0.2-5.1-2-7.6-3
		c-0.5-1.8-2.1-2.9-3.4-4.1c1.5-0.4,2.2-2.2-1.1-5.5l1.1-1.5c0.6-1.1,2.2-0.7,2.8-1.7c0.2-1.3,0.2-2.6-0.1-3.8
		c-0.7-1.1-2.3-1.3-2.5-2.8c-0.1-1.3,0.6-2.6-0.1-3.9c-0.2-1.5,1.7-1.7,2.3-2.6s1-2.2,2.4-1.2c0.9,0.6,2,1.1,2.5-0.2s2.1-0.6,3,0
		c1.1,0.6,2.6-1.7,1.1-2l3.2,1.1c0.3,1.4,0.4,2.9,0.3,4.3c0.4,1,0.4,2.1,0.7,3.2c1.2,1.4-1.5,2.1-0.6,3.4c1,1.1,2.7,1.2,3.9,2
		c1.2,0.5,2,1.6,2.4,2.8c0.6,1,0.7,2.5,2.2,2.6c1.2,0.3,2.3,0.9,3.5,1.3c1.2,0,2.4,0.4,3.3,1.3c1.1,0.4,1.1,1.1,2.5,0.9
		c1.1,0.1,2.8,0.7,3.7,0.1c0.8-0.8,2.6-0.1,3-0.9c0.4-0.8,0.3,2.3,1.2,2.3s2.7,0.3,1.8,1.6c0.3,1.5,2.4,1.1,2.5,2.5
		c0.6-0.9,0.5-2.5,2.2-2c1.6,0.1,2.9,1.1,3.5,2.5c0.3,0.7,1,3.7,1.8,2c0.1-1.4,0.9-2.4,2.4-2.1c0.2-0.6-1.5-2.5,0.5-2.2
		c1.5-0.4,2.7,0.8,4,0.6c0.8-1.2,2.8-0.5,3.5-1.2c-1.5-1.1-0.1-2.7,0.5-3.8c0.6-1.1,1.9-2.4,2.8-0.7c1.3,0.3,2.8-1.7,4.3-1.7
		c1.7-0.5,0.6-1.7,2.4-2.3c1.7-1.3,2.1,1.5,3.7,1.2c0.9-0.4,3.2-1.1,3.4-1.4l2.2-2.2c0.9,0.8,2.3,1.1,2.1,2.5
		c-1.4,4.1-0.1,3.7,0.1,7.7c1.4,1.5,0.1,2.2,0.6,3.6c0.8,0.6,1.4,1.3,1.7,2.2c0.6,1.2,1.2,2.3,1.9,3.5c1.5,1.3-0.9,0.8-0.6,2.5
		c0.1,1,0,1.5-1.5,2.3c-2.7-0.5-2.5,1.2-4,0.8c0.7,3.8-0.6,2.7-2.2,0.8c-0.9,0.7-1.8,0.1-2.7-0.4c-0.6,0.7-0.4,2.5-0.4,3.7
		c-2.2,2.5-3.7,1.7-5-0.2c-2,0-5.3-1.2-5.1,1c-0.9,1.7-2.5,2.2-5.2,1.2l-2.2-0.9c-2.5,1.7-2.8,0.8-3.5,0.2l-2.2-0.2
		c-1,1-2.4,1.5-3.8,1.2c0.1,1.2-0.9,1.8-2.2,2.2c1.2-0.7,2,1.6-7.6-2.4c-2.8-0.6-4-3.2-6.4-4.8c-2.2-2.6-6-0.8-8.8-2
		c1.2-2-3.2-1.3-3.2-3.3C237.6,362.7,234.4,363.9,233.7,364.7z"/>
	<path id="c257" name="Quintero" class="comuna" d="M220.8,310.5l0.3-3.8c-1-0.8-3.8-2.3-2.5-3.5c1.4-0.3,3.2,0.4,4.1-1.2c1.2-0.7,1.9-2.2,3.3-2.5
		c1.7,0.6,2.2-0.8,2.3-2.2c0.5-0.5,1-0.9,1.6-1.2h-4c-3.4-1.7-0.2-4.8-0.7-10.5c-3.5-0.1-2.2-2.5-0.7-4.3c-2.2-0.1-5.7,0.4-4.9-0.9
		l-3.1,4.2l-4.3-3.2l2-3.5l-2.2-0.2c-1,3.5-3,5.9-4.5,2.1l-4.3-2c-0.3,3.4-0.9,11.9,1.4,13.7c0.5,0.1-0.1,0.8,1.6,0.2
		c2,4.7,4.5,13.1,3,17.8c0.2-0.8,0.8,0.1,1.7,0.8c1,0.6,2.2,0.7,3.2,0.1c0.4-0.9,1.4-1.3,2.3-0.9c0.1,0.1,0.2,0.1,0.4,0.2
		C217.8,310.4,219.3,310.4,220.8,310.5z"/>
	<path id="c229" name="Puchuncaví" class="comuna" d="M222.2,249.8l-1.5-0.6c0.4,1.2,2.2,2.7-0.9,2.9l-1,6.4c-1.2,5.6-3,9.5-10.2,7.1
		c0.1,0-1.2,0.8,0.4,3.4c0.3,1.5,0.1,3.8,0.9,4.4c2.8-1.2,2.5,2.6,2,4.2l2.2,0.2l-2,3.5l4.3,3.2l3.1-4.2c-0.8,1.2,2.8,0.8,4.9,0.9
		c-1.4,1.8-2.8,4.3,0.7,4.3c0.5,5.7-2.7,8.8,0.7,10.5h4l1.4,0.9c0.9-0.4,2.4,0.4,2.8-1c0.5-1.1,2-1.8,2.6-2.8c0.2-0.5,0.2-1-0.1-1.5
		l3.5,0.1l-0.1-4l5.2-4.5c-0.9-1-0.7-2,1.1-3l-0.9-6.1l-2.8-0.4l0.1-3.4l5.9-4.3l-0.3-3.6c-1.3-0.5-2.8-0.9-2.3-2.2l-4.2,0.1l-0.1-3
		c-0.8,0.2-1.7,0.2-2.5,0.1c-1.1,0.5-2,1.4-3.1,1.9c-1.5-0.2-1.7-1.3-3.5-1.6c-0.9,0-1.7-0.5-2-1.4c-0.4-0.7-1.5,0.3-0.4-0.8
		s0.1-2.4-0.6-3.4c-0.5-0.5-1.3-0.5-1.7-0.9c-1.1-0.8-2.1-1.2-2.7-2.5C224.9,248.6,223.2,251.3,222.2,249.8z"/>
</g>
<g id="g2380">
	<path id="c33" name="Catemu" class="comuna" d="M329.8,250.9l-0.4-4.7c1.7,2.8-2.1-0.5-3.5,1c-1.8-1.9-4.4-2.2-6.9-2.8c-2-3-3.8-0.7-5.8,1.1
		c-3.3-1.4-5.2,2.4-8.4,2.2c-2.1,0.6-5.6,1.4-5.9-0.4c-0.2-1.6-2.7-2.5-5.2-2.5c-0.2,1.8-0.9,4.8-3.2,2.9l-1.5,0.8
		c-0.6,1.3-2,3.3-0.4,4c2.2,0.6,1.2,1.8,1.4,2.3c1,1.1,2,0.9,1.5,2.5c-0.1,0.5-1,2.2-1.1,2.5c-0.4,1.4,0.2,2.8-0.8,3.9
		c0.1,1.1,0,2.3-0.3,3.4c0.1,0.1,0.5,1.5,0.3,1.7s-0.8,1.1-1.2,1.5l-0.3,0.7c0.2-0.5,1.8,2,2,2.5c0.1,0.7,0.6,1.4,1.2,1.7
		c0.4,0.3,0.8,1.7,0.9,2c0.2,0.5,0.9,0.6,1.2,1.1c0.3,0.5-0.2,1,1.2,1.4c0.7,0.2,1.1,1.1,1.6,1.6s-0.5,1.5-0.5,1.6
		c-0.2,0.4-0.4,0.8-0.5,1.2c0.2,0.7,0.5,1.4,0.9,2c0.4,0.5,0.9,0.9,1.4,1.2v2.1l1.5-1.1l0.4-2l0.9-1.3h1.8l0.9-1.8l2.3,0.5l-0.5,2.7
		l-1.9-0.1l2.5,1.8h2.5l0.5-2.5l-0.9-1.3l2.2-0.1l7.3-3.5l2.5-0.1l4.6-3.5l-0.9-6.3l-1.1-0.1l-0.9-1.3l0.1-1.3l6.6-12l0.1-5.1
		L329.8,250.9z"/>
	<path id="c142" name="Llay Llay" class="comuna" d="M308.2,288h-2.5l-2.5-1.8l1.8,0.1l0.5-2.7l-2.3-0.5l-0.9,1.8h-1.8l-0.9,1.3l-0.4,2l-1.5,1
		c-0.3,0.7-0.6,1.4-1.1,2.1c-0.3,0.6-0.6,1.4-1.7,0.9c-1.5-0.6-0.9-1.4-1.6-1.4s-2.4-0.4-2.1,0.7c0.2,0.9,0.6,1.7,1.2,2.3
		c0.6,0.6,1.7,1,1.6,1.6c-0.3,0.9-0.5,1.8-0.7,2.7c-0.1,0.5-0.8,2.5-0.4,3c1.2,1.2,0.4,1.3,0.4,2.5c0,1.5-0.4,1.2-0.1,2.1
		s-0.1,1.5,0.1,2.3c0.5,1.2,1.3,1.7,1.7,2.7s0.2,1.5,1.4,2.1c0.9,0.4,2.8,0.6,2.5,1.2s-0.1,2.1-0.9,2.1c-1.7,0-0.9,0.8-0.7,1.6
		l-0.8,2.4c1.1-0.5,2.7-0.3,3.9-0.3c1.4,0.1,2.8,0.2,4.2,0.1c1.4-0.1,2.5-1,3.6-1.7c1.1-0.7,2.1,0.4,3.4,0.6
		c1.9,0.5,1.9-1.5,2.5-2.8c0.4-1.4,1.3-1.8,1.7-3.1c1.2-2.6,1.9-2,3.4-1.6c1.2,0,2.3,0.3,2.8-0.6c1.3-0.1-1.2-1.2,4.2-0.9
		c0.6-0.2,1.2-0.4,1.7-0.8c1.4-0.1,2.8,0.5,4.2,0.5c1.1,0,1.3-0.4,2.2-0.6c2.4-0.9,4.1,0.4,6,0.6c0.9,2.4,0.4-0.1,4.7-1.3l0.3-8
		l-0.7-1.3h-2.3l0.1-3.7l-2.8-7.3l-2.2,1h-8.9l-1-0.7l-1,1l-1.8-1.2l-2.2,1.5l-2.8-1.3l-1.8,1.7l-4.3-0.1l-0.6-0.6l-3.5-0.3
		L308.2,288z"/>
	<path id="c201" name="Panquehue" class="comuna" d="M308.2,288l1,1.2l3.5,0.3l0.6,0.6l4.3,0.1l1.8-1.7l2.8,1.3l2.3-1.5l1.8,1.2l1-1l1,0.7h8.9
		l2.2-1l3.2-3.2c-1.5-0.6-2.1-2.8-2.5-5.2c0.3-1.7,0-4.1,1.7-4.1l1.2-0.1l1.3-0.9v-1.5l-3.7-5.2l-2.8,0.1l-1.5,1.8l-2.8-0.1
		l-3.5,3.8l-5.8,3.6l-4.6,3.5l-2.5,0.1l-7.3,3.5l-2.2,0.1l0.9,1.3L308.2,288z"/>
	<path id="c285" name="San Felipe" class="comuna" d="M357.4,266.5c-1.3,0.7-0.8,2.8-3,3.8l0.2,7.7l4.3,1.2c1.7,0.2,3,2.2,4.4,3.6l-1.7,0.1
		l-0.4,1.9l-1.2-0.1l-0.9,1l-0.4,1.5l-2.9-1.5h-6.5l0.1-5.6h-1.1l-1.9,2.8h-2.2l-1.4,1.9c-1.5-0.6-2.1-2.8-2.5-5.2
		c0.3-1.7,0-4.1,1.7-4.1l1.2-0.1l1.3-0.9V273l-3.7-5.2l-2.8,0.1l-1.5,1.8l-2.8-0.1l-3.6,3.8l-5.8,3.6l-0.9-6.3l-1.1-0.1l-0.9-1.3
		l0.1-1.3l6.6-12l0.1-5.1l1.6,0.1c3.2-0.4,0.2,1.8,4,3.6l3.8,0.1v2.2l1.9,2h2.5l2.2,3.2l-1,2.7l3.6-2.8c0.7-0.6,0.5-1.1,6.6-1
		l2.7-1.5l2.5,0.1c-0.1,1,0.1,2.2-0.9,2.7L357.4,266.5z"/>
	<path id="c242" name="Putaendo" class="comuna" d="M429.5,200.8c1.2,0.6-0.4,4.8-0.4,7.4s-0.3,3.5-3.8,4.4c1.6,4.6-3.5-1.7-3.8,1.7
		c-1.7-0.1-3.2,0-2.8,2.2c0.3,2.9-1.2,3.5-2.3,6.1c-1.5,1.6-0.7,3.1-1.7,3.8c0.4,2.7-1.7,5.3-3.1,7.3c0.7,3.5-2.8,1-3.7,3.5
		c-1.8,0.4-2.7,5-3,2.3c-2.9-3.3-3.8-5-5.4-1.6c-4.5,4.3-5.2,0.4-6.6,0.4c-1.6,1.3-3.3,1.2-5-0.3c-1,1.8-2.7,1.7-4.4,1.2
		c-1.2-0.4-2.4-0.9-3.4-1.2c0.4-1.8-3.3-2.4-1.8-3.2c-1.2-1.7-8-2.5-6.9,0.9c0.1,1.2,0.2,2.8-0.5,2.8c-2.8,0.2-2.9,1.5-4.6,1.4
		c-2.7,3.8-0.9,5.1-2,7.6c-0.4,2.4-1.8,4.6-3.1,6.6c-1.8,0.6-3.9,1.5-4.5,3.8l-1.1,1.2l-2.6,1.5c-6.1-0.1-5.9,0.4-6.6,1l-3.6,2.8
		l1-2.7l-2.2-3.2h-2.5l-1.9-2v-2.2l-3.8-0.1c-3.8-1.8-0.8-4-4-3.6l-0.4-4.7c-0.1-3.1,5.8-1.4,3.6-4.3c-2.4-1-3.2-5.1,0.2-5
		c2.3-2,4.8-5.6,1.4-7.9c-2.1-2-7.1,0.3-7.7-4c-0.2-1.7-0.9-3.4-2-4.7c2.9-1.7,1.4-6.1,4.5-6.9c1.8-0.9,2.8-2.9,2.6-4.9
		c0-0.9,1.6-0.6,2.8-0.2c4,1-1.6-4.2,2.4-2.8c1.8,0.1,3.3,2,5.1,1.5c0.7-0.2,0.9-1,4,2.3c2.2,2.4,3.5-4.3,5.3-0.3
		c1.8,1.1,6.9,5.8,6.4,1.4c2.8,1.1,3.8-0.4,3.8-3.2c-1.1-2.2,5.4-5.1,2-7.7c3-1.1-0.9-3.4,0.8-5.6c0-2-0.1-3.7,2.5-2.8
		c1.4,1.7,3.9,4.2,4.5,0.9c1.2-0.2,2.5-0.4,3.8-0.5l4.3-3.8h4.7l0.8,1.4h3.5l2-1.4l0.6-3.2l4.8,0.1c0.6-1,1-2.1,1.3-3.3
		c0.6-2.2,2.2-1.6,2.8-3.8s1.4-3.5-2.2-4.9c1.3-0.3,7.1-3.2,8.7-3.5c1.7-0.2,3.3-1,4.5-2.2c0.6,1.4,3.3,4.3,4.2,4.1
		c1.7-0.4,5.6,0.1,6.4,1.5c1.3,1.4,2.8,2.7,4.4,3.8c2.1,1.5,3.8,3,3.9,3.4c0.1,0.4,0.1,3.7,0.3,7.4c0.1,4.9-0.1,7.3-1,9
		C428.4,198.3,428.4,198.6,429.5,200.8z"/>
	<path id="c306" name="Santa María" class="comuna" d="M368.2,284.2c-1.5-0.5-1.2-1.7-4.8-1.4c-1.5-1.5-2.7-3.5-4.4-3.6l-4.3-1.2l-0.2-7.7
		c2.2-1,1.7-3,3-3.8l0.1-4.4c1.1-0.4,0.7-1.7,0.9-2.7l-2.5-0.1l1.1-1.2c0.6-2.3,2.8-3.2,4.5-3.8c1.2-2.2,2.7-4.3,3.1-6.6
		c1-2.5-0.8-3.8,2-7.6c1.7,0.1,1.9-1.3,4.6-1.4c0.7-0.1,0.5-1.6,0.5-2.8c-1.1-3.4,5.7-2.6,6.9-0.9c-1.5,0.9,2.3,1.5,1.8,3.2
		c1,0.3,2.2,0.9,3.4,1.2l-2.6,5.4l-7.8,2.1c0.4,2.6-1.7,5.2,1.4,7.8l0.4,3.1c-1.3-0.6-1.2,1.1-1.2,2.8L371,261c0.3,1.3,0,2.7-2.5,4
		h-1.6c-0.2,1.2-0.9,2.4,1.2,3.1v4.2c-1.9,0.7-1.8,1.8,0.1,3.5V284.2z"/>
</g>
<g id="g2374">
	<path id="c283" name="San Esteban" class="comuna" d="M444.7,270.8c2-2.1,6.1-2.2,5.1-4.6c-0.6-1.8-0.9-3.7-0.9-5.6c0-6.6-1.4-12.5-3.3-14.5
		c-2.5-2.6-1.3-6.3,2.8-8.9c1.3-0.6,2.1-2,2-3.4c0-1.4,0.3-2.7,0.7-4c0.5-1.4,0.4-2.8-0.7-5.5c-0.7-1.8-1.2-3.6-1.5-5.5
		c0-2.8-3.2-7.7-5.9-9c-1.3-0.6-3.5-1.7-4.9-2.4c-4.3-2-7.1-4.3-8.5-6.8c1.2,0.6-0.4,4.8-0.4,7.4s-0.3,3.5-3.8,4.4
		c1.6,4.6-3.5-1.7-3.8,1.7c-1.7-0.1-3.2,0-2.8,2.2c0.3,2.9-1.2,3.5-2.3,6.1c-1.5,1.6-0.7,3.1-1.7,3.8c0.4,2.7-1.7,5.3-3.1,7.3
		c0.7,3.5-2.8,1-3.7,3.5c-1.8,0.4-2.7,5-3,2.3c-2.9-3.3-3.8-5-5.4-1.6c-4.5,4.3-5.2,0.4-6.6,0.4c-1.6,1.3-3.3,1.2-5-0.3
		c-1,1.8-2.7,1.7-4.4,1.2l-2.5,5.4l-7.8,2.1c0.4,2.6-1.7,5.2,1.4,7.8l0.4,3.1c-1.3-0.6-1.2,1.1-1.2,2.8l-3.1,0.4
		c0.3,1.3,0,2.7-2.5,4h-1.6c-0.2,1.2-0.9,2.4,1.2,3.1v4.2c-1.9,0.7-1.8,1.8,0.1,3.5l0.1,8.5c1.5,0.5,1.7,0.9,3.1,2.5
		c1.4,1.6,3,0.1,4.6,0.1c4.6,1.1,7.5,4.5,11.7,6.6c2.4,0.1,4.9-0.1,7.3-0.4c2.2-0.1,2.5,0.4,4.5,1.2c1.4,0.2,2.5-0.6,3.8,0.2
		c2.7,1.8,6.5,7,8.7,8.9c1.3-0.1-1.7-2.1,4-2.5c-0.4-0.8,1.2-3.2,1.7-4.8c3.2-0.1,3.9-2.7,4.8-5.3c0.4-1.2,2.2-1.6,3.2-2.3
		c0.6-5.9,5.7,2.5,5.7-2.5c1.9-1.4,0.8-6.1,4.5-4.8c3.4,1.2-1.4-3.6,3.6-2.5C439.2,273.9,445.8,276.8,444.7,270.8z"/>
	<path id="c151" name="Los Andes" class="comuna" d="M444.7,270.8c2-2.1,6.1-2.2,5.1-4.6c0.8,2.6,2,5.1,3.6,7.4c0.7,1.1,1.3,2.3,1.7,3.6
		c0.3,1,2.5,3.6,5.1,5.8c2.8,2.4,4.8,4.7,5.1,5.8c0.9,4.7,1.5,5.4,4.6,6.6c4.4,1.6,6.6,4.3,6.1,7.4c-0.6,3.8-2.6,8.8-4,10.3
		c-1.4,1.5-1.7,3.1-1,6.8s-1.5,6.2-5.9,7.3c-2.5,0.6-3.5,4.2-4.5,6l-1.3-0.2c-3,1.1-4,3.2-5.9,4.8c-0.9,0.1-1.9,0-2,3.4
		c-3,1.9-2.5,3.2-6.4,3.3l-3.3,2l-1,2.5c-1.7,0.3-3.2,1.7-4.6,3.5c-0.4,0.3-0.3,1,1.3,2.5c-0.7,1.3-1.7,2.5-2.9,3.5l-0.1,3.4
		c-5.8,0.6-1.4-2.8-4-4.8l-0.5-1.7l0.1-4.9h-2.8l-2.6-2.8l-0.1-0.9l-1.7-0.9L421,346c-0.5-1.3-1.1-1.5-1.6-1.6l-2-1
		c-0.8,2.1-3,2.5-5.6,2.2l-1.7-2.7c-2.5-0.8-1.9-3.9-4-5.1c-1.8-2,2-3.5,0.5-5.7c0.9-3.1-2.2-3.8-4.5-4.3c-0.3-0.6,0.4-4.2,2.1-4.6
		c0.7-2.2-2.5-3.5-4.2-4c-1.5-1.8-3.3-3.4-5.2-4.8c-2.3-1.5-0.3-4.5-2.5-5.9c-0.1-4-2.9-5-5.4-4.7c-1.9-0.6,0.4-3.8-1.9-4.5
		c-1.2-1.8-3.5-2.1-5.4-3c-1.8-1.7-4.5-2-6.2-3.8c-3.4-1.1-11.7-4.2-12.7-4.5c-0.6-0.2-1.2-0.5-1.7-0.9l0.4-1.5l0.9-1l1.2,0.1
		l0.4-1.9l1.7-0.1c3.6-0.4,3.3,0.9,4.8,1.4s1.7,0.9,3.1,2.5c1.4,1.6,3,0.1,4.6,0.1c4.6,1.1,7.5,4.5,11.7,6.6
		c2.4,0.1,4.9-0.1,7.3-0.4c2.2-0.1,2.5,0.4,4.5,1.2c1.4,0.2,2.5-0.6,3.8,0.2c2.7,1.8,6.5,7,8.7,8.9c1.3-0.1-1.7-2.1,4-2.5
		c-0.4-0.8,1.2-3.2,1.7-4.8c3.2-0.1,3.9-2.7,4.8-5.3c0.4-1.2,2.2-1.6,3.2-2.3c0.6-5.9,5.7,2.5,5.7-2.5c1.9-1.4,0.8-6.1,4.5-4.8
		c3.4,1.2-1.4-3.6,3.6-2.5C439.2,273.9,445.8,276.8,444.7,270.8z"/>
	<path id="c268" name="Rinconada" class="comuna" d="M358.8,288.5c0.1-0.4,0.1-0.8-0.1-1.2l-2.9-1.5h-6.6l0.1-5.6H348l-1.9,2.8H344l-1.4,1.9
		l-3.2,3.2l2.9,7.3l-0.1,3.7h2.1l0.7,1.3l-0.3,8l0.9-0.1c1.5,0.1,2.8,1,3.5,2.3c0.1,0.7-0.1,3.4,0,3.6l1.1,0.4
		c0.6,3.1,2.9,0.4,4.5,0.3c2.6,1.2,2.4,0.4,4-0.2c0.4-0.8,0-3.4,1.5-3.9c0.8-0.3,0.6-1.7,0.4-2.5c-0.2-0.7-0.4-1.4-0.7-2
		c-0.9-1.9-0.6-0.6-2.4-1.5c-0.7-0.4-2-1.2-1.3-2c0.4-0.4,1.4-1,0.7-1.8c-1.6-2.2,0.7-2.1,0.6-2.8c-0.2-0.9-1.5-2.5-0.4-2.8
		c0.7-0.2,1.4-0.7,1.8-1.3c0.6-0.8,0.8-1.8,0.6-2.8C359.2,290.7,358.5,289.1,358.8,288.5z"/>
	<path id="c24" name="Calle Larga" class="comuna" d="M401.8,327.9c-1.2-0.7-2.8-0.2-3.5,1.1c-0.2,0.4-0.3,0.9-0.3,1.3c-1.9,1.4-2.5,3.5-3.6,5.5
		c-0.3,1.4,1.5,2.5-2,2.4c-0.9,0,1.2,2.5-1.7,3.2c-1.1,0.1-2.7,1.3-3.2,0.4s-1.4-3-2.5-3.8c0.3-2.5-1.2-4.8-3.5-5.7
		c-3.2-1.1-1.1-4-0.6-6.1c-1.7-1.8-3.2-4-4.9-6c-0.6-2.2-2.3-2-3.1-2.2c-0.8-0.2,0-2.3-0.3-3.4c-0.6-0.9-1.3-2.4-3.2-2.8
		c-0.7,0.6-1.2,2-2,0.5c-2.1-0.3-4.3,0.4-5.8,1.9c-0.9,0-1.8,0.2-2.7,0.5c0.4-0.8,0-3.4,1.5-3.9c0.8-0.3,0.6-1.7,0.4-2.5
		c-0.2-0.7-0.4-1.4-0.7-2c-0.9-1.9-0.6-0.6-2.4-1.5c-0.7-0.4-2-1.2-1.3-2c0.4-0.4,1.4-1,0.7-1.8c-1.6-2.2,0.7-2.1,0.6-2.8
		c-0.2-0.9-1.5-2.5-0.4-2.8c0.7-0.2,1.4-0.7,1.8-1.3c0.6-0.8,0.8-1.8,0.6-2.8c-0.1-0.7-0.9-2.3-0.7-2.9c0.1-0.4,0.1-0.8-0.1-1.2
		c0.5,0.4,1,0.7,1.7,0.9c1,0.3,9.3,3.4,12.7,4.5c1.7,1.7,4.4,2.1,6.2,3.8c1.9,0.9,4.1,1.2,5.4,3c2.2,0.6-0.1,3.8,1.9,4.5
		c2.5-0.3,5.1,0.6,5.4,4.7c2.3,1.4,0.3,4.3,2.5,5.9c1.9,1.4,3.7,3,5.2,4.8c1.7,0.6,4.9,1.9,4.2,4
		C402.2,323.7,401.5,327.3,401.8,327.9z"/>
</g>
<g id="g2367">
	<path id="c344" name="Zapallar" class="comuna" d="M220.6,249.2l1.5,0.6c1.1,1.5,2.8-1.2,2.8-0.6c0.6,1.3,1.6,1.6,2.7,2.5c0.4,0.4,1.3,0.4,1.7,0.9
		c0.8,1,1.7,2.2,0.6,3.4c-1,1.2,0,0.1,0.4,0.8c0.3,0.8,1.1,1.4,2,1.4c1.8,0.3,2,1.5,3.5,1.6c1.2-0.5,2-1.5,3.1-1.9
		c0.8,0.1,1.7,0.1,2.5-0.1l3.9-1.9c-0.6-2.5,1-2.6,2.5-2.7c-1-3,0.1-4,3.1-3.8l3-1.2l1.5-5.3l5.9,0.1l0.1-2.7
		c-4.4-2.8-3-7.1-7.8-9.5c-1.5-3.7-5.4-4.6-8.7-6.2l0.3-1.7l-2-1.7l-1.3,1.4l-1.2-1.1l-0.9,1.9c-5.3,0.7-7.2,3.3-9.3,5.8
		c0.2,1.7-0.2,3.1-2.2,3.8h-7.2l-2.3-2.5h-1.1l-1.7-1.1l-0.7-6.7c-2.2-2.4-2,0-2.6,1c-0.5,0.2,0.2,1.1-0.2,3.5
		c2.1,2.6,2.8,6.1,1.7,9.2l2.8,4.6C221,242.1,219.9,246.2,220.6,249.2z"/>
	<path id="c202" name="Papudo" class="comuna" d="M215.8,222.6l0.7,6.7l1.7,1.1h1.1l2.3,2.5h7.2c1.9-0.6,2.4-2,2.2-3.8c2.1-2.5,4-5.1,9.3-5.8
		l0.9-1.9l1.2,1.1l1.2-1.4l-1.2-4.3l-3.8-4.1l1.5-2.3c2,1.7,4.3,0.4,6.6-0.8l-4.1-1.5l-4-6.6l-3.1,2.5l-1.4-1.5l-2.4-0.2l-0.9-0.9
		l-1.9,0.9c-0.9,0.4-2.2,0.4-4.2-0.9c0.4,1.5,0.3,2.1-2.8,1.5c-1.3,0.9,0.1,7.3-2.2,8.6C219.7,215.3,222,226.7,215.8,222.6z"/>
	<path id="c123" name="La Ligua" class="comuna" d="M201.7,157.7c1.7,2.5,2.1,5.9,9.1-1.2l2.5-2.5l5.4,2.3c7.7,3.2,13.2,5.1,16.7,4.9
		c5.1-0.3,13.7-3.5,13.3-5.4c-0.6-2.8,3.9-1.6,6.8-8c1.9-4,3-3.8,5.5,0.6c1.1,2,3,3.5,4.2,3.5s-3,5.4-1.7,6.5s1.6,3,3,4
		c0.7,1.4,0.4,0.6,1.5,2c0,0.9-0.3,4.9-1.2,5.1c-1.7,0.1-3,1.6-1.5,3c1.3,1.5,2.3,3.2,3,5.1c-1.1,1.5-0.1,2.8,1.7,2.2
		c1.8,0.1,2.7,4,3.6,5.2c1.1,1.5,0.9,1.7,2.4,2.9c1.5,0.9,0.1,2.7,1.5,3.7c-0.1,0.5-0.2,0.9-0.4,1.4c-0.3,1.1-0.2,2.2,0.3,3.2
		c1.2,1.7-2.2,2.4-0.5,4c0.4,1.7,2.9,2.6,3.2,4.3l-2.2-0.2c-4.6,2-5.2,4-6.3,6l-0.6,8.6l3.5,2.9l-0.9,1.2l1.5,2.3l3.8,0.1l5.9,4.3
		h1.5c5.1,3.8,1.6,5.9,0.3,6.9l-0.2,3.1h-1.8l-1.1,0.8c-0.3,0.9-0.7,1.9,0.4,2.8l-1.2,2.3h-4.7c-1.8-0.6,0.7-0.7-5.6-2l-0.1-1.7
		l-2.7-0.3V240h-2l-4.5,3.5l-1.4-0.8l0.1-2.7c-4.4-2.8-3-7.1-7.8-9.5c-1.5-3.7-5.4-4.6-8.7-6.2l0.3-1.7l-2-1.7l-1.2-4.3l-3.8-4.1
		l1.5-2.3c2,1.7,4.3,0.4,6.6-0.8l-4.1-1.5l-4-6.6l-3.1,2.5l-1.4-1.7l-2.5-0.1l-0.9-0.9l-1.9,0.9c-0.9,0.4-2.2,0.4-4.2-0.9
		c-0.8-2.8-3.2-6.4-5.1-6.9s-3.4-7.2-5.4-4c-0.5,0.8-1.7-0.6-1.9-1.6c-0.6-2.9-0.1-8.8-0.1-12.1c0.1-4.8-1.8-9.1-6.6-8.1
		c-2.6,0.6-2.8-0.4-2.8-2.9L201.7,157.7z"/>
	<path id="c215" name="Petorca" class="comuna" d="M265.2,152c2.6,0,7-4.5,11.9-8.8c2.8-4,5.3-6.4,7.4-6.5c1.9-2.3,2.8-4.6,6.7-6.9
		c0.9-2.1-4.6-3.1-2.2-6.2c-2-4.1,9.1-0.7,11.6-0.9c1.4,0,2.6,0.6,3.5,1.7c2.9,4.3,5.5,8.8,6.1,3.1c5.7-2.2,10-1.4,12-4.6
		c4-2,8.8-3.5,10.5-3.5c1.9-0.1,3.8-0.7,5.4-1.7c3.7-2.8,8.5-2,8.9,1.4c0.3,2.6,5.1,6,4.1,3.5c-1.1-2.8,11.3,0.4,4,6.5
		c-2.7,2.2,5.4,8.5,2.3,8.2c-0.9-0.1,4.6,3.5,9.4,6c11.3,1.9,12.9,6.7,10.9-2.7c-0.3-1.5,3.6,2.2,7,3.2l6,2c3.2,2.7-0.3,9.3-0.5,14
		c0.6,3.7-0.5-0.4-1.7,1.9c0.1,0.6,0.6,1.6-2.5,2.3c-3.9-0.6-5.1,6.7-8.4,3.5c-3.6,0.7-7.7-2-10.8,1c-2.5,2.6-3.1-1.8-10,1.8
		c-6.1-1-6.1,2.2-9.5,2.4c-3.1,0.1-7.4-0.1-9.1,2.2c-3.6,1.5-7.3-3.7-9.8-2.5c-3.5-2-3.5,2.3-4.6,4.6c-2.7,2.8-6.1,5.3-6.9,4.9
		c-3.1-1.5-2.6,1.2-3.9,1.5c-0.2,2-0.7,4.6-2.3,4c-2-0.6-3.4,0.1-4.7-0.4c-2.1-2.2-4.2-5.1-8.6-3.6c-3.8,0.9-6,4.3-7.1,7.9
		c-0.6,2.5-1.6,3.5-4.7,5.4c-0.5,0.3-1.2-0.9-1.9-1.4c-1-1.8-3.2,0.2-3.9-1.3c-3.6-1.9-3.1-0.4-3-0.9c0.1-0.5,0.2-1,0.4-1.4
		c-1.3-1,0-2.8-1.5-3.7c-1.5-1.2-1.3-1.4-2.4-2.9c-0.9-1.2-1.7-5.1-3.6-5.2c-1.7,0.6-2.8-0.8-1.7-2.2c-0.7-1.9-1.7-3.6-3-5.1
		c-1.6-1.4-0.1-2.8,1.5-3c0.9-0.2,1.2-4.2,1.2-5.1c-1.1-1.4-0.7-0.6-1.5-2c-1.5-1-1.7-2.9-3-4S266.4,152,265.2,152z"/>
	<path id="c16" name="Cabildo" class="comuna" d="M276.9,193.2c-0.3,1.1-0.2,2.2,0.3,3.2c1.2,1.7-2.2,2.4-0.5,4c0.4,1.7,2.9,2.6,3.2,4.3l-2.2-0.2
		c-4.6,2-5.2,4-6.3,6l-0.6,8.6l3.5,2.9l-0.9,1.2l1.5,2.3l3.8,0.1l5.9,4.3h1.6c5.1,3.8,1.6,5.9,0.3,6.9l-0.2,3.1l1.4,2.2
		c-0.4,0.5-0.6,1.1-0.6,1.7c0,1.1,0.2,2.1,0.8,3c0.6,0.6,1.7,0.9,1.4,1.7l1.5-0.8c2.3,2,3-1.1,3.2-2.9c2.5-0.1,5,0.9,5.2,2.5
		s3.8,1,5.9,0.4c3.2,0.1,5.1-3.7,8.4-2.2c2-1.8,3.8-4.1,5.8-1.1c2.5,0.6,5.1,0.9,6.9,2.8c1.4-1.5,5.1,1.7,3.5-1
		c-0.1-3.1,5.8-1.4,3.6-4.3c-2.4-1-3.2-5.1,0.2-5c2.3-2,4.8-5.6,1.4-7.9c-2.1-2-7.1,0.3-7.7-4c-0.2-1.7-0.9-3.4-2-4.7
		c2.9-1.7,1.4-6.1,4.5-6.9c1.8-0.9,2.8-2.9,2.6-4.9c0-0.9,1.6-0.6,2.8-0.2c4,1-1.6-4.2,2.4-2.8c1.8,0.1,3.3,2,5.1,1.5
		c0.7-0.2,0.9-1,4,2.3c2.2,2.4,3.5-4.3,5.3-0.3c1.8,1.1,6.9,5.8,6.4,1.4c2.8,1.1,3.8-0.4,3.8-3.2c-1.1-2.2,5.4-5.1,2-7.7
		c3-1.1-0.9-3.4,0.8-5.6c0-2-0.1-3.7,2.5-2.8c1.4,1.7,3.9,4.2,4.5,0.9c1.2-0.2,2.5-0.4,3.8-0.5l4.3-3.8h4.7l0.8,1.4h3.5l2-1.4
		l0.6-3.2l4.8,0.1c0.6-1,1.1-2.1,1.5-3.2c0.6-2.2,2.2-1.6,2.8-3.8s1.4-3.5-2.2-4.9c-3.6-1.4-2.1-7.4-2.4-10.9c0-1.7-4.3-0.9-5.3-1.7
		c0.6,3.7-0.5-0.4-1.7,1.9c0.1,0.6,0.6,1.6-2.5,2.3c-3.9-0.6-5.1,6.7-8.4,3.5c-3.6,0.7-7.7-2-10.8,1c-2.5,2.6-3.1-1.8-10,1.8
		c-6.1-1-6.1,2.2-9.5,2.4c-3.1,0.1-7.4-0.1-9.1,2.2c-3.6,1.5-7.3-3.7-9.8-2.5c-3.5-2-3.5,2.3-4.6,4.6c-2.7,2.8-6.1,5.3-6.9,4.9
		c-3.1-1.5-2.6,1.2-3.9,1.5c-0.2,2-0.7,4.6-2.3,4c-2-0.6-3.4,0.1-4.7-0.4c-2.1-2.2-4.2-5.1-8.6-3.6c-3.8,0.9-6,4.3-7.1,7.9
		c-0.6,2.5-1.6,3.5-4.7,5.4c-0.5,0.3-1.2-0.9-1.9-1.4c-1-1.8-3.2,0.2-3.9-1.3C276.4,192.3,276.9,193.7,276.9,193.2z"/>
</g>
<g id="g2409">
	<path id="Region_Valparaiso" class="limite" d="M411.7,166.7c-1.4,1.3-3.2,2.2-5.1,2.5c-1.6,0.4-7.4,3.2-8.7,3.5
		c-3.6-1.4-2.1-7.4-2.4-10.9c0-1.7-4.3-0.9-5.3-1.7c0.2-4.7,3.7-11.4,0.5-14l-6-2c-3.4-1.1-7.3-4.8-7-3.2c2,9.4,0.4,4.6-10.9,2.7
		c-4.8-2.5-10.3-6.1-9.4-6c3,0.3-5-6-2.3-8.2c7.2-6.1-5.1-9.3-4-6.5c0.9,2.4-3.8-0.9-4.1-3.5c-0.4-3.3-5.2-4.1-8.9-1.4
		c-1.6,1.1-3.5,1.7-5.4,1.7c-1.7,0-6.5,1.6-10.5,3.5c-2,3.2-6.4,2.5-12,4.6c-0.7,5.8-3.3,1.2-6.1-3.1c-0.6-1-2-1.4-3.5-1.7
		c-2.5,0.1-13.6-3.3-11.6,0.9c-2.5,3.1,3.1,4.2,2.2,6.2c-4,2.3-4.8,4.6-6.7,6.9c-2,0.1-4.5,2.5-7.4,6.5c-4.8,4.3-9.2,8.8-11.9,8.8
		c-1.2,0-3.1-1.5-4.2-3.5c-2.5-4.3-3.6-4.6-5.5-0.6c-2.9,6.4-7.4,5.2-6.8,8c0.4,2-8.2,5.1-13.3,5.4c-3.5,0.2-9-1.7-16.7-4.9
		l-5.4-2.4l-2.5,2.5c-7,7-7.4,3.7-9.1,1.2"/>
	<path id="Internacional" class="limite" d="M410.8,167.3c1.1,1.2,3.8,4,4.7,3.8c1.7-0.4,5.6,0.1,6.4,1.5c1.3,1.4,2.8,2.7,4.4,3.8
		c2.1,1.5,3.8,3,3.9,3.4c0.1,0.4,0.1,3.7,0.3,7.4c0.1,4.9-0.1,7.3-1,9c-1.1,2.2-1.1,2.5,0.1,4.7c1.4,2.5,4.2,4.7,8.5,6.8
		c1.4,0.6,3.6,1.7,4.9,2.4c2.8,1.3,5.9,6.1,5.9,9c0.2,1.9,0.7,3.7,1.5,5.5c1.1,2.8,1.2,4,0.7,5.5c-0.4,1.3-0.7,2.6-0.7,4
		c0.1,1.4-0.7,2.8-2,3.4c-4,2.6-5.2,6.3-2.8,8.9c2,2.1,3.3,8,3.3,14.5c0,1.9,0.3,3.8,0.9,5.6c0.8,2.6,2,5.1,3.6,7.4
		c0.7,1.1,1.3,2.3,1.7,3.6c0.3,1,2.5,3.6,5.1,5.8c2.8,2.4,4.8,4.7,5.1,5.8c0.9,4.7,1.5,5.4,4.6,6.6c4.4,1.6,6.6,4.3,6.1,7.4
		c-0.6,3.8-2.6,8.8-4,10.3c-1.4,1.5-1.7,3.1-1,6.8s-1.5,6.2-5.9,7.3c-2.5,0.6-3.5,4.2-4.5,6"/>
	<path id="Region_Metropolitana" class="limite" d="M462,333.1h-2.9c-3,1.1-4,3.2-5.9,4.8c-0.9,0.1-1.9,0-2,3.4c-3,1.9-2.5,3.2-6.4,3.3
		l-3.3,2l-1,2.5c-1.7,0.3-3.2,1.7-4.6,3.5c-0.4,0.3-0.3,1,1.3,2.5c-0.7,1.3-1.7,2.5-2.9,3.5l-0.1,3.4c-5.8,0.6-1.4-2.8-4-4.8
		l-0.5-1.7l0.1-4.9H427l-2.6-2.8l-0.1-0.9l-1.7-0.9l-1.8,0.1c-0.5-1.3-1.1-1.5-1.6-1.6l-2-1c-0.8,2.1-3,2.5-5.6,2.2l-1.7-2.7
		c-2.5-0.8-1.9-3.9-4-5.1c-1.8-2,2-3.5,0.5-5.7c0.9-3.1-2.2-3.8-4.5-4.3c-1.2-0.7-2.8-0.2-3.5,1.1c-0.2,0.4-0.3,0.9-0.3,1.3
		c-1.9,1.4-2.5,3.5-3.6,5.5c-0.3,1.4,1.5,2.5-2,2.4c-0.9,0,1.2,2.5-1.7,3.2c-1.1,0.1-2.7,1.3-3.2,0.4s-1.4-3-2.5-3.8
		c0.3-2.5-1.2-4.8-3.5-5.7c-3.2-1.1-1.1-4-0.6-6.1c-1.7-1.8-3.2-4-4.9-6c-0.6-2.2-2.3-2-3.1-2.2c-0.8-0.2,0-2.3-0.3-3.4
		c-0.6-0.9-1.3-2.4-3.2-2.8c-0.7,0.6-1.2,2-2,0.5c-2.1-0.3-4.3,0.4-5.8,1.9c-4.8,0.2-3.2,2.3-6.7,0.7c-1.6,0.1-3.8,2.8-4.5-0.3
		l-1.1-0.4c-0.1-0.2,0.1-3,0-3.6c-0.6-1.4-2-2.3-3.5-2.3c-0.3,0-0.6,0-0.9,0.1c-4.2,1.2-3.7,3.7-4.7,1.3c-1.9-0.4-3.6-1.6-6-0.6
		c-0.9,0.2-1.1,0.6-2.2,0.6c-1.5,0-2.8-0.6-4.2-0.5c-0.5,0.4-1.1,0.6-1.7,0.8c-5.4-0.3-2.8,0.9-4.2,0.9c-0.4,0.9-1.6,0.6-2.8,0.6
		c-1.5-0.4-2.1-1-3.4,1.6c-0.4,1.4-1.3,1.8-1.7,3.1c-0.6,1.3-0.6,3.2-2.5,2.8c-1.2-0.3-2.2-1.5-3.4-0.6c-1.2,0.9-2.2,1.7-3.6,1.7
		c-1.4,0-2.8,0-4.2-0.1c-1.2,0-2.8-0.2-3.9,0.3c-0.2,1.1-0.6,2.2-1.2,3.1c0.8,0.7,0.9,1.9,0.2,2.6l-0.1,0.1c1.4,0.8,1.5,2.8,2.9,5.4
		c0.1,3.2,2.1,2.6,1.5,4c-0.4,1.7-1.1,1.9-1.7,4.7c-2.1,1.2-2,1.5-2.1,3.1c0.9,0.8,2.3,1.1,2.1,2.5c-1.4,4.1-0.1,3.7,0.1,7.7
		c1.4,1.5,0.1,2.2,0.6,3.6c0.8,0.6,1.4,1.3,1.7,2.2c0.6,1.2,1.2,2.3,1.9,3.5c1.5,1.3-0.9,0.8-0.6,2.5c0.1,1,0,1.5-1.5,2.3
		c-2.7-0.5-2.5,1.2-4,0.8c0.7,3.8-0.6,2.7-2.2,0.8c-0.9,0.7-1.8,0.1-2.7-0.4c-0.6,0.7-0.4,2.5-0.4,3.7c-2.2,2.5-3.7,1.7-5-0.2
		c-2,0-5.3-1.2-5.1,1c-0.9,1.7-2.5,2.2-5.2,1.2l-2.2-0.9c-2.5,1.7-2.8,0.8-3.5,0.2l-2.2-0.2c-1,1-2.4,1.5-3.8,1.2
		c0.1,1.2-0.9,1.8-2.2,2.2c-1.2,0.8-0.4,1.9,0.2,3c0.2,1.2,0,4.2,0.5,4.4c0.3,1.2,0.8,2.2,1.6,3.2c-0.3,2.1,0.7,4.1,2.5,5.1
		c0.4,0.1-0.5,0.4-0.7,2.9c-1.2,0.2-1.9,0.9-0.9,3.2L264,401c-2.3,1.7,0.6,2.9-1.8,5.2c-1-1.2-3.3,1.3-3.8,2
		c-0.9-0.1-1.7-1.2-2.8,0.1l-3,4.1c-0.1,0-0.1,0.1-0.3,0.2c-0.9,1.2-3.4,1.2-6.6,0.5c-1.7-1.3-2.4-0.5-2.8,0.9c-2.8,1.2-0.2,4-0.1,6
		c0,2.8-1.3,5.9-0.1,7c-2.7,2.5-3.1,5-1.2,7.5c0.4,1.6-2.4,4.6,1.7,4.6c0.8,1.2,1.4,3.2,1.7,7.2c-0.6,1.3-0.4,2.8,0.4,3.9l-1,1.4
		c-0.4,2.4-0.9,4.4-2.2,4l-2.2,2c-2.6-0.1-6-1-4.3,3.2c-3.5,1.2-2.1,3.8-2.8,5.8l-2.5-2.2l-2.5,2l0.1,0.9c-3.7,5-0.4,4.5,1.5,5.1
		c-0.1,1.5-2,2,1.2,5.1l3,2c0.9,4.3,2.5,2,5.6,5.1l-0.1,3c-0.1,1.6-0.7,3-1.9,4.1c-2.5,0.5-5.6-0.6-7.3,1.9
		c-1.9-1.6-5.1-1.4-5.1-1.4h-4.1l-3.4-2.5h-3.6l-1.4,1c-1.4-1.7-2.8-2.8-4-2.7c-0.8,0.1-1.5,0.7-2.2,2.1l-0.4,20.8l-2.5,0.1
		c-0.6,0.6-0.7-0.7-1.8-1.7c-4.1,3.1-8.2,6.2-12.4,9.2c-1.7,1.2-3.3,2.4-4.8,3.8c-1.7,0.5-5.3,2.1-3.5,4.2"/>
	<path id="Region_OHiggins" class="st0" d="M157.6,514.5c1.5,2.6-0.6,3.5-1.6,5.1c0.9,0.6,1.6,2.2,2.5,1.1c3-3.5,3.1-2.2,3.8-1.3
		c1.2,1.7,3.8,1.3,4.5,3.2c1.6,4.2,3-2.2,5-1.9c0.6,0.1-1.4,4.1-0.5,4.2c3.1,0.3,3-1.9,4.3-0.4s-0.2,4,0.9,3.5s0.8-1.8,4-1.6"/>
</g>
<circle class="border-circle" cx="299.2" cy="300.8" r="277.6"/>
<g>
	<g>
		<defs>
			<circle id="SVGID_1_" cx="300.8" cy="300.8" r="277.6"/>
		</defs>
		<clipPath id="SVGID_2_">
			<use xlink:href="#SVGID_1_"  style="overflow:visible;"/>
		</clipPath>
		<g class="st1">
			<g>
				<g>
					<defs>
						<circle id="SVGID_3_" cx="338.8" cy="128.9" r="575.7"/>
					</defs>
					<clipPath id="SVGID_4_">
						<use xlink:href="#SVGID_3_"  style="overflow:visible;"/>
					</clipPath>
					<g class="st2">
						<g id="Region_Coquimbo" class="st3">
							<g id="Provincia_Elqui">
								<path id="4" name="Coquimbo" class="region" d="M353.8-487.8c-1.3,0-6.2,3.2-9,3.8c-3.2-1.6-16.5,0.6-10.1,5.5c-1.2,8.1-0.8-0.2-16.2,13.2
									c-3.3,1.5-8.7,1.2-12,0.5c-4.4-1-6.9-2.5-8.7,3.3c-4.5,2.5-11.3,1.5-6.5,8.9c-9.6,7.6,2.6,15.4-7.3,18.7
									c1.4,7.2-8.6,17.3-14.3,12.5c2.3-5.1,0.2-11.5-3.8-10.5c-3,0.8-6.8,2.6-8.5-0.4c-8.4,0.8-4.7-15.5-7.5-22.3
									c-8.3-1.5-16.9,4-21.4-5.4c-4.9-2.8-9.5-3.3-11.7,3.1c-1,7.8-14.1,2.4-19.5,3.2l1.5,5.9c1.4,5.3,3.6,4.2,1.7,7.5
									c-1.6,2.6-1.6,3.4-0.4,3.4c1.1-0.1,2-0.5,2.8-1.3c2.4-2.4,7.1,0,15.4,8l8.3,8l-0.6,6.5c-0.6,6-0.5,6.9,2.2,9.6
									s2.8,3.3,1.7,5.7c-0.7,1.5-0.9,3.2-0.5,3.8s-0.2,2.1-1.3,3.3c-1.7,1.9-0.2,6.6,0.6,11.5c0.6,3.6-0.1,7.6,2.4,9.4
									c6.3,4.6,5.1,5.5,0,9.4c-0.9,1-1.5,2.2-1.7,3.6c-1.2,6.2-0.6,12.9-3.3,18.9c-1.4,3.4-1.3,3.9,1,6.4c1.4,1.5,2.6,3.6,2.6,4.7
									s1.1,5.7,3.7,5.2c4.2-0.7,3.9,3.1,3.7,9.8c-0.1,5.5,1.9,7.5-0.2,9c-1.5,1-1.3,4-1.3,5.6s-6.3,1.8-7.4,1.8
									c-1.9,0-1.3-3.2,0.5-4.3l-7.1,5.7c8,4.2-1,7.7-0.6,2.5c0.1-0.8-2.2,5.6-4.1,3.2c-1.1-1.4-7.8,5.7-0.2,7.5
									c3.6,0.9,1.4,10.6,4.5,11.9c1.3,2-1.6,5.8,0.5,8.3c-0.4,0.6-0.8,10.3-2.7,12.2s-7.5,2.6-8.3,0.6s-5.3-5-4.2,1.4
									c-2.5,6.4-1.5-0.4-3.3,10.3l-2.2,4.8c-0.4,5.3-5.3,6.1-12.1,7.6c-3.4,0.8-4.6,0.6-6.4-1.1c-1.2-1.2-1.9-2.7-2.1-4.3
									c-0.1-1.5-0.7-3-1.5-4.2c-1.4-2-1.8-1.9-4.1,1.8c-1.6,2.9-2.6,6-3.2,9.2c-0.4,2.5-2.4,7.2-1.8,8.1h-0.1
									c-1.3,1.6-1.7,3.2-1.4,3.6s-0.1,5.2-0.6,10.8s-2.6,14.4-1.7,20c1.2,7.2-0.8,11.8-1.4,14.3c-0.9,4-0.9,8.1,0,12.1
									c1.9,7.4,4.1,11.7,0.8,15.9c-2.6,3.4,2.3,22.7,3.4,26.1c0.8,3.3,1.4,6.6,1.8,9.9c0.7,4.3,1.9,8.4,3.7,12.4
									c2.1,4.5,2.7,7,2.2,9.8c-1.7,8.4-2.1,12.4-1,15.5c0.7,2.1,0.9,5.5,0.1,9.8c-1,5.7-0.8,7.8,1.8,16.2c1.6,5.3,3,11.6,3.1,14.1
									s-0.2,7.5,1.7,7.4c2.7-0.2,3.3,0.9,1.7,5.7s2.4,15.6,7.9,29.9c0.6,1.6-0.6,6.6,1.9,11.3c1.8,3.4-1.1,7.4-2.4,9.6
									c-1.2,2,3.7,4.1,4.5,5.6c1.1,2.2,1.4,8.4,2.2,13.8c0.3,2.6,0.8,5.2,1.4,7.8c0.3,1,0.7,2,1.3,2.9c4.4,3.2,6.3,7.9,2.8,12.7
									c-1,3.6-9.7,11.3-1.7,11.3c7.3,0.6,3.9,6.3,2,10.6c-2.2,5.2,3.1,8.6,3.6,12.6c-3,4.7-2.4,10.3-2.8,15.7
									c0.1,4.6-1.8,10.2,0.9,14.3c-0.4,2.5-1.9,4.7-2.8,7.1c0.2,2.9-0.7,6.8,2.7,8.1c3.9-0.4,6.2-4.2,8.9-6.6
									c4.7,2,9.3,4.1,14.1,5.7c6.5,2.8,13.9,1.1,19.8-2.3c1.4-3.8,5.7-5.1,7.6-8.9c1-5,5.1-2.9,6.1,0.8c4.1,6.4,10.1-1.4,13.6-4.3
									c3.5-5,8.9-7.5,12.4-12.2c3.6-1.9,4-4.1,0.6-6.8c-0.7-6.9,8-2.7,12.1-2.8c1.5,0.2,2.8,0.7,3.4,1.7c2.8,4.2,5.4,8.8,6.1,3.1
									c5.6-2.2,9.8-1.5,11.9-4.7c4-1.9,8.7-3.4,10.5-3.4c1.9-0.1,3.8-0.6,5.4-1.7c3.7-2.7,8.4-1.9,8.8,1.4
									c0.3,2.6,5.1,5.9,4.2,3.6c-1-2.8,11.1,0.4,4,6.4c-2.6,2.2,5.3,8.4,2.3,8.1c-0.8-0.1,4.6,3.5,9.3,6
									c11.2,1.9,12.8,6.6,10.8-2.7c-0.3-1.5,3.5,2.1,6.9,3.2l6,2c3.2,2.6-0.3,9.2-0.5,13.9c1,0.8,5.2,0.1,5.2,1.8
									c0.3,3.5-1.2,9.3,2.4,10.7c1.3-0.3,7-3.1,8.5-3.4c5.2-1.2,6.6-4,7.9-7.8c0.9-2.4-3.4-5.3-1.9-10.8c2.2-8.4,2.3-10.1-1-10.7
									c-4.9-0.9-6-6.8-3.6-10.3c0.4-0.6-0.5-4.3-6.8-5.2c-2.4-0.3-4.6-5.9,5-5.2c0.8,0.1,1.4,4.6,1.8,4.3c1.2-0.9,6,2,7.1,1.9
									c2.5-0.2,6-4.4,8.4-7.8c0.6-0.9,1.3-6.7,3.2-6.8c3.4-0.2,4.5-6.7-0.6-10.6c-2.1-1.6-2.5-2.9-5.6-5.3
									c-3.8-2.9,1.3-6.8-12.4-4.5c-5.6,0.8-11.3-1.3-14.9-5.7c-1.4-1.9-4.2-1.4-5.5-2.2c-3.9-2.4,2.1-2-1.7-12.9
									c-0.9-2.6-0.7-5.5,0.4-8c1.2-4.6-2-11.2-5.5-10.6c-2.7,0.5-3.6-2.3-3.6-2.9c0.7-5.3-6.8-10.7-4.8-12.2
									c-6.1-1.9-5.2,2.7-3.4-12.7c-5.4-22.7,5.2-16.8-1.1-24c1.2-3.8,6.4-11.7,5.7-12.9c-3-5.5-3.5-12.3-1.7-15
									c2.3-4,3.4-8.7,2.9-13.4c-1.5-13.7,1.7-19.9,6.4-22.2c1.6-0.8,3.8-8.4,4.1-5c0.2,2,3.6,8.1,6.5,9.2c2.9,1.1-1.4,5.7,3.1,4
									c8.3-3.3,3.8-4.5,5.2-9.4c1.3-4.5,7.6-13,9-14c2.8-1.9,7.2,1.2,7.5-1.7c0.2-2.4-0.8-2.5-2.4-3.9c-3.5,4-1.2-6.8-4.2-11.3
									c-4.3,0.1-5-4.8-0.9-8c2.6-2,0.8-8.3,2.4-13.9c1-3.7,3-6.6,1.9-9.2c-0.7-1.8-0.2-3.6,0.5-4.1s1.1-2,1.1-3.4s3-6,3.8-6.8
									c1.6-2.9,0.8-5.2,0.6-8c0.1-0.1,0-0.9,0.1-2.9c0.4-6.4,0.5-12.8,5.2-18.1c3.8-5.3,6-13.8,5.7-15.5c-0.2-1.5-1.7-3-0.5-4.8
									c0.6-0.9,1.9-1.9,4.2-3.1c8.1-3.9,10-9.1,6.9-16.7c-2.3-3.5-6.5-7.6-4-9.7c0.7-0.3,2.6,0,6.5,1.4c1.7,1.6,4.7,5.8,5.6,6.6
									c1.9,1.8,8.4,3.8,9.4,2c0.5-0.7,4.1-3.6,6.1-3.2c2.8,0.6,2.2,3.8,5,1c1.9-1.9,5.4-7,6.9-7c4.2,0,7.5,0.5,5.2-2.9
									c-2-3-3.3-4.8-0.2-11.6c0.9-2.1,2.7-3.9,2.5-5.4c-0.3-2.1-2.5-7.6,0-7.9c2.4-0.3,5.9,2.1,7.6-1.3c1.3-2.5,2.9-5.7,2.3-6.9
									c-0.9-1.7-1.8-4.4,1.3-4.5c4.1-0.1,1.6-9.1-2.2-6.9c-2.7,1.6-6.3-1-6.9-3.3c-0.4-1.7-5-3.7-7.8-1.4
									c-9.3,7.8-5.7-1.3-6.5-2.3c-4.4-5.4-2-2.3,1.4-6.4c2.1-2.5,4.6-6.1,3.8-9.8c-0.6-2.9-0.1-6.7,2.3-8.9c5.6-5.2-1.5-7-0.2-8.7
									c3.4-4.7,4-13.8,4.3-14c0.8-0.5-2.3-2.7-2.3-4.2s1.2-7.1,0-6.8c-3.3,0.8-4-0.6,1.1-8c4.7-6.7,1.2-11.7-1.8-14.3
									c-8.3-7.2-7.9-7.6-7.1-15.7c0.5-5.5,1.6-8.9,0.2-12c-1-2.3-2.6-2.2-3.2-4.7c-0.6-2.5,2.2-7.3-1.7-6.8
									c-8.8-0.1-17.1,8.4-26.5,4.5c-3.6,4.2-6.8-2.8-11.3-1.4c-4.2-7.3-8.8-14.3-13.8-21c-5.1-7.3-13.3-11-21.9-6.6
									c1.4,11.9-18.1-0.2-15-4.7c2.7-4.8,6.7-6.3,0.6-9.8c-5.5-5.5,3.6-14.1-5.6-19.4c5.6-9.6-8.8-14.6-8.4-23.6
									c2.5-3.8,2.5-8.3,0.1-9.4c-1.6-0.8-4.2,0.3-7.3,1.1C354.5-484.3,355.5-487.8,353.8-487.8z M190.7-443.4
									c-0.4,1.2,0.3,2.5,1.5,2.9C192.8-441.9,191.9-442.8,190.7-443.4z M189.2-438.4c-0.7,0-1.9,2.3-3.1,4.1c0,1.1,0.9,2.1,2,2.2
									c1.2,0,2.1-3.5,1.5-5.5C189.5-438.2,189.4-438.4,189.2-438.4L189.2-438.4z"/>
							</g>
						</g>
						<g id="Region_Metropolitana-2" class="st3">
							<path id="13" name="Región Metropolitana Santiago" class="region" d="M347.2,310.4c-0.3,0-0.6,0.1-0.9,0.1c-4.2,1.2-3.8,3.7-4.7,1.3c-1.9-0.3-3.6-1.6-6-0.6
								c-0.9,0.2-1.1,0.6-2.2,0.6c-1.4,0-2.9-0.7-4.2-0.5c-0.5,0.4-1.1,0.7-1.7,0.9c-5.4-0.2-2.9,0.9-4.2,0.9
								c-0.4,1-1.5,0.6-2.7,0.6c-1.5-0.4-2.2-1-3.4,1.5c-0.4,1.4-1.3,1.7-1.7,3.1c-0.6,1.3-0.5,3.3-2.4,2.8
								c-1.2-0.3-2.3-1.4-3.4-0.6c-1.1,0.8-2.2,1.6-3.6,1.7c-1.4,0.1-2.8,0-4.2-0.1s-2.7-0.2-3.8,0.2c-0.2,1.1-0.6,2.2-1.3,3.2
								c0.8,0.7,0.9,1.8,0.2,2.6l-0.1,0.1c1.3,0.8,1.6,2.8,2.9,5.5c0.1,3.2,2.1,2.5,1.4,4c-0.4,1.7-1,1.9-1.7,4.7
								c-2.1,1.2-2.1,1.5-2.2,3.2c0.9,0.8,2.4,1,2.2,2.4c-1.3,4.1-0.1,3.7,0.1,7.6c1.4,1.4,0.1,2.3,0.6,3.7c0.8,0.5,1.4,1.3,1.8,2.1
								c0.7,1.2,1.1,2.3,1.8,3.4c1.5,1.3-0.8,0.8-0.5,2.5c0.1,1,0.1,1.5-1.4,2.3c-0.5-0.1-1-0.1-1.5,0c-1.1,0.3-1.4,1.2-2.5,0.9
								c0.7,3.8-0.6,2.6-2.3,0.8c-0.9,0.7-1.8,0-2.7-0.4c-0.6,0.8-0.3,2.4-0.4,3.7c-2.2,2.5-3.7,1.8-5-0.1c-2,0-5.3-1.2-5.1,1
								c-0.9,1.7-2.5,2.1-5.2,1l-2.2-0.9c-2.4,1.8-2.7,0.8-3.4,0.2l-2.3-0.2c-1,1-2.4,1.5-3.8,1.1c0.1,1.2-0.9,1.9-2.3,2.2
								c-1.1,0.8-0.3,1.9,0.2,2.9c0.2,1.1,0,4.3,0.5,4.5c0.3,1.1,0.8,2.2,1.5,3.1c-0.4,2.1,0.7,4.1,2.5,5.1c0.5,0.1-0.5,0.3-0.8,2.8
								c-1.1,0.2-1.9,0.9-0.9,3.2l-0.9,2.2c-2.3,1.7,0.6,3-1.8,5.2c-1-1.1-3.3,1.3-3.8,2c-0.9-0.1-1.8-1.1-2.9,0.1l-2.9,4.1
								c0-0.1-0.1,0-0.4,0.2c-1,1.2-3.4,1.1-6.6,0.5c-1.7-1.3-2.3-0.6-2.7,0.8c-2.8,1.2-0.1,4-0.1,6c0,2.9-1.4,5.9-0.2,7
								c-2.6,2.5-3,5-1.1,7.5c0.4,1.6-2.4,4.6,1.7,4.6c0.8,1.2,1.5,3.2,1.8,7.1c-0.6,1.3-0.5,2.8,0.2,4l-1,1.4
								c-0.4,2.4-0.9,4.4-2.2,4.1l-2.3,2c-2.6-0.1-6-1.1-4.2,3.2c-3.5,1.2-2,3.9-2.7,5.9l-2.6-2.3l-2.6,2l0.1,0.9
								c-3.7,5-0.4,4.4,1.5,5.1c-0.1,1.4-2,2,1.1,5.1l3.1,2c0.9,4.2,2.5,2,5.6,5.1l-0.1,3.1c0,1.6-0.7,3-1.9,4.1
								c-2.5,0.5-5.6-0.6-7.3,1.9c-1.9-1.6-5.1-1.4-5.1-1.4h-3.6l-3.4-2.5h-3.6l-1.4,1c-2.3-2.7-4.4-4-6.2-0.5l-0.4,20.9l-2.4,0.1
								c-0.6,0.6-0.7-0.7-1.8-1.7c-4.1,3.1-8.2,6.1-12.4,9.2c-1.7,1.2-3.3,2.5-4.8,3.8c-1.7,0.5-5.2,2-3.4,4.1
								c2.6,0.9-1.2,3.3,1.1,3.6c1.8,1.8,5.2,0,6.6,1.8c-0.8,1.1-1,2.5-0.4,3.7c1,0,4.1-0.7,5.2,1s4-0.3,5.5,2c1.8,0.7,3,6.5,4.7,4
								c2.7-0.2,1.6-2.6,0-3.6c1.6-1.5,2.1-3.6,2.3-5.7c2.5,1,3.6,4.4,5.7,5.3c2.8-1.3,6-1.6,9-0.8c1.4,0.8,5,2.7,5.9,1
								c1.5,2,3.5,4.1,6.2,4c-1,0.9-0.4,3.8,0.9,5.1c0.8,0.8,4,4.1,3.9,1.9c1.5-2.4,4.2-1.3,6.2-0.8c2.6,0.7,0.3-1.8,1.3-2.8
								c2,0.7,2.7-1.1,4.3-1.3s2.8-0.9,2.8-3.2c2.5,5.3,5.3,0.9,6.1,6.8c-0.4,5.4,1.7,5.4,4,5.9c3.8,2.3,1.1,7.6,6.6,8.8
								c1.8,5.1,10.5,5.8,15,5.9c4.1-1.3,7.6,7.3,10.3,2.7c1.8-0.7,3.4-1.8,4.7-3.2c1.1,0.3,1.9,2,5.6,1.5c1.6,0.2,3.3,0.6,4.8,1
								c0.9,0.1,4.4-4.1,5.4-3.7c2.3-2.4,5.9-2.5,4.5-3.3c-1-1-1.9-2.1-2.5-3.3c-3.1-4-1.5-11.7,4.7-10.3c5,0.6-0.7-7.7,4-7.9
								c3.1-2.1,6.5-3,9.9-1.3c4.1-1.4,1.9-5.2,2.4-5.5c1.5-0.9,2.4-2.3,0.9-3.8c-0.5-2.1,1.3-3.6-2.3-4.1c-0.5-0.3-1.3-1.3-1.8-1.7
								s-0.3-0.9-0.5-1.7c1.6-0.6,3.6-0.9,3.4-3.2c0.9-3.2,3.5,0.1,5.5,0.4c1.7,1.6,2.4,0.7,5.1-2.3c0-2.4,2.7-0.6,3.3-1.9
								c1.1-0.1,0.7-0.5,1.8-1.3c1-2.8,3.6-1.7,4.6-0.1c0.1,1.9,2,2.9,3.2,4.3c1.5,2.9,3.6,0.1,5.2-1.2c-0.1-1.3,0.1-2.6,2-2.7
								c1.7-0.2,0.5-1.8,1.4-2.5c0.4-0.2,1.2,0.2,1.5-0.2c1.1-1.7,1.3-2,4.1-2c1.3,1.6,2.7,0.1,4.1-0.8c0.6-1.7,1.1-1.3,2.4-1.7
								c1.9-1.2,3.1,2.7,4.3,0.8c1.8,1.4,3.1-1.2,4.1-2.7c-0.8-2.7,2.5-2.5,4.3-2.5c0.6,0,1.3,0.1,1.8,0.5c0-0.1,0.1-0.1,0-0.2
								l0.6-0.5c1.5-0.9,1.1,1.2,2.9-0.1c1.4-3.1,1.7-0.9,1.9-1.8c0.2,0.6,0.9,0.9,2.2,0.9c0.1,0.6,0.4,1.2,1.7,1.8
								c0,1.3,1.1,2.6,3.7,4c0.9-1.7,0.9-0.7,3.1-0.1c-0.1,2,0.3,1.8,0.6,2.3c-0.3,0.7-0.5,1.3,0.5,2.7c-0.6,0.5-1.5,0.6-1,2.2
								c-1.8-0.3-0.7,0.6-0.5,2.7c1.1,0.5,1.9,1.7,1.9,2.9l1.5,1.7c3.2-0.1,1.4,2.4,1.4,4l1.5,1.5l2.3,0.1l0.2,2.9
								c1.3,1.1,1,2,0,2.7c1,1.1,1.7,2.2-0.9,3.1l-1.1,1.2c1.4,2.4-2.4,2.4,0,3.3c-0.5,1.4-0.2,2.6,2.5,3.3c0.8-1,1.7-1.6,2.3,0.1
								l1,0.8l0.4-0.9c0.7,0.8,1.3-0.3,2.9-0.8c1.1,1,2.3,1.8,3.6,2.5c1.2,0.3,1.5-1.6,3.1-2.3c-0.4-2.5,1.6-3,1.3-5.3l5.4-0.5
								l1.8,0.2l2.9,0.1l2,2.4l-0.4,2.5l0.4,3.7l1.9,3.4c-1.5,1-1.5,2.5,0,3.3c0.2,1,0.5,1.9,1.5,1.8c4-0.2-1,2.7-2.3,4.3
								c0.3,1.5,1.5,3.3-0.5,4c0,0.4-0.2,0.9,0.9,1.2c1.8-0.7,3,2.2,2.9,4l2.4,2.2c3.3-1.5,3.1,0.5,3.3,2.2c1.3,0.8,3.3,0.3,5,0.2
								l0.9-1.2l2,1.2l0.1,1.4c2.4,0.1-0.8,0.7,2.9,3.7c-0.5,1.1-0.5,2.4,0,3.6c-0.7,0.8-0.2,3.1,0.9,6.2l3.4,3.6v-1.8l4.3-4.7
								l2.8-0.8c3.1-3.5,5.2-0.7,4.3-0.4c1.6,1.1,3,2.4,4.2,3.8c0.2,0.5,1.7,1.2,2.4,2.7c0.8,1.7,1.7,2,2.8,1.2l1.3-1.4
								c0.3-4.5,0.6-1.8,4-2.5c1.5-0.9,3.1-1.5,4.7-2c1.4-0.2,2,0.6,4.1,0.1c0.5-0.8,1.3-2.3,2.9-2c1.5-3,2.2-0.7,2.5-5.6
								c1.2-5.1-0.7-4.8-1-7.1c-1.8-2.7-11.1-10.1-9.7-11.5c-0.9-1.2,0-0.4,2.3-6.5c0.9,0.2,1.8,0.1,2.6-0.5c0.7-3.1,3.4-4,1.2-6
								c-5.5-1-1.6-4.5-0.6-7.3c4.2-3.2,3.5-4.9,0.4-5.7c0.7-1.2,0.2-5-4-6.4c-0.3-1.5-1.2-2.2-4.2,0.1c-1.3-0.2-2.8-0.1-3.2-2.7
								l2.3-5.6l-0.1-2.8l1.9-1.5l3.8-4.8l-0.2-1.8l-2-1.7l-1.1-2.9l-3.4-2.4l-0.1-2.7l0.6-0.8l0.8-6.8c-2.5-3.7-3.2-7.1,1.3-9.6
								l-0.1-1.4c6.1-8-0.2-9.5,0-14.1c2-6.1,1.4-6.8,0.8-12c-0.9-3,0.8-4.6,1.1-6.9l-0.1-5.9c-1.7-4.5,0-3.9,0.4-5.4
								c0.6-1.4,0.1-3.3,2.8-3.7c2.2-1.8,2.2-2.6,2.5-3.6c0.8-2.6-0.6-7.5,2.5-7.5v-2.3c0.3-3.3-0.6-7.7,2.9-7.8l-0.6-4.6l-1.5-1.7
								c1.4-0.4,1.7,1.5,5.3-1.9l1.5-4.6l-0.2-4.6l-3.4-4.6c-1.5-2.1,0.8-6-4.5-6.2c-2.5-0.3-2.8-5.3-7.5-0.9l-6.2-0.1l-2.4-1.4
								l-1.9-3.8c-1.6,6.5-4.5,3.4-4.5,6.6c-1.3-0.4-2.8-1.1-2.7,1.5l-1.1,1l-1.9,2.5l-2.3,1.1l-2.8,0.2l-1.4-2.7l0.8-1.1l-0.2-2.7
								l-2.9-1l-1.4-1.1l-0.2-3.2l0.9-1.7l0.1-3.1l-5.5-2.9l-1-2.8l0.8-6.9c-4.1-5.7,2.4-3.2,0.4-8c-4.7-1.5-3.9-3.7-2-6
								c-1-3.1,0-7.3-3.8-8.9c0.4-0.6-0.5-1.3-1.1-1.9l1.8-3.8h-2.9c-3,1.1-3.9,3.1-5.9,4.7c-0.9,0.1-2,0.2-2,3.6
								c-3,1.9-2.4,3.1-6.2,3.3l-3.4,2l-0.9,2.4c-1.7,0.3-3.2,1.7-4.6,3.4c-0.5,0.3-0.3,1.1,1.3,2.5c-0.8,1.3-1.7,2.5-2.9,3.4
								l-0.1,3.3c-5.8,0.6-1.4-2.6-4.1-4.7l-0.5-1.8v-4.8h-2.7l-2.5-2.8l-0.1-0.9l-1.7-0.9l-1.9,0.1c-0.5-1.3-1-1.6-1.5-1.7l-2-1
								c-0.8,2.1-3,2.5-5.6,2.3l-1.7-2.7c-2.5-0.8-1.9-3.9-4.1-5.1c-1.8-2,2.1-3.6,0.5-5.7c0.8-3.1-2.3-3.7-4.6-4.2
								c-1.2-0.7-2.8-0.2-3.5,1c-0.2,0.4-0.3,0.8-0.3,1.3c-1.9,1.3-2.5,3.5-3.6,5.5c-0.3,1.3,1.5,2.5-2,2.4c-0.9,0,1.3,2.6-1.7,3.3
								c-1.1,0.2-2.7,1.3-3.2,0.4s-1.4-3-2.5-3.8c0.2-2.5-1.2-4.8-3.6-5.7c-3.1-1.1-1-4-0.5-6.1c-1.8-1.8-3.2-4.1-5-6
								c-0.7-2.2-2.3-1.9-3.1-2.2c-0.8-0.3-0.1-2.4-0.4-3.4c-0.6-0.9-1.3-2.4-3.2-2.8c-0.7,0.6-1.2,2-2,0.5
								c-2.1-0.3-4.2,0.4-5.7,1.9c-4.8,0.2-3.3,2.4-6.8,0.8c-1.6,0.1-3.8,2.7-4.5-0.4l-1.1-0.4c0.1-1.2,0.1-2.4,0-3.6
								c-0.6-1.4-1.9-2.3-3.4-2.4L347.2,310.4z"/>
						</g>
						<g id="Region_OHiggins-2" class="st3">
							<g id="g15007">
								<path id="6" name="O'Higgins" class="region" d="M402.4,504.8c-0.3-0.1-0.7,0.2-1.4,1.8c-1.8,1.4-1.4-0.8-2.9,0.1l-0.6,0.5
									c0.1,0.2,0,0.2,0,0.2c-0.5-0.3-1.2-0.4-1.8-0.4c-1.9,0-5.1-0.3-4.3,2.4c-0.9,1.5-2.2,4.1-4.1,2.7c-1.3,1.9-2.4-2-4.3-0.8
									c-1.3,0.4-1.8,0-2.4,1.8c-1.4,0.9-2.9,2.3-4.2,0.6c-2.8,0.1-3,0.4-4.1,2c-0.3,0.5-1,0-1.4,0.2c-1,0.7,0.2,2.3-1.5,2.5
									c-1.9,0.1-2,1.4-1.9,2.7c-1.6,1.2-3.8,4-5.4,1.2c-1.2-1.5-3-2.3-3.1-4.2c-1-1.6-3.7-2.8-4.7,0c-1,0.8-0.7,1.2-1.8,1.3
									c-0.6,1.3-3.3-0.5-3.3,1.9c-2.7,3-3.4,4-5.1,2.4c-1.9-0.3-4.5-3.8-5.5-0.5c0.2,2.3-1.8,2.7-3.4,3.3c0.2,0.8,0,1.2,0.5,1.5
									s1.3,1.3,1.8,1.7c3.6,0.5,1.9,2.1,2.4,4.2c0.3,0.3,0.5,0.7,0.6,1.2c0.3,1.1-0.5,2-1.7,2.7c-0.5,0.3,1.4,3.7-1.9,5.2
									c-0.2,0.1-0.3,0.2-0.5,0.2c-3.5-1.8-6.8-0.8-9.9,1.3c-4.6,0.2,1.1,8.5-4,7.9c-6.2-1.4-7.8,6.4-4.7,10.3
									c0.7,1.2,1.5,2.3,2.5,3.3c0.4,0.2,0.4,0.3,0.1,0.5c-0.6,0.5-3,1.1-4.7,2.8c-1-0.5-4.3,3.8-5.2,3.7c-1.6-0.4-3.2-0.8-4.8-1
									c-3.8,0.4-4.7-1.3-5.7-1.5c-1.2,1.4-2.8,2.5-4.6,3.2c-2.7,4.7-6.2-3.9-10.3-2.7c-4.5,0-13.2-0.7-15-5.9
									c-5.5-1.2-2.9-6.6-6.6-8.9c-2.3-0.5-4.5-0.3-4.1-5.7c-0.8-5.9-3.6-1.5-6.1-6.8c-0.1,2.3-1.2,2.9-2.8,3.2s-2.3,2-4.3,1.3
									c-1,1,1.4,3.5-1.3,2.8c-2-0.5-4.8-1.7-6.2,0.6c0,2.2-3.2-1.1-3.9-1.9c-1.3-1.3-1.9-4.2-0.9-5.1c-2.7,0.1-4.8-1.8-6.2-3.8
									c-0.4,0.8-1.3,0.8-2.4,0.5c-1.2-0.4-2.4-0.9-3.4-1.5c-3-0.8-6.3-0.6-9.2,0.8c-2.1-0.9-3.1-4.5-5.6-5.5
									c-0.2,2.1-0.7,4.4-2.3,5.9c1.6,1,2.6,3.2-0.1,3.4c-1.8,2.6-2.8-3.3-4.6-4c-1.5-2.4-4.6-0.5-5.6-2s-4.1-0.9-5.1-0.9
									c-0.6-1.2-0.5-2.7,0.2-3.8c-1.3-1.7-4.2-0.2-6.1-1.5c-0.1-0.1-0.2-0.2-0.4-0.2c-2.4-0.3,1.2-2.6-1.4-3.4
									c-3.2-0.2-2.7,1-3.9,1.5s0.2-2.1-0.9-3.4s-1,0.7-4.1,0.4c-0.8-0.1,1.1-4,0.5-4.1c-1.9-0.3-3.4,6-5,1.9
									c-0.7-1.9-3.3-1.5-4.5-3.2c-0.6-0.9-0.7-2.2-3.6,1.3c-0.9,1.1-1.5-0.5-2.4-1c0.9-1.5,3-2.4,1.5-5c-0.1-0.1-0.2-0.1-0.2-0.1
									c-0.4,0.1,0.4,3.2-1.3,3.1c-1.1,2.3-2.9,2.8-2.2,5.9c0,2.7-1.9,3.8-3.4,5c-0.8,0.9,0.3,2.9-2.6,2c0.5,0.1-0.9,1.9,0,2.3
									c0.8,2.4-0.5,2.9-0.1,4.6c-2,4-4.6,5.2-4.5,5.7c-1.2,3-2.8,3.1-4.7,3.7c-0.1,3.8,0.1,6.1-0.6,7.1c-0.5-0.5-0.6,2-1.1,2.7
									s-2.9,2.1-2.6,1c0.4-1.4-1,0.8-2.3,1.8c1.1,1.7-0.5,3.9-0.5,6c-1,1.3-2.8,1.2-4.3,1.3c-1.7,0.1,0.3,2.3,1.3,3.1
									c-0.1,0.3,0,5.4,0.5,5.9c-0.6-0.5-1.6,0.2-0.6,1.4s0.5,2.2,0.8,4c0.5,0.5,0.8,1.2,0.8,1.9c0.2,0.9,0.8,1.7,1.5,2.2
									c-0.2,1.2,1.3,1,0.4,2.3c-0.1,1.9,1.1,4.1,0.8,5.6c0.4,2,0.8,1.8-0.2,3.4c0.1,2,2.9,4.8,1.1,6.9c0.1,3,1,5.4,0.5,8.4
									c0.1,1.5,0.8,4-0.6,3.8c-0.5-0.1-1.8,1.8-2.6,3.3c-1,0.6-3.6-0.4-3.7,0.9c-0.2,1.8-1.1,1.4-1.8,1.9
									c-0.6,1.2,0.4,3.1-0.5,4.2c-0.6,0.7-0.7,1.9-1.3,2.7c-1.4-0.3-2.2-0.7-2-0.1c0.2,0.7,0.4,1.4,0.5,2.2c3.9,6,0.8,4.6,3.3,7.4
									c0.6,2.6,1,6.6-0.6,8.3c-1.5,2.6-2.4,4-2.8,6c0.1,0.7-0.1,1.5-0.4,2.2c0,0.1,0,0.2,0,0.2c-0.9,2.3,0.1,3.9,1.2,5.6
									c1.2,4.7,1.1,3.6,0.1,6.4c-0.9,1.4,0.5,3,0.4,5.3c1.2,2.8-0.6,1.6-1,2.8c0.1,1.5,0.4,3.2-0.5,3.3c-0.4,0,1.3,0.6,0.6,1.5
									c-0.5,0.7,1.4,2,1.7,2.8c1.4,2.4,2.4,1.3,3.4,0.6c0.9,0.6,0.5,2.1,0.9,3.1c0.5,1.3,3-1.3,3.7-1.3c2.1,0.2,0.5,0.7,3.9,2.7
									c-1,1.2-0.9,1.6-1.3,3.1c0.5,1.1,0.8,2.3,0.8,3.6c0.8,0.6,1.7,1.2,2.6,1.7c0.8,0.2,1.7,0.3,2.6,0.4c1.1-0.5,1.5,1.7,2.6,2.8
									c0.4,0.4,0.8,0.8,1.3,1c-0.1,1.5,0.1,2.2,0,3.7c0.7,0.7,1.4,1.5,1.8,2.4c1.1,1.1,2.4,2,3.7,2.8c1.1,0.4,2.9-0.1,4.1-0.1
									c0.2,0.5,0.6,0.8,1.1,0.9c1.6,0,3.4-0.3,5,0.1c0.8,0.5,1.3,1,1.3,1.9c-0.3,0.5,0.6,1.4,0.9,1.5c2.5-0.6,3.2-0.3,4.6,0.2
									c1.3-0.5,2.5-1.4,3.4-2.4c-1.3,1.2,1-0.4,1.3,0.6s3.8,2.2,1.7,2.7c1.5,0.3,2.5,1.1,1.8,3.1c-0.8,1.3,1.3,2.3,2.2,3.2
									c1.5,0.6,0.1,2-0.1,1.9c1.7,0.2,3.3,1.1,4.5,2.3c-0.1,1.5,2,1.7,2.2,3.3c0.8,0.9,1.7,1.5,2,2.7c1.1,0.4-0.5,3.2,1.3,2.5
									c1.5-0.7,3.4-0.1,3.8-2.2c2-0.2,1.6-2.8,2.4-4.1c0.4-2.1-2.7-1.8-3.2-2.8c0.7-1.2,0.5-3.5,2.3-3.4c1.4-1,1.4-2.7,2.2-4
									c0.8-2.1,2.3,0.5,3.8-0.1c1.9,0.1,3.6,0.8,5.1,2c0.8,1-1.2,2.4,0.8,2.5c1.9,0.7,2.4-1.8,3.9-2.3c1.1-0.9,2.9,0.1,1.4,1.3
									c1.4,0.3,2.2-0.4,3.2-1.2c0,0,0.8-0.8,1.4,1c0.4,1.1,1.7-0.1,1.3-0.6s0.4-1.2,0.4-1.2c0.2,0,1,2.2,3.4,1.5
									c1.2-0.3,1.4,1.3,3.8,2.5c0.7,0.4,2.2-0.1,3.2,0.8s2.1,1.7,3.1,1c0.7-0.1,0.8-1.1,0.9-1.8c0-0.6,0.4-1.1,0.9-1.4
									c0.7-0.2,1.4-0.5,2-1c0.2,0.9,0.4,0.4,1.1,1.2c0.2,1,0.5,0.9,1,1.7c0.3,0.5,0.5,1.2,0.4,1.8c0.5,0.3,0.5,0.5,0.9,0.5
									c0.3-0.8,0.3-1,1.1-1.3c0.8-0.6,2-0.6,2.8,0.1c1.1,0.3,1.2,1.2,1.9,1.8c0.8,0.6,1.8,0.8,2.8,0.6l0.5-1.9
									c-0.2-0.3-0.4-0.5-0.6-0.8c-0.6-0.8-1.2,0.2-1.9-0.5c-0.2-0.3-0.4-0.9-0.6-1.3c-0.6-0.6-0.3-2-0.2-2.8
									c-1.2-1.5-0.8-1.7-0.2-2c0.6-0.5,1-1.2,1.1-1.9c0.1-0.6-0.1-1.2-0.4-1.8c-0.5-0.7-0.2-0.5,0.4-1c0.3-0.6-0.1-1.1,0.4-1.8
									c0.6-0.1,0.6-0.5,0.8-0.9c1.2,0.2,1.8,0.6,2-0.8c0.1-0.6,0.6-0.4,0.9-0.1c0.7,0.7,1.8,0.8,2.7,0.2c0.9-0.7,2.1-0.9,2.9-1.7
									c1.4-1,1.2-2.6,1.7-4c0.5-0.3,1-1.3,1.5-1.3c0.9,0.2,1.9,0.1,2.8-0.2c0.7-0.3,1.2-0.8,1.3-1.2c0.5,0.6,1.2,1.1,1.9,1.5
									c0.4,0.1,0.6,0.4,0.8,0.8c0.7,1.7-0.3,3,0,4.7c0.9,0.6,2.1,0.4,3.2,0.6c0.9,0.5,0.8-0.3,1.8-0.4c1.8,0,1.3,0.5,1.7,1
									c1.2-0.4,1.3,1.2,2.8,0.8c0.7-1,1.5-2,2.5-2.7c0.9-0.9,0.8-2.1,1.1-3.3c0.3-0.6,1-0.3,1.7-0.5c0.7-0.4,1.5-0.5,2.3-0.4
									c0.9,0.2,1.9-0.1,2.7-0.6c-0.1-1,0.7-1.9,1.7-2c0.2,0,0.4,0,0.6,0.1c1,0.2,5,6.2,6.6,7.3c1.3-0.2,2.5-0.6,3.7-1.2
									c1.7-0.3,1.3-1.6,2.7-2.4c0.8-0.9,1.4-1.9,1.9-2.9c0.2-0.2,3.2,3.2,3.4,2.3c1.3,1.7,1.6,3.9,2.2,4.3c3.7-0.6,3.5,2,3.8,1.7
									c1.1-1,3.6,2.5,4.7,5.3c1.7,4.2,3.3,1.9,7.4-0.1c2.3-1.1,3.9-0.1,5.4-1.7c1.2-1.3,2.1-0.1,2.8,0.1c0.9,0.3,2.8-0.7,2.9-0.2
									c1,1.1,2.4,1.9,3.8,2.3c2.5,1.4,1.8,0.6,4.1,0.8c0.6,0,0.5-1,0.4-2c-0.1-0.4-0.1-0.8-0.1-1.3c1.3-0.1,4.5,2,4.3,1.9
									c-0.4-0.2,0.7-1,1.9-0.8c0.8,0.2,1.5,1,2.7,2c0.6,0.5,1.2,1.5,2.2,1.8c0.8,0.2,0.2,1.2,0.8,1.8c1.1,1.3,2.6,2.2,4.3,2.4
									c0.8,0,1.6,2.2,1.9,3.8c0.2,1,1.2,0.6,1.4,1c0.7,1.8,1.5,1.2,2.7,1.2c1,0,2.8,3.9,3.6,6.6c0.6,2.4,0,0.8,5,3.6
									c2.7,1.5,2.2,3,3.1,2.2c0.5-0.7,0.8-1.5,0.9-2.3c-0.6-3.6,0.5-3.4,4.2-3.6c3.4-0.5,3.3,0.5,3.6-1c0.7-2.1-1.5-3.5,2.9-2.9
									c1,0.1,1.3-1.3,1.7-1.4c0.7-0.1-0.3,3.1,0.9,3.6c0,0.5,1.8-0.1,2.5,0.4c-0.1,0.1-1.3,2.1-0.4,2.9c0,1.1,3.7,1.3,5.2,1.3
									c0.9,0,0.4,1.2,1.5,2.4c0.8,0.9,1.3,1.9,2.5,1.9c2.6,0,2.4-2,2.8-1.7c0.2,0.2,0,1.5,1.5,1.5c-0.1-0.6,2.1-1.2,4.6-1.3
									c1.1-1.5,1.5-0.4,3.3,0.8c1.3,0.8,1.6,2.3,2.7,2c0.9-0.2,0.8-1.4,1.5-1.2c0.9-0.1,4.8,2,5.5,1.7c0.2-0.2,0-0.9,0.8-1
									c1.3,1,2.8-1.5,2.9-2c1-1.5,0.2-4,0.1-8.8c-0.3-2.2,1.5-1.7,2.3-2.5c1.3-2.6-0.4-3.7,4.1-8.3c0.4-1.1,0-3.9,0.9-4.6
									c1.4-1,0.9-3.3,0.9-4.3c0-0.8,0.9-1.6,1.8-3.4c2.1-4.4,2.7-7,1.8-8.2c-1.6-0.5-6-2.2-6.9-3.4c-0.7-0.3-2-0.2-2.4-0.8
									c-0.7-1-0.1-2.9-0.1-4.5s3.6-3.7,6-4.5c1.6-0.5-0.2,0.2,0.8-2.4c3.2-4.6,1-3.2,2-5.1l0.2-0.2l5-3.2l0.1-3.8
									c-1.8-6.2-0.3-4.8-0.6-6.6c-0.2-1.1,1.7-9.4,2.2-6.9c0,0.2,1.9-5.1,2.7-5.3c0.6-0.2,2.1,0.7,2.3-0.5c0.5-2.6,1.7-5,3.4-7
									c0.6-1,1.1-2.1,1.3-3.3c0.6-1.6,1.4-3.2,2.2-4.7c0.7-1.7,1.2-3.5,1.5-5.3c0.2-1.2,1.3,1.8,4-0.4c1.6-0.3,2-2.5,5-5.6
									c1.6,1.1,2.2-1.2,2.4-1.9c1.4-0.8-0.6-2,0.5-3.1c0.9-0.5,1.8-0.6,2.7-1c3.1-1.7,4.4-2.3,3.7-6c-0.4-1.9-3.4-3.1-1.9-8
									c1.2-4-0.3-8.7-0.1-9.6c0.3-1.6-4.1-2.8,0-3.7l0.2-0.1c-1.2-1.2-2.4-2.4-3.6-3.6c-1.1-3.1-1.5-5.4-0.8-6.2
									c-0.5-1.2-0.5-2.5,0-3.7c-3.8-3-0.5-3.4-2.9-3.6l-0.1-1.4l-2-1.2l-1,1.2c-1.7,0.1-3.5,0.4-4.8-0.4c-0.2-1.6,0-3.5-3.3-2
									l-2.5-2.2c0.1-1.8-1-4.8-2.8-4.1c-1.1-0.2-1-0.6-1-1c2-0.6,0.8-2.5,0.5-4c1.3-1.7,6.4-4.5,2.3-4.3c-1.1,0.2-1.4-0.8-1.5-1.8
									c-1.5-0.9-1.5-2.3,0-3.3l-1.9-3.6l-0.4-3.6l0.4-2.5l-2-2.4l-2.9-0.1l-1.7-0.4l-5.5,0.5c0.4,2.4-1.7,3-1.3,5.5l-0.2,0.1
									c-1.1,0.6-1.5,1.7-2.2,2c-0.1,0-0.2,0.1-0.2,0.1c-0.1,0-0.3,0-0.4,0c-1.3-0.7-2.5-1.6-3.6-2.5c-0.6,0.2-1.2,0.5-1.8,0.9
									c-0.1,0.1-0.3,0.1-0.4,0.1c-0.3,0.1-0.5-0.1-0.8-0.4l-0.4,0.9l-1-0.6c-0.6-1.7-1.5-1.2-2.3-0.2c-2.7-0.7-3-1.8-2.5-3.2
									c-2.4-1,1.4-0.9,0-3.3l1.1-1.3c2.4-0.8,2-1.7,1.1-2.7h-1.2c0-0.1-0.1-0.2-0.1-0.2c1-0.7,1.3-1.5,0-2.7l-0.2-3.1l-2.3-0.1
									l-1.5-1.5c0-1.5,1.8-4-1.4-3.8l-1.7-1.7c0-0.9-0.3-1.7-0.9-2.3c-0.3-0.3-0.6-0.5-0.9-0.8c-0.2-2-1.2-2.8,0.5-2.5
									c-0.5-1.6,0.5-1.7,1-2.2c-1.1-1.3-0.8-2-0.5-2.7c-0.3-0.5-0.7-0.5-0.6-2.4c-2.1-0.6-2.2-1.5-3.1,0.1c-2.6-1.3-3.6-2.6-3.7-4
									c-0.4-0.2-0.7-0.4-1-0.6c-0.2-0.1-0.4-0.3-0.6-0.5c-0.1-0.2-0.2-0.4-0.2-0.6c-1.3,0-2-0.2-2.2-0.9
									C402.8,505.2,402.5,504.8,402.4,504.8L402.4,504.8z"/>
							</g>
						</g>
					</g>
				</g>
			</g>
		</g>
	</g>
</g>
</svg>
