<?xml version="1.0" encoding="utf-8"?>
<!-- Generator: Adobe Illustrator 21.0.0, SVG Export Plug-In . SVG Version: 6.00 Build 0)  -->
<svg version="1.1" id="Capa_1" xmlns="http://www.w3.org/2000/svg" xmlns:xlink="http://www.w3.org/1999/xlink" x="0px" y="0px"
	 viewBox="0 0 600 600" style="enable-background:new 0 0 600 600;" xml:space="preserve">
<style type="text/css">
	.st1{clip-path:url(#SVGID_2_);}
	.st2{opacity:0.7;fill:#FFFFFF;stroke:#FFFFFF;enable-background:new    ;}
	.st3{opacity:0.7;}
	.st4{fill:#FFFFFF;stroke:#FDFCFB;}
</style>
<title>Mesa de trabajo 7</title>
<g id="Region_Metropolitana">
	<g id="Provincia_Santiago">
		<path id="c35" name="Cerrillos" class="comuna" d="M314.3,269l-0.4,2.3h-1.3v3c-0.3-0.1-0.5,0.4-0.8,1.2l-0.9,2.4h3.4l1.1,0.9l-1.8,2.6l4.1,1.8
			l0.1-2.1l4-10.6l-0.1-0.8l-5.4,1.4L314.3,269z"/>
		<path id="c90" name="Estación Central" class="comuna" d="M312.3,264.7l0.1,3.3h-0.3v0.5l2.1,0.6l2,2.1l5.5-1.4h2.5l-0.1-1.4l-1.3,0.1
			c0.3-0.8,0.2-3.3,0.2-5l-0.3-0.1v-1.5l-2.6,0.1v0.8l-2.9,0.2l0.2,2.2c-0.6,0.3-1.3,0.4-2,0.2L312.3,264.7z"/>
		<path id="c145" name="Lo Prado" class="comuna" d="M310.3,260.3v2.4l0.4,0.1v1.7l4.7,1.1c0.7,0.2,1.5,0.1,2.1-0.2l-0.2-2.2l-0.1-2.5l-3-0.3
			l-0.1,0.6l-1.5-0.7H310.3z"/>
		<path id="c36" name="Cerro Navia" class="comuna" d="M301.7,255.6v-0.8h2.1l0.1,0.3h0.8l1.2-0.6h1.8h4.9l0.5,0.2l0.8-0.5h0.5l1,0.8l-1.1,5.8
			l-1.5-0.7l-2.4,0.1v-1.6l-0.5,0.1l-1.4-0.1l-0.7-0.3l-1.5-0.1l-0.9-0.3l-0.4-0.5l-0.2,0.5l-0.9-0.2l-0.6-0.5l-0.5-0.6l-0.4-0.6
			l-0.1-0.3L301.7,255.6z"/>
		<path id="c307" name="Santiago" class="comuna" d="M322.7,270.4l2,0.1v-0.6h-0.4l6.5,0.1l3.4-1.6l-2.4-8.7l-7.3-2l0.1,0.5c-0.6,0-1.8-1-1.9,0.3
			l0.2,2.3l-2.4,0.1v1.3l2.6-0.1v1.5l0.3,0.1c-0.1,1.7,0.1,4.1-0.2,5l1.3-0.1v1.4H323"/>
		<path id="c264" name="Renca" class="comuna" d="M307.6,247.9l-0.7-0.5l-5.1,5.3l-0.1,2h2.1l0.1,0.3h0.8l1.2-0.6h1.8h4.9l0.5,0.2l0.8-0.5h0.5v-0.4
			h0.5l1.1-0.6h1.9l1.5,1.1l1,1.1l1.3,0.9l2.7,1.3v-0.4l-1.5-1.6l-0.3-3.1l-0.3-0.6l-1.8-3.3l-0.8-1.9l-0.3,0.4h-0.2l-0.1-0.3
			l-1,0.5h-0.6l-1.3,1.8h-0.5l-0.4-0.2l-1,0.7h-1v-0.2h-0.5v0.2h-0.5v-0.1h-0.5l-0.1,0.2h-0.4l-0.2,0.2l-0.8-0.9h-0.4l-0.2-0.2
			l-0.2,0.2h-1.2l-0.5-0.5v-0.5L307.6,247.9z"/>
		<path id="c256" name="Quinta Normal" class="comuna" d="M324.4,258l-0.1-0.5l-2.7-1.2l-1.3-0.9l-1-1.1l-1.5-1.1h-1.9l-1.1,0.6h-0.5v0.4l1,0.8
			l-1,5.2l3,0.3l0.1,2.5l2.9-0.2V262v-1.3l2.4-0.1l-0.2-2.3C322.6,257,323.8,258,324.4,258z"/>
		<path id="c262" name="Recoleta" class="comuna" d="M331.7,259.5l-3.2-0.9l0.3-3.4h-0.6v-2.6h-0.5l-0.5-0.4l0.1-0.9l-0.3-0.4l0.3-0.1v-4.3h-0.1
			v-0.6h0.1l0.1-0.5l3.8,1.8l5.9,4.6v0.8l-1.5,1l-0.3,0.6l-1.3,1.4h-0.6l-0.8,0.6l-0.2,1.1l-0.6,1.2h0.2L331.7,259.5z"/>
		<path id="c112" name="Independencia" class="comuna" d="M323.8,251.3l-1.6,0.6l0.3,0.6l0.3,3.1l1.5,1.6v0.4l4.1,1.1l0.3-3.4h-0.6v-2.7h-0.5
			l-0.5-0.4l0.1-0.9l-0.3-0.4l-1.8-0.1L323.8,251.3z"/>
		<path id="c65" name="Conchali" class="comuna" d="M326.8,251l0.3-0.1v-4.3H327V246h0.1l0.1-0.5l-5.4-2.4l-1.1-0.2h-2.3v0.4l1.3,3.4l0.8,1.9
			l1.8,3.3l1.6-0.6l1.2-0.3L326.8,251z"/>
		<path id="c83" name="El Bosque" class="comuna" d="M322,285.1l3.8,1.6l2.8,0.5l-1.9,9.1l-2.4-0.5l-5.4-2.3l1.1-2.3v-2.1l0.6,0.3L322,285.1z"/>
		<path id="c117" name="La Cisterna" class="comuna" d="M328.6,287.1l-2.8-0.5L322,285l2.8-7.1l5.5,1.6L328.6,287.1z"/>
		<path id="c144" name="Lo Espejo" class="comuna" d="M317.8,281.3l-0.1,2.1l4.2,1.8l2.8-7.1l-5-2.1L317.8,281.3z"/>
		<path id="c205" name="Pedro Aguirre Cerda" class="comuna" d="M324.7,269.7l3.3,0.1l-3.2,8.2l-5-2.1l2-5.3l-0.1-0.8h1v0.5l2,0.1L324.7,269.7
			L324.7,269.7z"/>
		<path id="c293" name="San Miguel" class="comuna" d="M324.8,278l3.2-8.2l2.7,0.1l1.1,9.9h-0.9L324.8,278z"/>
		<path id="c300" name="San Ramón" class="comuna" d="M331.9,279.7H331l-0.6-0.2l-1.8,7.6l-0.4,1.7l5,0.6L331.9,279.7z"/>
		<path id="c121" name="La Granja" class="comuna" d="M331.9,279.7l1.3,9.7l0.8,0.1l3-0.8l-0.5-2.3h0.9l-0.3-8.1H336l-2.1,1.2L331.9,279.7z"/>
		<path id="c290" name="San Joaquín" class="comuna" d="M331.9,279.7l-1.1-9.9l3.4-1.6l0.4,1l0.5,2.1l0.8,1.9l0.7,3.9l0.5,0.5v0.6H336l-2.1,1.2
			L331.9,279.7z"/>
		<path id="c124" name="La Pintana" class="comuna" d="M336.9,288.9l-3,0.8l-5.7-0.7l-1.6,7.4l-1.3,5.3l5.3,0.5l-0.4,2.9h0.5l-0.2,1.3h3.4l0.4-1.9
			V301l4-0.8l-0.1-1.2l-0.1-2.4l-0.5-0.8l-0.2-3.3h-0.2l-0.3-2.1h0.5L336.9,288.9z"/>
		<path id="c228" name="Providencia" class="comuna" d="M336.3,253.1l-1,0.6l-0.3,0.6l-1.3,1.4h-0.6l-0.8,0.6l-0.2,1.1l-0.6,1.2h0.2v1l1,3.6
			l2.6-0.8l0.1,0.3h0.5l1.5-0.8l2.2-0.2l1,0.7l2.1-3.5l-0.5-0.4l-3.5-3.2l-1.2-0.5l0.6-1.7H336.3z"/>
		<path id="c186" name="Ñuñoa" class="comuna" d="M332.7,263.3l2.6-0.8l0.1,0.3h0.5l1.5-0.8l2.2-0.2l1,0.7l2.1-3.5l1.8,1.1l0.6,3.2l-0.2,2l-0.8,2.5
			l-1.8,1.1h-4.1l-3.5,0.5l-0.4-1L332.7,263.3z"/>
		<path id="c125" name="La Reina" class="comuna" d="M342.6,259l1.8,1.1l0.6,3.2l-0.2,2l1.8,0.8l3.1,0.1l1.8-0.1l1.6,0.6l0.4-1.5l8.7,0.5v-0.5
			l-0.5-1l-0.8-0.6l-0.2-0.3l-0.6-0.5v-1.2l-2.5-2.2l-1.8-0.4l-1.4-0.6l-2.9,0.4l-0.1-1l-4.1,0.5l-5.3,0.1L342.6,259z"/>
		<path id="c160" name="Macul" class="comuna" d="M336.4,277.4l-0.7-3.9l-0.8-1.9l-0.5-2.1l3.5-0.5h4.1l1.8-1.1l-0.8,4.9l-1.7,3.4v1.4L336.4,277.4z
			"/>
		<path id="c212" name="Peñalolén" class="comuna" d="M362.2,265.6l-8.7-0.5l-0.4,1.5l-1.6-0.6l-1.8,0.1l-3.1-0.1l-1.8-0.8l-0.8,2.5l-0.8,4.9
			l-1.7,3.4v1.4l6.1,0.5l4.1,0.1l0.8-0.2l0.5-0.5h1l0.3-0.5h0.4l1.9-1.7h1.8l0.6-0.5h1.1v-0.5l2,0.9l1.2,0.1l1.8-1.5h1.4l0.7-0.5
			l0.6-0.1l1.8,0.8h1.1l1.5-0.8h1v-0.8l-0.3-0.8l-1.5-0.2l-0.5-0.4h-0.8l-1-1.3h-0.4l-0.4-0.4l-2.2-0.1l-1-0.8l-0.1-0.6l-0.9-1
			L362.2,265.6z"/>
		<path id="c134" name="Las Condes" class="comuna" d="M372.7,271.1l-1.5-0.2l-0.5-0.4h-0.8l-1-1.3h-0.4l-0.4-0.4l-2.2-0.1l-1-0.8l-0.1-0.6l-0.9-1
			l-1.7-0.8V265l-0.5-1l-0.8-0.6l-0.2-0.3l-0.6-0.5v-1l-2.5-2.2l-1.8-0.4l-1.4-0.6l-2.9,0.4l-0.1-1l-4.1,0.5l-5.3,0.1l-3.5-3.2
			l-1.2-0.5l0.6-1.7l13.9-6l1.4-1.7l3.2-1.5l1.8-0.3l1.2-0.8h0.7l0.9-0.7l1.9,0.3h1.3v1.1l-0.9,0.6l-0.4,1.1v0.4l0.9,1.1l0.3,0.6
			l-0.1,0.9l0.5,0.2h0.2l1.6,1l2.7,0.5l0.5,0.7l-0.1,3.5l0.2,0.2v0.8l2,1.4l1.8,0.2l0.7,2.9l-0.2,0.9l0.8,1.5l0.2,2.8l-1.1,0.9
			l-0.4,1l0.5,0.8l-0.2,2.1h-0.4L372.7,271.1z"/>
		<path id="c340" name="Vitacura" class="comuna" d="M336.9,250.3c-0.1,0.5,0,1.1-0.1,1.6v0.9l-0.5,0.4h1.7l13.9-6l1.4-1.7l2.1-1l-0.5-0.6l-4.1,0.3
			l-1.2-0.9l-1.6-1.5l-1-0.6h-1.2l-0.2-0.2l-0.5-0.1l-0.3-0.5l-0.6,0.1l-0.5,0.4l-0.5-1l-1-0.5l-0.4,0.8l-0.5,0.3l-1.3,0.1l-0.9,1
			l-0.8,0.8l0.7,0.6l-0.1,1.9l-0.5,0.4v1.1l0,0l-0.7,0.3v0.6l0.3,0.5v0.8l-0.8,0.6L336.9,250.3z"/>
		<path id="c120" name="La Florida" class="comuna" d="M372.1,272.7l-1.5,0.8h-1.1l-1.8-0.8l-0.6,0.1l-0.7,0.5H365l-1.8,1.5l-1.2-0.1l-2-0.9v0.5
			h-1.1l-0.6,0.5h-1.8l-1.9,1.7h-0.4l-0.3,0.5h-1l-0.5,0.5l-0.8,0.2l-4.1-0.1l-6.1-0.5l-5-0.2l0.5,0.5v0.6l0.3,8.1h-0.9l0.5,2.3
			l0.5,1.5h-0.5l0.3,2.1h0.2l2.1-0.8l1.4,0.6l1.8-0.2l-0.1-1l5.6-1.1l-2-3.2l3.1,0.1l1.1,1.1l0.8-0.8c0.6-0.5,1.3-0.8,2-0.9
			c0.3-0.1,0.3-0.5,0.5-0.6c0.3-0.1,0.5-0.1,0.8-0.1c0.4,0,0.3-0.1,0.6-0.1c0.3,0,0.5,0.2,0.8,0.2c0.4,0.1,0.7,0.1,1.1,0.1
			c0.2,0,0.9-0.1,1,0.1s0.3,0.3,0.5,0.3c0.3-0.1,0.6-0.1,0.9-0.2c0.1,0,0.5-0.2,0.5-0.3c0.6-0.1,1.2-0.1,1.8-0.1
			c0.2,0,0.5-0.1,0.6-0.2c0.2-0.3,0.4-0.7,0.6-1c0.4-0.3,0.8-0.4,1.1-0.9c0.2-0.4,0.3-0.8,0.3-1.2c0.3-0.3,0.6-0.5,1-0.6
			c0.6,0,0.9,0,0.8-0.5c0.1-0.5,0.2-1,0.4-1.4c0.2-0.4,0.4-0.7,0.9-0.7c0.1,0,0.4-0.2,0.4-0.3c0-0.3,0-0.7,0-1
			c0.5-0.1,0.9-0.2,1.3-0.4c0.3-0.1,0.5-0.3,0.6-0.6c0.1-0.3,0.6-0.1,0.9-0.1c0.5-0.1,0.8-0.5,1.1-0.9c0.4-0.1,0.7-0.3,1-0.6
			c0.6-0.5,0.1-1.3,0.3-2.2L372.1,272.7L372.1,272.7z"/>
		<path id="c110" name="Huechuraba" class="comuna" d="M339.7,236.6c0.4,0.6,0.8,1.1,1.2,1.6c0.3,0,0.7,0,0.9,0.2c0.2,0.2,0.3,0.5,0.4,0.9l-0.4,0.8
			l-0.5,0.3l-1.3,0.1l-0.9,1l-0.8,0.8l0.7,0.6l-0.1,1.9l-0.5,0.4v1.1l0,0l-0.7,0.3v0.6l0.3,0.5v0.8l-0.8,0.6l-0.6,1
			c-0.1,0.5,0,1.1-0.1,1.6l-5.9-4.6l-3.8-1.8l-5.4-2.4l-1.1-0.2l-0.9-2.5v-1l0.3-0.2v-0.5l0.4-0.1c0.9-2.5,1-1.2,1.7-2.1
			c0-0.3,0-0.6-0.3-0.6v-0.9c0.4,0.1,0.7,0.1,1.1,0.1c0.3,0,0.6,0.1,0.7,0.4c0.2-0.5,0.7-0.8,1.2-0.9c0.3,0.1,0.5,0.3,0.6,0.5
			c0.3,0.3,0.8-0.3,0.9-0.3c0.7-0.1,0.9,0.8,1.5,1c0.4,0.3,0.4,0.8,0.6,1.1s0,0.6-0.1,0.9c0.6,0.3,0.2,0.5,0.9,0.1
			c0.3-0.1,0.6,0,0.9,0.2c0.4,0.5,0.3,0.2,0.5-0.1s0.6-0.6,0.9-0.9s0.2,0.5,0.5,0.5h1.1c0.4,0,0.6,0.5,1.8,0.3
			c0.4-0.1,0.5-0.6,0.9-0.6c0.8-0.1,1.3,0.2,1.7-0.5C338.2,236.9,339,237,339.7,236.6z"/>
		<path id="c249" name="Quilicura" class="comuna" d="M300.8,241.8l3.4,3.2l1,1.2l1.7,1.3l0.7,0.5h0.5v0.5l0.5,0.5h1.1l0.2-0.2l0.2,0.2h0.4l0.8,0.9
			l0.2-0.2h0.5l0.1-0.2h0.5v0.1h0.5v-0.2h0.5v0.2h0.9l1-0.7l0.4,0.2h0.5l1.3-1.8h0.6l1-0.5l0.1,0.3h0.2l0.3-0.4l-1.3-3.4v-0.4h2.3
			l-0.9-2.5v-1l0.3-0.2v-0.6l0.4-0.1c0.9-2.5,1-1.2,1.7-2.1c0-0.3,0-0.6-0.3-0.6v-1.9h-0.8l-0.3-0.6c0-0.3,0.1-0.2,0.3-0.2l0.1,0.5
			c-0.1-0.5,0.5-1.2-1.1-1c-0.4-0.3-0.3-0.9-1.3-0.9l-0.5,0.3l-0.6-0.1l-0.9-0.7h-1.7l-0.3,1.7l-1.1,0.3l-14.4,4l-0.5-0.6l-1.4-0.1
			c-0.4,0.5,0,1.6,0.4,2.6L300.8,241.8z"/>
		<path id="c231" name="Pudahuel" class="comuna" d="M274.2,273.5c2.8-0.7,1-1.5,3.1-1.3c1.7-0.2,0.7-1.5,2.5-1.3c1.1,0.3,2.2,1.4,3.1-0.1
			c0.1,0.8,1.7-0.5,3.3,0c0.3,0.5,1.4-0.3,2,0c0.9,0.3,1.1-0.2,1-1c2.4-3.6,1.8-1.4,5.3-2.3c1.6,0,1.1-0.4,1.5-0.5s0.5-0.3,0.6-0.6
			c0.4-0.4,1.3,0.4,2.4,0.3l0.2-0.8c1,0.3,2.4,0.2,2.9,1c0.7-0.4,1.5-0.7,1.3-1.7c0.8,0.1,1.9-0.5,2.1,0.5l0.2,1.1l5.4,1.1l-0.1,0.9
			l1.1-0.9h0.3l-0.1-3.2l-1.7-0.4v-1.7l-0.4-0.1l0.1-3.8l-0.5,0.1l-1.4-0.1l-0.7-0.3l-1.5-0.1l-0.9-0.3l-0.4-0.5l-0.2,0.5l-0.9-0.2
			l-0.6-0.5l-0.5-0.6l-0.4-0.6l-0.1-0.3l-0.6-0.1l0.1-2.9l5.1-5.3l-1.7-1.3l-1-1.2l-3.4-3.2l-2.8-2.7c-0.9,1.7-1.9,3.7-2.9,3.8
			c-2,0.1-1.7,3.6-5.2,6.2c-1.9-2-0.6-0.3-3.4-2.2c-3.1-1.6-4.7,1.1-8.1-0.2l-2.1-1.2c-2.4,0.2-3.3,2.7-4.2,2.1
			c-0.8-0.8-0.3,0.3-3.5,1.5c-0.3,0.1-0.3,0.6-0.6,0.8c0.4,3.3-2,2.5-0.1,4.3c-0.8,1.6,0.8,2.5,0.4,5.2c-0.2,2.6-1.6,2.4-1.1,3.2
			c0.3,0.5,0.3,1.2-0.1,1.7c-0.8,0.9,0.5,1.1,0.9,1.9l0.1,2.2c0.6,1.2,0.5,2.6,4.4,2.8C272.9,272,273.5,272.9,274.2,273.5z"/>
		<path id="c162" name="Maipú" class="comuna" d="M312.2,267.9l-1.1,0.9l0.1-0.9l-5.4-1.1l-0.2-1.1c-0.2-1-1.3-0.4-2.1-0.5c0.2,0.9-0.6,1.3-1.3,1.7
			c-0.4-0.8-1.9-0.7-2.9-1l-0.2,0.8c-1.2,0.1-2-0.6-2.4-0.3c-0.1,0.3-0.2,0.6-0.6,0.6s0.1,0.5-1.5,0.5c-3.5,0.9-2.9-1.3-5.3,2.3
			c0.1,0.8-0.1,1.3-1,1c-0.6-0.3-1.7,0.5-2,0c-1.6-0.5-3.2,0.9-3.3,0c-0.9,1.5-2,0.4-3.1,0.1c-1.8-0.2-0.8,1.1-2.5,1.3
			c-2.1-0.1-0.3,0.6-3.1,1.3c0.3,0.3,0.1,0.5,0,0.5s-0.7,0.4-0.7,0.9c0,0.4-0.1,0.7-0.3,1c-0.3,0.3-0.5,0.6-0.6,0.9
			c-0.1,0.4-0.3,0.9-0.1,1.3c0.3,0,0.6,0.2,0.9,0.3c0.3,0.2,0.6,0.4,0.8,0.8c0.7-0.3,1.4-0.5,2.1-0.6c0.8,0,1.5,0.3,2,0.9
			c0.1,0.8,0.3,1.2,1.2,1.3c0.2,0,0.5,0.2,0.6,0.3c0.1,0.3,0.4,0.6,0.6,0.8c0.3,0.1,0.5,0.4,0.5,0.8s0,0.5,0.4,0.6
			c0.2-0.1,0.3-0.2,0.5-0.3c0.3-0.1,0.7-0.1,1,0c0.4,0.3,0.7,0.6,1.1,0.9c0.8,0.4,1.6-0.4,2.2-0.9c0.9,0.5,1.5,1.6,2.7,1.6
			c0.8-0.4,1.7-0.5,2.6-0.3c0.4,0,0.8-0.1,1.2-0.2c0.6,0.1,1.3,0.3,1.9,0.5c1.3,0,1.3-2.4,2.5-1.7c0.5,0.3,0.7,0.9,0.6,1.5
			c-0.3,0.2-0.6,0.3-0.9,0.2c-0.3,0.1-0.5,0.4-0.5,0.8c0.1,0.3,0.1,0.4-0.2,0.6c-0.2,0.2-0.5,0.4-0.8,0.4l3.5,3.2l3.1,3l3.4,0.7
			l9.6-14.3l-1.1-0.9h-3.5l0.9-2.4c0.3-0.8,0.5-1.2,0.8-1.2v-3h1.3l0.4-2.3l-2.1-0.7L312.2,267.9z"/>
		<path id="c143" name="Lo Barnechea" class="comuna" d="M384.5,177.7c-0.4,2.1-0.3,4.8-2.8,4.2c-0.3,0.6,0.3,2-1.1,1.5c-0.3,1.1-0.9,0.7-1.3,0.9
			c-0.8,0.9-2.1,0.9-3.5,0.7c-0.5,1.1-4.3,1.9-4.7,5.5c-0.7,0.3-1.1,0-1.9,2.1c-0.1,0.6,0.4,2.1-0.2,1.8c-1.1,0.6-1.6,1-1.4,1.3
			c-0.3,1.1-0.7,2.1-1.4,2.1c0.6,6.1-1.6,2.9-1.3,5.3c0.5,1,0.9,2.2-1.1,5.4c-2.4-0.9-5.3,0.8-8.1,0.4c-0.3,1.3-0.1,3.3-1.5,3.2
			c-0.9,1.8-1.6,0.4-2.9,1.6c-0.8-0.4-1.7-0.3-2.4,0.3H347c-0.6,0.8-1,1.7-1,2.7c-1.2,0.4-0.2,1.1-2.1,3.5c0.6,1.8,0.5,4.5-0.9,5.2
			c-1,0.5-1.9,1.2-2.7,1.9c0.7,3.7-3.9,0.8-1.8,4v2c0.9,2.3,2.1,2.1,1.3,3.4c0.4,0.6,0.8,1.1,1.2,1.6c0.3,0,0.7,0,0.9,0.2
			c0.2,0.2,0.3,0.5,0.4,0.9l1,0.5l0.5,1l0.5-0.4l0.6-0.1l0.3,0.5l0.5,0.1l0.2,0.2h1.2l1,0.6l1.6,1.5l1.2,0.9l4.1-0.3l0.5,0.6
			l1.1-0.5l1.8-0.2l1.2-0.8h0.7l0.9-0.7l1.9,0.3h1.4v1.1l-0.9,0.6l-0.4,1.2v0.4l0.9,1.1l0.3,0.6l-0.1,0.9l0.5,0.2h0.2l1.6,1l2.7,0.5
			l0.5,0.7l-0.1,3.5l0.2,0.2v0.8l2,1.4l1.8,0.2l0.7,2.9l-0.2,0.9l0.8,1.5l0.2,2.8l-1.1,0.9l-0.4,1l0.5,0.8l-0.2,2.1l0.2,1.1l2-0.4
			l1.4,1.1h0.9l0.7,0.9h2.1l2-1.5l2.8-0.1l0.8,0.8h2.4l0.8,0.9h0.9l1.5-2l1.4-2h1.7l1.4-1.7l0.4-0.3l2.5-0.5l-0.6-1.5h0.7l-0.1-1.3
			l4.1,0.6l0.9-0.6l0.1-1l1.8-0.2v-0.7l1.6-0.1l0.8-0.9l1.3,0.1l0.9-0.6l0.3-1.4l1.3-1.3l0.1-1.1l0.9,0.3l2.6-2.2l0.2-4.3l3.2-1.3
			l0.2-1.2l1.5-0.9l0.1-4.2l1-0.9h1.1l1.2-1.3l-0.1-2.9l-1-1.8l-0.3-5.4l-1.3-1.1l0.3-1.8l-2.3-3.2l-0.6-6l-1.8-2l-0.3-2.5l-3.4-2.9
			l0.1-1.2c2.1-3.1,0.1-3.3-0.8-4.4l0.1-1.4l-2.4-0.9v-4.5l-0.8-1.9c-6.7,0.6-1.6-3.2-4.7-5.5l-0.6-2l0.1-5.7h-3.2l-3-3.2l-0.1-1.1
			l-1.9-1l-2.1,0.1c-0.6-1.5-1.2-1.8-1.9-1.9l-2.3-1.2C390.1,177.5,387.5,177.9,384.5,177.7z"/>
	</g>
	<g id="Provincia_Cordillera">
		<path id="c232" name="Puente Alto" class="comuna" d="M355.1,285.3c-0.4,0-0.3,0.1-0.6,0.1s-0.5,0-0.8,0.1c-0.2,0.1-0.2,0.5-0.5,0.6
			c-0.7,0.1-1.4,0.4-2,0.9l-0.8,0.8l-1.1-1.1l-3.1-0.2l2.2,3.3l-5.6,1.1l0.1,1l-1.9,0.2l-1.4-0.6l-2.1,0.8l0.2,3.3l0.5,0.8l0.1,2.4
			l0.1,1.2l-4,0.8v3.5l-0.4,2l-0.1,2l-0.6,1c0,0,0.1,0,0.1-0.1c0.5-0.3,1.2-0.4,1.8-0.2c0.4,0.2,0.7,0.3,1.1,0.3
			c0.2,0,0.4,0,0.6-0.1s0.4-0.1,0.5-0.2c0.1,0.1,0.3,0.1,0.5,0.1c0.1,0,0.3,0,0.4-0.1c0.5-0.2,0.9-0.5,1.4-0.3
			c0.5-0.1,0.9-0.7,1.1,0.1c1,0.4,1.1-1.2,1.9-1.3c0.2,0,0.4,0.1,0.5,0.2l0.2,0.1c0.1,0,0.1,0,0.2-0.1s0.2-0.2,0.2-0.4
			c0.1-0.3,0.2-0.6,0.4-1.2c0.5-0.8,1.3-0.5,2-0.6c0-0.7,0.8-1.7,1.4-1c0.2,0.1,0.4,0.1,0.6,0.1c0.1,0,0.2,0,0.3-0.1
			c0.5-0.2,0.9-0.5,1.3-0.8c0.9-0.1,1.7,0.1,2.5,0.4c0.6-0.3,1.1-1.7,1.9-0.9c0.4,0.3,0.9,0.4,1.3,0.4c0.1,0,0.1,0,0.2,0
			c0.1-0.1,0.1-0.2,0.2-0.4c0.1-0.3,0.1-0.6,0-0.8c-0.2-0.4,0.4-0.4,0.6-0.4c0.1,0.2,0.1,0.5,0.2,0.8c0.1,0.2,0.4,0.2,0.7,0.2
			c0.3,0,0.6-0.2,0.6-0.5c0.1-0.3,0.4-0.3,0.4-0.8c0-0.1,0-0.2,0-0.3l0,0c-0.1-0.2-0.2-0.3-0.1-0.5s0.4-0.1,0.6-0.1
			c0.1,0,0.2,0.1,0.3,0.1h0.1c0.1,0,0.1,0,0.2-0.1l0.2-0.1c0.3-0.2,0.3-0.5,0.4-0.8c0,0,0,0,0-0.1c0.1-0.2,0.1-0.5-0.1-0.8
			c-0.1-0.2,0-0.3,0.2-0.4h0.1c0.1,0,0.2-0.1,0.3-0.1l0.1-1c0.4,0,0-2-0.1-2.7c-0.1-0.4,0.2-0.9-0.7-0.9c0.4-1-0.4-2.7,1-3.2
			c0.3-2.5,0.9-1.5,1.5-1.7l-0.1-2c1.1-1.2-0.3-1.3-0.5-1.9c-0.6,0-1.2,0-1.8,0.1c0,0.2-0.4,0.3-0.5,0.3c-0.3,0.1-0.6,0.1-0.9,0.2
			s-0.5-0.2-0.5-0.3s-0.8-0.1-1-0.1s-0.7-0.1-1-0.1C355.7,285.4,355.4,285.3,355.1,285.3z"/>
		<path id="c291" name="San José de Maipo" class="comuna" d="M456.3,464.4l-0.1-2l5-5.4l3.3-0.9c3.6-4.1,6.1-0.9,5-0.5c1.8,1.3,3.5,2.7,4.9,4.4
			c0.3,0.5,2,1.4,2.8,3c0.9,1.9,1.9,2.4,3.2,1.3l1.5-1.6c0.4-5.2,0.7-2.1,4.5-3c1.7-1,3.5-1.8,5.4-2.4c1.6-0.3,2.4,0.7,4.8,0.2
			c0.6-0.9,1.5-2.7,3.4-2.4c1.7-3.4,2.5-0.8,2.9-6.5c1.4-5.9-0.8-5.5-1.2-8.3c-2.1-3.1-12.9-11.7-11.2-13.2c-1-1.4,0-0.6,2.7-7.7
			c1,0.3,2.1,0,2.9-0.6c0.8-3.6,4-4.6,1.4-6.9c-6.3-1.2-1.9-5.2-0.8-8.3c4.9-3.8,4.1-5.7,0.5-6.6c0.8-1.4,0.2-5.9-4.6-7.5
			c-0.4-1.8-1.3-2.6-4.8,0.1c-1.6-0.2-3.3-0.1-3.7-3.1l2.6-6.5l-0.1-3.2l2.2-1.8l4.4-5.6l-0.2-2l-2.5-1.9l-1.2-3.4l-4-2.9l-0.2-3.1
			l0.8-0.9l0.8-8c-3-4.3-3.7-8.2,1.5-11l-0.1-1.7c7-9.2-0.2-10.9,0.1-16.3c2.3-7.1,1.6-7.9,0.9-13.9c-1-3.5,0.8-5.3,1.2-8l-0.1-6.7
			c-2-5.3,0.1-4.5,0.5-6.2c0.6-1.6,0.2-3.8,3.2-4.2c2.6-2.1,2.5-3,2.9-4.1c0.9-3-0.6-8.7,3-8.7v-2.8c0.4-3.8-0.6-8.9,3.5-9l-0.9-5.2
			l-1.8-2c1.7-0.5,2,1.8,6.2-2.1l1.8-5.3l-0.3-5.3l-4-5.2c-1.7-2.5,0.9-7.1-5.2-7.4c-2.9-0.3-3.3-6.1-8.7-1l-7.1-0.1l-2.9-1.6
			l-2.2-4.4c-1.9,7.6-5.2,3.8-5.1,7.6c-1.5-0.4-3.2-1.3-3.1,1.8l-1.4,1.3l-2.1,3l-2.7,1.2l-3.2,0.3l-1.6-3l0.9-1.4l-0.3-3.1
			l-3.5-1.1l-1.6-1.4l-0.3-3.8l1.1-1.9l0.1-3.6l-6.4-3.4l-1.2-3.2l0.9-8c-4.7-6.6,2.8-3.8,0.5-9.4c-5.4-1.7-4.5-4.2-2.4-6.8
			c-1.2-3.6-0.1-8.5-4.5-10.4c0.5-0.8-0.5-1.5-1.2-2.2l2-4.4h-3.4c-3.5,1.2-4.6,3.6-6.8,5.5c-1.1,0.1-2.1,0-2.2,4
			c-3.5,2.2-2.9,3.6-7.4,3.9l-3.9,2.4l-1.1,2.9c-2,0.3-3.7,2-5.3,4c-0.5,0.4-0.3,1.2,1.5,2.9c-0.9,1.5-2,2.9-3.4,4l-0.2,3.9l0.8,1.9
			v4.5l2.3,1.3l-0.1,1.4c0.8,1.1,2.8,1.2,0.8,4.4l-0.1,1.2l3.4,2.9l0.3,2.5l1.8,2l0.6,6l2.3,3.2l-0.3,1.8l1.3,1.1l0.3,5.4l1.1,1.7
			l0.1,2.9l-1.2,1.3h-1.1l-1,0.9l-0.1,4.2l-1.5,0.9l-0.2,1.2l-3.2,1.3l-0.2,4.3l-2.6,2.2l-0.9-0.3l-0.1,1.1l-1.3,1.3l-0.3,1.4
			l-0.9,0.6l-1.3-0.1l-0.8,0.9l-1.6,0.1v0.7l-1.8,0.2l-0.1,1l-0.9,0.6l-4.1-0.6l0.1,1.3h-0.7l0.2,1.4l-2.5,0.5l-0.4,0.3l-1.4,1.7
			h-1.7l-1.4,2l-1.5,2h-0.9l-0.8-0.9h-2.4l-0.8-0.8l-2.8,0.1l-2,1.5h-2.1l-0.7-0.9h-1.2l-1.4-1.1l-2,0.4l-0.2-1.1h-0.4l-0.6,1.2
			l0.3,0.8v0.8c-0.2,0.9,0.4,1.8-0.3,2.2c-0.3,0.3-0.6,0.5-1,0.6c-0.3,0.4-0.5,0.8-1.1,0.9c-0.3,0-0.9-0.1-0.9,0.1
			c-0.1,0.3-0.4,0.5-0.6,0.6c-0.4,0.2-0.9,0.3-1.3,0.4c0,0.3,0,0.7,0,1c0,0.1-0.3,0.3-0.4,0.3c-0.4,0-0.8,0.2-0.9,0.7
			c-0.2,0.5-0.2,0.9-0.4,1.4c0.1,0.6-0.1,0.5-0.8,0.5c-0.4,0.1-0.7,0.3-1,0.6c0,0.4-0.1,0.9-0.3,1.2c-0.3,0.5-0.6,0.5-1.1,0.9
			c-0.2,0.3-0.5,0.7-0.6,1c-0.2,0.2-0.4,0.2-0.6,0.2c0.2,0.6,1.7,0.7,0.5,1.9l0.1,2c-0.5,0.2-1.1-0.9-1.5,1.7
			c-1.4,0.5-0.7,2.1-1,3.2c0.9,0,0.6,0.5,0.7,0.9c0.1,0.7,0.5,2.6,0.1,2.7l-0.1,1c0,0.1,1.1-0.1,1.3-1.1l0.6-0.6
			c0.2-0.3,0.5,0,0.7,0.2c0.4,0.2,0.3-0.1,0.5-0.3c0.2-0.2,0-0.6,0.2-0.9s0.5-0.1,0.8,0s0.5,0.4,0.8,0.5c0.2,0.1,0.5,0.1,0.8-0.1
			c0.2-0.3,0.5-0.4,0.9-0.4c0.3,0,0.5,0,0.8,0.1v-0.3c-0.1-0.3-0.8-0.6-0.4-0.9V295c-0.1-0.1-0.3-0.2-0.2-0.4c0.2,0,0.4,0,0.6,0.1
			s0.3,0.2,0.5,0.3c0.3,0,0.5-0.1,0.6-0.4s0.2-0.5,0.4-0.8c0.1-0.1,0.3-0.2,0.5-0.2s0.4,0,0.5,0.2c0.2,0.2,0.3,0.4,0.5,0.6l0.1,0.1
			c0.2,3,0.5,4,0.9,4.4c0.5,0,0.5,2.7,0.6,4.8c0.1,1.2,1.2,0.3,2,0.2c1-0.3,0,3.1,1.4,4.2c2.1,0.4,0.9,1.7,2.5,2.3
			c-0.1,1.6-1.3,0.9-1.6,3.2c-3.6-0.1-2.4,0.4-3,3.2c-5.7,5.1,4.5,5.4,6.7,8c-0.1,0.6-0.2,1.2-0.4,1.8c-0.2,1.7,0.4,1.4-0.6,3.5
			c-0.4,0.9,0.8,1.5,0.6,3c0,0.5,0.9,0.4,0.9,1.4c-1.5,1.9,0.5,1.7-1.8,5.7c0.7,0.7,0.4,1.7,0.5,2.5c0.7,1,0.9,2,0.3,2.8
			c0.4,2.2,1.1,4.1-0.4,6.3l-0.2,3.6c-0.9,1.3-1.1,0.8-1.6,0.8c-2-0.1,0.1,1.6-4.8,3.6c0.2,0.8,1,1.1,2.6,1c0.1,0.6,0.5,1.3,1.9,2
			c0.1,1.5,1.2,3.1,4.2,4.6c1-1.9,1.1-0.8,3.6-0.1c-0.1,2.2,0.4,2.2,0.8,2.7c-0.3,0.8-0.6,1.6,0.6,3.1c-0.6,0.6-1.8,0.7-1.2,2.5
			c-2-0.3-0.9,0.6-0.6,3c1.3,0.7,2.1,2,2.1,3.5l1.8,1.9c3.6-0.2,1.7,2.7,1.7,4.5l1.7,1.8l2.7,0.2l0.3,3.4c1.5,1.3,1.2,2.3,0,3.1
			c1.2,1.3,1.9,2.5-1.1,3.5l-1.3,1.4c1.6,2.8-2.8,2.7,0,3.8c-0.5,1.6-0.2,3,3,3.8c1-1.1,1.9-1.8,2.6,0.2l1.2,0.8l0.5-1
			c0.8,1,1.5-0.3,3.4-0.8c1.2,1.3,2.4,1.8,4.1,2.9c1.3,0.3,1.8-1.8,3.6-2.6c-0.5-2.8,1.8-3.5,1.4-6.3l6.3-0.6l2,0.4l3.4,0.1l2.3,2.8
			l-0.4,3l0.4,4.2l2.3,4c-1.7,1.1-1.7,2.9,0,3.9c0.2,1.1,0.5,2.2,1.7,2c4.7-0.2-1.1,3.2-2.6,5.1c0.4,1.7,1.8,3.8-0.6,4.5
			c0,0.5-0.2,1,1.1,1.3c2.1-0.9,3.4,2.6,3.3,4.7l2.9,2.4c3.8-1.7,3.6,0.6,3.8,2.5c1.5,0.9,3.7,0.4,5.7,0.3l1.2-1.2l2.4,1.2l0.1,1.7
			c2.8,0.2-0.9,0.7,3.4,4.2c-0.5,1.4-0.5,2.8,0,4.2c-0.8,0.9-0.3,3.6,1,7.2C453.6,461.6,454.9,463,456.3,464.4z"/>
		<path id="c221" name="Pirque" class="comuna" d="M370.9,293.9L370.9,293.9c0.3,3.1,0.6,4.1,1,4.5c0.5,0,0.5,2.7,0.6,4.8c0.1,1.2,1.2,0.3,2,0.2
			c1-0.3,0,3.1,1.4,4.2c2.1,0.4,0.9,1.7,2.5,2.3c-0.1,1.6-1.3,0.9-1.6,3.2c-3.6-0.1-2.4,0.4-3,3.2c-5.7,5.1,4.5,5.4,6.7,8
			c-0.1,0.6-0.2,1.2-0.4,1.8c-0.2,1.7,0.4,1.4-0.6,3.5c-0.4,0.9,0.8,1.5,0.6,3c0,0.5,0.9,0.4,0.9,1.4c-1.5,1.9,0.5,1.7-1.8,5.7
			c0.7,0.7,0.4,1.7,0.5,2.5c0.7,1,0.9,2,0.3,2.8c0.4,2.2,1.1,4.1-0.4,6.3l-0.2,3.6c-0.9,1.3-1.1,0.8-1.6,0.8c-2-0.1,0.1,1.6-4.8,3.6
			c-0.2,1.1-0.5-1.6-2.1,2c-2.1,1.6-1.6-0.9-3.4,0.1l-0.8,0.7c-0.5-1.2-1.2-2.4-0.4-3.8c-1,0.2-0.9-1.8-1-3.4
			c-0.5,0-1.1,0.3-0.9-1.2c-3.5-1.1-3.3,2-6.8-0.3c-1.8,2-0.8-1.4-3.2-2.8c0.5-1.3,0-2-1.4-1.9c0.6-0.9,2.6-2.3,0.2-2.4
			c0.5-0.7-0.5-0.7-1.6-0.7c-0.5-1.5-1-1.3-1.6-1.5c-0.5,0-0.8-0.7-1-1.8c-2.4,1.6-1.9-0.8-4.5-0.2c-0.9,0.8-1.8,1.5-3.2,0.2
			l-0.4-5.2c-1.4-2.2-3.9-0.8-3.4-8.9l-1.7-0.5l-0.2-2.4c-1.7,0.5-0.7-0.8-1-1.2c-0.6,0.4-1.5,0.2-1.9-0.4c-0.5-1.1-1.2-1.6-1.9-1.6
			l0.4-1.6c-1,0-0.7-1.5-1.8-3.4c-0.9-0.9-0.2-1.9-0.1-2.8c2.4-1.4,2.1-1,2.4-0.9l-0.1-0.8c0.7-0.6,1-1.6,0.8-2.5
			c0.1-0.1,0.3-0.2,0.3-0.4l0.4-0.6V309l0,0c0.5-0.3,1.2-0.4,1.8-0.2c0.4,0.2,0.7,0.3,1.1,0.3c0.2,0,0.4,0,0.6-0.1s0.4-0.1,0.5-0.2
			c0.1,0.1,0.3,0.1,0.5,0.1c0.1,0,0.3,0,0.4-0.1c0.5-0.2,0.9-0.5,1.4-0.3c0.5-0.1,0.9-0.7,1.1,0.1c1,0.4,1.1-1.2,1.9-1.3
			c0.2,0,0.4,0.1,0.5,0.2l0.2,0.1c0.1,0,0.1,0,0.2-0.1s0.2-0.2,0.2-0.4c0.1-0.3,0.2-0.6,0.4-1.2c0.5-0.8,1.3-0.5,2-0.6
			c0-0.7,0.8-1.7,1.4-1c0.2,0.1,0.4,0.1,0.6,0.1c0.1,0,0.2,0,0.3-0.1c0.5-0.2,0.9-0.5,1.3-0.8c0.9-0.1,1.7,0.1,2.5,0.4
			c0.6-0.3,1.1-1.7,1.9-0.9c0.4,0.3,0.9,0.4,1.3,0.4c0.1,0,0.1,0,0.2,0c0.1-0.1,0.1-0.2,0.2-0.4c0.1-0.3,0.1-0.6,0-0.8
			c-0.2-0.4,0.4-0.4,0.6-0.4c0.1,0.2,0.1,0.5,0.2,0.8c0.1,0.2,0.4,0.2,0.7,0.2c0.3,0,0.6-0.2,0.6-0.5c0.1-0.3,0.4-0.3,0.4-0.8
			c0-0.1,0-0.2,0-0.3l0,0c-0.1-0.2-0.2-0.3-0.1-0.5s0.4-0.1,0.6-0.1c0.1,0,0.2,0.1,0.3,0.1h0.1c0.1,0,0.1,0,0.2-0.1l0.2-0.1
			c0.3-0.2,0.3-0.5,0.4-0.8c0,0,0,0,0-0.1c0.1-0.2,0.1-0.5-0.1-0.8c-0.1-0.2,0-0.3,0.2-0.4h0.1c0.1,0,0.2-0.1,0.3-0.1
			c0,0.1,1.1-0.1,1.3-1.1l0.6-0.6c0.2-0.3,0.5,0,0.7,0.2c0.4,0.2,0.3-0.1,0.5-0.3c0.2-0.2,0-0.6,0.2-0.9s0.5-0.1,0.8,0
			s0.5,0.3,0.8,0.5c0.2,0.1,0.5,0.1,0.8-0.1c0.2-0.3,0.5-0.4,0.9-0.4c0.3,0,0.5,0,0.8,0.1v-0.2c-0.1-0.3-0.7-0.6-0.4-0.9v0.1
			c-0.1-0.1-0.3-0.2-0.1-0.4c0.2,0,0.4,0,0.6,0.1s0.4,0.2,0.5,0.3c0.3,0,0.5-0.1,0.6-0.4s0.2-0.5,0.4-0.8c0.1-0.1,0.3-0.2,0.5-0.2
			s0.4,0,0.5,0.2C370.6,293.6,370.8,293.7,370.9,293.9z"/>
	</g>
	<g id="Provincia_Maipo">
		<path id="c280" name="San Bernardo" class="comuna" d="M313.7,281.5l4.1,1.8l4.2,1.8l-1.5,4.2l-0.6-0.3v2.1l-1.1,2.3l5.4,2.3l2.4,0.5l-1.3,5.4
			l5.3,0.5l-0.4,2.9h0.5l-0.2,1.3h3.4l-0.1,2l-0.6,1c-0.1,0.2-0.3,0.4-0.4,0.6c-0.1,0.1-0.2,0.3-0.3,0.4c-0.3,0.2-0.7,0.4-1.1,0.4
			c-0.3,0-0.1,0.1-0.3,0.2c-0.6,0.1-1.2,0-1.7,0.1c-0.1,0.2,0,0.3-0.2,0.5c-0.4,0.1-0.8,0.1-1.2,0.1c-0.2,0,0,0.2-0.1,0.3
			c-0.1,0.1-0.3,0-0.3,0.1c-0.2,0.4-0.2,0.3-0.5,0.7c-0.3,0.5-0.7,0.9-1.2,1.2c-0.2-0.3-0.2-0.3-0.5-0.3c-0.1,0-0.3,0-0.4,0
			c-0.3,0.1-0.1,0.8-0.6,0.6c-0.1,0.1-0.3-0.3-0.3-0.3c-0.2,0.5-0.4,0.4-0.6,0.5c-0.1,0.2-0.2,0.4-0.3,0.6c-0.3,0-0.6,0-0.9,0
			c-0.6,0-0.4-0.1-0.5-0.4l-1.3-0.1l-2.3,1c-2.2,0.6-1.1,2.8-1.7,4.2c-2,3.2-2.9,0.5-7.2,4.6l-3.5,2.4c-2.2-0.2-1.9,1.9-3.6,3.6
			c-0.6,1.2-1.6-0.5-2,2c-1.9-0.6-3.2,4.9-4.4,4.2c-2-1.8-0.7-3.2-0.4-3.2c1-1,0.5-1.7,0.4-2.5c0.6-0.8-0.1-1.7-0.3-2.5
			c0.1-2,2.8,2.3,3.2-0.9c-0.2-1.6,0.9-2,2.4-3.9c1-0.8,0.2-1.1,0.1-1.5c-0.4-4.1-2.3-4.1-1.3-6.4c3.9-7.3,5.8-1.5,8.6-0.9h2.9
			c0.9-0.8,0.8-2.2,1-3.4l0.4-1.3c-1.8-0.6-1.2-0.8-1.5-1l-0.3-1.6h-0.6c-1-0.2-0.8-1.8-2-2.3v-0.5l2-0.5c-2-2.3,0-3.4-2-3.8
			c1.8-1.5,2.7-1.3,2.6-1.9c-1.3,0.1-1.9-3.6-2.5-3.3V294c-1.7-0.7-2.3-0.4-2.7-0.9L313.7,281.5z"/>
		<path id="c23" name="Calera de Tango" class="comuna" d="M294.4,300.7l0.9-1.2l0.9-0.8l1.2-0.2l2.4-4.4l2.1,0.2l0.5-1.6l3.5,0.6
			c0.5,0.4,1.1,0.1,2.7,0.9v1.1c0.7-0.3,1.2,3.4,2.5,3.3c0.1,0.6-0.9,0.4-2.6,1.9c2,0.4-0.1,1.5,2,3.8l-2,0.5v0.8
			c1.2,0.5,0.9,2.1,2,2.3h0.6l0.3,1.6c0.3,0.3-0.3,0.4,1.5,1l-0.6,1.1c-0.3,1.1-0.2,2.5-1,3.4h-2.9c-2.8-0.7-4.6-6.5-8.6,0.9
			l-1.9-0.9l-0.7-4.6l-1.7,0.1L293,315l-6.8-2.8l3.7-3.6l5-6.7L294.4,300.7z"/>
		<path id="c14" name="Buin" class="comuna" d="M326.5,336.9c1,0.1,1.1-1.8,2-2.2c0.2-0.1,0.7-1.1,0.9-1.1c0.8,0,0.8,0.6,1.4,0.9
			c0.4,0.2,1.5,0.2,1.8,0.6c0.5,0.9,0.6,0.1,1.2-0.1c0.9-0.2,0.5-0.5,0.6-1.3c1-0.1,0.6-1.1,1-1.2h2.2c-0.1-1.3-0.1-2.7,0-4
			l-1.7-0.5l-0.2-2.4c-1.7,0.5-0.7-0.8-1-1.2c-0.6,0.4-1.5,0.2-1.9-0.4c-0.5-1.1-1.2-1.6-1.9-1.6l0.4-1.6c-1,0-0.7-1.5-1.8-3.4
			c-0.9-0.9-0.2-1.9-0.1-2.8c2.4-1.4,2.1-1,2.4-0.9l-0.1-0.8c0.7-0.6,1-1.6,0.8-2.5c-0.3,0.2-0.7,0.4-1.1,0.5
			c-0.3,0-0.1,0.1-0.3,0.2c-0.6,0.1-1.2,0-1.7,0.1c-0.1,0.2,0,0.3-0.2,0.5c-0.4,0.1-0.8,0.1-1.2,0.1c-0.2,0,0,0.2-0.1,0.3
			c-0.1,0.1-0.3,0-0.3,0.1c-0.2,0.4-0.2,0.3-0.5,0.7c-0.3,0.5-0.7,0.9-1.2,1.2c-0.2-0.3-0.2-0.3-0.5-0.3c-0.1,0-0.3,0-0.4,0
			c-0.3,0.1-0.1,0.8-0.6,0.6c-0.1,0.1-0.3-0.3-0.3-0.3c-0.2,0.5-0.4,0.4-0.6,0.5c-0.1,0.2-0.2,0.4-0.3,0.6c-0.3,0-0.6,0-0.9,0
			c-0.6,0-0.4-0.1-0.5-0.4l-1.3-0.1l-2.3,1c-2.2,0.6-1.1,2.8-1.7,4.2c-2,3.2-2.9,0.5-7.2,4.6l-3.5,2.4c-2.2-0.2-1.9,1.9-3.6,3.6
			c-0.6,1.2-1.6-0.5-2,2c-1.9-0.6-3.2,4.9-4.4,4.2c-0.4,0.7-0.7,0.6-0.9,1.2c-0.6,1.3-0.5,1.8-1.6,2.2c-1.1,0.4-1,1.5-1.4,2.4
			c-0.9,0.4-1.2,1.4-1.8,3.1c-0.1,0.5-1.1-0.1-1.4,0.2c-0.5,1.4-1.3,3.8-3.1,2.1c-0.8,0.3-1.6,0.5-2.5,0.6c-1-0.4-2.2-0.2-3,0.5
			c0.4,0.9,2.2,1.5,3.1,1.8c1.4,0.5,1-1.8,2.2-0.6c1,0.8,2.1,0.5,3,1.5s1.7,1.2,3,1.4c0.9,0.6,0.8,1.9,2,2c1,0,2.1-0.3,3-0.7
			c1.1-0.4,2.2-0.1,3.4-0.2c1.3-0.4,3.2,0.9,3.4,0.9l4.5-5.1l1,1.1l0.1-2.2l1.2-7.7l2.7,0.1l-0.1,3.2l7.3,0.2l0.1,0.9l2.7-0.8l0.1-8
			L326.5,336.9z"/>
		<path id="c197" name="Paine" class="comuna" d="M337.7,332.4c0.5,3.6,2.3,3.2,3.4,4.9l0.4,5.2c1.3,1.3,2.2,0.6,3.2-0.2c2.6-0.6,2.1,1.8,4.5,0.2
			c0.3,1.1,0.5,1.9,1,1.8c0.5,0.2,1,0,1.6,1.5c1,0,2.1,0,1.6,0.7c2.4,0.1,0.5,1.4-0.2,2.4c1.4-0.1,1.9,0.6,1.4,1.9
			c2.4,1.4,1.4,4.8,3.2,2.8c3.5,2.2,3.3-0.9,6.8,0.3c-0.2,1.5,0.4,1.2,0.9,1.2c0.1,1.6,0,3.5,1,3.4c-0.8,1.4-0.2,2.6,0.4,3.8
			c0.6,1.2,0.1-0.3-2-0.3s-5.9-0.3-5,2.8c-1.1,1.7-2.6,4.8-4.7,3.1c-1.5,2.2-2.8-2.4-5-0.9c-1.5,0.5-2.1,0-2.8,2
			c-1.6,1-3.3,2.7-4.8,0.8c-3.2,0.1-3.5,0.4-4.8,2.4c-0.4,0.5-1.2,0-1.7,0.3c-1.1,0.9,0.4,2.7-1.6,3c-2.2,0.1-2.4,1.6-2.3,3.1
			c-1.9,1.4-4.3,4.6-6.1,1.3c-1.4-1.7-3.6-2.7-3.7-4.9c-1.1-1.8-4.2-3.2-5.4,0.1c-1.2,0.9-0.8,1.3-2,1.5c-0.7,1.5-3.8-0.5-3.8,2.2
			c-3.1,3.5-3.9,4.6-5.9,2.7c-2.2-0.4-5.2-4.3-6.3-0.5c0.2,2.6-2.1,3.1-4,3.8c-0.3-0.9-0.7-1.3-1.1-0.8s-1,0.7-1.6,0.7
			c-0.8,0-0.8,0.2-1,0.7c-0.2,0.3-0.5,1-0.7,1.3c-0.3,0.6-0.5,0.5-0.3,1.3s-0.4,0.6-0.9,0.6c-0.3,0-0.6,0.5-0.9,0.6
			c-0.3,0.3-0.6,0.6-0.9,0.9c-0.2,0.4-0.6,0.7-1,0.7c-0.4,0.1-0.8,0.3-1.1,0.5c-0.4,0.3-0.3,0.5-1.1,0.5c-0.3,0-0.5,0.5-1.1,0.5
			c-0.5,0.1-1.1,0-1.5-0.3c-1-0.5-0.5-0.5-1-1.2c-0.3-0.4-0.6-0.7-1-0.9c-0.4-0.3-1.1,0.2-1.5,0c-0.6-0.3-1.2-0.4-1.9-0.4
			c-0.4,0.1-0.9,0.3-1.2,0.5c-0.5,0.2-1.2-0.6-1.9-0.6c-0.9,0-1.2-0.2-2-0.2s-1.5-0.2-2.1-0.7c-0.1-0.1-0.3-0.2-0.4-0.3
			c-0.7-0.5-0.3-0.8,0.1-1.1c0.6-0.6,1-0.5,1-1.2c0,0-0.8-0.9-0.9-1s0.6-0.5,0.7-0.8c0.2-0.6,0.5-1.1,0.6-1.8c0.1-0.7,0.6-0.8,0-1.2
			c-0.8-0.6-0.9-0.4-0.5-1.1c0.3-0.6,0.3-1.2,0-1.8c-0.1-0.3-0.3-0.8-0.5-1.1c-0.2-0.3-0.4-0.6-0.7-0.9c-0.2-0.2,0-0.3-0.4-0.7
			c-0.4-0.4-1.9-1.5-1.8-2.1c0.4-0.4-0.6-1.8,0.3-2.5c-0.2-1.1-0.7-1.3,0-2.4s-1.5-0.9-1-2.1c0.6-0.5,0.3-2.5-0.1-3.1
			c-0.8-1.1-0.8-1-0.4-2.2c-0.1-1,0.5-2.3-0.3-3.1c-0.8-0.3-2-1.2-1.6-2.2c0-0.8,0.2-1.6,0.5-2.3c-0.4-0.9-0.3-1.9,0.3-2.7
			c-0.6-0.5,0-1.5,0.3-2.2s-0.6-0.8,0.2-0.6c0.6,0.2,1.3-0.1,1.5-0.8c0.5-0.5,1.2-0.8,1.9-0.8c0.7,0.2,1.4,0.4,2,0.9
			c-0.5,0.5,0.9,0.9,1.1,0.2c0.3-0.9,1.4-0.2,2-0.2c0.9-0.2,0.8,1.3,1.6,1c0.7-0.2,1.3-0.4,2-0.6c0.4-0.6,0.7-1.2,0.9-1.9
			c-0.2-0.7-0.2-1.5,0-2.1c0.2-0.7,0.4-1.5,0.4-2.2c-0.2-0.7,0.6-0.8,0.9-0.2c0.6,0.5,0.5,1.3,0.8,1.9c0.6,0.5-0.2,0.7-0.4,0.9
			c0.1,0.5,1.4,0.4,0.8,1c-0.2,0.5-1.5,0.8-0.9,1.4c0.7,0.3,1.2,0.8,1.7,1.4c0.4,0.6-0.5,0.7-0.1,1.5s2.2,1.5,3.1,1.8
			c1.4,0.5,1-1.8,2.2-0.6c1,0.8,2.1,0.5,3,1.5s1.7,1.2,3,1.4c0.9,0.6,0.8,1.9,2,2c1,0,2.1-0.3,3-0.7c1.1-0.4,2.2-0.1,3.4-0.2
			c1.3-0.4,3.2,0.9,3.4,0.9l4.5-5.1l1,1.1l0.1-2.2l1.2-7.7l2.7,0.1l-0.1,3.2l7.3,0.2l0.1,0.9l2.7-0.8l0.1-8l3.7,0.1
			c1,0.1,1.1-1.8,2-2.2c0.2-0.1,0.7-1.1,0.9-1.1c0.8,0,0.8,0.6,1.4,0.9c0.4,0.2,1.5,0.2,1.8,0.6c0.5,0.9,0.6,0.1,1.2-0.1
			c0.9-0.2,0.5-0.5,0.6-1.3c1-0.1,0.6-1.1,1-1.2C336.2,332.4,336.9,332.4,337.7,332.4z"/>
	</g>
	<g id="Provincia_Talagante">
		<path id="c193" name="Padre Hurtado" class="comuna" d="M292.4,295.9l0.1,1.1l2.7,2.5l0.9-0.8l1.2-0.2l2.4-4.4l2.1,0.2l0.5-1.6l-3.1-3l-3.5-3.2
			c0.3,0,0.6-0.2,0.8-0.4c0.3-0.2,0.3-0.3,0.2-0.6c-0.1-0.3,0.3-0.5,0.5-0.8c0.3,0.1,0.7,0,0.9-0.2c0.1-0.6-0.1-1.1-0.6-1.5
			c-1.2-0.7-1.2,1.7-2.5,1.7c-0.6-0.2-1.2-0.4-1.9-0.5c-0.4,0.1-0.8,0.2-1.2,0.2c-0.9-0.2-1.8-0.1-2.6,0.3c-1.2,0-1.7-1.1-2.7-1.6
			c-0.6,0.5-1.5,1.3-2.2,0.9c-0.4-0.3-0.7-0.6-1.1-0.9c-0.3-0.1-0.7-0.1-1,0c-0.2,0-0.3,0.2-0.5,0.3c-0.4-0.1-0.4-0.3-0.4-0.6
			c0-0.3-0.1-0.5-0.5-0.8c-0.3-0.2-0.5-0.5-0.6-0.8c-0.2-0.2-0.4-0.3-0.6-0.3c-0.9-0.1-1.1-0.5-1.2-1.3c-0.5-0.6-1.2-0.9-2-0.9
			c-0.7,0.1-1.5,0.3-2.1,0.6c0.2,0.3,0.1,0.4-0.1,0.6s0,0.6,0.1,0.9c0,0.4-0.1,0.7-0.3,1c-0.1,0.6-0.3,1.2-0.6,1.7
			c0.2,0.6-0.2,0.6-0.2,1.9c-0.1,0.7-0.2,1.4-0.5,2c0,0.9-0.4,0.9-1,1.5c-0.3,0.9-0.7,0.6-1.4,1.1c-0.1,0.5-0.5,0.8-1,0.8
			c-0.3,0.3-0.1,1.2,0,1.7c0,0.3,0.5,0.1,0.8,0.4s-0.1,0.7,0,0.9c0.4,0.3,0.1,0.2,0.5,0.6s0.9-0.2,0.9,0.2s-0.1,1.1-0.3,1.1
			c-0.2,0,0.5,0.7,0.6,0.9c0.1,0.2,0,0.6,0.3,0.6c0.5,0.1,0.6,0.4,0.9,0.4c0.1-0.1,0.6-0.2,0.8-0.4c0.6-0.2,1.3-0.2,1.9,0
			c1.3,0,2.7-0.1,4,0c0.1,0,0.4,0.3,0.5,0.4c0.4-0.3,0.6-0.8,0.5-1.3c0.4-0.3,0.8-0.6,1.1-1c0.6-0.3,0.1,0.8,0.7,0.4
			c0.3-0.5,0.7-0.4,1-0.9c0.5,0.1,0.3,0.9,0.9,0.9c0.3-0.5,0.6-0.9,1-1.3l3.9-0.1v1l0.6,0.3L292.4,295.9z"/>
		<path id="c211" name="Peñaflor" class="comuna" d="M289.7,308.5l5-6.7l-0.4-1.2l0.9-1.2l-2.7-2.5l-0.1-1.1l-2.6-0.1l-0.6-0.3v-1l-3.9,0.1
			c-0.4,0.4-0.7,0.8-1,1.3c-0.6,0-0.4-0.8-0.9-0.9c-0.3,0.5-0.7,0.4-1,0.9c-0.6,0.5-0.1-0.6-0.7-0.4c-0.3,0.4-0.7,0.7-1.1,1
			c0.1,0.5-0.1,1-0.5,1.3c-0.1-0.1-0.3-0.4-0.5-0.4c-1.3-0.1-2.7,0-4,0c-0.6-0.2-1.3-0.2-1.9,0c-0.1,0.1-0.6,0.2-0.8,0.4l-0.9-0.2
			c-0.9,1.1-1.2,3.5-3.1,2.6l-0.9,1.6c-0.3,1.6,0.1,3.2-2.8,4.5c-0.4,2.8,1.9,2.6,1.8,4.9l4.8,0.5l0.4-1.9l2.5-0.1l-0.1,0.8l1.4,0.1
			l0.6-1.7h2.1l5.6-1.3l3.1,1.2L289.7,308.5z"/>
		<path id="c310" name="Talagante" class="comuna" d="M295.4,328.5c0.1-2,2.8,2.3,3.2-0.9c-0.2-1.6,0.9-2,2.4-3.9c1-0.8,0.2-1.1,0.1-1.5
			c-0.4-4.1-2.3-4.1-1.3-6.4l-1.9-0.9l-0.7-4.6l-1.7,0.1l-2.5,4.5l-6.8-2.8l3.7-3.6l-2.2,0.2l-3.1-1.2l-5.6,1.3h-2.1l-0.6,1.7
			l-1.4-0.1l0.1-0.8l-2.5,0.1l-0.4,1.9l-4.8-0.5c0.6,2.2,2.9,0.9,4.7,3.4c0.1,3.1-2.9,2.1-6.2,4.9c-1.7-0.1-3.7,5-5.7,4.3
			c-0.9,0.1-1.7,0.6-2.3,2.1c-1.1-0.3-2,0-2,1.7c2,0.5,4.8,3.5,6,1.5h3c1.1,0.9,3.8,0.7,3.6-0.2l8.3-0.6c0.8-3.5,2.9-2.2,2.9-4.7
			l10.3,4.2l0.9-1.8l2.4,2l0.4,0.6L295.4,328.5z"/>
		<path id="c85" name="El Monte" class="comuna" d="M265.3,306.1c-0.4,2.8,1.9,2.6,1.8,4.9c0.6,2.2,2.9,0.9,4.7,3.4c0.1,3.1-2.9,2.1-6.2,4.9
			c-1.7-0.1-3.7,5-5.7,4.3c-0.9,0.1-1.7,0.6-2.3,2.1c-1.3-0.2-2,0.3-2,1.7c-1.5,0.5-3.4,0.6-5,2.4h-5c-3.4-0.2-1.8-1.5-5.6-2.3
			c1.2-2-0.5-2.5-1.5-2.6l0.5-2.4l-2.4-1l-0.1-1.2l1.6,0.1l1.3-11.9c1.8,0.4,2.2-0.5,3.4-1.5c0.5-0.3,1.2-0.3,1.7-0.1
			c0.6,0.7,1.4,1.2,2.2,1.4c0.6,0.2,0.4,0.6,0.6,0.9c1.2,0,2.5,0.1,3.6,0.5c0.5,0.1,0.8,0.4,1.4,0.5c0-1.1-0.2-1.4,0.9-2.5
			c0.3-0.4,0.5-0.8,0.6-1.2c1.2-0.3,1.7,0.5,2.9-0.3c1.2-0.2,1.1-1.5,2-2.1C261.1,303.7,263.6,304.9,265.3,306.1z"/>
		<path id="c114" name="Isla de Maipo" class="comuna" d="M263.9,347.9c0.6,0.2,1.3-0.1,1.5-0.8c0.5-0.5,1.2-0.8,1.9-0.8c0.7,0.2,1.4,0.4,2,0.9
			c-0.5,0.5,0.9,0.9,1.1,0.2c0.3-0.9,1.4-0.2,2-0.2c0.9-0.2,0.8,1.3,1.6,1c0.7-0.2,1.3-0.4,2-0.6c0.4-0.6,0.7-1.2,0.9-1.9
			c-0.2-0.7-0.2-1.5,0-2.1c0.2-0.7,0.4-1.5,0.4-2.2c-0.2-0.7,0.6-0.8,0.9-0.2c0.6,0.5,0.5,1.3,0.8,1.9c0.6,0.5-0.2,0.7-0.4,0.9
			c0.1,0.5,1.4,0.4,0.8,1c-0.2,0.5-1.5,0.8-0.9,1.4c0.7,0.3,1.2,0.8,1.7,1.4c0.4,0.6-0.5,0.7-0.1,1.5c0.8-0.7,2-0.9,3-0.5
			c0.8-0.2,1.7-0.4,2.5-0.6c1.8,1.7,2.5-0.8,3.1-2.1c0.4-0.3,1.3,0.2,1.4-0.2c0.5-1.7,0.9-2.7,1.8-3.1c0.5-0.8,0.2-1.8,1.4-2.4
			c1.2-0.6,1-1,1.6-2.2c0.1-0.5,0.5-0.5,0.9-1.2c-2-1.8-0.7-3.2-0.4-3.2c1-1,0.5-1.7,0.4-2.5c0.6-0.8-0.1-1.7-0.3-2.5l-2-0.3
			l-0.4-0.6l-2.4-2l-0.9,1.8l-10.3-4.2c0,2.5-2.1,1.2-2.9,4.7l-8.3,0.6c0.1,0.9-2.5,1-3.6,0.2h-3c-1.2,2-4-0.9-6-1.5
			c-1.5,0.5-3.4,0.6-5,2.4h-5c-3.4-0.2-1.8-1.5-5.6-2.3c-0.2,1.4-1.8,2.2-2.9,2.9c-1.4,0.7-1.9,2.3-1.2,3.7c0.2,0.4,0.6,0.8,1,1.1
			c2,0.5,3.6-0.4,5.6,1.9c1.4,0.5,0.5,3.4,4.8,1.1c0.1-0.9,0.6-1.4,2.9-0.1c2.2,0,3.3,0.3,2.7,1.1c2.1-0.4,2.7,1.6,3.8,2.7
			c0.2,1.2,1.9,0,2.8,0c0.3,1.9,1.2,1.6,2.3,1C264.8,343,263.2,346.1,263.9,347.9z"/>
	</g>
	<g id="Provincia_Chacabuco">
		<path id="c59" name="Colina" class="comuna" d="M298.3,198.1c2.4-1.2,4.6,1.1,6.9,1.5c1.4,0.2,2.4-1.6,3.3-2.1c2.2-0.1,1.3-1.5,0.6-2.6
			c-0.5-4-2.5-3.1-3.8-6.6c-0.9-2,2.4-3.6,0.4-5.7c-2-2.4,1.5-3.9,1.6-6.4c1-2.2-2.1-5.5-4.2-6.5c-1.6-0.5,3.4-2.5,1-4.6
			c2-2.9,1.2-2.9,1.2-3.9c1.4-1.7,1.1-1.9-0.5-2.8c-0.5-2-0.4-4.4-2-5.9c1.5-0.9,2.8-2.2,3.8-3.6c1.7-0.7,4.8-1,5.2-3.6
			c0.2-1.1,2.1-0.5,1.8-1.9l-0.2-1.8c0.8,3.6,3.3,0.5,5.2,0.3c4,1.9,2.2-0.5,7.8-0.8c1.7-1.8,4.2-2.6,6.7-2.2c1,1.7,1.6,0.2,2.4-0.6
			c2.1,0.5,2.9,2.1,3.7,3.3c0.4,1.2-0.7,3.6,0.4,3.9c1.1,0.3,2.8,0,3.6,2.5c2,2.2,3.6,4.8,5.7,6.9c-0.5,2.4-3,5.8,0.6,7.1
			c2.7,1,4.4,3.8,4.1,6.6c1.3,1,2.3,3.3,3,4.5c0.6,1,2.4-0.3,3.7-0.5c3.4-0.9,1-3.8,2-3.8c4,0.1,2-1.2,2.3-2.8
			c1.3-2.2,2-4.8,4.2-6.4c0-2.1,2.2-4,4.4-2.7c2.7,0.6,6.2,1.4,5.2,5c1.8,2.5-2.7,4.2-0.5,6.6c2.5,1.4,1.7,5,4.7,6l2,3.1
			c-0.4,2.1-0.3,4.8-2.8,4.2c-0.3,0.6,0.3,2-1.1,1.5c-0.3,1.1-0.9,0.7-1.3,0.9c-0.8,0.9-2.1,0.9-3.5,0.7c-0.5,1.1-4.3,1.9-4.7,5.5
			c-0.7,0.3-1.1,0-1.9,2.1c-0.1,0.6,0.4,2.1-0.2,1.8c-1.1,0.6-1.6,1-1.4,1.3c-0.3,1.1-0.7,2.1-1.4,2.1c0.6,6.1-1.6,2.9-1.3,5.3
			c0.5,1,0.9,2.2-1.1,5.4c-2.4-0.9-5.3,0.8-8.1,0.4c-0.3,1.3-0.1,3.3-1.5,3.2c-0.9,1.8-1.6,0.4-2.9,1.6c-0.8-0.4-1.7-0.3-2.4,0.3
			h-1.9c-0.6,0.8-1,1.7-1,2.7c-1.2,0.4-0.2,1.1-2.1,3.5c0.6,1.8,0.5,4.5-0.9,5.2c-1,0.5-1.9,1.2-2.7,1.9c0.7,3.7-3.9,0.8-1.8,4v2
			c0.9,2.3,2.1,2.1,1.3,3.4c-1.2,0.5-1.8,0.2-2,0c-0.4,0.7-0.9,0.4-1.7,0.5c-0.5,0.1-0.6,0.6-0.9,0.6c-1.2,0.3-1.4-0.2-1.8-0.3h-1.1
			c-0.2,0-0.3-0.6-0.5-0.5s-0.6,0.6-0.9,0.9s-0.2,0.6-0.5,0.1c-0.2-0.2-0.5-0.3-0.9-0.2c-0.7,0.4-0.3,0.2-0.9-0.1
			c0.1-0.3,0.3-0.7,0.1-0.9c-0.2-0.2-0.3-0.8-0.6-1.1c-0.6-0.3-0.8-1.1-1.5-1c-0.1,0.1-0.6,0.6-0.9,0.3c-0.2-0.2-0.4-0.4-0.6-0.5
			c-0.5,0.1-1,0.4-1.2,0.9c-0.2-0.3-0.4-0.4-0.7-0.4c-0.4,0.1-0.7,0-1.1-0.1v-0.9h-0.8l-0.3-0.6c0-0.3,0.1-0.2,0.3-0.2l0.1,0.5
			c-0.1-0.5,0.5-1.2-1.1-1c-0.4-0.3-0.3-0.9-1.3-0.9l-0.5,0.3l-0.6-0.1l-0.9-0.7h-1.4l-0.3,1.7l-1.1,0.3l-13.2-33.1
			C299.2,200.3,299,199,298.3,198.1z"/>
		<path id="c346" name="Lampa" class="comuna" d="M268,249.7c0.4-0.2,0.3-0.6,0.6-0.8c3.2-1.2,2.7-2.3,3.5-1.5c0.9,0.6,1.8-1.9,4.2-2.1l2.1,1.3
			c3.5,1.2,5.1-1.4,8.1,0.2c2.8,1.9,1.4,0.2,3.4,2.2c3.5-2.7,3.2-6.2,5.2-6.2c1-0.1,1.9-2.1,2.9-3.8c-0.3-1-0.8-2.1-0.4-2.6l1.4,0.1
			l0.5,0.6l14.4-4L300.7,200c-1.6,0.1-1.8-1.2-2.4-2.1c-0.9-1-5.7,0.5-5.5,2.7c-2.1,0.8-3.6-1.4-5.8-0.2c-2,0.9,1.7,2.7-0.6,4.2
			c-2.5,1.8-0.5,5.9-3.9,6.9c-4.1,0.8-1.5-3.7-3.6-3.6c-1.4,0.1-0.1,0.6-0.2-2c0.5-1.6,0.9-3,0.1-4.7c-1.1-2.8-4.7,0-6.7,0.2
			c-1.9,1.1-2.2-2.4-5.4-2.7c-1.9,0.2-3.6,2-5.2,0c-3.7-1.3-0.3,3.9-3.8,1.4c0.1,1.2,0,1.7-1.7,2.7c-0.1,0.4,0.7,1.4,1.2,1.9
			c0.8,2.5-2.7,5.5,0.1,7.2c0.6,0,0.1-0.8,0.6,1.4c0.4,1.8,2.9,4.5,2.8,6.7c0.3,1.1-0.1,2.2,0.2,2.4c2.2,0.8,0.7,3.2,1.3,4.3
			c1.6-0.1,1.8,2.2-0.8,1.8c-1.8,0.3-1.8,2.3-3.5,2c-0.4,1.6-0.5,3.4-1.7,4.4c-0.8,0.6,1.2,2,1.5,3c-0.6,3.2,3.4,2.5,3.3,5.5
			c-0.3,2.1,3.8,1.4,3,4.6C264.8,248.6,263,248.5,268,249.7z"/>
		<path id="c318" name="Til Til" class="comuna" d="M313.4,141.7l-1.3-0.5c-0.1-0.3,0.2-3.4,0-4.2c-0.9-1.9-3-3-5.1-2.6c-4.9,1.4-4.3,4.3-5.4,1.5
			c-2.2-0.4-4.2-1.9-6.9-0.8c-1,0.3-1.3,0.8-2.6,0.8c-1.7,0-3.3-0.8-4.8-0.6c-0.6,0.4-1.3,0.7-2,0.9c-6.3-0.3-3.3,1-4.8,1
			c-0.5,1.1-1.9,0.8-3.2,0.8c-1.7-0.5-2.5-1.2-3.9,1.8c-0.4,1.6-1.5,2.1-2,3.6c-0.7,1.5-0.6,3.8-2.9,3.2c-1.4-0.3-2.6-1.7-3.9-0.8
			c-1.3,0.8-2.6,1.9-4.2,2c-1.6,0-3.2,0-4.8-0.2c-1.5,0-3.3-0.3-4.5,0.3c-0.2,1.3-0.6,2.5-1.4,3.6c0.9,0.8,1,2.2,0.2,3.1
			c0,0,0,0-0.1,0.1c1.6,0.9,1.7,3.2,3.3,6.3c0.1,3.7,2.4,3,1.7,4.7c-0.5,1.9-1.3,2.2-2,5.4c-2.4,1.4-2.4,1.7-2.4,3.6
			c1.1,0.9,2.7,1.2,2.4,2.9c-1.6,4.8-0.2,4.3,0.2,8.9c1.6,1.7,0.1,2.6,0.8,4.2c0.9,0.7,1.6,1.6,2,2.6c0.8,1.4,1.4,2.6,2.2,4
			c1.7,1.5-1,0.9-0.6,2.9c3.5,2.6,0.1-2.6,3.8-1.4c1.7,2,3.4,0.2,5.2,0c3.2,0.3,3.5,3.8,5.4,2.7c2-0.2,5.5-3.1,6.7-0.2
			c0.8,1.7,0.4,3.1-0.1,4.7c0.2,2.6-1.2,2.1,0.2,2c2.1-0.1-0.5,4.4,3.6,3.6c3.4-1.1,1.4-5.1,3.9-6.9c2.3-1.5-1.4-3.3,0.6-4.2
			c2.2-1.2,3.7,0.9,5.8,0.2c-0.2-2.1,4.7-3.7,5.5-2.7c2.4-1.2,4.6,1.1,6.9,1.5c1.4,0.2,2.4-1.6,3.3-2.1c2.2-0.1,1.3-1.5,0.6-2.6
			c-0.5-4-2.5-3.1-3.8-6.6c-0.9-2,2.4-3.6,0.4-5.7c-2-2.4,1.5-3.9,1.6-6.4c1-2.2-2.1-5.5-4.2-6.5c-1.6-0.5,3.4-2.5,1-4.6
			c2-2.9,1.2-2.9,1.2-3.9c1.4-1.7,1.1-1.9-0.5-2.8c-0.5-2-0.4-4.4-2-5.9c1.5-0.9,2.8-2.2,3.8-3.6c1.7-0.7,4.8-1,5.2-3.6
			c0.2-1.1,2.1-0.5,1.8-1.9L313.4,141.7z"/>
	</g>
	<g id="Provincia_Melipilla">
		<path id="c2" name="Alhue" class="comuna" d="M267.4,375.4c-0.4-0.4,0.5,1.6-0.1,1.4s-1.4-0.3-1.8-0.8c-2.6-1.5-3.6-5.5-6.8-5.4
			c-1.2-1.6-2.7-1.2-3.8,0.3c-0.7,2.8-5.5-0.3-8.2-0.5c-4.6-0.6-4.4,0.9-4.6,3.6c0.5,2.1-0.3,3.6-1.2,5.4c-1.9,0.8-1.5,3.5-3.7,3.7
			c-4.5,0.1-5.1,1.4-7.4,0.9c-3.1-1.7-1.1,5.4-6.2,3.3c-0.7-2-1.4,0.2-3-0.2c-0.6-0.2-1.3-0.2-1.9,0.1c-0.9,0.7-1.5,1.7-1.8,2.8
			c2.6,1.2,2.6,5.7-0.5,5.9c-0.5,0.8-1.4,2-2.1,2.9c-1,1.4-2.2,2.3-3.8,1.1c-1,1-2.2,0.6-3.1,1.1c0.4-0.8-2-1.8-7.6,3.5
			c3,6.1,6.2,1.1,7.1,7.9c-0.5,6.3,2,6.1,4.6,6.7c4.4,2.7,1.3,8.9,7.7,10.3c2.1,5.9,12.2,6.7,17.4,6.7c4.8-1.5,8.8,8.6,12,3.2
			c2.1-0.7,3.9-2,5.3-3.7c1.2,0.3,2.2,2.2,6.6,1.7c1.9,0.3,3.7,0.6,5.6,1.1c1,0.2,5-4.8,6.2-4.2c2.6-2.8,6.9-2.9,5.2-3.8
			c-1.2-1.1-2.2-2.4-3-3.8c-3.6-4.6-1.6-13.6,5.6-12c5.8,0.6-0.8-9,4.6-9.2c3.6-2.4,7.4-3.5,11.4-1.4c4.8-1.6,2.3-6,2.9-6.4
			c1.8-1,2.8-2.6,1-4.4c-0.6-2.5,1.4-4.2-2.8-4.9c-0.5-0.4-1.5-1.5-2.1-1.9s-0.3-0.9-0.6-1.9c-0.3-1-0.7-1.3-1.1-0.8s-1,0.7-1.6,0.7
			c-0.8,0-0.8,0.2-1,0.7c-0.2,0.3-0.5,1-0.7,1.3c-0.3,0.6-0.5,0.5-0.3,1.3s-0.4,0.6-0.9,0.6c-0.3,0-0.6,0.5-0.9,0.6
			c-0.3,0.3-0.6,0.6-0.9,0.9c-0.2,0.4-0.6,0.7-1,0.7c-0.4,0.1-0.8,0.3-1.1,0.5c-0.4,0.3-0.3,0.5-1.1,0.5c-0.3,0-0.5,0.5-1.1,0.5
			c-0.5,0.1-1.1,0-1.5-0.3c-1-0.5-0.5-0.5-1-1.2c-0.3-0.4-0.6-0.7-1-0.9c-0.4-0.3-1.1,0.2-1.5,0c-0.6-0.3-1.2-0.4-1.9-0.4
			c-0.4,0.1-0.9,0.3-1.2,0.5c-0.5,0.2-1.2-0.6-1.9-0.6c-0.9,0-1.2-0.2-2-0.2s-1.5-0.2-2.1-0.7c-0.1-0.1-0.3-0.2-0.4-0.3
			c-0.7-0.5-0.3-0.8,0.1-1.1c0.6-0.6,1-0.5,1-1.2c0,0-0.8-0.9-0.9-1s0.6-0.5,0.7-0.8c0.2-0.6,0.5-1.1,0.6-1.8c0.1-0.7,0.6-0.8,0-1.2
			c-0.8-0.6-0.9-0.4-0.5-1.1c0.3-0.6,0.3-1.2,0-1.8c-0.1-0.3-0.3-0.8-0.5-1.1c-0.2-0.3-0.4-0.6-0.7-0.9
			C267.6,375.9,267.8,375.9,267.4,375.4z"/>
		<path id="c296" name="San Pedro" class="comuna" d="M218.8,387.1c-0.9,0.7-1.6,1.7-1.9,2.8c2.6,1.2,2.6,5.7-0.5,5.9c-0.5,0.8-1.4,2-2.1,2.9
			c-1,1.4-2.2,2.3-3.8,1.1c-1,1-2.2,0.6-3.1,1.1c0.4-0.8-2-1.8-7.6,3.5c-0.1,2.7-1.4,3.4-3.3,3.7c-1.9,0.3-2.6,2.4-5,1.5
			c-1.1,1.1,1.5,4-1.6,3.3c-2.4-0.6-5.4-2-7.1,0.8c0,2.5-3.7-1.3-4.6-2.2c-1.5-1.5-2.2-4.9-1-5.9c-3.2,0.2-5.6-2.2-7.3-4.5
			c-0.9,1.9-5.1-0.3-6.7-1.2c-3.5-1-7.2-0.6-10.5,0.9c-2.4-1.1-3.6-5.1-6.6-6.2c-0.3,2.5-0.8,5-2.7,6.7c1.8,1.1,3,3.8-0.1,4
			c-2,3-3.3-3.8-5.4-4.5c-1.7-2.8-5.2-0.5-6.4-2.4s-4.8-1.2-6-1.1c-0.7-1.4-0.5-3.1,0.4-4.3c-1.6-2-5.5,0-7.6-2.1
			c-2.7-0.3,1.5-3-1.4-4c-2-2.4,2.1-4.3,4-4.8c1.6-1.6,3.8-2.9,5.5-4.3l14.3-10.8c1.2,1.1,1.4,2.6,2.1,2l2.9-0.2l0.4-24.1
			c2.1-4.1,4.6-2.6,7.3,0.6l1.6-1.2h4.1l3.9,3h4.7c0,0,3.7-0.3,5.9,1.6c2.7,0.4,0.4,3.1,0,3.9c0.9,2.2,2.6,3.9,3.9,5.7
			c0.3,1.4,0.8,2.7,1.7,3.8c-0.9,2.6,2.9,3.6,2.5,6.1c1,1.9,3.5,3.1,5.6,3.7c0.9-2.5,1.9-2.7,2.3-2.5c0.9,0.3-0.1-1.9-0.8-2.5
			c0-1.7,2.9-0.7,3.9-1.7c1.8,0.3,3.7,0.1,5.5-0.4c2.2,0.2,1.9,2.4,1.2,3.8c0.5,1.7,2.3,1.9,2.4,3.7c1.3,1.2-1.8,2.2,0.1,3.3
			c2.5-0.1,4.9,1.1,6.4,3.2c1.5,1.6,2.7,3,5.2,3.2c1.3-0.2-0.3,2.3,1.2,2.7C216.1,385.3,217.4,387.1,218.8,387.1z"/>
		<path id="c172" name="Melipilla" class="comuna" d="M269.2,290.7c0.3-0.3-1,0.8-1.1-1.1s-2.4-1.6-3.6-2.2c-3.9,2.1-3-0.9-4.8-1.3
			c-2.9-1.3-4.9,1.2-7.2,2.5c-2.1,1.2-4.6,1.2-7.1,1.2c-2.6-0.5-5.3-1-8-1.4c-0.9,2-2.3-0.3-3.8,0.2c-2.1,1-6.5-1-6.8,2
			c-0.9-0.5-3.8-0.5-5.3-1.1c-2.5,0.1-5.8-4.2-7-0.3c-0.5,2.4-2.7,2.9-4.2,4.7c0,2.5-2.8,1.1-3.5,2.2c2,1.4-0.2,1.9-1.7,2
			c-2.2-2.5-3.2,1.6-5.6,1.4c-2.6-0.8-8.5,0.2-7.7-1.4l-1.2,1.6c-0.5,2.7-1,5.1-2.6,4.7l-2.6,2.4c-3-0.1-7-1.2-5,3.8
			c-4,1.4-2.4,4.4-3.2,6.7l-3-2.6l-3,2.4l0.2,1c-4.3,5.7-0.4,5.2,1.8,5.9c-0.2,1.7-2.3,2.4,1.4,5.9l3.6,2.4c1.1,4.9,2.9,2.4,6.5,5.9
			l-0.2,3.5c0,1.8-0.8,3.5-2.2,4.7c-2.9,0.5-6.5-0.7-8.5,2.2c2.7,0.4,0.4,3.1,0,3.9c0.9,2.2,2.6,3.9,3.9,5.7
			c0.3,1.4,0.8,2.7,1.7,3.8c-0.9,2.6,2.9,3.6,2.5,6.1c1,1.9,3.5,3.1,5.6,3.7c0.9-2.5,1.9-2.7,2.3-2.5c0.9,0.3-0.1-1.9-0.8-2.5
			c0-1.7,2.9-0.7,3.9-1.7c1.8,0.3,3.7,0.1,5.5-0.4c2.2,0.2,1.9,2.4,1.2,3.8c0.5,1.7,2.3,1.9,2.4,3.7c1.3,1.2-1.8,2.2,0.1,3.3
			c2.5-0.1,4.9,1.1,6.4,3.2c1.5,1.6,2.7,3,5.2,3.2c1.3-0.2-0.3,2.3,1.2,2.7c1.1,0.7,2.5,2.5,3.8,2.6c0.6-0.3,1.3-0.4,1.9-0.1
			c1.6,0.3,2.2-1.9,3,0.2c5,2.1,3-5,6.2-3.3c2.3,0.5,2.9-0.8,7.4-0.9c2.2-0.1,1.9-2.9,3.7-3.7c0.9-1.8,1.8-3.3,1.2-5.4
			c0.2-2.7,0-4.2,4.6-3.6c2.7,0.2,7.5,3.3,8.2,0.5c1.1-1.5,2.6-1.9,3.8-0.3c3.2,0,4.2,3.9,6.8,5.4c0.5,0.5,1.2,0.5,1.8,0.8
			s-0.3-1.8,0.1-1.4c-0.4-0.4-1.9-1.5-1.8-2.1c0.4-0.4-0.6-1.8,0.3-2.5c-0.2-1.1-0.7-1.3,0-2.4s-1.5-0.9-1-2.1
			c0.6-0.5,0.3-2.5-0.1-3.1c-0.8-1.1-0.8-1-0.4-2.2c-0.1-1,0.5-2.3-0.3-3.1c-0.8-0.3-2-1.2-1.6-2.2c0-0.8,0.2-1.6,0.5-2.3
			c-0.4-0.9-0.3-1.9,0.3-2.7c-0.6-0.5,0-1.5,0.3-2.2s-0.6-0.8,0.2-0.6c-0.7-1.7,0.8-4.8-2.1-4.9c-1.1,0.6-2,0.8-2.3-1
			c-0.9,0-2.6,1.2-2.8,0c-1.1-1.1-1.7-3.1-3.8-2.7c0.5-0.8-0.5-1.2-2.7-1.1c-2.3-1.3-2.8-0.8-2.9,0.1c-4.3,2.3-3.4-0.7-4.8-1.1
			c-2.1-2.2-3.6-1.3-5.6-1.9c-1.3-0.8-1.7-2.5-0.9-3.8c0.3-0.4,0.6-0.7,1.1-1c1.2-0.7,2.7-1.6,2.9-2.9c1.2-2-0.5-2.5-1.5-2.6
			l0.5-2.4l-2.4-1l-0.1-1.2l1.6,0.1l1.3-11.9c1.8,0.4,2.2-0.5,3.4-1.5c0.5-0.3,1.2-0.3,1.7-0.1c0.6,0.7,1.4,1.2,2.2,1.4
			c0.6,0.2,0.4,0.6,0.6,0.9c1.2,0,2.5,0.1,3.6,0.5c0.5,0.1,0.8,0.4,1.4,0.5c0-1.1-0.2-1.4,0.9-2.5c0.3-0.4,0.5-0.8,0.6-1.2
			c1.2-0.3,1.7,0.5,2.9-0.3c1.2-0.2,1.1-1.5,2-2.1c2.2-0.4,4.7,0.7,6.4,2c2.9-1.3,2.4-3,2.8-4.5l0.9-1.6c1.8,0.9,2.1-1.5,3.1-2.6
			s0.2-0.2-0.1-0.2c-0.3,0-0.2-0.4-0.3-0.6s-0.8-0.9-0.6-0.9c0.2,0,0.3-0.9,0.3-1.1s-0.5,0.1-0.9-0.2c-0.4-0.3,0-0.3-0.5-0.6
			c-0.2-0.2,0.2-0.7,0-0.9c-0.2-0.2-0.8,0-0.8-0.4C269.2,291.9,268.9,291,269.2,290.7z"/>
		<path id="c166" name="María Pinto" class="comuna" d="M200,254.7c1.1-1.3-0.7,2.3,2.6,1c1.9,1.9,5.4,1.4,6.7,3.9c0.4,1.8,2.8,2,4.3,2.4
			c2,0.4,5.1,1.6,6.6,3.2s2.4,0.3,3.8-0.7c2.6,0.1,5.3,0.4,7.9,0.6c1.9,0.1,3.3-2.3,5.3-1.6c1.3,1.7,3.4,0,4.8-0.9
			c1.1-1.1,4.8-3,3.8,0.1c-0.8,1.8-0.2,4.5-2.4,5c-0.5,2,1.8,3.4,2.4,5.1c-0.3,1.8,0.7,3.6,2.4,4.3c2,0.9,2.1,3.1,3.5,4.5
			c0.9,1,2.1,1.7,3.1,2.7c1,1,3.2,1.1,1.8,1.6c-1.4,0.8-2.7,1.6-4,2.5c-2.1,1.2-4.6,1.2-7.1,1.2c-2.6-0.5-5.3-1-8-1.4
			c-0.9,2-2.3-0.3-3.8,0.2c-2.1,1-6.5-1-6.8,2c-0.9-0.5-3.8-0.5-5.3-1.1c-2.5,0.1-5.8-4.2-7-0.3c-0.5,2.4-2.7,2.9-4.2,4.7
			c0,2.5-2.8,1.1-3.5,2.2c2,1.4-0.2,1.9-1.7,2c-2.2-2.5-3.2,1.6-5.6,1.4c-2.6-0.8-8.5,0.2-7.7-1.4c-0.9-1.3-1-3.1-0.4-4.6
			c-0.4-4.6-1.1-6.9-2-8.3c-4.7,0-1.5-3.5-2-5.3c-2.2-2.9-1.7-5.8,1.4-8.7c-1.3-1.3,0.2-4.8,0.2-8.1c0-2.4-3.1-5.5,0.2-6.9
			c0.4-1.6,1.2-2.5,3.2-1C196,256,198.9,256,200,254.7z"/>
		<path id="c74" name="Curacaví" class="comuna" d="M211.3,217.1c0.2,1.3,0,4.9,0.6,5.1c0.3,1.3,0.9,2.6,1.8,3.7c-0.4,2.4,0.8,4.8,3,5.9
			c0.5,0.1-0.6,0.4-0.9,3.3c-1.3,0.3-2.1,1-1,3.6l-1,2.5c-2.7,2,0.6,3.4-2.1,6c-1.1-1.3-3.8,1.5-4.5,2.4c-1.1-0.1-1.9-1.3-3.3,0.1
			l-3.6,5l-0.2,0.1c1.1-1.3-0.7,2.3,2.6,1c1.9,1.9,5.4,1.4,6.7,3.9c0.4,1.8,2.8,2,4.3,2.4c2,0.4,5.1,1.6,6.6,3.2s2.4,0.3,3.8-0.7
			c2.6,0.1,5.3,0.4,7.9,0.6c1.9,0.1,3.3-2.3,5.3-1.6c1.3,1.7,3.4,0,4.8-0.9c1.1-1.1,4.8-3,3.8,0.1c-0.8,1.8-0.2,4.5-2.4,5
			c-0.5,2,1.8,3.4,2.4,5.1c-0.3,1.8,0.7,3.6,2.4,4.3c2,0.9,2.1,3.1,3.5,4.5c0.9,1,2.1,1.7,3.1,2.7c1,1,3.2,1.1,1.8,1.6
			c1.1-0.4,2.2-0.4,3.3,0c1.8,0.4,0.9,3.4,4.8,1.3c1.3,0.6,3.5,0.3,3.6,2.2c0.1,1.9,1.4,0.8,1.1,1.1c0.5,0,0.9-0.3,1-0.8
			c0.7-0.5,1.1-0.2,1.4-1.1c0.7-0.6,1-0.6,1-1.5c0.2-0.6,0.4-1.3,0.5-2c0-1.3,0.4-1.2,0.2-1.9c0.2-0.6,0.4-1.1,0.6-1.7
			c0.2-0.3,0.4-0.6,0.3-1c-0.1-0.3-0.3-0.8-0.1-0.9c0.2-0.1,0.4-0.4,0.1-0.6c-0.2-0.3-0.5-0.6-0.8-0.8s-0.6-0.3-0.9-0.3
			c-0.3-0.4,0-0.9,0.1-1.3c0.1-0.3,0.3-0.7,0.6-0.9c0.2-0.3,0.3-0.6,0.3-1s0.7-0.8,0.7-0.9s0.3-0.3,0-0.5c-0.7-0.7-1.3-1.5-1.7-2.4
			c-3.9-0.3-3.8-1.6-4.4-2.8l-0.1-2.2c-0.4-0.8-1.7-1-0.9-1.9c0.4-0.5,0.4-1.2,0.1-1.7c-0.5-0.9,0.9-0.6,1.1-3.2
			c0.5-2.7-1.2-3.6-0.4-5.2c-2-1.8,0.5-1.1,0.1-4.3c-5.1-1.2-3.3-1.1-4.2-1.6c0.8-3.3-3.4-2.6-3-4.6c0.1-3-3.9-2.3-3.3-5.5
			c-0.3-1-2.2-2.4-1.5-3c1.2-1,1.3-2.8,1.7-4.4c1.8,0.3,1.8-1.8,3.5-2c2.6,0.5,2.4-1.8,0.8-1.8c-0.6-1.1,0.9-3.6-1.3-4.3
			c-0.4-0.1,0.1-1.2-0.2-2.4c0.1-2.2-2.4-5-2.8-6.7c-0.5-2.2,0-1.4-0.6-1.4c-2.8-1.7,0.6-4.7-0.1-7.2c-0.5-0.5-1.3-1.5-1.2-1.9
			c-3.1-0.6-2.9,1.5-4.7,0.9c0.9,4.4-0.7,3.1-2.6,0.9c-1,0.9-2.1,0.1-3.1-0.4c-0.8,0.9-0.4,2.8-0.5,4.3c-2.5,2.9-4.3,2-5.8-0.3
			c-2.4,0-6.1-1.4-5.9,1.2c-1,1.9-2.9,2.5-6,1.3l-2.5-1c-2.8,2-3.3,0.9-4,0.3l-2.6-0.3c-1.2,1.2-2.8,1.7-4.5,1.3
			c0.1,1.4-0.9,2.1-2.6,2.5C209.7,214.6,210.6,215.9,211.3,217.1z"/>
	</g>
</g>
<g>
	<g>
		<g>
			<g>
				<defs>
					<circle id="SVGID_1_" cx="296.8" cy="298.1" r="277.6"/>
				</defs>
				<clipPath id="SVGID_2_">
					<use xlink:href="#SVGID_1_"  style="overflow:visible;"/>
				</clipPath>
				<g class="st1">
					<g id="Region_Valparaiso" class="st3">
						<g id="Provincia_San_Antonio">
							<path id="5" name="Valparaiso" class="region" d="M304.2-90.1c-1.8,0.1-3.6,0.8-5,1.9c-1.9,1.3-4.1,2-6.4,2.1c-2,0-7.5,1.8-12.2,4
								c-2.4,3.8-7.5,2.8-14.1,5.3c-0.8,6.7-3.8,1.4-7.1-3.6c-0.8-1.2-2.4-1.7-4.2-1.9c-2.8,0.2-15.7-3.8-13.4,1
								c-2.9,3.7,3.6,4.9,2.5,7.3c-4.6,2.7-5.7,5.3-7.9,8c-2.4,0.2-5.2,2.8-8.5,7.4c-5.6,5-10.8,10.2-13.8,10.2
								c-1.5,0-3.6-1.7-4.9-4c-2.9-5-4.2-5.5-6.4-0.7c-3.4,7.4-8.7,6.1-7.9,9.4c0.5,2.2-9.7,5.9-15.6,6.2c-4,0.2-10.4-2-19.3-5.8
								l-6.2-2.7l-3,2.8c-8.1,8.1-8.6,4.2-10.6,1.3l1.2,9.5c0,2.9,0.3,4.1,3.3,3.4c5.6-1.2,7.8,3.8,7.7,9.4c0,3.9-0.7,10.7,0,14.1
								c0.3,1.2,1.6,2.8,2.2,1.8c2.4-3.7,4.2,4,6.2,4.6s5,4.9,5.9,8.2c0.5,1.8,0.4,2.3-3.1,1.6c-1.5,1.1,0.1,8.6-2.7,10.1
								c0.1,4.4,2.8,17.6-4.5,12.8c-2.6-2.8-2.4,0.1-3,1.2c-0.6,0.2,0.4,1.3-0.1,4c2.5,3,3.2,7,1.9,10.7l3.3,5.3
								c4.1,1.5,2.7,6.3,3.6,9.8c0.4,1.3,2.5,3.2-1,3.4l-1.2,7.4c-1.4,6.5-3.5,11-11.9,8.2c0.1,0-1.4,1,0.6,4c0.3,1.7,0.1,4.5,1,5.2
								c3.3-1.4,2.8,3,2.2,4.9c-1.2,4-3.5,7-5.2,2.5l-5.1-2.4c-0.4,3.9-1,13.7,1.6,15.9c0.6,0.1-0.1,1,1.9,0.3
								c2.3,5.5,5.2,15.1,3.4,20.7c-0.3,0.9-1.5-0.1-1.9,0.7c-1.2,2.2-2.4,4.3-4,1.3l-3.4,2.2c0.3,1.3,1.4,2.6,1.6,3.7
								c1.2,5.5,1.1,9.6-0.3,12.3c-1.3,1.8-2,5.3-3.9,6.5s-1.1-1.4-4.6,1.3c-4.7,5.2-6.8,2.7-7.3,0c-0.5-2.1-1.4-3-2.2-3
								s-1.4,1.1-1.5,2.7c-0.5,0.9-2.5,2.9-2.8,5.1c1.2,5.6,0.3,12.8-2.8,11.4c0,2.4-5.2,1.1-8.8-1.2c-1.5-0.9-3.2-1.4-3.1,0
								c0,2.8,0.4,5.5,1.2,8.2c0.6,1.1,2,1.8,4.3,3c-1.2,0.1,0.3,2.8,1.8,4l2.4,3.9c1.8,1.7,0.7,3.8-2.2,4.2l-1.5,3
								c2.2,0.6,2.3,1.9,2.5,3.3c1.4,0.5,3.3,0.3,3,3.3l-1.5,2.8c-1.5,2.6-1.6,2.6,0.2,4c3.7,1.7,3.2,4,4.8,5.8c0,0.1,0,0.2,0.2,0.3
								c0.9,0.8,2,1.4,2.4,1.8c2.5,4,0.8,9.1,1.8,13.5c-0.9,5.4-9.6,5.5-9.1,6.7c0.7,2.9-0.6,7.6-3.4,12.2c0.9,1.3,2,2.4,3.3,3.4
								c1.4,1.3,2.6,2,3.1,2.5c0,0.1,0.2,0.1,0.4,0.3c1.9,1.3,4.5,2.3,5.8,7.3c0.9,1.2,1.3,2.7,1.2,4.2c3.2,1,5.9,3.2,7.6,6.1
								c2.7,4.5,1.2,6.6-0.6,8.5c-1.7-1.2-2.6-2.6-0.4,0.5c3.1,4.5-0.5,10.8-4.2,15.3c0.8,22.7-6.9,28.6-27.9,36.1
								c-1.9,0.6-2.6,1.5-3.4,4.2c-0.6,1.9-1.4,3.8-2.4,5.5c-0.8,1.2-1.3,2.7-1.3,4.2c-0.2,1.8-0.6,3.5-1.3,5.2
								c-0.8,2.2-1.2,4.5-1.2,6.8c0,2.1,0.5,5.5,0,5.8c1.8,3.1-0.8,4.1-1.9,5.8c1.1,0.7,1.9,2.5,3,1.2c3.4-4.1,3.5-2.5,4.3-1.5
								c1.4,2,4.3,1.6,5.2,3.9c1.8,4.8,3.7-2.6,5.9-2.2c0.7,0.1-1.6,4.7-0.6,4.8c3.6,0.3,3.5-2.2,4.9-0.5s-0.3,4.7,1,4.2
								s1-2.1,4.8-1.8c-2-2.4,2-4.2,4-4.8c1.8-1.6,3.7-3.1,5.6-4.5c4.8-3.6,9.6-7.2,14.4-10.9c1.2,1.1,1.4,2.8,2.1,2.1l2.8-0.3
								l0.4-24.2c0.8-1.6,1.8-2.2,2.7-2.4c1.5-0.2,2.9,1.2,4.6,3.1l1.6-1.3h4.2l4,3h4.8c0,0,3.7-0.2,5.9,1.6c2-2.9,5.6-1.5,8.5-2.1
								c1.4-1.3,2.2-3,2.2-4.9l0.1-3.6c-3.7-3.6-5.5-1-6.5-5.9l-3.6-2.4c-3.7-3.6-1.5-4.3-1.3-5.9c-2.2-0.8-6.1-0.2-1.8-5.9l-0.1-1
								l3-2.4l3,2.7c0.7-2.3-0.9-5.4,3.1-6.8c-2.1-5,1.9-3.8,4.9-3.7l2.7-2.4c1.5,0.4,2-2,2.5-4.8l1.2-1.6c-0.9-1.3-1-3-0.3-4.5
								c0.1-0.2,0-0.2,0-0.3c-0.4-4.4-1.2-6.8-2.1-8.2c-4.7,0-1.4-3.5-1.9-5.4c-2.2-2.9-1.7-5.7,1.3-8.6c-1.4-1.3,0.3-4.9,0.3-8.2
								c0-2.3-3.1-5.6,0.1-7c0.4-1.6,1.1-2.6,3.1-1c3.8,0.8,6.6,0.8,7.7-0.6c0.2-0.2,0.2-0.1,0.3-0.1l3.6-4.9c1.4-1.4,2.2-0.1,3.3,0
								c0.6-0.9,3.3-3.7,4.5-2.4c2.8-2.6-0.5-4.1,2.2-6.1l1-2.5c-1.1-2.7-0.3-3.4,1-3.7c0.3-2.9,1.4-3.2,0.9-3.3
								c-2.2-1.1-3.4-3.5-3-5.9c-0.9-1.1-1.5-2.4-1.9-3.7c-0.6-0.2-0.2-3.7-0.4-5.1c-0.7-1.2-1.6-2.5-0.3-3.4c0.2,0,0.5,0,0.6,0
								s0.1-0.2,0.1-0.1c1.1-0.2,1.9-1.2,1.9-2.4c1.6,0.4,3.3-0.1,4.5-1.3l2.5,0.3c0.8,0.6,1.3,1.8,4.2-0.3l2.5,1
								c3.1,1.2,4.9,0.8,5.9-1.2c-0.2-2.6,3.6-1.2,5.9-1.2c1.5,2.3,3.3,3.1,5.8,0.1c0.1-1.5-0.2-3.4,0.6-4.3
								c1.1,0.5,2.1,1.3,3.1,0.4c1.9,2.2,3.5,3.5,2.7-0.9c1.8,0.6,1.5-1.5,4.6-0.9c1.7-0.9,1.9-1.6,1.8-2.8c-0.4-2,2.4-1.3,0.6-2.8
								c-0.8-1.4-1.5-2.6-2.2-4c-0.4-1.1-1.1-2-2.1-2.7c-0.7-1.6,0.9-2.6-0.7-4.3c-0.3-4.6-1.7-4.1-0.1-8.9c0.3-1.6-1.3-1.9-2.4-2.8
								c0-1.9,0-2.3,2.4-3.7c0.7-3.3,1.6-3.4,2.1-5.4c0.8-1.7-1.7-1-1.8-4.8c-1.6-3.2-1.7-5.5-3.3-6.4c0.8-0.8,0.8-2.2,0-3l-0.1-0.1
								c0.6-1.2,1.3-2.1,1.3-3.6c1.3-0.6,3.1-0.4,4.6-0.4c1.5,0,3.1,0.3,4.8,0.3c1.7,0,3-1.3,4.3-2.1c1.3-0.9,2.4,0.4,3.9,0.7
								c2.2,0.6,2.3-1.6,3-3.1c0.4-1.6,1.5-2,1.9-3.6c1.5-3,2.1-2.4,3.9-1.9c1.3,0,2.8,0.4,3.3-0.7c1.5,0-1.5-1.3,4.8-1
								c0.7-0.2,1.3-0.5,1.9-0.9c1.6-0.2,3.2,0.6,4.9,0.6c1.3,0,1.5-0.5,2.5-0.7c2.8-1.1,4.8,0.4,7,0.7c1.1,2.8,0.6-0.1,5.5-1.5
								l1-0.1c1.7,0.1,3.3,1.1,4,2.7c0.1,1.4,0.1,2.9,0,4.3l1.3,0.4c0.8,3.6,3.3,0.4,5.2,0.3c3,1.4,2.8,0.4,4.8-0.3
								c1-0.3,2.1-0.4,3.1-0.4c1.7-1.8,4.2-2.6,6.7-2.2c1,1.7,1.6,0.1,2.4-0.6c2.1,0.5,3,2.2,3.7,3.3c0.4,1.2-0.6,3.6,0.5,3.9
								c1.1,0.3,2.8,0.1,3.6,2.7c2,2.2,3.8,4.7,5.8,6.8c-0.6,2.4-3.1,5.9,0.6,7.1c2.7,1,4.4,3.8,4.2,6.7c1.3,1,2.1,3.2,2.8,4.5
								c0.6,1.1,2.4-0.2,3.7-0.4c3.4-0.9,1.1-3.7,2.1-3.7c4.1,0.1,2-1.3,2.4-2.8c1.3-2.3,2-4.8,4.2-6.4c0-2.1,2.3-4.1,4.5-2.8
								c2.7,0.6,6.2,1.5,5.2,5.1c1.8,2.5-2.7,4.2-0.6,6.5c2.5,1.4,1.8,5.2,4.8,6.1l2.1,3c3,0.2,5.6-0.1,6.5-2.5l2.2,1.2
								c0.6,0.1,1.3,0.3,1.9,1.8l2.1-0.1l1.9,1l0.1,1l3,3.3h3.3l-0.1,5.6l0.6,2.1c3.1,2.4-2,6.2,4.8,5.5l0.1-3.9
								c1.4-1.1,2.5-2.5,3.4-4c-1.8-1.7-2-2.6-1.5-3c1.7-2,3.4-3.7,5.4-4l1.2-2.8l3.9-2.4c4.5-0.2,3.9-1.6,7.4-3.9
								c0.1-4,1.2-3.9,2.2-4c2.3-1.9,3.4-4.2,6.8-5.5l1.5,0.1c1.3-2.2,2.4-6.2,5.4-7c5.1-1.3,7.7-4.4,6.8-8.5c-0.9-4.3-0.6-6,1.2-8
								c1.8-2,3.8-7.6,4.6-12c0.6-3.5-1.9-6.6-7-8.5c-3.7-1.4-4.3-2.3-5.4-7.7c-0.2-1.2-2.7-3.9-5.9-6.7c-3-2.5-5.7-5.5-5.9-6.7
								c-0.4-1.5-1.1-3-1.9-4.3c-1.8-2.7-3.2-5.6-4.1-8.6c-0.7-2.1-1-4.2-1-6.4c0-7.6-1.6-14.5-3.9-16.9c-2.9-3-1.5-7.2,3.3-10.2
								c1.5-0.8,2.3-2.3,2.2-4c0.1-1.6,0.4-3.1,0.9-4.6c0.6-1.7,0.4-3.2-0.9-6.4c-0.9-2-1.4-4.2-1.7-6.4c0-3.3-3.6-8.9-6.8-10.4
								c-1.5-0.7-4.2-2-5.8-2.8c-4.6-2.2-7.7-4.6-9.4-7.3c0-0.1-0.1-0.1-0.1-0.1c-0.1-0.2-0.2-0.3-0.3-0.4c-1.4-2.5-1.4-3-0.1-5.5
								c1-2,1.2-4.7,1-10.4c-0.1-4.3-0.2-8.2-0.3-8.6c-0.1-0.4-2-2.2-4.5-4c-1.9-1.3-3.6-2.7-5.2-4.3c-1-1.6-5.5-2.3-7.4-1.8
								c-1,0.3-4.2-3-4.9-4.8c-0.8,1-2.5,1.9-5.2,2.5c-1.9,0.4-8.6,3.8-10.1,4.2c-4.2-1.6-2.4-8.5-2.8-12.6c0-2-5-1.1-6.2-2.1
								c0.3-5.5,4.3-13.2,0.6-16.3l-7-2.4c-3.9-1.2-8.4-5.5-8-3.7c2.4,10.9,0.4,5.3-12.8,3.1c-5.6-2.9-11.8-7.1-10.9-7
								c3.5,0.3-5.9-7.1-2.8-9.7c8.5-7-5.8-10.8-4.5-7.5c1,2.8-4.5-1.1-4.9-4.2C309.1-89,306.9-90.3,304.2-90.1z M119.3,223.3
								c0.2,0,0.5,0,0.7,0l-1.2,0.1C119,223.4,119.1,223.3,119.3,223.3z M128.4,261.3c0.6,0.3,1.2,0.7,1.6,1.2v0.1
								C129.5,262,129,261.5,128.4,261.3L128.4,261.3z"/>
						</g>
					</g>
					<g id="Region_OHiggins" class="st3">
						<g id="g15007">
							<path id="6" name="O'Higgins" class="region" d="M372.6,360c-0.3-0.1-0.8,0.2-1.6,2.1c-2.1,1.6-1.6-0.9-3.4,0.1l-0.7,0.6
								c0.1,0.2,0,0.2,0,0.3c-0.6-0.3-1.4-0.5-2.1-0.5c-2.2,0.1-6-0.4-5,2.8c-1.1,1.7-2.6,4.8-4.8,3.1c-1.5,2.2-2.8-2.3-5-0.9
								c-1.5,0.5-2.1,0-2.8,2.1c-1.6,1.1-3.3,2.6-4.9,0.7c-3.3,0.1-3.5,0.4-4.8,2.4c-0.4,0.6-1.1,0-1.6,0.3c-1.1,0.8,0.2,2.7-1.8,3
								c-2.2,0.1-2.3,1.6-2.2,3.1c-1.9,1.5-4.5,4.7-6.2,1.3c-1.4-1.7-3.5-2.7-3.6-4.9c-1.1-1.9-4.3-3.3-5.5,0
								c-1.2,0.9-0.8,1.4-2.1,1.5c-0.7,1.5-3.9-0.6-3.9,2.2c-3.1,3.5-3.9,4.7-5.9,2.8c-2.2-0.4-5.3-4.4-6.4-0.6
								c0.2,2.6-2.1,3.2-4,3.9c0.3,0.9,0,1.4,0.6,1.8s1.5,1.5,2.1,1.9c4.2,0.6,2.2,2.4,2.8,4.9c0.4,0.4,0.6,0.8,0.7,1.3
								c0.4,1.3-0.6,2.4-1.9,3.1c-0.6,0.3,1.6,4.3-2.2,6.1c-0.2,0.1-0.4,0.2-0.6,0.3c-4.1-2-7.9-0.9-11.6,1.5
								c-5.4,0.2,1.2,9.9-4.6,9.2c-7.2-1.7-9.1,7.4-5.5,12c0.8,1.4,1.8,2.7,3,3.9c0.5,0.2,0.4,0.4,0.1,0.6c-0.7,0.5-3.6,1.2-5.5,3.3
								c-1.1-0.5-5.1,4.5-6.1,4.3c-1.9-0.5-3.7-0.9-5.6-1.2c-4.4,0.5-5.4-1.5-6.7-1.8c-1.4,1.7-3.3,3-5.4,3.7
								c-3.2,5.5-7.2-4.6-12-3.1c-5.3,0-15.4-0.9-17.5-6.8c-6.4-1.4-3.3-7.7-7.7-10.4c-2.7-0.6-5.2-0.4-4.8-6.7
								c-0.9-6.9-4.1-1.7-7.1-7.9c-0.1,2.7-1.4,3.4-3.3,3.7c-1.9,0.3-2.7,2.3-5.1,1.5c-1.1,1.1,1.6,4-1.5,3.3
								c-2.4-0.6-5.6-2-7.3,0.7c0,2.5-3.7-1.3-4.6-2.2c-1.6-1.5-2.2-4.9-1-5.9c-3.2,0.2-5.6-2.1-7.3-4.5c-0.4,0.9-1.6,0.9-2.8,0.6
								c-1.4-0.4-2.7-1-4-1.8c-3.6-1-7.4-0.7-10.7,0.9c-2.5-1.1-3.6-5.2-6.5-6.4c-0.3,2.5-0.8,5.1-2.7,6.8c1.8,1.1,3,3.8-0.1,4
								c-2,3-3.2-3.9-5.4-4.6c-1.7-2.8-5.3-0.5-6.5-2.4s-4.7-1.1-5.9-1c-0.7-1.4-0.6-3.1,0.3-4.5c-1.6-2-5-0.3-7.1-1.8
								c-0.1-0.2-0.3-0.3-0.4-0.3c-2.8-0.3,1.4-3-1.6-4c-3.7-0.3-3.2,1.2-4.6,1.8s0.2-2.4-1-4s-1.2,0.8-4.8,0.5
								c-0.9-0.1,1.3-4.6,0.6-4.8c-2.2-0.3-4,7-5.8,2.2c-0.8-2.2-3.8-1.8-5.2-3.7c-0.8-1-0.8-2.5-4.2,1.5c-1.1,1.3-1.8-0.5-2.8-1.2
								c1.1-1.7,3.5-2.8,1.8-5.8c-0.1-0.1-0.2-0.2-0.3-0.1c-0.5,0.1,0.4,3.7-1.5,3.6c-1.3,2.6-3.4,3.3-2.5,6.8c0,3.2-2.2,4.4-4,5.8
								c-1,1,0.3,3.4-3,2.4c0.6,0.1-1.1,2.2,0,2.7c0.9,2.8-0.6,3.4-0.2,5.4c-2.4,4.7-5.3,6-5.2,6.7c-1.5,3.5-3.2,3.6-5.5,4.3
								c-0.1,4.4,0.1,7.1-0.7,8.3c-0.6-0.6-0.8,2.3-1.3,3.1c-0.5,0.8-3.3,2.5-3,1.2c0.4-1.6-1.1,0.9-2.7,2.1c1.3,2-0.6,4.6-0.6,7
								c-1.1,1.6-3.3,1.3-5,1.5c-2,0.1,0.4,2.7,1.5,3.6c-0.1,0.4,0,6.3,0.6,6.8c-0.7-0.5-1.9,0.2-0.7,1.6s0.5,2.6,0.9,4.6
								c0.6,0.6,0.9,1.4,0.9,2.2c0.2,1,0.8,1.9,1.7,2.5c-0.2,1.4,1.5,1.2,0.4,2.7c-0.1,2.2,1.3,4.8,0.9,6.5c0.4,2.3,0.9,2.1-0.3,4
								c0.1,2.4,3.4,5.6,1.3,8c0.1,3.5,1.2,6.3,0.6,9.8c0.1,1.8,0.9,4.7-0.7,4.5c-0.6-0.1-2.1,2.1-3,3.9c-1.2,0.7-4.2-0.4-4.3,1
								c-0.2,2.1-1.3,1.7-2.1,2.2c-0.7,1.4,0.5,3.7-0.6,4.9c-0.8,0.8-0.8,2.2-1.5,3.1c-1.7-0.3-2.6-0.8-2.4-0.1
								c0.3,0.8,0.5,1.7,0.6,2.5c4.5,7.1,1,5.4,3.9,8.6c0.7,3,1.2,7.7-0.7,9.7c-1.8,3-2.8,4.6-3.3,7c0.1,0.9-0.1,1.7-0.5,2.5
								c0,0.1,0,0.2,0,0.3c-1.1,2.7,0.2,4.6,1.3,6.5c1.4,5.5,1.3,4.2,0.2,7.4c-1.1,1.7,0.6,3.5,0.5,6.2c1.4,3.3-0.7,1.8-1.2,3.3
								c0.1,1.8,0.5,3.8-0.6,3.9c-0.5,0,1.5,0.7,0.7,1.8c-0.6,0.9,1.6,2.4,1.9,3.3c1.7,2.8,2.8,1.5,4,0.7c1,0.7,0.6,2.4,1,3.6
								c0.6,1.5,3.5-1.5,4.3-1.5c2.4,0.2,0.6,0.8,4.6,3.1c-1.2,1.4-1.1,1.9-1.5,3.6c0.6,1.3,0.9,2.7,0.9,4.2c1,0.7,2,1.4,3,1.9
								c1,0.2,2,0.4,3,0.5c1.3-0.6,1.7,1.9,3,3.3c0.4,0.5,0.9,0.9,1.5,1.2c-0.1,1.8,0.1,2.6,0,4.3c0.9,0.8,1.6,1.8,2.1,2.8
								c1.3,1.2,2.8,2.3,4.3,3.3c1.3,0.4,3.4-0.1,4.8-0.2c0.3,0.5,0.8,0.9,1.3,1c1.9,0,4-0.4,5.8,0.2c0.9,0.6,1.5,1.1,1.5,2.2
								c-0.4,0.5,0.7,1.7,1,1.8c2.9-0.7,3.7-0.3,5.3,0.3c0.9-0.2,2.5-1.4,4-2.8c-1.5,1.4,1.1-0.5,1.5,0.7s4.4,2.5,1.9,3.1
								c1.7,0.4,3,1.3,2.1,3.6c-0.9,1.5,1.6,2.7,2.5,3.7c1.7,0.7,0.1,2.3-0.2,2.2c2,0.3,3.8,1.2,5.2,2.7c-0.1,1.7,2.3,2,2.5,3.9
								c0.9,1,2,1.7,2.4,3.1c1.3,0.5-0.6,3.7,1.5,3c1.7-0.8,3.9-0.2,4.5-2.5c2.3-0.2,1.8-3.2,2.8-4.8c0.5-2.4-3.2-2.1-3.7-3.3
								c0.8-1.3,0.6-4.1,2.7-4c1.6-1.1,1.6-3.1,2.5-4.6c1-2.4,2.7,0.5,4.5-0.2c2.2,0.2,4.3,1,5.9,2.4c0.9,1.1-1.4,2.8,0.9,3
								c2.2,0.8,2.8-2.1,4.6-2.7c1.3-1.1,3.4,0.1,1.6,1.5c1.6,0.3,2.6-0.4,3.7-1.3c0,0,1-1,1.6,1.2c0.4,1.3,2-0.1,1.5-0.7
								c-0.5-0.6,0.4-1.3,0.4-1.3c0.3,0,1.2,2.6,4,1.8c1.4-0.4,1.6,1.5,4.5,3c0.9,0.5,2.6-0.1,3.7,0.9c1.1,1,2.5,2,3.6,1.2
								c0.9-0.2,0.9-1.2,1-2.1c0-0.7,0.4-1.3,1-1.6c0.9-0.2,1.7-0.6,2.4-1.2c0.3,1,0.5,0.5,1.3,1.3c0.2,1.2,0.6,1.1,1.2,1.9
								c0.4,0.6,0.6,1.4,0.4,2.1c0.6,0.4,0.5,0.6,1,0.6c0.4-0.9,0.4-1.2,1.3-1.5c1-0.7,2.4-0.7,3.3,0.2c1.3,0.3,1.4,1.3,2.2,2.1
								c1,0.7,2.1,0.9,3.3,0.7l0.6-2.2c-0.2-0.3-0.5-0.6-0.7-0.9c-0.7-0.9-1.4,0.2-2.2-0.6c-0.3-0.4-0.4-1.1-0.7-1.5
								c-0.7-0.7-0.4-2.3-0.3-3.3c-1.4-1.7-0.9-2-0.3-2.4c0.7-0.6,1.1-1.4,1.3-2.2c0.1-0.7-0.1-1.5-0.4-2.1
								c-0.5-0.9-0.2-0.6,0.4-1.2c0.4-0.7-0.1-1.3,0.4-2.1c0.7-0.2,0.7-0.6,0.9-1c1.4,0.2,2.1,0.7,2.4-0.9c0.2-0.7,0.7-0.4,1-0.2
								c0.8,0.8,2.1,1,3.1,0.3c1-0.9,2.5-1.1,3.4-1.9c1.6-1.1,1.4-3,1.9-4.6c0.5-0.3,1.1-1.5,1.8-1.5c1.1,0.2,2.2,0.1,3.3-0.3
								c0.8-0.3,1.5-0.9,1.5-1.3c0.6,0.7,1.4,1.3,2.2,1.8c0.4,0.1,0.7,0.5,0.9,0.9c0.8,2-0.3,3.5,0,5.5c1.1,0.7,2.5,0.5,3.7,0.7
								c1.1,0.6,1-0.4,2.1-0.5c2.1,0,1.6,0.5,1.9,1.2c1.4-0.4,1.5,1.4,3.3,0.9c0.8-1.2,1.8-2.3,3-3.1c1.1-1.1,0.9-2.4,1.3-3.9
								c0.3-0.7,1.2-0.4,1.9-0.6c0.8-0.4,1.8-0.6,2.7-0.5c1.1,0.2,2.2-0.1,3.1-0.7c-0.1-1.2,0.8-2.2,2-2.3c0.2,0,0.4,0,0.6,0.1
								c1.2,0.2,5.8,7.3,7.7,8.5c1.5-0.2,3-0.7,4.3-1.3c1.9-0.3,1.5-1.9,3.1-2.8c0.9-1,1.7-2.2,2.2-3.4c0.2-0.2,3.8,3.7,4,2.7
								c1.5,1.9,1.9,4.5,2.5,5c4.3-0.7,4,2.3,4.5,1.9c1.3-1.2,4.2,3,5.5,6.2c2,4.9,3.8,2.2,8.6-0.2c2.7-1.3,4.6-0.1,6.2-1.9
								c1.4-1.5,2.5-0.2,3.3,0.2c1,0.4,3.2-0.8,3.4-0.3c1.2,1.3,2.8,2.2,4.5,2.7c2.9,1.6,2,0.7,4.8,0.9c0.8,0.1,0.6-1.2,0.5-2.4
								c-0.1-0.5-0.1-1-0.1-1.5c1.6-0.2,5.3,2.3,5,2.2c-0.5-0.2,0.9-1.2,2.2-0.9c0.9,0.2,1.7,1.1,3.1,2.4c0.7,0.6,1.4,1.8,2.5,2.1
								c0.9,0.2,0.2,1.3,0.9,2.1c1.7,1.9,3.9,2.9,5,2.8c0.9,0,1.9,2.6,2.2,4.5c0.2,1.2,1.5,0.7,1.6,1.2c0.9,2,1.8,1.3,3.1,1.3
								c1.1,0,3.3,4.5,4.2,7.7c0.8,2.8,0,1,5.8,4.2c3.1,1.7,2.6,3.5,3.6,2.5c0.6-0.8,0.9-1.7,1-2.7c-0.7-4.2,0.6-4,4.9-4.2
								c3.9-0.6,3.9,0.6,4.2-1.2c0.8-2.4-1.8-4,3.4-3.4c1.1,0.1,1.5-1.6,1.9-1.6c0.8-0.1-0.3,3.7,1,4.2c0,0.5,2.1-0.1,3,0.5
								c-0.1,0.1-1.5,2.5-0.5,3.4c0,1.3,4.3,1.5,6.1,1.5c1,0,0.5,1.4,1.8,2.8c0.9,1,1.5,2.2,3,2.2c3.1,0,2.8-2.4,3.3-1.9
								c0.3,0.2,0,1.8,1.8,1.8c-0.1-0.8,2.5-1.3,5.4-1.5c1.3-1.8,1.8-0.4,3.9,0.9c1.6,1,1.9,2.7,3.1,2.4c1-0.2,0.9-1.7,1.8-1.3
								c1-0.1,5.6,2.4,6.4,1.9c0.2-0.2-0.1-1.1,0.9-1.2c1.5,1.2,3.3-1.7,3.4-2.4c1.1-1.8,0.2-4.7,0.1-10.2c-0.4-2.6,1.7-1.9,2.7-3
								c1.5-3-0.4-4.3,4.8-9.7c0.5-1.3,0-4.6,1-5.3c1.6-1.2,1-3.8,1-5c0-1,1-1.8,2.1-4c2.5-5.1,3.2-8.2,2.1-9.5c-1.9-0.5-7-2.6-8-4
								c-0.8-0.4-2.4-0.2-2.8-0.9c-0.8-1.2-0.1-3.4-0.1-5.2s4.2-4.3,7-5.2c1.8-0.6-0.2,0.3,0.9-2.8c3.7-5.4,1.2-3.8,2.4-5.9l0.3-0.3
								l5.8-3.7l0.1-4.5c-2.1-7.2-0.4-5.6-0.7-7.7c-0.2-1.3,2-10.9,2.5-8c0,0.2,2.2-5.9,3.1-6.2c0.7-0.2,2.5,0.8,2.7-0.6
								c0.6-3,2-5.8,4-8.2c0.8-1.2,1.3-2.5,1.5-3.9c0.7-1.9,1.6-3.7,2.5-5.5c0.8-2,1.4-4.1,1.8-6.2c0.2-1.4,1.5,2,4.6-0.5
								c1.9-0.3,2.3-2.9,5.8-6.5c1.9,1.2,2.6-1.4,2.8-2.2c1.6-0.9-0.7-2.4,0.6-3.6c1-0.6,2.1-0.6,3.1-1.2c3.6-2,5.2-2.7,4.3-7
								c-0.4-2.2-3.9-3.6-2.2-9.4c1.4-4.7-0.3-10.1-0.1-11.1c0.3-1.8-4.8-3.2,0-4.3l0.3-0.1c-1.4-1.4-2.8-2.8-4.2-4.2
								c-1.3-3.6-1.7-6.3-0.9-7.3c-0.5-1.4-0.5-2.9,0-4.3c-4.4-3.5-0.6-4-3.4-4.2l-0.1-1.6l-2.4-1.3l-1.2,1.3
								c-2,0.1-4.1,0.5-5.6-0.5c-0.2-1.9,0-4.1-3.9-2.4l-3-2.5c0.1-2.1-1.1-5.6-3.3-4.8c-1.3-0.2-1.2-0.7-1.2-1.2
								c2.4-0.7,1-2.9,0.6-4.6c1.5-1.9,7.4-5.3,2.7-5c-1.2,0.2-1.6-0.9-1.8-2.1c-1.7-1-1.7-2.7,0-3.9l-2.2-4.2l-0.5-4.2l0.5-3
								l-2.4-2.8l-3.4-0.1l-1.9-0.5l-6.4,0.6c0.4,2.8-2,3.5-1.5,6.4l-0.3,0.1c-1.3,0.7-1.7,2-2.5,2.4c-0.1,0.1-0.2,0.1-0.3,0.1
								s-0.3,0-0.5,0c-1.7-1.1-2.9-1.7-4.2-3c-0.7,0.3-1.4,0.6-2.1,1c-0.1,0.1-0.3,0.1-0.5,0.1c-0.3,0.1-0.6-0.1-0.9-0.5l-0.5,1
								l-1.2-0.7c-0.7-2-1.7-1.5-2.7-0.3c-3.2-0.8-3.5-2.1-3-3.7c-2.8-1.1,1.6-1.1,0-3.9l1.3-1.5c2.8-0.9,2.4-2,1.3-3.1l0,0
								c0-0.1-0.1-0.2-0.1-0.3c1.2-0.8,1.5-1.8,0-3.1l-0.3-3.6l-2.7-0.1l-1.8-1.8c0-1.8,2.1-4.6-1.6-4.5l-1.6-1.8c0-1-0.3-2-1-2.7
								c-0.3-0.3-0.6-0.6-1-0.9c-0.2-2.4-1.5-3.3,0.6-3c-0.6-1.8,0.5-2,1.2-2.5c-1.2-1.6-0.9-2.4-0.6-3.1c-0.4-0.5-0.9-0.5-0.7-2.8
								c-2.5-0.7-2.6-1.8-3.6,0.1c-3-1.5-4.3-3.1-4.3-4.6c-0.4-0.2-0.8-0.4-1.2-0.7c-0.2-0.2-0.3-0.4-0.5-0.6
								c-0.1-0.2-0.2-0.5-0.3-0.7c-1.5,0-2.3-0.3-2.5-1C373.1,360.6,373,360.1,372.6,360L372.6,360z"/>
						</g>
					</g>
				</g>
			</g>
		</g>
	</g>
</g>
<circle class="border-circle" cx="297.6" cy="297.5" r="277.6"/>
</svg>
