<?xml version="1.0" encoding="utf-8"?>
<!-- Generator: Adobe Illustrator 21.0.0, SVG Export Plug-In . SVG Version: 6.00 Build 0)  -->
<svg version="1.1" id="Capa_1" xmlns="http://www.w3.org/2000/svg" xmlns:xlink="http://www.w3.org/1999/xlink" x="0px" y="0px"
	 viewBox="0 0 600 600" style="enable-background:new 0 0 600 600;" xml:space="preserve">
<style type="text/css">
	.st0{fill:none;stroke:#FFFFFF;}
	.st1{clip-path:url(#SVGID_2_);}
	.st2{opacity:0.7;}
	.st4{opacity:0.7;fill:#FFFFFF;stroke:#FFFFFF;enable-background:new    ;}
</style>
<title>Mesa de trabajo 5</title>
<g id="Region_Coquimbo-2">
	<g id="Provincia_Elqui-2">
		<path id="Vicuna-2" class="st0" d="M334.1,251.4l-0.8-1.6c-0.4-0.8,0.4-2.1-0.4-2.6s-2.8-1.1-2.1-2.4c0.7-1.3-0.1-0.8-0.4-2.1
			c-0.2-0.8,0.5-1.9-0.2-2.6c-0.9-0.9-0.2-1.1-0.9-1.7c-0.7-0.6-0.6-1.9-1.3-2.6c-0.5-0.5-3-0.4-3.2-0.9c-0.7-1.4,0.3-1.4,0-2.4
			c-2.1-1.8-1.5-4.9-3.4-5.4c-1.9-0.5,0.4-0.4-0.2-1.9c-0.6-1.5-0.7-1.8-0.2-3c0.3-0.8,2.5-0.7,2.1-1.5c-0.8-1.2-2.2-2-3.6-2.1
			c-1-0.2-1.5-0.8-1.5-1.3s0.4-1.6,0.4-1.7c-0.4-0.9-0.5-2.8-1.2-2.5c-0.5,0.2-0.7,2.9-3.2,1c-0.4,0.4-1.3,1.3-1.9,1.1
			c-0.8-0.5-1.6-1.1-2.4-1.7c-1.5-0.6-1.5,0.2-1.5,0.9c-0.3,0.7-0.9,1.4-1.5,1.9c-1,0.2-3.1-0.2-3.4,0.8c-0.2,0.8-2.8,0.2-3.2,0.7
			c-0.1,0.2-1.3,2-1,2.6c0.4,0.8,0.5,1.9,0.9,2.4c1.3,1.7,1.4,1.3,0.6,2.8c-0.5,0.7-0.8,1.5-1,2.4c-0.3,1.2-0.6,1.7,0.4,2.8
			c0.8,0.8,0.9,1.1,0.6,2.1s0.2,1.4-0.6,2.2c-0.2,0.2-1.6,1.1-1.3,1.7c0.2,0.3,0.5,2.4-0.4,2.6c-2.8,0.6-2.2-0.5-2.8-0.6
			c-1.2-0.1-2.4-0.1-3.6,0c-2.4,0-1.4,1.3-2.4,1.3c-1,0.2-1.9,0.8-2.5,1.7c-0.6,0.6-2.7,0.3-3.4-0.2c-1.6-1.2-0.4-0.1-1.9-0.2
			c-3.7-0.4-3.7,1.1-3.7,1.2c-0.1,0.8-0.1-0.6-1.8-1.1c-1-0.3-1.9-0.4-2.9-0.3c-2.5,0,0-0.4-1.7-1.3c-0.5-0.3-1.8-0.9-2.8,0
			c-0.5,0.4,0.6,1.8,0,1.9c-1.2,0.2-0.5-1.2-3.6,0.9c-1.1,0.7-2.2-0.7-3.2,0.2c-0.4,0.4-1.6,0.4-1.3-0.9c0.3-1.3,0.5-0.5-0.2-1.9
			s-1.1-0.9,0.2-1.9c1-0.7,1.2-0.9-0.1-2.8c-0.8-0.9-1.9-1.6-3.1-1.7c-0.7-0.1-0.9-0.6-0.8-1.3c1.6-0.9,2.1-2.7,3.2-4.1
			c-0.3-1.7,1-3.1,1.3-4.7c-1-1.6,1.5-1.1,1.1-2.3c-2.1-1.6,1.6-2.5,0.5-4.2c-2.1-1.5,1.3-2.9-0.2-4.6c1.5-0.7,2.2-3,1.1-4.2
			c-1.7,0-0.9-1.3,0.2-1.8c1.9-0.7-1.2-1.6,0.6-2.3c1.8-0.8,3.6-1.4,5.5-1.7c2.4-0.4-0.1-3,1.7-4c1.3-1.5,1.5-2.1,3-3.3
			c-0.6-1-0.2-2.4,0.8-2.9c0.2-0.1,0.5-0.2,0.8-0.3c0.4-1.7,2.2-1.3,3-2.5c0.8-1.7,3.5-0.7,4.9-1.8c3.1-1,4.1-1,3.6-0.8
			c1.9-0.6,4.1,0.8,6,0.4c1.3,1.5,3.4,2.9,4,0.1c1-2.1-2.6-3.3-0.2-4.9c0.1-1.2-0.3-2.8,1-3.5c0.8-0.9,2.1-3,1.2-3.9
			c-1.7-1.3,2.2-3.7,0.9-5.7c2.5-0.9,0.4-3,0-4.1c2.9-1.8-2-4.2-0.2-6.6c0.9-2.1,1.9-4.8,4.2-5.4c1-0.9,1.5,0.5,1.8,1.1
			c-1.5,2.1,7.9,7.9,7.2,2.3c4.1-2.1,8-0.3,10.5,3.2c2.4,3.2,4.6,6.6,6.6,10.1c2.2-0.6,3.7,2.7,5.4,0.7c4.5,1.9,8.5-2.2,12.7-2.1
			c1.9-0.2,0.5,2.1,0.8,3.2s1,1.1,1.5,2.3c0.6,1.5,0.2,3-0.1,5.7c-0.4,3.9-0.6,4.1,3.4,7.5c2.1,1.5,2.6,4.5,1,6.6
			c-0.1,0.1-0.1,0.2-0.2,0.2c-2.5,3.5-2.1,4.2-0.6,3.8c0.6-0.2,0,2.5,0,3.2s1.5,1.8,1.1,2c-0.2,0.1-0.5,4.5-2.1,6.7
			c-0.6,0.8,2.8,1.6,0.2,4.1c-1,1.2-1.5,2.8-1.1,4.3c0.4,1.8-0.8,3.5-1.8,4.7c-1.7,2-2.8,0.4-0.6,3c0.4,0.4-1.3,4.8,3.1,1.1
			c1.3-1.1,3.5-0.1,3.7,0.7c0.3,1.1,2,2.4,3.3,1.6c1.8-1.1,3,3.3,1,3.3c-1.5,0-1,1.3-0.6,2.1c0.3,0.6-0.5,2.1-1.1,3.3
			c-0.8,1.6-2.5,0.5-3.6,0.6c-1.1,0.1-0.1,2.8,0,3.8c0.1,0.7-0.7,1.5-1.2,2.6c-1.5,3.3-0.9,4.1,0.1,5.5c1.1,1.7-0.5,1.4-2.5,1.4
			c-0.7,0-2.4,2.4-3.2,3.4c-1.3,1.3-1.1-0.2-2.4-0.5c-0.9-0.2-2.7,1.1-3,1.5c-0.5,0.9-3.5-0.1-4.5-1c-0.4-0.4-1.9-2.4-2.7-3.2
			C335.3,251.4,334.4,251.2,334.1,251.4z"/>
		<path id="La_Higuera" class="st0" d="M307,154.3c-0.5-1.1-1-1.7-1.8-1.1c-2.4,0.6-3.4,3.3-4.2,5.4c-1.8,2.4,3.1,4.7,0.2,6.6
			c0.4,1.1,2.5,3.3,0,4.1c1.3,1.9-2.6,4.4-0.9,5.7c0.9,0.9-0.4,3-1.2,3.9c-1.3,0.7-0.9,2.3-1,3.5c-2.5,1.6,1.2,2.9,0.2,4.9
			c-0.6,2.8-2.8,1.4-4-0.1c-1.9,0.3-4-1.1-6-0.4c0.1-2.1-0.3-5.5-2.9-5.8c-2.4-0.4-6,0.8-7-2.3c-1.7-1.6-3.1-3.6-5.2-4.5
			c-1.6-2.3-4.1,1.1-5.4,2.4c-1.1,2-4.5,3.9-6.3,1.3c-0.6-1.7-1.9-2.6-3-0.6c-1.7,0.2-2.6,1.3-3.9,2.5c-0.7,2.7-4.2,0.4-5.1,2.9
			c-1.7,1-2.5,3.6-5.1,2.8c-0.4,2.7-4.7,0-4.7,2.5c-0.6,3.1-3.4-0.7-3.1-2.4c-0.7,0.3-1.4,0.4-1.4-0.2c0.1-0.6,0.4-1.2,0.8-1.7
			c2.4-1.9,3-2.4,0-4.5c-1.2-0.9-0.9-2.8-1.1-4.5c-0.4-2.3-1.1-4.6-0.3-5.5c0.5-0.6,0.8-1.3,0.6-1.5c-0.2-0.6-0.1-1.3,0.3-1.9
			c0.5-1.1,0.4-1.5-0.8-2.8s-1.4-1.7-1.1-4.5l0.3-3.2l-4-3.8c-4-3.9-6.2-5-7.4-3.9c-0.4,0.3-0.9,0.6-1.4,0.6c-0.6,0-0.5-0.4,0.2-1.6
			c0.9-1.6-0.1-1.1-0.8-3.6l-0.7-2.8c2.6-0.4,8.9,2.3,9.4-1.5c1.1-3,3.2-2.8,5.6-1.5c2.1,4.5,6.3,1.9,10.2,2.6
			c1.3,3.2-0.4,11.1,3.6,10.6c0.9,1.4,2.6,0.6,4.1,0.2c1.9-0.5,3,2.6,1.8,5c2.7,2.3,7.5-2.5,6.8-6c4.7-1.6-1.1-5.3,3.5-9
			c-2.3-3.5,0.9-3.1,3.1-4.3c0.9-2.8,2-2.1,4.1-1.6c1.9,0.4,3.9,0.4,5.8-0.2c7.4-6.4,7.2-2.4,7.8-6.4c-3.1-2.4,3.2-3.4,4.8-2.6
			c1.3-0.3,3.7-1.8,4.3-1.8c0.8,0,0.4,1.6,2.5,1.4c1.5-0.4,2.7-0.9,3.4-0.5c1.1,0.6,1.2,2.7,0,4.5c-0.2,4.2,6.6,6.7,4,11.3
			c4.4,2.5,0.1,6.7,2.7,9.3C310.1,151.4,308.3,152,307,154.3z M214.4,149.3c0.8-1.1,1.4-2.6,1.7-1.6s-0.2,2.6-0.8,2.6
			C214.9,150.3,214.4,149.8,214.4,149.3L214.4,149.3L214.4,149.3z M216.7,145c-0.2,0.6,0.2,1.2,0.7,1.4
			C217.6,145.9,217.3,145.3,216.7,145L216.7,145L216.7,145z"/>
		<path id="Paihuano" class="st0" d="M334.1,251.4c-1.2,1,0.8,3,1.9,4.6c1.5,3.6,0.6,6.2-3.3,8c-0.8,0.3-1.5,0.8-2,1.5
			c-0.3,0.5-0.9-1.1-2.3-0.8c-1.4,0.3-2.4-1-3.7-1.4c-1.3,0.1-3-0.9-1.9-2.4c0.7-0.4,0.9-1.2,0.5-1.9c-0.2-0.3-0.4-0.5-0.7-0.6
			c-1.2-1-2.8-1.4-4.4-1.1c-1,0.9-1.7,2.2-3.1,2.5c-1.2,0-2.4-0.7-3.6-0.9c-2,0-0.9-2.6-2.3-3.2c-1-0.4-2.7-0.1-3.1-1.5
			c-1.6-1.6,1.7-1.7,0.6-2.9c-1.1-0.6-2.6-0.8-3.4-1.8c-0.3-1.7-1.2-3.1-1.7-4.7c-1.2-1.2,0.4-2.1-0.2-3.4c-0.6-1.3-1-2.5-1.5-3.8
			s-1-0.5-1.4-1.1c-0.4-0.6,1-1.5,1.3-1.7c0.8-0.8,0.4-1.1,0.6-2.2c0.3-0.8,0.1-1.6-0.6-2.1c-1-1.1-0.7-1.5-0.4-2.8
			c0.2-0.8,0.6-1.6,1-2.4c0.7-1.5,0.6-1.1-0.6-2.8c-0.3-0.4-0.5-1.5-0.9-2.4c-0.3-0.6,0.9-2.4,1-2.6c0.4-0.4,3,0.1,3.2-0.7
			c0.2-1,2.4-0.6,3.4-0.8c0.6-0.5,1.2-1.2,1.5-1.9c0-0.7,0-1.4,1.5-0.9c0.8,0.6,1.5,1.2,2.4,1.7c0.6,0.3,1.5-0.6,1.9-1.1
			c2.5,1.9,2.8-0.8,3.2-1c0.7-0.3,0.9,1.6,1.2,2.5c0,0.1-0.4,1.4-0.4,1.7c0,0.5,0.5,1,1.5,1.3c1.5,0.1,2.8,0.9,3.6,2.1
			c0.4,0.8-1.8,0.7-2.1,1.5c-0.5,1.2-0.5,1.4,0.2,3s-1.8,1.5,0.2,1.9s1.3,3.6,3.4,5.4c0.2,1-0.7,1,0,2.4c0.2,0.5,2.6,0.3,3.2,0.9
			c0.7,0.7,0.6,1.9,1.3,2.6c0.7,0.7,0,0.9,0.9,1.7c0.7,0.7,0,1.7,0.2,2.6c0.3,1.4,1,0.9,0.4,2.1c-0.6,1.2,1.4,2,2.1,2.4
			s0,1.8,0.4,2.6L334.1,251.4z"/>
		<path id="La_Serena" class="st0" d="M235.1,185.3c-0.6,3-0.3,6.2-1.5,9c-0.6,1.6-0.6,1.9,0.5,3.1c0.6,0.6,1.1,1.4,1.2,2.3
			c0,0.5,0.4,2.8,1.7,2.5c2-0.4,1.9,1.4,1.8,4.7c-0.1,2.6,0.9,3.6-0.2,4.3c-0.7,0.5-0.6,1.9-0.6,2.7l3,0.2l3.6,3.1v0.9h3.7l1.9,2.2
			l-0.4,6.5l3-1.4l0.2,1.9l-0.8,2l1.8,1.9l2.6,0.9c1.6-0.9,2.1-2.7,3.2-4.1c-0.3-1.7,1-3.1,1.3-4.7c-1-1.6,1.5-1.1,1.1-2.3
			c-2.1-1.6,1.6-2.5,0.5-4.2c-2.1-1.5,1.3-2.9-0.2-4.6c1.5-0.7,2.2-3,1.1-4.2c-1.7,0-0.9-1.3,0.2-1.8c1.9-0.7-1.2-1.6,0.6-2.3
			c1.8-0.8,3.6-1.4,5.5-1.7c2.4-0.4-0.1-3,1.7-4c1.3-1.5,1.5-2.1,3-3.3c-0.6-1-0.2-2.4,0.8-2.9c0.2-0.1,0.5-0.2,0.8-0.3
			c0.4-1.7,2.2-1.3,3-2.5c0.8-1.7,3.5-0.7,4.9-1.8c1.4-1.1,3.5,1.3,3.6-0.8c0.1-2.1-0.3-5.5-2.9-5.8c-2.4-0.4-6,0.8-7-2.3
			c-1.7-1.6-3.1-3.6-5.2-4.5c-1.6-2.3-4.1,1.1-5.4,2.4c-1.1,2-4.5,3.9-6.3,1.3c-0.6-1.7-1.9-2.6-3-0.6c-1.7,0.2-2.6,1.3-3.9,2.5
			c-0.7,2.7-4.2,0.4-5.1,2.9c-1.7,1-2.5,3.6-5.1,2.8c-0.4,2.7-4.7,0-4.7,2.5c-0.6,3.1-3.4-0.7-3.1-2.4
			C235.8,185.8,235.2,185.9,235.1,185.3z"/>
		<path id="Andacollo" class="st0" d="M252.4,229.4l1.8,1.9l2.6,0.9c-0.1,0.7,0.1,1.2,0.8,1.3c1.2,0.1,2.3,0.8,3.1,1.7
			c1.3,1.9,1,2,0.1,2.8c-1.4,1-0.9,0.5-0.2,1.9c0.7,1.4,0.5,0.7,0.2,1.9s0.9,1.2,1.3,0.9c0.9-0.9,2.1,0.5,3.2-0.2
			c3.1-2,2.4-0.6,3.6-0.9l2,5l-3.2,2.7l-3.6-3.3l-1.4-0.2l-0.3,2l-5.6,6.9l0.7,1.9l-7.8,1.5l0.1-1.9l-4.2-2.1l0.2-3.9l-1.1-0.2
			l0.6-5.6l2.4-0.2v-5l-2.3-2.4l0.1-2.1l-0.6-0.6l1.5-1.9h2.5L252.4,229.4z"/>
		<path id="Coquimbo" class="st0" d="M252.4,229.4l-3.5,2.5h-2.5l-1.5,1.9l0.6,0.6l-0.1,2.1l2.2,2.5v5l-2.4,0.2l-0.6,5.6l-1.4-0.4
			l-0.2,0.9l-4.2,1.3l-0.1,2H238c0.5,1,0.6,2.6,1.5,3v2.5l-1.4,0.1c-2.6-1.3-1.8,2.8-2.6,4.2l-2.2,1.8c-0.4,2.5-0.5,6.4-3.1,0.9
			c-1.8,1.2-4.6,4.6-5.3-0.9l-2,0.3l0.2-5.2l-6.5-0.2c-1.3-0.9-2.3-2.4-4.1-2.2l-0.4-3.4c-1.8-0.3-3.2-1.5-5.4-1
			c-0.8,0.2,0.5-2.6,0.7-4c0.3-1.5,0.8-3,1.5-4.3c1.1-1.8,1.2-1.8,1.9-0.9c0.4,0.6,0.7,1.3,0.7,2c0.1,0.8,0.5,1.5,1.1,2.1
			c0.9,0.9,1.4,1,3,0.6c3.2-0.7,5.6-1.1,5.8-3.6l1-2.2c0.9-5.1,0.4-1.9,1.6-5c-0.5-3,1.7-1.6,2.1-0.6s3,0.6,3.9-0.3s1.1-5.6,1.3-5.9
			c-1.1-1.2,0.4-3-0.2-4c-1.5-0.6-0.4-5.2-2.1-5.6c-3.6-0.9-0.4-4.2,0.1-3.6c0.9,1.1,2-1.9,2-1.5c-0.2,2.5,4.1,0.8,0.3-1.2l3.4-2.8
			c-0.9,0.5-1.2,2.1-0.2,2.1c0.5,0,3.5,0,3.5-0.9l3,0.2l3.6,3.1v1h3.7l1.9,2.2l-0.4,6.5l3-1.4l0.2,1.9L252.4,229.4z"/>
	</g>
	<g id="Provincia_Limari">
		<path id="Combarbala" class="st0" d="M264.1,351c0.2-1.2,1.3-2,2.5-1.9c0.8-0.2,0.8-1.3,1.6-1.5c0.9-0.3,1.9-0.4,2.8-0.2
			c0.9-0.2,1.9,0.5,1.3,1.5c-0.2,1.1,0.6,2.2,1.7,2.4c1.1,0.1-0.5,3.9,0.8,3.9c1.3-0.1,2.6,0.5,3.4,1.6c1.2,1.2,1.6-0.6,2.4-1.2
			c1.7-0.2,0.8-1.7,1-2.8c0.4-1.3,2-1.6,2-3c1.3,0,1.1-1.8,2.1-2.4c1.3-0.3,1.7-2.6,3.2-1.3c1,0.6,0,3,1.6,2.7
			c1-0.8,2.6-0.6,3.3-1.8c0.7-1.2,2.3-1.6,3.4-2.5c-0.3-1,0.2-2.1,1.2-2.6l0.2-3.3l-1.3-1.1l0.2-4.8c-1.7-0.8-1.3-2.1-1.6-3.3
			c-1.3,1-2.6,1.8-4.3-0.3l-2.5-3.6c-4.5,0.7-5.6-1.3-5.8-4.2c-1.5,0.2-0.8-0.5-1.6-0.6c-0.8-0.1-1.8-0.6-1.1-1.6
			c-0.4-1.1-1.6-1.8-2.1-2.9c-0.6-1.1,0.9-2.6-0.5-3.4c-0.9-0.6-2.2-0.4-2.8,0.5c0,0-0.1,0.1-0.1,0.2c0.3,0.7,1.5,2-0.1,1.7
			c-1,0-2.2-0.7-1.5-1.9c-0.2-1.3-1.9-0.7-2.8-1c-1.1-1.1-2,0.4-3.1,0.3c-1.1-0.5-2-1.2-2.8-2.1c-1.1-0.6-1.4-1.7-2-2.6
			c-1.1-0.1-2.1,0.5-2.6,1.5c-0.2,1-1.4,1.9-1.7,0.4c-0.5-0.9-0.7-2-0.6-3c-0.6-0.7-2.4-1.3-1.6-2.5c0.2,0.6,1.3-4-4-3.2
			c-1.7-0.1,0.6,2.5-1.3,2.1c-1.4-0.1-3.2,0.5-1.7,1.3c1.4,1.9-1.5,1.9-2.4,2.8c-0.8,0.6-3,0.4-1.5,1.5c0.4,1.1-0.1,3.6-1.6,2.7
			c-1.2,0.1,0.4,3-1.5,1.9s-1.8,2.5-0.5,3.1c1,0.6,1.5,2.5,0.4,3.2c1.1,1.3-0.1,2.7-0.9,3.3c1.3,0.4,2.2,1.4,1.2,2.5
			c0.6,1-0.7,1.7-0.4,2.8c-1.1,0.7,0.4,2.9-1.5,2.4c0.2,1.9-1.5,5.4,4.2,4.4c0.6-0.9,1.9-0.4,2.8-0.6c1.1-0.1,1.8,1,2.8,0.7
			c0.9-0.1,1.3,1,2.3,0.6c0.8,0.4,0.3,1.6,1.1,2.2c-0.1,1,1.6,1.2,0.8,2.2c0.1,1,0.4,2,0.7,3c0.5-0.6,2.4,1,2.1,2.2l0.2,3.5
			c1.1,2.6,3.4,1.9,2.6,4.1C263.9,354.7,263.3,352.1,264.1,351z"/>
		<path id="Ovalle" class="st0" d="M254.1,294.3l-1.6,0.9c-0.6-0.4-1.3-0.9-1.9-1.3c-1.1-1.7-2.9,1.2-3.3-0.6
			c-0.4,1.2-1.5,2.3-2.2,0.5c1.3-1.8-2.4-0.4-2.6-1.8c0.4-0.7,0.4-4.2-0.8-2.5c-0.1,2.1-2.5,1.3-3.2,2.8c-1.3,1-2.3,4.7-4.2,2.5
			c-1.3-1.7-3.6-0.9-3.2,1.3c2.3,1.4,1.3,3.8,1.2,5.9c-0.6,1.9,1,3.6,0.8,5.4c-1.8-0.9-3.4,1-5.4,0.6c-1.3,1.1-2.4,0.4-3.6-0.5
			c-2.1-0.8-3.9,1.3-4.1,3.3c1.5,0.3,1,1.7,0.6,2.8c-0.9,1.3-2.7,3.6-0.2,4.5c-0.3,1.7-2.5,3.6-0.8,5.1c0.8,1.7,1.9-0.5,2.8,0.5
			c1.9,0.8,1.2,2.8,2.1,4c1.8,0.2,1.4,1.5,0.9,2.7c0.6,0.7,0.7,1.7,0.3,2.5s-0.8,1.6-1,2.5c-1-0.1-1.9-1.4-3.2-0.4
			c-0.9-0.8-2.3-0.6-2.5,0.5c-0.5-1.3-2-2-3.3-1.7c0.4,0.3-3.9,8.3-5.5,4.2c-1.3-4-1.4-5-0.9-7.7c0.4-1.5,0.4-3.2,0-4.7
			c-0.5-1.5-0.4-3.4,0.4-7.5c0.3-1.3,0-2.5-1-4.7c-0.8-1.9-1.4-3.9-1.7-5.9c-0.2-1.6-0.5-3.2-0.9-4.7c-0.5-1.7-2.8-10.9-1.6-12.5
			c1.6-2,0.5-4-0.4-7.6c-0.4-1.9-0.4-3.9,0-5.8c0.8-2.2,1-4.5,0.7-6.9c-0.4-2.7,0.6-6.9,0.8-9.6c0.2-1.7,0.4-3.5,0.3-5.2
			c-0.2-0.2,0-0.9,0.6-1.7c2.4-0.5,3.8,0.7,5.6,1l0.4,3.4c1.9-0.2,2.8,1.3,4.1,2.2l6.5,0.2l-0.2,5.2l2-0.3c0.7,5.4,3.5,2.1,5.3,0.9
			c2.6,5.5,2.7,1.7,3.1-0.9l2.2-1.9c0.9-1.4,0-5.4,2.6-4.2l1.4-0.1v-2.5c-0.9-0.3-1-1.9-1.5-3h0.7l0.1-2l4.2-1.3l0.2-0.9l1.4,0.4
			l1.1,0.2l-0.2,3.9l4.2,2.1l-0.1,1.9l7.8-1.5l1.6,4.6l-2.3,2.6c3.5,2.1,3.1,4.9,4.6,7.5l1.7,0.7l6.2-1.7l-0.2-3c2,1,2.5,0,3-0.9
			l1.3,2.9l2.8,1.6c-2-0.1-3.6,1.4-3.7,3.4c-1.5-0.9-3.7,0.6-5.5,1.3c-2.5,1.3,0,4.9-2.6,6.2c-1.3-0.9-3.9-1.1-3.5,1.3
			c1.9,1.5,0.4,3.2-0.7,4.4l-0.2,2.3L254.1,294.3z"/>
		<path id="Rio_Hurtado" class="st0" d="M276.1,270.8c1.5-1.2,3.9,0.1,5-2c2.2,0.9,4.7,0.1,6-1.8c2,1.3,1.5-3.3,3.3-1.2
			c1.9,0.5,4.2,2.5,6,0.5c0.9-0.9,2.4-0.9,3.3,0c0.2,0.2,0.4,0.5,0.5,0.7c1.7,0.6,3,1.9,2.8,3.5c1.8,2.5,5.5-0.2,7,2.3
			c1.3,1.7,0.4,4.9,2.6,5.9c2.2-0.8,3.2,1.8,4.7,2c1.9-0.8,2.5,2.6,4.7,1.4c1.4,0,0.7,1.9,2.1,2c1.4,0.1,1.3,2.9,1.4-0.2
			c0.1-3.1,0.2-6.1,2.5-8.6c1.8-2.5,2.9-6.6,2.7-7.4c-0.2-0.8-0.8-1.5-0.2-2.4c-0.3,0.5-0.9-1.1-2.3-0.8c-1.4,0.3-2.4-1-3.7-1.4
			c-1.3,0.1-3-0.9-1.9-2.4c0.7-0.4,0.9-1.2,0.5-1.9c-0.2-0.3-0.4-0.5-0.7-0.6c-1.2-1-2.8-1.4-4.4-1.1c-1,0.9-1.7,2.2-3.1,2.5
			c-1.2,0-2.4-0.7-3.6-0.9c-2,0-0.9-2.6-2.3-3.2c-1-0.4-2.7-0.1-3.1-1.5c-1.6-1.6,1.7-1.7,0.6-2.9c-1.1-0.6-2.6-0.8-3.4-1.8
			c-0.3-1.7-1.2-3.1-1.7-4.7c-1.2-1.2,0.4-2.1-0.2-3.4c-0.6-1.3-1-2.5-1.5-3.8s-1-0.5-1.4-1.1c0.2,0.3,0.5,2.4-0.4,2.6
			c-2.8,0.6-2.2-0.5-2.8-0.6c-1.2-0.1-2.4-0.1-3.6,0c-2.4,0-1.4,1.3-2.4,1.3c-1,0.2-1.9,0.8-2.5,1.7c-0.6,0.6-2.7,0.3-3.4-0.2
			c-1.6-1.2-0.4-0.1-1.9-0.2c-3.7-0.4-3.7,1.1-3.7,1.2c-0.1,0.8-0.1-0.6-1.8-1.1c-1-0.3-1.9-0.4-2.9-0.3c-2.5,0,0-0.4-1.7-1.3
			c-0.5-0.3-1.8-0.9-2.8,0c-0.5,0.4,0.6,1.8,0,1.9l2,5l-3.2,2.7l-3.6-3.2l-1.4-0.2l-0.3,2l-5.6,6.9l0.7,1.9l1.6,4.6l-2.3,2.6
			c3.5,2.1,3.1,4.9,4.6,7.5l1.7,0.7l6.2-1.7l-0.2-3c2,1,2.5,0,3-0.9l1.3,2.9L276.1,270.8z"/>
		<path id="Monte_Patria" class="st0" d="M262.4,295.9c1.5-0.6-1.9,2.4-0.9,2.7c0.5,0.6,0.5,1.5,0,2.1c-0.7,1-1.7,1.7-2.9,2
			c-1.1-0.1-2.2,0.5-2.6,1.5c-0.8,1.2,1,1.7,1.6,2.5c-0.1,1,0.1,2.1,0.6,3c0.3,1.5,1.5,0.6,1.7-0.4c0.5-1,1.5-1.6,2.6-1.5
			c0.6,0.9,0.9,2,2,2.6c0.8,0.8,1.8,1.5,2.8,2.1c1.1,0.1,2-1.4,3.1-0.3c0.9,0.4,2.6-0.2,2.8,1c-0.7,1.1,0.5,1.8,1.5,1.9
			c1.6,0.4,0.5-1,0.1-1.7c0.5-1,1.8-1.3,2.7-0.7c0.1,0,0.1,0.1,0.2,0.1c1.3,0.9-0.2,2.4,0.5,3.4s1.7,1.7,2.1,2.9
			c-0.6,0.9,0.3,1.5,1.1,1.6c0.8,0.1,0.2,0.8,1.6,0.6c0.2,2.8,1.3,4.9,5.8,4.2l2.5,3.6c1.7,2.1,3,1.3,4.3,0.3
			c0.3,1.1-0.1,2.5,1.6,3.3l-0.2,4.8l1.3,1l-0.2,3.3l4.3,1.5c1.1-1.9,1.7-4.2,1.5-6.4c-0.7-6.6,0.8-9.5,3-10.6c0.8-0.4,1.8-4,2-2.4
			c0.1,0.9,1.7,3.9,3.1,4.4c1.4,0.5-0.6,2.8,1.5,1.9c4-1.5,1.8-2.2,2.5-4.5c1-2.5,2.5-4.7,4.4-6.6c1.3-0.9,3.5,0.6,3.6-0.8
			c0.1-1.1-0.4-1.2-1.2-1.9c-1.7,1.9-0.6-3.2-2-5.4c-2,0-2.4-2.3-0.5-3.9c1.3-1,0.4-4,1.2-6.6c0.5-1.7,1.4-3.2,0.9-4.4
			c-0.3-0.6-0.2-1.4,0.2-1.9c0.4-0.4,0.6-1,0.6-1.6c0.4-1.2,1-2.3,1.8-3.3c1-1.8,0-3.2,0.4-5.3c-0.2,3.1,0,0.2-1.4,0.2
			c-1.4,0-0.7-2.1-2.1-2c-2.2,1.2-2.8-2.2-4.7-1.4c-1.5-0.2-2.5-2.8-4.7-2c-2.2-0.9-1.4-4.2-2.6-5.9c-1.5-2.5-5.3,0.2-7-2.3
			c0.2-1.6-1.1-2.8-2.8-3.5c-0.5-1.2-1.8-1.8-3-1.3c-0.3,0.1-0.6,0.3-0.8,0.5c-1.9,2-4,0.1-6-0.5c-1.9-2.1-1.3,2.4-3.3,1.2
			c-1.4,2.1-3.6,2.5-6,1.8c-1,2.1-3.4,0.8-5,2c-2-0.1-3.6,1.4-3.7,3.4c-1.5-0.9-3.7,0.6-5.5,1.3c-2.5,1.3,0,4.9-2.6,6.2
			c-1.3-0.9-3.9-1.1-3.5,1.3c1.9,1.5,0.4,3.2-0.7,4.4l-0.2,2.3l-5.7,4.6C255.2,298.1,258.1,298.4,262.4,295.9z"/>
		<path id="Punitaqui" class="st0" d="M225.5,333.1c0.7-0.7,2,1.5,3.4,1.4c0.4-1.3,2.4-2.5,3.7-1.3c1.1-0.2,1.8-2.1,3.3-1.8
			c1.5-0.1,3-0.6,4.5-0.9c1.9,0.5,0.4-1.6,1.5-2.4c-0.4-1.1,0.9-1.7,0.4-2.8c1-1.2,0-2.2-1.2-2.5c0.8-0.6,1.9-2.1,0.9-3.3
			c1.1-0.7,0.6-2.5-0.4-3.2c-1.3-0.6-1.5-4.2,0.5-3.1s0.3-1.8,1.5-1.9c1.4,0.9,1.9-1.5,1.6-2.7c-1.6-1,0.7-0.9,1.5-1.5
			c0.9-1,3.8-1,2.4-2.8c-1.5-0.9,0.3-1.5,1.7-1.3c1.9,0.4-0.4-2.3,1.3-2.1c5.2-0.7,4.1,3.9,4,3.2c0.5-1,1.5-1.6,2.6-1.5
			c1.2-0.3,2.2-1,2.9-2c0.5-0.6,0.5-1.5,0-2.1c-1-0.3,2.4-3.3,0.9-2.7c-4.2,2.5-7.1,2.2-8.2-1.6l-1.6,0.9c-0.6-0.4-1.3-0.9-1.9-1.3
			c-1.1-1.7-2.9,1.2-3.3-0.6c-0.4,1.2-1.5,2.3-2.2,0.5c1.3-1.8-2.4-0.4-2.6-1.8c0.4-0.7,0.4-4.2-0.8-2.5c-0.1,2.1-2.5,1.3-3.2,2.8
			c-1.3,1-2.3,4.7-4.2,2.5c-1.3-1.7-3.6-0.9-3.2,1.3c2.3,1.4,1.3,3.8,1.2,5.9c-0.6,1.9,1,3.6,0.8,5.4c-1.8-0.9-3.4,1-5.4,0.6
			c-1.3,1.1-2.4,0.4-3.6-0.5c-2.1-0.8-3.9,1.3-4.1,3.3c1.5,0.3,1,1.7,0.6,2.8c-0.9,1.3-2.7,3.6-0.2,4.5c-0.3,1.7-2.5,3.6-0.8,5.1
			c0.8,1.7,1.9-0.5,2.8,0.5c1.9,0.8,1.2,2.8,2.1,4c1.8,0.2,1.4,1.5,0.9,2.7C226.1,331.1,226.1,332.2,225.5,333.1z"/>
	</g>
	<g id="Provincia_Choapa">
		<path id="Canela" class="st0" d="M220.6,388.3c-0.3-1.2-0.5-2.5-0.7-3.7c-0.4-2.6-0.5-5.5-1-6.6c-0.4-0.7-2.7-1.7-2.1-2.7
			s2-2.9,1.1-4.5c-1.2-2.3-0.6-4.7-0.9-5.4c-2.7-6.9-4.5-12.1-3.7-14.3s0.5-2.8-0.8-2.8c-0.9,0.1-0.8-2.4-0.8-3.6
			c-0.2-2.3-0.7-4.6-1.5-6.8c1.6,4,6-4,5.5-4.2c1.4-0.4,2.8,0.3,3.3,1.7c0.2-1,1.5-1.3,2.5-0.5c1.2-1,2.1,0.2,3.2,0.4
			c0.2-0.8,0.5-1.5,0.9-2.3c0.7-0.6,2,1.7,3.4,1.6c0.4-1.3,2.4-2.5,3.7-1.3c1.1-0.2,1.8-2.1,3.3-1.8c1.5-0.1,3-0.6,4.5-0.9
			c0.2,1.9-1.5,5.4,4.2,4.4c0.6-0.9,1.9-0.4,2.8-0.6c1.1-0.1,1.8,1,2.8,0.7c0.9-0.1,1.3,1,2.3,0.6c0.8,0.4,0.3,1.6,1.1,2.2
			c-0.1,1,1.6,1.2,0.8,2.2c0.1,1,0.4,2,0.7,3c0.5-0.6,2.4,1,2.1,2.2l0.2,3.5c-5.7-0.8-3.8,2.8-4.1,5.1l0.2,4l-2.6-0.3
			c-0.4,1.7-0.6,3.4-2.6,4.2c-1.2-1.7-2.3-4-3.9-0.9h-2.3c-0.8,1.7-2.3,3.2,0,5.3h2c1.9,0.4,1.6,2.1,1.5,3.7l-0.2,1.7l-1.5,1.3
			l1.7,3.2c-4,1.5-4.6-1.9-7.9,0.6l-5-0.8v5.3l2.6,2.6c1.2,0.9,3,0.6,3.1,3.2v4c-0.6,2.3-3.6,0.6-4.2,2.6c-1.9-0.4-1-1.8-0.9-3
			c0-3.3-2.3-3.1-4.3-3.2l-0.8-3c-2.8-3-3-0.5-3,2.2C223.5,386.6,221.9,387.2,220.6,388.3z"/>
		<path id="Los_Vilos" class="st0" d="M220.6,388.3c0.1,0.5,0.4,1,0.6,1.4c2.1,1.5,3,3.9,1.3,6.1c-0.5,1.7-4.7,5.4-0.9,5.4
			c3.5,0.3,1.9,3,1,5.1c-1.1,2.5,1.5,4.1,1.7,6.1c-1.5,2.3-1.2,5-1.3,7.5c0.1,2.2-0.9,4.8,0.4,6.8c-0.3,1.2-0.8,2.3-1.3,3.4
			c0.1,1.4-0.4,3.2,1.3,3.9c1.9-0.2,3-2,4.3-3.2c2.2,0.9,4.5,1.9,6.7,2.7c3.1,1.3,6.6,0.5,9.5-1.1c0.6-1.8,2.7-2.4,3.6-4.3
			c0.4-2.4,2.4-1.4,3,0.3c1.9,3.1,4.8-0.6,6.5-2.1c1.7-2.4,4.2-3.6,5.9-5.9c1.7-0.9,1.9-2,0.3-3.2c-0.4-3.3,3.8-1.3,5.8-1.3
			c-1-0.9,0.4-1.7,0.3-2.2c-1.5-0.9-0.6-2.6-0.5-4c0.5-2.5-2.8-2.8-4.5-3.7c-0.7-2.2-3-1.6-4.9-1.9l-0.5-2c-2.1-0.4-4.3,0.1-6,1.5
			c-2.2-1.4-4.1-3.1-5.8-5c0-2.5-3.7-1.1-4.1-3.7c-0.8-2.1-2.3-2.8-4.2-4c-0.8,2-3.8,1.3-4.8,2.7c-1.9-1.3,0.7-5.5-2.7-5.9
			c-1.6,0.1-2.7-0.3-2.7-2c0-1.3-1.7-3-2.8-2.2c-0.7,1.7,0.2,3.9-2.4,3.4C222.3,387.1,221.4,387.6,220.6,388.3z"/>
		<path id="Salamanca" class="st0" d="M269,416c-1-0.9,0.4-1.7,0.3-2.2c-1.5-0.9-0.6-2.6-0.5-4c0.5-2.5-2.8-2.8-4.5-3.7
			c-0.7-2.2-3-1.6-4.9-1.9l-0.5-2l-0.2-2.4c-0.4-1.3-1.2-2.4-0.6-3.8c-0.6-1.3,1.1-2.1,0.2-3.4c1.3-1.8,0.5-3.7,0-5.5
			c-0.1-1.8,1.7-3.6,3.4-4.1c0.8-0.2,3.3,0.2,1.6-0.9c-0.9-1.5,1.1-2.4,2.2-2.4c1.2,1.1,3.5,2.8,4.9,1.3c-0.2-1.9,1.4-1.4,2.4-0.6
			c1.8-0.3,3.7-1.5,4-3.4c1.3-0.4,2.2,1.3,3.4,0.2c1.7,0.5,3.5-0.4,4.1-2c1-0.5,1.8-0.7,2.3,0.5c1.5-0.5,2.5,1.5,3.6,1.1
			c0.6-1.9,3-0.9,4-2.4c1.7-0.8,1.1-3.5,2.7-4.6c-0.7-1.2,0.3-4.3,2-2.4c1.3,3.5,1.5-0.5,2.4,0.8c-0.9,7.4-1.3,5.2,1.7,6.1
			c-0.9,0.7,2.6,3.3,2.3,5.9c0,0.8,0.7,1.4,1.5,1.4c0.1,0,0.2,0,0.2,0c1.7-0.3,3.2,2.9,2.6,5.1c-0.5,1.2-0.5,2.6-0.1,3.8
			c1.8,5.2-1.1,5,0.8,6.2c0.6,0.4,1.9,0.2,2.6,1c1.7,2.1,4.5,3.2,7.2,2.8c6.5-1.1,4.1,0.7,5.9,2.1c1.5,1.2,1.7,1.8,2.6,2.5
			c2.5,1.8,1.9,5,0.3,5.1c-0.9,0-1.2,2.8-1.5,3.2c-1.1,1.6-2.8,3.6-4,3.7c-0.6,0-2.8-1.3-3.4-0.9c-0.2,0.1-0.4-2-0.8-2.1
			c-4.6-0.3-3.6,2.3-2.4,2.5c3,0.5,3.4,2.3,3.3,2.5c-1.1,1.7-0.7,4.5,1.7,4.9c1.6,0.3,1.6,1.1,0.5,5.1c-0.7,2.6,1.3,4,0.9,5.2
			c-0.6,1.8-1.3,3.1-3.8,3.7c-0.8,0.2-3.5,1.5-4.1,1.7c-1.7-0.6-1-3.5-1.1-5.1c0-0.8-2-0.5-2.5-0.9c0.1-2.2,1.7-5.4,0.2-6.6
			l-2.8-0.9c-1.6-0.5-3.4-2.3-3.3-1.5c1,4.5,0.2,2.1-5.1,1.3c-2.3-1.2-4.9-2.9-4.5-2.8c1.4,0.1-2.4-2.8-1.1-3.9
			c3.4-2.9-2.4-4.4-1.9-3.1c0.5,1.1-1.8-0.5-1.9-1.7c-0.2-1.6-2.5-2-4.2-0.7c-0.8,0.5-1.6,0.8-2.5,0.8c-1.7,0.3-3.4,0.8-5,1.7
			c-1,1.5-3,1.2-5.7,2.2c-0.3,2.7-1.6,0.6-2.9-1.5C270.3,416.3,269.7,416,269,416z"/>
		<path id="Illapel" class="st0" d="M259,402.1c-2.1-0.4-4.3,0.1-6,1.5c-2.2-1.4-4.1-3.1-5.8-5c0-2.5-3.7-1.1-4.1-3.7
			c-0.8-2.1-2.3-2.8-4.4-3.9l-0.2-3.9c-0.1-2.7-1.9-2.4-3.1-3.2l-2.6-2.6V376l5,0.8c3.3-2.5,3.9,0.9,7.9-0.6L244,373l1.5-1.3
			l0.2-1.7c0-1.5,0.4-3.4-1.5-3.7h-2c-2.3-2.1-0.8-3.6,0-5.3h2.2c1.6-3.1,2.7-0.8,3.9,0.9c2-0.9,2.3-2.5,2.6-4.2l2.6,0.3l-0.1-4
			c0.3-2.3-1.5-5.9,4.1-5.1c1.1,2.6,3.4,1.9,2.6,4.1c3.8,1.9,3.1-0.7,4-1.8c0.2-1.2,1.3-2,2.5-1.9c0.8-0.2,0.8-1.3,1.6-1.5
			c0.9-0.3,1.9-0.4,2.8-0.2c0.9-0.2,1.9,0.5,1.3,1.5c-0.2,1.1,0.6,2.2,1.7,2.4c1.1,0.1-0.5,3.9,0.8,3.9c1.3-0.1,2.6,0.5,3.4,1.6
			c1.2,1.2,1.6-0.6,2.4-1.2c1.7-0.2,0.8-1.7,1-2.8c0.4-1.3,2-1.6,2-3c1.3,0,1.1-1.8,2.1-2.4c1.3-0.3,1.7-2.6,3.2-1.3
			c1,0.6,0,3,1.6,2.7c1-0.8,2.6-0.6,3.3-1.8c0.7-1.2,2.3-1.6,3.4-2.5c-0.3-1,0.2-2.1,1.2-2.6l4.3,1.5c-0.9,1.3-0.6,4.5,0.9,7.2
			c0.3,0.6-2.2,4.3-2.8,6.2c3,3.4-2,0.6,0.5,11.5c-1-1.2-1.1,2.7-2.4-0.8c-1.7-1.9-2.7,1.2-2,2.4c-1.5,1.1-0.9,3.8-2.7,4.6
			c-1.1,1.5-3.4,0.5-4,2.4c-1,0.4-2.1-1.6-3.6-1.1c-0.5-1.3-1.3-1-2.3-0.5c-0.7,1.6-2.4,2.5-4.1,2c-1.3,1.1-2.2-0.6-3.4-0.2
			c-0.2,1.9-2.1,3.1-4,3.4c-1-0.8-2.6-1.3-2.4,0.6c-1.4,1.5-3.8-0.2-4.9-1.3c-1-0.1-3.1,0.9-2.2,2.4c1.7,1.2-0.8,0.8-1.6,0.9
			c-1.7,0.5-3.5,2.3-3.4,4.1c0.5,1.9,1.3,3.8,0,5.5c1,1.2-0.7,2.1-0.2,3.4c-0.5,1.4,0.3,2.5,0.6,3.8L259,402.1"/>
	</g>
	<g id="Limites">
		<path id="Region_Valparaiso" class="st0" d="M323.2,433.9c-0.7,2.1-1.4,3.4-3.9,4c-0.8,0.2-3.5,1.5-4.1,1.7
			c-1.7-0.6-1-3.5-1.1-5.1c0-0.8-2-0.5-2.5-0.9c0.1-2.2,1.7-5.4,0.2-6.6l-2.8-0.9c-1.6-0.5-3.4-2.3-3.3-1.5c1,4.5,0.2,2.1-5.1,1.3
			c-2.3-1.2-4.9-2.9-4.5-2.8c1.4,0.1-2.4-2.8-1.1-3.9c3.4-2.9-2.4-4.4-1.9-3.1c0.5,1.1-1.8-0.5-1.9-1.7c-0.2-1.6-2.5-2-4.2-0.7
			c-0.8,0.5-1.6,0.8-2.5,0.8c-1.7,0.3-3.4,0.8-5,1.7c-1,1.5-3,1.2-5.7,2.2c-0.3,2.7-1.6,0.6-2.9-1.5c-0.4-0.5-1-0.8-1.7-0.8
			c-1.1,0.1-6.4-1.6-5.5,0.4c-1.2,1.5,1.5,2,1,3c-1.9,1.1-2.3,2.2-3.2,3.3c-1,0.1-2.1,1.2-3.5,3.1c-2.3,2-4.4,4.1-5.6,4.1
			c-0.6,0-1.5-0.7-2-1.7c-1.2-2-1.7-2.2-2.6-0.3c-1.4,3-3.5,2.5-3.2,3.8c0.2,0.9-3.9,2.4-6.3,2.5c-1.6,0.1-4.3-0.8-7.9-2.4l-2.6-1.1
			l-1.2,1.2c-3.3,3.3-3.5,1.7-4.3,0.6"/>
		<path id="Internacional" class="st0" d="M349.1,168.4c2.1-0.2,0.7,2.1,1,3.2s1,1.1,1.5,2.3c0.6,1.5,0.2,3-0.1,5.7
			c-0.4,3.9-0.6,4.1,3.4,7.5c2.1,1.5,2.6,4.5,1,6.6c-0.1,0.1-0.1,0.2-0.2,0.2c-2.5,3.5-2.1,4.2-0.6,3.8c0.6-0.2,0,2.5,0,3.2
			s1.5,1.8,1.1,2c-0.2,0.1-0.5,4.5-2.1,6.7c-0.6,0.8,2.8,1.6,0.2,4.1c-1,1.2-1.5,2.8-1.1,4.3c0.4,1.8-0.8,3.5-1.8,4.7
			c-1.7,2-2.8,0.4-0.6,3c0.4,0.4-1.3,4.8,3.1,1.1c1.3-1.1,3.5-0.1,3.7,0.7c0.3,1.1,2,2.4,3.3,1.6c1.8-1.1,3,3.3,1,3.3
			c-1.5,0-1,1.3-0.6,2.1c0.3,0.6-0.5,2.1-1.1,3.3c-0.8,1.6-2.5,0.5-3.6,0.6c-1.1,0.1-0.1,2.8,0,3.8c0.1,0.7-0.7,1.5-1.2,2.6
			c-1.5,3.3-0.9,4.1,0.1,5.5c1.1,1.7-0.5,1.4-2.5,1.4c-0.7,0-2.4,2.4-3.2,3.4c-1.3,1.3-1.1-0.2-2.4-0.5c-0.9-0.2-2.7,1.1-3,1.5
			c-0.5,0.9-3.5-0.1-4.5-1c-0.4-0.4-1.9-2.4-2.7-3.2c-1.9-0.7-2.8-0.9-3.2-0.6c-1.2,1,0.8,3,1.9,4.6c1.5,3.6,0.6,6.2-3.3,8
			c-0.8,0.3-1.5,0.8-2,1.5c-0.6,0.9,0.1,1.6,0.2,2.4c0.1,0.8-0.9,4.9-2.7,7.4c-2.3,2.5-2.3,5.5-2.5,8.6c-0.5,2,0.6,3.4-0.4,5.3
			c-0.8,0.9-1.4,2.1-1.8,3.3c0,0.7-0.2,1.5-0.6,1.6c-0.5,0.5-0.6,1.3-0.2,1.9c0.5,1.2-0.4,2.6-0.9,4.4c-0.8,2.7,0,5.7-1.2,6.6
			c-2,1.5-1.6,3.9,0.5,3.9c1.4,2.2,0.3,7.3,2,5.4c0.8,0.7,1.3,0.7,1.2,1.9c-0.1,1.4-2.2-0.1-3.6,0.8c-1.8,1.9-3.3,4.2-4.3,6.7
			c-0.7,2.4,1.4,3-2.5,4.5c-2.1,0.9-0.1-1.4-1.5-1.9c-1.4-0.5-3-3.4-3.1-4.4c-0.2-1.6-1.2,2-2,2.4c-2.2,1-3.8,4-3,10.6
			c0.2,2.2-0.3,4.5-1.5,6.4c-0.9,1.3-0.6,4.5,0.9,7.2c0.3,0.6-2.2,4.3-2.8,6.2c3,3.4-2,0.6,0.5,11.5c-0.9,7.4-1.3,5.2,1.7,6.1
			c-0.9,0.7,2.6,3.3,2.3,5.9c0,0.8,0.7,1.4,1.5,1.4c0.1,0,0.2,0,0.2,0c1.7-0.3,3.2,2.9,2.6,5.1c-0.5,1.2-0.5,2.6-0.1,3.8
			c1.8,5.2-1.1,5,0.8,6.2c0.6,0.4,1.9,0.2,2.6,1c1.7,2.1,4.5,3.2,7.2,2.8c6.5-1.1,4.1,0.7,5.9,2.1c1.5,1.2,1.7,1.8,2.6,2.5
			c2.5,1.8,1.9,5,0.3,5.1c-0.9,0-1.2,2.8-1.5,3.2c-1.1,1.6-2.8,3.6-4,3.7c-0.6,0-2.8-1.3-3.4-0.9c-0.2,0.1-0.4-2-0.8-2.1
			c-4.6-0.3-3.6,2.3-2.4,2.5c3,0.5,3.4,2.3,3.3,2.5c-1.1,1.7-0.7,4.5,1.7,4.9c1.6,0.3,1.6,1.1,0.5,5.1c-0.7,2.6,1.3,4,0.8,5.5"/>
		<path id="Region_Atacama" class="st0" d="M349.5,168.4c-4.4,0-8.4,4.1-12.9,2.1c-1.7,2-3.2-1.3-5.4-0.7c-2-3.5-4.2-6.9-6.6-10.1
			c-2.4-3.5-6.3-5.2-10.5-3.2c0.6,5.7-8.7-0.2-7.2-2.3c1.3-2.3,3.2-3,0.3-4.7c-2.6-2.6,1.7-6.8-2.7-9.3c2.7-4.6-4.2-7-4-11.3
			c1.2-1.8,1.2-3.9,0-4.5c-0.8-0.4-2,0.1-3.4,0.5c-2.1,0.2-1.7-1.4-2.5-1.4c-0.6,0-3,1.5-4.3,1.8c-1.5-0.8-7.9,0.2-4.8,2.6
			c-0.6,3.9-0.4-0.1-7.8,6.4c-1.9,0.6-3.8,0.7-5.8,0.2c-2.1-0.5-3.3-1.2-4.1,1.6c-2.2,1.2-5.4,0.7-3.1,4.3c-4.6,3.6,1.3,7.3-3.5,9
			c0.7,3.5-4.1,8.2-6.8,6c1.1-2.4,0.1-5.5-1.8-5c-1.5,0.4-3.2,1.3-4.1-0.2c-4.1,0.4-2.3-7.4-3.6-10.6c-4-0.7-8.1,1.9-10.2-2.6
			c-2.3-1.3-4.5-1.5-5.6,1.5c-0.5,3.7-6.8,1.1-9.4,1.5"/>
	</g>
</g>
<g>
	<g>
		<defs>
			<circle id="SVGID_1_" cx="300" cy="300" r="277.6"/>
		</defs>
		<clipPath id="SVGID_2_">
			<use xlink:href="#SVGID_1_"  style="overflow:visible;"/>
		</clipPath>
		<g class="st1">
			<g id="Region_Atacama-2" class="st2">
				<g id="Provincia_Chanaral">
					<path id="atacama" class="region" d="M474.9-249.7c0,0.2-0.1,0.5-0.1,0.8C474.9-249.1,475-249.4,474.9-249.7z
						 M474.8-248.8c-0.9,1.5-5.2,1.4-8,2c-5.1,3.6-10.2,12-15.3,7.5h-7.2c-3.5,1.9-6,1.8-7.5-0.4l-4.5,0.4c2,2,3.3,3.9,0.4,4.9
						c3.2,4.3,2,8-1.8,11.2l-5.7,3.3c4.4,0.9,4.6,3.4,4.1,6.3c2.1,2.8,6.5,6.4,1.2,6.4c0.8,2.1,0.4,4.3-3.8,6.4
						c-1.8,3.6-3.8,7-15.4,6.7l-11.2,4.6c-1.5-3.4-3-2.7-4.5-2.3c0.2,2.4-2.5,1.7-5.2,1.1c0.4,2.7-0.1,4.3-2.6,3l0.7,4.9
						c-8-2.6-18.3,0.2-19.9-2.9c-4.5,0.1-10,1.8-12.7-0.8l-1.9,3.4c-3.9-2.4-5.8-4.2-6.7-5.6c-3.4,0.8-7.5,1.3-9,3l-4.1,2.9
						l-10.1-1.4l-5.6-1.1c0.4-5.2-3.7-3-6-3.8c0.1,10.2-5.8,5.4-9.3,6.7c-2.9,3.5-6,6.7-12.8,5.3c-1.7,4.4-3.6,9.4-6.3,7.1
						c-2.5,3.7-0.6,4.1-0.1,5.6c2,0.8,3.1,2.7,0.7,3.9c-0.5,1.7,2.5,3.1,0.5,4.6c-0.5,2.3,2.8,3.7,1.5,6.1c-1,1-3.3,2.8-0.7,3.4
						c2.1-0.1,3.4,1.3,3.3,3.4c0.9,2.8-4.1,0.8-3.5,3.5c0.8,1.9-2.6,0.7-2.1,3c-1.9,1.6,2,3.1,0.4,5c-1.1,1.5-1.8,3.3-1.8,5.2
						c0.1,1.8,1,3.5,2.3,4.8c1.1,1.6,0.3,3.7-1.7,3.5c-0.3,1.6,0.9,4.6-1.6,4.7c-0.1,0-0.1,0-0.1,0c0.7,0.9,0.6,2.1-0.2,2.8
						c-1.6,1.8-4.4,4.3-1.5,6.4c2.9,3-2.3,1.2-2.5,2.9c-0.6,3.6-2.7,6.8-4.1,10.1c-2.8,2.6,2.3,5.3,2,8c-2.9,2.2,2.5,0.6,1.1,2.9
						c-3.4,2.5-1.3,6.8-4.2,9.2c-2.6,1-1.4,3.9-3.4,5.2c-2.3,4.4-5.6-3.9-7.1-0.7c-0.2,2.7-4.9,6.4-1.4,8.4c3.8,1-0.2,3.6,1.3,5.8
						c2.4,2.1,3.8,6.4,0.2,8.2c-3.1,3.1,2.6,5.4,2.5,8.2c0.5,3.1,4.9,5.1,3.7,8.7c-1.1,3.5-1.6,7.1-1.5,10.8
						c-3.4-0.1-0.4,4.2-3.3,4.1c-2.5-0.2-1.8-0.8-1.2,1c-1.2-3-2.8,2.7-3.6,1.5c-2.1-0.9-3.1-5.5-2.9-3.2c-0.5,1.3,0,5.2-0.7,6.5
						c-1.5,2.8-4,7-3.8,10.4c-3.8,1.8-1,5.4-2.9,8.4c1.7,1.9-0.8,3.6-0.9,5c-1.6,1.1-1.2,2-1.4,4.1c1.4,2.8-0.7,5.4,0.1,6.9
						c-0.6,1.6-3.2,2.9-2.8,4.6c1.5,0.4,2.5,0.4,1.8,2c0.4,1.6-1.8,4-0.2,4.8c1.2,1.5-0.1,3.5-0.4,5.2s0,4.2-1.6,5.3
						c-1.8-0.4-1.3,1.1-0.2,1.7c1.1,1.4,4.3,3.8,1.7,5.4c-2.5,0.8-0.6,3.1-1.8,4.7c0.2,1.9-1,2.5-2.1,3.7c-1,1.6-3,2.2-2.8,4.3
						c-1.3,0.1-1.7,0.7-0.5,1.5c1.9,1.8,0.1,5.5-2.6,4.7l-1.6,1.8c0.2,0.4,0.5,0.7,0.9,0.9h0.1V79c0.6,0.9,0.7,2.2,1.7,2.9
						c1.7,0.2,0.2,1.6,0.1,2.5c1,2.5-2.5,2.9-2.8,5.5c-1.3,1.7-1.6,3.8-3.1,5.3c-2.2,1.2-2.1,3.9-3.6,5.5c-1.2,2-4.4,0.5-4.9,2.8
						c-0.8,2.2-4.2,1-4.7,3.8c-1.2,1.9-2.5,4.3-1.4,6.6c1.7,0.9,0.8,2.7,0.1,4c-1,2.5,1.3-0.1,2,1.3c0.9,1.5,2.8,3.3,1.6,5.2
						c1.6,1.3,1.8,3.2,0.1,4.4c2.3-0.7,4.6,2.8,1.8,3.9c-2.7-0.5-3.3,3.2-1,4.3s-2.2,1.9,0.4,1.5s8.9,2.3,9.4-1.5
						c1.1-3.1,3.3-2.9,5.6-1.5c2.2,4.5,6.3,1.9,10.3,2.6c1.4,3.3-0.4,11.1,3.7,10.8c0.9,1.4,2.6,0.6,4.1,0.2c1.9-0.5,3,2.5,1.8,5
						c2.7,2.3,7.6-2.5,6.9-6c4.8-1.6-1.2-5.3,3.5-9c-2.3-3.6,0.9-3.1,3.1-4.3c0.9-2.8,2-2.1,4.2-1.6c1.9,0.4,3.9,0.3,5.8-0.3
						c7.4-6.5,7.2-2.5,7.8-6.4c-3.1-2.4,3.3-3.4,4.9-2.6c1.4-0.3,3.7-1.8,4.4-1.8c0.8,0,0.4,1.6,2.5,1.4c1.5-0.4,2.7-0.9,3.5-0.6
						c1.2,0.6,1.1,2.7-0.1,4.6c-0.2,4.3,6.7,6.7,4.1,11.4c4.5,2.5,0.1,6.8,2.7,9.4c2.9,1.7,1,2.3-0.3,4.7c-1.5,2.2,8,8.1,7.3,2.3
						c4.2-2.1,8.1-0.4,10.5,3.1c2.4,3.3,4.7,6.7,6.7,10.2c2.2-0.6,3.8,2.7,5.5,0.7c4.5,1.9,8.5-2.6,13-2.5c1.3,0,1.5-2,0.4-4.2
						c-0.6-1.2-1-2.6-1.2-4c0-1-0.5-2-1.3-2.7c-3.4-2.4-2.2-8.9,2.1-11.1c2-1.1,2.2-1.4,1.9-3.9c-0.3-2.5-0.1-3.1,2.3-5.3
						c3.3-3.1,5.2-4.1,7.9-4.1c2.7,0,3.5-1.4,3.1-5.6c-0.3-2.2,0.1-4.5,1.2-6.4c1.1-2.2,1.6-4.7,1.4-7.1c-0.2-2.7,0.4-5.4,1.7-7.7
						c1.1-2.2,2-4.4,2.8-6.7c0.9-2.9,0.8-3.2-0.7-4.8c-1.3-1.4-1.6-2.3-1.3-4.5c0.5-3.4,2.1-7.7,3.6-9.4c1.9-2.2,2.7-9.1,1.3-11.7
						c-0.5-0.9-0.3-1.7,0.7-3.1c0.7-0.8,1.1-1.9,1-3c-0.3-0.8,0.2-1.4,1.7-1.9c1.2-0.5,2.2-1.3,2.9-2.5c0.7-1.1,1.6-2.1,2.8-2.6
						c2.1-1,6.7-9,6.7-11.6c0-1.9,1.9-2.3,4.1-0.9s3.9,1,3.9-0.6c0-0.6,1-1.7,2.2-2.6c2.3-1.7,5-6.2,5-8.5c0.3-1.4,0.9-2.6,1.8-3.7
						c1-1.2,1.7-2.5,1.5-2.8s0.3-1.8,1.2-3.1c1.1-1.7,2.2-2.4,3.6-2.5c2.4-0.1,3.5-1,5-4.1c2.3-5.6,4-11.5,5.2-17.5
						c0.1-1.5,0.8-2.9,1.9-4c1.3-1,1.4-1.6,1-5.8c-0.5-4.6-0.4-4.7,1.8-6.6c0.8-0.8,1.8-1.5,2.8-2c0.6,0,2.9-3.4,3.9-5.5
						c0,0,0,0,0-0.1c0.3-0.3,0.5-0.7,0.5-1.2c-0.3-1.2-0.8-2.4-1.5-3.5l-1.4-2.7h1.8c1,0,1.8-0.3,1.8-0.7c0.3-0.9,0.8-1.7,1.5-2.3
						c1.1-1.4,1.9-3.1,2.3-4.9c0.7-2.8,1.3-3.6,3.6-4.8c3.2-1.7,3.4-2.6,0.9-4.2c-1.7-1.1-1.8-1.5-1.4-5c0.4-2.9,1-4.2,2.7-5.9
						c1.1-1.1,2.1-2.2,3-3.5c0.4-0.8,1.9-1.4,3.7-1.7c3-0.4,3.1-0.4,5.2,3.1c1.6,2.6,2.9,3.8,4.7,4.4c2.4,0.7,2.6,0.6,4.3-1.7
						c1.7-2.3,2-2.3,4-1.5s2.3,0.6,4.5-1.7c2.7-2.8,9.3-5.3,13.8-5.3c2.9,0,2.9,0,3-2.9c0-3.9,0.8-5.9,2.6-6.9
						c1.3-0.7,2-2.2,1.7-3.6L488-99l-18.9-29.2l2.1-18.6l7.9-6.1l7.9-5.8l-9.4-49.3c-1.3-3.8-4-2.9-2.8-8.6c0.6-2.9,1.4-2.9-0.8-5.4
						c-1.4-1.9-2.3-4.1-2.6-6.4l-0.8-4.4l2.3-2.3c2.9-3,3.9-5.3,3-7.1C473.2-243.1,474.3-246.6,474.8-248.8L474.8-248.8z"/>
				</g>
			</g>
			<g id="Region_Valparaiso-2">
				<g id="Provincia_San_Antonio">
					<path id="valparaiso" class="region" d="M289.2,413.5c-0.8,0.1-1.5,0.3-2.1,0.8c-0.8,0.5-1.7,0.8-2.6,0.9
						c-1.7,0.3-3.4,0.9-5,1.7c-1,1.6-3.1,1.2-5.8,2.2c-0.3,2.8-1.6,0.6-3-1.5c-0.4-0.5-1.1-0.8-1.7-0.8c-1.2,0.1-6.5-1.6-5.5,0.4
						c-1.2,1.5,1.5,2,1,3c-1.9,1.1-2.4,2.2-3.3,3.3c-1,0.1-2.1,1.2-3.5,3.1c-2.3,2-4.5,4.2-5.7,4.2c-0.9-0.2-1.6-0.8-2-1.7
						c-1.2-2.1-1.8-2.3-2.6-0.3c-1.4,3.1-3.6,2.5-3.3,3.9c0.2,0.9-4,2.4-6.4,2.6c-1.7,0.1-4.3-0.8-8-2.4l-2.6-1.1l-1.2,1.2
						c-3.4,3.4-3.6,1.8-4.4,0.5l0.5,3.9c0,1.2,0.1,1.7,1.4,1.4c2.3-0.5,3.2,1.6,3.2,3.9c-0.2,1.9-0.2,3.9,0,5.8
						c0.1,0.5,0.7,1.1,0.9,0.7c1-1.5,1.7,1.6,2.6,1.9s2.1,2,2.5,3.4c0.2,0.7,0.1,1-1.3,0.7c-0.6,0.5,0,3.6-1.1,4.2
						c0,1.8,1.1,7.3-1.8,5.3c-1.1-1.1-1,0-1.2,0.5c-0.2,0.1,0.1,0.5-0.1,1.7c1,1.2,1.3,2.9,0.8,4.4l1.4,2.2c1.7,0.6,1.1,2.6,1.5,4.1
						c0.2,0.5,1,1.3-0.4,1.4l-0.5,3.1c-0.6,2.7-1.4,4.5-4.9,3.4c0,0-0.6,0.4,0.2,1.7c0.1,0.7,0,1.8,0.4,2.1c1.4-0.6,1.2,1.2,0.9,2
						c-0.5,1.7-1.4,2.9-2.1,1l-2.1-1c-0.2,1.6-0.4,5.7,0.7,6.6c0.2,0-0.1,0.4,0.8,0.1c0.9,2.3,2.1,6.3,1.4,8.5
						c-0.1,0.4-0.6,0-0.8,0.3c-0.5,0.9-1,1.8-1.7,0.5l-1.4,0.9c0.1,0.5,0.6,1,0.7,1.5c0.5,2.3,0.5,4-0.1,5.1
						c-0.5,0.7-0.8,2.2-1.6,2.7s-0.5-0.6-1.9,0.5c-1.9,2.2-2.8,1.1-3,0c-0.2-0.9-0.6-1.2-0.9-1.2s-0.6,0.5-0.6,1.1
						c-0.5,0.6-0.9,1.3-1.2,2.1c0.5,2.3,0.1,5.3-1.2,4.7c0,1-2.1,0.4-3.6-0.5c-0.6-0.4-1.3-0.6-1.3,0c0,1.1,0.2,2.3,0.5,3.4
						c0.2,0.5,0.8,0.7,1.8,1.2c-0.5,0,0.1,1.2,0.7,1.7l1,1.6c0.8,0.7,0.3,1.6-0.9,1.7l-0.6,1.2c0.9,0.2,1,0.8,1,1.3
						c0.6,0.2,1.4,0.1,1.2,1.3l-0.6,1.1c-0.6,1.1-0.7,1.1,0.1,1.7c1.5,0.7,1.3,1.7,2,2.4c0,0,0,0.1,0.1,0.1c0.4,0.3,0.8,0.6,1,0.7
						c1,1.6,0.3,3.8,0.7,5.6c-0.4,2.2-4,2.3-3.8,2.8c0.3,1.2-0.2,3.2-1.4,5c0.4,0.5,0.8,1,1.4,1.4c0.6,0.5,1.1,0.8,1.3,1
						c0,0,0.1,0.1,0.2,0.1c1.2,0.6,2.1,1.7,2.4,3c0.4,0.5,0.5,1.1,0.5,1.7c1.3,0.4,2.5,1.3,3.1,2.5c1.1,1.9,0.5,2.7-0.2,3.5
						c-0.7-0.5-1.1-1.1-0.2,0.2c1.3,1.9-0.2,4.5-1.7,6.3c0.3,9.4-2.9,11.8-11.6,14.9c-0.8,0.2-1.1,0.6-1.4,1.7
						c-0.2,0.8-0.6,1.6-1,2.3c-0.3,0.5-0.5,1.1-0.6,1.7c-0.1,0.7-0.3,1.5-0.6,2.2c-0.3,0.9-0.5,1.9-0.5,2.8s0.2,2.3,0,2.4
						c0.7,1.3-0.3,1.7-0.8,2.4c0.4,0.3,0.8,1,1.2,0.5c1.4-1.7,1.5-1.1,1.8-0.6c0.6,0.8,1.8,0.7,2.1,1.6c0.8,2,1.5-1.1,2.5-0.9
						c0.3,0-0.6,1.9-0.2,2c1.5,0.1,1.5-0.9,2-0.2c0.5,0.7-0.1,2,0.4,1.7c0.5-0.3,0.4-0.9,2-0.7c-0.9-1,0.8-1.7,1.7-2
						c0.7-0.7,1.5-1.3,2.3-1.8l6-4.5c0.5,0.5,0.6,1.1,0.9,0.9l1.2-0.1l0.2-10c0.3-0.7,0.7-0.9,1.1-1c0.6-0.1,1.2,0.5,1.9,1.3
						l0.7-0.5h1.7l1.7,1.2h2c0.9-0.1,1.7,0.2,2.5,0.7c0.8-1.2,2.3-0.6,3.5-0.9c0.6-0.5,0.9-1.2,0.9-2l0.1-1.5
						c-1.5-1.5-2.3-0.4-2.7-2.5l-1.5-1c-1.5-1.5-0.6-1.8-0.6-2.5c-0.9-0.3-2.5-0.1-0.7-2.5l-0.1-0.4l1.2-1l1.2,1.1
						c0.3-1-0.4-2.2,1.3-2.8c-0.9-2,0.8-1.6,2-1.5l1.1-1c0.6,0.2,0.9-0.8,1-2l0.5-0.7c-0.4-0.5-0.4-1.2-0.1-1.8c0-0.1,0-0.1,0-0.1
						c0-1.2-0.3-2.3-0.9-3.4c-2,0-0.6-1.4-0.8-2.2c-0.9-1.2-0.7-2.4,0.6-3.6c-0.6-0.5,0.1-2,0.1-3.4c0-1-1.3-2.3,0.1-2.9
						c0.2-0.7,0.5-1.1,1.3-0.4c1.6,0.3,2.7,0.3,3.2-0.2c0.1-0.1,0.1-0.1,0.1-0.1l1.5-2c0.6-0.6,0.9,0,1.4,0c0.3-0.4,1.4-1.5,1.8-1
						c1.1-1.1-0.2-1.7,0.9-2.5l0.4-1c-0.5-1.1-0.1-1.4,0.4-1.5c0.1-1.2,0.6-1.3,0.4-1.3c-0.9-0.5-1.4-1.5-1.2-2.5
						c-0.4-0.5-0.6-1-0.8-1.5c-0.2-0.1-0.1-1.5-0.2-2.1c-0.3-0.5-0.7-1-0.1-1.4h0.2l0.1-0.1c0.5-0.1,0.8-0.5,0.8-1
						c0.7,0.2,1.4-0.1,1.8-0.5l1,0.1c0.3,0.3,0.5,0.7,1.7-0.1l1,0.4c1.3,0.5,2,0.3,2.5-0.5c-0.1-1.1,1.5-0.5,2.5-0.5
						c0.6,1,1.4,1.3,2.4,0.1c0-0.6-0.1-1.4,0.2-1.8c0.4,0.2,0.9,0.5,1.3,0.2c0.8,0.9,1.5,1.4,1.1-0.4c0.8,0.2,0.6-0.6,1.9-0.4
						c0.7-0.4,0.8-0.7,0.7-1.2c-0.1-0.8,1-0.5,0.2-1.2c-0.3-0.6-0.6-1.1-0.9-1.7c-0.2-0.4-0.5-0.8-0.9-1.1c-0.3-0.7,0.4-1.1-0.3-1.8
						c-0.1-1.9-0.7-1.7-0.1-3.7c0.1-0.7-0.5-0.8-1-1.2c0-0.8,0-1,1-1.5c0.3-1.3,0.7-1.4,0.9-2.2c0.2-0.8-0.7-0.4-0.7-2
						c-0.7-1.3-0.7-2.3-1.4-2.6c0.3-0.3,0.3-0.9,0-1.2l0,0c0.3-0.4,0.5-0.9,0.5-1.5c0.6-0.2,1.3-0.2,1.9-0.2c0.7,0.1,1.3,0.1,2,0.1
						c0.7-0.1,1.3-0.4,1.8-0.9c0.5-0.4,1,0.2,1.6,0.3c0.9,0.2,1-0.7,1.2-1.3s0.6-0.8,0.8-1.5c0.6-1.2,0.9-1,1.6-0.8
						c0.5,0,1.2,0.2,1.4-0.3c0.6,0-0.6-0.5,2-0.4c0.3-0.1,0.6-0.2,0.8-0.4c0.7,0,1.3,0.1,2,0.2c0.5,0,0.6-0.2,1-0.3
						c1.1-0.5,2,0.2,2.9,0.3c0.5,1.2,0.2,0,2.3-0.6l0.4-0.1c0.7,0,1.4,0.5,1.7,1.1c0,0.6,0,1.2,0,1.8l0.5,0.2
						c0.3,1.5,1.4,0.2,2.1,0.1c1.2,0.6,1.2,0.2,2-0.1c0.4-0.1,0.9-0.2,1.3-0.2c0.7-0.7,1.7-1.1,2.8-0.9c0.4,0.7,0.6,0.1,1-0.2
						c0.7,0.2,1.2,0.7,1.5,1.3c0.1,0.5-0.2,1.5,0.2,1.6s1.1,0,1.5,1.1c0.8,0.9,1.5,2,2.4,2.8c-0.2,1-1.3,2.4,0.2,3
						c1.1,0.4,1.8,1.6,1.7,2.8c0.5,0.5,0.9,1.2,1.2,1.8c0.2,0.4,1-0.1,1.5-0.2c1.4-0.4,0.4-1.5,0.9-1.5c1.7,0,0.8-0.5,1-1.2
						c0.4-1,1-1.9,1.7-2.6c0-0.7,0.5-1.3,1.2-1.3c0.2,0,0.4,0,0.6,0.1c1.1,0.2,2.5,0.6,2.1,2.1c0.8,1-1.1,1.7-0.2,2.7
						c1,0.6,0.7,2.1,2,2.5l0.9,1.2c1.2,0.1,2.3,0,2.7-1l0.9,0.5c0.3,0,0.5,0.1,0.8,0.7l0.9-0.1l0.8,0.4l0.1,0.4l1.2,1.3h1.4
						l-0.1,2.3l0.2,0.9c1.3,1-0.8,2.5,2,2.3l0.1-1.6c0.6-0.5,1-1,1.4-1.7c-0.7-0.7-0.8-1.1-0.6-1.2c0.5-0.8,1.3-1.4,2.2-1.7l0.5-1.2
						l1.6-1c1.9-0.1,1.6-0.7,3.1-1.6c0-1.6,0.5-1.6,0.9-1.7c0.9-0.8,1.4-1.8,2.8-2.3l0.6,0.1c0.5-0.9,1-2.6,2.2-2.9
						c2.1-0.5,3.2-1.8,2.8-3.5c-0.4-1.7-0.2-2.5,0.5-3.3c1-1.5,1.6-3.2,1.9-5c0.3-1.5-0.8-2.7-2.9-3.5c-1.5-0.6-1.8-0.9-2.2-3.2
						c-0.6-1.1-1.4-2-2.5-2.8c-1-0.7-1.8-1.7-2.5-2.8c-0.2-0.6-0.5-1.2-0.8-1.8c-0.7-1.1-1.3-2.3-1.7-3.6c-0.3-0.9-0.4-1.7-0.4-2.6
						c0-3.1-0.7-6-1.6-7c-1.2-1.2-0.6-3,1.4-4.2c0.6-0.3,1-1,0.9-1.7c0-0.6,0.2-1.3,0.4-1.9c0.3-0.7,0.2-1.3-0.4-2.6
						c-0.4-0.8-0.6-1.7-0.7-2.6c-0.3-1.8-1.3-3.3-2.8-4.3l-2.4-1.2c-1.5-0.6-2.9-1.7-3.9-3c0,0,0,0-0.1-0.1c0-0.1-0.1-0.1-0.1-0.2
						c-0.6-0.6-0.6-1.6-0.1-2.3c0.4-0.8,0.5-1.9,0.4-4.3c0-1.8-0.1-3.4-0.1-3.6c-0.5-0.7-1.1-1.2-1.8-1.7c-0.8-0.5-1.5-1.1-2.1-1.8
						c-0.4-0.7-2.3-1-3.1-0.7c-0.4,0.1-1.7-1.3-2-2c-0.6,0.5-1.3,0.9-2.1,1c-0.8,0.2-3.6,1.6-4.2,1.7c-1.8-0.7-1-3.5-1.2-5.2
						c0-0.8-2.1-0.5-2.6-0.9c0.1-2.3,1.8-5.5,0.2-6.8l-2.9-1c-1.6-0.5-3.5-2.3-3.3-1.5c1,4.5,0.1,2.2-5.3,1.3
						c-2.3-1.2-4.9-2.9-4.5-2.9c1.5,0.1-2.5-2.9-1.2-4c3.5-2.9-2.4-4.5-1.9-3.1c0.4,1.1-1.9-0.5-2-1.7
						C291.1,413.7,290.1,413.2,289.2,413.5z M212.8,543h0.3l-0.5,0.1C212.6,543.1,212.7,543,212.8,543z M216.5,558.7
						c0.3,0.1,0.5,0.3,0.7,0.5c0,0,0,0,0,0.1C217,559,216.8,558.8,216.5,558.7L216.5,558.7z"/>
				</g>
			</g>
			<g id="Region_Metropolitana" class="st2">
				<path id="region-metropolitana-santiago" class="region" d="M290.5,505.9c-0.1,0-0.3,0-0.4,0.1c-2,0.6-1.8,1.8-2.3,0.6c-0.9-0.2-1.7-0.8-2.9-0.3
					c-0.4,0.1-0.5,0.3-1,0.3c-0.7-0.1-1.3-0.2-2-0.2c-0.2,0.2-0.5,0.3-0.8,0.4c-2.6-0.1-1.4,0.4-2,0.4c-0.2,0.5-0.8,0.3-1.3,0.3
					c-0.7-0.2-1.1-0.5-1.7,0.7c-0.2,0.7-0.6,0.8-0.8,1.5c-0.2,0.7-0.2,1.6-1.2,1.3c-0.6-0.1-1.1-0.7-1.7-0.3
					c-0.5,0.4-1.1,0.7-1.7,0.8c-0.7,0-1.4,0-2-0.1c-0.6-0.1-1.2,0-1.8,0.1c-0.1,0.6-0.3,1.1-0.6,1.5c0.4,0.3,0.4,0.9,0.1,1.2l0,0
					c0.6,0.4,0.8,1.3,1.4,2.6c0,1.5,1,1.2,0.7,1.9c-0.3,0.7-0.6,1.5-0.8,2.3c-1,0.6-1,0.7-1,1.5c0.5,0.4,1.2,0.5,1,1.2
					c-0.6,2-0.1,1.8,0.1,3.7c0.7,0.7,0,1.1,0.3,1.8c0.4,0.2,0.7,0.6,0.9,1c0.3,0.6,0.5,1.1,0.9,1.7c0.7,0.6-0.4,0.4-0.2,1.2
					c0,0.5,0,0.7-0.7,1.1c-0.2-0.1-0.5-0.1-0.7,0c-0.5,0.1-0.7,0.6-1.2,0.4c0.4,1.8-0.3,1.3-1.1,0.4c-0.4,0.3-0.9,0-1.3-0.2
					c-0.3,0.4-0.1,1.2-0.2,1.8c-1,1.2-1.8,0.9-2.4-0.1c-1,0-2.5-0.6-2.5,0.5c-0.4,0.8-1.2,1-2.5,0.5l-1-0.4
					c-1.2,0.8-1.3,0.4-1.7,0.1l-1.1-0.1c-0.5,0.5-1.2,0.7-1.8,0.5c0,0.6-0.4,0.9-1.1,1c-0.6,0.4-0.2,0.9,0.1,1.4
					c0.1,0.5,0,2.1,0.2,2.2c0.1,0.5,0.4,1,0.7,1.5c-0.2,1,0.3,2,1.2,2.5c0.2,0-0.2,0.2-0.4,1.3c-0.5,0.1-0.9,0.4-0.4,1.5l-0.4,1
					c-1.1,0.8,0.3,1.4-0.9,2.5c-0.5-0.5-1.6,0.6-1.8,1c-0.4,0-0.8-0.5-1.4,0.1l-1.4,2c0-0.1-0.1,0-0.2,0.1c-0.5,0.6-1.6,0.6-3.2,0.2
					c-0.8-0.6-1.1-0.3-1.3,0.4c-1.4,0.6-0.1,1.9-0.1,2.9c0,1.4-0.7,2.8-0.1,3.4c-1.3,1.2-1.5,2.4-0.6,3.6c0.2,0.8-1.2,2.2,0.8,2.2
					c0.6,1.1,0.9,2.2,0.9,3.4c-0.3,0.6-0.2,1.3,0.1,1.9l-0.5,0.7c-0.2,1.1-0.4,2.1-1,2l-1.1,1c-1.2,0-2.9-0.5-2,1.5
					c-1.7,0.6-1,1.9-1.3,2.8l-1.2-1.1l-1.2,1l0.1,0.4c-1.8,2.4-0.2,2.1,0.7,2.5c-0.1,0.7-1,1,0.6,2.5l1.5,1c0.4,2,1.2,1,2.7,2.5
					l-0.1,1.5c0,0.8-0.3,1.5-0.9,2c-1.2,0.2-2.7-0.3-3.5,0.9c-0.7-0.5-1.6-0.7-2.5-0.7h-2l-1.7-1.2h-1.7l-0.7,0.5
					c-1.1-1.3-2.1-2-3-0.2l-0.2,10.1l-1.2,0.1c-0.3,0.3-0.4-0.3-0.9-0.8c-2,1.5-4,2.9-6,4.4c-0.8,0.6-1.6,1.2-2.3,1.8
					c-0.8,0.2-2.5,1-1.7,2c1.2,0.4-0.6,1.6,0.6,1.7c0.9,0.9,2.5,0,3.2,0.9c-0.4,0.5-0.5,1.2-0.2,1.8c0.5,0,2-0.3,2.5,0.5
					c0.5,0.8,1.9-0.2,2.6,1c0.9,0.3,1.4,3.1,2.3,1.9c1.3-0.1,0.8-1.2,0-1.7c0.7-0.7,1.1-1.7,1.1-2.8c1.2,0.5,1.8,2.1,2.8,2.6
					c1.4-0.6,2.9-0.8,4.4-0.4c0.7,0.4,2.4,1.3,2.8,0.5c0.7,1,1.7,2,3,1.9c-0.5,0.4-0.2,1.8,0.4,2.5c0.4,0.4,1.9,2,1.9,0.9
					c0.7-1.1,2-0.6,3-0.4c1.3,0.3,0.1-0.9,0.6-1.3c1,0.3,1.3-0.5,2.1-0.6c0.8,0,1.4-0.6,1.4-1.4c0-0.1,0-0.1,0-0.2
					c1.2,2.5,2.6,0.4,2.9,3.3c-0.2,2.6,0.8,2.6,1.9,2.8c1.8,1.1,0.5,3.7,3.2,4.2c0.9,2.5,5.1,2.8,7.2,2.8c2-0.6,3.7,3.5,5,1.3
					c0.9-0.3,1.6-0.9,2.3-1.5c0.5,0.1,0.9,1,2.7,0.7c0.8,0.1,1.6,0.3,2.3,0.5c0.4,0.1,2.1-2,2.6-1.8c1.1-1.2,2.9-1.2,2.1-1.6
					c-0.5-0.5-0.9-1-1.2-1.6c-1.5-1.9-0.7-5.7,2.3-5c2.4,0.3-0.3-3.7,1.9-3.8c1.5-1,3.1-1.5,4.8-0.6c2-0.7,0.9-2.5,1.2-2.6
					c0.7-0.4,1.2-1.1,0.4-1.8c-0.2-1,0.6-1.7-1.1-2c-0.2-0.2-0.6-0.7-0.9-0.8s-0.1-0.4-0.2-0.8c0.8-0.3,1.7-0.4,1.7-1.5
					c0.4-1.6,1.7,0,2.6,0.2c0.8,0.8,1.2,0.4,2.5-1.1c0-1.2,1.3-0.3,1.6-0.9c0.5-0.1,0.4-0.2,0.9-0.6c0.5-1.3,1.8-0.8,2.2-0.1
					c0,0.9,1,1.4,1.5,2.1c0.7,1.4,1.7,0,2.5-0.5c0-0.6,0.1-1.2,1-1.3c0.9-0.1,0.2-0.9,0.7-1.2c0.2-0.1,0.6,0.1,0.7-0.1
					c0.5-0.8,0.6-1,2-1c0.6,0.8,1.3,0.1,2-0.4c0.3-0.8,0.5-0.6,1.2-0.8c0.9-0.6,1.5,1.3,2.1,0.4c0.9,0.7,1.5-0.6,2-1.3
					c-0.4-1.3,1.2-1.2,2.1-1.2c0.3,0,0.6,0.1,0.9,0.2c0,0,0,0,0-0.1l0.3-0.2c0.7-0.4,0.5,0.6,1.4-0.1c0.7-1.5,0.8-0.4,0.9-0.9
					c0.1,0.3,0.4,0.5,1,0.4c0.1,0.3,0.2,0.6,0.8,0.9c0,0.6,0.5,1.3,1.8,1.9c0.4-0.8,0.5-0.3,1.5-0.1c0,0.9,0.1,0.9,0.3,1.1
					c-0.1,0.3-0.3,0.7,0.2,1.3c-0.3,0.2-0.7,0.3-0.5,1c-0.9-0.1-0.4,0.3-0.2,1.3c0.6,0.3,0.9,0.8,0.9,1.4l0.7,0.8
					c1.5-0.1,0.7,1.2,0.7,1.9l0.7,0.7l1.1,0.1l0.1,1.4c0.6,0.5,0.5,1,0,1.3c0.5,0.5,0.8,1.1-0.4,1.5L326,617c0.7,1.2-1.2,1.1,0,1.6
					c-0.2,0.7-0.1,1.3,1.2,1.6c0.4-0.5,0.8-0.8,1.1,0.1l0.5,0.4l0.2-0.4c0.3,0.4,0.6-0.1,1.4-0.4c0.5,0.5,1.1,0.9,1.7,1.2
					c0.6,0.1,0.7-0.8,1.5-1.1c-0.2-1.2,0.8-1.4,0.6-2.6l2.6-0.2l0.9,0.1l1.4,0.1l1,1.2l-0.2,1.2l0.2,1.8l0.9,1.7
					c-0.4,0.2-0.6,0.7-0.5,1.1c0.1,0.2,0.3,0.4,0.5,0.5c0.1,0.5,0.2,0.9,0.7,0.9c2-0.1-0.5,1.3-1.1,2.1c0.1,0.7,0.7,1.6-0.2,1.9
					c0,0.2-0.1,0.5,0.4,0.5c0.9-0.4,1.4,1,1.4,1.9l1.2,1c1.6-0.7,1.5,0.3,1.6,1c0.6,0.4,1.6,0.2,2.4,0.1l0.4-0.5l1,0.5l0.1,0.7
					c1.2,0.1-0.4,0.3,1.4,1.8c-0.2,0.6-0.2,1.2,0,1.7c-0.3,0.4-0.1,1.5,0.4,3l1.7,1.7v-0.9l2.1-2.3l1.4-0.4c1.5-1.7,2.5-0.3,2.1-0.2
					c0.7,0.5,1.4,1.1,2,1.8c0.1,0.2,0.8,0.6,1.2,1.3c0.4,0.7,0.8,1,1.4,0.5l0.6-0.7c0.2-2.2,0.3-0.8,1.9-1.2c0.7-0.4,1.5-0.8,2.3-1
					c0.7-0.1,1,0.3,2,0.1c0.2-0.4,0.6-1.1,1.4-1c0.7-1.4,1-0.3,1.2-2.7c0.6-2.5-0.3-2.3-0.5-3.4c-0.9-1.3-5.4-4.9-4.7-5.5
					c-0.4-0.6,0-0.2,1.1-3.1c0.4,0.1,0.9,0,1.2-0.2c0.3-1.5,1.6-1.9,0.5-2.9c-2.6-0.5-0.8-2.2-0.3-3.5c2-1.6,1.7-2.4,0.2-2.8
					c0.3-0.6,0.1-2.4-1.9-3.1c-0.1-0.7-0.6-1.1-2,0.1c-0.6-0.1-1.3-0.1-1.5-1.3l1.1-2.7l-0.1-1.3l0.9-0.7l1.8-2.3l-0.1-0.9l-1-0.8
					l-0.5-1.4l-1.7-1.2l-0.1-1.3l0.3-0.4l0.3-3.3c-1.2-1.8-1.5-3.4,0.6-4.6l-0.1-0.7c2.9-3.9-0.1-4.6,0-6.8c1-3,0.7-3.3,0.4-5.8
					c-0.4-1.5,0.4-2.2,0.5-3.3l-0.1-2.8c-0.8-2.2,0-1.9,0.2-2.6s0.1-1.6,1.4-1.8c0.6-0.4,1.1-1,1.2-1.7c0.4-1.2-0.3-3.6,1.2-3.6
					v-1.1c0.1-1.6-0.3-3.7,1.4-3.8l-0.3-2.2l-0.7-0.8c0.7-0.2,0.8,0.7,2.6-0.9l0.7-2.2l-0.1-2.2l-1.7-2.2c-0.7-1,0.4-2.9-2.1-3
					c-1.2-0.1-1.4-2.5-3.6-0.4l-3-0.1l-1.2-0.7l-0.9-1.8c-0.8,3.1-2.2,1.6-2.1,3.2c-0.6-0.2-1.3-0.5-1.3,0.7l-0.5,0.5l-1.2,1.3
					l-1.1,0.5l-1.4,0.1l-0.7-1.3l0.4-0.5l-0.1-1.3l-1.4-0.5l-0.7-0.5l-0.1-1.5l0.4-0.8l0.1-1.5l-2.6-1.4l-0.5-1.3l0.4-3.3
					c-2-2.7,1.2-1.6,0.2-3.9c-2.3-0.7-1.9-1.8-1-2.9c-0.5-1.5,0-3.5-1.8-4.3c0.2-0.3-0.2-0.6-0.5-0.9l0.9-1.8h-1.4
					c-1.4,0.5-1.9,1.5-2.8,2.3c-0.4,0-0.9,0.1-1,1.7c-1.5,0.9-1.1,1.5-3,1.6l-1.7,1l-0.4,1.2c-0.9,0.3-1.7,0.9-2.2,1.7
					c-0.2,0.2-0.1,0.5,0.6,1.2c-0.4,0.6-0.8,1.2-1.4,1.7l-0.1,1.6c-2.8,0.3-0.7-1.3-2-2.3l-0.2-0.9v-2.3H330l-1.2-1.3l-0.1-0.4
					l-0.8-0.4l-0.9,0.1c-0.3-0.6-0.5-0.8-0.7-0.8l-1-0.5c-0.4,1-1.5,1.2-2.7,1.1l-0.8-1.3c-1.2-0.4-0.9-1.9-2-2.5
					c-0.9-1,1-1.7,0.2-2.8c0.4-1.5-1.1-1.8-2.2-2c-0.6-0.3-1.4-0.1-1.7,0.5c-0.1,0.2-0.2,0.4-0.2,0.6c-0.8,0.7-1.3,1.6-1.7,2.6
					c-0.1,0.7,0.7,1.2-1,1.2c-0.4,0,0.6,1.2-0.8,1.6c-0.5,0.1-1.3,0.6-1.5,0.2c-0.3-0.7-0.7-1.3-1.2-1.8c0.1-1.2-0.6-2.3-1.7-2.8
					c-1.5-0.5-0.5-1.9-0.2-3c-0.9-0.9-1.6-2-2.4-2.9c-0.3-1.1-1.1-0.9-1.5-1c-0.4-0.1,0-1.2-0.2-1.7c-0.3-0.7-0.9-1.1-1.5-1.3
					c-0.3,0.3-0.6,0.9-1,0.2c-1-0.2-2,0.2-2.8,0.9c-2.3,0.1-1.6,1.2-3.3,0.4c-0.8,0-1.8,1.3-2.1-0.2l-0.5-0.2c0-0.6,0-1.1,0-1.7
					c-0.3-0.7-0.9-1.1-1.7-1.2L290.5,505.9z"/>
			</g>
		</g>
	</g>
</g>
<circle class="border-circle" cx="300" cy="300" r="277.6"/>
</svg>
