<?xml version="1.0" encoding="utf-8"?>
<!-- Generator: Adobe Illustrator 21.0.0, SVG Export Plug-In . SVG Version: 6.00 Build 0)  -->
<svg version="1.1" id="Capa_1" xmlns="http://www.w3.org/2000/svg" xmlns:xlink="http://www.w3.org/1999/xlink" x="0px" y="0px"
	 viewBox="0 0 600 600" style="enable-background:new 0 0 600 600;" xml:space="preserve">
<style type="text/css">
	.st0{fill:none;stroke:#FFFFFF;}
	.st1{clip-path:url(#SVGID_2_);}
	.st2{opacity:0.7;fill:#FFFFFF;stroke:#FFFFFF;enable-background:new    ;}
	.st3{opacity:0.7;}
	.st4{fill:#FFFFFF;stroke:#FDFCFB;}
</style>
<title>Mesa de trabajo 7</title>
<g id="Region_Metropolitana">
	<g id="Provincia_Santiago">
		<path id="Cerrillos" class="st0" d="M316.5,270.9l-0.4,2.3h-1.3v3c-0.3-0.1-0.5,0.4-0.8,1.2l-0.9,2.4h3.4l1.1,0.9l-1.8,2.6
			l4.1,1.8l0.1-2.1l4-10.6l-0.1-0.8l-5.4,1.4L316.5,270.9z"/>
		<path id="Estacion_Central" class="st0" d="M314.5,266.6l0.1,3.3h-0.3v0.5l2.1,0.6l2,2.1l5.5-1.4h2.5l-0.1-1.4l-1.3,0.1
			c0.3-0.8,0.2-3.3,0.2-5l-0.3-0.1v-1.5l-2.6,0.1v0.8l-2.9,0.2l0.2,2.2c-0.6,0.3-1.3,0.4-2,0.2L314.5,266.6z"/>
		<path id="Lo_Prado" class="st0" d="M312.5,262.1v2.4l0.4,0.1v1.7l4.7,1.1c0.7,0.2,1.5,0.1,2.1-0.2l-0.2-2.2l-0.1-2.5l-3-0.3
			l-0.1,0.6l-1.5-0.7H312.5z"/>
		<path id="Cerro_Navia" class="st0" d="M303.9,257.5v-0.8h2.1l0.1,0.3h0.8l1.2-0.6h1.8h4.9l0.5,0.2l0.8-0.5h0.5l1,0.8l-1.1,5.8
			L315,262l-2.4,0.1v-1.6l-0.5,0.1l-1.4-0.1l-0.7-0.3l-1.5-0.1l-0.9-0.3l-0.4-0.5l-0.2,0.5l-0.9-0.2l-0.6-0.5l-0.5-0.6l-0.4-0.6
			l-0.1-0.3L303.9,257.5z"/>
		<path id="Santiago" class="st0" d="M324.9,272.2l2,0.1v-0.6h-0.4l6.5,0.1l3.4-1.6l-2.4-8.7l-7.3-2l0.1,0.5c-0.6,0-1.8-1-1.9,0.3
			l0.2,2.3l-2.4,0.1v1.3l2.6-0.1v1.5l0.3,0.1c-0.1,1.7,0.1,4.1-0.2,5l1.3-0.1v1.4h-1.5"/>
		<path id="Renca" class="st0" d="M309.8,249.8l-0.7-0.5l-5.1,5.3l-0.1,2h2.1l0.1,0.3h0.8l1.2-0.6h1.8h4.9l0.5,0.2l0.8-0.5h0.5v-0.4
			h0.5l1.1-0.6h1.9l1.5,1.1l1,1.1l1.3,0.9l2.7,1.3V259l-1.5-1.6l-0.3-3.1l-0.3-0.6l-1.8-3.3l-0.8-1.9l-0.3,0.4h-0.2l-0.1-0.3l-1,0.5
			h-0.6l-1.3,1.8h-0.5l-0.4-0.2l-1,0.7h-1v-0.2H315v0.2h-0.5v-0.1H314l-0.1,0.2h-0.4l-0.2,0.2l-0.8-0.9h-0.4l-0.2-0.2l-0.2,0.2h-1.2
			l-0.5-0.5v-0.5L309.8,249.8z"/>
		<path id="Quinta_Normal" class="st0" d="M326.6,259.9l-0.1-0.5l-2.7-1.2l-1.3-0.9l-1-1.1l-1.5-1.1h-1.9l-1.1,0.6h-0.5v0.4l1,0.8
			l-1,5.2l3,0.3l0.1,2.5l2.9-0.2v-0.8v-1.3l2.4-0.1l-0.2-2.3C324.8,258.9,326,259.9,326.6,259.9z"/>
		<path id="Recoleta" class="st0" d="M333.9,261.4l-3.2-0.9l0.3-3.4h-0.6v-2.6h-0.5l-0.5-0.4l0.1-0.9l-0.3-0.4l0.3-0.1v-4.3h-0.1
			v-0.6h0.1l0.1-0.5l3.8,1.8l5.9,4.6v0.8l-1.5,1l-0.3,0.6l-1.3,1.4h-0.6l-0.8,0.6l-0.2,1.1l-0.6,1.2h0.2L333.9,261.4z"/>
		<path id="Independencia" class="st0" d="M326,253.1l-1.6,0.6l0.3,0.6l0.3,3.1l1.5,1.6v0.4l4.1,1.1l0.3-3.4h-0.6v-2.7h-0.5
			l-0.5-0.4l0.1-0.9l-0.3-0.4l-1.8-0.1L326,253.1z"/>
		<path id="Conchali" class="st0" d="M329,252.9l0.3-0.1v-4.3h-0.1v-0.6h0.1l0.1-0.5L324,245l-1.1-0.2h-2.3v0.4l1.3,3.4l0.8,1.9
			l1.8,3.3l1.6-0.6l1.2-0.3L329,252.9z"/>
		<path id="El_Bosque" class="st0" d="M324.2,287l3.8,1.6l2.8,0.5l-1.9,9.1l-2.4-0.5l-5.4-2.3l1.1-2.3V291l0.6,0.3L324.2,287z"/>
		<path id="La_Cisterna" class="st0" d="M330.8,289l-2.8-0.5l-3.8-1.6l2.8-7.1l5.5,1.6L330.8,289z"/>
		<path id="Lo_Espejo" class="st0" d="M320,283.1l-0.1,2.1l4.2,1.8l2.8-7.1l-5-2.1L320,283.1z"/>
		<path id="Pedro_Aguirre_Cerda" class="st0" d="M326.9,271.6l3.3,0.1l-3.2,8.2l-5-2.1l2-5.3l-0.1-0.8h1v0.5l2,0.1L326.9,271.6
			L326.9,271.6z"/>
		<path id="San_Miguel" class="st0" d="M327,279.9l3.2-8.2l2.7,0.1l1.1,9.9h-0.9L327,279.9z"/>
		<path id="San_Ramon" class="st0" d="M334.1,281.6h-0.9l-0.6-0.2l-1.8,7.6l-0.4,1.7l5,0.6L334.1,281.6z"/>
		<path id="La_Granja" class="st0" d="M334.1,281.6l1.3,9.7l0.8,0.1l3-0.8l-0.5-2.3h0.9l-0.3-8.1h-1.1l-2.1,1.2L334.1,281.6z"/>
		<path id="San_Joaquin" class="st0" d="M334.1,281.6l-1.1-9.9l3.4-1.6l0.4,1l0.5,2.1l0.8,1.9l0.7,3.9l0.5,0.5v0.6h-1.1l-2.1,1.2
			L334.1,281.6z"/>
		<path id="La_Pintana" class="st0" d="M339.1,290.7l-3,0.8l-5.7-0.7l-1.6,7.4l-1.3,5.3l5.3,0.5l-0.4,2.9h0.5l-0.2,1.3h3.4l0.4-1.9
			v-3.5l4-0.8l-0.1-1.2l-0.1-2.4l-0.5-0.8l-0.2-3.3h-0.2l-0.3-2.1h0.5L339.1,290.7z"/>
		<path id="Providencia" class="st0" d="M338.5,255l-1,0.6l-0.3,0.6l-1.3,1.4h-0.6l-0.8,0.6l-0.2,1.1l-0.6,1.2h0.2v1l1,3.6l2.6-0.8
			l0.1,0.3h0.5l1.5-0.8l2.2-0.2l1,0.7l2.1-3.5l-0.5-0.5l-3.5-3.2l-1.2-0.5l0.6-1.7L338.5,255z"/>
		<path id="Nunoa" class="st0" d="M334.9,265.1l2.6-0.8l0.1,0.3h0.5l1.5-0.8l2.2-0.2l1,0.7l2.1-3.5l1.8,1.1l0.6,3.2l-0.2,2l-0.8,2.5
			l-1.8,1.1h-4.1l-3.5,0.5l-0.4-1L334.9,265.1z"/>
		<path id="La_Reina" class="st0" d="M344.8,260.9l1.8,1.1l0.6,3.2l-0.2,2l1.8,0.8l3.1,0.1l1.8-0.1l1.6,0.6l0.4-1.5l8.7,0.5v-0.5
			l-0.5-1l-0.8-0.6l-0.2-0.3l-0.6-0.5v-1.2l-2.5-2.2l-1.8-0.4l-1.4-0.6l-2.9,0.4l-0.1-1l-4.1,0.5l-5.3,0.1L344.8,260.9z"/>
		<path id="Macul" class="st0" d="M338.6,279.2l-0.7-3.9l-0.8-1.9l-0.5-2.1l3.5-0.5h4.1l1.8-1.1l-0.8,4.9l-1.7,3.4v1.4L338.6,279.2z
			"/>
		<path id="Penalolen" class="st0" d="M364.4,267.5l-8.7-0.5l-0.4,1.5l-1.6-0.6l-1.8,0.1l-3.1-0.1l-1.8-0.8l-0.8,2.5l-0.8,4.9
			l-1.7,3.4v1.4l6.1,0.5l4.1,0.1l0.8-0.2l0.5-0.5h1l0.3-0.5h0.4l1.9-1.7h1.8l0.6-0.5h1.1V276l2,0.9l1.2,0.1l1.8-1.5h1.4l0.7-0.5
			l0.6-0.1l1.8,0.8h1.1l1.5-0.8h1v-0.8l-0.3-0.8l-1.5-0.2l-0.5-0.4h-0.8l-1-1.3h-0.4l-0.4-0.4l-2.2-0.1l-1-0.8l-0.1-0.6l-0.9-1
			L364.4,267.5z"/>
		<path id="Las_Condes" class="st0" d="M374.9,273l-1.5-0.2l-0.5-0.4h-0.8l-1-1.3h-0.4l-0.4-0.4l-2.2-0.1l-1-0.8l-0.1-0.6l-0.9-1
			l-1.7-0.8v-0.5l-0.5-1l-0.8-0.6l-0.2-0.3l-0.6-0.5v-1l-2.5-2.2l-1.8-0.4l-1.4-0.6l-2.9,0.4l-0.1-1l-4.1,0.5l-5.3,0.1l-3.5-3.2
			l-1.2-0.5l0.6-1.7l13.9-6l1.4-1.7l3.2-1.5l1.8-0.3l1.2-0.8h0.7l0.9-0.7l1.9,0.3h1.3v1.1l-0.9,0.6l-0.4,1.1v0.4l0.9,1.1l0.3,0.6
			l-0.1,0.9l0.5,0.2h0.2l1.6,1l2.7,0.5l0.5,0.7l-0.1,3.5l0.2,0.2v0.8l2,1.4l1.8,0.2l0.7,2.9l-0.2,0.9l0.8,1.5l0.2,2.8l-1.1,0.9
			l-0.4,1l0.5,0.8l-0.2,2.1h-0.4L374.9,273z"/>
		<path id="Vitacura" class="st0" d="M339.1,252.1c-0.1,0.5,0,1.1-0.1,1.6v0.9l-0.5,0.4h1.7l13.9-6l1.4-1.7l2.1-1l-0.5-0.6L353,246
			l-1.2-0.9l-1.6-1.5l-1-0.6H348l-0.2-0.2l-0.5-0.1l-0.3-0.5l-0.6,0.1l-0.5,0.4l-0.5-1l-1-0.5L344,242l-0.5,0.3l-1.3,0.1l-0.9,1
			l-0.8,0.8l0.7,0.6l-0.1,1.9l-0.5,0.4v1.1l0,0l-0.7,0.3v0.6l0.3,0.5v0.8l-0.8,0.6L339.1,252.1z"/>
		<path id="La_Florida" class="st0" d="M374.3,274.6l-1.5,0.8h-1.1l-1.8-0.8l-0.6,0.1l-0.7,0.5h-1.4l-1.8,1.5l-1.2-0.1l-2-0.9v0.5
			h-1.1l-0.6,0.5h-1.8l-1.9,1.7h-0.4l-0.3,0.5h-1l-0.5,0.5l-0.8,0.2l-4.1-0.1l-6.1-0.5l-5-0.2l0.5,0.5v0.6l0.3,8.1h-0.9l0.5,2.3
			l0.5,1.5H339l0.3,2.1h0.2l2.1-0.8l1.4,0.6l1.8-0.2l-0.1-1l5.6-1.1l-2-3.2l3.1,0.1l1.1,1.1l0.8-0.8c0.6-0.5,1.3-0.8,2-0.9
			c0.3-0.1,0.3-0.5,0.5-0.6c0.3-0.1,0.5-0.1,0.8-0.1c0.4,0,0.3-0.1,0.6-0.1c0.3,0,0.5,0.2,0.8,0.2c0.4,0.1,0.7,0.1,1.1,0.1
			c0.2,0,0.9-0.1,1,0.1c0.1,0.2,0.3,0.3,0.5,0.3c0.3-0.1,0.6-0.1,0.9-0.2c0.1,0,0.5-0.2,0.5-0.3c0.6-0.1,1.2-0.1,1.8-0.1
			c0.2,0,0.5-0.1,0.6-0.2c0.2-0.3,0.4-0.7,0.6-1c0.4-0.3,0.8-0.4,1.1-0.9c0.2-0.4,0.3-0.8,0.3-1.2c0.3-0.3,0.6-0.5,1-0.6
			c0.6,0,0.9,0,0.8-0.5c0.1-0.5,0.2-1,0.4-1.4c0.2-0.4,0.4-0.7,0.9-0.7c0.1,0,0.4-0.2,0.4-0.3c0-0.3,0-0.7,0-1
			c0.5-0.1,0.9-0.2,1.3-0.4c0.3-0.1,0.5-0.3,0.6-0.6c0.1-0.3,0.6-0.1,0.9-0.1c0.5-0.1,0.8-0.5,1.1-0.9c0.4-0.1,0.7-0.3,1-0.6
			c0.6-0.5,0.1-1.3,0.3-2.2L374.3,274.6L374.3,274.6z"/>
		<path id="Huechuraba" class="st0" d="M341.9,238.5c0.4,0.6,0.8,1.1,1.2,1.6c0.3,0,0.7,0,0.9,0.2c0.2,0.2,0.3,0.5,0.4,0.9L344,242
			l-0.5,0.3l-1.3,0.1l-0.9,1l-0.8,0.8l0.7,0.6l-0.1,1.9l-0.5,0.4v1.1l0,0l-0.7,0.3v0.6l0.3,0.5v0.8l-0.8,0.6l-0.6,1
			c-0.1,0.5,0,1.1-0.1,1.6l-5.9-4.6l-3.8-1.8l-5.4-2.4l-1.1-0.2l-0.9-2.5v-1l0.3-0.2v-0.6l0.4-0.1c0.9-2.5,1-1.2,1.7-2.1
			c0-0.3,0-0.6-0.3-0.6v-0.9c0.4,0.1,0.7,0.1,1.1,0.1c0.3,0,0.6,0.1,0.7,0.4c0.2-0.5,0.7-0.8,1.2-0.9c0.3,0.1,0.5,0.3,0.6,0.5
			c0.3,0.3,0.8-0.3,0.9-0.3c0.7-0.1,0.9,0.8,1.5,1c0.4,0.3,0.4,0.8,0.6,1.1s0,0.6-0.1,0.9c0.6,0.3,0.2,0.5,0.9,0.1
			c0.3-0.1,0.6,0,0.9,0.2c0.4,0.5,0.3,0.2,0.5-0.1s0.6-0.6,0.9-0.9s0.2,0.5,0.5,0.5h1.1c0.4,0,0.6,0.5,1.8,0.3
			c0.4-0.1,0.5-0.6,0.9-0.6c0.8-0.1,1.3,0.2,1.7-0.5C340.4,238.8,341.2,238.9,341.9,238.5z"/>
		<path id="Quilicura" class="st0" d="M303,243.7l3.4,3.2l1,1.2l1.7,1.3l0.7,0.5h0.5v0.5l0.5,0.5h1.1l0.2-0.2l0.2,0.2h0.4l0.8,0.9
			l0.2-0.2h0.5l0.1-0.2h0.5v0.1h0.5v-0.2h0.5v0.2h0.9l1-0.7l0.4,0.2h0.5l1.3-1.8h0.6l1-0.5l0.1,0.3h0.2l0.3-0.4l-1.3-3.4v-0.4h2.3
			l-0.9-2.5v-1l0.3-0.2v-0.6l0.4-0.1c0.9-2.5,1-1.2,1.7-2.1c0-0.3,0-0.6-0.3-0.6v-1.9h-0.8l-0.3-0.6c0-0.3,0.1-0.2,0.3-0.2l0.1,0.5
			c-0.1-0.5,0.5-1.2-1.1-1c-0.4-0.3-0.3-0.9-1.3-0.9l-0.5,0.3l-0.6-0.1l-0.9-0.7h-1.7l-0.3,1.7l-1.1,0.3l-14.4,4l-0.5-0.6l-1.4-0.1
			c-0.4,0.5,0,1.6,0.4,2.6L303,243.7z"/>
		<path id="Pudahuel" class="st0" d="M276.4,275.4c2.8-0.7,1-1.5,3.1-1.3c1.7-0.2,0.7-1.5,2.5-1.3c1.1,0.3,2.2,1.4,3.1-0.1
			c0.1,0.8,1.7-0.5,3.3,0c0.3,0.5,1.4-0.3,2,0c0.9,0.3,1.1-0.2,1-1c2.4-3.6,1.8-1.4,5.3-2.3c1.6,0,1.1-0.4,1.5-0.5
			c0.4-0.1,0.5-0.3,0.6-0.6c0.4-0.4,1.3,0.4,2.4,0.3l0.2-0.8c1,0.3,2.4,0.2,2.9,1c0.7-0.4,1.5-0.7,1.3-1.7c0.8,0.1,1.9-0.5,2.1,0.5
			l0.2,1.1l5.4,1.1l-0.1,0.9l1.1-0.9h0.3l-0.1-3.2l-1.7-0.4v-1.7l-0.4-0.1l0.1-3.8l-0.5,0.1l-1.4-0.1l-0.7-0.3l-1.5-0.1l-0.9-0.3
			l-0.4-0.5l-0.2,0.5l-0.9-0.2l-0.6-0.5l-0.5-0.6l-0.4-0.6l-0.1-0.3l-0.6-0.1l0.1-2.9l5.1-5.3l-1.7-1.3l-1-1.2l-3.4-3.2l-2.8-2.7
			c-0.9,1.7-1.9,3.7-2.9,3.8c-2,0.1-1.7,3.6-5.2,6.2c-1.9-2-0.6-0.3-3.4-2.2c-3.1-1.6-4.7,1.1-8.1-0.2l-2.1-1.3
			c-2.4,0.2-3.3,2.7-4.2,2.1c-0.8-0.8-0.3,0.3-3.5,1.5c-0.3,0.1-0.3,0.6-0.6,0.8c0.4,3.3-2,2.5-0.1,4.3c-0.8,1.6,0.8,2.5,0.4,5.2
			c-0.2,2.6-1.6,2.4-1.1,3.2c0.3,0.5,0.3,1.2-0.1,1.7c-0.8,0.9,0.5,1.1,0.9,1.9l0.1,2.2c0.6,1.2,0.5,2.6,4.4,2.8
			C275.1,273.9,275.7,274.7,276.4,275.4z"/>
		<path id="Maipu" class="st0" d="M314.4,269.8l-1.1,0.9l0.1-0.9l-5.4-1.1l-0.2-1.1c-0.2-1-1.3-0.4-2.1-0.5c0.2,0.9-0.6,1.3-1.3,1.7
			c-0.4-0.8-1.9-0.7-2.9-1l-0.2,0.8c-1.2,0.1-2-0.6-2.4-0.3c-0.1,0.3-0.2,0.6-0.6,0.6c-0.4,0,0.1,0.5-1.5,0.5
			c-3.5,0.9-2.9-1.3-5.3,2.3c0.1,0.8-0.1,1.3-1,1c-0.6-0.3-1.7,0.5-2,0c-1.6-0.5-3.2,0.9-3.3,0c-0.9,1.5-2,0.4-3.1,0.1
			c-1.8-0.2-0.8,1.1-2.5,1.3c-2.1-0.1-0.3,0.6-3.1,1.3c0.3,0.3,0.1,0.5,0,0.5c-0.1,0-0.7,0.4-0.7,0.9c0,0.4-0.1,0.7-0.3,1
			c-0.3,0.3-0.5,0.6-0.6,0.9c-0.1,0.4-0.3,0.9-0.1,1.3c0.3,0,0.6,0.2,0.9,0.3c0.3,0.2,0.6,0.4,0.8,0.8c0.7-0.3,1.4-0.5,2.1-0.6
			c0.8,0,1.5,0.3,2,0.9c0.1,0.8,0.3,1.2,1.2,1.3c0.2,0,0.5,0.2,0.6,0.3c0.1,0.3,0.4,0.6,0.6,0.8c0.3,0.1,0.5,0.4,0.5,0.8
			c0,0.4,0,0.5,0.4,0.6c0.2-0.1,0.3-0.2,0.5-0.3c0.3-0.1,0.7-0.1,1,0c0.4,0.3,0.7,0.6,1.1,0.9c0.8,0.4,1.6-0.4,2.2-0.9
			c0.9,0.5,1.5,1.6,2.7,1.6c0.8-0.4,1.7-0.5,2.6-0.3c0.4,0,0.8-0.1,1.2-0.2c0.6,0.1,1.3,0.3,1.9,0.5c1.3,0,1.3-2.4,2.5-1.7
			c0.5,0.3,0.7,0.9,0.6,1.5c-0.3,0.2-0.6,0.3-0.9,0.2c-0.3,0.1-0.5,0.4-0.5,0.8c0.1,0.3,0.1,0.4-0.2,0.6c-0.2,0.2-0.5,0.4-0.8,0.4
			l3.5,3.2l3.1,3l3.4,0.7l9.6-14.3l-1.1-0.9h-3.5l0.9-2.4c0.3-0.8,0.5-1.2,0.8-1.2v-3h1.3l0.4-2.3l-2.1-0.7L314.4,269.8z"/>
		<path id="Lo_Barnechea" class="st0" d="M386.7,179.6c-0.4,2.1-0.3,4.8-2.8,4.2c-0.3,0.6,0.3,2-1.1,1.5c-0.3,1.1-0.9,0.7-1.3,0.9
			c-0.8,0.9-2.1,0.9-3.5,0.7c-0.5,1.1-4.3,1.9-4.7,5.5c-0.7,0.3-1.1,0-1.9,2.1c-0.1,0.6,0.4,2.1-0.2,1.8c-1.1,0.6-1.6,1-1.4,1.3
			c-0.3,1.1-0.7,2.1-1.4,2.1c0.6,6.1-1.6,2.9-1.3,5.3c0.5,1,0.9,2.2-1.1,5.4c-2.4-0.9-5.3,0.8-8.1,0.4c-0.3,1.3-0.1,3.3-1.5,3.2
			c-0.9,1.8-1.6,0.4-2.9,1.6c-0.8-0.4-1.7-0.3-2.4,0.3h-1.9c-0.6,0.8-1,1.7-1,2.7c-1.2,0.4-0.2,1.1-2.1,3.5c0.6,1.8,0.5,4.5-0.9,5.2
			c-1,0.5-1.9,1.2-2.7,1.9c0.7,3.7-3.9,0.8-1.8,4v2c0.9,2.3,2.1,2.1,1.3,3.4c0.4,0.6,0.8,1.1,1.2,1.6c0.3,0,0.7,0,0.9,0.2
			c0.2,0.2,0.3,0.5,0.4,0.9l1,0.5l0.5,1l0.5-0.4l0.6-0.1l0.3,0.5l0.5,0.1l0.2,0.2h1.2l1,0.6l1.6,1.5l1.2,0.9l4.1-0.3l0.5,0.6
			l1.1-0.5l1.8-0.2l1.2-0.8h0.7l0.9-0.7l1.9,0.3h1.4v1.1l-0.9,0.6l-0.4,1.1v0.4l0.9,1.1l0.3,0.6l-0.1,0.9l0.5,0.2h0.2l1.6,1l2.7,0.5
			l0.5,0.7l-0.1,3.5l0.2,0.2v0.8l2,1.4l1.8,0.2l0.7,2.9l-0.2,0.9l0.8,1.5l0.2,2.8l-1.1,0.9l-0.4,1l0.5,0.8l-0.2,2.1l0.2,1.1l2-0.4
			l1.4,1.1h0.9l0.7,0.9h2.1l2-1.5l2.8-0.1l0.8,0.8h2.4l0.8,0.9h0.9l1.5-2l1.4-2h1.7l1.4-1.7l0.4-0.3l2.5-0.5l-0.6-1.5h0.7l-0.1-1.3
			l4.1,0.6l0.9-0.6l0.1-1l1.8-0.2v-0.7l1.6-0.1l0.8-0.9l1.3,0.1l0.9-0.6l0.3-1.4l1.3-1.3l0.1-1.1l0.9,0.3l2.6-2.2l0.2-4.3l3.2-1.3
			l0.2-1.2l1.5-0.9l0.1-4.2l1-0.9h1.1l1.2-1.3l-0.1-2.9l-1-1.8l-0.3-5.4l-1.3-1.1l0.3-1.8l-2.3-3.2l-0.6-6l-1.8-2l-0.3-2.5l-3.4-2.9
			l0.1-1.2c2.1-3.1,0.1-3.3-0.8-4.4l0.1-1.4l-2.4-0.9V200l-0.8-1.9c-6.7,0.6-1.6-3.2-4.7-5.5l-0.6-2l0.1-5.7h-3.2l-3-3.2l-0.1-1.1
			l-1.9-1l-2.1,0.1c-0.6-1.5-1.2-1.8-1.9-1.9l-2.3-1.2C392.3,179.4,389.7,179.8,386.7,179.6z"/>
	</g>
	<g id="Provincia_Cordillera">
		<path id="Puente_Alto" class="st0" d="M357.3,287.1c-0.4,0-0.3,0.1-0.6,0.1s-0.5,0-0.8,0.1c-0.2,0.1-0.2,0.5-0.5,0.6
			c-0.7,0.1-1.4,0.4-2,0.9l-0.8,0.8l-1.1-1.1l-3.1-0.1l2.2,3.3l-5.6,1.1l0.1,1l-1.9,0.2l-1.4-0.6l-2.1,0.8l0.2,3.3l0.5,0.8l0.1,2.4
			l0.1,1.2l-4,0.8v3.5l-0.4,2l-0.1,2l-0.6,1c0,0,0.1,0,0.1-0.1c0.5-0.3,1.2-0.4,1.8-0.2c0.4,0.2,0.7,0.3,1.1,0.3
			c0.2,0,0.4,0,0.6-0.1c0.2-0.1,0.4-0.1,0.5-0.2c0.1,0.1,0.3,0.1,0.5,0.1c0.1,0,0.3,0,0.4-0.1c0.5-0.2,0.9-0.5,1.4-0.3
			c0.5-0.1,0.9-0.7,1.1,0.1c1,0.4,1.1-1.2,1.9-1.3c0.2,0,0.4,0.1,0.5,0.2l0.2,0.1c0.1,0,0.1,0,0.2-0.1c0.1-0.1,0.2-0.2,0.2-0.4
			c0.1-0.3,0.2-0.6,0.4-1.2c0.5-0.8,1.3-0.5,2-0.6c0-0.7,0.8-1.7,1.4-1c0.2,0.1,0.4,0.1,0.6,0.1c0.1,0,0.2,0,0.3-0.1
			c0.5-0.2,0.9-0.5,1.3-0.8c0.9-0.1,1.7,0.1,2.5,0.4c0.6-0.3,1.1-1.7,1.9-0.9c0.4,0.3,0.9,0.4,1.3,0.4c0.1,0,0.1,0,0.2,0
			c0.1-0.1,0.1-0.2,0.2-0.4c0.1-0.3,0.1-0.6,0-0.8c-0.2-0.4,0.4-0.4,0.6-0.4c0.1,0.2,0.1,0.5,0.2,0.8c0.1,0.2,0.4,0.2,0.7,0.2
			c0.3,0,0.6-0.2,0.6-0.5c0.1-0.3,0.4-0.3,0.4-0.8c0-0.1,0-0.2,0-0.3l0,0c-0.1-0.2-0.2-0.3-0.1-0.5c0.1-0.2,0.4-0.1,0.6-0.1
			c0.1,0,0.2,0.1,0.3,0.1h0.1c0.1,0,0.1,0,0.2-0.1l0.2-0.1c0.3-0.2,0.3-0.5,0.4-0.8c0,0,0,0,0-0.1c0.1-0.2,0.1-0.5-0.1-0.8
			c-0.1-0.2,0-0.3,0.2-0.4h0.1c0.1,0,0.2-0.1,0.3-0.1l0.1-1c0.4,0,0-2-0.1-2.7c-0.1-0.4,0.2-0.9-0.7-0.9c0.4-1-0.4-2.7,1-3.2
			c0.3-2.5,0.9-1.5,1.5-1.7l-0.1-2c1.1-1.2-0.3-1.3-0.5-1.9c-0.6,0-1.2,0-1.8,0.1c0,0.2-0.4,0.3-0.5,0.3c-0.3,0.1-0.6,0.1-0.9,0.2
			c-0.3,0.1-0.5-0.2-0.5-0.3s-0.8-0.1-1-0.1s-0.7-0.1-1-0.1C357.9,287.2,357.6,287.1,357.3,287.1z"/>
		<path id="San_Jose_de_Maipo" class="st0" d="M458.5,466.3l-0.1-2l5-5.4l3.3-0.9c3.6-4.1,6.1-0.9,5-0.5c1.8,1.3,3.5,2.7,4.9,4.4
			c0.3,0.5,2,1.4,2.8,3c0.9,1.9,1.9,2.4,3.2,1.3l1.5-1.6c0.4-5.2,0.7-2.1,4.5-3c1.7-1,3.5-1.8,5.4-2.4c1.6-0.3,2.4,0.7,4.8,0.2
			c0.6-0.9,1.5-2.7,3.4-2.4c1.7-3.4,2.5-0.8,2.9-6.5c1.4-5.9-0.8-5.5-1.2-8.3c-2.1-3.1-12.9-11.7-11.2-13.2c-1-1.4,0-0.6,2.7-7.7
			c1,0.3,2.1,0,2.9-0.6c0.8-3.6,4-4.6,1.4-6.9c-6.3-1.2-1.9-5.2-0.8-8.3c4.9-3.8,4.1-5.7,0.5-6.6c0.8-1.4,0.2-5.9-4.6-7.5
			c-0.4-1.8-1.3-2.6-4.8,0.1c-1.6-0.2-3.3-0.1-3.7-3.1l2.6-6.5l-0.1-3.2l2.2-1.8l4.4-5.6l-0.2-2l-2.5-1.9l-1.2-3.4l-4-2.9l-0.2-3.1
			l0.8-0.9l0.8-8c-3-4.3-3.7-8.2,1.5-11l-0.1-1.7c7-9.2-0.2-10.9,0.1-16.3c2.3-7.1,1.6-7.9,0.9-13.9c-1-3.5,0.8-5.3,1.2-8l-0.1-6.7
			c-2-5.3,0.1-4.5,0.5-6.2c0.6-1.6,0.2-3.8,3.2-4.2c2.6-2.1,2.5-3,2.9-4.1c0.9-3-0.6-8.7,3-8.7v-2.8c0.4-3.8-0.6-8.9,3.5-9l-0.9-5.2
			l-1.8-2c1.7-0.5,2,1.8,6.2-2.1l1.8-5.3l-0.3-5.3l-4-5.2c-1.7-2.5,0.9-7.1-5.2-7.4c-2.9-0.3-3.3-6.1-8.7-1l-7.1-0.1l-2.9-1.6
			l-2.2-4.4c-1.9,7.6-5.2,3.8-5.1,7.6c-1.5-0.4-3.2-1.3-3.1,1.8l-1.4,1.3l-2.1,3l-2.7,1.2l-3.2,0.3l-1.6-3l0.9-1.4l-0.3-3.1
			l-3.5-1.1l-1.6-1.4l-0.3-3.8l1.1-1.9l0.1-3.6l-6.4-3.4l-1.2-3.2l0.9-8c-4.7-6.6,2.8-3.8,0.5-9.4c-5.4-1.7-4.5-4.2-2.4-6.8
			c-1.2-3.6-0.1-8.5-4.5-10.4c0.5-0.8-0.5-1.5-1.2-2.2l2-4.4h-3.4c-3.5,1.2-4.6,3.6-6.8,5.5c-1.1,0.1-2.1,0-2.2,4
			c-3.5,2.2-2.9,3.6-7.4,3.9l-3.9,2.4l-1.1,2.9c-2,0.3-3.7,2-5.3,4c-0.5,0.4-0.3,1.2,1.5,2.9c-0.9,1.5-2,2.9-3.4,4l-0.2,3.9l0.8,1.9
			v4.5l2.3,1.3l-0.1,1.4c0.8,1.1,2.8,1.2,0.8,4.4l-0.1,1.2l3.4,2.9l0.3,2.5l1.8,2l0.6,6l2.3,3.2l-0.3,1.8l1.3,1.1l0.3,5.4l1.1,1.7
			l0.1,2.9l-1.2,1.3h-1.1l-1,0.9l-0.1,4.2l-1.5,0.9l-0.2,1.2l-3.2,1.3l-0.2,4.3l-2.6,2.2l-0.9-0.3l-0.1,1.1l-1.3,1.3l-0.3,1.4
			l-0.9,0.6l-1.3-0.1l-0.8,0.9l-1.6,0.1v0.7l-1.8,0.2l-0.1,1l-0.9,0.6l-4.1-0.6l0.1,1.3h-0.7l0.2,1.4l-2.5,0.5l-0.4,0.3l-1.4,1.7
			h-1.7l-1.4,2l-1.5,2h-0.9l-0.8-0.9h-2.4l-0.8-0.8l-2.8,0.1l-2,1.5h-2.1l-0.7-0.9h-1.2l-1.4-1.1l-2,0.4l-0.2-1.1h-0.4l-0.6,1.2
			l0.3,0.8v0.8c-0.2,0.9,0.4,1.8-0.3,2.2c-0.3,0.3-0.6,0.5-1,0.6c-0.3,0.4-0.5,0.8-1.1,0.9c-0.3,0-0.9-0.1-0.9,0.1
			c-0.1,0.3-0.4,0.5-0.6,0.6c-0.4,0.2-0.9,0.3-1.3,0.4c0,0.3,0,0.7,0,1c0,0.1-0.3,0.3-0.4,0.3c-0.4,0-0.8,0.2-0.9,0.7
			c-0.2,0.5-0.2,0.9-0.4,1.4c0.1,0.6-0.1,0.5-0.8,0.5c-0.4,0.1-0.7,0.3-1,0.6c0,0.4-0.1,0.9-0.3,1.2c-0.3,0.5-0.6,0.5-1.1,0.9
			c-0.2,0.3-0.5,0.7-0.6,1c-0.2,0.2-0.4,0.2-0.6,0.2c0.2,0.6,1.7,0.7,0.5,1.9l0.1,2c-0.5,0.2-1.1-0.9-1.5,1.7
			c-1.4,0.5-0.7,2.1-1,3.2c0.9,0,0.6,0.5,0.7,0.9c0.1,0.7,0.5,2.6,0.1,2.7l-0.1,1c0,0.1,1.1-0.1,1.3-1.1l0.6-0.6
			c0.2-0.3,0.5,0,0.7,0.2c0.4,0.2,0.3-0.1,0.5-0.3c0.2-0.2,0-0.6,0.2-0.9s0.5-0.1,0.8,0c0.3,0.1,0.5,0.4,0.8,0.5
			c0.2,0.1,0.5,0.1,0.8-0.1c0.2-0.3,0.5-0.4,0.9-0.4c0.3,0,0.5,0,0.8,0.1v-0.3c-0.1-0.3-0.8-0.6-0.4-0.9v-0.4
			c-0.1-0.1-0.3-0.2-0.2-0.4c0.2,0,0.4,0,0.6,0.1c0.2,0.1,0.3,0.2,0.5,0.3c0.3,0,0.5-0.1,0.6-0.4c0.1-0.3,0.2-0.5,0.4-0.8
			c0.1-0.1,0.3-0.2,0.5-0.2s0.4,0,0.5,0.2c0.2,0.2,0.3,0.4,0.5,0.6l0.1,0.1c0.2,3,0.5,4,0.9,4.4c0.5,0,0.5,2.7,0.6,4.8
			c0.1,1.2,1.2,0.3,2,0.2c1-0.3,0,3.1,1.4,4.2c2.1,0.4,0.9,1.7,2.5,2.3c-0.1,1.6-1.3,0.9-1.6,3.2c-3.6-0.1-2.4,0.4-3,3.2
			c-5.7,5.1,4.5,5.4,6.7,8c-0.1,0.6-0.2,1.2-0.4,1.8c-0.2,1.7,0.4,1.4-0.6,3.5c-0.4,0.9,0.8,1.5,0.6,3c0,0.5,0.9,0.4,0.9,1.4
			c-1.5,1.9,0.5,1.7-1.8,5.7c0.7,0.7,0.4,1.7,0.5,2.5c0.7,1,0.9,2,0.3,2.8c0.4,2.2,1.1,4.1-0.4,6.3l-0.2,3.6
			c-0.9,1.3-1.1,0.8-1.6,0.8c-2-0.1,0.1,1.6-4.8,3.6c0.2,0.8,1,1.1,2.6,1c0.1,0.6,0.5,1.3,1.9,2c0.1,1.5,1.2,3.1,4.2,4.6
			c1-1.9,1.1-0.8,3.6-0.1c-0.1,2.2,0.4,2.2,0.8,2.7c-0.3,0.8-0.6,1.6,0.6,3.1c-0.6,0.6-1.8,0.7-1.2,2.5c-2-0.3-0.9,0.6-0.6,3
			c1.3,0.7,2.1,2,2.1,3.5l1.8,1.9c3.6-0.2,1.7,2.7,1.7,4.5l1.7,1.8l2.7,0.2l0.3,3.4c1.5,1.3,1.2,2.3,0,3.1c1.2,1.3,1.9,2.5-1.1,3.5
			l-1.3,1.4c1.6,2.8-2.8,2.7,0,3.8c-0.5,1.6-0.2,3,3,3.8c1-1.1,1.9-1.8,2.6,0.2l1.2,0.8l0.5-1c0.8,1,1.5-0.3,3.4-0.8
			c1.2,1.3,2.4,1.8,4.1,2.9c1.3,0.3,1.8-1.8,3.6-2.6c-0.5-2.8,1.8-3.5,1.4-6.3l6.3-0.6l2,0.4l3.4,0.1l2.3,2.8l-0.4,3l0.4,4.2l2.3,4
			c-1.7,1.1-1.7,2.9,0,3.9c0.2,1.1,0.5,2.2,1.7,2c4.7-0.2-1.1,3.2-2.6,5.1c0.4,1.7,1.8,3.8-0.6,4.5c0,0.5-0.2,1,1.1,1.3
			c2.1-0.9,3.4,2.6,3.3,4.7l2.9,2.4c3.8-1.7,3.6,0.6,3.8,2.5c1.5,0.9,3.7,0.4,5.7,0.3l1.2-1.2l2.4,1.2l0.1,1.7
			c2.8,0.2-0.9,0.7,3.4,4.2c-0.5,1.4-0.5,2.8,0,4.2c-0.8,0.9-0.3,3.6,1,7.2C455.8,463.5,457.1,464.9,458.5,466.3z"/>
		<path id="Pirque" class="st0" d="M373.1,295.8L373.1,295.8c0.3,3.1,0.6,4.1,1,4.5c0.5,0,0.5,2.7,0.6,4.8c0.1,1.2,1.2,0.3,2,0.2
			c1-0.3,0,3.1,1.4,4.2c2.1,0.4,0.9,1.7,2.5,2.3c-0.1,1.6-1.3,0.9-1.6,3.2c-3.6-0.1-2.4,0.4-3,3.2c-5.7,5.1,4.5,5.4,6.7,8
			c-0.1,0.6-0.2,1.2-0.4,1.8c-0.2,1.7,0.4,1.4-0.6,3.5c-0.4,0.9,0.8,1.5,0.6,3c0,0.5,0.9,0.4,0.9,1.4c-1.5,1.9,0.5,1.7-1.8,5.7
			c0.7,0.7,0.4,1.7,0.5,2.5c0.7,1,0.9,2,0.3,2.8c0.4,2.2,1.1,4.1-0.4,6.3l-0.2,3.6c-0.9,1.3-1.1,0.8-1.6,0.8c-2-0.1,0.1,1.6-4.8,3.6
			c-0.2,1.1-0.5-1.6-2.1,2c-2.1,1.6-1.6-0.9-3.4,0.1l-0.8,0.7c-0.5-1.2-1.2-2.4-0.4-3.8c-1,0.2-0.9-1.8-1-3.4
			c-0.5,0-1.1,0.3-0.9-1.2c-3.5-1.1-3.3,2-6.8-0.3c-1.8,2-0.8-1.4-3.2-2.8c0.5-1.3,0-2-1.4-1.9c0.6-0.9,2.6-2.3,0.2-2.4
			c0.5-0.7-0.5-0.7-1.6-0.7c-0.5-1.5-1-1.3-1.6-1.5c-0.5,0-0.8-0.7-1-1.8c-2.4,1.6-1.9-0.8-4.5-0.2c-0.9,0.8-1.8,1.5-3.2,0.2
			l-0.4-5.2c-1.4-2.2-3.9-0.8-3.4-8.9l-1.7-0.5l-0.2-2.4c-1.7,0.5-0.7-0.8-1-1.2c-0.6,0.4-1.5,0.2-1.9-0.4c-0.5-1.1-1.2-1.6-1.9-1.6
			l0.4-1.6c-1,0-0.7-1.5-1.8-3.4c-0.9-0.9-0.2-1.9-0.1-2.8c2.4-1.4,2.1-1,2.4-0.9l-0.1-0.8c0.7-0.6,1-1.6,0.8-2.5
			c0.1-0.1,0.3-0.2,0.3-0.4l0.4-0.6v-0.1l0,0c0.5-0.3,1.2-0.4,1.8-0.2c0.4,0.2,0.7,0.3,1.1,0.3c0.2,0,0.4,0,0.6-0.1
			c0.2-0.1,0.4-0.1,0.5-0.2c0.1,0.1,0.3,0.1,0.5,0.1c0.1,0,0.3,0,0.4-0.1c0.5-0.2,0.9-0.5,1.4-0.3c0.5-0.1,0.9-0.7,1.1,0.1
			c1,0.4,1.1-1.2,1.9-1.3c0.2,0,0.4,0.1,0.5,0.2l0.2,0.1c0.1,0,0.1,0,0.2-0.1c0.1-0.1,0.2-0.2,0.2-0.4c0.1-0.3,0.2-0.6,0.4-1.2
			c0.5-0.8,1.3-0.5,2-0.6c0-0.7,0.8-1.7,1.4-1c0.2,0.1,0.4,0.1,0.6,0.1c0.1,0,0.2,0,0.3-0.1c0.5-0.2,0.9-0.5,1.3-0.8
			c0.9-0.1,1.7,0.1,2.5,0.4c0.6-0.3,1.1-1.7,1.9-0.9c0.4,0.3,0.9,0.4,1.3,0.4c0.1,0,0.1,0,0.2,0c0.1-0.1,0.1-0.2,0.2-0.4
			c0.1-0.3,0.1-0.6,0-0.8c-0.2-0.4,0.4-0.4,0.6-0.4c0.1,0.2,0.1,0.5,0.2,0.8c0.1,0.2,0.4,0.2,0.7,0.2c0.3,0,0.6-0.2,0.6-0.5
			c0.1-0.3,0.4-0.3,0.4-0.8c0-0.1,0-0.2,0-0.3l0,0c-0.1-0.2-0.2-0.3-0.1-0.5c0.1-0.2,0.4-0.1,0.6-0.1c0.1,0,0.2,0.1,0.3,0.1h0.1
			c0.1,0,0.1,0,0.2-0.1l0.2-0.1c0.3-0.2,0.3-0.5,0.4-0.8c0,0,0,0,0-0.1c0.1-0.2,0.1-0.5-0.1-0.8c-0.1-0.2,0-0.3,0.2-0.4h0.1
			c0.1,0,0.2-0.1,0.3-0.1c0,0.1,1.1-0.1,1.3-1.1l0.6-0.6c0.2-0.3,0.5,0,0.7,0.2c0.4,0.2,0.3-0.1,0.5-0.3c0.2-0.2,0-0.6,0.2-0.9
			s0.5-0.1,0.8,0c0.3,0.1,0.5,0.3,0.8,0.5c0.2,0.1,0.5,0.1,0.8-0.1c0.2-0.3,0.5-0.4,0.9-0.4c0.3,0,0.5,0,0.8,0.1v-0.3
			c-0.1-0.3-0.7-0.6-0.4-0.9v0.1c-0.1-0.1-0.3-0.2-0.1-0.4c0.2,0,0.4,0,0.6,0.1c0.2,0.1,0.4,0.2,0.5,0.3c0.3,0,0.5-0.1,0.6-0.4
			c0.1-0.3,0.2-0.5,0.4-0.8c0.1-0.1,0.3-0.2,0.5-0.2s0.4,0,0.5,0.2C372.8,295.5,373,295.6,373.1,295.8z"/>
		<path id="path7782" class="st0" d="M458.5,466.3l-0.1-2l5-5.4l3.3-0.9c3.6-4.1,6.1-0.9,5-0.5c1.8,1.3,3.5,2.7,4.9,4.4
			c0.3,0.5,2,1.4,2.8,3c0.9,1.9,1.9,2.4,3.2,1.3l1.5-1.6c0.4-5.2,0.7-2.1,4.5-3c1.7-1,3.5-1.8,5.4-2.4c1.6-0.3,2.4,0.7,4.8,0.2
			c0.6-0.9,1.5-2.7,3.4-2.4c1.7-3.4,2.5-0.8,2.9-6.5c1.4-5.9-0.8-5.5-1.2-8.3c-2.1-3.1-12.9-11.7-11.2-13.2c-1-1.4,0-0.6,2.7-7.7
			c1,0.3,2.1,0,2.9-0.6c0.8-3.6,4-4.6,1.4-6.9c-6.3-1.2-1.9-5.2-0.8-8.3c4.9-3.8,4.1-5.7,0.5-6.6c0.8-1.4,0.2-5.9-4.6-7.5
			c-0.4-1.8-1.3-2.6-4.8,0.1c-1.6-0.2-3.3-0.1-3.7-3.1l2.6-6.5l-0.1-3.2l2.2-1.8l4.4-5.6l-0.2-2l-2.5-1.9l-1.2-3.4l-4-2.9l-0.2-3.1
			l0.8-0.9l0.8-8c-3-4.3-3.7-8.2,1.5-11l-0.1-1.7c7-9.2-0.2-10.9,0.1-16.3c2.3-7.1,1.6-7.9,0.9-13.9c-1-3.5,0.8-5.3,1.2-8l-0.1-6.7
			c-2-5.3,0.1-4.5,0.5-6.2c0.6-1.6,0.2-3.8,3.2-4.2c2.6-2.1,2.5-3,2.9-4.1c0.9-3-0.6-8.7,3-8.7v-2.8c0.4-3.8-0.6-8.9,3.5-9l-0.9-5.2
			l-1.8-2c1.7-0.5,2,1.8,6.2-2.1l1.8-5.3l-0.3-5.3l-4-5.2c-1.7-2.5,0.9-7.1-5.2-7.4c-2.9-0.3-3.3-6.1-8.7-1l-7.1-0.1l-2.9-1.6
			l-2.2-4.4c-1.9,7.6-5.2,3.8-5.1,7.6c-1.5-0.4-3.2-1.3-3.1,1.8l-1.4,1.3l-2.1,3l-2.7,1.2l-3.2,0.3l-1.6-3l0.9-1.4l-0.3-3.1
			l-3.5-1.1l-1.6-1.4l-0.3-3.8l1.1-1.9l0.1-3.6l-6.4-3.4l-1.2-3.2l0.9-8c-4.7-6.6,2.8-3.8,0.5-9.4c-5.4-1.7-4.5-4.2-2.4-6.8
			c-1.2-3.6-0.1-8.5-4.5-10.4c0.5-0.8-0.5-1.5-1.2-2.2l2-4.4h-3.4c-3.5,1.2-4.6,3.6-6.8,5.5c-1.1,0.1-2.1,0-2.2,4
			c-3.5,2.2-2.9,3.6-7.4,3.9l-3.9,2.4l-1.1,2.9c-2,0.3-3.7,2-5.3,4c-0.5,0.4-0.3,1.2,1.5,2.9c-0.9,1.5-2,2.9-3.4,4l-0.2,3.9l0.8,1.9
			v4.5l2.3,1.3l-0.1,1.4c0.8,1.1,2.8,1.2,0.8,4.4l-0.1,1.2l3.4,2.9l0.3,2.5l1.8,2l0.6,6l2.3,3.2l-0.3,1.8l1.3,1.1l0.3,5.4l1.1,1.7
			l0.1,2.9l-1.2,1.3h-1.1l-1,0.9l-0.1,4.2l-1.5,0.9l-0.2,1.2l-3.2,1.3l-0.2,4.3l-2.6,2.2l-0.9-0.3l-0.1,1.1l-1.3,1.3l-0.3,1.4
			l-0.9,0.6l-1.3-0.1l-0.8,0.9l-1.6,0.1v0.7l-1.8,0.2l-0.1,1l-0.9,0.6l-4.1-0.6l0.1,1.3h-0.7l0.2,1.4l-2.5,0.5l-0.4,0.3l-1.4,1.7
			h-1.7l-1.4,2l-1.5,2h-0.9l-0.8-0.9h-2.4l-0.8-0.8l-2.8,0.1l-2,1.5h-2.1l-0.7-0.9h-1.2l-1.4-1.1l-2,0.4l-0.2-1.1h-0.4l-0.6,1.2
			l0.3,0.8v0.8c-0.2,0.9,0.4,1.8-0.3,2.2c-0.3,0.3-0.6,0.5-1,0.6c-0.3,0.4-0.5,0.8-1.1,0.9c-0.3,0-0.9-0.1-0.9,0.1
			c-0.1,0.3-0.4,0.5-0.6,0.6c-0.4,0.2-0.9,0.3-1.3,0.4c0,0.3,0,0.7,0,1c0,0.1-0.3,0.3-0.4,0.3c-0.4,0-0.8,0.2-0.9,0.7
			c-0.2,0.5-0.2,0.9-0.4,1.4c0.1,0.6-0.1,0.5-0.8,0.5c-0.4,0.1-0.7,0.3-1,0.6c0,0.4-0.1,0.9-0.3,1.2c-0.3,0.5-0.6,0.5-1.1,0.9
			c-0.2,0.3-0.5,0.7-0.6,1c-0.2,0.2-0.4,0.2-0.6,0.2c0.2,0.6,1.7,0.7,0.5,1.9l0.1,2c-0.5,0.2-1.1-0.9-1.5,1.7
			c-1.4,0.5-0.7,2.1-1,3.2c0.9,0,0.6,0.5,0.7,0.9c0.1,0.7,0.5,2.6,0.1,2.7l-0.1,1c0,0.1,1.1-0.1,1.3-1.1l0.6-0.6
			c0.2-0.3,0.5,0,0.7,0.2c0.4,0.2,0.3-0.1,0.5-0.3c0.2-0.2,0-0.6,0.2-0.9s0.5-0.1,0.8,0c0.3,0.1,0.5,0.4,0.8,0.5
			c0.2,0.1,0.5,0.1,0.8-0.1c0.2-0.3,0.5-0.4,0.9-0.4c0.3,0,0.5,0,0.8,0.1v-0.3c-0.1-0.3-0.8-0.6-0.4-0.9v-0.4
			c-0.1-0.1-0.3-0.2-0.2-0.4c0.2,0,0.4,0,0.6,0.1c0.2,0.1,0.3,0.2,0.5,0.3c0.3,0,0.5-0.1,0.6-0.4c0.1-0.3,0.2-0.5,0.4-0.8
			c0.1-0.1,0.3-0.2,0.5-0.2s0.4,0,0.5,0.2c0.2,0.2,0.3,0.4,0.5,0.6l0.1,0.1c0.2,3,0.5,4,0.9,4.4c0.5,0,0.5,2.7,0.6,4.8
			c0.1,1.2,1.2,0.3,2,0.2c1-0.3,0,3.1,1.4,4.2c2.1,0.4,0.9,1.7,2.5,2.3c-0.1,1.6-1.3,0.9-1.6,3.2c-3.6-0.1-2.4,0.4-3,3.2
			c-5.7,5.1,4.5,5.4,6.7,8c-0.1,0.6-0.2,1.2-0.4,1.8c-0.2,1.7,0.4,1.4-0.6,3.5c-0.4,0.9,0.8,1.5,0.6,3c0,0.5,0.9,0.4,0.9,1.4
			c-1.5,1.9,0.5,1.7-1.8,5.7c0.7,0.7,0.4,1.7,0.5,2.5c0.7,1,0.9,2,0.3,2.8c0.4,2.2,1.1,4.1-0.4,6.3l-0.2,3.6
			c-0.9,1.3-1.1,0.8-1.6,0.8c-2-0.1,0.1,1.6-4.8,3.6c0.2,0.8,1,1.1,2.6,1c0.1,0.6,0.5,1.3,1.9,2c0.1,1.5,1.2,3.1,4.2,4.6
			c1-1.9,1.1-0.8,3.6-0.1c-0.1,2.2,0.4,2.2,0.8,2.7c-0.3,0.8-0.6,1.6,0.6,3.1c-0.6,0.6-1.8,0.7-1.2,2.5c-2-0.3-0.9,0.6-0.6,3
			c1.3,0.7,2.1,2,2.1,3.5l1.8,1.9c3.6-0.2,1.7,2.7,1.7,4.5l1.7,1.8l2.7,0.2l0.3,3.4c1.5,1.3,1.2,2.3,0,3.1c1.2,1.3,1.9,2.5-1.1,3.5
			l-1.3,1.4c1.6,2.8-2.8,2.7,0,3.8c-0.5,1.6-0.2,3,3,3.8c1-1.1,1.9-1.8,2.6,0.2l1.2,0.8l0.5-1c0.8,1,1.5-0.3,3.4-0.8
			c1.2,1.3,2.4,1.8,4.1,2.9c1.3,0.3,1.8-1.8,3.6-2.6c-0.5-2.8,1.8-3.5,1.4-6.3l6.3-0.6l2,0.4l3.4,0.1l2.3,2.8l-0.4,3l0.4,4.2l2.3,4
			c-1.7,1.1-1.7,2.9,0,3.9c0.2,1.1,0.5,2.2,1.7,2c4.7-0.2-1.1,3.2-2.6,5.1c0.4,1.7,1.8,3.8-0.6,4.5c0,0.5-0.2,1,1.1,1.3
			c2.1-0.9,3.4,2.6,3.3,4.7l2.9,2.4c3.8-1.7,3.6,0.6,3.8,2.5c1.5,0.9,3.7,0.4,5.7,0.3l1.2-1.2l2.4,1.2l0.1,1.7
			c2.8,0.2-0.9,0.7,3.4,4.2c-0.5,1.4-0.5,2.8,0,4.2c-0.8,0.9-0.3,3.6,1,7.2C455.8,463.5,457.1,464.9,458.5,466.3z"/>
	</g>
	<g id="Provincia_Maipo">
		<path id="San_Bernardo" class="st0" d="M315.9,283.4l4.1,1.8l4.2,1.8l-1.5,4.2l-0.6-0.3v2.1l-1.1,2.3l5.4,2.3l2.4,0.5l-1.3,5.4
			l5.3,0.5l-0.4,2.9h0.5l-0.2,1.3h3.4l-0.1,2l-0.6,1c-0.1,0.2-0.3,0.4-0.4,0.6c-0.1,0.1-0.2,0.3-0.3,0.4c-0.3,0.2-0.7,0.4-1.1,0.4
			c-0.3,0-0.1,0.1-0.3,0.2c-0.6,0.1-1.2,0-1.7,0.1c-0.1,0.2,0,0.3-0.2,0.5c-0.4,0.1-0.8,0.1-1.2,0.1c-0.2,0,0,0.2-0.1,0.3
			c-0.1,0.1-0.3,0-0.3,0.1c-0.2,0.4-0.2,0.3-0.5,0.7c-0.3,0.5-0.7,0.9-1.2,1.2c-0.2-0.3-0.2-0.3-0.5-0.3c-0.1,0-0.3,0-0.4,0
			c-0.3,0.1-0.1,0.8-0.6,0.6c-0.1,0.1-0.3-0.3-0.3-0.3c-0.2,0.5-0.4,0.4-0.6,0.5c-0.1,0.2-0.2,0.4-0.3,0.6c-0.3,0-0.6,0-0.9,0
			c-0.6,0-0.4-0.1-0.5-0.4l-1.3-0.1l-2.3,1c-2.2,0.6-1.1,2.8-1.7,4.2c-2,3.2-2.9,0.5-7.2,4.6l-3.5,2.4c-2.2-0.2-1.9,1.9-3.6,3.6
			c-0.6,1.2-1.6-0.5-2,2c-1.9-0.6-3.2,4.9-4.4,4.2c-2-1.8-0.7-3.2-0.4-3.2c1-1,0.5-1.7,0.4-2.5c0.6-0.8-0.1-1.7-0.3-2.5
			c0.1-2,2.8,2.3,3.2-0.9c-0.2-1.6,0.9-2,2.4-3.9c1-0.8,0.2-1.1,0.1-1.5c-0.4-4.1-2.3-4.1-1.3-6.4c3.9-7.3,5.8-1.5,8.6-0.9h2.9
			c0.9-0.8,0.8-2.2,1-3.4l0.4-1.3c-1.8-0.6-1.2-0.8-1.5-1l-0.3-1.6h-0.6c-1-0.2-0.8-1.8-2-2.3v-0.5l2-0.5c-2-2.3,0-3.4-2-3.8
			c1.8-1.5,2.7-1.3,2.6-1.9c-1.3,0.1-1.9-3.6-2.5-3.3v-1.1c-1.7-0.7-2.3-0.4-2.7-0.9L315.9,283.4z"/>
		<path id="Calera_de_Tango" class="st0" d="M296.6,302.6l0.9-1.2l0.9-0.8l1.2-0.2l2.4-4.4l2.1,0.2l0.5-1.6l3.5,0.6
			c0.5,0.4,1.1,0.1,2.7,0.9v1.1c0.7-0.3,1.2,3.4,2.5,3.3c0.1,0.6-0.9,0.4-2.6,1.9c2,0.4-0.1,1.5,2,3.8l-2,0.5v0.8
			c1.2,0.5,0.9,2.1,2,2.3h0.6l0.3,1.6c0.3,0.3-0.3,0.4,1.5,1l-0.6,1.1c-0.3,1.1-0.2,2.5-1,3.4h-2.9c-2.8-0.7-4.6-6.5-8.6,0.9
			l-1.9-0.9l-0.7-4.6l-1.7,0.1l-2.5,4.5l-6.8-2.8l3.7-3.6l5-6.7L296.6,302.6z"/>
		<path id="Buin" class="st0" d="M328.7,338.7c1,0.1,1.1-1.8,2-2.2c0.2-0.1,0.7-1.1,0.9-1.1c0.8,0,0.8,0.6,1.4,0.9
			c0.4,0.2,1.5,0.2,1.8,0.6c0.5,0.9,0.6,0.1,1.2-0.1c0.9-0.2,0.5-0.5,0.6-1.3c1-0.1,0.6-1.1,1-1.2h2.2c-0.1-1.3-0.1-2.7,0-4
			l-1.7-0.5l-0.2-2.4c-1.7,0.5-0.7-0.8-1-1.2c-0.6,0.4-1.5,0.2-1.9-0.4c-0.5-1.1-1.2-1.6-1.9-1.6l0.4-1.6c-1,0-0.7-1.5-1.8-3.4
			c-0.9-0.9-0.2-1.9-0.1-2.8c2.4-1.4,2.1-1,2.4-0.9l-0.1-0.8c0.7-0.6,1-1.6,0.8-2.5c-0.3,0.2-0.7,0.4-1.1,0.5
			c-0.3,0-0.1,0.1-0.3,0.2c-0.6,0.1-1.2,0-1.7,0.1c-0.1,0.2,0,0.3-0.2,0.5c-0.4,0.1-0.8,0.1-1.2,0.1c-0.2,0,0,0.2-0.1,0.3
			c-0.1,0.1-0.3,0-0.3,0.1c-0.2,0.4-0.2,0.3-0.5,0.7c-0.3,0.5-0.7,0.9-1.2,1.2c-0.2-0.3-0.2-0.3-0.5-0.3c-0.1,0-0.3,0-0.4,0
			c-0.3,0.1-0.1,0.8-0.6,0.6c-0.1,0.1-0.3-0.3-0.3-0.3c-0.2,0.5-0.4,0.4-0.6,0.5c-0.1,0.2-0.2,0.4-0.3,0.6c-0.3,0-0.6,0-0.9,0
			c-0.6,0-0.4-0.1-0.5-0.4l-1.3-0.1l-2.3,1c-2.2,0.6-1.1,2.8-1.7,4.2c-2,3.2-2.9,0.5-7.2,4.6l-3.5,2.4c-2.2-0.2-1.9,1.9-3.6,3.6
			c-0.6,1.2-1.6-0.5-2,2c-1.9-0.6-3.2,4.9-4.4,4.2c-0.4,0.7-0.7,0.6-0.9,1.2c-0.6,1.3-0.5,1.8-1.6,2.2c-1.1,0.4-1,1.5-1.4,2.4
			c-0.9,0.4-1.2,1.4-1.8,3.1c-0.1,0.5-1.1-0.1-1.4,0.2c-0.5,1.4-1.3,3.8-3.1,2.1c-0.8,0.3-1.6,0.5-2.5,0.6c-1-0.4-2.2-0.2-3,0.5
			c0.4,0.9,2.2,1.5,3.1,1.8c1.4,0.5,1-1.8,2.2-0.6c1,0.8,2.1,0.5,3,1.5c0.9,1,1.7,1.2,3,1.4c0.9,0.6,0.8,1.9,2,2c1,0,2.1-0.3,3-0.7
			c1.1-0.4,2.2-0.1,3.4-0.2c1.3-0.4,3.2,0.9,3.4,0.9l4.5-5.1l1,1.1l0.1-2.2l1.2-7.7l2.7,0.1l-0.1,3.2l7.3,0.2l0.1,0.9l2.7-0.8l0.1-8
			L328.7,338.7z"/>
		<path id="Paine" class="st0" d="M339.9,334.2c0.5,3.6,2.3,3.2,3.4,4.9l0.4,5.2c1.3,1.3,2.2,0.6,3.2-0.2c2.6-0.6,2.1,1.8,4.5,0.2
			c0.3,1.1,0.5,1.9,1,1.8c0.5,0.2,1,0,1.6,1.5c1,0,2.1,0,1.6,0.7c2.4,0.1,0.5,1.4-0.2,2.4c1.4-0.1,1.9,0.6,1.4,1.9
			c2.4,1.4,1.4,4.8,3.2,2.8c3.5,2.2,3.3-0.9,6.8,0.3c-0.2,1.5,0.4,1.2,0.9,1.2c0.1,1.6,0,3.5,1,3.4c-0.8,1.4-0.2,2.6,0.4,3.8
			c0.6,1.2,0.1-0.3-2-0.3c-2.1,0-5.9-0.3-5,2.8c-1.1,1.7-2.6,4.8-4.7,3.1c-1.5,2.2-2.8-2.4-5-0.9c-1.5,0.5-2.1,0-2.8,2
			c-1.6,1-3.3,2.7-4.8,0.8c-3.2,0.1-3.5,0.4-4.8,2.4c-0.4,0.5-1.2,0-1.7,0.3c-1.1,0.9,0.4,2.7-1.6,3c-2.2,0.1-2.4,1.6-2.3,3.1
			c-1.9,1.4-4.3,4.6-6.1,1.3c-1.4-1.7-3.6-2.7-3.7-4.9c-1.1-1.8-4.2-3.2-5.4,0.1c-1.2,0.9-0.8,1.3-2,1.5c-0.7,1.5-3.8-0.5-3.8,2.2
			c-3.1,3.5-3.9,4.6-5.9,2.7c-2.2-0.4-5.2-4.3-6.3-0.5c0.2,2.6-2.1,3.1-4,3.8c-0.3-0.9-0.7-1.3-1.1-0.8c-0.4,0.5-1,0.7-1.6,0.7
			c-0.8,0-0.8,0.2-1,0.7c-0.2,0.3-0.5,1-0.7,1.3c-0.3,0.6-0.5,0.5-0.3,1.3s-0.4,0.6-0.9,0.6c-0.3,0-0.6,0.5-0.9,0.6
			c-0.3,0.3-0.6,0.6-0.9,0.9c-0.2,0.4-0.6,0.7-1,0.7c-0.4,0.1-0.8,0.3-1.1,0.5c-0.4,0.3-0.3,0.5-1.1,0.5c-0.3,0-0.5,0.5-1.1,0.5
			c-0.5,0.1-1.1,0-1.5-0.3c-1-0.5-0.5-0.5-1-1.2c-0.3-0.4-0.6-0.7-1-0.9c-0.4-0.3-1.1,0.2-1.5,0c-0.6-0.3-1.2-0.4-1.9-0.4
			c-0.4,0.1-0.9,0.3-1.2,0.5c-0.5,0.2-1.2-0.6-1.9-0.6c-0.9,0-1.2-0.2-2-0.2s-1.5-0.2-2.1-0.7c-0.1-0.1-0.3-0.2-0.4-0.3
			c-0.7-0.5-0.3-0.8,0.1-1.1c0.6-0.6,1-0.5,1-1.2c0,0-0.8-0.9-0.9-1c-0.1-0.1,0.6-0.5,0.7-0.8c0.2-0.6,0.5-1.1,0.6-1.8
			c0.1-0.7,0.6-0.8,0-1.2c-0.8-0.6-0.9-0.4-0.5-1.1c0.3-0.6,0.3-1.2,0-1.8c-0.1-0.3-0.3-0.8-0.5-1.1c-0.2-0.3-0.4-0.6-0.7-0.9
			c-0.2-0.2,0-0.3-0.4-0.7c-0.4-0.4-1.9-1.5-1.8-2.1c0.4-0.4-0.6-1.8,0.3-2.5c-0.2-1.1-0.7-1.3,0-2.4c0.7-1.1-1.5-0.9-1-2.1
			c0.6-0.5,0.3-2.5-0.1-3.1c-0.8-1.1-0.8-1-0.4-2.2c-0.1-1,0.5-2.3-0.3-3.1c-0.8-0.3-2-1.2-1.6-2.2c0-0.8,0.2-1.6,0.5-2.3
			c-0.4-0.9-0.3-1.9,0.3-2.7c-0.6-0.5,0-1.5,0.3-2.2s-0.6-0.8,0.2-0.6c0.6,0.2,1.3-0.1,1.5-0.8c0.5-0.5,1.2-0.8,1.9-0.8
			c0.7,0.2,1.4,0.4,2,0.9c-0.5,0.5,0.9,0.9,1.1,0.2c0.3-0.9,1.4-0.2,2-0.2c0.9-0.2,0.8,1.3,1.6,1c0.7-0.2,1.3-0.4,2-0.6
			c0.4-0.6,0.7-1.2,0.9-1.9c-0.2-0.7-0.2-1.5,0-2.1c0.2-0.7,0.4-1.5,0.4-2.2c-0.2-0.7,0.6-0.8,0.9-0.2c0.6,0.5,0.5,1.3,0.8,1.9
			c0.6,0.5-0.2,0.7-0.4,0.9c0.1,0.5,1.4,0.4,0.8,1c-0.2,0.5-1.5,0.8-0.9,1.4c0.7,0.3,1.2,0.8,1.7,1.4c0.4,0.6-0.5,0.7-0.1,1.5
			c0.4,0.8,2.2,1.5,3.1,1.8c1.4,0.5,1-1.8,2.2-0.6c1,0.8,2.1,0.5,3,1.5c0.9,1,1.7,1.2,3,1.4c0.9,0.6,0.8,1.9,2,2c1,0,2.1-0.3,3-0.7
			c1.1-0.4,2.2-0.1,3.4-0.2c1.3-0.4,3.2,0.9,3.4,0.9l4.5-5.1l1,1.1l0.1-2.2l1.2-7.7l2.7,0.1l-0.1,3.2l7.3,0.2l0.1,0.9l2.7-0.8l0.1-8
			l3.7,0.1c1,0.1,1.1-1.8,2-2.2c0.2-0.1,0.7-1.1,0.9-1.1c0.8,0,0.8,0.6,1.4,0.9c0.4,0.2,1.5,0.2,1.8,0.6c0.5,0.9,0.6,0.1,1.2-0.1
			c0.9-0.2,0.5-0.5,0.6-1.3c1-0.1,0.6-1.1,1-1.2C338.4,334.2,339.1,334.2,339.9,334.2z"/>
	</g>
	<g id="Provincia_Talagante">
		<path id="Padre_Hurtado" class="st0" d="M294.6,297.7l0.1,1.1l2.7,2.5l0.9-0.8l1.2-0.2l2.4-4.4l2.1,0.2l0.5-1.6l-3.1-3l-3.5-3.2
			c0.3,0,0.6-0.2,0.8-0.4c0.3-0.2,0.3-0.3,0.2-0.6c-0.1-0.3,0.3-0.5,0.5-0.8c0.3,0.1,0.7,0,0.9-0.2c0.1-0.6-0.1-1.1-0.6-1.5
			c-1.2-0.7-1.2,1.7-2.5,1.7c-0.6-0.2-1.2-0.4-1.9-0.5c-0.4,0.1-0.8,0.2-1.2,0.2c-0.9-0.2-1.8-0.1-2.6,0.3c-1.2,0-1.7-1.1-2.7-1.6
			c-0.6,0.5-1.5,1.3-2.2,0.9c-0.4-0.3-0.7-0.6-1.1-0.9c-0.3-0.1-0.7-0.1-1,0c-0.2,0-0.3,0.2-0.5,0.3c-0.4-0.1-0.4-0.3-0.4-0.6
			c0-0.3-0.1-0.5-0.5-0.8c-0.3-0.2-0.5-0.5-0.6-0.8c-0.2-0.2-0.4-0.3-0.6-0.3c-0.9-0.1-1.1-0.5-1.2-1.3c-0.5-0.6-1.2-0.9-2-0.9
			c-0.7,0.1-1.5,0.3-2.1,0.6c0.2,0.3,0.1,0.4-0.1,0.6s0,0.6,0.1,0.9c0,0.4-0.1,0.7-0.3,1c-0.1,0.6-0.3,1.2-0.6,1.7
			c0.2,0.6-0.2,0.6-0.2,1.9c-0.1,0.7-0.2,1.4-0.5,2c0,0.9-0.4,0.9-1,1.5c-0.3,0.9-0.7,0.6-1.4,1.1c-0.1,0.5-0.5,0.8-1,0.8
			c-0.3,0.3-0.1,1.2,0,1.7c0,0.3,0.5,0.1,0.8,0.4s-0.1,0.7,0,0.9c0.4,0.3,0.1,0.2,0.5,0.6c0.4,0.4,0.9-0.2,0.9,0.2s-0.1,1.1-0.3,1.1
			c-0.2,0,0.5,0.7,0.6,0.9c0.1,0.2,0,0.6,0.3,0.6c0.5,0.1,0.6,0.4,0.9,0.4c0.1-0.1,0.6-0.2,0.8-0.4c0.6-0.2,1.3-0.2,1.9,0
			c1.3,0,2.7-0.1,4,0c0.1,0,0.4,0.3,0.5,0.4c0.4-0.3,0.6-0.8,0.5-1.3c0.4-0.3,0.8-0.6,1.1-1c0.6-0.3,0.1,0.8,0.7,0.4
			c0.3-0.5,0.7-0.4,1-0.9c0.5,0.1,0.3,0.9,0.9,0.9c0.3-0.5,0.6-0.9,1-1.3l3.9-0.1v1l0.6,0.3L294.6,297.7z"/>
		<path id="Penaflor" class="st0" d="M291.9,310.4l5-6.7l-0.4-1.2l0.9-1.2l-2.7-2.5l-0.1-1.1l-2.6-0.1l-0.6-0.3v-1l-3.9,0.1
			c-0.4,0.4-0.7,0.8-1,1.3c-0.6,0-0.4-0.8-0.9-0.9c-0.3,0.5-0.7,0.4-1,0.9c-0.6,0.5-0.1-0.6-0.7-0.4c-0.3,0.4-0.7,0.7-1.1,1
			c0.1,0.5-0.1,1-0.5,1.3c-0.1-0.1-0.3-0.4-0.5-0.4c-1.3-0.1-2.7,0-4,0c-0.6-0.2-1.3-0.2-1.9,0c-0.1,0.1-0.6,0.2-0.8,0.4l-0.9-0.2
			c-0.9,1.1-1.2,3.5-3.1,2.6l-0.9,1.6c-0.3,1.6,0.1,3.2-2.8,4.5c-0.4,2.8,1.9,2.6,1.8,4.9l4.8,0.5l0.4-1.9l2.5-0.1l-0.1,0.8l1.4,0.1
			l0.6-1.7h2.1l5.6-1.3l3.1,1.2L291.9,310.4z"/>
		<path id="Talagante" class="st0" d="M297.6,330.4c0.1-2,2.8,2.3,3.2-0.9c-0.2-1.6,0.9-2,2.4-3.9c1-0.8,0.2-1.1,0.1-1.5
			c-0.4-4.1-2.3-4.1-1.3-6.4l-1.9-0.9l-0.7-4.6l-1.7,0.1l-2.5,4.5l-6.8-2.8l3.7-3.6l-2.2,0.2l-3.1-1.2l-5.6,1.3h-2.1l-0.6,1.7
			l-1.4-0.1l0.1-0.8l-2.5,0.1l-0.4,1.9l-4.8-0.5c0.6,2.2,2.9,0.9,4.7,3.4c0.1,3.1-2.9,2.1-6.2,4.9c-1.7-0.1-3.7,5-5.7,4.3
			c-0.9,0.1-1.7,0.6-2.3,2.1c-1.1-0.3-2,0-2,1.7c2,0.5,4.8,3.5,6,1.5h3c1.1,0.9,3.8,0.7,3.6-0.2l8.3-0.6c0.8-3.5,2.9-2.2,2.9-4.7
			l10.3,4.2l0.9-1.8l2.4,2l0.4,0.6L297.6,330.4z"/>
		<path id="El_Monte" class="st0" d="M267.5,308c-0.4,2.8,1.9,2.6,1.8,4.9c0.6,2.2,2.9,0.9,4.7,3.4c0.1,3.1-2.9,2.1-6.2,4.9
			c-1.7-0.1-3.7,5-5.7,4.3c-0.9,0.1-1.7,0.6-2.3,2.1c-1.3-0.2-2,0.3-2,1.7c-1.5,0.5-3.4,0.6-5,2.4h-5c-3.4-0.2-1.8-1.5-5.6-2.3
			c1.2-2-0.5-2.5-1.5-2.6l0.5-2.4l-2.4-1l-0.1-1.2l1.6,0.1l1.3-11.9c1.8,0.4,2.2-0.5,3.4-1.5c0.5-0.3,1.2-0.3,1.7-0.1
			c0.6,0.7,1.4,1.2,2.2,1.4c0.6,0.2,0.4,0.6,0.6,0.9c1.2,0,2.5,0.1,3.6,0.5c0.5,0.1,0.8,0.4,1.4,0.5c0-1.1-0.2-1.4,0.9-2.5
			c0.3-0.4,0.5-0.8,0.6-1.2c1.2-0.3,1.7,0.5,2.9-0.3c1.2-0.2,1.1-1.5,2-2.1C263.3,305.6,265.8,306.7,267.5,308z"/>
		<path id="Isla_de_Maipo" class="st0" d="M266.1,349.7c0.6,0.2,1.3-0.1,1.5-0.8c0.5-0.5,1.2-0.8,1.9-0.8c0.7,0.2,1.4,0.4,2,0.9
			c-0.5,0.5,0.9,0.9,1.1,0.2c0.3-0.9,1.4-0.2,2-0.2c0.9-0.2,0.8,1.3,1.6,1c0.7-0.2,1.3-0.4,2-0.6c0.4-0.6,0.7-1.2,0.9-1.9
			c-0.2-0.7-0.2-1.5,0-2.1c0.2-0.7,0.4-1.5,0.4-2.2c-0.2-0.7,0.6-0.8,0.9-0.2c0.6,0.5,0.5,1.3,0.8,1.9c0.6,0.5-0.2,0.7-0.4,0.9
			c0.1,0.5,1.4,0.4,0.8,1c-0.2,0.5-1.5,0.8-0.9,1.4c0.7,0.3,1.2,0.8,1.7,1.4c0.4,0.6-0.5,0.7-0.1,1.5c0.8-0.7,2-0.9,3-0.5
			c0.8-0.2,1.7-0.4,2.5-0.6c1.8,1.7,2.5-0.8,3.1-2.1c0.4-0.3,1.3,0.2,1.4-0.2c0.5-1.7,0.9-2.7,1.8-3.1c0.5-0.8,0.2-1.8,1.4-2.4
			c1.2-0.6,1-1,1.6-2.2c0.1-0.5,0.5-0.5,0.9-1.2c-2-1.8-0.7-3.2-0.4-3.2c1-1,0.5-1.7,0.4-2.5c0.6-0.8-0.1-1.7-0.3-2.5l-2-0.3
			l-0.4-0.6l-2.4-2l-0.9,1.8l-10.3-4.2c0,2.5-2.1,1.2-2.9,4.7l-8.3,0.6c0.1,0.9-2.5,1-3.6,0.2h-3c-1.2,2-4-0.9-6-1.5
			c-1.5,0.5-3.4,0.6-5,2.4h-5c-3.4-0.2-1.8-1.5-5.6-2.3c-0.2,1.4-1.8,2.2-2.9,2.9c-1.4,0.7-1.9,2.3-1.2,3.7c0.2,0.4,0.6,0.8,1,1.1
			c2,0.5,3.6-0.4,5.6,1.9c1.4,0.5,0.5,3.4,4.8,1.1c0.1-0.9,0.6-1.4,2.9-0.1c2.2,0,3.3,0.3,2.7,1.1c2.1-0.4,2.7,1.6,3.8,2.7
			c0.2,1.2,1.9,0,2.8,0c0.3,1.9,1.2,1.6,2.3,1C267,344.9,265.4,348,266.1,349.7z"/>
	</g>
	<g id="Provincia_Chacabuco">
		<path id="Colina" class="st0" d="M300.5,200c2.4-1.2,4.6,1.1,6.9,1.5c1.4,0.2,2.4-1.6,3.3-2.1c2.2-0.1,1.3-1.5,0.6-2.6
			c-0.5-4-2.5-3.1-3.8-6.6c-0.9-2,2.4-3.6,0.4-5.7c-2-2.4,1.5-3.9,1.6-6.4c1-2.2-2.1-5.5-4.2-6.5c-1.6-0.5,3.4-2.5,1-4.6
			c2-2.9,1.2-2.9,1.2-3.9c1.4-1.7,1.1-1.9-0.5-2.8c-0.5-2-0.4-4.4-2-5.9c1.5-0.9,2.8-2.2,3.8-3.6c1.7-0.7,4.8-1,5.2-3.6
			c0.2-1.1,2.1-0.5,1.8-1.9l-0.2-1.8c0.8,3.6,3.3,0.5,5.2,0.3c4,1.9,2.2-0.5,7.8-0.8c1.7-1.8,4.2-2.6,6.7-2.2c1,1.7,1.6,0.2,2.4-0.6
			c2.1,0.5,2.9,2.1,3.7,3.3c0.4,1.2-0.7,3.6,0.4,3.9c1.1,0.3,2.8,0,3.6,2.5c2,2.2,3.6,4.8,5.7,6.9c-0.5,2.4-3,5.8,0.6,7.1
			c2.7,1,4.4,3.8,4.1,6.6c1.3,1,2.3,3.3,3,4.5c0.6,1,2.4-0.3,3.7-0.5c3.4-0.9,1-3.8,2-3.8c4,0.1,2-1.2,2.3-2.8
			c1.3-2.2,2-4.8,4.2-6.4c0-2.1,2.2-4,4.4-2.7c2.7,0.6,6.2,1.4,5.2,5c1.8,2.5-2.7,4.2-0.5,6.6c2.5,1.4,1.7,5,4.7,6l2,3.1
			c-0.4,2.1-0.3,4.8-2.8,4.2c-0.3,0.6,0.3,2-1.1,1.5c-0.3,1.1-0.9,0.7-1.3,0.9c-0.8,0.9-2.1,0.9-3.5,0.7c-0.5,1.1-4.3,1.9-4.7,5.5
			c-0.7,0.3-1.1,0-1.9,2.1c-0.1,0.6,0.4,2.1-0.2,1.8c-1.1,0.6-1.6,1-1.4,1.3c-0.3,1.1-0.7,2.1-1.4,2.1c0.6,6.1-1.6,2.9-1.3,5.3
			c0.5,1,0.9,2.2-1.1,5.4c-2.4-0.9-5.3,0.8-8.1,0.4c-0.3,1.3-0.1,3.3-1.5,3.2c-0.9,1.8-1.6,0.4-2.9,1.6c-0.8-0.4-1.7-0.3-2.4,0.3
			h-1.9c-0.6,0.8-1,1.7-1,2.7c-1.2,0.4-0.2,1.1-2.1,3.5c0.6,1.8,0.5,4.5-0.9,5.2c-1,0.5-1.9,1.2-2.7,1.9c0.7,3.7-3.9,0.8-1.8,4v2
			c0.9,2.3,2.1,2.1,1.3,3.4c-1.2,0.5-1.8,0.2-2,0c-0.4,0.7-0.9,0.4-1.7,0.5c-0.5,0.1-0.6,0.6-0.9,0.6c-1.2,0.3-1.4-0.2-1.8-0.3h-1.1
			c-0.2,0-0.3-0.6-0.5-0.5s-0.6,0.6-0.9,0.9s-0.2,0.6-0.5,0.1c-0.2-0.2-0.5-0.3-0.9-0.2c-0.7,0.4-0.3,0.2-0.9-0.1
			c0.1-0.3,0.3-0.7,0.1-0.9c-0.2-0.2-0.3-0.8-0.6-1.1c-0.6-0.3-0.8-1.1-1.5-1c-0.1,0.1-0.6,0.6-0.9,0.3c-0.2-0.2-0.4-0.4-0.6-0.5
			c-0.5,0.1-1,0.4-1.2,0.9c-0.2-0.3-0.4-0.4-0.7-0.4c-0.4,0.1-0.7,0-1.1-0.1v-0.9h-0.8l-0.3-0.6c0-0.3,0.1-0.2,0.3-0.2l0.1,0.5
			c-0.1-0.5,0.5-1.2-1.1-1c-0.4-0.3-0.3-0.9-1.3-0.9l-0.5,0.3l-0.6-0.1l-0.9-0.7h-1.4l-0.3,1.7l-1.1,0.3L303.3,202
			C301.4,202.1,301.2,200.9,300.5,200z"/>
		<path id="Lampa" class="st0" d="M270.2,251.6c0.4-0.2,0.3-0.6,0.6-0.8c3.2-1.2,2.7-2.3,3.5-1.5c0.9,0.6,1.8-1.9,4.2-2.1l2.1,1.3
			c3.5,1.2,5.1-1.4,8.1,0.2c2.8,1.9,1.4,0.2,3.4,2.2c3.5-2.7,3.2-6.2,5.2-6.2c1-0.1,1.9-2.1,2.9-3.8c-0.3-1-0.8-2.1-0.4-2.6l1.4,0.1
			l0.5,0.6l14.4-4l-13.2-33.1c-1.6,0.1-1.8-1.2-2.4-2.1c-0.9-1-5.7,0.5-5.5,2.7c-2.1,0.8-3.6-1.4-5.8-0.2c-2,0.9,1.7,2.7-0.6,4.2
			c-2.5,1.8-0.5,5.9-3.9,6.9c-4.1,0.8-1.5-3.7-3.6-3.6c-1.4,0.1-0.1,0.6-0.2-2c0.5-1.6,0.9-3,0.1-4.7c-1.1-2.8-4.7,0-6.7,0.2
			c-1.9,1.1-2.2-2.4-5.4-2.7c-1.9,0.2-3.6,2-5.2,0c-3.7-1.3-0.3,3.9-3.8,1.4c0.1,1.2,0,1.7-1.7,2.7c-0.1,0.4,0.7,1.4,1.2,1.9
			c0.8,2.5-2.7,5.5,0.1,7.2c0.6,0,0.1-0.8,0.6,1.4c0.4,1.8,2.9,4.5,2.8,6.7c0.3,1.1-0.1,2.2,0.2,2.4c2.2,0.8,0.7,3.2,1.3,4.3
			c1.6-0.1,1.8,2.2-0.8,1.8c-1.8,0.3-1.8,2.3-3.5,2c-0.4,1.6-0.5,3.4-1.7,4.4c-0.8,0.6,1.2,2,1.5,3c-0.6,3.2,3.4,2.5,3.3,5.5
			c-0.3,2.1,3.8,1.4,3,4.6C267,250.5,265.2,250.4,270.2,251.6z"/>
		<path id="Tiltil" class="st0" d="M315.6,143.6l-1.3-0.5c-0.1-0.3,0.2-3.4,0-4.2c-0.9-1.9-3-3-5.1-2.6c-4.9,1.4-4.3,4.3-5.4,1.5
			c-2.2-0.4-4.2-1.9-6.9-0.8c-1,0.3-1.3,0.8-2.6,0.8c-1.7,0-3.3-0.8-4.8-0.6c-0.6,0.4-1.3,0.7-2,0.9c-6.3-0.3-3.3,1-4.8,1
			c-0.5,1.1-1.9,0.8-3.2,0.8c-1.7-0.5-2.5-1.2-3.9,1.8c-0.4,1.6-1.5,2.1-2,3.6c-0.7,1.5-0.6,3.8-2.9,3.2c-1.4-0.3-2.6-1.7-3.9-0.8
			c-1.3,0.8-2.6,1.9-4.2,2c-1.6,0-3.2,0-4.8-0.2c-1.5,0-3.3-0.3-4.5,0.3c-0.2,1.3-0.6,2.5-1.4,3.6c0.9,0.8,1,2.2,0.2,3.1
			c0,0,0,0-0.1,0.1c1.6,0.9,1.7,3.2,3.3,6.3c0.1,3.7,2.4,3,1.7,4.7c-0.5,1.9-1.3,2.2-2,5.4c-2.4,1.4-2.4,1.7-2.4,3.6
			c1.1,0.9,2.7,1.2,2.4,2.9c-1.6,4.8-0.2,4.3,0.2,8.9c1.6,1.7,0.1,2.6,0.8,4.2c0.9,0.7,1.6,1.6,2,2.6c0.8,1.4,1.4,2.6,2.2,4
			c1.7,1.5-1,0.9-0.6,2.9c3.5,2.6,0.1-2.6,3.8-1.4c1.7,2,3.4,0.2,5.2,0c3.2,0.3,3.5,3.8,5.4,2.7c2-0.2,5.5-3.1,6.7-0.2
			c0.8,1.7,0.4,3.1-0.1,4.7c0.2,2.6-1.2,2.1,0.2,2c2.1-0.1-0.5,4.4,3.6,3.6c3.4-1.1,1.4-5.1,3.9-6.9c2.3-1.5-1.4-3.3,0.6-4.2
			c2.2-1.2,3.7,0.9,5.8,0.2c-0.2-2.1,4.7-3.7,5.5-2.7c2.4-1.2,4.6,1.1,6.9,1.5c1.4,0.2,2.4-1.6,3.3-2.1c2.2-0.1,1.3-1.5,0.6-2.6
			c-0.5-4-2.5-3.1-3.8-6.6c-0.9-2,2.4-3.6,0.4-5.7c-2-2.4,1.5-3.9,1.6-6.4c1-2.2-2.1-5.5-4.2-6.5c-1.6-0.5,3.4-2.5,1-4.6
			c2-2.9,1.2-2.9,1.2-3.9c1.4-1.7,1.1-1.9-0.5-2.8c-0.5-2-0.4-4.4-2-5.9c1.5-0.9,2.8-2.2,3.8-3.6c1.7-0.7,4.8-1,5.2-3.6
			c0.2-1.1,2.1-0.5,1.8-1.9L315.6,143.6z"/>
	</g>
	<g id="Provincia_Melipilla">
		<path id="Alhue" class="st0" d="M269.6,377.3c-0.4-0.4,0.5,1.6-0.1,1.4c-0.6-0.2-1.4-0.3-1.8-0.8c-2.6-1.5-3.6-5.5-6.8-5.4
			c-1.2-1.6-2.7-1.2-3.8,0.3c-0.7,2.8-5.5-0.3-8.2-0.5c-4.6-0.6-4.4,0.9-4.6,3.6c0.5,2.1-0.3,3.6-1.2,5.4c-1.9,0.8-1.5,3.5-3.7,3.7
			c-4.5,0.1-5.1,1.4-7.4,0.9c-3.1-1.7-1.1,5.4-6.2,3.3c-0.7-2-1.4,0.2-3-0.2c-0.6-0.2-1.3-0.2-1.9,0.1c-0.9,0.7-1.5,1.7-1.8,2.8
			c2.6,1.2,2.6,5.7-0.5,5.9c-0.5,0.8-1.4,2-2.1,2.9c-1,1.4-2.2,2.3-3.8,1.1c-1,1-2.2,0.6-3.1,1.1c0.4-0.8-2-1.8-7.6,3.5
			c3,6.1,6.2,1.1,7.1,7.9c-0.5,6.3,2,6.1,4.6,6.7c4.4,2.7,1.3,8.9,7.7,10.3c2.1,5.9,12.2,6.7,17.4,6.7c4.8-1.5,8.8,8.6,12,3.2
			c2.1-0.7,3.9-2,5.3-3.7c1.2,0.3,2.2,2.2,6.6,1.7c1.9,0.3,3.7,0.6,5.6,1.1c1,0.2,5-4.8,6.2-4.2c2.6-2.8,6.9-2.9,5.2-3.8
			c-1.2-1.1-2.2-2.4-3-3.8c-3.6-4.6-1.6-13.6,5.6-12c5.8,0.6-0.8-9,4.6-9.2c3.6-2.4,7.4-3.5,11.4-1.4c4.8-1.6,2.3-6,2.9-6.4
			c1.8-1,2.8-2.6,1-4.4c-0.6-2.5,1.4-4.2-2.8-4.9c-0.5-0.4-1.5-1.5-2.1-1.9c-0.6-0.4-0.3-0.9-0.6-1.9c-0.3-1-0.7-1.3-1.1-0.8
			c-0.4,0.5-1,0.7-1.6,0.7c-0.8,0-0.8,0.2-1,0.7c-0.2,0.3-0.5,1-0.7,1.3c-0.3,0.6-0.5,0.5-0.3,1.3s-0.4,0.6-0.9,0.6
			c-0.3,0-0.6,0.5-0.9,0.6c-0.3,0.3-0.6,0.6-0.9,0.9c-0.2,0.4-0.6,0.7-1,0.7c-0.4,0.1-0.8,0.3-1.1,0.5c-0.4,0.3-0.3,0.5-1.1,0.5
			c-0.3,0-0.5,0.5-1.1,0.5c-0.5,0.1-1.1,0-1.5-0.3c-1-0.5-0.5-0.5-1-1.2c-0.3-0.4-0.6-0.7-1-0.9c-0.4-0.3-1.1,0.2-1.5,0
			c-0.6-0.3-1.2-0.4-1.9-0.4c-0.4,0.1-0.9,0.3-1.2,0.5c-0.5,0.2-1.2-0.6-1.9-0.6c-0.9,0-1.2-0.2-2-0.2s-1.5-0.2-2.1-0.7
			c-0.1-0.1-0.3-0.2-0.4-0.3c-0.7-0.5-0.3-0.8,0.1-1.1c0.6-0.6,1-0.5,1-1.2c0,0-0.8-0.9-0.9-1c-0.1-0.1,0.6-0.5,0.7-0.8
			c0.2-0.6,0.5-1.1,0.6-1.8c0.1-0.7,0.6-0.8,0-1.2c-0.8-0.6-0.9-0.4-0.5-1.1c0.3-0.6,0.3-1.2,0-1.8c-0.1-0.3-0.3-0.8-0.5-1.1
			c-0.2-0.3-0.4-0.6-0.7-0.9C269.8,377.8,270,377.7,269.6,377.3z"/>
		<path id="San_Pedro" class="st0" d="M221,389c-0.9,0.7-1.6,1.7-1.9,2.8c2.6,1.2,2.6,5.7-0.5,5.9c-0.5,0.8-1.4,2-2.1,2.9
			c-1,1.4-2.2,2.3-3.8,1.1c-1,1-2.2,0.6-3.1,1.1c0.4-0.8-2-1.8-7.6,3.5c-0.1,2.7-1.4,3.4-3.3,3.7c-1.9,0.3-2.6,2.4-5,1.5
			c-1.1,1.1,1.5,4-1.6,3.3c-2.4-0.6-5.4-2-7.1,0.8c0,2.5-3.7-1.3-4.6-2.2c-1.5-1.5-2.2-4.9-1-5.9c-3.2,0.2-5.6-2.2-7.3-4.5
			c-0.9,1.9-5.1-0.3-6.7-1.2c-3.5-1-7.2-0.6-10.5,0.9c-2.4-1.1-3.6-5.1-6.6-6.2c-0.3,2.5-0.8,5-2.7,6.7c1.8,1.1,3,3.8-0.1,4
			c-2,3-3.3-3.8-5.4-4.5c-1.7-2.8-5.2-0.5-6.4-2.4c-1.2-1.9-4.8-1.2-6-1.1c-0.7-1.4-0.5-3.1,0.4-4.3c-1.6-2-5.5,0-7.6-2.1
			c-2.7-0.3,1.5-3-1.4-4c-2-2.4,2.1-4.3,4-4.8c1.6-1.6,3.8-2.9,5.5-4.3l14.3-10.8c1.2,1.1,1.4,2.6,2.1,2l2.9-0.2l0.4-24.1
			c2.1-4.1,4.6-2.6,7.3,0.6l1.6-1.2h4.1l3.9,3h4.7c0,0,3.7-0.3,5.9,1.6c2.7,0.4,0.4,3.1,0,3.9c0.9,2.2,2.6,3.9,3.9,5.7
			c0.3,1.4,0.8,2.7,1.7,3.8c-0.9,2.6,2.9,3.6,2.5,6.1c1,1.9,3.5,3.1,5.6,3.7c0.9-2.5,1.9-2.7,2.3-2.5c0.9,0.3-0.1-1.9-0.8-2.5
			c0-1.7,2.9-0.7,3.9-1.7c1.8,0.3,3.7,0.1,5.5-0.4c2.2,0.2,1.9,2.4,1.2,3.8c0.5,1.7,2.3,1.9,2.4,3.7c1.3,1.2-1.8,2.2,0.1,3.3
			c2.5-0.1,4.9,1.1,6.4,3.2c1.5,1.6,2.7,3,5.2,3.2c1.3-0.2-0.3,2.3,1.2,2.7C218.3,387.1,219.6,389,221,389z"/>
		<path id="Melipilla" class="st0" d="M271.4,292.6c0.3-0.3-1,0.8-1.1-1.1c-0.1-1.9-2.4-1.6-3.6-2.2c-3.9,2.1-3-0.9-4.8-1.3
			c-2.9-1.3-4.9,1.2-7.2,2.5c-2.1,1.2-4.6,1.2-7.1,1.2c-2.6-0.5-5.3-1-8-1.4c-0.9,2-2.3-0.3-3.8,0.2c-2.1,1-6.5-1-6.8,2
			c-0.9-0.5-3.8-0.5-5.3-1.1c-2.5,0.1-5.8-4.2-7-0.3c-0.5,2.4-2.7,2.9-4.2,4.7c0,2.5-2.8,1.1-3.5,2.2c2,1.4-0.2,1.9-1.7,2
			c-2.2-2.5-3.2,1.6-5.6,1.4c-2.6-0.8-8.5,0.2-7.7-1.4l-1.2,1.6c-0.5,2.7-1,5.1-2.6,4.7l-2.6,2.4c-3-0.1-7-1.2-5,3.8
			c-4,1.4-2.4,4.4-3.2,6.7l-3-2.6l-3,2.4l0.2,1c-4.3,5.7-0.4,5.2,1.8,5.9c-0.2,1.7-2.3,2.4,1.4,5.9l3.6,2.4c1.1,4.9,2.9,2.4,6.5,5.9
			l-0.2,3.5c0,1.8-0.8,3.5-2.2,4.7c-2.9,0.5-6.5-0.7-8.5,2.2c2.7,0.4,0.4,3.1,0,3.9c0.9,2.2,2.6,3.9,3.9,5.7
			c0.3,1.4,0.8,2.7,1.7,3.8c-0.9,2.6,2.9,3.6,2.5,6.1c1,1.9,3.5,3.1,5.6,3.7c0.9-2.5,1.9-2.7,2.3-2.5c0.9,0.3-0.1-1.9-0.8-2.5
			c0-1.7,2.9-0.7,3.9-1.7c1.8,0.3,3.7,0.1,5.5-0.4c2.2,0.2,1.9,2.4,1.2,3.8c0.5,1.7,2.3,1.9,2.4,3.7c1.3,1.2-1.8,2.2,0.1,3.3
			c2.5-0.1,4.9,1.1,6.4,3.2c1.5,1.6,2.7,3,5.2,3.2c1.3-0.2-0.3,2.3,1.2,2.7c1.1,0.7,2.5,2.5,3.8,2.6c0.6-0.3,1.3-0.4,1.9-0.1
			c1.6,0.3,2.2-1.9,3,0.2c5,2.1,3-5,6.2-3.3c2.3,0.5,2.9-0.8,7.4-0.9c2.2-0.1,1.9-2.9,3.7-3.7c0.9-1.8,1.8-3.3,1.2-5.4
			c0.2-2.7,0-4.2,4.6-3.6c2.7,0.2,7.5,3.3,8.2,0.5c1.1-1.5,2.6-1.9,3.8-0.3c3.2,0,4.2,3.9,6.8,5.4c0.5,0.5,1.2,0.5,1.8,0.8
			s-0.3-1.8,0.1-1.4c-0.4-0.4-1.9-1.5-1.8-2.1c0.4-0.4-0.6-1.8,0.3-2.5c-0.2-1.1-0.7-1.3,0-2.4c0.7-1.1-1.5-0.9-1-2.1
			c0.6-0.5,0.3-2.5-0.1-3.1c-0.8-1.1-0.8-1-0.4-2.2c-0.1-1,0.5-2.3-0.3-3.1c-0.8-0.3-2-1.2-1.6-2.2c0-0.8,0.2-1.6,0.5-2.3
			c-0.4-0.9-0.3-1.9,0.3-2.7c-0.6-0.5,0-1.5,0.3-2.2s-0.6-0.8,0.2-0.6c-0.7-1.7,0.8-4.8-2.1-4.9c-1.1,0.6-2,0.8-2.3-1
			c-0.9,0-2.6,1.2-2.8,0c-1.1-1.1-1.7-3.1-3.8-2.7c0.5-0.8-0.5-1.2-2.7-1.1c-2.3-1.3-2.8-0.8-2.9,0.1c-4.3,2.3-3.4-0.7-4.8-1.1
			c-2.1-2.2-3.6-1.3-5.6-1.9c-1.3-0.8-1.7-2.5-0.9-3.8c0.3-0.4,0.6-0.7,1.1-1c1.2-0.7,2.7-1.6,2.9-2.9c1.2-2-0.5-2.5-1.5-2.6
			l0.5-2.4l-2.4-1l-0.1-1.2l1.6,0.1l1.3-11.9c1.8,0.4,2.2-0.5,3.4-1.5c0.5-0.3,1.2-0.3,1.7-0.1c0.6,0.7,1.4,1.2,2.2,1.4
			c0.6,0.2,0.4,0.6,0.6,0.9c1.2,0,2.5,0.1,3.6,0.5c0.5,0.1,0.8,0.4,1.4,0.5c0-1.1-0.2-1.4,0.9-2.5c0.3-0.4,0.5-0.8,0.6-1.2
			c1.2-0.3,1.7,0.5,2.9-0.3c1.2-0.2,1.1-1.5,2-2.1c2.2-0.4,4.7,0.7,6.4,2c2.9-1.3,2.4-3,2.8-4.5l0.9-1.6c1.8,0.9,2.1-1.5,3.1-2.6
			c1-1.1,0.2-0.2-0.1-0.2c-0.3,0-0.2-0.4-0.3-0.6s-0.8-0.9-0.6-0.9c0.2,0,0.3-0.9,0.3-1.1s-0.5,0.1-0.9-0.2c-0.4-0.3,0-0.3-0.5-0.6
			c-0.2-0.2,0.2-0.7,0-0.9c-0.2-0.2-0.8,0-0.8-0.4C271.4,293.8,271.1,292.9,271.4,292.6z"/>
		<path id="Maria_Pinto" class="st0" d="M202.2,256.6c1.1-1.3-0.7,2.3,2.6,1c1.9,1.9,5.4,1.4,6.7,3.9c0.4,1.8,2.8,2,4.3,2.4
			c2,0.4,5.1,1.6,6.6,3.2c1.5,1.6,2.4,0.3,3.8-0.7c2.6,0.1,5.3,0.4,7.9,0.6c1.9,0.1,3.3-2.3,5.3-1.6c1.3,1.7,3.4,0,4.8-0.9
			c1.1-1.1,4.8-3,3.8,0.1c-0.8,1.8-0.2,4.5-2.4,5c-0.5,2,1.8,3.4,2.4,5.1c-0.3,1.8,0.7,3.6,2.4,4.3c2,0.9,2.1,3.1,3.5,4.5
			c0.9,1,2.1,1.7,3.1,2.7s3.2,1.1,1.8,1.6c-1.4,0.8-2.7,1.6-4,2.5c-2.1,1.2-4.6,1.2-7.1,1.2c-2.6-0.5-5.3-1-8-1.4
			c-0.9,2-2.3-0.3-3.8,0.2c-2.1,1-6.5-1-6.8,2c-0.9-0.5-3.8-0.5-5.3-1.1c-2.5,0.1-5.8-4.2-7-0.3c-0.5,2.4-2.7,2.9-4.2,4.7
			c0,2.5-2.8,1.1-3.5,2.2c2,1.4-0.2,1.9-1.7,2c-2.2-2.5-3.2,1.6-5.6,1.4c-2.6-0.8-8.5,0.2-7.7-1.4c-0.9-1.3-1-3.1-0.4-4.6
			c-0.4-4.6-1.1-6.9-2-8.3c-4.7,0-1.5-3.5-2-5.3c-2.2-2.9-1.7-5.8,1.4-8.7c-1.3-1.3,0.2-4.8,0.2-8.1c0-2.4-3.1-5.5,0.2-6.9
			c0.4-1.6,1.2-2.5,3.2-1C198.2,257.9,201.1,257.9,202.2,256.6z"/>
		<path id="Curacavi" class="st0" d="M213.5,219c0.2,1.3,0,4.9,0.6,5.1c0.3,1.3,0.9,2.6,1.8,3.7c-0.4,2.4,0.8,4.8,3,5.9
			c0.5,0.1-0.6,0.4-0.9,3.3c-1.3,0.3-2.1,1-1,3.6l-1,2.5c-2.7,2,0.6,3.4-2.1,6c-1.1-1.3-3.8,1.5-4.5,2.4c-1.1-0.1-1.9-1.3-3.3,0.1
			l-3.6,5l-0.2,0.1c1.1-1.3-0.7,2.3,2.6,1c1.9,1.9,5.4,1.4,6.7,3.9c0.4,1.8,2.8,2,4.3,2.4c2,0.4,5.1,1.6,6.6,3.2
			c1.5,1.6,2.4,0.3,3.8-0.7c2.6,0.1,5.3,0.4,7.9,0.6c1.9,0.1,3.3-2.3,5.3-1.6c1.3,1.7,3.4,0,4.8-0.9c1.1-1.1,4.8-3,3.8,0.1
			c-0.8,1.8-0.2,4.5-2.4,5c-0.5,2,1.8,3.4,2.4,5.1c-0.3,1.8,0.7,3.6,2.4,4.3c2,0.9,2.1,3.1,3.5,4.5c0.9,1,2.1,1.7,3.1,2.7
			s3.2,1.1,1.8,1.6c1.1-0.4,2.2-0.4,3.3,0c1.8,0.4,0.9,3.4,4.8,1.3c1.3,0.6,3.5,0.3,3.6,2.2c0.1,1.9,1.4,0.8,1.1,1.1
			c0.5,0,0.9-0.3,1-0.8c0.7-0.5,1.1-0.2,1.4-1.1c0.7-0.6,1-0.6,1-1.5c0.2-0.6,0.4-1.3,0.5-2c0-1.3,0.4-1.2,0.2-1.9
			c0.2-0.6,0.4-1.1,0.6-1.7c0.2-0.3,0.4-0.6,0.3-1c-0.1-0.3-0.3-0.8-0.1-0.9c0.2-0.1,0.4-0.4,0.1-0.6c-0.2-0.3-0.5-0.6-0.8-0.8
			s-0.6-0.3-0.9-0.3c-0.3-0.4,0-0.9,0.1-1.3c0.1-0.3,0.3-0.7,0.6-0.9c0.2-0.3,0.3-0.6,0.3-1c0-0.4,0.7-0.8,0.7-0.9
			c0-0.1,0.3-0.3,0-0.5c-0.7-0.7-1.3-1.5-1.7-2.4c-3.9-0.3-3.8-1.6-4.4-2.8l-0.1-2.2c-0.4-0.8-1.7-1-0.9-1.9
			c0.4-0.5,0.4-1.2,0.1-1.7c-0.5-0.9,0.9-0.6,1.1-3.2c0.5-2.7-1.2-3.6-0.4-5.2c-2-1.8,0.5-1.1,0.1-4.3c-5.1-1.2-3.3-1.1-4.2-1.6
			c0.8-3.3-3.4-2.6-3-4.6c0.1-3-3.9-2.3-3.3-5.5c-0.3-1-2.2-2.4-1.5-3c1.2-1,1.3-2.8,1.7-4.4c1.8,0.3,1.8-1.8,3.5-2
			c2.6,0.5,2.4-1.8,0.8-1.8c-0.6-1.1,0.9-3.6-1.3-4.3c-0.4-0.1,0.1-1.2-0.2-2.4c0.1-2.2-2.4-5-2.8-6.7c-0.5-2.2,0-1.4-0.6-1.4
			c-2.8-1.7,0.6-4.7-0.1-7.2c-0.5-0.5-1.3-1.5-1.2-1.9c-3.1-0.6-2.9,1.5-4.7,0.9c0.9,4.4-0.7,3.1-2.6,0.9c-1,0.9-2.1,0.1-3.1-0.4
			c-0.8,0.9-0.4,2.8-0.5,4.3c-2.5,2.9-4.3,2-5.8-0.3c-2.4,0-6.1-1.4-5.9,1.2c-1,1.9-2.9,2.5-6,1.3l-2.5-1c-2.8,2-3.3,0.9-4,0.3
			l-2.6-0.3c-1.2,1.2-2.8,1.7-4.5,1.3c0.1,1.4-0.9,2.1-2.6,2.5C211.9,216.5,212.8,217.8,213.5,219z"/>
	</g>
</g>
<g id="g3072">
	<path id="Valparaiso" class="st0" d="M445.2,165.1h-3.4c-3.4,1.2-4.6,3.6-6.9,5.5c-1.1,0.1-2.1,0-2.2,4c-3.5,2.2-2.9,3.6-7.4,3.9
		l-3.9,2.3l-1.1,2.9c-2,0.4-3.7,2-5.4,4c-0.5,0.4-0.3,1.1,1.5,2.9c-0.9,1.5-2,2.9-3.4,4l-0.1,3.9c-6.7,0.6-1.6-3.1-4.7-5.6l-0.6-2
		l0.1-5.7h-3.1l-3-3.1l-0.1-1.1l-1.9-1l-2.1,0.1c-0.6-1.5-1.2-1.8-1.9-1.9l-2.3-1.2c-0.9,2.4-3.5,2.8-6.5,2.6l-2-3.1
		c-2.9-0.9-2.1-4.6-4.7-6c-2.1-2.4,2.4-4.1,0.6-6.6c1-3.6-2.6-4.4-5.3-5c-2.1-1.3-4.4,0.6-4.4,2.7c-2.1,1.6-2.9,4.1-4.1,6.4
		c-0.4,1.6,1.7,2.9-2.3,2.8c-1,0,1.4,2.9-2,3.8c-1.3,0.2-3.1,1.5-3.7,0.5c-0.7-1.2-1.6-3.5-2.9-4.4c0.3-2.9-1.4-5.6-4.1-6.6
		c-3.6-1.2-1.2-4.7-0.6-7.1c-2.1-2.1-3.7-4.7-5.7-6.9c-0.8-2.6-2.7-2.3-3.6-2.6c-0.9-0.3,0-2.7-0.4-3.9c-0.7-1.1-1.6-2.8-3.7-3.2
		c-0.8,0.7-1.4,2.2-2.4,0.6c-2.5-0.4-5,0.4-6.7,2.2c-5.6,0.3-3.7,2.7-7.8,0.9c-1.9,0.1-4.4,3.3-5.1-0.4l-1.3-0.5
		c0.1-1.4,0.1-2.8,0-4.2c-0.8-1.6-2.3-2.6-4.1-2.7c-0.4,0-0.7,0.1-1.1,0.1c-4.9,1.4-4.3,4.3-5.4,1.5c-2.2-0.4-4.1-1.9-6.9-0.8
		c-1,0.3-1.3,0.8-2.6,0.8c-1.6-0.1-3.2-0.8-4.9-0.6c-0.6,0.4-1.3,0.7-2,0.9c-6.3-0.3-3.3,1-4.9,1.1c-0.4,1.1-1.9,0.8-3.1,0.8
		c-1.7-0.5-2.4-1.1-3.9,1.8c-0.4,1.6-1.6,2.1-2,3.6c-0.7,1.5-0.7,3.8-2.9,3.1c-1.4-0.3-2.6-1.6-3.9-0.8s-2.6,1.9-4.2,2
		c-1.6,0.1-3.2,0-4.9-0.1c-1.4,0-3.3-0.3-4.5,0.3c-0.1,1.5-0.8,2.4-1.4,3.6c0.9,0.7,1,2.1,0.3,3c0,0.1-0.1,0.1-0.1,0.2
		c1.6,0.9,1.7,3.1,3.3,6.3c0.1,3.7,2.4,3,1.6,4.7c-0.5,1.9-1.3,2.2-2,5.4c-2.4,1.4-2.4,1.7-2.4,3.6c1.1,0.9,2.6,1.2,2.4,2.9
		c-1.6,4.8-0.1,4.3,0.1,8.9c1.6,1.6,0.1,2.6,0.8,4.2c0.9,0.7,1.6,1.6,2,2.6c0.8,1.4,1.4,2.6,2.2,4c1.7,1.5-1,0.9-0.6,2.9
		c0.1,1.2,0,1.8-1.6,2.7c-3.1-0.6-2.9,1.4-4.7,0.9c0.9,4.4-0.7,3.1-2.6,0.9c-1.1,0.9-2.1,0.1-3.1-0.4c-0.7,0.9-0.4,2.8-0.6,4.3
		c-2.5,2.9-4.3,2-5.8-0.3c-2.4,0-6.1-1.4-5.9,1.2c-1,1.9-2.9,2.5-6,1.3l-2.5-1.1c-2.8,2.1-3.2,0.9-4.1,0.3l-2.6-0.3
		c-1.1,1.2-2.8,1.7-4.4,1.3c0.1,1.4-1,2.1-2.6,2.5c-1.4,0.9-0.4,2.2,0.3,3.4c0.2,1.3,0,4.9,0.6,5.1c0.3,1.4,0.9,2.6,1.8,3.7
		c-0.4,2.4,0.8,4.8,2.9,5.9c0.5,0.1-0.6,0.4-0.9,3.4c-1.3,0.3-2.1,1-1.1,3.6l-1.1,2.5c-2.7,2,0.6,3.4-2.1,6
		c-1.1-1.3-3.9,1.5-4.4,2.4c-1.1-0.1-1.9-1.3-3.3,0.1l-3.5,4.8c-0.1,0-0.1,0.1-0.3,0.3c-1.1,1.4-4,1.4-7.7,0.6c-2-1.6-2.7-0.6-3.1,1
		c-3.3,1.4-0.2,4.6-0.2,6.9c0,3.3-1.6,6.9-0.2,8.1c-3.1,2.9-3.6,5.8-1.4,8.7c0.5,1.9-2.7,5.4,2,5.4c0.9,1.4,1.6,3.7,2,8.3
		c-0.6,1.5-0.5,3.2,0.4,4.6l-1.2,1.6c-0.5,2.7-1.1,5.1-2.6,4.7l-2.6,2.4c-3-0.1-7-1.1-4.9,3.8c-4,1.4-2.4,4.4-3.1,6.7l-3-2.6l-3,2.4
		l0.2,1c-4.3,5.7-0.4,5.2,1.8,5.9c-0.1,1.6-2.3,2.4,1.4,5.9l3.6,2.4c1.1,4.9,2.9,2.4,6.6,5.9l-0.2,3.6c0,1.8-0.8,3.6-2.2,4.8
		c-2.9,0.6-6.5-0.7-8.5,2.1c-2.2-1.9-5.9-1.6-5.9-1.6h-4.6l-3.9-3h-4.1l-1.6,1.2c-2.7-3.1-5.1-4.7-7.3-0.6l-0.4,24.1l-2.9,0.2
		c-0.6,0.7-0.9-0.9-2.1-2c-4.8,3.6-9.6,7.1-14.3,10.8c-1.8,1.5-3.9,2.7-5.6,4.4c-2,0.6-6.1,2.4-4.1,4.9"/>
	<path id="OHiggins" class="st0" d="M119.3,388.8c2.9,1-1.3,3.7,1.4,4.1c2.1,2.1,6,0,7.6,2.1c-0.9,1.3-1.1,2.9-0.4,4.4
		c1.2,0,4.7-0.8,6,1.1c1.3,1.9,4.7-0.4,6.4,2.4c2.1,0.7,3.4,7.5,5.4,4.5c3.1-0.3,1.9-2.9,0.1-4.1c1.9-1.7,2.4-4.2,2.6-6.7
		c2.9,1.1,4.1,5.2,6.6,6.3c3.3-1.6,7-1.9,10.6-0.9c1.6,1,5.8,3.1,6.8,1.2c1.7,2.3,4.1,4.6,7.3,4.5c-1.1,1.1-0.5,4.4,1.1,5.9
		c0.9,0.9,4.6,4.8,4.6,2.3c1.7-2.7,4.8-1.4,7.1-0.8c3.1,0.8,0.4-2.1,1.6-3.3c2.3,0.9,3.1-1.4,4.9-1.5c1.8-0.1,3.2-1,3.3-3.7
		c2.9,6.1,6.2,1.1,7.1,7.9c-0.4,6.3,2,6.1,4.6,6.6c4.4,2.7,1.3,8.9,7.7,10.3c2.1,5.9,12.2,6.7,17.4,6.7c4.8-1.5,8.8,8.6,12,3.2
		c3.5-1.1,5.1-3.7,5.3-3.6c1.2,0.3,2.2,2.2,6.6,1.6c1.9,0.3,3.7,0.7,5.5,1.2c1,0.1,5.1-4.8,6.1-4.2c2.6-2.8,6.9-2.9,5.2-3.9
		c-1.2-1.1-2.2-2.4-3-3.8c-3.6-4.6-1.6-13.6,5.6-12c5.8,0.6-0.9-9.1,4.6-9.2c3.6-2.4,7.4-3.5,11.4-1.4c4.8-1.6,2.3-6,2.9-6.4
		c1.8-1,2.9-2.6,1.1-4.4c-0.6-2.5,1.4-4.2-2.8-4.9c-0.7-0.7-1.3-1.3-2.1-1.9c-0.6-0.4-0.3-0.9-0.6-1.9c1.9-0.7,4.2-1.1,4.1-3.8
		c1.1-3.8,4.1,0.1,6.3,0.6c2,1.9,2.9,0.8,5.9-2.7c0-2.8,3.1-0.7,3.8-2.2c1.3-0.1,0.9-0.6,2.1-1.5c1.2-3.3,4.4-1.9,5.4-0.1
		c0.1,2.1,2.3,3.3,3.7,4.9c1.8,3.3,4.1,0.1,6.1-1.3c-0.1-1.5,0.1-3,2.3-3.1c2-0.3,0.6-2.1,1.6-3c0.5-0.3,1.4,0.3,1.7-0.3
		c1.2-1.9,1.5-2.3,4.8-2.4c1.6,1.9,3.2,0.2,4.8-0.8c0.7-2,1.4-1.6,2.9-2c2.2-1.4,3.5,3.1,5,0.9c2.1,1.6,3.6-1.4,4.8-3.1
		c-0.9-3.1,2.8-2.8,4.9-2.9c2.1-0.1,2.6,1.4,2.1,0.2l0.8-0.7c1.8-1,1.3,1.5,3.4-0.1c1.6-3.6,2-1,2.1-2.1c0.2,0.7,1.1,1.1,2.6,1.1
		c0.1,0.3,0.2,0.5,0.3,0.7c0.1,0.2,0.2,0.4,0.4,0.5c0.4,0.3,0.8,0.6,1.2,0.8c0.1,1.5,1.2,3.1,4.2,4.6c1-1.9,1.1-0.8,3.6-0.1
		c-0.1,2.3,0.4,2.2,0.8,2.7c-0.4,0.8-0.6,1.6,0.6,3.1c-0.6,0.6-1.8,0.7-1.2,2.5c-2.1-0.4-0.9,0.6-0.6,3c1.3,0.7,2.1,2,2.1,3.5
		l1.8,1.9c3.6-0.1,1.6,2.7,1.7,4.5l1.7,1.8l2.7,0.1l0.3,3.4c1.5,1.4,1.2,2.3,0,3.1c1.2,1.3,1.9,2.5-1.1,3.5l-1.3,1.4
		c1.6,2.8-2.8,2.7,0,3.8c-0.6,1.6-0.1,3,3,3.8c1-1.1,1.9-1.8,2.6,0.2l1.2,0.8l0.5-1c0.2,0.3,0.6,0.5,0.9,0.4c0.1,0,0.2-0.1,0.4-0.1
		c0.7-0.4,1.4-0.7,2.1-0.9c1.2,1.3,2.4,1.8,4.1,2.9c0.1,0.1,0.4,0,0.5,0c0.1,0,0.1-0.1,0.2-0.1c0.8-0.4,1.4-1.6,2.6-2.4
		c0.1-0.1,0.2-0.1,0.4-0.1c-0.5-2.9,1.8-3.5,1.4-6.3l6.3-0.6l2,0.4l3.4,0.1l2.3,2.8l-0.4,3l0.4,4.2l2.3,4c-1.7,1.1-1.7,2.9,0,3.9
		c0.2,1.1,0.4,2.1,1.7,2c4.7-0.2-1.1,3.2-2.6,5.1c0.4,1.7,1.8,3.8-0.6,4.5c0,0.5-0.2,1.1,1.1,1.3c2.1-0.9,3.4,2.6,3.3,4.7l2.9,2.4
		c3.8-1.7,3.6,0.6,3.8,2.5c1.5,0.9,3.7,0.4,5.7,0.3l1.1-1.2l2.4,1.2l0.1,1.7c2.8,0.1-1,0.7,3.4,4.2c-0.5,1.4-0.5,2.9,0,4.2
		c-0.9,0.9-0.3,3.6,1,7.2c1.4,1.4,2.7,2.8,4.1,4.1"/>
	<path id="Internacional" class="st0" d="M458.5,466.3l-0.1-2.1l5-5.4l3.3-0.9c3.6-4.1,6.1-0.9,5.1-0.4c1.8,1.3,3.4,2.7,4.9,4.4
		c0.3,0.5,2,1.4,2.9,3c0.9,1.9,1.9,2.4,3.2,1.3l1.5-1.6c0-0.9,0.1-1.7,0.3-2.6c0.1-0.1,0.1-0.2,0.1-0.3c0.4-0.8,1.3,0.2,3.4-0.1
		c0.2,0,0.5-0.1,0.7-0.1c1.7-1,3.5-1.8,5.4-2.4c0.9,0,1.8,0.1,2.6,0.3c0.2,0,0.4,0.1,0.6,0.1s0.5,0,0.7-0.1c0.3,0,0.6-0.1,0.9-0.1
		c0.6-0.9,1.5-2.7,3.4-2.4c1.7-3.4,2.5-0.8,2.9-6.4c0.3-1.3,0.5-2.7,0.4-4c0-0.2,0-0.3-0.1-0.5c-0.4-1.6-1.3-2.1-1.6-3.8
		c-1.9-2.8-10.9-10.1-11.3-12.6v-0.2c0-0.1,0.1-0.3,0.1-0.4c-0.2-0.2-0.3-0.5-0.4-0.8V428c0.1-0.7,1.2-1.9,3-6.6
		c0.4,0.1,0.8,0.2,1.2,0.1c0.1,0,0.2,0,0.4-0.1c0.5-0.2,0.9-0.4,1.4-0.6c0.8-3.6,4.1-4.6,1.4-6.9c-3.6-0.6-3.7-2.2-3-4
		c0.1-0.2,0.2-0.4,0.3-0.6c0.7-1.2,1.4-2.4,1.9-3.7c2.1-1.6,3.2-2.9,3.4-3.9v-0.4c-0.1-1.1-1.1-1.8-3-2.2c0.8-1.4,0.2-5.9-4.6-7.5
		c-0.3-1.4-1-2.3-3.1-1.1c-0.2,0.1-0.3,0.2-0.5,0.3c-0.4,0.3-0.8,0.5-1.2,0.9c-1.6-0.2-3.3-0.1-3.7-3.1l2.6-6.5l-0.1-3.2l2.2-1.8
		l4.4-5.6l-0.2-2l-2.4-1.9l-1.3-3.5l-4-2.9l-0.2-3.1l0.7-0.9l0.8-8c-2.9-4.3-3.7-8.2,1.5-11.1l-0.1-1.7c1.4-1.7,2.4-3.6,2.9-5.7
		c0.1-0.2,0.1-0.4,0.1-0.6c0.2-1.8-0.3-3.5-1.3-5c-0.3-0.5-0.6-1-0.9-1.6c-0.6-1.1-0.9-2.3-0.9-3.5c2.3-7.1,1.6-7.9,0.9-14
		c-1.1-3.6,0.8-5.4,1.3-8l-0.1-6.7c-0.5-1.1-0.8-2.2-0.9-3.4v-0.4c0.1-1.2,1.1-1.4,1.3-2.4c0.6-1.6,0.1-3.9,3.2-4.2
		c2.6-2.1,2.5-3,2.9-4.1c0.1-0.2,0.1-0.4,0.1-0.6s0.1-0.4,0.1-0.6c0.4-2.8-0.3-6.6,1.9-7.4c0.1,0,0.1-0.1,0.3-0.1
		c0.2-0.1,0.4-0.1,0.6-0.1v-2.7c0.4-3.8-0.6-8.9,3.5-9l-0.9-5.2l-1.7-2c1.6-0.4,2,1.8,6.2-2.1l1.8-5.4l-0.2-5.4l-4-5.2
		c-1.7-2.5,0.9-7.1-5.2-7.4c-2.9-0.3-3.3-6.1-8.7-1l-7.1-0.1l-2.9-1.6l-2.2-4.3c-1.9,7.6-5.2,3.8-5.1,7.6c-1.5-0.4-3.2-1.4-3.1,1.8
		l-1.4,1.3l-2.1,3l-2.7,1.3l-3.2,0.2l-1.6-3l0.9-1.4l-0.2-3.1l-3.5-1.1l-1.6-1.4l-0.2-3.7l1.1-1.9l0.1-3.6l-6.4-3.4L450,206l0.9-8
		c-4.6-6.4,2.4-3.9,0.6-8.8c-0.1-0.1-0.1-0.4-0.1-0.5c-5.4-1.7-4.5-4.2-2.4-6.9c-1.1-3.6-0.1-8.5-4.5-10.3c0.2-0.4,0.1-0.8-0.1-1.1
		c-0.1-0.1-0.1-0.2-0.2-0.3l-0.9-0.9l2-4.4"/>
</g>
<g>
	<g>
		<defs>
			<circle id="SVGID_1_" cx="300" cy="301" r="277.6"/>
		</defs>
		<clipPath id="SVGID_2_">
			<use xlink:href="#SVGID_1_"  style="overflow:visible;"/>
		</clipPath>
		<g class="st1">
			<g id="Region_Valparaiso">
				<g id="Provincia_San_Antonio">
					<path id="valparaiso" class="region" d="M307.4-87.2c-1.8,0.1-3.6,0.8-5,1.9c-1.9,1.3-4.1,2-6.4,2.1c-2,0-7.5,1.8-12.2,4
						c-2.4,3.8-7.5,2.8-14.1,5.3c-0.8,6.7-3.8,1.4-7.1-3.6c-0.8-1.2-2.4-1.7-4.2-1.9c-2.8,0.2-15.7-3.8-13.4,1
						c-2.9,3.7,3.6,4.9,2.5,7.3c-4.6,2.7-5.7,5.3-7.9,8c-2.4,0.2-5.2,2.8-8.5,7.4c-5.6,5-10.8,10.2-13.8,10.2c-1.5,0-3.6-1.7-4.9-4
						c-2.9-5-4.2-5.5-6.4-0.7c-3.4,7.4-8.7,6.1-7.9,9.4c0.5,2.2-9.7,5.9-15.6,6.2c-4,0.2-10.4-2-19.3-5.8l-6.2-2.7l-3,2.8
						c-8.1,8.1-8.6,4.2-10.6,1.3l1.2,9.5c0,2.9,0.3,4.1,3.3,3.4c5.6-1.2,7.8,3.8,7.7,9.4c0,3.9-0.7,10.7,0,14.1
						c0.3,1.2,1.6,2.8,2.2,1.8c2.4-3.7,4.2,4,6.2,4.6s5,4.9,5.9,8.2c0.5,1.8,0.4,2.3-3.1,1.6c-1.5,1.1,0.1,8.6-2.7,10.1
						c0.1,4.4,2.8,17.6-4.5,12.8c-2.6-2.8-2.4,0.1-3,1.2c-0.6,0.2,0.4,1.3-0.1,4c2.5,3,3.2,7,1.9,10.7l3.3,5.3
						c4.1,1.5,2.7,6.3,3.6,9.8c0.4,1.3,2.5,3.2-1,3.4l-1.2,7.4c-1.4,6.5-3.5,11-11.9,8.2c0.1,0-1.4,1,0.6,4c0.3,1.7,0.1,4.5,1,5.2
						c3.3-1.4,2.8,3,2.2,4.9c-1.2,4-3.5,7-5.2,2.5l-5.1-2.4c-0.4,3.9-1,13.7,1.6,15.9c0.6,0.1-0.1,1,1.9,0.3
						c2.3,5.5,5.2,15.1,3.4,20.7c-0.3,0.9-1.5-0.1-1.9,0.7c-1.2,2.2-2.4,4.3-4,1.3l-3.4,2.2c0.3,1.3,1.4,2.6,1.6,3.7
						c1.2,5.5,1.1,9.6-0.3,12.3c-1.3,1.8-2,5.3-3.9,6.5s-1.1-1.4-4.6,1.3c-4.7,5.2-6.8,2.7-7.3,0c-0.5-2.1-1.4-3-2.2-3
						s-1.4,1.1-1.5,2.7c-0.5,0.9-2.5,2.9-2.8,5.1c1.2,5.6,0.3,12.8-2.8,11.4c0,2.4-5.2,1.1-8.8-1.2c-1.5-0.9-3.2-1.4-3.1,0
						c0,2.8,0.4,5.5,1.2,8.2c0.6,1.1,2,1.8,4.3,3c-1.2,0.1,0.3,2.8,1.8,4l2.4,3.9c1.8,1.7,0.7,3.8-2.2,4.2l-1.5,3
						c2.2,0.6,2.3,1.9,2.5,3.3c1.4,0.5,3.3,0.3,3,3.3l-1.5,2.8c-1.5,2.6-1.6,2.6,0.2,4c3.7,1.7,3.2,4,4.8,5.8c0,0.1,0,0.2,0.2,0.3
						c0.9,0.8,2,1.4,2.4,1.8c2.5,4,0.8,9.1,1.8,13.5c-0.9,5.4-9.6,5.5-9.1,6.7c0.7,2.9-0.6,7.6-3.4,12.2c0.9,1.3,2,2.4,3.3,3.4
						c1.4,1.3,2.6,2,3.1,2.5c0,0.1,0.2,0.1,0.4,0.3c1.9,1.3,4.5,2.3,5.8,7.3c0.9,1.2,1.3,2.7,1.2,4.2c3.2,1,5.9,3.2,7.6,6.1
						c2.7,4.5,1.2,6.6-0.6,8.5c-1.7-1.2-2.6-2.6-0.4,0.5c3.1,4.5-0.5,10.8-4.2,15.3c0.8,22.7-6.9,28.6-27.9,36.1
						c-1.9,0.6-2.6,1.5-3.4,4.2c-0.6,1.9-1.4,3.8-2.4,5.5c-0.8,1.2-1.3,2.7-1.3,4.2c-0.2,1.8-0.6,3.5-1.3,5.2
						c-0.8,2.2-1.2,4.5-1.2,6.8c0,2.1,0.5,5.5,0,5.8c1.8,3.1-0.8,4.1-1.9,5.8c1.1,0.7,1.9,2.5,3,1.2c3.4-4.1,3.5-2.5,4.3-1.5
						c1.4,2,4.3,1.6,5.2,3.9c1.8,4.8,3.7-2.6,5.9-2.2c0.7,0.1-1.6,4.7-0.6,4.8c3.6,0.3,3.5-2.2,4.9-0.5s-0.3,4.7,1,4.2
						s1-2.1,4.8-1.8c-2-2.4,2-4.2,4-4.8c1.8-1.6,3.7-3.1,5.6-4.5c4.8-3.6,9.6-7.2,14.4-10.9c1.2,1.1,1.4,2.8,2.1,2.1l2.8-0.3
						l0.4-24.2c0.8-1.6,1.8-2.2,2.7-2.4c1.5-0.2,2.9,1.2,4.6,3.1l1.6-1.3h4.2l4,3h4.8c0,0,3.7-0.2,5.9,1.6c2-2.9,5.6-1.5,8.5-2.1
						c1.4-1.3,2.2-3,2.2-4.9l0.1-3.6c-3.7-3.6-5.5-1-6.5-5.9l-3.6-2.4c-3.7-3.6-1.5-4.3-1.3-5.9c-2.2-0.8-6.1-0.2-1.8-5.9l-0.1-1
						l3-2.4l3,2.7c0.7-2.3-0.9-5.4,3.1-6.8c-2.1-5,1.9-3.8,4.9-3.7l2.7-2.4c1.5,0.4,2-2,2.5-4.8l1.2-1.6c-0.9-1.3-1-3-0.3-4.5
						c0.1-0.2,0-0.2,0-0.3c-0.4-4.4-1.2-6.8-2.1-8.2c-4.7,0-1.4-3.5-1.9-5.4c-2.2-2.9-1.7-5.7,1.3-8.6c-1.4-1.3,0.3-4.9,0.3-8.2
						c0-2.3-3.1-5.6,0.1-7c0.4-1.6,1.1-2.6,3.1-1c3.8,0.8,6.6,0.8,7.7-0.6c0.2-0.2,0.2-0.1,0.3-0.1l3.6-4.9c1.4-1.4,2.2-0.1,3.3,0
						c0.6-0.9,3.3-3.7,4.5-2.4c2.8-2.6-0.5-4.1,2.2-6.1l1-2.5c-1.1-2.7-0.3-3.4,1-3.7c0.3-2.9,1.4-3.2,0.9-3.3
						c-2.2-1.1-3.4-3.5-3-5.9c-0.9-1.1-1.5-2.4-1.9-3.7c-0.6-0.2-0.2-3.7-0.4-5.1c-0.7-1.2-1.6-2.5-0.3-3.4c0.2,0,0.5,0,0.6,0
						s0.1-0.2,0.1-0.1c1.1-0.2,1.9-1.2,1.9-2.4c1.6,0.4,3.3-0.1,4.5-1.3l2.5,0.3c0.8,0.6,1.3,1.8,4.2-0.3l2.5,1
						c3.1,1.2,4.9,0.8,5.9-1.2c-0.2-2.6,3.6-1.2,5.9-1.2c1.5,2.3,3.3,3.1,5.8,0.1c0.1-1.5-0.2-3.4,0.6-4.3c1.1,0.5,2.1,1.3,3.1,0.4
						c1.9,2.2,3.5,3.5,2.7-0.9c1.8,0.6,1.5-1.5,4.6-0.9c1.7-0.9,1.9-1.6,1.8-2.8c-0.4-2,2.4-1.3,0.6-2.8c-0.8-1.4-1.5-2.6-2.2-4
						c-0.4-1.1-1.1-2-2.1-2.7c-0.7-1.6,0.9-2.6-0.7-4.3c-0.3-4.6-1.7-4.1-0.1-8.9c0.3-1.6-1.3-1.9-2.4-2.8c0-1.9,0-2.3,2.4-3.7
						c0.7-3.3,1.6-3.4,2.1-5.4c0.8-1.7-1.7-1-1.8-4.8c-1.6-3.2-1.7-5.5-3.3-6.4c0.8-0.8,0.8-2.2,0-3l-0.1-0.1
						c0.6-1.2,1.3-2.1,1.3-3.6c1.3-0.6,3.1-0.4,4.6-0.4s3.1,0.3,4.8,0.3c1.7,0,3-1.3,4.3-2.1c1.3-0.9,2.4,0.4,3.9,0.7
						c2.2,0.6,2.3-1.6,3-3.1c0.4-1.6,1.5-2,1.9-3.6c1.5-3,2.1-2.4,3.9-1.9c1.3,0,2.8,0.4,3.3-0.7c1.5,0-1.5-1.3,4.8-1
						c0.7-0.2,1.3-0.5,1.9-0.9c1.6-0.2,3.2,0.6,4.9,0.6c1.3,0,1.5-0.5,2.5-0.7c2.8-1.1,4.8,0.4,7,0.7c1.1,2.8,0.6-0.1,5.5-1.5l1-0.1
						c1.7,0.1,3.3,1.1,4,2.7c0.1,1.4,0.1,2.9,0,4.3l1.3,0.4c0.8,3.6,3.3,0.4,5.2,0.3c3,1.4,2.8,0.4,4.8-0.3c1-0.3,2.1-0.4,3.1-0.4
						c1.7-1.8,4.2-2.6,6.7-2.2c1,1.7,1.6,0.1,2.4-0.6c2.1,0.5,3,2.2,3.7,3.3c0.4,1.2-0.6,3.6,0.5,3.9c1.1,0.3,2.8,0.1,3.6,2.7
						c2,2.2,3.8,4.7,5.8,6.8c-0.6,2.4-3.1,5.9,0.6,7.1c2.7,1,4.4,3.8,4.2,6.7c1.3,1,2.1,3.2,2.8,4.5c0.6,1.1,2.4-0.2,3.7-0.4
						c3.4-0.9,1.1-3.7,2.1-3.7c4.1,0.1,2-1.3,2.4-2.8c1.3-2.3,2-4.8,4.2-6.4c0-2.1,2.3-4.1,4.5-2.8c2.7,0.6,6.2,1.5,5.2,5.1
						c1.8,2.5-2.7,4.2-0.6,6.5c2.5,1.4,1.8,5.2,4.8,6.1l2.1,3c3,0.2,5.6-0.1,6.5-2.5l2.2,1.2c0.6,0.1,1.3,0.3,1.9,1.8l2.1-0.1l1.9,1
						l0.1,1l3,3.3h3.3l-0.1,5.6l0.6,2.1c3.1,2.4-2,6.2,4.8,5.5l0.1-3.9c1.4-1.1,2.5-2.5,3.4-4c-1.8-1.7-2-2.6-1.5-3
						c1.7-2,3.4-3.7,5.4-4l1.2-2.8l3.9-2.4c4.5-0.2,3.9-1.6,7.4-3.9c0.1-4,1.2-3.9,2.2-4c2.3-1.9,3.4-4.2,6.8-5.5l1.5,0.1
						c1.3-2.2,2.4-6.2,5.4-7c5.1-1.3,7.7-4.4,6.8-8.5c-0.9-4.3-0.6-6,1.2-8c1.8-2,3.8-7.6,4.6-12c0.6-3.5-1.9-6.6-7-8.5
						c-3.7-1.4-4.3-2.3-5.4-7.7c-0.2-1.2-2.7-3.9-5.9-6.7c-3-2.5-5.7-5.5-5.9-6.7c-0.4-1.5-1.1-3-1.9-4.3c-1.8-2.7-3.2-5.6-4.1-8.6
						c-0.7-2.1-1-4.2-1-6.4c0-7.6-1.6-14.5-3.9-16.9c-2.9-3-1.5-7.2,3.3-10.2c1.5-0.8,2.3-2.3,2.2-4c0.1-1.6,0.4-3.1,0.9-4.6
						c0.6-1.7,0.4-3.2-0.9-6.4c-0.9-2-1.4-4.2-1.7-6.4c0-3.3-3.6-8.9-6.8-10.4c-1.5-0.7-4.2-2-5.8-2.8c-4.6-2.2-7.7-4.6-9.4-7.3
						c0-0.1-0.1-0.1-0.1-0.1c-0.1-0.2-0.2-0.3-0.3-0.4c-1.4-2.5-1.4-3-0.1-5.5c1-2,1.2-4.7,1-10.4c-0.1-4.3-0.2-8.2-0.3-8.6
						s-2-2.2-4.5-4c-1.9-1.3-3.6-2.7-5.2-4.3c-1-1.6-5.5-2.3-7.4-1.8c-1,0.3-4.2-3-4.9-4.8c-0.8,1-2.5,1.9-5.2,2.5
						c-1.9,0.4-8.6,3.8-10.1,4.2c-4.2-1.6-2.4-8.5-2.8-12.6c0-2-5-1.1-6.2-2.1c0.3-5.5,4.3-13.2,0.6-16.3l-7-2.4
						c-3.9-1.2-8.4-5.5-8-3.7c2.4,10.9,0.4,5.3-12.8,3.1c-5.6-2.9-11.8-7.1-10.9-7c3.5,0.3-5.9-7.1-2.8-9.7c8.5-7-5.8-10.8-4.5-7.5
						c1,2.8-4.5-1.1-4.9-4.2C312.3-86.1,310.1-87.4,307.4-87.2z M122.5,226.2c0.2,0,0.5,0,0.7,0l-1.2,0.1
						C122.2,226.3,122.3,226.2,122.5,226.2z M131.6,264.1c0.6,0.3,1.2,0.7,1.6,1.2v0.1C132.7,264.9,132.2,264.4,131.6,264.1
						L131.6,264.1z"/>
				</g>
			</g>
			<g id="Region_OHiggins" class="st3">
				<g id="g15007">
					<path id="o-higgins" class="region" d="M375.8,362.9c-0.3-0.1-0.8,0.2-1.6,2.1c-2.1,1.6-1.6-0.9-3.4,0.1l-0.7,0.6
						c0.1,0.2,0,0.2,0,0.3c-0.6-0.3-1.4-0.5-2.1-0.5c-2.2,0.1-6-0.4-5,2.8c-1.1,1.7-2.6,4.8-4.8,3.1c-1.5,2.2-2.8-2.3-5-0.9
						c-1.5,0.5-2.1,0-2.8,2.1c-1.6,1.1-3.3,2.6-4.9,0.7c-3.3,0.1-3.5,0.4-4.8,2.4c-0.4,0.6-1.1,0-1.6,0.3c-1.1,0.8,0.2,2.7-1.8,3
						c-2.2,0.1-2.3,1.6-2.2,3.1c-1.9,1.5-4.5,4.7-6.2,1.3c-1.4-1.7-3.5-2.7-3.6-4.9c-1.1-1.9-4.3-3.3-5.5,0
						c-1.2,0.9-0.8,1.4-2.1,1.5c-0.7,1.5-3.9-0.6-3.9,2.2c-3.1,3.5-3.9,4.7-5.9,2.8c-2.2-0.4-5.3-4.4-6.4-0.6c0.2,2.6-2.1,3.2-4,3.9
						c0.3,0.9,0,1.4,0.6,1.8c0.6,0.4,1.5,1.5,2.1,1.9c4.2,0.6,2.2,2.4,2.8,4.9c0.4,0.4,0.6,0.8,0.7,1.3c0.4,1.3-0.6,2.4-1.9,3.1
						c-0.6,0.3,1.6,4.3-2.2,6.1c-0.2,0.1-0.4,0.2-0.6,0.3c-4.1-2-7.9-0.9-11.6,1.5c-5.4,0.2,1.2,9.9-4.6,9.2
						c-7.2-1.7-9.1,7.4-5.5,12c0.8,1.4,1.8,2.7,3,3.9c0.5,0.2,0.4,0.4,0.1,0.6c-0.7,0.5-3.6,1.2-5.5,3.3c-1.1-0.5-5.1,4.5-6.1,4.3
						c-1.9-0.5-3.7-0.9-5.6-1.2c-4.4,0.5-5.4-1.5-6.7-1.8c-1.4,1.7-3.3,3-5.4,3.7c-3.2,5.5-7.2-4.6-12-3.1c-5.3,0-15.4-0.9-17.5-6.8
						c-6.4-1.4-3.3-7.7-7.7-10.4c-2.7-0.6-5.2-0.4-4.8-6.7c-0.9-6.9-4.1-1.7-7.1-7.9c-0.1,2.7-1.4,3.4-3.3,3.7
						c-1.9,0.3-2.7,2.3-5.1,1.5c-1.1,1.1,1.6,4-1.5,3.3c-2.4-0.6-5.6-2-7.3,0.7c0,2.5-3.7-1.3-4.6-2.2c-1.6-1.5-2.2-4.9-1-5.9
						c-3.2,0.2-5.6-2.1-7.3-4.5c-0.4,0.9-1.6,0.9-2.8,0.6c-1.4-0.4-2.7-1-4-1.8c-3.6-1-7.4-0.7-10.7,0.9c-2.5-1.1-3.6-5.2-6.5-6.4
						c-0.3,2.5-0.8,5.1-2.7,6.8c1.8,1.1,3,3.8-0.1,4c-2,3-3.2-3.9-5.4-4.6c-1.7-2.8-5.3-0.5-6.5-2.4c-1.2-1.9-4.7-1.1-5.9-1
						c-0.7-1.4-0.6-3.1,0.3-4.5c-1.6-2-5-0.3-7.1-1.8c-0.1-0.2-0.3-0.3-0.4-0.3c-2.8-0.3,1.4-3-1.6-4c-3.7-0.3-3.2,1.2-4.6,1.8
						s0.2-2.4-1-4c-1.2-1.6-1.2,0.8-4.8,0.5c-0.9-0.1,1.3-4.6,0.6-4.8c-2.2-0.3-4,7-5.8,2.2c-0.8-2.2-3.8-1.8-5.2-3.7
						c-0.8-1-0.8-2.5-4.2,1.5c-1.1,1.3-1.8-0.5-2.8-1.2c1.1-1.7,3.5-2.8,1.8-5.8c-0.1-0.1-0.2-0.2-0.3-0.1c-0.5,0.1,0.4,3.7-1.5,3.6
						c-1.3,2.6-3.4,3.3-2.5,6.8c0,3.2-2.2,4.4-4,5.8c-1,1,0.3,3.4-3,2.4c0.6,0.1-1.1,2.2,0,2.7c0.9,2.8-0.6,3.4-0.2,5.4
						c-2.4,4.7-5.3,6-5.2,6.7c-1.5,3.5-3.2,3.6-5.5,4.3c-0.1,4.4,0.1,7.1-0.7,8.3c-0.6-0.6-0.8,2.3-1.3,3.1c-0.5,0.8-3.3,2.5-3,1.2
						c0.4-1.6-1.1,0.9-2.7,2.1c1.3,2-0.6,4.6-0.6,7c-1.1,1.6-3.3,1.3-5,1.5c-2,0.1,0.4,2.7,1.5,3.6c-0.1,0.4,0,6.3,0.6,6.8
						c-0.7-0.5-1.9,0.2-0.7,1.6c1.2,1.4,0.5,2.6,0.9,4.6c0.6,0.6,0.9,1.4,0.9,2.2c0.2,1,0.8,1.9,1.7,2.5c-0.2,1.4,1.5,1.2,0.4,2.7
						c-0.1,2.2,1.3,4.8,0.9,6.5c0.4,2.3,0.9,2.1-0.3,4c0.1,2.4,3.4,5.6,1.3,8c0.1,3.5,1.2,6.3,0.6,9.8c0.1,1.8,0.9,4.7-0.7,4.5
						c-0.6-0.1-2.1,2.1-3,3.9c-1.2,0.7-4.2-0.4-4.3,1c-0.2,2.1-1.3,1.7-2.1,2.2c-0.7,1.4,0.5,3.7-0.6,4.9c-0.8,0.8-0.8,2.2-1.5,3.1
						c-1.7-0.3-2.6-0.8-2.4-0.1c0.3,0.8,0.5,1.7,0.6,2.5c4.5,7.1,1,5.4,3.9,8.6c0.7,3,1.2,7.7-0.7,9.7c-1.8,3-2.8,4.6-3.3,7
						c0.1,0.9-0.1,1.7-0.5,2.5c0,0.1,0,0.2,0,0.3c-1.1,2.7,0.2,4.6,1.3,6.5c1.4,5.5,1.3,4.2,0.2,7.4c-1.1,1.7,0.6,3.5,0.5,6.2
						c1.4,3.3-0.7,1.8-1.2,3.3c0.1,1.8,0.5,3.8-0.6,3.9c-0.5,0,1.5,0.7,0.7,1.8c-0.6,0.9,1.6,2.4,1.9,3.3c1.7,2.8,2.8,1.5,4,0.7
						c1,0.7,0.6,2.4,1,3.6c0.6,1.5,3.5-1.5,4.3-1.5c2.4,0.2,0.6,0.8,4.6,3.1c-1.2,1.4-1.1,1.9-1.5,3.6c0.6,1.3,0.9,2.7,0.9,4.2
						c1,0.7,2,1.4,3,1.9c1,0.2,2,0.4,3,0.5c1.3-0.6,1.7,1.9,3,3.3c0.4,0.5,0.9,0.9,1.5,1.2c-0.1,1.8,0.1,2.6,0,4.3
						c0.9,0.8,1.6,1.8,2.1,2.8c1.3,1.2,2.8,2.3,4.3,3.3c1.3,0.4,3.4-0.1,4.8-0.2c0.3,0.5,0.8,0.9,1.3,1c1.9,0,4-0.4,5.8,0.2
						c0.9,0.6,1.5,1.1,1.5,2.2c-0.4,0.5,0.7,1.7,1,1.8c2.9-0.7,3.7-0.3,5.3,0.3c0.9-0.2,2.5-1.4,4-2.8c-1.5,1.4,1.1-0.5,1.5,0.7
						s4.4,2.5,1.9,3.1c1.7,0.4,3,1.3,2.1,3.6c-0.9,1.5,1.6,2.7,2.5,3.7c1.7,0.7,0.1,2.3-0.2,2.2c2,0.3,3.8,1.2,5.2,2.7
						c-0.1,1.7,2.3,2,2.5,3.9c0.9,1,2,1.7,2.4,3.1c1.3,0.5-0.6,3.7,1.5,3c1.7-0.8,3.9-0.2,4.5-2.5c2.3-0.2,1.8-3.2,2.8-4.8
						c0.5-2.4-3.2-2.1-3.7-3.3c0.8-1.3,0.6-4.1,2.7-4c1.6-1.1,1.6-3.1,2.5-4.6c1-2.4,2.7,0.5,4.5-0.2c2.2,0.2,4.3,1,5.9,2.4
						c0.9,1.1-1.4,2.8,0.9,3c2.2,0.8,2.8-2.1,4.6-2.7c1.3-1.1,3.4,0.1,1.6,1.5c1.6,0.3,2.6-0.4,3.7-1.3c0,0,1-1,1.6,1.2
						c0.4,1.3,2-0.1,1.5-0.7s0.4-1.3,0.4-1.3c0.3,0,1.2,2.6,4,1.8c1.4-0.4,1.6,1.5,4.5,3c0.9,0.5,2.6-0.1,3.7,0.9s2.5,2,3.6,1.2
						c0.9-0.2,0.9-1.2,1-2.1c0-0.7,0.4-1.3,1-1.6c0.9-0.2,1.7-0.6,2.4-1.2c0.3,1,0.5,0.5,1.3,1.3c0.2,1.2,0.6,1.1,1.2,1.9
						c0.4,0.6,0.6,1.4,0.4,2.1c0.6,0.4,0.5,0.6,1,0.6c0.4-0.9,0.4-1.2,1.3-1.5c1-0.7,2.4-0.7,3.3,0.2c1.3,0.3,1.4,1.3,2.2,2.1
						c1,0.7,2.1,0.9,3.3,0.7l0.6-2.2c-0.2-0.3-0.5-0.6-0.7-0.9c-0.7-0.9-1.4,0.2-2.2-0.6c-0.3-0.4-0.4-1.1-0.7-1.5
						c-0.7-0.7-0.4-2.3-0.3-3.3c-1.4-1.7-0.9-2-0.3-2.4c0.7-0.6,1.1-1.4,1.3-2.2c0.1-0.7-0.1-1.5-0.4-2.1c-0.5-0.9-0.2-0.6,0.4-1.2
						c0.4-0.7-0.1-1.3,0.4-2.1c0.7-0.2,0.7-0.6,0.9-1c1.4,0.2,2.1,0.7,2.4-0.9c0.2-0.7,0.7-0.4,1-0.2c0.8,0.8,2.1,1,3.1,0.3
						c1-0.9,2.5-1.1,3.4-1.9c1.6-1.1,1.4-3,1.9-4.6c0.5-0.3,1.1-1.5,1.8-1.5c1.1,0.2,2.2,0.1,3.3-0.3c0.8-0.3,1.5-0.9,1.5-1.3
						c0.6,0.7,1.4,1.3,2.2,1.8c0.4,0.1,0.7,0.5,0.9,0.9c0.8,2-0.3,3.5,0,5.5c1.1,0.7,2.5,0.5,3.7,0.7c1.1,0.6,1-0.4,2.1-0.5
						c2.1,0,1.6,0.5,1.9,1.2c1.4-0.4,1.5,1.4,3.3,0.9c0.8-1.2,1.8-2.3,3-3.1c1.1-1.1,0.9-2.4,1.3-3.9c0.3-0.7,1.2-0.4,1.9-0.6
						c0.8-0.4,1.8-0.6,2.7-0.5c1.1,0.2,2.2-0.1,3.1-0.7c-0.1-1.2,0.8-2.2,2-2.3c0.2,0,0.4,0,0.6,0.1c1.2,0.2,5.8,7.3,7.7,8.5
						c1.5-0.2,3-0.7,4.3-1.3c1.9-0.3,1.5-1.9,3.1-2.8c0.9-1,1.7-2.2,2.2-3.4c0.2-0.2,3.8,3.7,4,2.7c1.5,1.9,1.9,4.5,2.5,5
						c4.3-0.7,4,2.3,4.5,1.9c1.3-1.2,4.2,3,5.5,6.2c2,4.9,3.8,2.2,8.6-0.2c2.7-1.3,4.6-0.1,6.2-1.9c1.4-1.5,2.5-0.2,3.3,0.2
						c1,0.4,3.2-0.8,3.4-0.3c1.2,1.3,2.8,2.2,4.5,2.7c2.9,1.6,2,0.7,4.8,0.9c0.8,0.1,0.6-1.2,0.5-2.4c-0.1-0.5-0.1-1-0.1-1.5
						c1.6-0.2,5.3,2.3,5,2.2c-0.5-0.2,0.9-1.2,2.2-0.9c0.9,0.2,1.7,1.1,3.1,2.4c0.7,0.6,1.4,1.8,2.5,2.1c0.9,0.2,0.2,1.3,0.9,2.1
						c1.7,1.9,3.9,2.9,5,2.8c0.9,0,1.9,2.6,2.2,4.5c0.2,1.2,1.5,0.7,1.6,1.2c0.9,2,1.8,1.3,3.1,1.3c1.1,0,3.3,4.5,4.2,7.7
						c0.8,2.8,0,1,5.8,4.2c3.1,1.7,2.6,3.5,3.6,2.5c0.6-0.8,0.9-1.7,1-2.7c-0.7-4.2,0.6-4,4.9-4.2c3.9-0.6,3.9,0.6,4.2-1.2
						c0.8-2.4-1.8-4,3.4-3.4c1.1,0.1,1.5-1.6,1.9-1.6c0.8-0.1-0.3,3.7,1,4.2c0,0.5,2.1-0.1,3,0.5c-0.1,0.1-1.5,2.5-0.5,3.4
						c0,1.3,4.3,1.5,6.1,1.5c1,0,0.5,1.4,1.8,2.8c0.9,1,1.5,2.2,3,2.2c3.1,0,2.8-2.4,3.3-1.9c0.3,0.2,0,1.8,1.8,1.8
						c-0.1-0.8,2.5-1.3,5.4-1.5c1.3-1.8,1.8-0.4,3.9,0.9c1.6,1,1.9,2.7,3.1,2.4c1-0.2,0.9-1.7,1.8-1.3c1-0.1,5.6,2.4,6.4,1.9
						c0.2-0.2-0.1-1.1,0.9-1.2c1.5,1.2,3.3-1.7,3.4-2.4c1.1-1.8,0.2-4.7,0.1-10.2c-0.4-2.6,1.7-1.9,2.7-3c1.5-3-0.4-4.3,4.8-9.7
						c0.5-1.3,0-4.6,1-5.3c1.6-1.2,1-3.8,1-5c0-1,1-1.8,2.1-4c2.5-5.1,3.2-8.2,2.1-9.5c-1.9-0.5-7-2.6-8-4c-0.8-0.4-2.4-0.2-2.8-0.9
						c-0.8-1.2-0.1-3.4-0.1-5.2s4.2-4.3,7-5.2c1.8-0.6-0.2,0.3,0.9-2.8c3.7-5.4,1.2-3.8,2.4-5.9l0.3-0.3l5.8-3.7l0.1-4.5
						c-2.1-7.2-0.4-5.6-0.7-7.7c-0.2-1.3,2-10.9,2.5-8c0,0.2,2.2-5.9,3.1-6.2c0.7-0.2,2.5,0.8,2.7-0.6c0.6-3,2-5.8,4-8.2
						c0.8-1.2,1.3-2.5,1.5-3.9c0.7-1.9,1.6-3.7,2.5-5.5c0.8-2,1.4-4.1,1.8-6.2c0.2-1.4,1.5,2,4.6-0.5c1.9-0.3,2.3-2.9,5.8-6.5
						c1.9,1.2,2.6-1.4,2.8-2.2c1.6-0.9-0.7-2.4,0.6-3.6c1-0.6,2.1-0.6,3.1-1.2c3.6-2,5.2-2.7,4.3-7c-0.4-2.2-3.9-3.6-2.2-9.4
						c1.4-4.7-0.3-10.1-0.1-11.1c0.3-1.8-4.8-3.2,0-4.3l0.3-0.1c-1.4-1.4-2.8-2.8-4.2-4.2c-1.3-3.6-1.7-6.3-0.9-7.3
						c-0.5-1.4-0.5-2.9,0-4.3c-4.4-3.5-0.6-4-3.4-4.2l-0.1-1.6l-2.4-1.3l-1.2,1.3c-2,0.1-4.1,0.5-5.6-0.5c-0.2-1.9,0-4.1-3.9-2.4
						l-3-2.5c0.1-2.1-1.1-5.6-3.3-4.8c-1.3-0.2-1.2-0.7-1.2-1.2c2.4-0.7,1-2.9,0.6-4.6c1.5-1.9,7.4-5.3,2.7-5
						c-1.2,0.2-1.6-0.9-1.8-2.1c-1.7-1-1.7-2.7,0-3.9l-2.2-4.2l-0.5-4.2l0.5-3l-2.4-2.8l-3.4-0.1l-1.9-0.5l-6.4,0.6
						c0.4,2.8-2,3.5-1.5,6.4l-0.3,0.1c-1.3,0.7-1.7,2-2.5,2.4c-0.1,0.1-0.2,0.1-0.3,0.1s-0.3,0-0.5,0c-1.7-1.1-2.9-1.7-4.2-3
						c-0.7,0.3-1.4,0.6-2.1,1c-0.1,0.1-0.3,0.1-0.5,0.1c-0.3,0.1-0.6-0.1-0.9-0.5l-0.5,1l-1.2-0.7c-0.7-2-1.7-1.5-2.7-0.3
						c-3.2-0.8-3.5-2.1-3-3.7c-2.8-1.1,1.6-1.1,0-3.9l1.3-1.5c2.8-0.9,2.4-2,1.3-3.1h0c0-0.1-0.1-0.2-0.1-0.3c1.2-0.8,1.5-1.8,0-3.1
						l-0.3-3.6l-2.7-0.1l-1.8-1.8c0-1.8,2.1-4.6-1.6-4.5l-1.6-1.8c0-1-0.3-2-1-2.7c-0.3-0.3-0.6-0.6-1-0.9c-0.2-2.4-1.5-3.3,0.6-3
						c-0.6-1.8,0.5-2,1.2-2.5c-1.2-1.6-0.9-2.4-0.6-3.1c-0.4-0.5-0.9-0.5-0.7-2.8c-2.5-0.7-2.6-1.8-3.6,0.1c-3-1.5-4.3-3.1-4.3-4.6
						c-0.4-0.2-0.8-0.4-1.2-0.7c-0.2-0.2-0.3-0.4-0.5-0.6c-0.1-0.2-0.2-0.5-0.3-0.7c-1.5,0-2.3-0.3-2.5-1
						C376.3,363.5,376.2,363,375.8,362.9L375.8,362.9z"/>
				</g>
			</g>
		</g>
	</g>
</g>
<circle class="border-circle" cx="300" cy="302.1" r="277.6"/>
</svg>
