<?xml version="1.0" encoding="utf-8"?>
<!-- Generator: Adobe Illustrator 21.0.0, SVG Export Plug-In . SVG Version: 6.00 Build 0)  -->
<svg version="1.1" id="Capa_1" xmlns="http://www.w3.org/2000/svg" xmlns:xlink="http://www.w3.org/1999/xlink" x="0px" y="0px"
	 viewBox="0 0 600 600" style="enable-background:new 0 0 600 600;" xml:space="preserve">
<style type="text/css">
	.st1{clip-path:url(#SVGID_2_);}
</style>
<title>Tarapacá</title>
<path id="colchane" class="comuna" d="M371,253c0.4-1,0.2-1.9,3.3-2.9c0.9-0.4,2-0.2,2.9-0.8l0.2-1.7l1.4-0.8l-0.3-1.3l3.2-5.4l1.4-0.6
	l11.1-15.2c2-0.5,3.6-1.2,2.9-2.8l-11.8-10.8l-7.4-2.2c-0.9-0.6-0.6-1.4-0.9-2.1c-4-4.1-7.9-8.4-12.1-12.3c-2.2-4.8-7.4-6.1-12-7.6
	c-2.2-4.1-3-8.5-6.4-11.5c-0.6-0.2-1.3-0.4-1.7,0.1s-0.4,2.6-0.8,2.1c-0.3-0.3-1-0.9-2.1,1.2c-3.3-0.8-3,3-5.4,4.2
	c-0.3,0-0.6-0.1-0.8-0.1c0.3,1.9-2.4,2.6-3.1,4.2c-0.9,1.7-3.5,0.9-5.1,1.2c-2.4,0.4-6.7,2.3-9.2,2.9c-1.4,0.7-2.5,2-4,2.3l3.3,10.9
	l10,6.2c5.2-4.3,6.6-3.3,7.9-2.1l4.3,3.6l-7.7,18l11.4,7.2l6.4,2.6c4.9,3,1.2,7.6,6.5,7.9l2.7,3.5L371,253z"/>
<path id="huara" class="comuna" d="M220.9,203.6c9.9-5.2,14.4-9,19.4-12.2c5.9-1,9.4-3.6,12.7-6.4c3.8,1.5,8.2-2.1,12.2-0.2
	c8.2-3.1,10.6-2.1,15.8-3c6.1-0.4,6.1,0.4,8.3,0.8c3.8-0.1,9.1-1.3,9.3,1.1c1-0.3,2-0.2,3-0.5c1.9-0.3,2.5,1.4,2.5,2.8
	c-4.1,6.9-0.7,9.9-12.9,16.4l-5,0.4l-5.5,4.2h-5.5c-1.5-0.5-2.3-0.2-2.6,0.7l0.4,40l3.5-1.8l1.3-0.3l8.2-4.6l1.8-2.5l4.2-2.2
	c2.4-1.1,5-1.7,7.6-1.7l4.6-2.9l1.3,0.3c2.2-1.5,4.5-3,5-4.9l0.5-1.8c2.3-1.3,2.1-2,1.5-2.5c0.4-2,1.3-3.5,3.2-4.1
	c1-0.6,2.5-0.4,4.3,0.1l5.7-5.2l2.4-3.5c5.2-4.3,6.6-3.3,7.9-2.1l4.3,3.6l-7.7,18l11.4,7.1l6.3,2.7c0.2,1.5-1,2.6-1.9,3.8l1.5,3.1
	v8.2l-3.9,5.7l-6.2,3.5l0.3,2.2l2.8,3.5l0.4,1.5l-2.4,0.2c-2.8,1.1-5.3,2.8-7.3,5c-2,0.5-3.9,1.2-5.7,2.1l-6.8-0.3l-2-1.2l-2.1-0.1
	l-51.7,12.9l-5.7-4.5l-17.9-1l-3.3-2.1l-0.2-3.5l-1-1.1c-0.1-2.4,0.7-4.9-0.4-7.4c2.5-4.6-1.7-4.2-2.1-6.5c0.8-3.9,0.6-7.4,0.8-11
	l-2.5-2.8l1.3-0.6c-0.8-1.5-1.6-2.9-1-4c-2.8-1.4-4.5-3.4-6.5-5.1c1.5,0.3,2.7,0.1,3.5-1.4c0.9-1-1.5-0.2,0.2-8.5
	c-1.1-1.4-0.8-3.2-1.3-4.8s-1.7-3.2-1.8-4.9c0.1-1.7-0.7-3.3-2.2-4.1c-0.3-1-0.3-2.1,0.1-3.1l-2.9-1.8c-0.4-1.3-0.6-2.7-0.4-4
	C221.7,206.1,221.5,204.8,220.9,203.6z"/>
<path id="camina" class="comuna" d="M314.2,193.1c-1.8-1.5-1.5-3.9-3.8-4.8c-2.2-0.4-5.5,0.4-6.3-2.3c-4.1,6.9-0.7,9.9-12.9,16.4
	l-5,0.4l-5.5,4.2h-5.5c-1.5-0.5-2.3-0.2-2.6,0.7l0.4,40l3.5-1.8l1.3-0.3l8.2-4.6l1.8-2.5l4.2-2.2c2.4-1.1,5-1.7,7.6-1.7l4.5-2.9
	l1.3,0.3c2.2-1.5,4.5-3,5-4.9l0.5-1.8c2.3-1.3,2.1-2,1.5-2.5c0.4-2,1.3-3.5,3.2-4.1c1-0.6,2.5-0.4,4.3,0.1l5.7-5.2l2.4-3.5l-10-6.2
	L314.2,193.1z"/>
<path id="alto-hospicio" class="comuna" d="M241.3,283.9l17.9,1l-1.9,19.5l-6.1,7.3l-3.5-3.5l-8,7.9l-1.2-4.2v-2.2l1-1.7l0.3-12.5
	l-0.7-1V292l1.5-4.1L241.3,283.9z"/>
<path id="pica" class="comuna" d="M355.7,403.9l31-19.3l3-12.6c-1.9-0.7-2.6-3-4.3-3.9c-1.1-1.1-0.7-2.7-1.4-4c-0.4-1.7,0.8-3.3,0.1-5
	c0-1.4,1.1-2.7,0-4.1c-1.1-1.4,1.1-3.4-0.1-4.8c1.1,0,1.6,0.9,2.5-2.7c0.8-1.4,2-2.6,3.4-3.5c0.3,0.1,3.5-0.8,4.1-2.6
	c-0.7-0.6-2.5-1-2.9-1.8c-0.5-1.2-0.9-1.5-2.2-1.4c-2.4-0.2-1.5-3.1-3.9-3c-4.2,0.7-3.1-1-5.4-2.5c-1-0.6-2.2-2.4-3.5-2.5l-2.2,0.1
	l-7.5-6.5v-9.5l0.9,0.2l3.3-0.5c0.9-0.1,2,0,2.7-0.6c0.9,0.5,0.6-3,0.1-4.4c-0.3-0.9-0.9-0.4-1.7-1.5c-0.8-0.4-1.2-1.3-0.9-2.2
	c0.4-1.3-0.7-2.1-1.3-3c-0.6-0.9,1.1-1.8,0.6-2.8c-0.5-1.2-0.1-2.6,0.9-3.5c-0.9-1.2-0.2-3-1.1-3.8c-1-0.1-3,0-3.6-1.1
	c-0.3,0.1-1.5,1.1-2.3,0.4l1.5-5.3l5.9-0.5l4.7-2h6.7l4-11l-2.7-2.9l1.8-6.1l-6.5-1.4c-0.1-1.1-3.2-5.9-5-6.3c-0.9-2-3.3-0.7-4.1-2
	c1.3-1,0.9-1,0.9-1l-11.8-2.3l-2.7-3.5c-5.3-0.3-1.6-4.9-6.6-7.9c0.1,1.6-1.1,2.7-2,3.8l1.5,3.1v8.2l-3.9,5.7l-6.2,3.5l0.3,2.2
	l2.8,3.5l0.4,1.5c3.2,1.5,1.5,4.3,1.3,6.6l0.8,5.2c-1.2,1.1-3,0.9-3.4,3.8v2.8l2.6,1.4c-0.3,2.5,1.5,2.2,2.8,8.2l-2.7,2l-0.4,2
	l-2.1,2.1c-0.8,3.7-5,3.1-8.2,3.8l-3-2.2l-9.4-1.5h-5.5l-4.5,2.2L304,307l-1.8-1.8l-2.1,0.1l0.7,47.6l2-1l6.1,0.1l4.4-2.6h1.8
	l1.4,1.2l7.6,0.5l5.5-1.3l7.1-0.1l4.2-1.9l3.2-0.5l1.4-0.9h1.1l0.1,1.2l1.3,1.6l0.4,3l-0.9,2.8l0.4,2.3l-1.1,1.2l1.6,2l-0.7,28.3
	l3.8,5.2l1.8,5.5L355.7,403.9z"/>
<path id="pozo-almonte" class="comuna" d="M355.7,403.9l-40,13.3l-22.3,24.9c-0.9-0.5-1.7-1.4-2-2.4c-0.9-1-1-2.5-1.7-3.5
	c-1.2-1.4-2.3-2.8-3.2-4.4c-0.8-1.3-1.6-2.7-2.2-4.1c-0.8-1.1-1.4-2.9-2.7-3.4c-1.9-0.4-4.6-0.8-6.1-2.2c-0.9-0.8-2.1-1.1-3.2-1
	c-1.5,1.6-3,1.4-5.1,0.9c-4.9,0.1-6.1-0.9-8.8-1.7l-1.2-0.1v-4.1l4.5-6.7l-1.4-13.8l6.9-4.9l-16.5-24.8l-5-17.9l1.6-9.1
	c0.3-1.2-0.1-2.4-0.9-3.2l-6.5-19.5l8-7.9l3.6,3.5l6.1-7.3l1.9-19.5l5.7,4.6l51.7-12.9l2.1,0.1l2,1.2l6.8,0.3
	c1.8-0.9,3.7-1.6,5.7-2.1c2-2.2,4.6-3.9,7.3-5l2.4-0.2c3.2,1.5,1.5,4.3,1.3,6.6l0.8,5.2c-1.2,1.1-3,0.9-3.4,3.8v2.8l2.6,1.4
	c-0.3,2.5,1.5,2.2,2.8,8.2l-2.7,2l-0.4,2l-2.2,2.2c-0.8,3.7-5,3.1-8.2,3.8l-3-2.2l-9.4-1.5h-5.6l-4.5,2.2l-7.3-0.2l-1.8-1.8
	l-2.1,0.1l0.7,47.6l2-1l6.1,0.1l4.4-2.6h1.8l1.4,1.2l7.6,0.5l5.5-1.3l7.1-0.1l4.2-1.9l3.2-0.5l1.4-0.9h1.1l0.1,1.2l1.3,1.6l0.4,3
	l-0.9,2.8l0.4,2.3l-1.1,1.2l1.6,2l-0.7,28.3l3.8,5.2l1.8,5.5L355.7,403.9z"/>
<path id="iquique" class="comuna" d="M239.8,316.1l6.4,19.6c0.9,0.8,1.2,2.1,0.9,3.2l-1.6,9.1l5,17.9l16.5,24.8l-6.9,4.9l1.4,13.8
	l-4.5,6.7v4.2c-1.5,0.2-3.1,0.4-4.6,0.7c-2.7,1.6-2.6,0.6-5.1-0.2c-0.9,0-1.4,0.9-2,1.2c-0.4-0.5-0.6-1-0.7-1.6
	c0.1-0.4,0.1-0.9,0-1.3c-2.2-2.1-1.6-2.1-1.8-3c0-1.1,0.5-0.2-0.9-2.8c0.1-0.3,0.3-0.6,0.6-0.7c0.4-0.3,0.8-0.1,1.1-0.5
	c0.9-0.6,1.4-1.7,1.1-2.8c0.9-0.6-1.8-4.1-2.1-4.2c0.3-0.4,1-2-0.9-4.4c0.5-1.4-0.1-2.9-1.4-3.6c0.1-0.6,0.1-1.2-0.4-1.6
	c-0.1-2.2-1.2-2.1-1.9-3.1c3.4-3.4-0.6-5.3-1.6-5.7c-0.8-0.1-1.3-3.1-1.9-5.1c0.6-1.1,0.1-4.9,1.1-4.9c2.8-0.3,0-6.7,0.1-11.1
	c-0.9-1.1-1.8-2.3-3.3-2.5c-0.3-0.9-1-1.8-1.8-2.3c2.4-1.8,0.8-3.7,0.3-5.7c2.2-1.6,1.1-2.8,0.1-4c0.3-1.1,1.4-1.7,0.4-3.7
	c1.7-2.5-0.6-3.3-0.4-6.7c1.1-3.3,0.4-5.6,0.4-8.3c0.3-1.9,1.9-1.5,2.7-3.3s1.2-6.3,0.6-9.6c-2-0.8-1.6-2-2.2-2.9
	c-0.6-0.9,3.8-3.4,3.8-4.2c1.4-16.7-2-6.1-2.5-15.6c0.9-10,1.1-2.6,2.7-8.5c2.2-6.3,1.2-6.6,1.2-6.6l3.3,2.1l-0.6,3.8l-1.5,4.1v2.5
	l0.7,1l-0.3,12.5l-1,1.7v2.2L239.8,316.1"/>
<path id="LÍMITE_REG" class="limite" d="M389.7,372l-3,12.6l-31,19.3l-40,13.3l-22.3,24.9c-0.9-0.5-1.7-1.4-2-2.4
	c-0.9-1-1-2.5-1.7-3.5c-1.2-1.4-2.3-2.8-3.2-4.4c-0.8-1.3-1.6-2.7-2.2-4.1c-0.8-1.1-1.4-2.9-2.7-3.4c-1.9-0.4-4.6-0.8-6.1-2.2
	c-0.9-0.8-2.1-1.1-3.2-1c-1.5,1.6-3,1.4-5.1,0.9c-4.9,0.1-6.1-0.9-8.8-1.7c-1.9,0.1-3.9,0.3-5.8,0.7c-2.7,1.6-2.6,0.6-5.1-0.2
	c-0.9,0-1.4,0.9-2,1.2"/>
<path id="LÍMITE_INTER" class="limite" d="M389.6,372.2c-1.9-0.7-2.5-3.2-4.2-4.1c-1.1-1.1-0.7-2.7-1.4-4c-0.4-1.7,0.8-3.3,0.1-5
	c0-1.4,1.1-2.7,0-4.1c-1.1-1.4,1.1-3.4-0.1-4.8c1.1,0,1.6,0.9,2.5-2.7c0.8-1.4,2-2.6,3.4-3.5c0.3,0.1,3.5-0.8,4.1-2.6
	c-0.7-0.6-2.5-1-2.9-1.8c-0.5-1.2-0.9-1.5-2.2-1.4c-2.4-0.2-1.5-3.1-3.9-3c-4.2,0.7-3.1-1-5.4-2.5c-1-0.6-2.2-2.4-3.5-2.5l-2.2,0.1
	l-7.5-6.5v-9.5l0.9,0.2l3.3-0.5c0.9-0.1,2,0,2.7-0.6c0.9,0.5,0.6-3,0.1-4.4c-0.3-0.9-0.9-0.4-1.7-1.5c-0.8-0.4-1.2-1.3-0.9-2.2
	c0.4-1.3-0.7-2.1-1.3-3c-0.6-0.9,1.1-1.8,0.6-2.8c-0.5-1.2-0.1-2.6,0.9-3.5c-0.9-1.2-0.2-3-1.1-3.8c-1-0.1-3,0-3.6-1.1
	c-0.3,0.1-1.5,1.1-2.3,0.4l1.5-5.3l5.9-0.5l4.7-2h6.7l4-11l-2.6-2.9l1.8-6l-6.5-1.4c-0.1-1.1-3.2-5.9-5-6.3c-0.9-2-3.3-0.7-4.1-2
	c1.8-1.3,0-2.6,4.1-3.9c0.9-0.4,2-0.2,2.9-0.8l0.2-1.7l1.4-0.8l-0.3-1.3l3.2-5.4l1.4-0.6l11.1-15.2c2-0.5,3.6-1.2,2.9-2.8
	l-11.8-10.8l-7.4-2.2c-0.9-0.6-0.6-1.4-0.9-2.1c-4-4.1-7.9-8.4-12.1-12.3c-2.2-4.8-7.4-6.1-12-7.6c-2.2-4.1-3-8.5-6.4-11.5"/>
<path id="path6551" class="limite" d="M220.9,203.6c9.9-5.2,14.4-9,19.4-12.2c5.9-1,9.4-3.6,12.7-6.3c3.8,1.5,8.2-2.1,12.2-0.2
	c8.2-3.1,10.6-2.1,15.8-3.1c6.1-0.4,6.1,0.4,8.3,0.8c3.8-0.1,9.1-1.3,9.3,1.1c1-0.3,2-0.2,3-0.5c1.9-0.3,2.5,1.4,2.5,2.8
	c0.8,2.7,4.1,1.9,6.3,2.3c2.3,0.9,2,3.3,3.8,4.8c1.4-0.3,2.5-1.6,4-2.3c2.5-0.6,6.8-2.5,9.2-2.9c1.6-0.3,4.2,0.6,5.1-1.2
	c0.7-1.6,3.4-2.2,3.1-4.2c0.3,0,0.6,0.1,0.8,0.1c2.4-1.2,2.2-4.9,5.5-4.2c1.1-2,1.8-1.4,2.1-1.2c0.5,0.4,0.5-1.4,0.8-2.1
	s1.1-0.3,1.7-0.1"/>
<g>
	<g>
		<defs>
			<circle id="SVGID_1_" cx="300" cy="300" r="277.6"/>
		</defs>
		<clipPath id="SVGID_2_">
			<use xlink:href="#SVGID_1_"  style="overflow:visible;"/>
		</clipPath>
		<g class="st1">
			<g id="Region_Antofagasta-2">
				<g id="Provincia_El_Loa-2">
					<path id="antofagasta" class="region" d="M390.6,373.9l-2.3,0.4l-3,12.3L355,405.3l-4.4,1.5v0.1l-34.8,11.2l-21.9,24.2
						c-0.9-0.5-1.7-1.3-2-2.3c-0.9-1-0.9-2.4-1.7-3.4c-1.2-1.4-2.2-2.8-3.2-4.4c-0.8-1.3-1.5-2.6-2.1-3.9c-0.8-1.1-1.3-2.8-2.6-3.3
						c-1.8-0.4-4.5-0.8-6-2.1c-0.9-0.8-2-1.1-3.1-1c-1.5,1.5-3,1.3-5,0.8c-0.9,0-1.8,0-2.8-0.1c-0.1,0-0.2,0-0.4-0.1
						c-2.4-0.3-3.5-1-5.5-1.5c-1.9,0.1-3.8,0.3-5.6,0.7c-2.6,1.6-2.6,0.5-5-0.2c-0.8,0-1.6,0.4-2,1.2c-0.2,0.7-1.3,2-3.9,3
						c-1.5,1.6-2,3.6-0.2,6.5l-1.7,2.6c-0.6,3.3,0,6.9-5.5,8.9c0.1,2.7-0.4,5.9,1.5,6.8l-1.7,3.8c2.9,9.5,0.1,12.7-4.6,14
						c1.2,1.9,5.8,3.2,1.2,6.3c-0.2,3.8-2.2,7.9,0.4,11.1c-2.3,2.9-3.6,6.4-3.6,10.1c0.9,4.2-0.2,9.4-0.5,14.2
						c-0.4,2-1.7,3.6,0.2,6.8c-2.8,4-2,7.5,0.9,10.8c-1.4,2.8-1.6,5.8-3,5.5c-1.6,2.4-0.9,3.6,0,4.8c1.5,1.5,0.9,3.1-0.8,4.6
						c0.2,0.4,1,9.3-2.1,12.5c-2.4,4.7,1.1,6.8,1.8,9c-0.8,4.3-3.4,17.3-17.6,21.3c-4.5-0.4-3.5-4.3-3.8-7.1
						c-3.8,0.2-7.9,6.7-6.7,9.7c2.8,2.8,2.1,6,0.4,9.3c-0.6,1.5-0.9,3.2-0.7,4.8c0,1.2,1.1,3.3,1.1,4.5s0.6,3.9,0.4,4.8
						c-0.8,4.5-0.5,12.4-2.9,12c-0.7,2.8,0.8,1.7,3.3,3s4.5,1.6,5.6-0.7c0.2-0.4,0.3-5.3,1.8-4.1c1.4,1,4,0.3,5.6,1.9
						c5.1,5.2,4.8,9.8,4.5,16.8c-0.9,2.5-2.6,2.6-2.9,5.3c-1.3,2.6-3.2,6.1-4.9,7.8c-0.7,0.7-2.3,2.9-1.8,4.8
						c0.4,1.7-2.2,2.6-0.7,4.1c1,1,4.3,1.3,2.6,3c-2.2,10.7,0.5,10.7,0.8,15.7c-0.3,0.6-2.1,4-1.9,4.8c0.4,2.9-1.4,6.1-1.8,9
						c-0.8,4.4-2.7,7.7-4.5,11.9c0.5,1.5,2.7,4.3,2.2,6.4c-1,3.7-1.8,7.5-2.6,11.2c-1.2,0.8-0.6,2.3,0.2,4c1.5,3,3.9,6.9-1,10.6
						c0.8,6.6,2.3,13.2,4.5,19.5c0.6,4.6,2.2,8.9,4.9,12.7c1.5,3.7-0.7,6-2.3,8.6c0.8,1.7,1.8,3.4,3,4.8c1.8,2.6,4.1,5.7,3.4,9
						c-0.6,2.4-1.7,4-2.3,6.3c-0.7,2.7,0.8,4.5-0.4,6.8c-0.5,1.4-1.6,2.4-3,3c-2.7,1.8-2.9,4.7-4.5,7.5c-1.2,2.6-7.4,3.2-7.1,7.5
						c-1.2,3.3-1,6.7-3.4,9.3c-1.9,2.5-6.2,4.7-3.4,8.2c4.3,6.1-3.6,3.6-2.9,7.1c-2,0.9-3.3,3.6,0.7,9.3c1.9,3,3.9,4.8,6,7.5
						c1.4,3.4,1.2,7.2-0.4,10.4c0.6,0,0.8,0.4,1.1,0.7c2.7,2.3,4.7-2.7,6.4-7.1c6.8,1.4,9.8-1.8,12.7-5.2c3.5-1.3,9.5,3.4,9.4-6.8
						c2.3,0.8,6.4-1.5,6,3.8l5.6,1.1l10.1,1.5l4.1-3c1.6-1.7,5.5-2.2,9-3c0.9,1.4,2.9,3.2,6.8,5.6l1.8-3.3c2.7,2.6,8.2,0.9,12.7,0.7
						c1.5,3.2,11.8,0.5,19.9,3l-0.8-4.9c2.6,1.3,3-0.2,2.6-3c2.7,0.6,5.5,1.2,5.2-1.1c1.5-0.5,3-1.2,4.5,2.2l11.2-4.5
						c11.5,0.3,13.5-3.1,15.3-6.7c4.2-2.1,4.5-4.3,3.8-6.4c5.4,0,1-3.5-1.1-6.3c0.5-2.9,0.3-5.5-4.1-6.4l5.6-3.3
						c3.8-3.3,5-7,1.8-11.2c3-1,1.6-2.9-0.4-4.8l4.5-0.4c1.5,2.1,4,2.2,7.5,0.4h7.1c5.1,4.5,10.2-3.9,15.3-7.5
						c3.3-0.7,8.5-0.4,8-2.6c-0.2-3.1,1.5-6,4.2-7.4c1.7-2.5-3.1-6.4,1.6-7.3c1.8-3.7,5.3-2.1,8.2-1c3.6-0.5,3.9-6,1.5-8.2
						c-1.7-3.1-4.1-5.8-4.9-9.3c-1.8-2.8-2.2-6.5-5.8-7.8c-3.3-1.4-3.3-5.6-5.8-7.9c-2.5-2.6,3-4.2,3.5-7.1c2.2-2.5,1.4-7.4,3.3-9.8
						c3.9,1.4,4.9-2.7,5.6-5.7c1-2.5,1.1-6.4,4.7-6.4c2.6-0.7,6.5,1.1,7.2-2.6c1.3-1.5,1.9-3.3,3.3-4.7c1.4-1.4,13.8-5.5,13.8-5.5
						l70.7-28.2l31.4-103.5l-15.7-17.2l-33.2,8.2l-23.5-2.6c-1.8-3.2-9.4-1.8-6.3-7.4c1.1-2.6,0.2-5.6-2.2-7.1
						c1.5,0.3,2.2-5.1,1-8.5c1.4-3.1,6.8-8.4,1.2-10.4c-4.6-3-0.7-9.8-4.7-13.2c-0.2-0.3-0.4-0.6-0.5-0.9c0.3,0.2,0.2-0.6-0.4-0.9
						h-0.1c0-0.1-0.1-0.2-0.1-0.4s0,0,0-0.1c0.6-0.4,0-0.5-0.1-0.2c-0.9-3,0.1-6.6,0.2-10c1-4.3-3.9-7.7-2-12.2
						c2.6-2.7-1-4.1-1.5-5.8c-0.8-2.8-3.6-3.8-4.1-4.2c-1.5-1.6-3.2-3.1-5.1-4.2l-0.7-1.3l0.2-20l-3.6-4.3l-1.2-3.9l-6.3-7.7v-31.3
						l-9.9-18.7l-12.2-17.3L390.6,373.9z"/>
				</g>
			</g>
			<g id="Region_Arica_Parinacota">
				<g id="Provincia_Arica">
					<path id="arica-y-parinacota" class="region" d="M299,34.4l-18.6,15.2L268.8,48l-4,4.7v4.8l2.6,1.5v10.2l4.2,7.1l0.2,5l-2.1,4.7l-3.8,7.5
						l-3.2,4.8l-11.1,10h-7.4l-9.3,5.2l-4.9,0.2c-7.1-2.1-13.6-2.1-17.3,3c5.8,4.8,10,9.1,5.9,16.5c-0.7,1.9-1,4-2.8,5.4
						c-1.7-0.5,2.8,2.4,0.6,5c-1.7,1.4-0.1,3.4,0.2,5c0.7,1.4,0.3,3.1-0.9,4c0.6,1.6,2.1,3.9-0.4,4.6c-1,4.9-0.1,3.7,0.1,5.5
						c-0.1,1-0.1,2,0.1,2.9c1.4,0.6,0.3,1.9,0.2,3.4s1.1,1.9,1.5,3.7c0.5,2.1,1.6,3.6,2.1,5.7c2.1,2.6,0.2,2.4,0.1,4.2
						c0,0.7,2.2,3,2.5,3.6c0.7,1.7,1.2,3.4,1.6,5.2c0.2,0.8,0,0.9,1.2,2.1c0.8,1.5,0.1,3.5-1.2,4.6c1.9,1.4-1,4.3-1.1,4.7
						c9.8-5,14.2-8.7,19.2-11.9c4.7-0.8,9-3,12.5-6.2c3.7,1.5,8.1-2,12-0.2c8-3,10.4-1.9,15.6-2.9c6-0.4,6,0.4,8.1,0.8
						c3.7-0.1,9-1.2,9.1,1.1c1-0.3,2-0.2,2.9-0.5c1.8-0.3,2.5,1.3,2.5,2.8c0.7,2.7,4,1.9,6.1,2.3c2.3,0.9,2,3.2,3.8,4.7
						c1.4-0.3,2.5-1.6,3.9-2.3c2.5-0.6,6.7-2.5,9.1-2.8c1.6-0.3,4.2,0.6,5-1.1c0.7-1.5,3.4-2.2,3.1-4.1l0.8,0.1
						c2.4-1.2,2.1-4.8,5.4-4.1c1.1-2,1.9-1.4,2.1-1.2c0.5,0.4,0.5-1.4,0.8-2.1c0.4-0.6,1.1-0.3,1.7-0.1c-0.3-1.5,2.3-4.2,3.1-5
						c-0.4-0.2-1.4-5.4-2.6-8.5c-5.8-8.7-2.5-8.5-5-13c1.1-3.7-5.5-4.4-1.5-6.7c-0.6-4.2,3-10.4-0.7-13.4c-2.1-4.1-3.7-10-0.9-13.8
						c-2.2-1.3-3.7-2.8-2.2-5.3c2.4-6.2-6-3.4-6-8.5c-4-4,3.2-5.2,4.2-8.5c4-1.3,1.9-4.7-1-5.2c-2-4.5-7-3.1-11.1-4.8
						c-2.7,2-3.4-3.7-4.2-1.8c-1.2-0.3-2.2-1.1-2.8-2.2c-1.6-2.7-1.9-6-0.8-9c2.2-5.6-4.2-8.5-3.3-13.3l-11.9-12L299,34.4z
						 M348.9,170.4C348.9,170.4,348.9,170.5,348.9,170.4C349.3,170,349.2,170.1,348.9,170.4L348.9,170.4z"/>
				</g>
			</g>
		</g>
	</g>
</g>
<circle class="border-circle" cx="300" cy="300" r="277.6"/>
</svg>
